<svg xmlns="http://www.w3.org/2000/svg" viewBox="0 0 266.8 86">
  <path d="M117 1v2l1 2c0 1-4 2-5 1h-3c-2 2-2 2 1 3s4 4 1 4c-2 1-1 4 1 7l3 6c0 14 23 21 31 9l3-4c3 0 4-3 1-3l-3-4-1-7c0-3-2-4-10-7h-6l-5 1-4 1-2-2c-1-3-1-3 1-5s2-2 0-3c-2-2-3-2-4-1Zm2 12-2 1-1-3q0-3 1-1l2 3Zm16 1 3 2-3 2-4 3-2 1h2c1-1 2 0 2 1l-3 1c-2 0-2 0 0 0 2 1 3 3 1 4-2 0 0 8 2 9l1 1c-1 1-7 0-9-2l-3-3-3-4c-1-3-1-3 1-3l-1-2c-1-1-1-1 1-3 1-1 2-3 1-4-1-2 2-3 11-5l3 2Zm7 0-2 1-1-1 1-1 2 1Zm-24 3c2 0 2 1 1 2-2 1-2 0-4-1-2-2 0-3 3-1Zm27 1v1c-2-1-1 0 1 5s2 7 1 6l-3 6-2 2c-3 1-4 1-6-1-2-3-4-9-2-9l1-3c-1-6 7-11 10-7Z"/>
  <path d="M125 17q-2 2 0 1l3-2h-1l-2 1ZM141 21c2 3 2 8 0 11v3c1 0 3-5 3-9 0-3-1-4-2-5-3-2-3-1-1 0Z"/>
  <path d="m139 24 1 1v-1c0-1-1-2-1 0ZM195 55l-2 6-3 4-4 3c-5 5-3 11 2 10 3 0 4 0 5 2h3c1 0 1-1-1-2-2-2-2-4 1-13 2-4 3-8 2-9 0-2-3-2-3-1Zm-5 17c-3 3-4 3-2-1 1-1 2-3 3-2s0 1-1 3Zm2 2-2 1-1-1h3ZM7 60c-9 7-9 10 0 14l6 3-6 2c-6 1-7 2-1 2 10 2 12-3 4-9l-4-4 9-7c2-1 3-1 3-3-1-4-4-3-11 2ZM101 63l-3 9c0 5 3 9 5 8 1-1 1-2-1-3-2-2-2-4 2-11 3-8 4-10 1-10l-4 7Z"/>
  <path d="M108 61c-4 8-5 15-1 18h3v-1c-3-1-3-7 1-14 3-5 3-8 1-8l-4 5ZM21 64c-4 10-6 14-4 15 1 2 5 0 5-2s0-2 6 1c8 5 9 4 3-2l-4-4 2-1c3-2 4-4 1-6h-2c-1 2-2 1-1-2s0-6-2-6l-4 7Zm5 4c2 1 2 1 0 2l-1 2c1 3-1 3-2 1s-1-2-2 0l-1 2v-3l2-2 1-1v-3c0-2 0-2 1 0l2 2ZM154 66c-4 10-5 14-2 14 2 0 3-2 4-5l5 3c9 5 10 4 4-2l-4-4 2-1c3-2 4-4 1-6h-2c-1 3-2 1-1-2s0-6-2-6l-5 9Zm5 0c-1 1 1 3 3 2l-1 2c-1 1-2 3-1 4s0 0-1 0l-3-1-1-1c-1-1 2-8 3-8l1 2ZM259 62c0 2-2 3-3 4-3 0-4 3-2 3s2 1 1 4c-1 5 4 8 7 5v-2c-3-1-1-7 2-8s4-4 1-4l-1-2c-1-3-3-3-5 0Zm3 3v1l-3 3c-1 3-1 3-1 1 0-4 3-7 4-5ZM75 66l-2 5-1 6v8c2 2 3 1 4-4 1-4 2-4 4-4l6-1c3-3 2-8-2-10l-3-2c-2-3-4-2-6 2Zm4 3c-3 2-3 3-1 4l-1 2c-2 1-2 1-1-2 0-4 3-8 4-6l-1 2Zm4 2c0 1-2 3-3 2s1-3 2-3l1 1Zm2 2-1 1c0-2 1-3 2-2l-1 1ZM92 63c0 2 1 3 2 3l2-1c-1-2-3-3-4-2ZM234 64l2 2 2-1c-1-1-1-2-3-2-1-1-1 0-1 1ZM65 66c-3 2-3 5 0 7 2 1 2 1-3 2l-9 1h-3l3-3c4-2 6-5 4-7s-10 4-11 7c-1 6 1 6 17 5 8-1 9-2 6-6l-2-3 2-1c2 0 3-2 3-2 0-2-4-2-7 0Zm-12 4-1 1-1-1 2-1v1Z"/>
  <path d="M36 68c-2 5-2 7 0 9 1 2 2 2 3 1h3c1 0 2-1 2-5v-7c-1-2-3 0-4 4l-1 4 2-3 1 1-2 3-2 2v-8c1-4-1-5-2-1ZM117 67l-6 5v5c2 2 3 2 6 2l5-1c2-2 2-2-3-2-4 0-4 0-3-1 4-2 7-6 7-7-1-3-2-3-6-1Zm3 2-3 2-3 2 3-3 3-1ZM127 68c-2 5-2 12 0 12l2-4c1-5 2-6 4-5l3-1c1-1-2-4-4-3l-2-1c-1-1-2-1-3 2ZM141 69c-5 3-7 7-3 9h3c2-1 2-1 3 1l3 2c2 0 2 0 1-2l1-7c2-4 1-5-2-6-1-1-3 0-6 3Zm6 2-1 2-1 1-2 1-4-2h2l3-1c1-1 1-1 0 0-3 0-2-2 1-3l2-1v3ZM174 68c-5 3-6 5-6 7 0 3 4 4 6 2 1 0 2 0 3 2 1 3 4 3 3 0l1-7c1-2 2-4 1-5-2-2-5-1-8 1Zm5 4-2 2h-2c-1 2-3 1-3 0l2-1v-1c-1-1 1-1 1-2h2l1-1c2-1 2-1 1 3ZM202 68c-4 3-5 4-5 6l1 4c2 1 7 2 10 0h3l2 1c2-1 3-5 2-7v-1c1-1 1-1 0 0l1 2 1 2 1 3c2 1 6-2 6-4h-1c-2 2-4 1-5-2-2-4-2-4 1-3h2c1-3-1-4-4-3-3 0-6 5-6 9l-5 1c-5 0-5 0-4-1 5-3 7-5 7-7-1-3-2-3-7 0Zm2 2-1 1-1-1 2-1v1ZM246 67c-11 4-9 14 3 12 5-2 3-3-2-3l-4-1 2-1c2 0 6-4 6-6s-1-3-5-1Zm0 3-1 1v-1h1Z"/>
  <path d="M224 68c-3 3-3 4 0 2q3-2 2 1l-2 4c-1 2-2 8 0 8l1-1 2-7 3-6c-1-3-4-3-6-1ZM90 71c-2 3-1 7 1 9l4-2c2-1 2-2 1-2-2 0-2 0-2-2 2-4 1-5 0-5-1-1-3 0-4 2Zm2 4h-1v-1l1 1ZM232 71c-3 5 0 10 4 8 2-1 2-2 1-3l-1-3 1-4c-1-2-4-1-5 2Zm2 3h-1v-1l1 1Z"/>
</svg>
