<svg xmlns="http://www.w3.org/2000/svg" viewBox="0 0 273 86"><path d="M144 17c0 17 0 19 1 10 2-13 4-16 10-15 4 1 5 2 5 13 1 15 4 16 4 2s-7-24-15-18c-2 2-3 1-4-5-1-4-1 2-1 13ZM191 53c0 7 0 7-5 5-10-6-19 10-13 22 3 5 4 6 12 6l10-1V66c0-12-1-19-2-19l-2 6Zm-2 11c3 4 2 15-2 18-5 4-13-2-13-9l2-10c3-3 10-3 13 1ZM4 6c-9 13-2 31 11 31 5 0 8-1 11-4 4-7 2-9-3-3-8 10-19 3-19-11S15-3 23 7c2 3 5 4 5 3 3-3-7-10-14-10-4 0-7 2-10 6ZM0 67v19h8c14 0 21-11 16-26-2-8-6-11-16-11H0v18Zm16-13c9 5 9 23 0 27C5 86 4 85 4 67s1-19 12-13ZM37 12c-5 5-6 12-2 20 4 6 15 7 18 1 4-5 3-17-1-22-6-5-8-5-15 1Zm15 4c4 11-5 24-13 17-3-4-4-15 0-19 3-4 10-3 13 2ZM61 29c0 15 1 22 2 22 2 0 2-3 1-9 0-8 0-9 1-7 3 3 14 3 17-1l2-11c0-7-1-10-5-13-5-4-5-4-11 0l-4 2c1-2 0-3-1-4s-2 6-2 21Zm19-13c5 11-5 24-12 17-4-4-4-15-1-19 4-4 11-3 13 2ZM92 13c-3 4-4 7-3 12 2 9 4 12 11 12 6 0 13-5 10-9-1-1-2 1-3 3-2 5-10 5-13 1-4-5-3-8 2-7 13 3 20-7 11-14-6-5-9-5-15 2Zm15 1c4 5 2 7-7 7-5 0-8-1-8-2 0-3 4-7 8-7l7 2ZM117 22v16l2-11c1-13 3-16 9-15 4 1 5 2 5 13 1 15 5 16 5 2s-8-24-16-18c-1 2-3 1-4 0-1-2-1 4-1 13ZM175 10c-2 1-5 3-5 5-3 4-2 14 2 18 4 5 12 6 14 2 1-2 0-2-3-1-7 2-11-2-11-11 0-8 4-12 10-11 3 1 5 0 5-1l-1-2-5-1c-1 0-4 0-6 2ZM189 11c-1 21-1 26 2 26V8c-1-1-2 0-2 3ZM204 9c-7 3-10 18-4 24 4 5 13 6 15 2 1-2 0-2-4-1-6 2-10-2-10-11s4-12 11-10q5 1 1-3c-4-3-4-3-9-1Z"/><path d="m218 11-1 19c0 19-6 25-14 14-3-5-4-5-4-2 0 8 14 12 19 6 2-3 3-38 1-40-1-1-1 0-1 3ZM233 9c-8 3-10 18-4 24 5 6 15 5 18 0v-5l-2 2c0 4-10 6-13 3-4-5-3-9 2-8 7 1 14-1 14-5 0-5-6-13-9-13l-6 2Zm12 7c2 5 1 5-7 5-9 0-10-2-6-7 3-4 10-3 13 2ZM254 9c-2 2-2 28 0 28l3-11c1-20 13-20 15 1l1 11V26c1-16-5-23-13-17h-6ZM35 60c-3 2-4 5-4 12 0 10 2 14 10 14 7 0 13-6 13-14 0-7-2-10-8-14-5-3-6-3-11 2Zm12 3c4 4 3 15 0 18-4 5-12 1-14-5-2-12 8-21 14-13ZM56 60l3 15c2 6 4 11 5 10l5-10 4-10 3 11c3 12 6 12 9 0 4-13 5-21 3-19-1 0-3 6-4 13l-3 11-3-11-5-12c-1 0-4 5-5 12l-4 11-3-11c-1-7-3-13-4-13-1-1-2 0-1 3ZM94 70v16c1 0 2-4 2-10 0-11 2-16 8-16 5 0 7 4 7 17 0 5 1 9 2 9 2 0 2-14 0-22-2-7-8-9-13-6-3 2-4 2-5-1l-1 13ZM119 66c0 13 3 20 8 20 13 0 13 0 13-16 0-9-1-14-2-13l-2 12c0 11-2 15-9 14-3 0-4-3-4-12-1-16-4-20-4-5ZM145 70c0 19 4 22 5 4 0-12 0-12 6-12s6 0 6 12c1 15 4 16 4 0 0-9 0-12-5-15-4-3-5-3-8-1-4 2-5 2-6 0s-2 3-2 12ZM203 62c-3 4-4 7-3 12 2 9 4 12 11 12 6 0 13-6 10-9-1-1-2 0-3 3-2 4-10 5-13 1-4-5-3-8 2-7 13 3 20-7 11-14-6-6-9-5-15 2Zm15 1c4 5 2 7-7 7l-8-2c0-4 4-8 8-8 3 0 5 2 7 3ZM228 70l1 16 1-8c-1-9 2-18 6-18 2 0 3-1 3-2 0-3-2-3-6 0-1 2-3 1-4-1-1-1-1 5-1 13Z"/></svg>