<svg xmlns="http://www.w3.org/2000/svg" viewBox="0 0 175.7 86">
  <path d="M56 1c-4 1-6 3-5 5s2 1 1-1c0-1 0-2 1-1l1-1 1-1v3l2-1 13 1h4l3 3c4 3 6 9 7 19l-1 10-18 1-18 1c0 1 0 0 0 0l-2-1c-3 0-3-3-3-13 1-7 1-8 4-12 2-5 2-7-1-3 0 2-2 3-2 3v-2l2-2c1-1 1-2 3-1l2-1-1-1V5l-3 2c-4 4-8 13-6 14v19l24 1h22V15C84 9 78 4 72 2l-5-1c-1-1-1 0-1 1h-1c-1-2-4-2-9-1Zm26 7-2 1-1-1 1-1 1 1Zm2 6v1l-2-3 2 2Zm2 5v1l-1-1c-1 0-1 0 0 0h1ZM45 39l-1 1v-2l1 1Zm9 0-2 1v-1h2Zm14 0-1 1-1-1 1-1 1 1Zm6 0h-1c-1 0-1 0 0 0h1ZM96 3c0 2 0 3 2 3V5l-2-3v1ZM101 3q-1 2 2 2c2 0 2 0 1-3l-1-2-2 3Zm2 0-1 1V3l1-1v1ZM106 3c0 3 0 3 1 1V2l1 2c2 2 3 2 3-1V2l-1 3-2-3-2-2v3ZM112 3c1 3 2 4 4 2 1-1 2-1 1-3l-3-1c-2-1-2 0-2 2Zm4 0-1 2c-2 1-2 1-2-2s2-3 3 0ZM118 2l2 2 1 1h-2v1c1 1 1 1 2-1 2-1 2-1 0-2-2 0-3-1 0-2h-1c-1-1-2 0-2 1ZM124 1h2-2ZM128 1v2l1-1 1-1c2 0 2 1 2 2 0 2-1 3-3 2q-2-1 0 0c1 1 1 2 3 1 2-2 1-5-1-5h-3ZM134 3c0 2 0 3 1 2V2l1-1h2l-2-1c-2 0-2 1-2 3ZM140 3c0 3 0 3 2 3 1 0 2 0 0 0-1-1-2-2 0-2V3c-2 0-1-2 0-2 2 0 1 0 0 0-2-1-2 0-2 2ZM144 3c1 3 1 3 1 1l1-2 1 2c1 2 3 2 3-1-1-3-1-3-1-1v3l-2-3-3-2v3ZM151 3v1-3 2ZM153 3c0 2 0 2 1 1h2c2 1 1 2 1-1V2l-1 2-1-2-2-2v3ZM159 2c-2 2 1 5 4 4 2-1 2-3 0-3v2c-2 1-4-1-3-3h2l2-1c0-1-4-1-5 1ZM165 3l2 3c1 0 1 0 0 0-1-1-1-2 1-2V3l-2-1 2-1h-1c-2-1-2 0-2 2ZM171 1s0 2 2 3l2 2V3c0-3 0-3-1-1v2l-2-2-1-1ZM124 4h2l-1-1c-1 0-2 0-1 1ZM137 4v1l1-1h-1ZM164 18c-2 1-6 4-6 6s3 5 8 6c8 3 10 6 6 9-3 2-8 2-11-1-2-2-3-2-2 0s6 4 10 4c6-1 8-5 6-9-2-2-12-6-13-5l-1-1v-2c-1-2 0-4 2-5 4-1 7-1 9 2 2 2 3 2 3 0s-7-5-11-4ZM95 30v11h8c6 0 7-1 9-3 2-3 3-4 3-7 0-6-3-10-6-12H95v11Zm15-9 1 1 1 2 1 6c0 4 0 5-3 7s-3 2-8 2h-5V20h4l5 1h4ZM123 26l-3 8v1c-1-1-4 4-4 6 0 1 2 0 3-2 1-3 2-3 8-3l7-1 2 2 2 4-10-22-5 7Zm8 1 2 7-5 1-6-1 6-13 3 6ZM137 19l5 1h4v7l1 15V20h9l-9-1h-10ZM1 46v16c-2 0-1 7 1 12 3 5 7 9 14 11h5-2l5-1-1 1c-2 1 5 1 8 1l1-2h5l-3-1-4-1H14c0 1 0 0 0 0l-1-2c-2 0-6-4-8-7-1-4-3-21-1-23l18-1 18-1c0-1 0-1 0 0l3 1 1 10c1 8 0 10-2 13l-3 6-1 2v2l3-3c5-4 7-9 7-22l-1-11H1Zm18 1-1 1-1-1 1-1 1 1Zm2 0-1 1v-1l1-1v1Zm5 1-1-1c-1-1-1-1 0 0l1 1Zm10-1h-3 3Zm-21 1h-3l1-1 2 1Zm29 27-2 2-1 2h-1l4-5v1ZM7 79l-2-1c-1-2 0-2 1-1l1 2ZM79 46v3l2 1 1 1-1 1c-2 0-2 0-1 1s3 0 3-2l-2-2c-2-1-2-1-1-2h3c0-1-2-2-4-1ZM122 47c-2 2-2 3 0 5s4 2 5-1c3-3-1-7-5-4Zm5 4-2 1c-2 0-2 0 0-3q1-1 0 0c-3 3-5 1-2-1 1-2 2-2 3 0 1 1 2 1 1 3ZM57 49c0 3 0 3 3 3l3-1c1-3-1-5-4-5-2 0-2 1-2 3Zm4 1c0 2-2 2-2-1 0-1 0-2 1-1l1 2ZM65 49c-1 3-1 3 2 3s3 0 2-3-2-3-4 0Zm3 1-1 1-1-3h2v2ZM71 49c0 4 0 4 1 1v-2l2 2c3 3 3 3 3-1 0-3 0-3-1-1v3l-2-2c-2-4-3-3-3 0ZM85 49c0 2 0 3 1 2v-1l3 1q2 2 0 0v-3l1-2-2 2c-2 1-2 1-2-1-1-1-1 0-1 2ZM95 49l-1 3h6l-1-3c-1-3-2-3-4 0Zm3 1-1 1-1-1 1-1 1 1ZM102 49v1q1-2 2-1c0 3 2 3 2 1v-1c-1 1-2 0-3-1l-1-2v3ZM107 47l1 3v-1c1-3 0-3-1-2ZM111 49l-1 3h3c3 0 4-1 0-2-1 0-2 0-1-1h2v-1c-1-2-2-2-3 1ZM117 47l1 3v3l1-3 1-3-2-1c-2 0-2 1-1 1ZM130 49v2h3c1 1 1 1 1-2 0-2 0-2-2-3-2 0-3 0-3 3Zm4-1-2 2-2-2 2-1 2 1ZM139 47l1 1 1 2 1 2 1-2v-2l1-1-2-1-3 1ZM145 49c1 3 1 4 3 4l2-1-2-1c-3 0-2-1 0-2h2-2c-3 0-2-2 1-2 2 0 2 0-1-1-3 0-3 0-3 3ZM153 49c-2 3-2 3 1 3s3 0 2-2l-1-1-1 2v-5l-1 3ZM158 47l1 3 1 3v-3l1-3-1-1-2 1ZM164 49c0 3 0 4 2 4l2-1h-2l-2-1 2-2h2-2l-2-1 2-1c2 0 2 0 0-1-2 0-3 0-2 3ZM170 49c0 3 0 3 1 2h2c1 1 2 1 1-2 0-2 0-2-2-3-2 0-2 0-2 3Zm4-1-2 2-1-2 1-1 2 1ZM101 57v3c-2 1-1 3 2 2l3-1-2-1v-2c1-2 0-2-1-2l-2 1Zm2 1h-1v-1l1 1Zm0 3-1 1c-1 0-2-1-1-2s2 0 2 1ZM111 56c-1 2-1 3 1 4l2 1h-3c0 2 3 2 3 0 1-1 0-2-1-2v-1l2-1c-1-1-3-2-4-1ZM116 57c-1 4 2 7 5 5 2-1 2-1 0-1-3 1-5-1-4-3l3-1h2c-2-2-5-1-6 0ZM124 59c0 3 0 3 2 3s2 0 0 0c-1 0-2-1-2-3s1-2 3-3h-1c-3 0-3 0-2 3ZM130 59v1-3l3 3 3 3-1-4v-1 3l-3-3-2-3v4ZM137 59c0 3 1 4 3 4 2-1 2-1 0-1-1 0-2-1-2-3s1-2 2-3c2 0 2 0 0 0s-3 0-3 3ZM144 59v2l1-2 2 2 2 1-2-2c-1-1-1-1 1-3h-1l-2 2-1-2v2ZM150 58c0 3 2 5 4 5l1-4 1-4-1 3c-1 5-4 5-4 0l-1-2v2ZM158 59v1-3l2 3c1 1 2 2 3 1v-5l-1 3 1 2-3-3-2-3v4ZM165 56c-1 1-1 2 2 3 2 2 2 3 0 3h-2c1 1 4 1 4-1l-1-2c-3-1-3-3-1-2h2l-4-1ZM171 56l2 4v3-3l2-4h-4Z"/>
  <path d="m125 59 1 1 2-1-2-1-1 1ZM139 59l1 1 1-1-1-1-1 1ZM34 81l2 2 1-1c-1-2-3-2-3-1ZM124 5l-1-4v1l1 4V5ZM172 4l-1-3c-1-1-1 0-1 1l1 3c1 2 1 1 1-1Z"/>
</svg>
