<svg xmlns="http://www.w3.org/2000/svg" viewBox="0 0 175.7 86"><path d="M55.6 1.4c-3.9.8-6 2.7-5 4.2s2.4 1 1.8-.8c-.2-1.2 0-1.5.8-1.2.7.3 1.2 0 1.2-.7s.3-.7.6-.5c.3.4 0 1.1-.5 1.8-.8 1-.8 1.3.7.8 1-.2 1.7-.7 1.4-1-.4-.8 9.5-.2 13.3.8 2 .4 2.9.3 3.2-.3.2-.6.5-.5.5.3 0 .7 1.4 2.1 3 3.2 4.7 3 6.8 8.5 7 19 0 5 0 9.3-.3 9.8-.3.4-8 .8-18 1-11.6 0-17.6.4-18 1-.5.7-.7.7-.7-.1 0-.6-.8-1-1.8-1-2.3 0-2.7-2.5-2.4-12.4.4-7.6.6-8.8 3.1-12.7 2.8-4.4 2.6-6.4-.1-2.2-.8 1.2-2 2.1-2.6 2.1-.7 0-.6-.4.4-1 .7-.7 1.6-1.8 2-2.8.4-1 1.1-1.4 2.7-1.2 1.2.3 2.2.1 2.2-.2 0-.5-.4-.8-.9-.8-.4 0-.5-.6-.2-1.5.3-.8-1.1.2-3.1 2.1-3.7 3.6-7.9 12.7-6.2 13.8.4.2.5.8.3 1.3-1 1.7-1 17.2.1 18 .5.4 11.1.7 23.6.6l22.6-.1V28.5c0-6.6-.3-12.8-.6-13.9-1.7-5.8-7.2-11-13.3-12.5l-5-1.3c-1.2-.4-1.6 0-1.6 1.1q0 1.5-1 0c-1-1.6-3.4-1.7-9.2-.5Zm25.9 6.8c0 .4-.6.6-1.3.4-.7-.4-1.3-.7-1.3-1s.6-.3 1.3-.3 1.3.4 1.3 1Zm2.5 6q1 2.2-.2.6c-.8-1-1.4-2-1.4-2.6 0-1 .4-.6 1.6 2Zm1.9 5.3c0 .4-.2.8-.4.8s-.7-.4-1-.8c-.2-.6 0-1 .4-1 .5 0 1 .4 1 1Zm-41 19.9c0 .4-.2.8-.4.8-.3 0-.7-.4-1-.8-.2-.6 0-1 .4-1 .5 0 1 .4 1 1Zm9.1 0c-.3.4-1.2.8-2 .7-1.2 0-1.1-.1.3-.7q2.3-1 1.7 0Zm13.5-.6c0 .3-.3.7-.8 1-.5.3-1 0-1-.4 0-.5.5-1 1-1s.8.3.8.4Zm6.8.2c-.3.3-1.1.4-1.7.1-.7-.3-.4-.5.5-.5 1-.1 1.5.1 1.1.4ZM95.7 3c.2 2.3.6 3.1 2 3.3 1.5.4 1.6.3.2-.8-.8-.7-1.6-2.1-1.8-3.3-.3-1.4-.5-1.2-.4.8ZM101.3 2.7q-1.3 2.5 1.2 2.5c3 0 3-.1 1.3-3L102.6.1l-1.3 2.6Zm2 .3c0 .5-.4.9-1 .9-.4 0-.5-.4-.3-.9.3-.5.7-.8 1-.8.2 0 .3.3.3.8ZM106 3c.1 2.7.2 2.8.7.9l.6-2.2 1 2c1.7 2.8 2.9 2.4 2.8-1-.2-2.4-.2-2.5-.5-.4l-.4 2.5-2-2.5L106 0v3ZM112.2 3.1c.4 3.3 1.4 3.9 3.8 2.2 1.4-1 1.6-1.6.8-2.9a4.6 4.6 0 0 0-3-1.8c-1.7-.3-1.8 0-1.6 2.5Zm4-.4c.2.8 0 1.7-.7 2.1-2 1.3-2.6 1-2.6-1.3s2.4-3 3.3-.8ZM118.2 1.8c0 .8.8 1.6 1.7 1.8s1.5 1 1.2 1.3-1 .7-2 .3c-1.1-.4-1.2-.3-.2.5.8 1 1.4.9 2.6-.3 1.4-1.5 1.4-1.6-.5-2-2.3-.6-2.6-1.8-.4-2.4 1.2-.3 1-.4-.4-.5-1.3 0-2 .5-2 1.3ZM124.1 1c.5.2 1.6.2 2.2 0 .5-.2 0-.4-1.1-.4s-1.7.2-1.1.4ZM128.2 1.3c-.3.5-.3 1.2 0 1.5.2.3.4 0 .4-.5 0-.6.8-1 1.8-1 1.1 0 1.7.6 1.7 1.6 0 2.4-1.4 3-3.3 1.8q-1.4-1 0 .5c1.2 1.3 1.7 1.4 2.9.4 2-1.5 1.3-4.7-1-5-1-.2-2.2.2-2.5.7ZM133.9 3.2c0 2 .2 2.5.8 1.6.4-.6.6-1.8.2-2.5-.3-1 0-1.2 1.4-.8 1 .3 2 .1 2-.3s-1-.8-2.2-.8c-2 0-2.2.4-2.2 2.8ZM140 3.5c0 2.6.3 3 2 2.9 1.4 0 1.6-.2.4-.5-1.8-.4-2-1.7-.4-2.3.9-.3.9-.5 0-.5-1.7 0-1.4-1.6.4-2 1.2-.4 1-.5-.4-.6-1.8 0-2 .4-2 3ZM144.4 3c.1 2.7.2 2.8.7.9l.6-2.2 1.1 2c1.6 2.8 2.8 2.4 2.7-1-.2-2.4-.2-2.5-.5-.4l-.4 2.5-2-2.5-2.1-2.3v3ZM150.6 3c0 1.7.2 2.4.5 1.5a9 9 0 0 0 0-3c-.3-.8-.5-.1-.5 1.5ZM153.2 3c0 1.7.2 2.4.5 1.5.4-1.6.5-1.6 2 0s1.7 1.3 1.7-1.6c-.1-2.3-.3-2.5-.6-.8l-.4 2.1-1.7-2.1-1.6-2.1v3ZM159.3 1.6c-2 2.3.8 5.5 3.8 4.4 1.9-.7 1.7-3-.1-3-1.3 0-1.4.2-.4.8.9.5.9.9 0 1.4-1.2.9-3.8-1.7-3-3 .4-.6 1.4-1 2.3-.7 1 .3 1.7.1 1.7-.3 0-1.2-3.2-1-4.3.4ZM165.5 3.2c.1 2 .7 2.9 1.8 3 1 0 1.1 0 .2-.3-1.8-.5-1.7-1.7.2-2.3 1.4-.3 1.4-.4 0-.5-.8 0-1.5-.4-1.5-.9s.7-1 1.5-1.2c1-.2 1-.4-.5-.5-1.7 0-2 .3-1.7 2.7ZM170.5 1c0 .5 1 1.8 2.2 2.9l2.2 2v-3c-.2-2.6-.3-2.6-.8-.7l-.6 2-1.5-2c-.8-1.2-1.5-1.8-1.5-1.3ZM124.1 3.6c.6.3 1.4.2 1.7 0 .3-.3-.2-.6-1.2-.5-1 0-1.2.3-.5.5ZM137 3.8c-.3.4-.2 1 .2 1.3s.8 0 .8-.8c0-1.4-.3-1.6-1-.5ZM164 18.4c-2.4.6-5.7 3.7-5.7 5.4 0 2.7 2.7 5 7.3 6.4 8 2.3 10.7 5.8 6.5 8.6a9.3 9.3 0 0 1-10.9-.8c-2.4-2.4-3.2-2.4-2.4-.1 1 2.3 6.2 4.2 10.2 3.6 5.6-1 8.4-5 5.7-8.5-1.3-1.6-11.8-6-13-5.2-.4.2-.8.1-.7-.3.1-.4 0-1.4-.4-2.3-1-2.1 0-4 2.5-4.9 3.8-1.4 6.5-1 8.8 1.3 2.6 2.5 3 2.6 3 .9 0-2.5-6.7-5-10.9-4ZM95.5 30v11.3l7-.4c6.8-.3 7.2-.4 9.6-3.1 2.1-2.3 2.6-3.5 2.6-7.2 0-5.2-2.6-10-5.9-11.2-1.1-.5-4.6-.8-7.8-.8h-5.5v11.3Zm14.6-8.6c.6 0 .9.3.6.5-.2.2.3 1.2 1 2 1 1.2 1.6 3 1.5 6.1-.1 4-.5 4.9-2.8 7s-3.5 2.4-8 2.4h-5.2v-19l3.3-.2c1.8-.2 4.5 0 5.9.4l3.7.9ZM123.4 26a27 27 0 0 0-3 8.3c.4.6.3.7-.2.5-.7-.5-3.8 4.4-3.8 5.9 0 1.3 1.8 0 2.8-2 1.1-2.3 1.5-2.4 8-2.6 4.5-.2 6.7-.6 6.7-1.3 0-.6.8.6 1.7 2.6.9 2 2 3.7 2.6 3.7 1 0-9.2-22-10.4-22.3-.6-.2-2.5 3-4.4 7.1Zm7.4 1c1.5 3.3 2.6 6.2 2.6 6.7s-2.5.9-5.8.9-6-.3-6-.6c0-1.2 5.6-12.8 6-12.8a25 25 0 0 1 3.2 5.9ZM137.4 19.5c0 .5 1.9.8 4.3.8h4.3v7.1c0 11.3 0 14.9.6 14.3.4-.3.5-5.2.5-11l-.2-10.4h4.4c2.4 0 4.4-.3 4.4-.8s-4-.8-9.2-.8-9.1.3-9.1.7ZM.8 46.3c-1 1.7-.6 14 .6 14.9.8.5.8.7-.2.7-2 0-1.3 7 1.2 12.5a20 20 0 0 0 13.3 10.5c5 1.4 5.6 1.4 5.6.2 0-.5-.6-.7-1.5-.4-.9.3-1.2.2-.8-.1.9-.9 5-1 5-.2 0 .4-.6.9-1.1 1-1.6.8 5.5.8 7.7.2 1.2-.4 1.9-1 1.6-1.2-.2-.4.7-.5 2-.3l2.4.3-2.2-1.3c-2.4-1.3-4.7-1.8-4-.6.5.8-9.2.3-13.2-.7-2-.5-2.9-.4-3.2.2-.2.6-.5.4-.5-.5 0-.8-.4-1.5-.9-1.5-1.6 0-6-4.4-7.5-7.4A63.5 63.5 0 0 1 3.7 50c.5-.8 5.5-1.1 18.3-1.2 12.6 0 17.6-.3 17.6-1.1 0-.6.3-.6.7-.1.4.4 1.4 1.3 2.4 1.8 1.5.9 1.7 2 1.7 10 .1 7.8-.1 9.5-2 13a36.2 36.2 0 0 1-3.7 5.8c-1 1-1.3 1.8-.9 1.8.5 0 .6.7.3 1.5s1.2-.2 3.2-2.1c5-4.9 6.3-9.3 6.3-22 0-5.6-.2-10.6-.6-11-.7-1.2-45.5-1.3-46.2-.1Zm17.9.9c0 .4-.2.8-.4.8-.3 0-.7-.4-1-.9-.2-.5 0-.8.4-.8.5 0 1 .3 1 .9Zm2.6 0c0 .4-.5.8-1 .8-.4 0-.6-.4-.3-.9.2-.5.7-.8 1-.8.1 0 .3.3.3.9Zm4.8.6c-.3.3-1 0-1.6-.6-.8-.8-.7-1 .5-.4.9.3 1.3.8 1 1Zm10-1.2c0 .2-.8.5-1.7.8s-1.6.1-1.2-.3c.4-.8 3-1.2 3-.5Zm-21.5 1.1c-.6.2-1.7.2-2.2 0-.6-.2-.2-.4 1-.4s1.7.2 1.2.4Zm29.2 27.5c-.9.6-1.6 1.5-1.6 2s-.6 1-1.3 1.4c-.7.3-1.3.3-1.3.1 0-1 3.8-4.7 4.7-4.7.5 0 .3.6-.5 1.2ZM7.1 79c-.5.1-1.2-.3-1.6-1-1.3-2-.9-2.5.8-1 .8 1 1.2 1.8.8 2ZM79.4 46.5c-1.1.6-1.3 1-.4 2 .5.7 1.5 1.2 2.1 1.2.8 0 1.3.6 1.3 1.4 0 1-.6 1.3-1.9 1-1.4-.4-1.6-.3-1 .4 1.3 1.2 3.8.3 3.8-1.5 0-.7-1.1-1.7-2.4-2.2-1.8-.7-2.1-1-1.1-1.7.8-.4 1.6-.4 2.3.2.8.6 1.2.6 1.2 0 0-1.3-2.1-1.8-3.9-.9ZM122.4 47.2c-2 2-2 2.9-.2 4.6 1.8 2 3.5 1.7 5-.4 2.7-3.8-1.4-7.5-4.8-4.2Zm4.4 3.5c-.4 1-1.4 1.6-2 1.6-1.8 0-1.8-.7.2-3q1.4-1.7-.4-.3c-3 2.6-4.3 1.3-1.5-1.4 1.3-1.3 1.5-1.3 3 0 1.2 1.2 1.4 1.9.7 3ZM57 49.3c0 2.8.2 3 2.6 3 1.8 0 2.8-.5 3.1-1.7.8-2.3-1-4.3-3.5-4.3-1.9 0-2.1.4-2.1 3Zm4.3.3c-.5 2.3-2.5 2.2-2.5-.2 0-1.6.4-2 1.3-1.6.8.2 1.3 1 1.2 1.8ZM65.4 48.8c-1.7 3.3-1.8 3.1 1.6 3.1 2.8 0 2.9 0 2.1-2.4-1.2-3.4-2.2-3.7-3.7-.7Zm3 1.1c0 .4-.6.7-1.3.7-1.5 0-1.6-.2-.8-2.2.4-1 .7-1.2 1.3-.2.5.6.8 1.4.8 1.7ZM71.1 49.5c.1 3 .2 3.2.7.7l.5-2.5 1.9 2.3c2.5 3.1 3 3 2.8-1 0-3-.1-3-.7-.6l-.6 2.6-1.5-2.4c-2.2-3.2-3.2-3-3 .9ZM85.2 49.3c0 2 .1 2.8.4 2 .2-.9.6-1.6.9-1.6.3 0 1.4.7 2.3 1.5q1.9 1.6.4-.3c-1.5-1.6-1.5-1.8-.1-3.1.9-.8 1-1.5.5-1.5s-1.5.6-2 1.4c-1.1 1.2-1.3 1.2-1.8-.3-.5-1-.6-.4-.6 1.9ZM95.3 49.1 93.9 52h6.5l-1-2.5c-1.6-3.5-2.4-3.6-4.1-.3Zm2.8.6c0 .5-.4 1-.9 1a1 1 0 0 1-.9-1c0-.5.5-.8 1-.8.4 0 .8.3.8.9ZM101.8 49.3c0 3.3 0 3.3.6.9q.6-2.5 1.3-.7c.8 2.3 1.8 2.6 2.6.6.3-.8.2-1-.3-.8-.6.4-1.7-.3-2.7-1.4l-1.6-2v3.4ZM107.4 46.9c-.1.4 0 1.8.4 3.3q.6 2.5.7-.7c0-3-.3-4-1-2.6ZM111 49l-1.3 2.9h2.9c3.4 0 4-1 .8-1.5-1.7-.1-2-.5-1.3-1.5.8-1.2 1-1.2 1.7 0 1 1.4 1.1.8.4-1.2s-1.7-1.8-3.2 1.3ZM116.7 46.9c1 .3 1.6 1.3 1.6 3.1l.1 2.8.4-2.6c.2-1.4.8-2.9 1.4-3.2.6-.4-.4-.6-2-.6-1.7 0-2.4.2-1.5.5ZM129.5 49.5c0 2.4.3 3 .9 2 .6-1 1.1-1.2 2.4-.4 1.4.9 1.6.7 1.5-1.7 0-2.3-.4-2.7-2.4-3-2.2-.2-2.4 0-2.4 3Zm4.4-1c0 .6-.8 1.2-1.8 1.2s-1.7-.6-1.7-1.3.8-1.3 1.7-1.3 1.8.6 1.8 1.3ZM139.1 47.1c0 .5.5 1 .9 1 .5 0 .9.9.9 2s.4 2.2.8 2.2c.6 0 .9-1.2.9-2.6s.4-2.5.9-2.1c.5.2.8 0 .8-.4 0-.5-1-1-2.6-1-1.4 0-2.6.4-2.6 1ZM145.4 49.5c.2 2.7.6 3.3 2.3 3.5 1 .2 1.9 0 1.9-.6s-.8-1-1.8-1c-2.3 0-2.1-1.5.3-2l2-.3-2-.1c-2.8-.2-2.5-1.7.4-2.1 2.2-.4 2.1-.4-.5-.5-2.8-.1-2.9 0-2.6 3ZM152.6 48.9c-1.6 3.2-1.8 3 1.7 3 2.7 0 2.9-.2 2-1.7-1.1-2.4-2-3-1.2-1.1.3 1 0 1.5-.7 1.5-1.6 0-1.6-.4-.5-2.7.6-.8.7-1.6.6-1.6-.3 0-1 1.1-1.9 2.6ZM158 47c.6.3 1.2 1.8 1.5 3.2l.3 2.6.2-2.8c0-1.5.6-3 1.2-3.1.5-.3 0-.5-1.6-.5-1.4 0-2.1.2-1.5.6ZM163.7 49.5c.2 2.7.6 3.3 2.3 3.5 1 .2 2-.1 2-.7s-.8-.7-1.8-.4c-1.3.4-1.8.2-1.8-.8 0-.7.9-1.4 2-1.6l2-.4-2-.1c-1.1 0-2-.5-2-.9s.9-1 2-1.2c1.6-.4 1.5-.4-.5-.5-2.4-.1-2.4 0-2.2 3ZM169.7 49.5c0 2.4.2 3 .8 2 .6-1 1.2-1.2 2.5-.4 1.4.9 1.5.7 1.5-1.7 0-2.3-.4-2.7-2.4-3-2.3-.2-2.4 0-2.4 3Zm4.3-1c0 .6-.8 1.2-1.7 1.2s-1.8-.6-1.8-1.3.8-1.3 1.8-1.3 1.7.6 1.7 1.3ZM101.2 56.8c-.4.5-.4 1-.1 1.3s0 1-.5 1.7c-1.4 1.6-.1 2.8 2.6 2.7 1.5-.1 2.4-.7 2.4-1.6s-.5-1.3-1.2-1c-.9.3-1-.1-.6-1.9s.2-2.2-.7-2.2c-.8 0-1.7.4-2 1Zm2.1.7c0 .5-.3.9-.8.9a1 1 0 0 1-1-.9c0-.5.5-.8 1-.8s.8.3.8.8Zm0 3.6c0 .4-.6.8-1.3.8-1.3 0-1.7-1-.8-2 .7-.7 2.1 0 2.1 1.2ZM111 56.3c-1.2 1.2-.7 2.7 1.3 3.7l2 1-2-.4c-1.4-.2-2 0-1.7.7.5 1.6 3.1 1.7 3.8 0 .4-.9 0-1.8-1.1-2.7q-1.6-1.2-.1-.7c1.1.3 1.5.2 1.3-.5-.4-1.3-2.7-2-3.6-1ZM116.4 57.4c-1.7 3.3 1.8 6.4 5 4.4 1.3-.7 1.2-.7-.7-.3-2.6.5-4.6-1.3-3.8-3.6.5-1 1.3-1.3 3.4-.9 1.9.3 2.3.3 1.4-.4-2.1-1.3-4.2-1-5.3.8ZM123.6 59c.2 3 .5 3.3 2.7 3.4s2.2 0 .2-.3c-1.8-.3-2.2-.9-2.2-2.8s.4-2.5 2.4-2.9c2.2-.3 2.1-.3-.5-.5-2.8-.1-2.9 0-2.6 3.1ZM129.7 59.3c0 3.3.2 3.4.4 1l.4-3 2.5 3 2.5 2.9v-4c-.1-3-.2-3.2-.5-1l-.3 2.7-2.6-2.8-2.5-2.7v3.9ZM137.4 59.3c0 3.2.1 3.4 2.4 3.3 2-.1 2.1-.1.4-.5-1.5-.3-2-1-2-2.8s.5-2.6 2-2.9c1.7-.3 1.6-.3-.4-.5-2.3-.1-2.4.2-2.4 3.4ZM143.7 59.3c-.1 3.4 0 3.6.7 1.7l1-2.2L147 61c.8 1.1 1.6 1.6 1.6 1.1 0-.4-.6-1.3-1.3-1.9-1.2-1-1.2-1.3.2-3 1.3-1.4 1.1-1.4-.8.3l-2.3 2-.4-2c-.2-1-.5-.3-.5 1.9ZM149.6 57.7c0 2.9 2 5.3 4 5 1.3-.3 1.7-1.2 1.8-3.9l.1-3.4-.5 3c-1 5-4.3 4.4-3.7-.6 0-.5-.3-1.2-.8-1.6-.5-.2-.9.4-.9 1.5ZM157.6 59.3c.1 3.2.2 3.3.5 1l.3-2.9 1.8 2.3c1 1.2 2.1 2 2.6 1.7 1.1-.7 1-5.6-.2-5.6-.6 0-.7 1-.3 2.8l.5 2.8-2.6-3-2.7-3 .1 3.9ZM165 56.4c-1 1-.6 2 1.6 3 2.9 1.3 2.8 2.8 0 2.2-1.5-.3-2-.1-1.5.4 1.1 1.1 3.9.6 4.3-.8.3-.6-.6-1.5-1.8-2-3-1.3-3-2.9-.1-2.4 1.1.3 1.9.1 1.6-.2-.5-1-3.3-1-4-.2ZM171.2 56.5c.5.3 1 2 1.4 3.6l.3 3V60c.3-2.2.7-3.3 1.8-3.6.8-.3.1-.4-1.5-.5-1.7 0-2.6.2-2 .6Z"/><path d="M125.2 59.3c0 .4.6.8 1.3.8s1.3-.4 1.3-.8c0-.6-.6-1-1.3-1s-1.3.4-1.3 1ZM139.1 59.3c0 .4.5.8.9.8.5 0 .9-.4.9-.8 0-.6-.4-1-1-1-.3 0-.8.4-.8 1ZM34.4 81.2c0 .8.6 1.4 1.4 1.4s1.2-.4 1-1c-.5-1.6-2.4-1.9-2.4-.4ZM124.2 5c0-3-.3-4-1.1-4.3-1-.5-1-.4-.2 1 .5.9 1 2.8 1 4.3.2 1.8.3 1.5.3-1ZM171.7 4.3c0-2.4-.3-3.3-1.1-3.5-1-.4-1-.3-.2 1 .5.6 1 2.1 1 3.4.2 1.4.3 1.1.3-1Z"/></svg>