<svg xmlns="http://www.w3.org/2000/svg" viewBox="0 0 309.6 86"><path d="M129 1c-10 2-16 9-18 19-1 5 1 11 6 17 5 5 17 13 18 11v-1c-9-6-16-11-18-14-3-3-3-5-3-11s0-7 3-11c10-14 32-10 38 6 1 5 1 5-3 5-3 0-4 0-5-2-1-4-4-8-9-9-3-1-5-1-8 1-6 2-8 5-8 12 0 3 0 4 4 8s8 6 9 4l-1-1-6-5c-5-5-5-9-1-14 6-6 16-3 18 6 1 2 1 3 7 3h6v-4c0-8-9-18-18-20h-11ZM1 2v39l1-19V4h8v35h26V4h7v19c0 15 1 18 2 18s1-3 1-20V1H34v36H12V1H7L1 2ZM56 2v10l1 10c1 1 2-1 2-9V4h7v32c0 31 0 32 2 35 3 4 9 7 10 5l-3-3-5-4-2-35V2l-6-1-6 1ZM90 2v32c0 30 0 33-2 36l-5 4-3 2c1 2 1 2 5 0l5-5c2-3 2-6 2-35V4h8v9l1 9c1 1 1-2 1-10V2l-6-1-6 1ZM168 2v40l1-19V4h42v7h-33v28h8c7 0 9 0 9 2l1 1 1-2c0-3 0-3-9-3h-8V14h33V2h-45ZM221 1l-1 7v5h17v72h3c3 0 3 0 1-1-1-1-2-4-2-37V11h-16V4h10c5 0 9-1 9-2s-20-2-21-1ZM245 2c0 2 1 2 9 2h10v7h-17v36l-1 36-1 1 2 1h3V13h16V1h-11l-10 1Z"/><path d="M56 26v23c0 21 0 21 3 26 9 15 32 15 40 0 3-4 3-5 3-27l-1-22s-2 7-2 22c0 20-1 24-2 26-3 5-8 8-14 9-9 2-20-3-23-11l-1-25-1-22-2 1ZM137 38l4 4c6 3 12 9 15 13 3 7 0 20-7 24-12 9-27 5-33-8-2-7-2-8 3-8l4 2c0 2 3 7 6 9 5 2 12 1 15-1 7-6 7-15-1-21-7-5-8-3-2 2 5 4 6 5 6 8 0 5-2 8-6 9-6 4-14 0-16-7v-3h-13v4c1 7 8 17 14 19l10 2c11 0 18-5 22-14 3-6 2-12-1-18-2-5-4-7-10-11-9-6-9-7-10-5ZM0 65v20h12V49h22v36h12V65l-1-21c-1 0-2 3-2 20v19h-7V46H10v37H2V64L1 44 0 65ZM167 65v20h47V74h-34V49h8c9 0 9 0 9-2l-1-3-1 1c0 1-2 2-9 1h-8v30h33v7h-42V64l-1-20-1 21ZM261 61c0 2 23 24 24 24 2 0 25-22 25-24h-12l-11 1 9 1h10l-10 10-10 10-11-10-10-10h9c14-1 12-2-2-2h-11Z"/></svg>