<svg xmlns="http://www.w3.org/2000/svg" viewBox="0 0 81.8 86"><path d="m34.8 0-.7.1.3 2 .4 2.3c0 .4-1.5-.7-3.3-2.5-1-.9-1.4-1.1-2-1-.5 0-.7.2-.6.5l.4 2.3c.8 4.3.8 4.4 1.6 4.2l.9-.3-.4-2-.4-2.2 1.2 1c2.4 2.3 3 2.8 3.8 2.6.4 0 .7-.2.7-.4 0-.8-.9-6.4-1-6.5l-1-.1Zm-4 3.2c-.6.6-1 .3-1-.7v-.9l.7.6c.5.5.5.7.2 1Zm5.1 2.3c0 .4-.1.6-.4.6-.6 0-.8-.5-.4-1 .5-.5.8-.4.8.4ZM42 .7c-.6.6-.9 1.9-1.3 5L40.6 7h1.8l.2-2.2c.2-2.5.7-3.3 1.8-3.3 1.3 0 1.5.5 1.3 3.4l-.2 2.6h.8l.8.2.3-2.7c.3-2 .3-2.8 0-3.3C46.8.5 46 .1 44.3.1c-1.4 0-1.8 0-2.3.6Zm.6.9c0 .3-.2.4-.3.3v-.4c.3-.4.5-.4.3.1Zm3.8 0V2c-.2-.1-.3-.3-.3-.5 0-.3.2-.3.3.2ZM53 2.3l-.8 3.1-.8 3.1c0 .2.2.5.7.7.8.3.9.3 2.3-1l1.5-1.6c.3-.7.5.1.4 2-.1 2 0 2.4.3 2.7l.9.4c.2 0 1.2-1.3 2.3-2.8l2-2.9-.7-.5q-.7-.4-1.3.3c-.3.4-.9 1.3-1.2 2-.3.6-.7 1.1-.8 1.1V6.5c.1-3.4-.2-3.5-2.6-1.1A20 20 0 0 1 53.5 7l.6-2.3.7-2.2-.7-.2c-.9-.4-1-.3-1 0Zm4.2 3.3c0 .7 0 .7-.6.4-.6-.2-.6-.3-.2-.7.6-.7.8-.7.8.3Zm-4 2.5c-.5.7-1 .3-.7-.7.2-.7.2-.8.7-.3.5.5.5.5 0 1ZM58 10c-.4.7-1 .5-1-.3 0-.7 0-.7.7-.4.5.2.6.4.4.7ZM21 4c-2.2 1.1-2.3 1.2-2 1.8l.4.6 1.6-.8 1.6-.7.4.7c.3.6.3.6-1 1.2-1.4.6-1.6.8-1.1 1.6.2.3.4.3 1.5-.3 1.3-.6 1.3-.6 1.7-.1l.3.6c0 .1-.7.5-1.5.8-1.7.8-1.8.8-1.5 1.6l.3.7 2.2-1.1 2.5-1.2c.3-.1-2.7-6.6-3-6.5L20.9 4Zm3 1.5c.8 1.8.9 2.2.2 1.6-.3-.3-.5-.6-.4-.8 0-.3-.1-.8-.5-1.4-.3-.5-.5-1-.3-1s.5.7 1 1.6Zm1.5 3.1c0 .2-.1.4-.3.4-.1.1-.2 0-.2-.2 0-.3.1-.5.2-.5.2 0 .3.2.3.3ZM64 11.8c-2 2.8-2 3-1.6 3.5.6.7.8.6 3-.3l2-.8-.8 2.3-.9 2 .6.6.6.6 2.6-1.9c1.5-1 2.8-2 3-2 .2-.2 0-.5-.3-.9l-.6-.6-2 1.5c-1 .8-1.8 1.5-1.7 1.8.1.4-.7 1.1-1 .8-.3-.3.2-1.6.5-1.4.3.2 1-1 1.8-3.2.4-1 .4-1.4.2-1.7-.3-.3-.7-.2-2.7.7l-2.4 1 .8-.9 1.4-2c.7-.9.7-1.2-.1-1.7-.4-.2-.8.2-2.5 2.6Zm.2 2.8c-.5.4-1.1.5-1.1 0 0 0 .1-.5.4-.9l.5-.7.3.6c.3.6.3.7 0 1Zm4.3-1c-.2.5-.3.5-.7.3-.4-.4-.2-.9.5-.9.5 0 .5.1.3.6ZM38.6 16.1c-.6.3-.7 1.6-.2 2.1.5.5 1.5.4 2 0 1.2-1.3-.3-3-1.8-2.1Zm1.3 1c0 .3-.2.5-.5.6-.3 0-.5-.1-.5-.5s.2-.6.5-.5c.3 0 .5.3.5.5ZM28.9 20.3l-.5 1.1-1.2-.2-1-.2.9.7.8.8-.8 1-1 .9.9-.2c1.4-.4 1.6-.3 2 .8l.2 1.1.3-1c.3-1.2.5-1.3 2-1l.7.3-.8-1-.9-.8.9-.8c.9-.8.8-1-.6-.5-.8.2-.9.2-1.3-.9l-.3-1.2-.3 1.1Zm.9 2.4c0 .8-1 1.1-1.2.4-.2-.6.1-1.3.7-1.2.3 0 .5.3.5.8ZM37.4 22.8c-1 1.8-2 3.5-2 3.8-.2.5.1.5 4 .6 4.7 0 4.6 0 3.6-1.8-.6-1.2-3.5-6-3.6-6 0 0-1 1.5-2 3.4Zm3.5.4c2.1 3.4 2.2 3.3-1.4 3.3-2.5 0-3 0-3-.3 0-.5 2.7-5.2 3-5.2l1.4 2.2ZM48 20.3q-.7.3.3.4c2.6.2 2.4 3.9-.2 4h-.8l.7.3c1.2.7 2.2.5 3.2-.5 2.2-2.3-.2-5.6-3.2-4.2Zm3.3 2.4c0 .8-.2.6-.4-.6-.1-.7 0-.8.1-.5l.3 1ZM72 21.4a3.3 3.3 0 0 0-1.5 3c0 3.2 3.2 5.2 5.8 3.5 2.3-1.4 2.4-4.6.2-6.4-1.2-1-3-1-4.4-.1Zm4 1.7c.7 1 .7 2.2-.2 3-1.6 1.7-4.5 0-3.7-2.2.4-1 1-1.5 2.3-1.5.7 0 1 .2 1.5.7ZM34.3 29.5c0 .8.2 1.3.6 1.6.5.5.5.8.4 2.2l-.1 1.8h8.6l-.1-1.7c-.1-1.2 0-1.7.3-2.1l.6-1.7.1-1.1h-1c-.8 0-.9 0-1 .8-.2.7-.4.8-1 .8s-.8 0-.8-.8 0-.8-1.4-.8-1.4 0-1.4.8 0 .9-.9.8c-.7 0-.9-.2-1-.9 0-.6-.2-.7-1-.7-.9 0-1 0-1 1Zm6.1.5c.6.8 2 1 2.7.2.4-.4.5-.4.5 0l-.4.9c-.3.3-.4 1-.4 1.8v1.4h-6.6V33c0-.7-.2-1.5-.4-1.8-.2-.3-.4-.8-.4-1.2v-.6l.4.6c.6.8 2 .8 2.8-.1.4-.4.8-.7 1-.7.2 0 .6.3.8.7ZM23.8 30.3l-.7 1-.2 1c-.2.6-.1.6 2.7.6q3.2 0 2.6-1.6c-.6-1.8-3-2.4-4.4-1Zm3.5.8c.7 1 .6 1-1.7 1-1.9.1-2.3-.4-1-1.4.5-.4.8-.5 1.5-.3.4.1 1 .5 1.2.7ZM51.7 29.9c-.5.3-1.3 1.7-1.3 2.4 0 .6.2.6 2.8.6h2.7V32c0-1.2-1.3-2.4-2.6-2.4-.6 0-1.3.1-1.6.3Zm2.6.8c.8.6 1 1.2.5 1.4-.5.2-3.2 0-3.4 0-.3-.4.3-1.2 1-1.6 1.2-.5 1-.5 2 .2ZM79.4 31.6c-2 2.7-1.7 2.5-2.6 1.9-1.4-1-3-1.7-3-1.4 0 1 .3 1.6 1 1.9 1 .4 2.5 1.5 2.5 1.7l-1.4.3c-1.3.2-1.3.3-1.2 1l.3.8 6.4-1.2c.3-.1.4-.4.3-1 0-.8-.1-.8-1-.6-1.7.3-2.3.6-2.2 1 .2.3 0 .5-.2.5l-.9.2c-.4.1-.4 0 0-.6.3-.4.6-.6.8-.6s.7-.6 1.5-1.6c.9-1.2 1.3-2 1.2-2.4-.2-1.4-.5-1.4-1.5 0Zm-1.2 3.3c-.2.1-.4.2-.5 0s0-.2.2-.4c.5-.3.7 0 .3.4Zm1.5 1.2h-.5c-.2 0-.2-.2.1-.2.3 0 .5.1.4.2Zm-3 .6c0 .2-.2.3-.4.3-.4 0-.4 0 0-.3s.5-.3.5 0ZM22.2 35c0 .6.2 1 .6 1.3.6.4.5 1.5-.2 2.1-.5.5-.5 1.4 0 1.2.5-.2.5.4-.5 6.1l-.8 4.7-.2 1.2h9v-1.3l-.9-4.7c-1-5.6-1-6.2-.6-6 .6.2.6-.7 0-1.2-.6-.6-.7-1.7 0-2.1.3-.3.5-.7.5-1.4 0-.8-.1-1-.6-.9-.4.1-.7.3-.7.7-.2 1-1.5 1-1.5 0 0-.6-.1-.7-.6-.7s-.7.1-.7.7-.2.7-.7.7-.7-.2-.7-.7-.2-.7-.7-.7c-.6 0-.7.1-.7 1Zm4.3.8c.5.4.8.8.9 1.4 0 .4.2 1 .3 1 .2.3.2.9.1 1.5 0 .6 0 2.4.5 4.5.3 1.9.7 4.1.7 5 .2 1.5.2 1.6-.3 1.6-1.8 0-6.3 0-6.4-.2-.2-.1.4-4.4.8-6.3l.4-3.4.2-2.8.3-1.3c0-.5 1-1.3 1.6-1.4l1 .4ZM50 35c0 .4.1 1 .3 1.2s.4.7.4 1.2-.1.8-.4.9c-.2.1-.4.5-.4.8 0 .5.1.6.4.5.5-.2.4.2-.5 5.6a97 97 0 0 0-.9 5l-.1 1.4h9l-.3-1.8c0-1-.4-3.1-.7-4.6-1-4.6-1-5.7-.5-5.7.6 0 .6-.6 0-1.2-.7-.5-.8-1.7-.2-2 .2-.1.5-.7.6-1.3.1-1 0-1-.6-1s-.7.1-.7.7-.2.7-.7.7-.7-.2-.7-.7-.1-.7-.7-.7c-.5 0-.7.2-.8.7-.1.4-.4.7-.7.7s-.6-.3-.7-.7-.4-.7-.7-.7c-.4 0-.5.2-.5 1Zm3.7.8c.2.2.6.3.9.2.5-.1.6 0 .5.8 0 .5 0 1.1.2 1.3s.2 1.2.1 2c0 1.7 0 2.5 1 7.7.3 1.3.5 2.5.4 2.7-.2.2-5 .5-6.6.3-.3 0-.3-.4-.2-2 0-1 .2-2.3.3-2.7.6-2.6 1-5.1 1-6.6-.1-2 .3-3.3 1-3.7 1-.5 1-.5 1.4 0ZM33.7 37.3c0 .5.2 1 .5 1.3.3.3.4.7.2 1.6-.4 3.1-1 8.5-1 9.8v1.6h4l.3-2.3c.1-2.7.3-3.2 1.2-3.5.5-.2.8-.2 1.4.3.6.4.7.8 1 3l.2 2.5h4.1l-.2-2.5a137 137 0 0 0-.6-6.3c-.4-3.6-.4-3.9 0-4.3.3-.3.5-.9.5-1.3v-.7H33.6v.8ZM44 40c0 1.4 0 3 .2 3.7l.4 4.2c.1 2.5.1 3-.2 3l-1.1.2c-1 .1-1.3-.3-1.4-2.7-.1-1.8-.3-2.1-1-2.8-1-.8-2-.8-3 .1-.6.6-.8 1.3-1 3.5l-.1 1.5c0 .1-.6.2-1.3.2h-1.3l.1-2.2c0-1.2.2-3.2.4-4.6.4-2.9.5-5.5.1-5.7l-.3-.6c0-.4.8-.4 4.8-.4H44v2.6ZM75 48c-1.4 1.7-1.1 4.3.5 4.8 1.2.5 2 0 2.9-1.6.5-1 .9-1.4 1.2-1.4 1 0 1 1.4 0 2.2-.6.7-.6.8-.2 1.4.4.7.5.7 1 .2.8-.7 1.3-1.8 1.3-3.2 0-1.4-.4-2-1.5-2.3-1.2-.4-2 .1-2.8 1.7-.4.7-.8 1.4-1 1.5-1 .3-1-1.2-.2-2.2.3-.4.3-.6 0-1.2l-.4-.7-.7.8ZM19.8 53.5l-1.8.2-1.3.2.8 1.3.7 1.3h2.2c2.1 0 2.4 0 4.9 1.3l2.7 1.4 2.4-.2c2.1-.1 2.7-.2 4.7-1.3 2.2-1 2.6-1.1 4.4-1.1s2.2.1 4.6 1.2c2.5 1.2 2.8 1.3 4.9 1.3s2.3 0 4.7-1.3 2.8-1.3 4.9-1.3h2.2l.7-1.4c.4-.7.6-1.3.5-1.3l-2-.2c-2.3-.4-4 0-7 1.5-2.4 1.2-2.6 1.3-4.4 1.2-1.5-.1-2.2-.3-3.8-1.1-3.7-2-6.7-2-10.8 0-2 1-2.6 1.1-4 1.1s-2-.1-4.2-1.2c-2-1-4.7-2-5.5-1.8l-.6.2Zm5.3 2c4.4 2.2 5.5 2.2 10 0a10 10 0 0 1 9.6.4c2.5 1.3 4.6 1.5 7 .7l2.4-1.2 1-.5 1.1-.4c.7-.3 1.4-.4 2.7-.3 1 0 1.8.2 1.9.3s0 .4-.2.7c-.2.4-.6.5-2.2.5-2.1 0-3.9.6-5.5 1.8-.5.3-.8.4-.8.3l-.6.2a10.9 10.9 0 0 1-8-1.3 7 7 0 0 0-3.8-1 11 11 0 0 0-5.4 1.5 8 8 0 0 1-2 .8c-2.5.6-4.8.4-6.5-.7a8 8 0 0 0-5-1.5c-1.8 0-2.1-.1-2.4-.6l-.3-.7c0-.2 1-.3 2.5-.4 1.3 0 2 .2 4.6 1.5ZM2.9 57.6c-3 1.6-3 1.6-2.8 2.3l.4.8 1.4-.6 1.4-.6-.8 1.8Q1.6 63 2 64.1l.5 1 1-2.3a35 35 0 0 1 1-2.3l.9.4c.8.4 3.3 1 3.3.7 0-.6-1-1.7-1.4-1.7-.4 0-1.2-.2-1.9-.5l-1.2-.5 1.3-.7a5 5 0 0 0 1.3-.7c0-.2-.7-1.5-.8-1.4l-3.2 1.5Zm1.3.7c-.4.4-.4.6 0 1.1.4.4.4.5 0 .6-.1 0-.3 0-.3-.2l-.5-.8c-.4-.5-.4-.5 0-.8L4 58c.3 0 .3 0 0 .3ZM72.4 56.8l-.3.7 2 1 2 1-2.8.6c-2.2.5-2.9.8-3.2 1.3q-.5.7 2.4 2.2c3.7 2 3.5 2 4 1.1l.3-.8-2.3-1.1-2.2-1L75 61c1.5-.4 3-.6 3-.5.2 0 .5-.2.7-.7l.3-.8-3.3-1.5-3.1-1.5-.3.6Zm4.7 2.2c.8.4.8.7-.2 1-.5.2-.6 0-.7-.7-.2-1-.2-1 .9-.3Zm-4.8 2.8q0 .8-.8.4c-.4-.3-.7-.6-.6-.7s.3-.2.4 0 .3 0 .4-.2c.3-.5.6-.3.6.5ZM21.5 60.6c2.9 3 7 4.6 10.5 4 1-.1 2.7-.7 3.8-1.3 2.8-1.4 4.4-1.4 7.3 0 3.8 1.9 6.9 1.9 10.5.2 1.7-.8 4.8-3.4 4.8-4 0-.5-2.9.2-5.1 1.3-2.2 1-2.6 1.1-4.5 1.1s-2.3 0-4.6-1.2c-2.3-1.1-2.5-1.2-4.7-1.2s-2.5 0-4.8 1.2c-2.3 1-2.7 1.2-4.6 1.2-1.8 0-2.3-.1-4.5-1.2-1.5-.6-3.2-1.2-4-1.3l-1.4-.1 1.3 1.3Zm22.7.8c2 1 2.4 1.1 4.8 1.1a8.3 8.3 0 0 0 5-1.2c.5-.5 2.6-1 2.3-.5-.3.5-3 2-4.6 2.6-2 .8-4.5.8-6.5 0-.8-.2-1.6-.6-1.7-.7l-1.6-.7c-1.9-.7-4-.5-6.3.6-2.6 1.2-3.5 1.4-5.8 1.3-1.8 0-2.5-.3-4.1-1-1.9-1-3.2-2-3.2-2.3 0-.4 1-.1 2.7.8 1 .5 2.5 1 3.2 1.1 2.3.3 3.4.3 3.6 0l.6-.1c.3 0 1.1-.4 1.8-.8a9 9 0 0 1 5.5-1.4c1.6.1 2.4.3 4.3 1.2ZM67.5 65.2l-.6.7 1.2 2.6 1.2 2.7-2.8-1L64 69l-.6.6c-.3.4-.6.7-.5.8.3.2 7 2.6 7.3 2.6l.7-.6c.5-.7.4-.8-1.1-4.3L68 64.6l-.6.7Zm2.7 6.7c-.2.2-.6.3-1 .2-.7-.2-.7-.2-.2-.4.3 0 .7-.3.8-.5.1-.3.3-.3.4 0v.7ZM9 65c-1.5.4-3 2.1-3 3.4 0 .4-.1.6-.5.6-.3 0-.6.2-.6.4s.3.4.7.4c.4 0 .7.3 1 1a4 4 0 0 0 5.2 1.6c1-.5 2-1.9 2-2.8 0-.4 0-.6.5-.6s.5-.2.5-.6c0-.4-.1-.5-.5-.5s-.7-.2-1-.9c-.4-.6-1-1.2-1.8-1.6-1.2-.6-1.5-.6-2.6-.4Zm2 2c1.3.6 1.2 1.1-.2 1.3l-2.2.3c-.7 0-.9 0-.9-.3 0-.6 1.4-1.7 2.3-1.8l1 .4Zm2.3 1.3v.6c-.2.3-.3.3-.6 0-.2-.1-.3-.4-.2-.5.2-.3.5-.3.8 0Zm-6 1c0 .4-.6.3-.6-.2-.1-.3 0-.4.2-.3.2 0 .4.2.4.4Zm4.9.2c-.3.8-1.4 1.7-2.3 1.7-.7 0-2.2-1-2.2-1.4l2.1-.5 2.3-.3c.1 0 .2.2 0 .5ZM38.5 65.3l-2.3 1c-1 .4-2.3.8-2.9.8-1.4 0-1 .3 1.2.7 2.4.5 7.3.5 9.9 0 2.2-.4 2.8-.7 1.3-.7-.6 0-1.9-.4-2.9-.8-2-.9-3.4-1.2-4.3-1Zm3 1.3c.4.1.7.4.7.5 0 .3-2.4.5-4 .4-2.3-.2-2.3-.5-.2-1.2 1.4-.3 2.2-.3 3.5.3ZM16 74.8l-2 2.9.6.5c1.2 1 3.4 2 4 2 .8 0 2-1.2 1.9-1.8l-.4-1c-.1-.4 0-.4.2-.3.4.3 1.6-.8 1.6-1.5s-.7-1.6-2.4-2.7l-1.5-1-2 2.9Zm1.9-1-.7.6.5-.8.6-.6-.4.8Zm1.8.8c.7.6.7.7.3 1.1-.4.5-.5.5-1.3 0q-1-.5-.5-1.2c.4-.7.5-.7 1.5.1ZM17 75c-.2.7-.7 1.2-1 1.2-.1 0 0-.4.4-.9.6-1 .8-1 .6-.3Zm1.7 2.7c.1.3 0 .6-.2.9-.4.4-.6.4-1.4-.2-1.2-.7-1.2-.7-.6-1.6l.5-.6.8.5 1 1Zm-3-.7c-.2.3-.3.5-.4.4-.1-.1.2-1 .3-1v.6ZM58.4 73.4l-.7.5.4 2.7.4 3.9.2 1.1.8-.4c.6-.4.7-.6.6-1.2-.1-.7 0-.9 1.3-1.7 1.4-1 1.6-1 2.2-.6.7.4.8.4 1.5 0l.7-.5-.9-.6a140.8 140.8 0 0 1-5.8-3.8l-.7.6Zm1.1.7-.4.4c-.3.3-.4.3-.4-.1 0-.3.2-.5.4-.5l.4.2Zm2.2 2.3-.9.7c-1 .5-1.3.3-1.3-.9 0-.3 0-.8-.2-1-.1-.3.2-.2 1.1.3a6 6 0 0 1 1.3 1Zm1-.2c.4.2.4.3 0 .5-.5.4-.6.3-.6-.3s0-.6.7-.3Zm-2.8 2-.1.2c-.4.6-.8.4-.8-.2 0-.4 0-.4.3-.1h.6ZM26.2 76.8a132.4 132.4 0 0 1-2 6.4l2.6.9c2.1.7 2.6.7 2.7.4.3-.8.1-1-1.1-1.4-1.9-.5-2.1-.7-2-1.5.3-.7.3-.7 1.1-.3 1.8.7 2 .7 2.4 0 .3-.7.2-.7-1.2-1.2-1.5-.5-1.7-.7-1.3-1.4.2-.3.5-.3 2 .2 1.6.5 1.7.5 1.8 0 .2-.8 0-1-2.4-1.7-2.7-1-2.4-.8-2.6-.4Zm1.2.8-.5.6q-.5.5-.4 0c.1-.4.4-.7.6-.7l.3.1Zm-.7 2.4c.2.3-.6 1-.8.8-.3-.3 0-1 .4-1 .1 0 .3 0 .4.2Zm-1 2.8c0 .2 0 .2-.2.1a.6.6 0 0 1-.3-.4c0-.2.2-.2.3-.1.2 0 .3.3.3.4ZM52.1 76.6l-.7.3c-.3 0-.3.2-.1.7l.3 1.4c.2.7.2.7-2.7 1.4l-.5-1.2c-.3-1-.4-1.2-.9-1.2-1.1.2-1.1.2-.4 2.8.3 1.3.7 2.8 1 3.4.2 1 .2 1 1 .9l.7-.3s0-.7-.3-1.5c-.3-1-.3-1.4 0-1.5l1.6-.5 1.2-.4.2.8c.4 2 .6 2.1 1.5 1.8l.8-.2-1-3.3a45 45 0 0 0-1.2-3.4h-.5Zm1 4.2c-.4.3-.8-.5-.6-1l.2-.8.3.8c.1.5.2.9 0 1Zm-4.5 1.1c-.1.7-.2.7-.4.2L48 81c0-.5 0-.5.4-.2.3.3.3.7.2 1.1ZM35.5 78.9l-.1 3.5v3.3l.8.2h.8v-2.3l.2-2.5 1.7 2.2c1 1.2 1.7 2.3 1.7 2.4s.4.3.8.3h.8v-7h-1.6v2l-.2 2-1.6-2c-1.2-1.5-1.8-2-2.4-2.1h-.9Zm1.6 1c.1.2 0 .6-.3 1l-.6.6v-.9c0-.8.6-1.2 1-.6Zm4.5 4.1c-.1 1.2-.3 1.4-.7.7-.3-.5-.3-.8 0-1.3.4-.8.8-.6.7.6Z"/></svg>