<svg xmlns="http://www.w3.org/2000/svg" viewBox="0 0 81.8 86">
  <path d="M35 0h-1v2l1 2-4-2-1-1h-1v3l2 4h1l-1-2V3l1 1 4 3h1l-1-7h-1Zm-4 3c-1 1-1 1-1-1l1 1Zm5 2v1l-1-1h1ZM42 1l-1 5v1h1l1-2 1-4c2 0 2 1 2 4v3h1V2c0-1-1-2-3-2l-2 1Zm1 1h-1V1l1 1Zm3 0c1 0 0 0 0 0V1v1ZM53 2l-1 3-1 4h1c1 1 1 0 2-1l2-1v2l1 2v1l3-3 2-3h-2l-1 2-1 1V6c0-3 0-3-3-1l-2 2 1-2 1-2-1-1h-1Zm4 4-1-1 1 1Zm-4 2-1-1h1v1Zm5 2h-1l1-1v1ZM21 4l-2 2h2l2-1v1l-1 1-1 1h3v1h-1l-2 2 1 1 2-1 2-2-3-6-2 1Zm3 1v2-1l-1-1V4l1 1Zm2 4h-1V8l1 1ZM64 12l-2 3h3l2-1v2l-1 3 1 1 3-2 2-2v-2l-2 2-2 2h-1v-1l2-3v-2l-2 1-3 1 1-1a239 239 0 0 1 1-4l-2 3Zm0 3h-1v-1l1-1v2Zm5-1h-1v-1l1 1ZM39 16l-1 2h2c2-1 0-3-1-2Zm1 1-1 1v-1c0-1 0 0 0 0h1ZM29 20l-1 1h-2l1 1 1 1h-1l-1 1h1l2 1v1l1-1 1-1h1l-1-1v-2c-1 1-1 0-1-1l-1-1v1Zm1 3h-1v-1l1 1ZM37 23l-2 4h4c5 0 5 0 4-2l-4-6-2 4Zm4 0c2 4 2 3-1 4l-4-1 3-5 2 2ZM48 20v1c3 0 3 4 0 4h-1 4c2-3 0-6-3-5Zm3 3v-1c0-1 0-1 0 0v1ZM72 21l-2 3c0 4 4 6 6 4 3-2 3-5 0-7h-4Zm4 2v3c-2 2-5 0-4-2l2-2 2 1ZM34 30l1 1v4h9v-4l1-1v-2h-1l-1 1-1 1-1-1-2-1c-2 0-1 1-1 1l-1 1-1-1-1-1-1 2Zm6 0h4l-1 1v3h-7v-3l-1-1v-1l1 1h3l1-1v1ZM24 30l-1 1v1l3 1q3 0 2-2c0-2-3-2-4-1Zm3 1c1 1 1 1-1 1s-3 0-1-1l1-1 1 1ZM52 30l-2 2 3 1h3v-1c0-1-1-2-3-2h-1Zm2 1 1 1h-4l1-1h2ZM79 32c-2 2-1 2-2 1l-3-1 1 2 2 2h-1l-1 1v1l6-1 1-1-1-1-2 1h-1l-1 1v-1h1l2-2 1-3c0-1-1-1-2 1Zm-1 3c0-1 1-1 0 0Zm2 1h-1 1Zm-3 1h-1 1ZM22 35l1 1v4l-1 6-1 4v2h9v-2l-1-4V35l-1-1v1h-2v-1l-1 1h-1c-1 0 0 0 0 0l-1-1-1 1Zm5 1v1l1 1v6l1 5v2h-7l1-7v-3l1-3v-1l2-2 1 1ZM50 35v1l1 1-1 1v7l-1 5v2h9v-2l-1-5-1-5v-4l1-1-1-1-1 1c0 1 0 0 0 0h-1l-1-1-1 1h-1l-1-1v1Zm4 1h1v4l1 8 1 2-7 1v-5l1-7 1-3h2ZM34 37v3l-1 10v2h4l1-3 1-3h1l1 3v3h5l-1-3a137 137 0 0 0 0-11v-2H34v1Zm10 3v4a63 63 0 0 1 0 7h-1l-1-3-1-2h-3l-1 3v2h-3v-2l1-5v-6l4-1h5v3ZM75 48v5c2 0 3 0 3-2l2-1v2l-1 1 1 1 2-4-2-2c-1 0-2 0-3 2l-1 1v-4l-1 1ZM20 53l-2 1h-1v1l1 1h2c3 0 3 1 5 2l3 1h2l5-1 4-1 5 1 5 1 5-1c3-1 2-2 5-2h2v-1l1-1h-2c-2-1-4 0-7 1l-4 1-4-1c-4-2-7-2-11 0l-4 1-4-1-6-2Zm5 3c5 2 6 2 10 0 3-2 6-2 10 0l7 1 2-2h1l1-1h5v1l-3 1-5 1-1 1a11 11 0 0 1-9-1l-3-1-6 1-2 1c-2 1-5 0-6-1l-5-1-3-1 3-1 4 2ZM3 58l-3 2v1l2-1 1-1-1 2v3l1 1 1-2 1-3v1l4 1-2-2-1-1H4l2-1h1l-1-2-3 2Zm1 0v2l-1-1v-1h1ZM72 57v1l2 1h2l-3 1-3 1 2 3 4 1 1-1-2-1-3-1 3-1h3l1-1v-1l-3-1-3-2-1 1Zm5 2v1l-1-1h1Zm-5 3q0 1 0 0l-1-1h1v1ZM21 61c3 3 8 4 11 4l4-2h7c4 2 7 2 11 0l4-3-5 1-4 1-5-1-5-2-4 2-5 1-4-1-4-2h-2l1 2Zm23 0 5 2a8 8 0 0 0 5-2h2l-4 2h-9l-1-1c-2-1-4-1-6 1l-6 1-4-1-4-2h3l3 2h4l1-1h1l6-2 4 1ZM67 65v1l1 3 1 2-2-1-3-1-1 1 7 3 1-1-1-4-2-3h-1Zm3 7h-1c-1 0-1 0 0 0l1-1v1ZM9 65c-2 0-3 2-3 3l-1 1 1 1 1 1c0 2 3 2 5 1l2-2v-1l1-1h-1l-1-1-1-2H9Zm2 2v1l-2 1-1-1 2-1h1Zm2 1v1-1Zm-6 1c0 1 0 1 0 0Zm5 1-2 1-2-1 2-1h2v1ZM39 65l-3 1-3 1 1 1h10l2-1-3-1-4-1Zm2 2h1-4c-2 0-2 0 0-1l3 1ZM16 75l-2 3h1l4 2s2-1 1-2v-1l2-1-2-3-2-1-2 3Zm2-1h-1 1v-1 1Zm2 1v1h-1l-1-2 2 1Zm-3 0-1 1v-1h1Zm2 3v1l-2-1v-2l1 1 1 1Zm-3-1h-1l1-1v1ZM58 73v4l1 3v2-1l1-1 1-2h4l1-1h-1a141 141 0 0 1-6-4h-1Zm2 1-1 1v-1h1Zm2 2-1 1c-1 1-2 0-2-1v-1l1 1h2Zm1 0v1l-1-1h1Zm-3 2h-1 1ZM26 77a132 132 0 0 1-2 6l3 1 2 1c1-1 1-2-1-2l-2-1 2-1h2l-1-1-2-1h4l-2-2h-3Zm1 1q-1 1 0 0Zm0 2-1 1v-1h1Zm-1 3-1-1h1v1ZM52 77h-1v1l1 1-3 1-1-1v-1c-2 0-2 0-1 3a297 297 0 0 0 2 4h1v-2l-1-1 2-1h1l1 1 1 2 1-1-1-3-1-3h-1Zm1 4v-2 2Zm-4 1h-1v-1s0-1 0 0l1 1ZM36 79l-1 3v4h2v-5l2 2 2 3h1v-7h-1v2l-1 2-1-2-3-2Zm1 1v1l-1 1v-1l1-1Zm5 4-1 1v-2l1 1Z"/>
</svg>
