<svg xmlns="http://www.w3.org/2000/svg" viewBox="0 0 197.5 86"><path d="M168.8 12c-3.1 7.3-5.9 12.9-6.8 13.7l-1.6 1.6h4.1c3-.1 3.9-.2 3-.7-1-.6-1-1 0-3.6l1-2.9 4.5-.2 4.5-.2 1.2 2.9c1 2.7 1 3-.1 3.8-1 .7-.5.9 4 .9 5 0 5.2-.1 3.8-1.2a76 76 0 0 1-6.6-13.4C177.1 6 174.6.3 174.4 0c-.3-.3-2.8 5-5.7 12Zm10 3a67 67 0 0 1 3.8 10c-.7.7-1.5-.4-2.4-3-.4-1.5-1.2-3-1.7-3.4-.5-.4-.8-1-.6-1.3.5-.8-2.4-8-3.7-9.6-.8-.9-1.1-1.9-.8-2.5s.6-1 .8-.6c.3.2 2.3 5 4.7 10.3Zm-5.2-6c0 .6.8 2.7 1.6 4.7l1.7 3.6h-3.7c-2.7 0-3.5-.2-3.3-.8l1.5-4.6c1.2-3.6 2.2-5 2.2-2.8ZM44.8 1c-3.7 1.4-6.8 4-8.3 7.3-3.7 7.6-.3 14.4 11.5 23 9.4 6.7 12.8 12 11.8 17.8-.9 5.3-5.1 8.3-10.8 7.8-10.5-1-13.4-14.3-5.1-22.9 2.8-2.9 1.6-2.6-2.7.5-6.7 5.2-8.9 11-6 16.6 4.3 8.2 15.9 10.8 24.1 5.5 4.1-2.7 5.8-5.7 6-10.8.3-6.6-1.9-9.9-12-17.6-9.4-7-11.7-10-12-15-.5-6.2 3-10.6 8.5-10.6 6 0 9.7 4 9.7 11 0 4.5-1.3 7.9-4 10.8-3 3.1-1.6 2.7 2.8-.7 7.8-6.2 8.6-13.8 2-19.7-4-3.7-10-4.8-15.5-3Zm-5.2 7.7c-.9 2.7-.3 7.5 1.4 10.3 2.1 3.7 4.1 5.6 11.7 11.4 8.8 6.5 10.8 9.3 10.8 14.8-.1 2-.5 4.3-1 5.2-1 1.6-1 1.4-1-2.5 0-7.2-2.6-11-12.6-18.3-6.8-5-11-9.6-11.6-12.7s0-7 1.4-9c1.5-2.3 1.9-2 1 .8Zm22.5 4.7c0 5.2-.4 4.5-.8-1.6-.2-2.8 0-4.2.3-3.7s.5 2.9.5 5.3ZM38.7 52c.5 1 .8 1.7.5 1.7-1 0-3.4-5-3.4-7.1 0-4.3 1-4.5 1.4-.4.1 2.3.8 4.9 1.5 5.8ZM72.7.9c0 .2.5.6 1 .8.8.3 1 2.3 1 12.3 0 10.6-.2 12-1.1 12.5-1 .6 0 .7 3.6.8 4.4 0 4.9-.2 3.7-1-.9-.6-1.3-2-1.5-5.3-.2-4-.2-4.3 1-4.3 1 0 2 1 3.4 3.4 3.2 5.7 5.2 7.2 10 7.6 2.7.3 4 .2 4-.4 0-.4-.6-.7-1.3-.7-1.4 0-5.5-4.3-8.4-9.1l-2-3.3 1.8-1.7c1-1 2-2.6 2.1-3.6.5-2.5-1-5.9-3.3-7-1.8-1-14-1.8-14-1Zm5.2 15.3c0 4.8-.2 8.5-.6 8.8-.4.2-.6-3.6-.6-11 .1-8 .3-10.7.7-8.9.2 1.5.5 6.4.5 11Zm6.3-12c1.2 1.8 1.4 5 .3 7.7-.8 2-1.7 2.8-3.7 2.8-1.4 0-1.5-.2-1.5-6v-6h2c1.2 0 2.2.6 2.9 1.5Zm3.7 3.2c0 1.4-.3 2.8-.7 3-.4.3-.7-.9-.7-3s.3-3.2.7-3c.4.2.7 1.6.7 3Zm.2 13.4c3 4.7 3.2 5.8.3 2.6a25 25 0 0 1-4.5-7c0-1.2 1.5.3 4.2 4.4ZM102.5.7c-.8.5-.8.6 0 .9 1.4.5 1.7 21.9.3 24l-1 1.5 5.5.4c12.7 1 19.8-3.9 19.8-13.8 0-6.3-3-10.6-8.8-12.6-3.2-1-14.3-1.3-15.8-.4ZM117 3.8c5.6 3 6.8 13.6 2.2 18.6-1.8 2-2.7 2.4-5.5 2.7-5.4.5-5.5.4-5.5-11.7 0-9.4.2-10.5 1.2-10.8 1.7-.5 5.4.1 7.6 1.3ZM106.4 13c0 5.6.2 10.6.4 11.2.2.7 0 1-.5 1-.7 0-1-2.2-1-11.2 0-6.2.3-11.2.6-11.2s.5 4.6.5 10.2Zm18.4.6c0 7.3-1.2 7.8-1.4.7-.2-3.2-.5-6.5-.8-7.2-.4-1.1-.3-1.1.8.3 1.2 1.2 1.4 2.3 1.4 6.2ZM136.7.7l1 1.2a64.9 64.9 0 0 1 0 24l-1 1.4h15.7l.4-2c.6-3.3.5-3.5-1-2-1 1.1-2 1.3-4.7 1.2l-3.5-.2-.2-5-.2-5 2.9.2c1.6.2 3.2.6 3.7 1 .6.5.8 0 .7-2.2 0-1.6-.2-2.5-.4-2.1-.2.5-1.6.8-3.6.8h-3.2V2.8h2.2c1.3 0 3 .2 4 .6 1.5.6 1.7.5 1.7-1s0-1.5-7.2-1.7a56 56 0 0 0-7.3 0Zm4.8 13.5c0 6.1 0 11-.3 11s-.5-5-.5-11.3 0-11.2.3-11c.1.2.4 5.3.5 11.3ZM2.1 2.6l2.1 1.8-.2 10c-.2 8.7-.4 10.3-1.5 11.5Q1.3 27.3 5 27.3h3.7l-1-1.7c-.8-1.2-1.2-3.8-1.4-10L6 7l5 5.3 9.4 10.4c2.5 2.7 4.7 5 5 5 .3.1.5-5.4.5-12.1 0-11.4 0-12.3 1.3-13.6L28.5.8h-4.1c-3.7 0-4 0-2.8 1 1 .7 1.4 2 1.6 8.9l.3 8-8.2-9-8-8.9H0l2.1 1.8ZM14 10.9c4 4.5 8 8.6 8.7 9.3s1.2 1.5.9 1.9-2.5-1.4-5.5-4.8L9.2 7.9C5.6 4.2 4.7 2.8 6 2.8c.4 0 3.9 3.6 8 8ZM11.3 32.6c0 .3.5.6 1 .9 1.6.6 1.5 22.6 0 24.3-1 1.1-1 1.2 3.5 1.2h4.8l-1.3-1.3c-1.2-1.1-1.4-2.2-1.4-6.5v-5l3.2.2c1.7.1 3.5.5 4 .8.6.6.8.1.8-2.1s-.2-2.7-.8-2c-.5.4-2.3.7-4 .7H18l.2-4.5.2-4.4h3c1.6 0 3.5.3 4.1.6 1 .4 1.1.2 1.1-1.2v-1.7l-7.6-.2c-4.1-.1-7.5 0-7.5.2Zm4.8 13c0 6-.3 11.2-.5 11.3-.2.2-.3-4.8-.3-11s.2-11.4.5-11.4.4 5 .3 11ZM71.4 32.4c0 .2.9 1 2 2l2.1 1.7-.3 10.1c-.3 8.6-.5 10.4-1.5 11.5-1.2 1.3-1.1 1.3 2.6 1.3s3.9 0 2.7-1.3c-1-1-1.2-2.9-1.5-10l-.2-8.9 4.6 5 9.4 10.4c2.6 3 5 5.4 5.4 5.4.2 0 .4-5.4.4-12.2 0-11.3 0-12.3 1.3-13.5l1.2-1.4c-.6-.2-7.8-.2-7.8-.2 0 .2.6.8 1.3 1.6 1.2 1.2 1.4 2.1 1.4 8.9v7.7L91.4 47C78.8 32.7 78.8 32.7 74.9 32.4h-3.5ZM84.2 42l8.5 9c1 .8 1.8 2 1.6 2.6 0 .7-1.8-.8-5.4-4.8a238 238 0 0 0-8.8-9.3c-3.2-3.3-4.2-4.8-3-4.8.3 0 3.5 3.3 7.1 7.3ZM110 32.4c-1.1.6-1.1.6-.2 1s1.2 1.8 1.2 12c0 9.2-.2 11.8-1 12.5-.8.8-.2 1 5 1.4 9.6.8 15.8-1.8 18.5-7.9 2.9-6.3.8-13.7-5-17.2-3-1.8-3.7-2-10.2-2.1-3.8-.1-7.6 0-8.3.3Zm14.8 3.4c3.2 2.2 4.2 4.5 4.5 9.3.5 7.7-2.8 12-9.2 12-2.5 0-3.3-.3-3.9-1.3-.3-.8-.6-5.7-.6-11.3 0-9.7 0-9.9 1.5-10.2 2.4-.4 6 .2 7.7 1.5Zm-11 8.7a44 44 0 0 0 .5 11.2c.5 1 .5 1.3-.3 1.3-.9 0-1-1.8-1.2-11.2-.1-7.2 0-11.3.5-11.3s.6 3.7.4 10Zm17.7-4.6c1 1.7 1.2 3.2 1.1 6.3a12 12 0 0 1-1 5c-.4.4-.6-.9-.4-4.2.3-4 0-5.3-1-7.4-1.6-3-.4-2.9 1.3.3ZM144.2 32.6c-.1.3.2.6.8.9.8.2 1 2.3 1 12.2 0 10.7-.2 12-1.2 12.6-.8.5 1.2.6 7.3.7h8.4v-1.6c0-.9.2-2.2.4-2.8.4-1 .2-1-1 .2s-2.2 1.5-4.7 1.5c-4 0-4.8-1-4.5-6.4l.2-3.8 3 .3c1.6 0 3.3.4 3.8.8.6.5.8 0 .8-2.2s-.2-2.6-.8-2c-.5.4-2.2.8-4 .8h-3.1v-3.6c0-2 .2-4 .4-4.6.5-1.3 3.9-1.4 6.4-.2 1.7 1 1.7 1 1.7-.9v-1.9l-7.3-.2c-4-.1-7.4 0-7.6.2Zm5.1 7 .1 11.3c.2 4.5 0 6.1-.6 6.1-.7 0-.9-2.7-.9-11.2 0-7.1.3-11.3.7-11.3s.6 2.2.7 5.1ZM170 32.5c-.2.1.6.8 1.7 1.5l2 1.3-.2 10.9c-.2 9.9-.3 11-1.4 11.9-1.2.8-1 .9 2.9.9h4.1l-1.2-1.4c-1-1.2-1.3-2.6-1.5-10.1l-.2-8.7 2.2 2.5 9.4 10.4 7.3 8 .4-12.4.5-12.6 1-1c1-.9.6-1-2.6-1.3-2 0-3.6 0-3.6.3s.3.5.7.5c1.2 0 2 5 1.8 11l-.2 6-7.9-8.8-8-8.7-3.4-.2c-2-.2-3.7-.2-3.8 0Zm14.7 11c4.8 5.1 8.7 9.7 8.7 10.3 0 .7-2.9-2-6.9-6.3-3.8-4.2-7.8-8.3-8.8-9.1-1.8-1.6-3.1-3.9-2.2-3.9.2 0 4.4 4.1 9.2 9ZM40.7 70.3c-.3.4-.2 1 .2 1.4s.8.4 1.1-.1c.3-.4.2-1-.2-1.5s-.8-.4-1 .2ZM131.6 70.5c1.8 1.4 1.5 3-.7 3-1 0-2.4.6-3 1.2-1.3 1.5-1.4 5.5-.3 6.7 1 1 3.4 1 4.3 0 .6-.6.8-.6.8 0 0 .4.6.7 1.4.7s1.3-.3 1.3-.6c0-.4-.3-.7-.7-.7s-.6-2.3-.6-5.6v-5.6h-1.8c-1.7 0-1.8.1-.7 1Zm.8 7c0 2.3-.3 3-1.2 3.2-2.7.5-4.1-3.3-2-5.5 1.9-2 3.2-1 3.2 2.3ZM150.6 70.3c0 .3.3.6.6.6.4 0 .7 2.1.7 5s-.3 5-.7 5c-.3 0-.6.2-.6.6 0 .3 1 .6 2.3.6s2.3-.3 2.3-.6c0-.4-.3-.7-.7-.7s-.6-2.3-.6-5.6c0-5.5 0-5.6-1.7-5.6-1 0-1.6.2-1.6.6ZM157.5 70.3c-.5.7.1 2 1 2 .4 0 .6-.7.6-1.4 0-1.4-1-1.8-1.6-.6ZM27.8 71c0 .2.2.6.6.6.2 0 1.3 2.3 2.4 5.3 1 2.9 2.2 5.2 2.6 5.2s1.7-2.3 2.8-5.2c1-3 2-5.3 2.3-5.3.3 0 .6-.4.6-.7 0-.4-.9-.7-2-.7-1.9 0-2.8 1-1.3 1.5.4.1 0 2-.8 4.5l-1.4 4.3-1.5-4.3c-.8-2.4-1.2-4.4-.9-4.5 1.3-.5.5-1.4-1.4-1.4-1 0-2 .2-2 .6ZM59.5 71.9c0 .5-.5 1.3-1.1 1.6-.9.5-1 .9-.4 1.2.4.3.9 1.8 1 3.4.2 3.3 1.6 4.6 3.5 3.7 1.2-.5 1.2-.6-.2-.8-1.3-.2-1.5-.7-1.5-3.2 0-2.1.3-3 1-3 .5 0 1-.2 1-.6 0-.4-.5-.6-1-.6s-1-.6-1-1.4-.2-1.3-.6-1.3c-.4 0-.7.5-.7 1ZM76 71.5c0 .3-.5 1.1-1.1 1.8-.9.9-1 1.3-.4 1.4.5.2.8 1.6.8 3.5 0 3.5 1 4.5 3.2 3.6q1-.5 0-.8-1.2-.3-1.3-4c0-2.1 0-2.5 1.5-2.5s1.7.4 2 3.3c.3 3.5 1.6 5 3.6 4 1.2-.5 1.1-.6-.2-.8-1.3-.2-1.5-.7-1.5-3.2 0-2.3.3-2.9 1.5-3.3l1.5-.5-1.5-.3c-1-.2-1.5-.7-1.5-1.5 0-.7-.3-1.3-.7-1.3-.3 0-.6.6-.6 1.3 0 1-.5 1.3-2.3 1.3-1.7 0-2.2-.2-2-.9.3-.5.1-1.1-.3-1.4-.4-.2-.7-.1-.7.3ZM71 72.6c-.3.6-1.3 1-2.7 1-2.7 0-4.6 2.3-3.8 5.1l.4 3.2c0 1 .3 1.6.6 1.6s.6-.4.6-.7c0-.4 1-.7 2-.7 1.1 0 2.6-.6 3.3-1.3 1.4-1.4 1.8-4.9.6-5.6-.4-.2-.4-1.1-.2-2 .4-1.8-.2-2.2-.8-.6Zm-1.6 2c0 .4-.8 1.8-1.6 3.3L66 80.5v-2.4c0-1.7.4-2.7 1.2-3.2 1.4-.7 2.1-.9 2.1-.2Zm1.3 4.5c-.4 1-1 1.7-2 1.7q-1.3 0 .2-2.5c1-2 1.6-2.4 2-1.8.3.5.2 1.7-.2 2.6ZM113 72.9c0 .3-1 .6-2 .6-2.5 0-3.3 1.3-3.1 4.7.1 1.6-.1 3.4-.4 4-1 1.6-.2 3.1 1.9 3.7 2.5.6 5.2-1 5.2-3 0-1.5-.4-1.8-2.6-2-1.4-.3-2.8-.8-2.9-1.3-.2-.7 0-.8.9-.5.6.3 1.8 0 2.7-.6 1.4-.9 1.6-1.4 1.3-3-.2-1 0-2 .3-2 .4 0 .6-.3.6-.6 0-.4-.4-.7-1-.7s-1 .3-1 .7Zm-.7 2.4c.7.8.7 1.2-.1 2-1.1 1-3.2.6-3.2-.7 0-.9 1.3-2.4 2-2.4.3 0 .8.5 1.3 1Zm1 8.2c0 1-3.4 1.8-4.4.8-.4-.4-.4-1.1-.2-1.6.5-1.4 4.6-.6 4.6.8ZM99.3 73.3c-1.3.5-1 1.6.5 1.6.7 0 1.3-.3 1.3-.6 0-.9-.8-1.3-1.8-1ZM39 74.2c0 .3.5.7 1 .7s.7.9.5 3c-.1 1.6-.5 3-.8 3s-.6.2-.6.6c0 .3 1 .6 2.3.6s2.3-.3 2.3-.6c0-.4-.3-.7-.7-.7-.3 0-.6-1.6-.6-3.6 0-3.5-.1-3.7-1.7-3.7-1 0-1.6.3-1.6.7ZM50.5 74.5c-.6 1.6.3 3 2.4 3.8 1.1.3 2 1 1.8 1.5-.3 1-2.5 1.3-3.2.3-.6-1.1-1.5-.3-1 1 .5 1.2 3.8 1.4 5 .3 1.4-1.6.8-3.2-1.6-4.3-2.5-1-3-2-1.3-2.7.7-.2 1.5 0 2 .8 1 1.4 2 1 1.4-.7-.5-1.3-5-1.3-5.5 0ZM87 75c-1.5 2-1.4 4.2.2 5.8 1.4 1.4 4.9 1.8 5.6.7.3-.4-.4-.7-1.4-.7-2 0-3.5-1-3.5-2.3 0-.3 1.1-.6 2.4-.6 1.9 0 2.5-.4 2.7-1.2.6-3-4.2-4.4-6-1.7Zm4 0c1.3 1.3 1 1.9-1.1 1.9-1.1 0-2-.3-2-.6 0-.6 1.4-2 2-2 .2 0 .7.2 1.1.7ZM95.1 74.2c0 .3.4.7.7.7.4 0 .7 1.3.7 3s-.3 3-.7 3c-.3 0-.7.2-.7.6 0 .3 1.1.6 2.4.6s2.3-.3 2.3-.6c0-.4-.5-.7-1.1-.7-.8 0-1-.6-1-2.8l.1-3.7c0-.9-2.7-1-2.7 0ZM117.3 75c-3.2 4.6 2.4 9.8 6.2 5.7 1.6-1.7 1.7-3.7.3-5.7s-5.1-2-6.5 0Zm5.4 3c-.2 2.3-.4 2.5-2.2 2.5s-2-.3-2.2-2.3c-.2-2.8 1.4-4.3 3.3-3.2 1 .5 1.2 1.2 1.1 3ZM138 74.5c-1.4 1.7-1.2 5.7.4 6.8 1.4 1 5 1 5.4-.2 0-.5-.4-.7-1.5-.5-1.7.4-3.6-.7-3.6-2 0-.5.9-.7 2.7-.5l2.6.2-.2-2.2c-.2-2-.4-2.2-2.5-2.4-1.6-.1-2.7.1-3.3.8Zm3.9.5c1.2 1.3.9 1.9-1.2 1.9-1.1 0-2-.3-2-.6 0-.6 1.4-2.1 2-2.1.2 0 .7.3 1.2.8ZM156.7 74.5c1.4 1.1 1.6 6.3.1 6.3-.5 0-1 .3-1 .7 0 .3 1 .6 2.3.6s2.3-.3 2.3-.6c0-.4-.2-.7-.6-.7-.3 0-.7-1.6-.7-3.6 0-3.5 0-3.7-1.7-3.7-1.7.1-1.8.2-.7 1ZM161.1 74.2c0 .3.3.7.6.8.3 0 1.2 1.7 2 3.5.6 1.8 1.6 3.3 2 3.3.6 0 1.5-1.5 2.3-3.3.7-1.8 1.6-3.4 1.8-3.5 1.2-.5.4-1.4-1.2-1.4-.9 0-1.4.2-1.2.6.5.9-1 6.2-1.7 5.5-1-1.3-1.8-4.7-1-5.4.4-.5 0-.7-1.5-.7-1.2 0-2 .2-2 .6Z"/></svg>