<svg xmlns="http://www.w3.org/2000/svg" viewBox="0 0 376.7 86"><path d="M30 2C19 5 8 14 3 26c-4 9-4 27 0 36 5 9 14 18 23 21 10 4 25 4 34-1 8-4 15-12 19-21s5-26 1-35C71 6 50-4 30 2Zm16 2-6 1h-6l6 1 7-1c3-2 17 2 15 5l1 1c1-1 3 0 4 2l2 2v3c1 2 1 3-1 1-3-1-23 0-25 2l-2 3c0 2 0 2-1 0l-3-2-2-1-3-1c-3 1-4 0-2-1 1-1-1-1-7-1-7 1-9 0-9-2-1-1 0-2 1-2l2-2 2-1 2-1c-2-2 11-7 20-8 3 0 5 1 5 2Zm-9 22c5 6 4 15-2 19-1 1-1 3 2 10l4 10h-4c-5-1-5-1-8-9-3-7-4-8-7-8s-3 0-3 9v8h-5l-4-1V22h12c11 1 12 1 15 4Zm35 0v4H53v9h17v8H53v11l9-1h10v7H44V22h28v4Zm5 2 1 5c0 3 0 3 1 2s1 1 1 7c0 7 0 10-2 14-3 4-3 4-4 2s-2-3-4-3-2-1-1-2c1-2 1-2-4-3h-2c9-1 10-1 10-7s-1-6-12-7c-6 0-6-1 2-1l7-1c-1-1 0-2 2-2 2-1 2-2 2-6 1-4 1-4 1-1l2 4ZM6 31 5 42v11l1-11c0-6 1-9 2-8 1 3 1 13-1 23v6l-3-7c-3-8-3-19 0-26 2-4 3-4 3-2l-1 3Zm35 22c0 2-1 1-1-3l1-4v7Zm17-2-1 1-1-1v-2l2 2Zm-34 5c-1 3 0 3 1 1 1-1 1 0 3 4l4 6a216 216 0 0 0 35 1h4l-3 2-2 3 3-1-1 1-3 2-2 1c0 2-5 5-9 5l-3 1c0 2-18 2-22 0l-8-5c-3-1-5-3-4-4s-1-2-2-2c-2-1-2-3 1-3s7-5 6-8c-1-4 0-10 2-8v4Zm51 8c0 1-1 1-1-1l1-1v2Z"/><path d="M19 35v5h6q6 0 6-5t-6-5h-6v5Zm10 0h-1c-1-2-3-2-3 1l-1 2-2-3c0-2 1-3 3-3 3 0 4 1 4 3ZM19 76l2 1v-1l-1-2-1 2ZM98 8c0 3 1 3 5 3h5v28h7V11h5c4 0 5 0 5-3V5H98v3Zm17 1c-3 1-3 3-3 13v11l-1-11c0-8-1-11-2-13-2-1-2-1 3-1s5 0 3 1ZM127 22v17h23v-3c0-4 0-4-8-3h-8v-8h7c7 0 8-1 8-3s-1-3-8-3q-7 0-7-4v-4h8c7 0 8 0 8-3s0-3-11-3h-12v17Zm4-8v7l-1-6c0-9 1-9 1-1Zm1 11-2 1 1-3c3-1 3-1 1 2Zm-1 6h-1c0-2 0-3 1-2v2Zm5 5h-5l3-1c3 0 3 1 2 1ZM163 6l-10 32 3 1c2 0 3-1 4-4 1-4 2-4 8-4 5 0 6 0 7 4 0 3 1 4 4 4h4l-6-17c-5-16-5-16-9-17l-5 1Zm3 5-2 2v-2l1-2 1 2Zm4-2Zm1 14c1 3 0 3-4 3h-4l2-7 2-6 1 3 3 7Zm-8-5c-1 1-1 1-1-1 1-2 1-3 2-2l-1 3Zm-1 11c-1 1-2 0-2-1v-4c1-2 3 3 2 5ZM178 8c0 3 0 3 5 3h5v28h6V11h5c5 0 5 0 5-3V5h-26v3Zm16 1-1 1-2 14v13-13c-1-10-1-13-3-15-2-1-1-1 2-1l4 1ZM207 22v17h11q12 0 12-3c0-4-1-4-8-3h-8v-4l-1-4h8c7 0 7-1 7-3s0-3-7-3l-7 1v-9h8c7 0 8 0 8-3s-1-3-12-3h-11v17Zm4-3-1 8-1-8c0-9 2-9 2 0Zm0 11v2l-2-1c0-3 1-3 2-1Zm5 6h-4l-2-1c1-1 6 0 6 1ZM235 22v17h3c3 0 3 0 3-7s0-6 3-6c2 0 4 2 6 6 3 6 4 7 7 7h4l-4-7-3-6 3-3c3-4 4-9 2-13-2-3-9-5-18-5h-6v17Zm22-6-1-2 1-3v5Zm-19-2h-1l1-2v2Zm15 0c2 4-2 7-8 7-4 0-4-1-4-5s0-5 5-4c4 0 6 1 7 2Zm-13 10-2 3-1-5 1-3 2 5Zm12 3 1 5-1-2-3-5c-2-1-2-2 0-2l3 4Zm-14 4h-1l1-2v2ZM101 64v17h4q4 0 3-7c0-6 0-6 3-6s4 1 6 6c3 6 4 7 7 7l3-1-4-7c-3-6-3-7-1-8 6-3 6-14-1-17l-11-1h-9v17Zm10-14-7 1c-1-1 1-2 3-2l4 1Zm8 7c0 3 0 4-6 4h-5v-8h6c4 1 5 1 5 4Zm-14-2-1 2-1-2c0-2 1-2 2-1Zm1 6-2 1-1-1 1-1 2 1Zm0 5-2 2-1-1 1-2 2 1Zm12 0h-2v-1c2 0 3 0 2 1Zm-12 6-2 2-1-2 1-2 2 2ZM131 64v17h11c12 0 12 0 12-3s0-4-8-4h-8v-4q0-4 7-4c7 0 8 0 8-3s-1-3-8-3-7 0-7-4c0-3 0-3 8-3s8 0 8-3 0-3-12-3h-11v17Zm5-13-1 1-1-1 1-2 1 2Zm0 5-1 1-1-1 1-1 1 1Zm0 8-1 4-1-4 1-4 1 4Zm0 8-1 2-1-2 1-2 1 2Zm11 6h-9l4-1 5 1ZM159 64v17h3c3 0 3-1 3-7v-6h6c9 0 13-4 13-11s-4-10-16-10h-9v17Zm17-14-15 1c0-1 4-2 8-1h7Zm-13 6 1 6c1 3 1 4-1 6-1 1-2 1-2-1l2-2v-1c-2-2-2-11 0-10v2Zm15 0c0 4-3 6-9 6-4 0-4 0-4-4v-5l6 1c5 0 6 1 7 2Zm3 4c0 3-1 2-1-1v-2l1 3Zm-18 12v2l-2-2c0-2 1-2 2-1ZM188 60c0 13 0 13 4 17 2 3 4 4 8 4 11 0 14-6 14-23V47h-7v12c0 13-1 15-7 15-5 0-6-3-6-16 0-11 0-11-3-11h-3v13Zm3 7V55v12Zm19-4v-7 7Zm0 8v-3 3Zm-1 3-1 2-1-2 2-1v1Zm-6 4h-5c-2 0-1-1 3-1l2 1ZM220 64v17h10c9-1 10-1 13-5 4-4 4-6 0-10l-3-3 3-4c2-2 2-4 1-6-2-5-6-6-16-6h-8v17Zm7-14-2 1h-2l2-2 2 1Zm11 1 1 1-3-1-1-2 3 2Zm-3 2 2 4c0 2 0 3-4 3h-6v-7h8Zm-10 8v4c-1 3-2 3-1 1l-1-5v-1l2 1Zm13 9c0 3-1 4-6 4s-6 0-6-4 1-4 6-3c5 0 6 0 6 3Zm-13 2-2 1v-1l1-2 1 2Zm2 6h-3c-1-1 0-1 2-1l1 1ZM250 64v17h23v-7c0-5-1-7-3-8q-3-2-3 3c-1 5-1 5-6 5h-4V61l1-14h-8v17Zm5-3-1 1c-1 0-2 0-2-2l2-1 1 2Zm0 5-1 2-1-2 1-1 1 1ZM276 64v17h8V47h-8v17Zm4 5c0 3-1 1-1-5l1-6v11ZM294 49l-4 6c-5 13 2 26 13 26l9 3c4 2 4 2 6 0 3-2 3-3 1-4l-5-2c-2 0-2 0 0-3 6-7 5-20-2-25-4-4-14-4-18-1Zm14 1h-3 3Zm-13 3-1 2-1-2 2-1v1Zm13 2c3 3 4 13 0 17-2 3-7 3-10 0-4-3-4-14 0-17 1-2 4-3 5-3l5 3Zm-16 6v-3 3Zm24 3-2 4v-5c0-6 2-5 2 1Zm-24 5v-3 3Zm3 5v2l-2-2 1-1 1 1Zm15 3c0 1-2 2-6 1h-7l6-1 6-1 1 1ZM322 58c0 18 3 23 14 23 4 0 6-1 9-4 3-4 3-4 3-17V47h-3c-3 0-3 0-3 11 0 14-1 16-7 16s-6-1-6-16V47h-7v11Zm5 7h-1v-2l1 2Zm19 0h-1v-2l1 2Zm-19 8c-1 1-1 0-1-2s0-3 1-2v4Zm12 5h-6l3-1 3 1ZM355 64v17h10c11 0 11 0 11-3 1-4 1-4-7-4h-8v-4q0-4 8-4c7 0 7 0 7-3s0-3-7-3l-8 1v-8h8c7 1 7 0 7-3s0-3-11-3h-10v17Zm6-14c-2 1-2 2-2 5l1 6v2l-1 7c-1 13-2 9-2-6V49l4 1c3 0 3 0 0 0Zm9 28h-7c-2 0-1-1 3-1l4 1Z"/></svg>