<svg xmlns="http://www.w3.org/2000/svg" viewBox="0 0 144.8 86"><path d="M50 0H0v37l5 7 6 6h34v24l6 6 6 6c1 0 0 0 0 0l42-1 43-1 1-2 1-1v3a271 271 0 0 0 1-36l-6-6-5-6h-24V12l-5-5-5-6-50-1ZM2 2H1V1l1 1Zm98 1h-2c0-2 0-2 1-1l1 1Zm-3 16v17H2V2h95v17Zm10 5v12h-7V4l3 4 4 5v11ZM3 38H2c-2-2-2-2 0-1l1 1Zm106-1h-1l1-1v1Zm-10 0h-1 1Zm-52 1h-1 1Zm88 1-1 1-1-1c0-1 1-2 2 0Zm-90 4v4H12l-2-2-4-5-2-2h41v5Zm87 12v17H48V38h84v17Zm11 10c0 9 0 17-1 16l-4-4-3-4V40l4 5 4 4v16Zm-94 9h-2c-1-1 0-1 1-1l1 1Zm87 4 4 4 1 2H58l-4-5-4-4h83l3 3Z"/><path d="m12 14 2 1h2v11h3V15h2l2-1v-2H12v2ZM27 19v7h8v-3h-3l-3 1v-4h3l3-1-3-1h-3v-3h3l3-1v-2h-8v7ZM43 13l-3 7-2 6h1l2-2c1-1 1-2 3-2s3 1 3 2l2 2 2-1-3-6c-2-6-2-6-4-7l-1 1Zm2 5 1 3h-2l-1-1a550 550 0 0 0 2-2Zm3 3h-1 1ZM51 14l2 1h2v11h3V15h2l2-1v-2H51v2ZM65 19v7h9v-1c0-2 0-2-3-2h-3v-3h3l2-1-2-1h-3v-3h3l3-1v-2h-9v7ZM77 19v7h2l1-3c0-3 1-3 2 0l3 3h2l-2-3-1-3h1c2-1 2-4 1-6l-6-2h-3v7Zm7-4c1 2 0 4-3 4l-1-2 1-2h3ZM90 49l-2 5 5 3 2 1-1 2-4-2h-1c-2 0-2 0-1 1 0 2 3 3 4 3 4 0 6-3 5-5 0-2-3-3-4-3-3 0-3-3-1-3h2l2 1v-2c-2-2-4-2-6-1ZM59 55v7h2l1-3v-3h6v3l1 3h2V49h-2l-1 2v3h-6v-3l-1-2h-2v6Zm3 0-1 1v-1h1ZM74 54c0 5 0 5 2 7l3 1 4-1 1-7 1-5h-3v5c0 5 0 5-2 5h-2l-1-5-1-5h-2v5ZM101 55v7h4l4-1c0-1 0-2-3-2l-3-1c0-2 1-2 3-2s3 0 3-1 0-1-3-1-3 0-3-1 0-2 3-2 3 0 3-1 0-1-4-1h-4v6Zm2 0v1-1c0-1 0-1 0 0ZM112 50l2 1h2v11h3V51h2l2-1v-1h-11v1Zm6 0v1h-1l1-1Z"/></svg>