<svg xmlns="http://www.w3.org/2000/svg" viewBox="0 0 480.5 86"><path d="m325 0 9 26 9 25h6q6 0 14 18l9 17h10l9-1-9-19-9-16 7-7c6-5 7-7 8-14 0-6 0-10-3-15-6-11-10-13-36-14h-24Zm49 9c7 4 9 8 9 18 0 6-1 8-8 14-8 8-8 7 2 27l6 12-4 1c-4 0-6-2-12-15-9-16-12-20-17-20-3 0-5-1-6-4L332 6a150 150 0 0 1 42 3ZM0 3l2 8c1 4 2 4 10 4h9v26c0 19 1 28 3 35 3 9 4 10 9 10h5V15h24V0H31C1 0-1 1 0 3Zm57 5c0 2-2 2-9 2-6 0-10 1-11 3-2 2-2 11-3 34l-1 33c-1 0-3-1-4-5-2-4-2-12-2-32 0-31-1-32-13-33-5 0-7-1-7-3-1-2 3-3 25-2 21 0 25 1 25 3ZM73 25l9 25h34V35H83V15h41V0H65l8 25Zm45-17c-1 1-7 2-18 2-18 0-21 1-23 7-1 2-3-3-5-9l17-3c21-1 30 0 29 3Zm-7 34c0 2-2 3-13 3s-14-1-14-3 3-2 14-2 13 0 13 2ZM146 22l-7 23 3 14 5 11 15 1h15l3 7c2 7 2 7 11 7 7 1 9 1 8-1l-15-43-16-41h-14l-8 22Zm22-10 3 9 2 6 20 52-3 2c-3 0-5-3-7-7-3-6-5-8-8-8l-13-1h-11l-5-10c-3-10-3-10 6-35 7-18 11-21 16-8ZM199 4c4 11 3 11 13 11h9l-1 26c0 22 0 27 3 35 3 9 4 9 10 10h6l-1-35-1-36h24V0h-63l1 4Zm47 1c7 0 10 1 10 3s-2 2-9 2c-13 0-13 0-14 38 0 19-1 33-2 32-3 0-6-13-6-20V34c0-21-1-24-12-24-6 0-9-2-7-5l15-1 25 1ZM264 2l8 24 8 24h35V35h-35V15h42V0h-29c-16 0-29 1-29 2Zm52 5c0 2-6 3-19 3-17 1-18 1-20 5l-2 3-2-4c-4-9-4-9 21-9 18 0 23 1 22 2Zm-6 35c0 2-3 3-14 3s-13-1-13-3 3-2 13-2 14 0 14 2ZM410 1l14 42 14 42h7l7 1 14-43 15-43h-18l-7 22-9 28-2 5-5-16-9-28-3-11h-9l-9 1Zm18 15 3 11c2 8 11 30 13 30 4 2 5 0 20-47 1-3 3-4 6-4l4-1-6 20a370 370 0 0 1-15 42c-4 10-5 13-8 13s-5-5-15-33c-15-43-14-42-9-42 3 0 4 2 7 11ZM89 72l2 7 2 7h30V71h-17l-17 1Zm27 7c0 1-2 2-10 2s-10-1-10-3 1-3 10-2c8 0 10 1 10 3ZM288 72l2 7 2 7h30V71h-17l-17 1Zm29 7c0 1-5 2-11 2-9 0-11-1-11-2s2-3 8-3c8-1 14 1 14 3Z"/></svg>