<?xml version="1.0" encoding="UTF-8"?><svg id="Lag_1" xmlns="http://www.w3.org/2000/svg" viewBox="0 0 55 50"><defs><style>.cls-1{fill:#ff6445;}.cls-2{fill:#14272b;}.cls-3{fill:#2f6457;}</style></defs><path class="cls-1" d="M28.5,18.4c0,.5,.2,1.2,.6,2,.3,.5,.6,1,1.4,1.4,.9,.6,1.5,0,2.4,.2,1.8,.3,1.8,1.9,3.9,2.8,1.7,.8,3.3,.6,4.1,.4,1.7-.3,2.7-.9,4.1-1.8,1.4-.7,1-.9,2.9-2.1,1.6-1.1,2.6-2.3,3.2-3.1,2.9-4,2.9-8.8,3-11.4v-.8c-.9,.5-2.2,1.5-3,3-.2,.4-.4,.8-.4,.9-.3,.9,.1,1.6-.6,2.8-.2,.4-.4,.8-.7,1.2-.6,.9-1.3,1.5-1.9,1.8-.5,.4-1,.9-1.5,1.3-.8,.5-1.6,.9-2.4,1.4-.8,.9-1.6,1.3-2.1,1.4-.4,.1-1.1,.3-2.1,.8q-.2,.1-.3,.1c-.7,.2-1.4,0-2.4-.4-1.2-.4-1.3-.7-2.1-.9h-2.3c-.6-.1-1.2-.2-1.6-.4"/><path class="cls-1" d="M26.7,14.5c.2-.9,1-.9,2-2.5,1.3-1.7,1-2.2,1.9-4,.4-.7,.6-.7,3.9-3.9,2.6-2.5,2.9-2.9,3.8-3.3,2.1-.7,4.5-.6,6.4,.5l1.7,.9c.2,0,.8,.4,1.7,.6,1.7,.4,2.1,0,3.9,.4,.9,.2,1.4,.4,1.7,.7,.6,.7,.3,1.9,.2,2-.4,1.2-1.6,2.1-2.5,2.1l-.6-.2-1.8-.2c-1.2-.1-1.4,.4-2.5,.6-.8,0-1.9-.2-4.1-.8-1.3-.4-1.4-.5-1.8-.5-1.4,0-2.3,.9-2.8,1.2-.9,.7-.7,1-2,2.6-.8,.9-1.3,1.5-1.9,2-1,.8-1.6,.8-2,1.6-.5,.8-.5,1.6-.5,1.9,0,1.1,.7,1.9,.9,2l1,1c-.1,.3-1.3,.4-2.3,0-2.5-.6-4.6-2.8-4.3-4.7h0Z"/><path class="cls-3" d="M30.9,48.2c-.9-.7-2.4-.8-2.8-.2-.3,.4,.2,1.2,.7,1.6,.7,.6,1.8,.6,2.9,.1,0-.3-.2-1-.8-1.5Z"/><path class="cls-3" d="M29.6,45.5h.2v-.7l-.2,.6v.1Zm-1.7,1.8h-.6l.8,.4v-.2l-.2-.2Z"/><path class="cls-3" d="M29.6,39.8c-.1,.1,.1,.4,.2,.5,.2,.5,.1,.9-.6,1.9-.2,.2-.3,.5-.3,.7,.4,1.3,.7,1.9,1,1.9,.1,0,.2-.2,.3-.5l.4-.7c.3-.5,.3-.6,.3-1.3,0-1.3-.2-1.9-.7-2.2-.2-.3-.5-.4-.6-.3Zm5.3,.3c-.2-.2-1.2,.5-3,2.1-.1,.3-.1,.8-.1,1.2s0,.8,.1,1.1q-.1,.1-.2,.2l.1,.1c.4-.2,1-.5,1.5-1.1,.5-.5,.8-.9,.9-1.2,.1-.2,.1-.4,.2-.7l.5-1.4c.1-.2,.1-.3,0-.3Z"/><path class="cls-2" d="M11.6,39.5c0-.1-.1-.1-.1-.3m-.7,2.8c-.1,.1-.3,.1-.7,0-.4-.2-.7-.4-1.1-.6-.1-.1-.3-.2-.4-.3-.7-.4-1.9-1.1-2.9-2.4-.4-.5-1.3-1.8-1.5-3.6-.1-.6,0-1.1,0-1.4-.1-.2-.2-.4-.3-.6-.1,.2-.1,.4-.2,.7-.1,.5,0,.7-.1,.7-.4,.2-1.9-1.8-2-1.7,0,0,.1,.2,.4,.7l1.6,1.6c-.5,0-1-.1-1.6-.2-.4-.1-.7-.1-1-.2v.4c.3,.1,.7,.1,1.1,.2,.6,.2,1.1,.3,1.6,.5,.3,.2,.6,.5,.5,.8,0,.3-.3,.5-.3,.6-.5,0-1.4-.2-2.1-.2v.5c.3,0,.7,0,1.2,.1s.9,.2,1.3,.3c.6,.6,1.2,1.1,1.7,1.7l-1.5-.1c-.5,0-1-.1-1.5-.1l.2,.4c.6,.1,1.2,.2,1.8,.3,1.1,.4,2.2,.9,3.3,1.3,2.5,1.3,3,1.9,2.9,2.2,0,.1-.1,.2-.2,.2-.3,.1-.6-.4-1.3-1-.3-.3-.5-.5-.7-.6-.4-.2-.6-.3-.6-.2,0,0,0,.1,.1,.1,.3,.2,.5,.4,.8,.5,0,.2,0,.4-.1,.4-.2,.1-.5-.2-1-.7,.1,.1,.1,.3,.2,.5,.1,.2,.1,.3,.2,.4,.1,.1,.2,.2,.6,.2,.2,0,.4,.1,.6,.1l.3,.4c-1.2-.1-2.5-.1-3.7-.2,.2,.2,.4,.3,.6,.5,1.2,.1,2.3,.1,3.5,.2h1.7c.8,.3,1.6,.7,2.3,1,1.3,.6,3.2,1.3,5.4,1.6,1.7,.3,3.3,.4,4.5,.3,.7,0,1.8,.1,3,0,4.2-.3,8.4-2.1,8.8-2.2,7.2-3.3,12.7-10.4,12.8-14.9,.1-2.8-.4-4.2-.4-4.2-.6-1.8-1.4-2.5-1-3.4,.3-.7,.8-.6,2.6-2.3,.4-.3,.7-.7,1-1.2,.4-.8,.5-1.5,.5-2-.7,.8-2.6,2.9-4.8,4.8,0,0-2,1.7-3.9,2.5-.1,0-.2,.1-.3,.1-.9,.3-1.7,.7-2.8,.6-.9-.1-2-.5-2.3-.6s-.5-.2-.7-.3c-.4-.3-.8-.6-1.3-.8-.3-.2-.4-.4-.4-.5,.1-.1,.6,0,1.7,.4,.5,.3,1.6,.8,3,.8,.6,0,1.1-.1,1.4-.2,.4-.2,.7-.3,1.1-.5,.2,0,1.2-.9,1.7-1.6,.9-1.3,1.9-2.3,3.1-2.8,.8-.3,1.5-.6,2.2-.9,.3-.2,.5-.3,.8-.5s.6-.4,.9-.7c.3-.3,.5-.6,.8-.9l.5-.6-.1-.9h-.1c-.3,.5-.6,1.1-1,1.6-.2,.2-.4,.4-.8,.7-1.2,1-2.2,1.2-3.2,1.7-.8,.3-1.8,.9-2.8,2-.4,.7-1.7,2.8-3.7,3-.9,.1-1.7-.1-2.6-.4-1.4-.4-1.5-.7-3-1.1-.6-.1-1.1-.2-2.3-.4q-1.3-.2-1.6-.3c-1.4-.5-2.3-2.1-2.1-2.4,.1-.1,.3-.1,1,.3,.3,.1,.8,.2,1.4,.3,1.4,.2,1.5,0,2.5,.2,.8,.2,.8,.3,2.8,1,.3,.1,.5,.2,.5,.2,1.2,.2,2.2-.3,4-1.4,1.5-.9,1.2-.8,2.3-1.5,1.4-.8,2.1-1.2,4.1-2.3,.4-.2,.7-.4,.9-.6,1.1-.8,1.9-2,2.1-3.3,.1-.6,.2-1.1,.3-1.4,.3-1,.5-1.7,1-2.3,.3-.3,.5-.5,.7-.6l.5-.2c.3-.2,.6-.5,.9-.9,.3-.4,.5-.7,.7-1,0-.2-.1-.6-.3-1-.7-1.4-2.3-1.7-2.5-1.7-.7-.1-.6,.1-1.5,0-1-.1-1.3-.5-2.6-.7-.6-.1-.5,0-1-.1-1.1-.2-1.3-.6-2.5-1.1-.9-.4-1.7-.5-2.1-.6C41.7,0,41,0,40.5,0c-.4,.1-1,.2-1.7,.4-.7,.3-1.3,.7-1.7,.9-.6,.4-1.2,.8-1.8,1.2-2.3,1.2-3.4,2.6-4,3.6-.7,1.3-1.3,2.7-1.3,2.7-.5,1.2-.6,1.8-1.2,2.5s-.8,.6-1.4,1.3c-.4,.5-1.2,1.4-1.1,2.4,0,.5,.2,.5,.8,1.7,.5,1,.4,1,1.3,2.9,.9,2,1.1,2.1,1.3,2.3,.6,.4,1.3,.5,2.5,.7,.8,.1,1,.1,1.5,.3,.7,.3,1.1,.7,1.3,1.1,.9,.5,1.8,1,2.6,1.5,.8,.2,2.3,.5,4.1,.1,1-.2,1.9-.6,2.5-.9,.3-.2,.5-.4,.8-.7l1-.7c.2-.3,.5-.5,.5-.2l.6,1.3c.2,.5,.5,1.3,.7,2.2,0,0,.4,1.9,.2,3.9-.3,2.8-4.2,10.2-12.6,13.8-5.6,2.4-10.6,1.9-13.1,1.7-5.3-.6-9.7-2.6-10.1-4.3-.3-1.2,.2-2.4,.2-2.4,.2-.5,.5-.7,.6-.8,.3-.2,.6-.2,1.4-.3,.8-.1,1.4,0,1.4-.1s-.2-.1-.3-.3c0-.2,.2-.3,.5-.5,0-.2,.1-.5,.1-.7-.3,.2-.5,.4-.8,.6-.1,.1-1,.9-1.5,.7-.1-.1-.2-.2-.3-1.4-.1-1.1-.1-1.7,0-2,.2-.5,.4-.6,.6-1.3,.1-.5,.2-.9,.1-.9s-.3,1.4-1,1.5c-.2,0-.4,0-.5-.1,.1,.5,.3,1.2,.3,2s-.1,1.5-.2,2c-.2,.3-.6,.7-.9,1.2-.1,.3-.2,.5-.4,.9-.3,1.5-.3,2-.7,2.2ZM45.2,15.4l-.3,.1q-.2,0,0,.1c.4,.2,.4,.4,0,.5-.2,0-.3,.2-.3,.3,0,.2-.6,.7-.8,.7l-.3,.1-.4,.2-.6,.5-.5,.5-.3,.1c-.1,.2-.8,.3-1.6,.2-.4,0-.5,0-1-.5-.3-.4-.4-.6-.3-.7l-.1-.5v-.3c0-.1,.1-.3,0-.4,0-.3,.7-.9,1-.9,.3,.1,.3,0,0-.2-.2-.2,0-.5,.3-.4,.1,0,.2,0,.3-.2s.2-.3,.4-.2c.1,0,.2,0,.3-.3,.2-.5,.7-.3,.8,.3v-.1c0-.4,.1-.5,.3-.6h.8c0-.2,.7-.2,.8,0h.2c.2-.3,.5-.1,.5,.1s0,.3,.2,.2c.3,0,.5,.1,.5,.5l.1,.3c.2-.1,.2,.4,0,.6Zm2.2,0l-1,.2c-.4,.2-.7,.3-.8,.2l.1-.5c.2-.4,.2-.5,0-.9,0-.2-.3-.6-.6-.7-.3-.4-.5-.5-1.2-.6-.7-.2-.8-.2-1.2,0-.2,0-.4,.1-.6,.1-.5,0-1.6,.5-2,.8-.7,.5-1,.7-1.5,1.3-.3,.4-.4,1-.3,1.9v.7l.5,.5q.5,.5,1.2,.6h.7l-.4,.5c-.6,.6-1.1,.7-1.8,.4-1-.5-1-.7-1.2-1.6l-.2-.6-.6-.9c-.7-.9-.6-1.5,.2-2.9l.6-.6c.7-.5,1.6-.7,2.9-.7,1,0,1.5-.2,2.2-.6,1.9-.8,3.4-.9,4.2-.5,.4,.2,.6,.4,.9,.8,.2,.3,.2,.5,.2,1,.2,1-.1,1.9-.3,2.1h0Zm3.6-6.7c-.2,.2-.3,.3-.5,.5-.3,.3-.4,.4-.1,.4,.2,0,.2,.3-.2,.6q-.3,.3,0,.4l.1,.2c0,.2-.3,.6-.6,.6h.1c.3,0,.4,0,.4,.3,0,.1,0,.2-.2,.3s-.2,.1-.1,.3v.3c-.2,.1-.2,.2-.1,.2,.2,0,.1,.5-.1,.5s-.2,.1-.1,.3q0,.2-.2,.3l-.3,.3c0,.2-1,1.1-1,1v-.4l.2-.6,.1-.5v-.8l-.1-.5-.3-.8c-.2-.5-.7-.8-1-.8l-.4-.1c-.4-.3-1.8-.3-1.9,0h-.5l-.3,.2c0,.2-.1,.2-.3,.2-.2-.2-.8,0-.9,.3l-.3,.1c-.1,0-.3,0-.4,.1-.7,.4-1.8,.6-1.9,.3l-.2,.1q-.2,.2-.5-.2c-.2-.2-.3-.4-.4-.6,0-.2-.2-.4-.3-.5l-.2-.3-.1-.1c-.1,0-.2,0-.2,.3s0,.2,.2,.2l.1,.2,.2,.4c.2,0,.3,.3,.3,.5v.2q-.3-.2-.5,.1c0,.3-.1,.3-.3,.1-.1-.1-.2-.1-.2,0l-.6,.4c-.6,.3-.8,.4-.9,.7,0,.1,0,.2-.4,.1-.5,0-.6-.2-.3-.4,.1,0,.1-.2,0-.2l-.2,.1c0,.2-.1,.2-.4,0l-.4-.1,.6,.6,.3,.1c0,.1,0,.2,.2,.2s.2,.1,0,.4l-.2,.5v.6c0,.7-.4,.8-1.3,.7l-1.4-.2h-.9c-.3,.1-.2,.3,.1,.4l.4,.2c.1,.1,.3,.2,1.5,0h1.3l.2,.2,.3,.6c0,.3,.1,.5,.7,.9,.1,.2,.2,.4,.1,.6v.3l.2,.4,.1,.4,.2,.2,.2,.2,1.1,.6h.3c.1-.2,.4,0,.4,.2,0,.3-.2,.4-.4,.2h-.6l-.7-.2-.5-.1-.4-.2-.3-.2c-.1,0-.3,0-.5-.2l-.6-.3-.2-.8-.3-.1s-.3,0-.4-.2h-.3c-.4,.2-.5,.2-.6,0,0-.3-.1-.3-.3-.4-.3,0-.4-.1-.4-.3l-.2-.2c-.1,0-.2,0-.2-.2-.1-.1-.2-.3-.3-.4l-.2-.4v-.4c-.2-.1-.2-.4,0-.5h0q.1-.2,0-.4c-.2-.1-.2-.2,0-.3l.1-.4c0-.4,.2-.5,.5-.4,.3,.2,.7,.2,.7,0h-.4c-.3,0-.4-.1-.3-.3,0-.2,0-.3,.2-.3s.3-.1,.3-.3,0-.3,.2-.3,.3,0,.4-.2l.3-.3c.2-.1,.3-.1,.6,.2,.1,.2,.3,.3,.4,.3l.3,.2c0,.2,.4,.2,.4,0l-.2-.1c-.1,0-.1-.1-.2-.2l-.5-.3c-.5-.3-.5-.5-.1-.6,.2,0,.3,0,.3-.3,0-.2,.1-.3,.2-.3,.2,0,.7-.5,.7-.7l.1-.2,.2-.2,.6-.9c.1,0,.2-.1,.2-.3l.1-.2h.1l.3-.3c.2,0,.3-.1,.3-.3s.1-.3,.3-.3l.4-.3,.7-.4,.6-.3c.5-.3,.7-.2,.7,.3v.4l.2-.4v-.4c.1-.2,.6-.2,.7,0v.6c0,.5,.1,2.6,.2,2.5,.2-.1,.2-.7,.1-1.9,0-1.1,0-1.4,.4-1.1h.3c.3-.1,.4,.2,.4,.9,0,.6,0,.7,.1,.7v-.7c0-.4,0-.5,.2-.6h.1c0,.1,.2,.2,.3,.1s.2,0,.3,0l.5,.2,.3,.4v.2c0-.4,.3-.5,.5-.3h.8l.6,.3,.5-.1c.1-.2,.2-.2,.4,.1s.2,.3,.2,0c.2-.3,.5-.5,.7-.2,.2,.2,.3,.2,.4-.1,0-.3,.5-.5,.8-.3h1.3c.1,0,.3,0,.4,.2q.1,.2,0,.5h0Zm-23.4,6.6c0-.7,.2-1.2,1.4-2.5,1-1,1-1.2,1.2-1.6l.3-.9c.2-.2,.3-.6,.3-.7,0-.4,.8-1.9,1.1-2.2,.2-.1,.3-.4,.3-.5l.4-.3,1-.6,.7-.6v-.1l.5-.5c.4-.4,1-1.1,1-1.4,0-.1,.6-.7,.8-.7l.5-.4,.5-.3,.5-.3,.6-.4,1.1-.3c.4-.2,.6-.2,1.8-.2,1,0,1.2,.1,1.9,.4l1.8,.8c1,.7,2.2,1.2,2.7,1.2l1,.1,1.9,.2c1.5,.1,1.9,.3,2.6,.7,.4,.2,.4,.3,.4,.7,0,.7-.4,1.3-1.8,2.2l-.8,.7-.5-.3c-.5-.4-1.9-.5-2.3-.3-.8,.4-1.6,.6-2.1,.5-.8,0-1.7-.2-2.4-.5l-1.6-.5c-1.1-.5-3.2-.1-4.5,.7-1,.7-1.7,1.5-2.4,2.6-.5,.9-1.3,1.7-2.1,2.3-.9,.6-1.6,1.4-2.1,2.3l-.2,1.1c0,.9,0,1.1,.3,1.5,.1,.3,.5,.7,.8,.9,.4,.5,.5,.6,.3,.6-.3,.1-.6,.1-1,.1-1.1,0-1.9-.5-2.9-1.9-.9-.7-1.1-1-1-1.6h0Z"/><path class="cls-2" d="M17.4,26.9l-.6,.1-.4,.2-.3,.2c-.5,.2-.9,.4-1.3,.7l-.1,.5c0,.4,.4,.4,.8,0,.6-.6,.7-.5,.7,.7l.1,1.6q.1,.5-.3,.9c-.3,.2-.4,.4-.3,.5,0,.2,.1,.3,.4,.2h.3v1l.1,1.3v2.5l.2,.1c0,.3,.3,.2,.5-.1s.3-.4,.2-.7l.1-.6v-.3c-.1-.1-.2-.4-.2-.9v-1.3l-.2-1.1c0-.5,0-.6,.4-.9s.6-.4,.9-.4c.4,0,.9-.3,.7-.5l-.2-.1-.2-.2c-.1-.2-.2-.2-.5,0l-.6,.3c-.2,.2-.4,.3-.5,.2l-.1-1.5v-1.4l.2-.1c.6-.2,1.3-.2,1.9,0,.4,.1,.7-.2,.5-.7-.1-.3-1.4-.5-2.2-.2Zm5.9-11.9v.5l.1,.9,.2,2,.2,2.5c0,1.2,.2,1.7,.5,1.8,.2,0,1.7-.2,2-.4,1.4-.8,1.6-2.6,.6-4.7-.3-.7-.7-1.3-1.3-1.9-.5-.5-1.4-.9-1.8-.9-.1,0-.3,0-.5,.2h0Zm1.4,.8c.6,.5,1,1.1,1.3,1.9,.4,.8,.5,1.1,.6,1.9,0,.8-.1,1.3-.7,1.9-.2,.4-.3,.4-.6,.4h-.4l-.2-1.4c-.1-1-.2-1.9-.4-2.9l-.2-1.3c-.2-.4-.1-.7,.1-.7l.5,.2h0Zm-7.7-.7v7.9l.2,.3c.5,.3,.5,.1,.5-1.8l.1-1.8c.2,0,.7,1.4,.8,2.1,.2,.8,.5,1.8,.8,1.9,.6,.3,1,0,.7-.4-.4-.4-.5-.7-.7-1.7-.1-1-.5-1.9-1.1-2.7q-.2-.3,0-.5c.4-.3,1-.8,1.1-1.1,.4-.8,.5-2,.1-2s-.5,.2-.5,.7l-.2,1c-.2,.4-.8,.9-1,.9v-1.4l-.1-1.4h-.7Zm3.3,.3v6l.2,.6,.7,.9,.4,.3,.4-.5c.3-.3,.4-.6,.4-.7l.2-.3c.1-.1,.3-1.9,.3-3.3v-1.7c.2-.3,.2-.6,.1-.9-.1-.5-.3-.7-.7-.6q-.2,0-.2,2.3l-.2,3.2v.9l-.3,.1c-.4,0-.6-1.3-.6-4.2v-2.3c-.2-.1-.4-.1-.7,.2h0Zm-15.5,.1l-.1,.5-.3,1.2c-.4,1.4-.5,1.8-.5,2.9-.1,1-.2,1.6-.3,1.2-.3-.7-.5-1.8-.6-3.1-.2-1.8-.3-2.1-.9-2-.2,0-.3,0-.4,.5,0,.4,0,.8,.3,1.9,.3,1.5,.7,3,1.2,4.5l.1,1.1c.1,.5,.4,.7,.7,.5,.2,0,.2-.3,.2-1.3l.1-2,.3-1.6c.1-1,.3-2,.7-3.1,.3-.9,.2-1.2-.2-1.2h-.3Zm9.5,.2c-.7,.6-1.1,1.9-.9,2.6,.1,.3,.4,.7,.8,.9,.4,.3,.8,.8,1,1.1,.3,.6,.3,.7,.3,1.4s0,.8-.3,1.3c-.3,.4-.4,.6-.6,.6-.3,0-.6-.4-.8-.7-.1-.5-.7-.3-.7,.2,0,.4,0,.5,.6,.9,.7,.4,1.3,.4,1.7,0,.6-.5,.8-.6,1-1.2l-.1-1.7c-.2-1.1-.4-1.4-1.3-2.2-.4-.4-.8-1.3-.8-1.7,0-.3,1-1,1.3-1s.6-.2,.6-.5c0-.2-.2-.3-.9-.3-.4,.1-.5,.2-.9,.3Zm-8.2,.2c-.3,.6-.4,1.3-.4,4.7v3.4h.5l.1-2,.2-3.7c.2-2.4,.2-2.5,0-2.5-.1-.1-.3-.1-.4,.1h0Zm1.4,.6c-.2,.3-.2,.4-.3,1.7,0,1.9-.2,3.9-.5,5.8-.1,.7,0,.8,.9,.4l1.3-.5c.5-.2,.6-.3,.6-.5l-.3-.4q-.3-.1-.7,.1l-.7,.3c-.2,0-.2-.1-.2-.5l.1-.7,.2-1.2,.2-1.7,.2-1.9v-1h-.3c-.2-.1-.3,0-.5,.1Z"/><path class="cls-2" d="M10.1,16.6l-.3,.4v2.1c.1,1.5,.2,3,.3,4.5,.1,.1,1.2,.2,1.6,.1,.4-.1,1-.9,1.3-1.9,.4-.8,.4-1.6,.2-2.2-.3-.7-1.5-2.2-1.9-2.7-.6-.4-.8-.4-1.2-.3h0Zm1.3,1.6c.7,.7,1,1.7,1,2.8l-.2,.8-.2,.5c0,.3-.2,.5-.4,.7q-.4,.3-.7,.1l-.1-2.6v-2.8c0-.3,.1-.1,.6,.5ZM1.8,23.9v.5c-.8-.6-1.1-.7-1.1-.6s.1,.2,.3,.5c.2,.4,.3,.8,.3,1.1,.2,.9,.4,1.9,.6,2.8h0c-.2,.2-.9-.4-1-.5v.5c.3,.6,.6,1.1,.9,1.7H.1c.9,.2,1.8,.5,2.6,.7,.3,.1,.5,.2,.8,.4,1.4,1.6,2.2,3,2.7,4,.2,.5,.5,1.2,1.3,2.9,.4,.8,.7,1.4,.9,1.8,.7,1.2,1.5,1.8,2.1,1.6,.1,0,.3-.1,.4-.4-.9,.1-1.6-.3-1.9-1-.3-.6-.1-1.1,0-1.2,.1-.5,.3-1.4,.9-2.2,.4-.5,.9-1.2,1.4-1.2,.6,.1,1.1,1,1.3,2.4,.3-.3,.5-.5,.5-.7,.2-.8-.3-1.7-1.4-2.4-.5,.2-1,.4-1.5,.6,.1-.3,.5-1.2,.1-2.3-.2-.4-.4-.7-.6-.9-.2,.2-.2,.6,0,.9,.2,.5,.2,2,0,2.1-.3,.6-.6,1.3-.8,2.1-.2,.6-.2,1.1-.3,1.6-.2-.3-.4-.6-.6-.9-.2-.5-.3-1.3-.3-2.3s0-2.5,.9-3.9c.8-1.3,2-1.9,2.7-2.2,.1-.2,.1-.3,0-.4-.1-.2-.6,0-1.5,.4,0-.5,0-1-.1-1.2-.4-.5-.7-.8-.5-1.2,.2-.5,.8-.7,.7-.8,0-.1-.4,.1-.7,0-.4-.1-.5-.7-.6-.6-.1,0-.1,.3,.1,1.4-.5-.6-.7-.7-.8-.6-.2,.1,1.4,1.8,1,3.5,0,.1-.1,.2-.1,.4-.5,1.3-1,1.6-1.4,2.4-.5,1.2-.2,2-.5,2.1-.4,.1-1-1.4-1.5-2.3-.1-.3-.2-.4-.3-.6-.7-2.1,.2-4.1-.4-4.3h-.1c-.2,.2-.4,.3-.5,.4-.3,.2-.4,.2-.4,.4s.1,.3,.2,.4l.4,.5v2l-.7-.5-.6-.5c-.2-.2-.6-.7-.7-1.4-.1-1,.4-1.7,.5-1.8,.4-.3,.7-.6,1.1-.8,.1-.6,.1-1,.2-1.4l-.4,.6c-.2,.2-.3,.5-.5,.5-.2-.1-.1-1-.2-1,0,0,0,.6-.3,1.2-.1,.2-.3,.6-.5,.6s-.4-.5-.4-1c0-.7,.6-1.2,.8-1.3-.3-.2-.5-.4-.8-.6Zm35.1,2.7c-.1,.2-.2,1.2,0,1.3l.1,.8c.3,2.5,.4,4.7,.4,5.7v1.2h.3l.7-.1c.7-.3,1.2-.5,1.7-.5,.9,0,1.3-.4,.8-.7-.2-.2-1.2-.1-1.8,.1l-.7,.2h-.3v-1.9c.1-1.9,0-3.9-.4-5.8v-.6h-.4c0,.2-.4,.3-.4,.3Zm-11.2,.5c-.6,.1-.8,.3-.6,.6l.7,.2h.4v7.8c-.1,.6,.1,.9,.6,.7,.2-.2,.3-1.7,.4-5.3v-3.3h1.8l-.1,.7-.5,5.5c0,2.1,0,2.3,.4,2.3,.3,0,.5-.7,.4-1.3v-1.2c.3-2.1,.4-4.3,.3-6.4-.2-.1-.3-.2-.4,0l-.5-.1c-.2-.2-.4-.3-1.3-.3,.1,0-1.6,.1-1.6,.1Zm9.8,.2l-.1,.2-.4,.8c-.2,.4-.3,.7-.4,1.1l-.4,1.1c-.2,1.2-.5,2.3-.9,3.4-.3,1.1-.3,1.3-.2,1.4,.3,.3,.6,0,.7-.5l.4-1.3c0-.5,.2-.9,.3-1.1,0-.4,.6-.9,1-.8h.3v1.4c0,2,0,2.6,.2,2.8,.2,.1,.2,0,.4-.1,.2-.2,.2-.4,.2-1.4,0-1.6-.1-3.3-.3-4.9,0-2.1-.1-2.3-.8-2.1Zm.2,2.6q0,1.1-.2,1.2l-.6,.1c-.3,.1-.3,.2,.1-1.2,.5-1.7,.7-1.8,.7-.1Zm-12.4-2.3l-.5,.4c-.1,.2-.2,.3-.5,.2-.2,0-.6,0-1-.2l-.8-.1c-.1,0-.3,0-.4,.2-.1,.3-.2,.4-.1,1.9v1.6l-.3,.2c-.4,.3-.3,.5,0,.6h.4v2c0,2.1,0,2.5,.5,2.5l.5-.4,.9-.6c.6-.3,.7-.5,.4-.7h-.7l-.7,.1v-1.6q0-1.7,.7-1.7c.6,0,.8-.2,.7-.6-.1-.2-.2-.3-.5-.3-.1,0-.3,0-.4,.2h-.3q-.2,0-.3-.7v-1.6h.8l1,.1,.2,.3,.5,.6,.5,.7,.1,.3,.5,.9c.2,.4,.2,.7,.1,1.5,0,1.5-.4,2-.8,1.2-.3-.3-.6-.5-.8-.4v.6c0,.7,.4,1,1,1.2,.4,0,.7-.2,1-.8s.3-.7,.3-1.9c0-1.9-.3-2.4-1.4-3.7-.4-.5-.6-.7-.6-.9,0-.4,.4-.7,.8-.5,.6,.2,.9-.2,.4-.7-.3-.2-.8-.2-1.2,.1h0Zm10.1,.1l-.2,.5-.1,.2c-.2,.2-.7,1.5-.8,2.3-.1,.6-.2,1.2-.4,1.8,0,.3-.2,.5-.3,.3l-.1-1.6c-.1-1.3-.4-2.7-.7-3.3-.1-.3-.5-.3-.6,0,0,.2,0,.9,.4,1.9l.3,1.9c0,.7,.2,1.5,.3,1.7v2.6h.3c.5,.2,.7-.1,.7-.7l.4-1.8,.3-1.6c0-.7,.9-3.4,1.2-3.8,.2-.3,0-.7-.3-.7-.2,0-.3,0-.4,.3Zm8.5-19.3v0Zm-2.7-.3c-.2,.2-.2,.8,0,.9,.1,0,.2,.2,0,.7v.6c.1,.2,.3,.1,.3-.2,0-.2,0-.4,.2-.4,.3-.2,.3-.9,0-.9l-.3-.4c0-.4-.1-.4-.2-.3Zm3.8,.1v2c.3,.4,.4,.2,.3-.7,0-1.2-.2-1.5-.3-1.3Zm5.6,.7l-.6,.7c0,.2-.1,.3-.2,.3v.1c0,.3,0,.2,.5-.3l.5-.5,.6-.9c0-.1-.3,0-.8,.6h0Zm.7,.3c-.3,.3-.5,.6-.8,.9l.4-.1,.8-.7c.6-.7,.8-.9,.6-.9l-1,.8Zm-8.7-.6l-.2,.7-.2,.8c-.2,0-.2,.3-.1,.6v.6c.2,0,.4-.1,.4-.4v-.5c.2-.1,.2-2,.1-1.8h0Zm-2.2,.2v.4q0,.2,.1,0c0-.2,0-.6-.1-.4Zm9.4,.2l-.2,.2c-.1,0-.2,.3-.1,.4l.3-.4,.1-.4s-.1,.2-.1,.2Zm-1,.1c0,.3,0,.5,.2,.3v-.3q-.1-.1-.2,0Zm-9.2,.2l.2,.3,.2,.3v.2c.3,.2,.3,0,0-.5-.2-.5-.4-.6-.4-.3h0Zm4.8,0v.8c.3,0,.3-.3,.2-.7q-.1-.3-.2-.1h0Zm1.6,.1v.8c.2,.2,.3-.5,.2-.8q-.1-.2-.2,0Zm.7,.1v0h0Zm.6,0v.5q0,.2,.2,0c.2-.2,.2-.7,0-.7l-.2,.2h0Zm.8-.2l.1,.3,.1-.2c0-.2,0-.3-.2-.1h0Zm-7.6,.5c0,.2,.1,.3,.2,.3v-.7c-.2,0-.2,.1-.2,.4Zm8.6,0l.1,.3,.2-.2c0-.3-.2-.3-.3-.1h0Zm2.4,.2l-.4,.2-.3,.3c-.2,.1-.3,.2-.2,.3l.3-.1,.2-.2,.2-.1,.1-.2,.4-.3q.2-.2,0-.2l-.3,.3h0Zm-12.2,0c0,.2,0,.3,.2,.4l.1,.2,.2,.2,.1,.2,.2,.3,.2,.4c0,.1,.1,.2,.2,0,.1,0,.1-.1,0-.2-.1-.1-.2-.2-.2-.4l-.1-.2s-.2-.1-.2-.3-.2-.3-.3-.3l-.1-.2c0-.3-.3-.3-.3-.1h0Zm-.4,.6l.3,.3,.1,.3c0,.1,0,.2,.2,.2s.2,0-.1-.5c-.2-.4-.4-.5-.5-.3h0Zm2.7,.3l.1,.4c.1,0,.2-.3,.1-.6,0-.3-.2-.2-.2,.2Zm9.5,0s0,.2,.2,.1v-.3l-.2,.2h0Zm-12.4,.3c0,.1,0,.4,.2,.4s.1-.4,0-.5l-.2,.1h0Zm12.4,.4l.2,.1c.3,0,.3-.3,0-.3,0,0-.2,0-.2,.2Zm-11.5,0l.1,.3,.2-.1-.1-.3-.2,.1Zm-1.3,.3l.1,.2,.2-.2h-.3Zm12.4-.1c0,.3,.3,.3,.3,.1,0,0,0-.2-.3-.1-.1-.1,0,0,0,0h0Zm-15.1,1.9c.1,.2,.2,.2,.3,0s0,0-.3,0q-.1,0,0,0Zm.5,.3l-.4,.2c-.4,0-.4,.2,0,.3l.4-.1,.4-.2c.4,0,.4-.2,0-.3l-.4,.1Zm.7,.4l-.4,.1c-.2,0-.3,.1-.3,.2l-.5,.1c-.5,0-.5,.2,0,.3h.6c0-.2,.2-.3,.3-.3l.2-.1,.3-.2h.3q0-.2-.2-.2s-.3,.1-.3,.1Zm-.3,.8l.3,.1,.3-.1-.3-.1-.3,.1h0Zm-2,1.5q-.2,.1,0,0l1.2,.1c-.3-.2-1-.2-1.2-.1h0Zm1.6,.3c0,.2,.2,.3,.6,.3,.5,0,.3-.3-.1-.3h-.5Zm-1,.3h-.4l.5,.2,1,.2h.2l-.6-.3s-.7-.1-.7-.1Zm2.2,.2c.3,.2,.5,.3,.5,.1,0-.1-.3-.3-.5-.3h-.4l.4,.2h0Zm-.5,.5l.2,.1,.2-.1c0-.1,0-.2-.2-.2l-.2,.2Zm-.8,.3h.5c0-.2-.2-.2-.5,0Zm1.6,.1l.2,.2,.2-.1c-.1-.2-.5-.3-.4-.1h0Zm8.4-4.1v.2s.3,0,.3-.2-.2-.1-.3,0Zm-2.8,.2c-.1,.1,0,.2,0,.2h.2c0-.2-.1-.3-.2-.2Zm1.2,.1q0,.4-.4,.5h-.3c0-.3-.1-.3-.4,0q-.3,.2-.1,.3c.2,0,.2,.3-.1,.3h-.4c0-.2-.7-.2-.7-.1s.8,.5,1,.5l.3,.1c0,.1,0,.2-.4,.2h-.6s-.2,.2-.5,.1c-.5,0-.6,.2-.1,.3q.2,0,.1,.2c-.1,.1-.1,.4,0,.4l.2-.2c0-.3,.4-.3,.4,0s.3,.3,.7-.1c.4-.3,.7-.4,1-.3,.2,.2,.7,.3,1,0h.2c.2,0,.3-.5,.1-.6l-.3-.2c-.4-.1,0-.7,.5-.7l.3-.1-.1-.1-.2-.1c0-.2-.2-.2-.4,.1-.3,.4-.8,.4-.8,0l.1-.2,.1-.2v-.3c-.1,0-.2,.1-.2,.2h0Zm1.3,0c-.1,.1,0,.2,0,0q.2,0,0,0h0Zm.5,.3q-.2,0,0,0h.3c0-.2-.1-.2-.3,0Z"/></svg>