<svg id="Lag_1" xmlns="http://www.w3.org/2000/svg" viewBox="0 0 55 50">
  <defs>
    <style>
      .cls-1{fill:#ff6445}.cls-2{fill:#2f6457}
    </style>
  </defs>
  <path class="cls-1" d="M29 18v2l2 2h2c2 0 2 2 4 3h4l4-2c2 0 1-1 3-2l3-3c3-4 3-9 3-11V6l-3 3v1l-1 3v1l-2 2-2 1-2 1-2 2-2 1h-1l-2-1-2-1h-4"/>
  <path class="cls-1" d="m27 14 2-2 2-4 4-4 3-3h7l2 1 1 1h4l2 1v2l-2 2h-5l-4-1h-2l-3 1-2 3-2 2-2 1-1 2 1 2 1 1h-2c-2 0-5-3-4-5Z"/>
  <path class="cls-2" d="M12 39h-1m0 3h-1l-1-1-3-2-2-4v-2 1c-1 1-2-1-2-1l2 2H1h1l2 1v1H2l1 1h1l2 2-2-1H3v1h2l3 1 3 3-1-1-1-1H8l1 1-1-1v1h2v1H6h6l2 1 6 2h7c5 0 9-2 9-2 8-3 13-10 13-15v-4l-1-3 2-3 2-3-5 5-4 2-3 1-2-1h-1l-1-1h-1 2l3 1h1l2-1 1-1 3-3 3-1 1-1 1-1 1-1-1-1-1 2v1l-4 1-2 2c-1 1-2 3-4 3h-3l-3-1h-2l-2-1-2-2h3l2 1 3 1c2 0 3 0 4-2l3-1 4-2 1-1 2-3v-2l1-2 1-1 1-1 1-1V4l-3-1h-1l-3-1h-1l-2-1-3-1h-3l-2 1-2 1-4 4-1 3-1 2-2 2-1 2 1 2 1 3 2 2 2 1h2l1 1 3 1h6l1-1 1-1h1v1l1 3v3c0 3-4 11-13 14-5 3-10 2-13 2l-10-4v-3l1-1h3-1l1-1h-1l-1 1-1-2v-2l1-1v-1l-1 2v4l-1 1-1 1v2Zm34-27v1l-1 1h-1v1h-1l-2 1-1-1v-2l1-1 1-1h4v1c1 0 1 0 0 0Zm3 0-1 1h-1v-2h-1l-1-1h-2l-2 1-1 1-1 2v1h1l1 1h1-1l-1 1-2-2v-5h3l3-1 4-1 1 1v3Zm3-6v1h-1v4h-1l-1 1v-1h1v-1l-1-1-1-1h-4l-1 1h-2l-1-1v-1l-1 1h1v1h-1v1h-3 1v2l-1 1h-3 4v1l1 1v2h1l1 1h-2l-1-1h-1v-1h-1l-1-1h-1v-3h1v-2h2v1h1l-1-1v-1l1-1 1-1V9h1V8h1l1-1v1h1V7v1l1 2V7l1 1v1-1h2v1-1h1v1l1-1v1h1V8h3v1Zm-23 6 1-2 1-2 1-1 1-3h1l1-1V5h1l1-2h1V2h1l1-1h5l1 1 3 1h3l3 1v1l-2 2-1 1V7h-2l-2 1-3-1h-6l-2 3-3 2-2 3v2l1 1 1 1h-1c-2 0-2-1-3-2l-1-2Z"/>
  <path class="cls-2" d="M2 24H1v1l1 3H1l1 2H0l3 1 3 4 1 3 1 2 2 1h1l-2-1v-1l1-3 1-1 2 3v-1l-1-2h-2v-3 3l-1 2v2l-1-1v-3l1-3c0-2 2-2 2-3h-1v-1l-1-1 1-1H9s0-1 0 0v1l-1-1 1 4-2 3v2l-2-3v-4H4v3l-1-1-1-1 1-2 1-1v-1l-1 1v-1 1l-1 1v-1l1-2H2ZM39 8v2h1V8h-1Zm4 0v2-2Zm-2 1-1 1v1h1V9Zm7 0v1-1Zm-4 0v1-1Zm1 0v1h1V9h-1Zm5 1h-1v1-1h1Zm-13 0h1v2h1v-1h-1v-1h-1Zm-2 4h-1v1c-1 0-1 0 0 0h1v-1Zm-1 3h1-1Zm-1 0 1 1v-1h-1Zm10-2h-2v1h-1 1-1v1h3l1-1h-1l1-1h-1v-1 1Z"/>
</svg>
