<svg id="Lag_1" xmlns="http://www.w3.org/2000/svg" viewBox="0 0 90 80"><defs><style>.cls-1{fill:#fff}.cls-2{fill:#ffb486}.cls-3{fill:#ff6445}.cls-4{fill:#2f6457}</style></defs><path class="cls-3" d="M46.4 31c0 .5.2 1.3.6 2.2.3.5.6 1.1 1.4 1.5.9.6 1.5 0 2.5.2 1.9.3 1.9 2 4 3 1.7.9 3.4.6 4.2.4 1.7-.3 2.8-1 4.2-1.9 1.4-.8 1-1 3-2.3l3.2-2.3c.9-1 1.2-2.3 1.3-2.7.3-1.5-.3-1.6 0-3.8l.3-3v-.8c.3-1.8 1.1-2.7.9-3-.3-.1-1.7.8-2.5 2.4-1 1.6-.1 2.3-1 4 0 .2-1 2.3-3 3.1l-2 .7-2 1.3c-1.4 1-2.2 1.5-2.7 2-1 1-1 1.4-1.6 1.6-.7.2-1.4 0-2.5-.4-1.2-.4-1.3-.7-2.2-1h-1.7c-.4 0-1.1 0-2.2-.4"/><path class="cls-3" d="M44.5 26.9c.2-1 1-1 2.1-2.7 1.3-1.8 1-2.4 2-4.3.4-.7.6-.8 4-4.2 2.7-2.7 3-3.1 3.9-3.5a8 8 0 0 1 6.6.5l1.7 1c.2 0 .8.4 1.7.6 1.7.4 2.2 0 4 .4.9.2 1.4.4 1.7.8.6.8.3 2 .2 2.2C72 19 70.8 20 69.8 20l-.6-.2-1.8-.4c-1.2-.1-1.4.4-2.6.6-.8 0-2-.2-4.2-.9-1.3-.4-1.4-.5-1.9-.5-1.4 0-2.4 1-2.9 1.3-.9.8-.7 1.1-2.1 2.8-.8 1-1.3 1.6-2 2.2-1 .9-1.6.9-2.1 1.7-.5.9-.5 1.7-.5 2 0 1.2.7 2 .9 2.2l1 1.1c-.1.3-1.3.4-2.4 0-2.2-.6-4.4-3-4-5Z"/><path class="cls-2" d="M11.7 13.5c-.1.1-.2-.1-.3-.7-.2-.6-.3-.7-.6-.9-.3 0-.3.1 0 .6l.3.6c0 .2-.3 0-.3 0 0-.2-.2-.2-.3-.2-.4 0-.3.2.1.4.3 0 .5.3.6.3l.2.6a.6.6 0 0 1 .5 0v-.4l-.2-.3Z"/><path class="cls-4" d="M12.9 10.3c-.9 1-1.1 1.5-1.1 2.4v.7c0 .1 0 .2.2.3 0-.3.3-.5.7-1 .6-.6.7-.6.8-1.4.2-1.7.2-1.8-.7-1Z"/><path class="cls-2" d="m8.6 16 .3.1h.2l.5-.1h.5v-.5l-1.7.1.1.4h.1Z"/><path class="cls-4" d="M49.5 63.6c-.5-.5-.7-.6-1.3-.8a6 6 0 0 1-1-.3l-.5-.2h-.1c0 .3-.2.5-.5.5h-.3c.2 1 .3 1.2.7 1.5.3.3.4.3 1.7.3h1.5c.3 0 .3 0 .3-.2s0-.4-.5-.8Z"/><path class="cls-2" d="M47.5 60.2h.2v-.8l-.2.6v.2ZM45.8 62.1h-.6l.8.4v-.2l-.2-.2ZM82.1 52.1l.8-.4.3-.7.3-.5c0-.3-.3-.2-.5.1l-.3.5-.1.2-.6.7v.1Z"/><path class="cls-4" d="M85.9 54.2c-.2-.6-.5-.9-1.3-1.2-.4 0-.7-.2-1-.3h-.1l-.6.2-.2.1.2.9c0 .5.3.8 1.1 1 .5 0 .8.2 1 .5l.5.5c0 .2.4.3.6.2 0-.1 0-1-.2-1.9ZM47.5 54c0 .1 0 .3.2.5.2.5.1 1-.6 2a2 2 0 0 0-.3.8c0 .2.7 1.7 1 2 .1.1.1.1.2 0l.1-.5.4-.8c.3-.5.3-.6.3-1.4-.1-1.4-.3-2-.7-2.4-.3-.3-.6-.4-.6-.2ZM53 54.3c-.2 0-.4 0-.7.3-.7.8-.8.8-.9.8-.2 0-1.4 1-1.5 1.2a4 4 0 0 0 0 2v.5l-.2.2.1.1 1.3-.9c.7-.3 1-.9 1.2-1.6l.2-.7.5-1.5v-.4ZM7.5 8l.2.4c.1.3.2.5.2 1.3 0 .9 0 1 .3 1.2l1.6.7.4.2h.2s-.3-1.2-.5-1.4V10c0-.3-2-2.3-2.2-2.3l-.2.1ZM11 8.3c-.5 1.4-.6 1.7-.3 2.1l.4.6c.2 0 .3 0 .4-.3.3-.6.3-1.3.1-2-.1-.9-.4-1-.6-.4ZM6.8 11.8l-.1.2c0 .1.4.5.6.5l.3.2c.3.4 1 .8 1.3.8.3 0 .9-.4 1-.6 0-.2-.4-.7-1-1-.2-.1-1.7-.2-2 0ZM5.9 13.8l.3.9.1.5c.1.2.7.4 1.4.4.5 0 .5 0 .5-.3 0-.4-.4-1.1-.6-1.1l-1.2-.6-.4-.2-.3-.1.2.5ZM6.2 16.2c-.6.3-.1 1 .7 1 .3 0 .5-.2.8-.5.5-.4.4-.5-.5-.6h-1ZM0 18.4c0 .2.2.4.3.5.2.2.2.6.3 1.3 0 .9.4 1.7.9 2s1.5.3 2.3 0c.8-.2 1.1-.1 1.3.4.3.7.4.7.6.8.5 0 .2-.7-.4-1.3a2 2 0 0 1-.4-1c-.2-.8-.3-1-1-1.7-.5-.5-.6-.6-1-.6-.5 0-1.6-.3-2-.6L.1 18c-.2 0-.2 0-.1.4Zm2.7 2.2c0 .2-.3.1-.3 0s0-.2.1-.1l.2.1ZM3.2 24.3l-1 .8-1 .8c-.7.3-.5.8.2.8.3 0 .6 0 .8.2l1 .1c.6 0 .6 0 1.3-.7l1-1 .4-.1-.3-.2-.6-.3c-.3-.3-1-.6-1.3-.5l-.5.1ZM89.4 30.8l-.8.2-.8.2-.3.1c-.6 0-1.7.7-2.2 1.7-.2.4-.2 1.4 0 2 .2.3.2.3.8.2l.7-.1.3-.2a2 2 0 0 0 1.3-1.2c.2-.7.8-1.8 1.1-2.2.4-.4.6-.7.5-.8h-.6Z"/><path class="cls-2" d="M85 36c-.3.6-.3 1 0 1 .2 0 .5-.6.5-1.2s-.2-.6-.5.1Z"/><path class="cls-4" d="M87.4 44a2 2 0 0 1-.6.4l-1.5.7c-1.2.5-2 1.6-2.1 2.7-.1 1 .2 2.5.5 2.4l.9-.3c1.3-.5 1.7-.8 2-1.3.3-.5.6-1.4.8-2.5l.2-.5.2-.4.3-.7c.6-.8.2-1-.7-.4Zm-1.7 3.1c0 .5-.4 1-.8 1s-.2-.7.1-1c.5-.5.7-.5.7 0ZM89.1 50l-1.8.1c-1 0-1.3 0-1.7.3-.5.2-1.2.7-1.2.9l1 .5.5.1.5.3.3.1c.1.2.8.2 1.2 0l.4-.4.8-.8c.6-.5 1-1 .9-1.2l-.2-.1-.7.2Z"/><path class="cls-1" d="m83 34.5-.2-1.6c-.1-.7-.3-1.4-.6-2a5 5 0 0 1-.2-.8 12.7 12.7 0 0 0-1-4c0-.2-.3-1.2-.6-1.7a18.2 18.2 0 0 1-1.9-3.7l-.6-1.4a138.7 138.7 0 0 0-9.4-10.6l-1-.7c-.3 0-1.4-.5-1.8-.9A7 7 0 0 0 64 5.8l-.2-.1a2 2 0 0 1-.4-.2c-.2-.2-1.1-.5-1.3-.5l-.2-.1a10.5 10.5 0 0 0-2.4-1.2l-1.3-.5-.9-.3-.7-.3-.8-.3-.6-.2-.3-.2-.1-.1-.5-.2-1.5-.6-.2-.1-.6-.2-.6-.1a62.4 62.4 0 0 0-15.5 0l-1 .2a11.1 11.1 0 0 0-3.6.8l-.6.1c-.7.1-2 .7-4.9 2.1a33 33 0 0 0-11.2 9c-.7.7-2 2-2.5 2.3 0 .2-.2.2-.4.2v.4c0 .2-.3.2-.5 0l-.1.5c0 .2 0 .4-.4.7l-.8 1.3-.5.8-.1.2-.1.3-.3.4-.1.3-.6 1.2-.4 1a5 5 0 0 0-.6 1.6l-.4.7c-.1.3-.3.5-.4.5-.2 0-.2.1-.1.3.1.2 0 .3-.6 1.7l-.3 1-.1.4-.4 1.2-.4.8-.4 2.3-.2.9-.1.4-.2 1.2c-.3.8-.3 1-.2 2.4a114.4 114.4 0 0 1 .3 5.6A75.5 75.5 0 0 0 7.3 56l.5 1 .5 1 .5.9.9 1.7a30 30 0 0 0 6.2 8l1.7 1.4 1.7 1.1.7.6 1 .6a28 28 0 0 1 4.6 3l1 .4c.4.3 1 .5 1.3.6l.9.3a7 7 0 0 0 2 .7l.3.1.5.2 1.2.3 1 .3c.2 0 .6 0 .9.2 1 .4 2 .6 4.2.9l2 .3a15 15 0 0 0 6.3 0l1.8-.3 2.1-.4c.7 0 1.4-.2 1.7-.3h.6l.5-.2 1.2-.3a16.7 16.7 0 0 0 2.9-.8l.9-.5a25.3 25.3 0 0 1 6.3-3.5 17.5 17.5 0 0 0 3.4-2.2 23 23 0 0 0 5.2-4.7 40 40 0 0 0 2-3 18.7 18.7 0 0 1 1.2-1.9l.5-.6a6.2 6.2 0 0 0 1.2-2.3v-.3l.2-.5.6-1.2.5-1.1v-.3l.4-1 .5-.9.2-.2.1-.7V52.2c.3 0 .8-1.6.9-2.6a34 34 0 0 1 .9-5l.2-1.2a38.4 38.4 0 0 0-.2-9Zm0 3.6c-.2.1-.6.2-3 .2h-3c.1-.2.5-.2 1.5-.3l1.7-.2a3 3 0 0 1 1-.1c.4 0 .8 0 1-.2.6-.2.6-.2.7.1v.5Zm-.2-1.8.1.5c0 .2 0 .2-1.2.4l-1.6.2-.8.1a4 4 0 0 1-1.3.2c-.5 0-1.3 0-1.9.2a17.7 17.7 0 0 1-2.7.2l-.5.1h.5l1.6.2h1.3c.2.2-.4.3-1.6.3H73c-.2 0-.2 0-.2-.3V38l.6-.2 1-.2.8-.1c.4 0 1 0 1.4-.2l1.2-.1.7-.2 1-.2c1.1 0 2.6-.3 2.7-.4.2-.2.6-.1.6 0Zm-.2-1c0 .3 0 .4-.5.5a9 9 0 0 1-1.2.3c-1.6.1-2.5.3-2.9.5l-1 .1c-.3 0-.7 0-.9.2l-.8.1-1.5.2c-1.1.2-1.3.2-1.1-.2 0-.3.1-.3.7-.3.3 0 .8 0 1.1-.2l1.1-.1c.3 0 .8 0 1.2-.2l1-.1.9-.2.8-.1 2.2-.5c.6-.3 1-.2 1 .1Zm-10 .7 1.6.1c.1.1-.2.3-.9.3s-.9-.1-.7-.3Zm9.7-2.3c0 .3 0 .3-.5.4-.5.1-.4.3.3.3.9 0 0 .5-1.2.7l-1 .2H79a2 2 0 0 0-.8.2l-.7.2c-.3 0-.7 0-1 .2-.6.2-2 .2-2 0 0 0 .3-.2.8-.2l.8-.2 1-.2c.4 0 .9 0 1-.2h1c.5 0 .8-.1.8-.2l.6-.2.6-.2c.1-.2-1.1-.2-1.4 0l-.9.2-1 .1a2 2 0 0 1-.7.2c-.3 0-.7 0-.8.2l-1.1.1c-.5 0-.8 0-1 .2 0 0-.4.2-1 .2s-.7 0-.8-.2c0-.1.2-.2.8-.2l1.1-.2.8-.1c.3 0 .7 0 .8-.2l.8-.1.7-.2.8-.1 1.1-.2a23.2 23.2 0 0 1 2.3-.7c.4-.2.7-.1.7.2ZM82 32v1l-.7.2-.8.2-.4.1c0 .1-.3.2-2 .5a11 11 0 0 0-2.6.6l-.7.1-1 .2c-1 .3-2 .1-1.6-.4l.5-.1a12.4 12.4 0 0 0 3.1-.7 20.3 20.3 0 0 0 3.6-1 12.5 12.5 0 0 0 2.1-.6l.2-.1c0-.2.2-.2.3 0Zm-.7-2.2c.2.1.2.2 0 .4a1 1 0 0 1-.7.2c-.1 0-.3 0-.4.2l-1.3.5a1 1 0 0 0-.4.2c-.2.1-.8.1-.8 0l.4-.2c.1 0 .3 0 .4-.2l.3-.1.4-.2.3-.2.5-.1.5-.2.4-.3h.4Zm-.1-.5-.2.1-.2.2-.4.2-.4.1-.4.2a1 1 0 0 0-.5.1l-.4.2c-.1 0-.3 0-.4.2l-.3.1-.6.2-.5.3h-.2c0 .1-.1.2-.3.2l-.6.1-.6.3c-.5 0-.4.2.3.2l.6-.1.3-.2.3-.1c0-.2.2-.2.5-.2.4 0 .5.2 0 .3l-.4.2-.4.2c-.4 0-.4.2 0 .3.3 0 .6 0 1.4-.5l.6-.2h.3l.9-.4a4 4 0 0 0 1-.4l.3-.1s.2 0 .2-.2c.1-.2.5 0 .6.2 0 .5 0 .8-.5.9l-1 .3a19 19 0 0 1-2 .6l-.5.1-.4.1a3 3 0 0 1-.7.3l-1.1.2-1.2.3-.9.2c-1.2.4-1.6.3-1.5-.2 0-.2 0-.3.6-.3l.7-.1.7-.1.8-.2.6-.2c.4 0 .8-.1.6-.2l-2.1-.4c-.5 0-.6-.3-.1-.3l.6-.2 1-.4 1-.3a7 7 0 0 1 1.2-.5c.4 0 1-.3 1.5-.5l1.4-.6c.4-.2.8-.2.8 0ZM71.7 33c-.1-.2 0-.4.3-.4.2 0 .5 0 .6-.2l1-.1h1c0 .2-.2.3-.7.3-.4 0-.7.1-.7.2-.2.2-1.4.3-1.5.1Zm8.4-8c.1.3 0 .7-.2.7l-2.5 1.3-1.3.6-.8.4-.9.4-.6.3-.6.3s-.2 0-.3.2l-.3.1c-.1 0-.3 0-.3.2l-.3.2-.2.1c0 .2.4.2.6 0l.4-.1c.2 0 .3-.1.3-.2l.5-.2.7-.3.5-.3.4-.2 1-.5 1-.5.7-.4 1.5-.7c1-.5 1.2-.5 1 0 0 .2 0 .3-.2.3l-1.3.5-4.6 2.2-.3.1-.6.3-.7.4-.5.1-.3.2-.3.1-.3.2c0 .2.3.2.7 0a26 26 0 0 1 2.3-1l.2-.1.3-.1.6-.3c.6-.2 1.5-.6 4-1.9 1.2-.6 1.4-.6 1.5 0 0 .3 0 .3-.3.3l-.5.1-.4.2-1.8.8-.5.2-.2.1c-.2.2-.8.4-1.3.5a7.4 7.4 0 0 0-2 1h-.3c-.2 0-.3.2-.3.2 0 .2.3.2.5 0l.4-.1.4-.1.5-.3 1.4-.5.3-.1.5-.2.8-.3 2.3-1c.5-.3.6-.3.6.2 0 .2 0 .3-.2.3a23.3 23.3 0 0 1-1.4.5l-.7.3-1 .4-1.8.6-.4.1-.4.2-.5.2-.5.1-.4.2-.4.1-.3.2a1 1 0 0 0-.4.2c-.6.4-1.3.6-1.3.3 0-.2.3-.5.5-.5s.3-.1.3-.2c.1-.2-.5-.2-.5 0-.1.2-.6.3-.7 0v-.2c.2 0 .1-.2 0-.2-.3-.2-.1-.5.3-.7.3-.2.3-.2.1-.3-.4-.2 0-.8.8-1l.3-.2 1-.6a68.7 68.7 0 0 0 6.5-3.4l.1.2Zm-.4-.8c.1.1 0 .5-.2.5l-2.6 1.3-1.9 1-1.1.6-1 .6-.8.4c-.2.2-.4.3-.5 0-.1-.2.3-.5 1.5-1.1l1.8-.9.7-.4a21.5 21.5 0 0 0 2.2-1.2l.6-.4.7-.4h.6Zm-2-4.3c0 .2-.2.3-.9.7l-.6.4-.8.4-.2.2-.2.1-.2.2-.4.2h-.2c0 .1 0 .2-.2.3l-.8.5-.8.6v.1c0 .1.8-.2.9-.4l.7-.4.2-.2 1-.6.6-.4.3-.2.6-.3.5-.4.3-.2h.5c0 .1-.2.6-.4.6l-.3.1-.3.2s-.2 0-.2.2l-.3.1-.3.1-.3.3-.5.3-.8.4-.8.6-.6.4-.2.1-.2.2c-.2 0-.3.3 0 .3l.8-.6.3-.1.3-.1c0-.2.3-.4.7-.6l.6-.3.5-.3.3-.2.3-.2h.2c0-.1.1-.2.3-.2l.3-.2.1-.2.4-.2.4-.1v.3l-.4.3c-.1 0-.3 0-.4.2l-.3.1-.2.2-.3.1-.3.2-.2.2h-.3l-.3.3-.8.5-.2.2h-.3c-.2.3-.5.5-.8.6-.2 0-.3.2-.3.2l-.2.2c-.1 0-.2 0-.2.2h.5c.1-.2.2-.2.3-.2l.2-.2.8-.5.5-.3.6-.4.6-.3.6-.4.2-.2h.2l.3-.2.3-.2.2-.1c.1-.2.4-.3.5-.1 0 .1 0 .5-.3.6l-.9.5-.5.3-.8.5c-.2 0-.4.2-.5.3l-.3.1-.4.2c-.2 0-.3.2-.3.2l-.2.2c-.3 0-.4.3-.2.3l.3.1h-1l-.3.2-.3.2c0 .2.4.2.5 0 0-.2.6-.2.6 0l-.2.1c-.2 0-.3.2-.3.3l-.3.1-.3.1-.3.3c-.1 0-.1 0 0 .2h.3l.6-.5a12.3 12.3 0 0 0 1.4-.8l.4-.2 1.1-.6a10 10 0 0 0 1.4-.8c.2 0 .3-.2.3-.2l.1-.1.3-.2c.1-.1.1-.2-.1-.2-.4 0-.4-.2 0-.4l.2.1.1.2c.2 0 .6.5.6.6l-.5.3-1 .6-.5.3-.5.2a36.6 36.6 0 0 1-3.2 1.9l-1 .6c-.6.4-.9.5-1 .3 0-.1 0-.3.3-.6q.4-.3.2-.4c-.3 0-.4-.3-.1-.4V26c-.2-.2-.2-.2 0-.3v-.3c-.2-.2-.1-.6.2-.7.3-.2.3-.4 0-.3-.3.1-.4-.2-.1-.4v-.3c-.2-.1-.3-.2-.2-.4 0-.3.5-.6.8-.6l.2-.1s0-.2.2-.2l.6-.4.6-.3.2-.2.1-.1.6-.3.5-.4.5-.3.7-.3.2-.3h.5Zm.1 3.4-.2-.1c0-.2 0-.2.3 0 .1 0 .1.1 0 .1Zm-.4.3-.2.1-.3.2c-.1.2-.2.2-.3 0-.1 0-.1 0 0-.1.2 0 .3-.2.4-.3 0-.1.4-.1.4 0Zm-1.3.7c-.2.1-.3 0-.2-.1 0-.2.2-.2.3 0l-.1.2Zm-.4.3-.2.1c-.2 0-.3 0-.1-.2h.3Zm-.5.3-.2.1h-.2c0-.1 0-.2.2-.2l.2.1Zm1.3-6.7c0 .1 0 .2-.2.2s-.1.1-.2.2l-.2.2-.5.3-.4.3-.1.1-.5.4c-.7.4-2.2 1.9-2.1 2 0 .2 0 .2.2 0l1.2-1a59 59 0 0 0 2.6-2c.4-.4.6-.4.9.1.1.3.1.3-.2.5-.1.2-.3.3-.4.3l-.5.3-.5.3-.8.5-.8.5-1 .7-1 .7c-.2 0-.2-.4 0-.5.2 0 .2-.2 0-.3-.7 0-.3-.8.5-1.2l.4-.3.2-.1c.2 0 .1 0 .1-.1l.5-.4.5-.4.1-.1 1-.7c.9-.8 1.2-.9 1.2-.5Zm-1.2-1.5.2.1c0 .2-.3.7-.5.7h-.1l-.6.5-.8.7-.5.4-.2.3c-.2.2-.2.2 0 .2h.1l1.1-1 1.3-1c.3-.3.7-.3.8-.1 0 0-.4.5-1.3 1.1a9.8 9.8 0 0 0-1.3 1.2 4 4 0 0 0-1 .8l-.4.3h-.2c0 .3-.3.1-.3-.1l.4-.6c.3-.3.4-.4.2-.5-.2 0 0-.5.4-1 .2 0 .4-.3.5-.4l.3-.2.4-.3a9 9 0 0 1 1.5-1.1Zm-18-13.3v.6a24.6 24.6 0 0 0-1 2 5 5 0 0 0-.2.8l-.2.4-.2.4-.1.3-.2.3-.1.5-.2.4c0 .1 0 .3-.2.3l-.1.6c0 .5-.3.4-.3-.1l.1-.5.2-.4.1-.5.2-.3c0-.1 0-.3.2-.5l.1-.5.2-.4.1-.3.2-.5.8-2.2c0-.5.7-.8.7-.3ZM54 2c.2.2.2.3.1.6 0 .3-.1.5-.2.5l-.1.4-.1.4-.3.8-.4 1.1-.2.5v.3s-.3.4-.4.9l-.4 1-.2.7-.1.4-.2.5c-.1.5-.3 1.3-.5 1.6-.2.5-.2.8 0 .8.1 0 .2-.1.2-.3l.1-.5.2-.5.1-.6.2-.5c0-.2 0-.4.2-.4l.2-.4c0-.4.2-1 .4-1.5l.2-.5.1-.4c.1-.1.4-.7.5-1.3l.2-.5.2-.4v-.4c.1 0 .5-1 .7-1.8 0-.1.4-.2.5 0v.4c-.2 0-.3.3-.3.4l-.3 1-.3.8s0 .2-.2.3l-.1.6-.1.4c-.2.2-.4.8-.6 1.4l-.2.4v.4l-.3.4-.1.3c0 .2 0 .4-.2.5l-.1.6-.2.4-.2.5-.1.5c-.2.2-.2.9 0 .9l.1-.3.2-.5.3-.8.4-1 .1-.5.3-.8.4-1 .1-.3.2-.5.1-.4.2-.4c0-.1 0-.4.2-.5l.1-.4c0-.1 0-.3.2-.5l.6-1.6c.1-.3.2-.5.4-.5.3 0 .4.3.2.5v.3l-.4.8-.3.9s0 .3-.2.4a10.5 10.5 0 0 0-1 2.8l-.8 2-.1.5-.2.4-.1.4-.2.4-.4 1.3c0 .1-.6-.2-.6-.4s-.1-.2-.3 0c-.1 0-.2 0-.3-.2-.1-.1-.2-.2-.4-.1-.3.2-.4-.3-.1-.8l.1-.6.2-.4.1-.4.2-.5.5-1.5.2-.6.1-.5c0-.1 0-.3.2-.4l.3-.9a16.3 16.3 0 0 1 .5-1.6c0-.1 0-.3.2-.5.2-.4.5-1.4.5-1.8 0-.4.2-.5.5-.2Zm-1-.5.1.5-.1.7-.2.5-.1.6c-.3.6-.4 1.1-.5 1.6l-.5 1.4-.5 1.7c0 .1 0 .3-.2.4l-.1.7c0 .2 0 .4-.2.4l-.1.3-.2.6-.2.7v.4c-.1 0-.2 0-.2.2s-.3.4-.4.3c-.1-.2 0-.7.1-.8l.2-.4c0-.2 0-.5.2-.5s.1-.3.2-.5c0-.6.3-1.3.4-1.7L51 8l.1-.5.4-1 .3-1 .1-.7.2-.5.5-2.1c0-.4.3-.7.5-.7Zm-1.5.3c0-.1 0-.3.2-.4.1-.2.5-.1.5 0l-.1.8-.2 1.1c0 .3-.2.6-.3.7v.3l-.3.7a53.9 53.9 0 0 1-1 3.3l-.2 1-.2.7c0 .3 0 .6-.2.6l-.1.5c-.2 1-.4 1.3-.6 1.2v-1.2c.3-.4.6-1.5.6-1.8l.1-.5.2-.6c0-.2 0-.5.2-.6l.1-.4c0-.2 0-.4.5-1.8l.2-.8.1-.6c.2-.4.5-1.8.5-2.2Zm-.4-.7c.2.2.2.2 0 1l-.3 1.2-.3 1.2-.3 1.3-.2.5v.4l-.2.7-.5 2-.2.6-.2.6-.1.5-.2.6-.1.5c-.2 0-.2-.8 0-1l.1-.9.1-.6.2-1 .2-1 .3-1 .3-1.1.2-1 .2-.8c.2-.7.5-1.8.5-2.4 0-.6.2-.7.6-.3Zm-1.5.2.1-.5h.6l-.1.8-.3 1.3-.2.8-.3 1-.3 1.5-.2 1-.1.5c-.1 0-.2.3-.2.7 0 .9-.3 2.1-.5 2.5l-.1.8c0 .3 0 .5-.2.5-.5.1-.5 0-.4-.8a32.6 32.6 0 0 0 .9-3.3l.2-1.2.2-1.2.2-1 .2-.9.2-.6.1-.9.2-1Zm-1 .4c0-.9 0-1 .4-1 .2 0 .2 0 .2.4l-.1.7-.2 1-.2 1-.3 1.3a38.8 38.8 0 0 1-1.3 6c-.2 1.2-.2 1.2-.4 1.1-.1 0-.2-.2-.1-.8l.2-1.2.2-.7.1-.7.5-2.4a37.7 37.7 0 0 1 1-4.7Zm-.6-1h.2c.1.2.2.4 0 .9 0 .3 0 .7-.2.7V3l-.2.7-.2.8a18 18 0 0 1-.4 2.1L47 7.6l-.2 1.1c-.3.7-.5 1.8-.5 2.5 0 .5 0 .6-.2.8-.2 0-.3.1-.4 0l.1-1.2.2-.7.1-.7.5-2.2c0-.5.2-1 .3-1.2v-.7l.2-.6.2-.5.1-.7.2-1L48 .7Zm-1.2 1.4.2-1 .1-.4c.3-.1.4 0 .5.1v.4l-.3 1-.2.9-.1.7-.2 1-.5 2.3-.1.6-.2.7-.1.8-.2.8c-.3 1.8-.4 2.1-.5 2.1-.2 0-.2-.1-.2-.8l.2-1 .2-.7.5-2.4.1-.7c0-.3 0-.7.2-1l.5-2.5.1-1Zm-1-1.4c.1-.2.7-.2.8 0v.6a29.3 29.3 0 0 0-.8 3.9l-.2 1a20.3 20.3 0 0 1-.6 3l-.2.7-.1 1c-.1.8-.3 1.3-.5 1.3s-.2-1 0-2a47.7 47.7 0 0 0 1-6c.2-.4.4-1.6.5-2.6l.1-1Zm-1.5 0c.1-.2 1-.2 1 0l-.1.9-.3 1.5-.3 1.7a53 53 0 0 0-.9 6.2c0 .7 0 .9-.2 1-.1.2-.3.3-.3.2-.2 0-.2-1.9 0-2.6a35 35 0 0 0 .4-3.1 43.8 43.8 0 0 0 .6-5.8Zm-1.5 2.6c.1-2.6.2-3 .7-2.8.2 0 .2.1.2.8l-.2 1.4a66.2 66.2 0 0 0-.8 8l-.2 1.5h-.2c-.3 0-.3-.8 0-1.5l.1-1.5.2-3 .2-3ZM41.6.5c.1-.1.6-.1.8 0V3l-.2 1.7a56.8 56.8 0 0 0-.3 5.3l-.1 1.3c0 .8-.1 1-.5 1-.2 0-.3-.2-.2-1A351.7 351.7 0 0 0 41.6.6Zm-1.6 11A881.4 881.4 0 0 0 40.2.6c0-.2.6-.3.8-.1V1c0 .3-.2 1.8-.2 4.4-.1 5-.2 7-.4 7h-.2c-.2 0-.2-.3-.2-1Zm1 1.4 1.8-.2h5.3c.7.2 1.7.5 2.4.9l1.9.7c.1 0 .4.1.5.3h.1l.2-.6-.2-.4v-.2c0 .3-.3.5-.5.3s-.2-.4 0-1c.2-.1.3-.4.3-.5l.1-.3c.2-.2.4-.8.6-1.4l.2-.5v-.3l.2-.4.2-.4c0-.2 0-.3.2-.4l.1-.4.2-.6.1-.5.2-.4.5-1.5s0-.2.2-.3l.1-.4.2-.3.1-.4c0-.5.4-.8.6-.5v.2c-.2 0-.2.2-.2.4l-.2.4-.2.4-.1.5-.2.5-.1.3-.2.4c0 .1 0 .3-.2.5l-.1.6c0 .1 0 .3-.2.3l-.1.5c0 .3 0 .4-.2.4l-.2.4-.1.6-.2.5-.1.4-.2.5-.1.4-.2.5-.1.3-.2.7c.1.3.3 0 .3-.3s0-.4.2-.4.1-.1.1-.4 0-.4.2-.4l.1.3.1.3.1-.3v-.4s-.2-.1-.1-.3c0-.4.2-.5.2-.2l.1.4c0 .1 0 .1.2 0v-.4l.2-.5.2-.3s0-.3.2-.4l.1-.4.2-.4.1-.3.1-.3c.2 0 .6-1 .6-1.2l.1-.3.2-.3.1-.4 1-2.2c0-.2.2-.2.4 0v.5l-.2.4-.2.4-.2.4-.2.3L57 7l-.2.4-.1.4-.2.3c0 .1 0 .3-.2.4l-.1.4-.2.4-.1.4-.2.3-.2.3-.1.4-.2.5-.1.3c-.2.2-.3.7 0 .7l.1-.4.1-.3c.1 0 .2-.1.2-.3 0-.3.1-.5.2-.5l.2-.3.1-.4c.1 0 .2-.1.2-.3 0 0 0-.3.2-.4l.1-.4s0-.2.2-.3l.1-.4.2-.3.1-.3.2-.4.2-.4.1-.3.2-.4.1-.3.5-1.2c0-.2.5-.8.6-.7v.7c-.2 0-.2.2-.2.3l-.2.4-.2.3-.1.4-.2.4-.1.3-.2.4v.3c-.2 0-.6 1-.6 1.1l-.2.3-.2.3-.1.3-.2.4v.3l-.3.4c0 .3 0 .4.1.3.1 0 .2-.1.2-.3l.2-.3.1-.4.2-.3.2-.2.5-1.1.1-.4s0-.2.2-.3l.1-.2.2-.4.1-.4.2-.4.2-.3.1-.3.4-.7c.2-.6.3-.7.5-.5.1.1.1.3-.5 1.5L58 8.1l-.7 1.3-.3.7-.1.2-.2.3-.1.4c-.1 0-.2 0-.2.3s.3.3.3 0c0-.2.1-.3.3-.5l.5-.8a9.6 9.6 0 0 1 .8-1.6l.3-.6 1-1.8.7-1.3h.3c.2.2 0 .5-.4 1.3a16.7 16.7 0 0 0-.8 1.6L58.2 10l-.4.8-.1.5s0 .2-.2.3l.5-.2.7-1.4a29 29 0 0 0 1.2-2.2l1-2c.2-.7.6-.9.7-.3l-.3.7-.4.7-.1.2-.2.3-.1.4-.7 1.2-.7 1.3a18.9 18.9 0 0 0-.4.9h.4c0-.1 0-.3.2-.5l.4-.6v-.3c.2 0 .3-.4.5-.6a25.7 25.7 0 0 1 1.3-2.4l.6-1c0-.2.1-.2.3-.2.1 0 .2 0 .2.3 0 .2 0 .4-.2.5l-.5.9-.5 1A36 36 0 0 0 60 11h.2l.2-.2.7-1.2.5-.9A33.8 33.8 0 0 0 63.1 6l.2.1c.2.1 0 .3-.4 1.2l-1.2 2.4-.7 1.5.3.1.1-.3.2-.2.1-.3.6-1L63 8l.6-1.3c0-.4.5-.4.6 0L64 7l-.4.6-.6 1.4-.4.8a9 9 0 0 1-.3.7l-.1.6v.2l.1.1.3-.5.7-1.5.5-1.1.3-.8c0-.3.2-.6.4-.6s.3.1.4.3c.2.2.2.3 0 .4l-.2.4-.3.6a27.2 27.2 0 0 0-1.1 2.2c-.2.2-.2.8 0 .8l.3-.6.4-.7.3-.7.5-.8.3-.7c0-.3.1-.4.3-.4.4 0 .5.3.2.7l-.2.3-.3.5a15.4 15.4 0 0 0-1.3 2.6c0 .2.2.2.3-.1l.6-1a24.3 24.3 0 0 0 1.5-2.5l.7.2-.6 1-.7.9-.2.4c-.4.3-1 1.2-1 1.4l-.2.3q0 .1.2 0l.2-.2 1.4-1.9c.8-1 1.4-1.8 1.5-1.7.2 0 .2.4 0 .6l-1.1 1.3-.6.7v.1l-.6.8c-.5.6-.5.7-.3.7s.7-.6 1.2-1.3l.6-.8.8-1 .7-.6.3.3c0 .1-1 1.4-1.7 2.1l-.4.6-.3.4c-.4.4-.6.9-.6 1a22 22 0 0 0 3-3.3c.2-.3.7-.5.7-.2l-.5.6a47.5 47.5 0 0 1-2.2 2.8c0 .2 2-1.7 2.5-2.5.4-.6.8-.8.8-.4 0 .2-.4.6-1.9 2.3-.8 1-.9 1-.7 1 .1 0 1.5-1.3 2.3-2.3.5-.5.7-.7.8-.6l.2.2c0 .1-.5.7-1.2 1.3-1 1.1-1.3 1.4-1.1 1.4l2-1.7c.5-.6.6-.7.8-.5.2.1.2.1-.1.4l-1.8 1.8h.2l.2-.2c.2 0 .4-.3.6-.4 1.2-1.2 1.5-1.4 1.5-1 0 .2-.1.3-1 1-.3.3-.4.6-.2.6l.8-.6c.7-.6 1-.7 1-.4v.2l-.5.7-.4.3h.4l.5-.4c.3-.3.5-.3.7 0l-.3.5-.4.3.2.1.2-.2c.4-.2.8-.2.9 0l-.2.4c-.2.2-.2.3 0 .3l.1-.1c0-.2.6-.1.6 0s0 .3-.2.5c-.2.1-.3.3-.2.3h.2c.2-.3.7-.3.7 0l-.4.5-.5.5c0 .1.3 0 .7-.3.3-.3.4-.4.6-.3.2.1.1.2-.4.7a48.9 48.9 0 0 0-1.8 1.5l-1 .8c-.6 1-.7 1.5-.7 2.7v2.3c.2 1 0 1.7-.3 2.3l.2 1.2h.1v.4c0 .2-.2.9-.5 1.4a7.4 7.4 0 0 0-.5 1.3l.4 1v-.1l.5.7.6 2.2.3.9.1.8.1.6a24 24 0 0 1-.5 7.4l-.2 1.5c0 .4-.1.7-.2.7l-.2.3-.1.5-.2.4c0 .3-.3 1-.8 2l-.4.8a27.7 27.7 0 0 1-1.9 3.6c-.4.8-1 1.9-1.6 2.5a81.5 81.5 0 0 1-7.1 6.7c-.4.4-1.4 1-2.4 1.5a31.4 31.4 0 0 0-3 1.6l-1.4.7-.5.2-.5.2c-.5.3-4 .5-7.5.3a16.4 16.4 0 0 1-6.7-1.1c-.1 0-.4 0-.6-.2l-1.7-.7-1-.4-1.2-.5c-.9-.3-1.3-.6-2.6-1.3l-.9-.5c-.4-.2-1.4-1-2.1-1.7a11 11 0 0 0-1-.8A8 8 0 0 1 24 59l-.6-.9c-.4 0-.7-.4-1-.8a23.4 23.4 0 0 0-1.7-2.4l-.4-.8-.2-.5h-.3l-.3-.5c-.1-.4-.4-.7-.5-.9-.2-.2-.3-.6-.1-.7V51c-.5 0-.6-.3-.7-.8l-.2-.6v-1c-.3 0-.5-.2-.5-.7l-.1-.3-.2-.7-.2-1.2-.3-1-.2-1.2-.6-3.8a6.8 6.8 0 0 1-.2-2.9 34.3 34.3 0 0 0 .7-3.9l.2-.7.1-.3.1-.3.2-.6.3-.6V30l.4-.7a54.1 54.1 0 0 1 2.2-5l.4-.7c.7-1 1.5-1.8 3-2.9a33.5 33.5 0 0 0 2.5-2.2l.7-.6c0-.2.4-.3.5-.3l.9-.5a14.7 14.7 0 0 1 1.6-1 10.5 10.5 0 0 1 2-1l2.3-.9 1.2-.5 3.1-.4 1.6-.2 1.4-.2Zm11.8 55-.1.4-.2.3c0 .4-.3.1-.3-.3s0-.5.2-.6c.4-.3.4-.3.4.2Zm-12.6.7-.2.5-.2-.5.1-.4c.2 0 .3 0 .3.4ZM22 62.9c-.3-.2-.3-.5 0-.5l.2-.1.3-.2.1-.1.2-.2.4-.2.6-.6.4-.5c0-.2.3-.2.5 0v.3c-.1.2 0 .3.2 0h.2c.1.2 0 .3-.2.6l-.5.4-.5.4a7 7 0 0 1-1.8 1.4c-.2 0-.2-.6 0-.6l-.1-.1Zm-1.2-3c-.2-.4-.2-.4.3-.6.2 0 .6-.3.8-.5.3-.3.3-.3.1-.3h-.3a2 2 0 0 1-.8.6l-.2.2c0 .2-.5.3-.7.2-.2 0-.2-.4 0-.4l.6-.3c.5-.4 1.1-.8 1.3-.8l.2.2.4.1c.2 0 .3.1.3.2.2.1 0 .2-.3.6l-.8.6c-.3.3-.7.3-.9.1Zm.2 1.3a3 3 0 0 1-1.7 1.3l-.5.2h-.4s.4-.5 1-.8c.2 0 .4-.2.4-.3l.2-.2s.2 0 .4-.3l.8-.5-.2.6Zm-1.3-4.4.5-.3c.5-.4.7-.4 1-.1.3.3.3.4 0 .5-.1.1-.1.1.1.1l.5.2c.2.1.2.2 0 .3-.2.3-.6.2-.7-.1-.1-.3-.1-.3-.4-.1-.3.2-.9.2-1.1 0-.2 0 0-.5.1-.5Zm-.6 0c-.3-.3-.3-.6 0-.8l.7-.4c.4-.3.6-.3.8 0 0 0 0 .2-.2.3l-.7.6c-.4.3-.5.3-.6.2Zm4.5 2.6c0 .3 0 .4-.5.6l-.5.3-.1.1-.4.3c-.2.2-.5.2-.5 0s.4-.7 1-1.2c.6-.4 1-.5 1 0ZM22 61.1l.2-.1c0-.1.2-.3.5-.4l.8-.6c.2-.2.3-.3.5-.1.2.1 0 .4-1.3 1.4l-.7.7c-.2.2-.3.2-.5 0l-.2-.2c0-.3.4-.7.7-.7Zm.8 2.4.7-.5.6-.6 1-.8c.4-.4.6-.5.6-.2 0 .2-1.7 1.9-2 2l-.6.4c-.4.5-.7.5-.7.1l.4-.4Zm-7.7-11.3c-.3 0-.3-.3 0-.3l.5-.2.5-.2.2-.1c0-.2.2-.2.5 0 .2 0 .2 0 0 .2-.4 0-.4 0-.1.1h.3c.1-.2 1-.3 1-.1.2.2.1.4-.2.4h-.2l-.4.2-.5.1-.4.2a1 1 0 0 0-.5.2l-.3.1-.5.2c-.4.2-.9.2-1 0l.4-.2.3-.2.4-.1c.4 0 .4-.3 0-.3Zm1.5-3.3c-.2-.1 0-.3.2-.3 0 0 .2 0 .3.3l.2.7.2.5c.4.3 0 .8-.4.8-.5 0-.6-.1-.4-.4v-.2c-.3-.1-.3-.4 0-.5.2 0 .2 0 0-.2-.3-.2-.3-.2-.2-.4.1-.1.2-.2 0-.3Zm-1.4-3.5a2 2 0 0 0-.5-.1l-.4-.2h-.2L14 45l-.3-.2h-.1c0-.2.6-.2 1 0h.5c.2-.2.3-.2.4 0s.1 0 .2-.1c.2-.2.2-.3.4 0 .1 0 .1.1-.1.3l-.2.2.2.2c.2.1.3.2.2.4l.1.4c.2.1.2.3-.1.5h-.5l-.2-.4-.2-.3c-.2 0-.2-.4 0-.5.2 0 .2 0 0-.1Zm-.5.6c0 .2-.3.2-.4 0l.1-.3h.2l.1.3ZM13 44.5c-.3.2-.7 0-.7-.3 0-.2 0-.2.6-.3l.8-.2h.5c.4 0 .5 0 .7.2l.2.4h-1l-1 .2Zm3.4 2.5c0-.1.3-.1.4 0v.2c-.2 0-.5 0-.4-.2Zm.6-17.8-.4-.1c-.1 0-.3 0-.3-.2l-.3-.1-.4-.2-.4-.2c-.3 0-.4 0-.3-.2 0-.1.8 0 .8 0s.1.2.3.2c.2 0 .3.2.3.3l.4.1c.3 0 .3 0 .4.3 0 .2 0 .3-.1.1Zm0-4.8.2.2c0 .1.1.2.3.2.3 0 .3-.3 0-.4-.3 0-.4-.3 0-.3l.2.2c0 .1.1.2.3.2s.3 0 .3.1l-.3.2-.3.1-.3.2s-.2 0-.3-.2l-.2-.1c-.1 0-.3 0-.3-.2l-.3-.2c-.3 0-.3-.3 0-.3.2 0 .3 0 .3-.2s.4-.1.5 0c0 .1 0 .2-.2.2-.3 0-.3.3 0 .3Zm1 .7.2-.1c.1-.2.6-.3.6 0v.2c-.2 0-.2.1 0 .2v.3h-.5c0-.2-.1-.2-.2-.2l-.3-.2.2-.2Zm3.9-5.2-1-1-.7-.9-2.4-2.6a269.4 269.4 0 0 1 5 5c.1 0 0 0 0 .1-.3.1-.4 0-1-.6ZM39 .7c.3-.2.3-.2.5 0l.2.8a488.7 488.7 0 0 0-.3 11.1c-.2 0-.2 0-.3-3V4.3a56.2 56.2 0 0 0 0-3.6Zm-.8 0c.3 0 .3.1.3.8a185.5 185.5 0 0 0 .2 11.3c-.4 0-.5-.2-.5-1.3l-.1-2-.2-3.4-.2-3.8c-.1-1.5-.1-1.6.5-1.6Zm-.7 2.1-.1.3c-.2.2-.2.2 0 .5.1.4.2.9.2 3a30.4 30.4 0 0 0 .2 5v1.2c-.2 0-.2-.1-.3-.8v-1.3l-.1-.6c-.2 0-.2.2-.2 1.5V13H37l-.3-.1.2-1.2v-1.3c0-.1 0-.2.2-.2l.1-3.5V2.8c0-.2.2-.2.3 0Zm-.4-2c.2 0 .3 0 .2.5-.1.7-.4.9-.4.3 0-.6 0-.7.2-.7Zm-1.6.3c.2 0 .3.6.4 3l.2 1.9c.1.1.2.9.2 1.9 0 1.6 0 2 .2 2V5.8c-.2-.3-.2-1.1-.3-2.2l-.1-2c-.2-.3-.2-.4 0-.5.3-.2.3-.2.5 0l.1.5v1.3a371.2 371.2 0 0 1 0 7.9c0 1.4-.3 1.7-.4.3l-.2-1-.2-1.6-.2-1.7V5.7L35.4 4l-.1-1.8.1-1.1Zm-2.4.4a47.9 47.9 0 0 0 1.3 8.1v1.1c.3 0 .3-2 0-2.3l-.1-1.2a59.4 59.4 0 0 0-.6-5.2l.1-.6c.1 0 .2 0 .2.2.1.2.3.2.3-.1 0-.3.5-.3.6 0v1l.2 1.7.2 1.6.1 1.3.2 1.6.2 1.4.1 1c0 .6.1 1 .2 1 .2.1.2 1 0 1l-.3-.2c-.2-.2-.2-.4-.2-1 0-.4 0-1-.2-1.2l-.1-1.5c0-.9 0-1.2-.2-1.3L35 6.4l-.2-1.6V3.6c-.1-1-.2-1.4-.4-1.5-.1 0 0 2.5.2 2.8l.4 4.6c0 .8.2 1.3.2 1.4l.2.7.1 1c.2.3.2.6 0 .5h-.5c0 .2-.2.1-.3 0-.2-.2-.3-.2-.3.1l-.2.3c-.2 0-.2-.4 0-.5.3 0 .2-1.5 0-1.5l-.2.5v.5l-.1-.5v-.6c.2-.3.2-2 0-2.5l-.1-.8-.2-1-.2-.6v-.6L33 4.6l-.3-1.9c-.1-1 0-1.2.4-1.2Zm-1.5.5c.2-.3.3-.3.5 0l.2.9.3 1v1c0 .5.3 1.6.6 2.6l.1 1 .2.8c.2.3.2 1.9 0 1.9l-.1-.3-.1-.5-.2-.8-.3-1.4-.3-1.4a48.6 48.6 0 0 1-1-4.8Zm-1.1.4c.4-.3.4-.3.6.3l.3 1a28.3 28.3 0 0 0 1 4.3 173.8 173.8 0 0 0 1.2 5.8h-.3c-.2 0-.2 0-.4-.5a5 5 0 0 1-.2-.9l-.2-.5a1 1 0 0 1-.1-.5l-.1-.6-.4-1.5a11.2 11.2 0 0 0-.5-2l-.1-.4c-.3-.8-.6-2.3-.6-2.7l-.1-.5-.2-.4-.1-.5.2-.4Zm1 8.4-.1-.5c0-.4 0-.6-.2-.6l-.1-.5-.2-.8-.1-.7c0-.5 0-.6.2-.3v.4l.2.4.2.6c0 .3 0 .5.2.7.2.4.2 1.2 0 1.2Zm-1.8-8c.3 0 .3 0 .4.5l.2.9.1.7c0 .2 0 .6.2.7l.1.9c0 .7-.2.8-.3 0 0-.2 0-.5-.2-.6l-.1-.7c0-.3 0-.6-.2-.8l-.1-.6-.2-.3-.1-.5c0-.2 0-.3.3-.2Zm-1.6.7c.3-.2.4-.1.4.3l.1.8c.2.3.4 1 .5 1.8l.2.5.1.3.2.6.5 1.8.2.5.1.5.2.5.1.7.2.6.2.5.1.5.2.4.2.3c.2.1.1-.7 0-.8-.2 0-.2-.2-.2-.4s0-.4-.2-.6l-.2-.7-.2-.4v-.5l-.2-.7-.2-.4-.1-.6-.2-.6c0-.3 0-.5-.2-.6l-.1-.6c0-.1 0-.3-.2-.4l-.2-.5-.1-.7C29 5.3 29 5 28.8 4c-.2-.9.1-1.2.5-.4l.2.7A33.8 33.8 0 0 0 30.7 9l.2.7.2.6.1.5.2.5c0 .6.3.7.3.3l.1-.6c0-.2.1-.2.2.1v.7c-.2.6-.2 1.4 0 1.3v-.5c0-.4.2-.6.3-.2.1.3 0 .7-.1.8-.1.1-.2.2-.1.4 0 .4.3.4.3 0l.1-.3c.1 0 .2.1.2.3 0 .3-.5.7-.8.7h-.2c0 .1-.1.2-.3.2-.3 0-.3 0-.3-.4l-.2-.6-.2-.6-.1-.4-.2-.5-.2-.7c-.3-.8-.4-1-.4-1.4a2 2 0 0 0-.2-.6l-.2-.5c0-.3 0-.4-.4-1.4l-.2-.7c0-.3 0-.5-.2-.6l-.1-.4c0-.2 0-.5-.2-.7-.3-.7-.4-1.4-.2-1.5Zm-.5.3c.2 0 .2.2.2.4 0 .4.3 1.8.5 2.2l.2.5.1.5.2.5.1.7.2.5c0 .2 0 .4.2.5l.1.5c0 .1 0 .5.2.7.2.6.4 1.1.4 1.5 0 .2.2.4.3.4l.1.4.1.5c.2.2.4 1 .4 1.2h-.2c-.2 0-.3 0-.3-.3l-.1-.5-.4-1a15 15 0 0 0-.3-1l-.5-1.5a3 3 0 0 0-.2-.7l-.1-.6-.2-.4-.1-.5-.2-.6a1 1 0 0 1-.2-.5l-.1-.7-.2-.6-.1-.4-.2-.5c0-.1 0-.4-.2-.5a1 1 0 0 1-.1-.5c0-.3.1-.4.5-.2Zm-1 .3c.2 0 .3 0 .5.8 0 .4.2.8.3.8l.1.5L28 8l.1.5.2.4.2.6v.5l.3.7c0 .4.2 1 .5 1.5l.3 1 .4 1 .1.6c0 .3 0 .3-.3.3s-.3 0-.5-.6l-.3-1-.2-.6-.2-.7a31.2 31.2 0 0 1-1-3.3l-.2-.8a6 6 0 0 1-.2-.9l-.5-1.7-.2-.6-.1-.4c-.3-.3-.2-.6.2-.5Zm-1.2.5c.3-.2.4-.3.6 0l.1.6.3.8.1.6.1.4.2.6.3 1.1.4 1.6a17.9 17.9 0 0 0 1 3l.6 1.9c.2.4 0 .6-.3.6s-.3 0-.3-.3l-.2-.8-.1-.5-.2-.5-.2-.6-.1-.6-.5-1.4a12.5 12.5 0 0 0-.7-2.2v-.5L26 7.2l-.4-1-.1-.6-.2-.4c-.2-.1-.2-.3 0-.6Zm-.6.4.3.6.3 1 .1.5.1.5.4 1 .4 1.2.1.6c0 .1 0 .4.2.5l.2.6.3 1 1 3.5-.2.1c-.1 0-.2 0-.2-.2l-.1-.4-.2-.3-.1-.5-.4-1-.3-.8-.3-1a20.4 20.4 0 0 0-.8-2.2 11.7 11.7 0 0 0-.7-2l-.4-1a3 3 0 0 1-.2-.6l-.2-.5v-.1c0-.2.6-.6.7-.5Zm-2.1 1.2c.2 0 .2 0 .2.6 0 .3.1.7.4 1.1l.6 1.6.5 1 .5 1.2.1.4.3.5.1.3.3.7.7 1.8.3.7.4.5V16l-.3-.5-.1-.3-.2-.5v-.4l-.3-.4a7 7 0 0 0-.5-1.3c-.1-.2-.4-.8-.4-1.1l-.4-1a12 12 0 0 1-.7-1.4s0-.4-.2-.7l-.5-1.2-.4-.8c-.2-.3 0-.6.3-.7.4 0 .4 0 .4.4l.3 1 .3.8.2.5v.2l.4.9.7 1.7a33 33 0 0 1 1 2.9l.5 1.2.1.3.2.3.1.2c.2.1.2.2 0 .3l-.2.2s-.2 0-.3.2c-.3.3-.6.3-.6 0 0-.2-.2-.3-.2-.3l-.1-.3-.3-.7-.6-1.2-1-2.6-.4-.8c0-.1 0-.2-.2-.3l-.1-.3-.8-1.8-.8-1.8c0-.1.4-.5.7-.5Zm-1.6 1c.3-.3.5-.3.7.3l.4.9.3.6.4.8.4.8.2.5.2.5.7 1.5c.2.2.3.5.6 1.4l.4.7.1.3.2.3.2.3v.3c.2.1.5.8.5 1 0 .2-.4 0-.5-.3l-1-1.9a53.6 53.6 0 0 1-2-3.9l-.5-1-.6-1-.3-.6a6 6 0 0 0-.4-.8c-.3-.3-.3-.3 0-.6Zm-.8.6c.2-.1.3-.1.5.5l.5 1 .8 1.3.8 1.6a14.8 14.8 0 0 1 1.3 2.6L25 16l.4.6.2.5.2.2c.2.2.2.6 0 .6s-.5 0-.5-.2l-.6-1.2-.7-1.2-.1-.3-.2-.3-.9-1.9a43.2 43.2 0 0 1-2.3-4.2c-.3-.4-.3-.7 0-.8Zm-1 .8c.2-.3.5-.3.6 0a29.2 29.2 0 0 0 2.4 4.3c0 .3.1.4.4.9l.2.4a19 19 0 0 0 2.2 3.8c.1 0 .1.3 0 .4l-.5-.3-.7-1a26.2 26.2 0 0 1-2.3-4l-.7-1.2-.4-.7-.7-1.2c-.3-.3-.4-.6-.4-.7l-.2-.2c-.2 0-.2-.2 0-.5ZM17.9 10c.8-1 1-1.1 1.1-.5l.2.6a21.5 21.5 0 0 0 1.5 2.3l.7 1.3.5.8c.1.4.4.8.5.9l.5.8.9 1.3c.8 1 1 1.5.6 1.6-.1 0-.8-.9-.8-1.1v-.1l-.6-.6-.5-.8a39.8 39.8 0 0 1-3-3.9l-.7-1a9 9 0 0 0-.7-1c-.4-.4-.4-.4-.2-.6Zm-.8.8c.3-.3.7-.4.7-.2l.7 1.4a37.8 37.8 0 0 0 2.8 3.6 134.8 134.8 0 0 0 2.5 3.4c.2 0 .2.5 0 .6-.2.1-.4 0-.6-.5a3 3 0 0 0-.3-.6l-.5-.6a62.4 62.4 0 0 0-3.8-4.5l-.4-.6-1.2-1.6c-.1-.1 0-.2.2-.4Zm-.9 1 .4-.4.4.7.5.6.3.4c0 .2.3.5.5.7l.7.8.5.7 1.1 1.3a88.3 88.3 0 0 0 2.4 2.7c.3.3.4.8.2.8l-1.6-1.5-3-3.2a34.4 34.4 0 0 1-2.5-2.7c-.4-.3-.4-.6.1-1Zm-.8 1c.1-.2.4 0 .4 0a9 9 0 0 0 1.4 1.9c.4.4.5.6.4.6L16 13.8c-.7-.6-.9-1-.6-1Zm-.6.7c.2-.3.3-.3.5.1.1.2.3.3.4.3l.1.1 2.1 2.3a16.7 16.7 0 0 1 1.4 1.4c.7.7 1.4 1.6 1.3 1.7L19 17.8a33.2 33.2 0 0 0-3.2-3c-1.2-1.1-1.1-1-1-1.3Zm-.5.6.7.5 1.1 1c.6.5.5.3 3 2.8a70 70 0 0 0 2.3 2.3c.4.2.5.6.2.6l-.4-.2a130.5 130.5 0 0 0-2.8-2.7l-1.8-1.6-1.7-1.6c-.2-.3-.5-.5-.6-.5-.3-.1-.3-.6 0-.6Zm-.9.6c.2-.2.4-.1.8.3a46.9 46.9 0 0 0 4.8 4.5l1 .8.9.9c.6.6.5.8-.2.2L20 21l-.1-.1-.3-.2a60.4 60.4 0 0 0-5.7-5c-.7-.6-.8-.7-.6-1Zm-.5.7.8.6a23.2 23.2 0 0 0 2.1 1.8l.6.5 1.3 1.2a48 48 0 0 0 3 2.6v.3c0 .2-.6.2-.7 0l-1-.8-1.2-1a172.7 172.7 0 0 0-5.8-4.2c-.1-.2.6-1 .9-1Zm-1.2 1.2.3.3.8.7.7.5 1.1.8a20.4 20.4 0 0 1 2.6 1.9A102.4 102.4 0 0 1 20 23c-.1.3-.4.2-1-.3-.1-.2-.9-.8-1.6-1.2a18 18 0 0 1-1.4-1l-.5-.4-.5-.3-.6-.4a45.5 45.5 0 0 0-2.7-2l-.4-.4c0-.1.2-.5.4-.5Zm-.2 1.3.8.6.7.5.6.5 1 .7.8.5a17.9 17.9 0 0 1 2.1 1.5l.6.3 1 .7c.4.1.5.4.4.6-.2.2-.4.2-.7 0l-.3-.3-.4-.3a23.5 23.5 0 0 0-3-1.9l-1-.6a9 9 0 0 1-1-.6c-1-.7-1.5-1.1-2-1.3-.3-.2-.5-.4-.5-.6 0-.6.4-.8.9-.3Zm-1.5 1c.1-.3.2-.3 1 .3l.9.6h.2l.5.4.5.3.8.5.8.5.8.5a13.8 13.8 0 0 0 1.6 1l.2.2.9.5.8.4v.6h-.2c-.1-.2-.2-.2-.3-.2l-.2-.2a.6.6 0 0 0-.4-.1l-.2-.1c0-.1-.1-.2-.3-.2a1 1 0 0 1-.4-.3l-.2-.1c-.1 0-.2 0-.3-.2l-.3-.1-.4-.2-.3-.1-.2-.2-.2-.2-.5-.3-.5-.3-.4-.3-.4-.4-.5-.3a6 6 0 0 0-.5-.3l-.6-.4-.6-.3-.3-.1-.4-.3c-.3-.1-.5-.4-.4-.6Zm3.8 3.2h-.5s0-.2-.2-.2l-.2-.1-.3-.3-.8-.5-.2-.1-.2-.2.1-.1.3.1.3.2.2.1.2.2c.1 0 .3 0 .3.2l.2.1.7.6ZM10 19.7l.3.2c.3 0 .3.3 0 .3l-.2-.1-.3-.2-.1-.1c0-.2.2-.2.3 0Zm0 .6.4.2.7.4.8.6.3.2.2.2.6.3.7.3.2.2.2.1.2.1.2.2s.2 0 .3.2c.2.2.3.2.6 0h.4l-.1.1c-.1 0-.2 0-.2.2 0 .3.3.3.4 0h.6s-.1.2-.3.2l-.3.2-.2.1-.3-.1-.3-.2h-.2c0-.2-.2-.2-.3-.3l-.6-.3c-.1-.2-.4-.3-.4-.3l-.4-.2a13.5 13.5 0 0 0-2-1L9.7 21c-.3-.1-.4-.3-.4-.4 0-.5.3-.5.7-.2Zm-1.1.8c.2-.2.2-.2.6.1l.9.6.6.3 1.3.6.4.2.2.1.3.2c.2 0 .6.2 1.3.7a18.3 18.3 0 0 0 2.7 1.4l.3.2c.8.4 1.2 1 .6 1l-.2-.1c0-.1-.4-.4-1-.6l-1.1-.7c-.2 0-.4-.2-.5-.3l-.3-.1-.7-.3-1.8-1-1.4-.6-1.1-.5-1-.5c-.3 0-.3-.5-.1-.7Zm.3 1.2.4.2s.2 0 .2.2l.3.1.4.2.3.2.4.1.4.2.3.1.3.2.4.1c.1.2.4.3 1.2.6l.3.2 1 .4c.4.3 1 .5 1.1.7l1.4.6.5.5c0 .4-.3.3-1-.1a21.3 21.3 0 0 0-2.4-1.3l-1-.6a7 7 0 0 1-.7-.3c0-.2-.8-.5-1-.5l-.2-.1-.3-.2c-.1 0-.2 0-.3-.2l-.4-.1-.2-.2-.3-.1-.4-.2c0-.1-.1-.2-.3-.2l-.3-.1-.4-.2-.3-.2c0-.2.5-.2.6 0Zm-1.1.7c0-.4.2-.4.6-.1l1.3.6 1 .6c.2 0 1.8.8 1.9 1l2.2 1.1.7.4 1 .5c1 .5 1 .5.9.8 0 .2-.5.3-.5.1 0 0-.1-.2-.3-.2a18.4 18.4 0 0 0-2.7-1.3l-3-1.5c-.3 0-.7-.3-1-.4l-1-.5a7 7 0 0 0-.8-.3c-.4-.1-.5-.4-.4-.8Zm-.5 1H8l2 1 2.5 1.1 1.3.7a16.1 16.1 0 0 0 2 .8l.4.2s.2 0 .3.2l.3.1c.3 0 .6.4.5.6-.1.1-.4 0-.4 0 0-.2-.2-.2-.3-.2l-.4-.2a.7.7 0 0 0-.4-.2h-.3c0-.3-.5-.3-.9-.1-.4.2-.7.2-.8 0l-.4-.2c-.5 0-.5-.3 0-.3l.4.1c0 .1 0 .2.3.2.4 0 .4-.3 0-.3l-.3-.2-1.2-.5c-.2 0-.4 0-.4-.2l-.6-.3-.8-.3-.5-.2-.3-.1c-.2-.2-1.8-.9-2-.9-.4 0-.7-.6-.5-.8Zm5.4 3.3c0 .2-.5.2-.6 0 0 0 0-.2.4-.2l.2.2Zm-6-2.4h.6c.1.2 1 .6 1.2.6l.4.1.4.2s.2 0 .3.2l.4.1.5.2.4.1.3.2.4.2.3.2c0 .2-.6.1-.7 0-.1-.2-.3-.2-.5-.2l-.4-.2-.4-.1a1 1 0 0 1-.4-.2l-.5-.2-.5-.1-.4-.2-.4-.1-.3-.2c-.2 0-.7-.4-.6-.5Zm.3.8.4.2.3.1 1.2.4c.2 0 .4.2.5.3l.4.1.4.1c.1.2.8.5 1.3.5l.5.2.3.2.3.1.5.2c.2 0 .4 0 .5.2l.4.1.4.1 1.4.7.6.2c.1 0 .2 0 .2.3l-.1.3c-.1 0-.6-.1-1.2-.5a13 13 0 0 0-2.6-1c-.3-.3-.7-.4-.8-.4l-.5-.2-.3-.1-.4-.2-.3-.1a1 1 0 0 1-.4-.2l-.5-.2a1 1 0 0 1-.4-.1l-.5-.2-.5-.1a4 4 0 0 0-1.3-.5l-.3-.1v-.3c-.1-.2.3-.3.6-.1Zm-.8.9c0-.2.6-.1 1 0l.6.4.5.1.5.2.9.3 1 .5 1 .4.4.2h.3l1.3.6.4.1.3.2.3.2.4.1.7.3c.4.2.6.5.3.6a1 1 0 0 1-.7-.2l-.3-.2-.5-.1-.8-.4a22.3 22.3 0 0 1-2-.8c-.2 0-.4 0-.6-.2l-.5-.1-1.1-.5a8 8 0 0 0-1.5-.6 6 6 0 0 0-1.6-.6c-.2 0-.5-.3-.4-.5Zm-.4 1c0-.3 0-.3.5-.2l.6.3.3.1c.1 0 .3 0 .5.2l.3.1.5.2 1.1.5 2 .6.8.4.8.3c.1 0 .3 0 .4.2l.5.1c.1 0 .4 0 .4.2l.3.2c.8.2 1 .4 1 .6 0 .3-.3.4-.5.2l-.3-.2-.5-.1-1.2-.6c-.1 0-.3 0-.5-.2l-1.3-.5-1.3-.4-1.7-.7-.6-.1-1.3-.5-.4-.2c-.3 0-.5-.3-.4-.6Zm-.6 1.8c0-.2 0-.2.6 0 .3 0 .6.2.7.3l1.5.6c.4 0 .8.2 1 .3l.4.2.4.1.3.2.5.1.5.2c.2 0 .3 0 .4.2s.3.1.5.2l.3.1c.1.2-.9.2-1 0l-.4-.2a1 1 0 0 1-.5-.1l-.5-.2h-.4l-.4-.3-.6-.2-.5-.1a1 1 0 0 1-.5-.2l-.4-.2a1 1 0 0 1-.4-.1l-.5-.2-.4-.1a.8.8 0 0 0-.4-.2c-.2 0-.3-.2-.2-.4Zm.2 1.8.6.2 1.4.5.7.2.5.1.7.2c.4 0 .6 0 .6.2l.6.1c.7 0 .6.3-.1.3H10c0-.2-.2-.3-.5-.3l-.6-.1-.5-.2-1-.1-1.2-.3c-1.3-.2-1.3-.3-1.3-.5 0-.4.3-.5.8-.3Zm-.4 1 1 .2.9.2.7.2.8.1.6.2.7.1.8.2c.2 0 .6 0 .7.2l.7.1.5.2c.3.2 1.1.2 1.2 0l.4-.2.4-.1.4-.3c.2 0 .4 0 .4-.2 0 0-.7 0-.7.2h-.4l-.5.2c-.2.2-.8.3-1 .1l.2-.2.4-.2H13a3 3 0 0 0-1 .1h-.4l.3-.2c.5 0 .4-.3-.1-.3l-.6-.2-.5-.2c-.2 0-.4 0-.6-.2a1 1 0 0 0-.4-.1c-.2 0-.4 0-.6-.2l-.6-.1-.5-.2-.5-.2-.5-.1-.4-.2c-.2 0-.5 0-.9-.2-.5-.2-.6-.2-.6-.5s.3-.3 1.2 0a16 16 0 0 0 1.3.6l1.7.4.4.2.4.2.5.1c.3.2 1 .4 1.6.5l.5.2.5.1.4.2c0 .1.2.2.5.2.5 0 .5-.4 0-.4l-.4-.1c0-.1-.2-.2-.5-.2l-.4-.1c0-.1 0-.2.3-.2.2 0 .5 0 .5.2l.5.1c.3 0 .4.1.5.2l.5.1c.4 0 .5-.1 0-.2l-.3-.2-.5-.2-1.4-.5-.5-.2-.5-.1-.8-.4-.7-.3-.5-.2-.5-.1c-.4-.3-1-.5-1.2-.5l-.5-.2-.8-.3-.5-.2c-.2 0-.7-.5-.6-.6 0-.2.6 0 .8.1l.3.2.4.1 1 .4 1 .3.4.2.4.1 1.5.5.6.2 1.2.5.4.2.3.1.8.3 1 .4c.2.1.2.5-.1.6-.2 0-.2.1-.2.5l.1.5h-.4c-.3 0-.5 0-.6.2l-.5.2c-.3 0-.2.1.5.1l.7.1v.4c0 .6 0 .6-.8.6l-.8.2c-.2.3-1.3.2-1.3 0l.4-.2.7-.1.9-.2h.4c0-.2-.4-.3-.9-.3-.2 0-.5 0-.6-.2l-.6-.1-.8-.2-1.1-.2H10c0-.2-.4-.2-.7-.3l-.8-.2-1.8-.4-.9-.2-.6-.2c-.3 0-.4 0-.5-.2 0-.3.1-.5.5-.3Zm6.7 2.4-.5.1c-.5 0-.7 0-.5-.2h1ZM8.3 34H7.7l.3-.1h.3Zm-3.7-.8c0-.2.1-.2.5-.2l.7.2.9.2c.4 0 .6.1.6.2.1.3-2.5 0-2.7-.2v-.2Zm-.1.7c0-.2.1-.2.6 0l3.3.4c.5 0 1.1.2 1.3.3l.7.1c.3 0 .4.1.5.2 0 .2 1 .2 1.1 0 .2-.2 1.3-.2 1.3 0 .1.2-2.2.6-2.4.4l-1-.2-1.4-.2-1.2-.1-1-.2-1-.2c-.9 0-1 0-.8-.4ZM4 36c0-.2 0-.2 1-.1l1.1.1a28.1 28.1 0 0 0 4.6.7l1.1.1c.7 0 .9 0 1 .2l.8.1h1c0-.2-.3-.2-1.1-.3l-.8-.2a78.2 78.2 0 0 0-8.6-1.3c-.2-.5.2-.6 1.8-.3a54.4 54.4 0 0 0 6.4 1c.6.2 1.4.2 1.5 0 0-.1.2-.2.8-.2.7 0 .9.1.5.3l-.7.1H14c0 .2.2.2.8.2.6 0 .5.8 0 1h-2l-1.3-.3-2-.2h-2c-1.6 0-3.2-.3-3.3-.5-.1 0-.2-.2-.1-.4Zm10.2 4.5h-2c0 .2 0 .3-.3.3-1.3 0-1.7.1-1.7.2l.7.1c.9 0 1.2.1 1 .3h-.8l-.9.1c-.2.2-.4.3-.8.3a5 5 0 0 0-1 .1L7 42l-1 .1-1 .2-.7.2c-.1 0-.2 0-.2-.3 0-.2 0-.2.7-.2.5 0 .9 0 1-.2l1-.1c.6 0 1 0 1-.2l.8-.1c.9 0 1.4-.2 1.4-.3s-1-.1-2.5.1l-1.3.2h-.6l-.9.3h-.6v-.4c0-.7 0-.7 2.4-.7a8 8 0 0 0 2.3-.1l1.2-.1 1.6-.1.5-.1-.5-.1h-2l-2.6.2H5c-.9.1-.9.1-.9-.2V40h1.5a54.5 54.5 0 0 0 9.4-.5v.6l.2.4c.1.1 0 .4-.3.4l-.3.1c-.1.1-2 .2-2.2.1-.3-.2 0-.3.8-.3s1.4-.2 1-.3ZM4 37.1c.1-.3.3-.3.5-.2a62.4 62.4 0 0 0 8.2.7l1.4.1c1 0 1.2.1 1 .4a256.7 256.7 0 0 0-8.6-.3c-2.7-.1-2.8-.1-2.5-.7Zm0 1.2c.1-.2.2-.3.6-.2l2.7.1 5.1.1c2.4 0 2.7 0 2.8.2v.3c-.3.1-11 0-11.1-.2v-.3Zm.1.8h7.7c0 .2-.3.2-2.3.3L4 39.3v-.2Zm0 4.1c0-.2.5-.4 1.2-.5a47.2 47.2 0 0 0 7-1.2l1.2-.1 1-.2c.6-.2.9-.2 1 0v.4l-2.4.4a5 5 0 0 0-1.1.2 2 2 0 0 1-.7.2l-.5.1-.6.2a2 2 0 0 0-.8.1l-1.3.2-2.9.5c-.3.2-.7.2-.9 0l-.2-.3Zm7.5-.2c-.5 0-.7-.1-.4-.3h.9c.3.2.1.3-.4.3Zm-7 1.8.3-.1.6-.2 1-.2.9-.2c.1-.1 0-.1-.8 0a3 3 0 0 0-1 .1h-1c0-.1 0-.2.3-.2.2 0 .4 0 .6-.2l.9-.1 1-.2c.2-.2 1.5-.2 1.7 0 .2.3 1.2.2 1.2 0l-.4-.2c-.3 0-.4-.1-.2-.2h.6c.5.2 1.7.2 1.9 0h.8l.8-.1c.3-.2 0-.3-.5-.3h-.7c-.5-.2-.1-.3.7-.3.7 0 1 0 1-.2l.7-.1h.8l-.1.3h-.8c-.6 0-.7 0-.4.3.1.3.3.3.4.1l.4-.1c.5 0 .5 0 .5.3l.1.5c.2.3.1.7-.1.7-.3 0-.5-.1-.5-.5s-.2-.6-.6-.4a1 1 0 0 1-.5 0c-.1 0-.4 0-.6.2l-1 .2a2 2 0 0 0-.8.2l-.7.1h-.6c-.1.1-.6.3-1.1.3l-1 .3-1.2.1c-.7 0-1 .1-1 .2l1 .1c.8 0 1.2 0 1.3.2l.5.1c.4 0 .5.2.3.3h-.9c0-.2-.4-.2-1.2-.3-.9 0-1 0-1.3.2-.2.2-1 .2-1 0s0-.2.2-.2c.7 0 .8 0 .7-.2h-.6c-.4 0-.6 0-.6-.2Zm7.4-.4c0 .2-.2.4-.6.3-.2-.1-.2-.2-.1-.3.1-.2.7-.2.7 0Zm-1.4.6h-2c-.3-.2.1-.3.6-.3l.8-.2c.3-.2.6-.2.8 0 .2 0 0 .5-.2.5Zm-5.8 1.2c0-.2 0-.2.5-.2.3 0 .6 0 .7-.2.3-.2 1.9-.2 2.1 0 .2.1 0 .2-.8.2l-2 .5c-.4.2-.5.1-.5-.2Zm.3 1c0-.2.8-.6 1.1-.6h.5l.8-.3c.7 0 1.4-.2 2.1-.5l1-.2 1-.1c.8-.2.8-.2 1.1 0 .3.3.2.6-.3.6-.4 0-1.2.2-1.5.4l-.6.1-.4.1-.4.2-1.8.6-.4.1c-.3 0-1.3.4-1.5.6h-.3c-.2-.1-.4-.8-.4-1Zm2.4 7.7c.1-.1 0-.3-.1-.3-.2 0-.3-.2-.3-.4l-.1-.3c-.2-.2-.2-.2.1-.3a22.3 22.3 0 0 1 2.1-1h.4l.3-.2.5-.1.6-.2.4-.2.4-.1.4-.2.5-.1.6-.3.3-.1c0-.2-.8 0-1 0l-.3.2c-.2 0-.4 0-.5.2l-.4.1c-.1 0-.4 0-.5.2l-.4.1a1 1 0 0 0-.5.2 1 1 0 0 1-.5.2l-.4.1-.5.2-.3.1-.4.2-.5.1c-.2.3-.6.4-.7.2 0-.3.4-.6.7-.6a4 4 0 0 0 1.4-.5l.5-.2s.3 0 .4-.2l.5-.1.4-.2.3-.1.6-.2.5-.2.2-.1c0-.2-.3-.2-.7 0l-.5.1-1.5.6-.4.1s-.3 0-.4.2l-.4.1a1 1 0 0 0-.5.2l-.4.1-.3.2-.3.2c-.3 0-.4-.3-.3-.7 0-.2 0-.3-.2-.4-.1 0-.2-.1-.2-.3 0-.2 0-.3.4-.4l.6-.2.3-.1.5-.2c.6-.1 1.7-.5 1.7-.6l.5-.1c.3 0 .4 0 .5-.2.1-.1 0-.1-.4-.1l-.7.1-.5.2-.6.1-1 .4c-.4 0-.7.2-.8.3-.2.2-.7.2-.8 0l.1-.2c.2-.1.2-.2 0-.3l-.1-.4-.2-.4c-.2-.3 0-.6.7-.7l1.7-.6.5-.2 2-.6 1-.4.6-.2 1-.2h.8v-.3c0-.1 0-.2-.2-.2-.6 0-.8 0-.8-.4 0-.2 0-.2.2-.2l.6.1.3.3.1.4c.2.2.2.2 0 .3l-.1.2-.5.3c-.2 0-.4 0-.3.1 0 .2.4.2.7 0l.7-.2c.4 0 .5 0 .5.3s0 .2.3.2c.2 0 .4.2.6.4.2.2.3.3.4.2.2-.2.6 0 .6.2l-.2.1-.4.2-.3.1c-.1 0-.3 0-.3.2l-.4.2c-.2.2-.2.2.2.2.5 0 .5 0 .5.4v.5c-.1.2-.4.1-.6-.1l-.4-.2h-.3c0 .2.1.3.2.3l.3.3c.1 0 .2.1.4 0h.5c.2.1.3.2.3.6s0 .5-.3.5c0 0-.2 0-.3-.2l-.4-.1c-.2 0-.3-.1-.4-.3l-.2-.3c-.1 0-.7-.6-.7-.8l-.3-.4c-.1-.1-.2-.3-.1-.4.1-.4.1-.5-.2-.5-.4 0-.5 0-.4-.4 0-.2.2-.2.5-.2l.6-.2c.2-.1.2-.2-.5-.1-1 0-1.7.5-1.2.6.2 0 .3.2.3.4s0 .3-.3.3l-.6.1-.7.2c-.3 0-.4.1-.5.3 0 .2 0 .2.3.3.5.1.6.4.2.4-.4 0-1.3.2-1.9.5l-.5.1c-.3 0-2.3.8-2.3 1 0 .2 1.3 0 2.7-.6l1-.4.5-.1c.3-.3 1-.3 1.5-.1H14l-.1.3c-.2.2-.2.2.2.1.2 0 .4 0 .6.2l.4.3c.3.1.2.3 0 .3s-.8.6-1.1 1c-.2.4-.3.5-.2.7.2.2 0 .3-.2.3 0 0-.2 0-.3.2l-.5.1-.5.2c0 .1-.3.2-.5.1-.4 0-.4-.2 0-.3l.5-.1.4-.2c.2 0 .3-.1.3-.2.1-.2-.8-.2-.8 0l-.4.2-.3.1-.4.2c-.1 0-.4 0-.6.2l-.6.1c-.2 0-.4 0-.4.2l-.5.2c-.4 0-.4.2 0 .3.2 0 .3.1.3.2 0 .2-.5.1-.7 0-.2-.2-.4-.2-.6-.1h-.2l.3.2c.4 0 .3.3 0 .3-.4 0-.9-.4-.7-.6Zm6.3-5.1c0 .2 0 .3-.3.1-.3-.1-.2-.3 0-.3s.3 0 .3.2Zm-.5-.7c0 .3-.1.4-.6.5-.5.1-.6.1-.8 0-.1-.2-.1-.2 0-.4l1.2-.3c.2 0 .2 0 .2.2Zm-2 5.3c0 .2-.7.1-.8 0 0-.1 0-.2.4-.1h.4Zm-1 .3-.3.2c-.3 0-.5-.1-.3-.3l.6.1ZM8 56.6c-.2-.4-.1-.7.2-.7l.3-.2.5-.1.5-.2.5-.2.5-.1.5-.2.4-.1 1-.4 1-.3.5-.2.2-.1.4-.2.5-.1.5-.2c.2 0 .3 0 .4-.2l.4-.1c.2 0 .5-.1 1.3-.6.5-.2.6-.2 1 0 .3.1 0 .6-.5.6-.4 0-1 .2-1.4.5l-.5.1-.4.2-.3.2-1.6.5-.3.1-.4.1-.8.4-1.2.5-.9.3-.3.1-.4.2c-.2 0-.3.1-.3.2l-.3.1-.4.2c-.1.2-.5.1-.6-.1Zm.7 1c-.2-.3-.2-.4.5-.7a101 101 0 0 0 5.5-2.3l.5-.2.8-.4.7-.3.5-.1.4-.2.5-.1c.2 0 .3-.1.3-.2.1-.2.4-.2.5 0v.2c-.2.1-.2.2 0 .3.3 0 .3.2.3.5l-.1.4-.8.6.2.1h.2c0-.2.1-.2.3-.3l.3-.2.3-.1c.3 0 .4 0 .4.2s-.2.4-.7.8c-.7.5-.7.5-.9.3l-.1-.4s0-.3-.2-.4v-.5l.8-.4c.2 0 .2-.2 0-.3l-.4-.2c0-.2-.5-.2-.6 0l-.3.2-.5.1-.7.4a64.5 64.5 0 0 1-5.2 2.2 16.1 16.1 0 0 1-1.4.7l-.6.3h-.5Zm9.2-1.4c.2.1.2.1 0 .4l-.4.3-.8.5c-.4.4-.8.4-1 .2-.2-.3-.2-.3.3-.6l.8-.6c.3-.3.7-.4 1-.2Zm-.8-.8c0-.3 0-.4.3-.4.2 0 .2 0 .2.3 0 .2 0 .2-.2.2s-.3 0-.3-.2Zm1-1.4.2.1-.2.1H18c0-.1 0-.2.2-.2Zm-1 3.5c.2 0 .3-.1.3-.2l.2-.1.3-.3c.3-.2.3-.2.6 0l.2.3c0 .4-1.7.9-1.9.6l.3-.3Zm-7.9 1.1c-.2-.2-.2-.2-.1-.4l.2-.2.6-.3c.3 0 1-.4 1.6-.7l1.3-.6 1-.5 1.4-.6.6-.3.3-.1c.2 0 .3 0 .3-.2l.3-.1.4-.2c.2-.2.6-.2.7 0l-.2.2c-.1 0-.3 0-.4.2s0 .1-.2.1a5 5 0 0 0-1.4.7l-.5.3-.8.4-1.2.6a33.2 33.2 0 0 0-3.4 1.8c-.1.2-.2.2-.5 0Zm.7 1.2c-.2-.2-.3-.4-.2-.5a38 38 0 0 1 5.1-2.8c0-.2.2-.3.3-.3l1-.5c.2-.2.5-.2.6 0 .3 0 0 .5-.3.6-.1 0-.4.1-.5.3l-.6.3c-.2 0-.4.2-.6.4l-.4.2-1 .5-1.7 1-1 .8-.5.3-.2-.3Zm.7 1.3c-.3 0-.4-1 0-1l2.8-1.5c1-.6 1.2-.7 1.7-.7h.5a19.6 19.6 0 0 1-3.4 2.3l-.6.3h-.1c-.1.3-.7.6-.9.6Zm.6 1.2c-.2-.1-.4-.7-.3-.8l.4-.3a35.3 35.3 0 0 0 3-1.7l1-.7c.8-.6 1.2-.7 1.6-.5.2 0-.2.4-.8.8-.6.3-.7.3-2 1.2-1.1.7-1.8 1.3-2.4 1.8-.3.3-.3.3-.5.2Zm.5.7c-.2-.2-.1-.4.3-.6a20.2 20.2 0 0 0 2.1-1.6h.2l.7-.6a9 9 0 0 0 1.3-.8l1-.7 1-.6c.3 0 .5-.1.5-.2l.2-.1h.3l.3.2c.2.2.2.2.6 0h.6c.1 0-.1.5-.4.6l-.5.3-.6.3c-.3 0-.5.2-.5.4s0 .2.3.1.5 0 .3.2c-.2.3-.5.3-.7.1h-.6l-.9.6c-.4.2-.8.3-1 .1l1-.7c.2 0 .4-.2.5-.3.1-.2.5-.4.8-.4.1 0 .2 0 .3-.2 0-.2.3-.4.6-.6.2 0 .3-.1.3-.2s-.3-.1-.4 0c-.1.3-.7.5-1 .4-.2 0-.3 0-.5.4 0 .2-.3.4-.4.4l-.5.3-.8.5-.9.6-.5.3-.5.3-.8.5a14.2 14.2 0 0 0-1.5 1h-.2Zm.3.6c-.2-.3-.1-.3.4-.6l.6-.3.3-.2 1.2-.7c.8-.6 1.3-.8 1.5-.6.1.1-.3.5-.7.6l-.5.4-.6.3-1.3.8c-.6.5-.8.6-1 .3Zm.7.5a25.2 25.2 0 0 1 3-2 9.4 9.4 0 0 1 2.5-1.4c.3-.2.5-.2.6 0 0 0-.4.5-.6.5l-.5.3a32.6 32.6 0 0 1-4.9 3c-.2 0-.3-.2-.1-.4Zm.5 1c-.1-.1 0-.2.2-.3a21 21 0 0 0 4.3-2.8l.2-.2.5-.4 1-.7.4-.4.8-.2.2.2-.5.5a157.6 157.6 0 0 1-3 2.2l-1.1.7-.9.6a7 7 0 0 1-.8.5l-.4.3c-.4.4-.8.4-.9 0Zm.6.7c0-.1.1-.3.3-.3.4-.2.6-.3 1.4-1l.7-.4.6-.3.4-.3.4-.2c.3-.3.6-.3.6 0l-.2.2-.5.3-.5.3-.2.1-.5.4-.5.3-.9.6h-.1c0 .2-.7.6-.8.6l-.2-.2Zm.6.7c0-.1.8-.7 1-.7v-.1l.5-.3.5-.3.9-.6.4-.4.6-.3.6-.4.7-.5c.2 0 .5-.2.8-.5.7-.6 1-.6.9-.1-.1.4-.5.8-.8.8l-.2.2-.5.3-2 1.3-1.7 1.1a5 5 0 0 0-.5.4c-.7.5-1.2.5-1.2 0Zm5-1.9c0 .1-1 .9-1.2.9H18l-.3.3-.4.2H17s.5-.6.7-.6h.1l.2-.3.3-.1.8-.5h.1Zm-3.8 2.7-.2.1-.3-.1.2-.2.2-.1.2-.2c.2 0 .3-.1.3-.2l.3-.2.3-.1c.2-.2.4-.2.4 0h-.2l-.3.3-.2.2-.2.1-.3.2-.2.2Zm.4.8c-.4 0-.3-.5.2-.8a24.6 24.6 0 0 0 2-1.3l.6-.5 1.6-1.2c.4-.3.6-.5.4-.5 0 0-.2 0-.3.2h-.3V64l.2-.2.2-.2.2-.2c.1-.2.4-.2.6.1v.6c-.3.5-.5.7-1 1l-.7.4-2 1.6a7 7 0 0 0-1 .8c-.3.3-.5.4-.7.3Zm.8.7-.3-.2.4-.4.5-.5a15 15 0 0 0 2.7-2l1-.5.2-.3.3-.4.1-.4c0-.2 0-.2.3 0 .2 0 .4.2.4.3l-1.5 1.4-3.2 2.8c-.4.4-.5.4-.9.2Zm.8.4.6-.5 1.4-1.1a73 73 0 0 1 2.6-2.3l1-.8 1.2-1s.8-.7 1.2-1.3c.3-.3.8-.5.8-.2L24 64.4a79.3 79.3 0 0 0-5.8 5.6c-.1 0-.7-.7-.6-.8Zm1.5 1.3-.3-.1a90.8 90.8 0 0 1 8-7.9c0 .1-.7 1-2 2.4l-3.9 3.9a16 16 0 0 1-1.8 1.7Zm.8.5c-.3-.1-.3-.4 0-.6.3-.2 6.1-6.2 6.8-7.1.4-.5.8-.6.9-.3 0 0 0 .2-.2.3l-.6.8a55.2 55.2 0 0 1-5.5 6 4 4 0 0 0-.6.8c0 .2-.6.2-.8 0Zm1 .5c-.1-.2-.2-.4 0-.4S24 68 25 66.7l1-1.2 1.4-1.7c.4-.5.5-.6.6-.4l.1.2-.8 1a7 7 0 0 0-1 1.2l-1.7 2-.5.5-1 1a40.4 40.4 0 0 1-1.6 2c0 .2-.4.3-.6.1Zm1 .5c-.4 0-.3-.2.3-.8a17.8 17.8 0 0 0 1.8-2l.7-1 .8-.8.8-1 1-1.2.9-1c.3-.4.6-.5.6-.2 0 0 0 .2-.2.2l-.1.2s-.6 1-.8 1l-.3.5-.8 1-.8.9-1.2 1.2-2 2.4-.7.7Zm.7.6c-.4-.2-.4-.3.2-.8l.8-1a23.3 23.3 0 0 1 2.1-2.4 73.4 73.4 0 0 1 3.7-4.2 4.1 4.1 0 0 1-1 1.3c0 .1 0 .3-.2.5l-1 1-.6.8h-.1a5 5 0 0 1-.9 1.3v.1l-.6.8a23 23 0 0 0-1.6 2l-.4.5c-.1.2-.2.2-.4.1Zm2.8 1.9c-.2-.2-.2-.4 0-.6l.1-.3s0-.2.2-.2L27 71l.4-.5c0-.2.3-.6.6-1a20.7 20.7 0 0 1 1.2-1.9c0-.2.3-.5.5-.7l.6-1c0-.1 0-.2.2-.3.1 0 .2-.5 0-.5 0 0-1.2 1.6-1.2 1.8l-.3.3-.5.8-.9 1.3-.4.7a7.6 7.6 0 0 0-1 1.5l-.9 1.3c-.7 1.2-.7 1.1-1.2.8-.2-.2-.2-.2.2-.8a18 18 0 0 1 1.1-1.4s0-.2.2-.3l.8-1.1.3-.4a23.4 23.4 0 0 0 2.8-3.9c.1-.1.5-.8.4-.9l-.3.3a11 11 0 0 1-.6.7l-.8 1.2-.8 1.1-1 1.2-.7 1c-.2.4-.4.6-.5.6l-.3.5c-.1.3-.5.6-.7.9a2 2 0 0 0-.4.6c0 .2-.3.2-.5 0-.3-.1-.3-.1.1-.6a27 27 0 0 0 2.6-3.2l.5-.6a19.7 19.7 0 0 0 1.3-1.7 11.5 11.5 0 0 0 1.4-1.8l.1-.2c0-.2.3-.4.5-.4l.2.1.3.2c.1 0 .3 0 .3.2l.3.2c.1 0 .2 0 .1.3l-.1.4c-.2 0-.7 1-.9 1.3l-.3.6-.7 1-.5 1a44.4 44.4 0 0 0-2.5 4.7c0 .2-.5.2-.7 0Zm1.2.6c-.4 0-.4-.1 0-1 .3-.2.5-.6.6-.8l.3-.5.5-1c.2-.5.3-.7.6-1l.3-.8.4-.6.1-.3.3-.5.4-.6.3-.6.8-1.7c.2-.4.3-.5.5-.2v.5L31 67l-.1.3-.2.3-.3.5A29.7 29.7 0 0 0 29 71a13.3 13.3 0 0 1-1 1.7c-1 2-1.2 2.5-1.3 2.4Zm1.2.2c0 .3-.3.4-.5.3-.3 0-.3-.5 0-.8l1.1-2.2a35.5 35.5 0 0 1 2.3-4.2l.3-.7.4-.8v-.1l.2-.2c.3-.7.5-1 .6-1 .1 0 .2.1.1.3l-.1.5-.2.3-.5 1.1-.1.3-.2.3-.2.2-.4 1a71.9 71.9 0 0 0-2.8 5.7Zm3.7 1.8c-.3-.2-.3-.5 0-.9l.4-.8c0-.4.2-.7.3-.9l.1-.4.2-.4.3-.8.4-.9.1-.5s0-.3.2-.4l.5-1.3.1-.3.2-.4c0-.2 0-.3.2-.3s.1-.3.1-.4c0-.2 0-.4.2-.6v-.6l-.1.2c0 .2-.2.3-.3.4l-.1.5c0 .2 0 .4-.2.4l-.1.3-.2.5-.1.4-.2.3-.2.4-.1.3-.2.5-.1.5-.2.4c0 .1 0 .4-.2.5l-.1.4-.2.4-.1.4-.2.3c-.1 0-.2.2-.2.5l-.1.5-.2.4-.1.5-.2.3c0 .3-.2.3-.4 0q0-.2-.2 0c-.2.2-.2.2-.4.1-.3-.1-.4-.1-.1-.4l.1-.5s0-.3.2-.4.1-.2.1-.4l.4-.8.3-.9.1-.4.2-.4c0-.1 0-.3.2-.4s.1-.2.1-.3l.2-.3c.2-.1.1-.3.1-.4l.2-.4.2-.3.1-.3.2-.3.1-.5.2-.4c0-.2 0-.4.2-.4.1-.2.2-.9 0-.9l-.2.3-.2.6-.1.6-.1.2c-.1 0-.2.1-.2.3l-.2.4a4 4 0 0 0-.5 1.1s0 .2-.2.3-.1.2-.1.4l-.2.3-.1.3-.2.5c-.5.9-.8 1.8-1 2.5l-.4 1c-.2 0-.6 0-.6-.2l.4-1a91.9 91.9 0 0 0 1.9-4.2l.2-.5.4-.6.2-.6.2-.4.1-.3.2-.4.2-.3.1-.6.2-.5c0-.3-.2-.2-.3.2l-.2.3-.2.4-.1.4-.2.2-.1.5a23.4 23.4 0 0 0-1 1.8c0 .3-.3.8-.4 1l-.2.5a30.8 30.8 0 0 0-1.8 3.9c-.5.1-.6-.2-.3-.7l1.2-2.6.4-.7.3-.6.1-.3.2-.3c0-.1 0-.3.2-.3l.1-.2c0-.1 0-.3.2-.4l.1-.4.2-.3.2-.4.1-.3.2-.2.1-.3.2-.4c0-.1 0-.3.2-.4s.1-.3.1-.4c0-.2 0-.3.2-.3l.1-.3c0-.4.3-.4.3 0s.2.4.3.2c.1-.3.4-.2.5 0 0 0 .1.1.2 0l.2.1.3.1c.2 0 .4 0 .4.2l.4.1c.4 0 .5.4.2.7l-.2.5-.1.4-.2.3-.2.6a33.3 33.3 0 0 0-1.7 4.6s0 .3-.2.5l-.3 1-.6 1.7h-.4Zm1.5-.2c0 .3-.3.6-.5.5-.2 0-.2-.5 0-.7a5 5 0 0 0 .5-1.5s0-.3.2-.4l.1-.6c0-.1 0-.3.2-.4s.1-.2.1-.3l.2-.5.5-1.4.5-1.3.1-.3s0-.3.2-.5a8.9 8.9 0 0 0 .7-2c.2-.4.5-.5.7-.2v.4l-.3.6-.1.5-.2.2-.1.6-.4.8c0 .3-.2.7-.3.8l-.3.8-.4.8-.1.6s0 .3-.2.4l-.1.3-.2.6A33.3 33.3 0 0 0 33 77Zm1 .5c0 .2-.5.3-.7.2-.1-.1 0-1 .2-1 0 0 .2-.1.2-.3l.2-.5v-.2l.2-.5.2-.5.1-.4.5-1.3a13.3 13.3 0 0 0 1-2.7 22.7 22.7 0 0 1 .6-1.8l.2-.6c.2-.4.5-.5.7-.2v.3l-.2.5c0 .2 0 .3-.2.3s-.1.3-.1.4c0 .1 0 .4-.2.5l-.2.8-.2.6v.3l-.2.4-.2.3-.6 1.4v.3c0 .2 0 .4-.2.5l-.3.8a21.3 21.3 0 0 1-.8 2.4Zm1.1-.2-.2.6-.3.2c-.3 0-.3 0-.3-.3l.1-.5.2-.4.5-1.5.2-.3.1-.5c.3-.5.5-1 .5-1.4l.2-.4.1-.4.2-.4.1-.3.2-.6.3-1c.4-1.1.8-2.3 1-2.3h.2c0 .2 0 .8-.2 1l-.3.9a21.3 21.3 0 0 1-1.1 3.2l-.2.5-.2.5v.3l-.4.8a28.4 28.4 0 0 1-.7 2.3Zm1.5 1.4c-.3-.1-.3-.4-.2-.6l.3-1a10.1 10.1 0 0 1 .5-1.8l.4-1.2.2-1 .2-.4.2-.7.2-.8.4-1.8.2-.5c.1-.1.2-.2 0-.4 0-.2 0-.2-.1 0 0 .3-.2.5-.3.6l-.1.6c0 .2 0 .4-.2.5s-.1.3-.1.5l-.2.6-.2.4a25.1 25.1 0 0 1-.8 3l-.8 2.9c-.1.7-.3.8-.6.8s-.4-.4-.2-.7l.5-1.6.2-.6.1-.4.2-.6a33.3 33.3 0 0 0 2-5.6v-.4c0-.3.1-.4.3-.4h.3l.3.1c.2.1.3.2.2.4l.1 1c.2.6.2 1.1 0 .8l-.1-.5-.1-.4c-.1 0-.3.4-.3.8l-.1.4-.2.4-.5 2.1-.1.6-.2.6-.2.6v.6a14 14 0 0 0-.6 2.4c0 .6-.3.8-.7.7Zm1.6-.4c0 .2 0 .4-.3.4-.5.2-.5 0 0-2a19.8 19.8 0 0 0 .5-2.2l.4-2c0-.3 0-.5.2-.6l.1-.6c0-.3 0-.5.2-.5s.2.2.2.5l-.2 1.1-.2 1-.1.8-.3 1.3-.4 1.7-.1 1Zm.7.6h-.3v-1l.6-2.9.1-.7c.2-.3.5-2.2.5-2.8l.1-.7.2-.7.3-1 .1-.7c0-.2.4-.1.5 0v.7l-.4 1.3-.4 1.7v.8l-.2.8-.2.7c0 .3 0 .7-.2 1l-.1 1.2c0 .4 0 .7-.2.9l-.1.7c0 .4 0 .6-.3.7Zm.9-.6c0 .6 0 .6-.3.6h-.1V78l.2-.8.2-.8.2-1 .1-1c0-.5 0-.7.2-.8.1 0 .2-.2.2-.6l.1-1 .2-.8.1-.6c.1 0 .2-.3.2-.7V69l.3-.5c.2-.4.4-.3.3.2l-.2 1c0 .4-.2.9-.3 1l-.1.8c0 .2 0 .6-.2.7l-.1.6-.2.8-.1 1.1-.2.8-.2.8-.1.9c-.1 0-.2.4-.2.9Zm1.1-.1-.1.6c0 .4-.3.6-.6.4-.2-.2-.1-1.2.1-1.5l.2-.5.1-1 .3-1.5.4-2.2.4-2.3.2-.8.2-.6c0-.2 0-.3.2-.3s.3 0 .4.2v.4c-.2.2-.4 1.2-.6 2.8l-.2 1a38.6 38.6 0 0 0-1 5.3Zm2.2-.6c-.1 1.4-.1 1.6-.3 1.7-.1.1-.3.2-.4.1h-.2c-.2 0-.2-.8 0-1.4a27.2 27.2 0 0 0 1-5.6l.2-1 .2-1.3c.1-.5 0-1.1-.1-1l-.1.5-.2.7-.2 1-.1 1-.2.7-.1 1-.2 1c0 .3 0 .7-.2 1l-.1.8c0 .3 0 .5-.2.7l-.2 1c0 .5 0 .7-.2.8-.4.2-.5-.3-.3-.9.2-.4.6-2.3.6-2.8l.1-.9.2-.7.1-1 .6-3c.1-1.3.3-1.6.5-1.4.2.2.2.2.3 0h.3c.2 0 .2 2.1 0 2.3l-.2 1.2c0 1-.1 1.3-.5 3.2l-.1 2.3Zm2.3-4.5a106 106 0 0 0-.3 6.4h-.3c-.3 0-.3 0-.3-.5 0-1.4.3-4.5.4-5.2v-4c-.2 0-.2.2-.3 1.7l-.1 2a51.3 51.3 0 0 0-.5 5.5c0 .6 0 .7-.3.7h-.3v-1.4c0-1.2 0-2 .4-4a30.8 30.8 0 0 0 .4-3.1l.1-1.4a5 5 0 0 1 .1-1.2c.2-.2.5 0 .7.2 0 .2 0 .3.1 0l.3-.2c.2 0 .2.3 0 4.5Zm1 1.5c-.1 4.1-.1 4.6-.3 4.8h-.3v-5.9a50 50 0 0 0 .2-5c.2-.1.4.3.4.9v5.2Zm1.4 4.4h-.4c0 .2-.4.4-.6.3-.2 0-.2-.2-.1-1.3v-9.3l1.3.1.1 2.1V73l.1 3v3h-.4Zm1.3-.2h-.3c-.2 0-.2-.5-.2-4.2a128 128 0 0 0 0-6c.3 0 .3 0 .3 1.7a78.5 78.5 0 0 0 .2 8.5Zm4.7-.8h-.4c-.2-.2-.2-.2-.3 0-.1.2-.5.4-.8.3-.1 0-.2-.1-.2-.6v-.8c-.2-.3-.4-1.6-.5-3l-.2-1.8-.2-1c-.1-.8-.1-1-.3-.8-.1.2 0 1.2 0 1.6l.2 1.8a12.8 12.8 0 0 0 .4 3c0 .3 0 .6.2 1 .2.5.1.6-.5.7l-.4.1v-1l-.2-2.2-.2-3c-.2-2.5-.3-3-.4-3-.2 0-.2 1.5 0 3a54.5 54.5 0 0 1 .3 5.6c.1.7 0 .8-.4.8h-.3v-2.3l-.2-4.3c-.2-3-.1-3.5 0-3.6l.2.4.2.3v-.3c0-.3.2-.3.4-.3.3 0 .3 0 .3.5s0 .7.2.7l.1-.7.1-.7.4-.2c.3-.2.4-.1.5.3l.2.4.1.6c.1.8.3 1.9.5 2.2l.2.8.1.6.2.8c0 .8.3 2 .5 2.3l.2.7.1.8c0 .2 0 .3-.2.3Zm4.8-1.5-.5.2c-.2 0-.3 0-.6-1l-.3-.9a47.2 47.2 0 0 0-.7-1.9 21.9 21.9 0 0 0-1.1-2.8l-.3-.9-.3-.8-.2-.4-.2-.3-.1-.3c-.2 0-.2.4 0 .8l.1.5.2.4.2.3.1.5.4.8c0 .3.2.7.3.8l.1.3.2.5.3 1 .4.8.1.4.7 1.9c.2.5.2.7 0 .8-.2 0-.3 0-.3-.3l-.2-.3a1 1 0 0 1-.2-.5l-.1-.4-.2-.4-.5-1.6-.1-.4-.2-.5-.3-1-.4-.9a1 1 0 0 1-.1-.4l-.1-.3-.2-.5-.3-.5v1.1c.2.2.2.4.2.6l.2.3.2.4.1.5.5 1.6s0 .2.2.3.1.2.1.4c0 .1 0 .4.2.5l.5 1.5.1.3.2.4c0 .3 0 .3-.3.3-.2 0-.3-.1-.4-.4 0-.2 0-.5-.2-.5s0-.3 0-.5l-.2-.5a1 1 0 0 1-.2-.5c0-.4-.4-1.5-.5-1.5-.2-.1-.2.6 0 1l.4 1.2c0 .5.2 1 .3 1 .3.4.2 1.2-.1.9l-.2-.3L55 76l-.1-.3-.2-.7-.1-.6-.2-.7-.2-.8-.1-.5c-.2 0-.3-1 0-1l.2.5c0 .4 0 .4.2.3v-.5a4 4 0 0 1-.3-.7c-.1-.5-.3-.4-.3 0l-.1.4c-.3 0-.3.9 0 1.2l.1.7c0 .3 0 .6.2.7l.3 1.2.7 2v.5c-.5.3-.7 0-.8-.8l-.2-1-.3-.9a26 26 0 0 0-.9-3.8l-.1-.7-.2-.8.1-.8c.2 0 .2-.2.2-.3l.2-.3c.1-.1.2-.3.1-.4 0-.3.5-1 .8-.8l.2-.1c0-.2.3-.2.5 0l.2.4s0 .2.2.3.1.2.1.3l.2.2c.2 0 .1.3.1.4l.1.3.7 1.5.4.7.1.3s0 .3.2.4l.5 1 .3.9.3.7.4.8.1.2.2.3.1.3c.1.1 0 .2-.2.4Zm.6-.5-.3-.3-.1-.3c-.1 0-.2-.1-.2-.3l-.1-.4-.2-.4-.1-.5-.2-.4c0-.1 0-.3-.2-.3l-.1-.3a2 2 0 0 0-.3-.7l-.4-.8-.1-.3-.2-.3-.1-.4c-.1 0-.2-.1-.2-.3s0-.2.2-.2.1.1.1.3.1.2.2.2l.1.3c0 .3.1.4.2.5 0 0 .2.1.2.3l.1.3.2.2.1.4.2.4c0 .2 0 .4.2.4l.1.3c0 .2.1.3.2.3l.1.3.2.3.2.5.1.5.2.4-.1.3Zm6.9-3.6c-.3 0-.5-.2-1.3-1.4l-.5-.6-.8-1a55 55 0 0 0-3-3.6v.2l.4.5a18.5 18.5 0 0 1 1.8 2.4s.2 0 .2.2a33 33 0 0 0 2.6 3.6c0 .3-.4.2-.7-.1a26.9 26.9 0 0 1-2.7-3.8 35.7 35.7 0 0 1-2.4-3.3v-.1l-.6-.8c-.2 0-.1.4.2.7l.3.5.1.2.6.9.2.3c0 .2.9 1.3 1 1.3l.1.2.3.5a13.8 13.8 0 0 0 1.6 2.3l.6.7c.5.7.6 1 .3 1.2-.1 0-.6-.3-.6-.5v-.1L62.5 71c-.2-.3-.7-1.1-.9-1.2l-.6-1c-.1-.4-.4-.7-.5-.9l-.4-.4-.2-.2V67l-.2-.3-.2-.2-.3-.5-.4-.5-.1-.2c-.2 0-.2.3 0 .4 0 0 .2.1.2.3l.1.3c.1 0 .2 0 .2.2s0 .1.1.2l.2.2s0 .2.2.2l.1.2c0 .1 0 .2.2.3l.5.8.2.2.1.1c0 .1 0 .3.2.3s.1.3.1.4l.2.2.1.1.4.6.3.7.1.2.2.2s0 .2.2.2l.1.3.2.3.1.2.1.1.2.3.3.4c.2.1 0 .3-.3.1-.1-.1-.2-.1-.2.1l-.2.2-.3.2c-.3.4-.5.3-.8-.2a23.8 23.8 0 0 1-1.4-2.5s0-.3-.3-.4l-.3-.6-.1-.2-.2-.3s0-.2-.2-.3-.1-.2-.1-.2l.1-.2c.1 0 .2 0 .2.2s0 .1.2.1.1 0 .1-.1l-.1-.2c-.1 0-.2 0-.2-.2-.1-.3-.3-.3-.3 0l-.1.1c-.2 0-.2-.3 0-.6V68l-.3-.3v-.3l-.5.6v-1l-.1-.3c-.1-.2-.1-.2-.3 0h-.3l.1-.3.1-.2c0-.2-.2-.2-.2 0l-.2.2-.2-.2.2-.3c.2-.1.2-.4 0-.5l-.2.2c0 .2-.1.3-.2.3-.2 0-.1.3.3 1l.5.6.1.2.3.5.3.5.3.3v.2L60 71l.2.4c0 .2.1.2.2.2l.1.3.6 1 .4.7s.1.2.3.2c.2.2.3.6 0 .7h-.3l-1-1.5s0-.3-.2-.5l-.4-.5-.3-.5a5 5 0 0 1-.3-.6 6 6 0 0 0-.4-.6l-.3-.6-.1-.3-.2-.2-.3-.5a5 5 0 0 1-.7-1.1c-.1-.4-.7-1.2-.8-1.2l-.1.1.1.2c.1 0 .2 0 .2.3s0 .3.1.3l.2.2c0 .2 0 .3.2.4s.1.2.1.3l.2.2.1.3.3.6a8.5 8.5 0 0 1 .7 1.2l.3.5.4.6.7 1.2.7 1.1.5.8-.2.2c-.3.2-.6 0-.7-.5l-.4-.6a21.6 21.6 0 0 1-1.1-2.2c-.2 0-.8-1.4-.8-1.6l-.2-.2-.1-.3-.2-.3-.2-.3-.1-.4a.5.5 0 0 1-.2-.3L57 68c-.1 0-.2-.1-.2-.3l-.1-.3-.3-.3c0-.2 0-.2-.2-.1v.3l.3.4c0 .2.1.3.2.3l.1.2c0 .1 0 .4.2.4s.1.3.1.4l.2.3.1.3.2.2.2.4.1.3.2.2.2.6a8.1 8.1 0 0 1 .6 1.2l.4.6.5 1 .2.5c0 .2.2.3.2.3v.3c0 .3-.5.3-.5.1l-.3-.8a16.8 16.8 0 0 1-.5-1.1l-.5-1-.4-.9-.4-.7-.4-.7V70l-.2-.3-.2-.3c0-.4-.3-.4-.4 0 0 .1 0 .1-.1 0v-1l-.2.2c0 .3-.2.3-.3 0 0-.2-.1-.3-.2-.3l-.1-.3c0-.2 0-.4-.2-.5s-.1-.2-.1-.3l-.2-.3-.1-.2c0-.3.2-.4.4-.2 0 0 .5-.3.5-.5l.4-.3.4-.3.2.3c.3.3.4.3.3-.1v-.3l.6-.3c.2-.3.4-.4.5-.3h.1s0-.2.2-.3c0-.2.1-.2.3 0h.1c0-.3.6-.9.9-.9.1 0 .3.1.4.4l.5.7a43.6 43.6 0 0 1 3.3 4.3l.4.5.3.4 1.4 1.7c.4.4.4.8 0 .9Zm-7.1-4h-.2c-.2 0-.2 0 0-.2l.2.1Zm7.6 3.4-.5-.7-.5-.6-.8-1-.9-1.2a8 8 0 0 1-.5-.7l-.5-.4V67l-.5-.6-.4-.6c0-.2.2 0 .6.3l.6.7c0 .1 0 .2.2.2l.1.2.3.4.8 1a21.2 21.2 0 0 1 2.5 3s-.2.2-.4.1Zm1.2-.6c-.3.2-.6.2-.7-.1l-.4-.5-1-1.3a68 68 0 0 0-5-5.4l.1-.2c0-.2-.2-.2-.2 0l-.2.2-.1-.2v-.2c.2 0 .2-.3 0-.3-.1 0 0-.3.3-.3l.6.4.4.4a40.4 40.4 0 0 0 3.4 4 58.6 58.6 0 0 1 2.8 3q.2.2 0 .4Zm.6-.5c-.1 0-.4-.2-1-.9l-1-1.2L64 66l-.8-.9-.3-.4-1.4-1.4c-.6-.5-.7-.8-.5-1 0-.1.4.1.5.3l.6.7.4.5 1 1.2a10.2 10.2 0 0 1 1 1.2c.2 0 1.2 1 2.6 2.6l1 1c.2 0 .6.6.6.8h-.3Zm2-1.4-2.1-2a84 84 0 0 1-4.2-4.3l-.4-.5-.5-.4-.6-.5.2.4.4.4.9 1a196.4 196.4 0 0 1 5.4 6.1c-.4-.2-1.1-1-1.4-1.4a17 17 0 0 0-1.7-1.8L65.2 65 63 62.6c-.5-.6-1-1-1-.9a104.4 104.4 0 0 1 7 8.3l-.9-.7-.7-.8-2.6-2.8-2.1-2.3-.8-.9a2 2 0 0 1-.4-.5c0-.2.4-.5.7-.6.2 0 .3-.1.3-.3 0-.3.2-.3.6 0l.4.5 6.8 6.9c.4.3.4.6 0 .6Zm1-.8c-.1.3-.4.3-1-.3a347.3 347.3 0 0 0-7.4-7.6c.1-.2.3-.2.7.2l1.9 1.8 2 2a48.7 48.7 0 0 1 3.8 3.9Zm1.5-1.6-.2.2-.4-.4-1.5-1.3a32.5 32.5 0 0 1-1.8-1.6 26.3 26.3 0 0 1-2.3-2 34.4 34.4 0 0 1-1.9-1.5l-.3-.2-.3-.2c0 .1.3.5 1 1l.7.7a292.4 292.4 0 0 0 6.5 5.8l-.3.4-.3.3-1.1-1.2a71 71 0 0 0-2.5-2.4L66 62.3l-1.7-1.6c-.6-.5-.8-.8-.7-.8l.4-.1.1-.3c0-.3.4-.3.7 0l1 .8a52.7 52.7 0 0 1 5.7 4.8c0 .2.5.5.9.9l.7.6-.2.2Zm.5-.7a4 4 0 0 1-1.2-.8l-.6-.6A78 78 0 0 1 66 60a11 11 0 0 1-1-.7c-.2-.1-.4-.3-.3-.4 0-.2.2-.4.3-.4l.9.8a8.5 8.5 0 0 0 1.8 1.6l.5.4.7.6 1 .7a63.6 63.6 0 0 1 3.5 3.5Zm2-2.9c-.3.1-.5 0-1.3-.6l-1.2-.9-1.1-.7-1.1-.8-.8-.6-2-1.4-.1.1v.2l.5.3.4.4.2.1.2.2.5.3.5.3.2.2.2.1.2.2.2.1 1.2.9c2 1.5 2.4 1.8 2.6 1.8l.2.4c0 .3-.4.4-.6.2a16.7 16.7 0 0 0-2.2-1.9l-.5-.3-.4-.4-.3-.3-.5-.3c-.1-.2-.4-.3-.4-.3l-.3-.2c0-.1-.1-.2-.2-.1-.2 0-.2.3 0 .3l.2.1c0 .1 0 .2.2.2s.1 0 .1 0c0 .2.1.2.2.3.2 0 .4.2.7.5l.2.2.4.3.4.3 1 .8.7.5.7.7c.3.4-.2.3-.7-.2l-.5-.5-.7-.4-.6-.5-.2-.1-.6-.6-.7-.6h-.1l-.2-.2-.1-.2-.2-.1-.1-.2-.7-.6.2-.2c.1 0 .2 0 0 0h-.3c-.2.2-.3.2-.4 0l-.2-.2-.2-.1-.2-.2c-.1 0-.2 0-.2-.2-.1-.1-.5-.2-.5 0l.9.7c.5.4 1 1 1.3 1.1l1 .9.7.7.8.6c0 .2.5.4.5.4l.1.1 1.5 1.2c.3.3-.1.6-.3.3l-.7-.6-1.2-1a15.9 15.9 0 0 0-1.3-1l-.8-.7-1-.8-.7-.6-1.1-1-1.1-1-.4-.3.3-.2.4-.2.1-.3c0-.1 0-.3.2-.3s.2-.2.2-.4c0-.3.2-.3.5 0l.3.3.5.3.4.4.7.4a59.6 59.6 0 0 0 5.9 4c.7.4 1 .7.5 1Zm.7-1c0 .2-.6.2-.6 0l-.1-.1c-.4-.1-2.5-1.4-3.2-2l-.4-.3-.9-.5a25.3 25.3 0 0 0-3.6-2.4c-.1 0-.4-.3-.4-.6 0-.2.4-.1.5 0 0 .2.1.2.2.2l.4.2.2.1.3.2c.2.2.7.2.7 0l-.3-.2c-.2 0-.3-.1-.3-.2 0-.2.6-.1.9.2.2.3.2.3 0 .4 0 .1-.1.2 0 .2l.3.2.7.6.4.3.5.3.8.5 1.1.8c1 .7 2.5 1.7 2.7 1.7.1 0 .2.2.1.4Zm-7.8-6 .3.1-.3.2-.2-.2.2-.1Zm1.7 1H70.3l-.1.2-.2-.1Zm6.7 4c-.1.5-.3.5-1.4-.2a18.7 18.7 0 0 1-1.7-1.2 22.2 22.2 0 0 1-2.5-1.6L71 58l-.2-.2c-.2 0-.3-.1-.3-.2h.6c0 .2.2.2.3.2l.3.2.4.2h.2l.3.3 1.3.8 1.1.7c.3 0 .6.3.7.3l.3.2.4.2.3.1c.2 0 .2.1.1.3Zm.5-.8c0 .2-.5.2-.8 0l-.6-.4a10.4 10.4 0 0 1-2-1.2l-.5-.3-.8-.4-1.5-.8-.3-.1-.3-.1s0-.2-.2-.2a.8.8 0 0 1-.4-.2l-.3-.2-.3-.1a.6.6 0 0 0-.4-.2s-.2 0-.3-.2l-.3-.1-.2.1c-.1.3-.5.2-.7 0-.1-.3 0-.5.1-.3.2.2.5.2.5 0l-.2-.1-.2-.3c0-.1 0-.2.3-.1l.4.2 1.3.6.6.3.8.4a56.1 56.1 0 0 1 5.7 3.2c.4.1.7.3.6.5Zm.6-1c-.2.5-.6.5-1.1 0l-1-.5-.6-.3a49.7 49.7 0 0 0-6.2-3.3c-.7-.3-1-.5-1-.7 0-.2.2-.2.8 0l.6.3h.2c0 .2.6.5 1.2.7l.3.1 1 .5.9.5.8.4.6.3 1.2.7 1 .5.7.4q.6.2.5.5Zm-.2-.7-.5-.3a62.9 62.9 0 0 1-3-1.6l-1.6-.8-.9-.5-1.1-.5-1.1-.5-.3-.1-.4-.2c-.5-.1-.6-.4-.4-.6.3-.3.2-.3.7 0a64.7 64.7 0 0 0 4.8 2.4l.8.4.7.4 2 1c.7.3.8.3.8.7 0 .3-.2.5-.5.3Zm.8-1.1c-.1.1-.2.2-.3 0l-1.1-.5a13 13 0 0 1-1.4-.7l-1.2-.6-.9-.5-.2-.1c-.2 0-1.4-.5-1.8-.8a18.5 18.5 0 0 0-2.1-1l-.3-.2c-.2 0-.2-.1-.3-.3 0-.3 0-.3.3-.3l.4.1.3.2s.2 0 .3.2l.4.1c.1 0 .5.1 1 .5l.4.2.4.2 1.3.7c.3 0 .6.2.6.3l.5.2.7.3.8.4.7.4.4.1 1 .4c.3.1.3.4 0 .6Zm-8.1-5.2.4.2.3.1c0 .2-.6.2-.7 0l-.4-.2-.3-.1c0-.2.6-.2.7 0Zm.8.6h.5c0 .1-.2.2-.4.1q-.3 0 0-.1Zm7.9 3.3c0 .4-.5.4-1 0l-.7-.3a25 25 0 0 1-2.7-1.1l-.3-.2-.2-.2-.3-.1-.4-.2-.4-.1-.2-.2-.3-.1-.4-.2-.2-.2c0-.2.4-.2.6 0l.3.2.3.1.4.2.3.1 1.1.5.6.2.7.3.8.4.5.1.2.1.7.3c.5.2.6.2.6.4Zm.3-.6c-.1.2-.5.2-.6 0l-.2-.2-.6-.1-.7-.4-.7-.2-.3-.2-1.4-.6a6 6 0 0 1-.8-.3l-.5-.1-.2-.2-.3-.2-1.2-.5-.3-.1-.4-.1c-.1-.2-.8-.5-1.2-.5-.4-.1-.5-.5-.3-.6.2-.1.4-.1.4 0l.3.2.8.4.8.3.4.1.3.2.7.3.6.4.4.1.4.2.4.1.3.2 1.2.5.5.1.4.2.4.2.3.1.6.2c.3 0 .4 0 .5.2v.3Zm-1-1-1.5-.7c-.6-.2-1-.3-1.7-.7l-1.2-.5-.8-.4-.3-.2s-.3 0-.5-.2l-.8-.3c-1.3-.6-1.6-.8-1.5-1.1.1-.3.1-.3.5-.1a51.6 51.6 0 0 0 6 2.9l1 .4 1 .4.4.1.5.2c.2 0 .2 0 .2.3 0 .4-.1.3-1.3-.2Zm1.8-1c0 .7-.1.8-.6.6l-.4-.3-.3-.1-1.3-.6-.6-.2-1.2-.6a41.8 41.8 0 0 0-2.7-1.2l-.8-.4-.7-.3-.3-.2-.4-.1c-.3 0-.3 0-.3-.3v-.3l.2.1.2.1.4.2.5.2c.3 0 1 .4 1.5.6a15.5 15.5 0 0 0 1.6.6h.3l.6.3.8.3.6.3.4.2.5.1.6.2.5.2.4.1c.5 0 .6.1.5.6Zm.6-1.3c-.1.4-.2.5-.4.5l-1.9-.6-.8-.3-.8-.3a13.4 13.4 0 0 0-1.6-.6 10 10 0 0 1-1.2-.5l-1-.3-.9-.4-.5-.1-.6-.2c-.4 0-.4-.6-.1-.8.3-.2.4-.2.4 0l.3.1c.2 0 .4 0 .5.2l1.5.5s.3 0 .5.2l.4.1.4.2 1.2.4c.4 0 .9.2 1 .3l.5.2.5.1 1.9.5.8.2v.6Zm.4-1.2c-.1.4-.2.4-.3.2l-1.6-.5-.7-.2-.6-.2-1-.3c-.3-.2-.8-.3-1-.3a34 34 0 0 0-4.7-1.5c-.2-.3-.1-.4.2-.3 0 0 .5 0 .8.2.3 0 .7 0 .9.2h.7l.6.2 1 .3c1.2.2 1.7.3 1.9.5h.4l.6.2.4.2.5.1c.1.1.7.3 1.2.3 1 .2 1 .3.7 1ZM81 50a10 10 0 0 0-8.5-2l-1-.3c-.2 0-.2-.3-.1-.4l1.9.1 1 .3a24.5 24.5 0 0 0 3.6.8l1 .2 1 .3 1.1.3c.4 0 .6 0 .6.3s-.4.6-.6.5Zm0-1.2-.8-.2-.6-.2-2.3-.5-1-.2-.7-.1-.6-.1c-.4-.2-2-.6-2.7-.6l-.6-.1c-.1-.2 0-.5.2-.5.1 0 .4 0 .6.2l.7.1c.2 0 .6 0 .7.2l.7.1.9.2a21 21 0 0 0 3.8.7l1.2.2c1 .2 1.1.2 1.2.5 0 .4-.2.5-.7.3Zm.7-1h-.3c0-.2-.2-.2-.4-.2l-.8-.1A36 36 0 0 0 78 47c-1.7-.2-2-.3-3.2-.6l-1.1-.2-1-.2-.5-.1c-.3 0-.4-.3-.2-.5.1-.2.1-.2.6 0l1.2.1 1.7.4c1 .2 3.6.5 5.5.6h1v.4c0 .5 0 .8-.3.8Zm-.6-1.6a89.8 89.8 0 0 0-6.6-1h-1c-.4-.2-.9-.2-1-.2-.5 0-.6-.1-.5-.4 0-.1.2-.2.4-.1l1.3.1 1.3.2 1.2.2.8.1 1.2.2 1.2.2 1 .1c.4 0 .9 0 1 .2l.6.2.3.1c0 .2-.5.2-1.3 0Zm1.2-.7c-.1.2-.2.2-.5 0l-.8-.2c-.2 0-.7 0-1.2-.2a46.2 46.2 0 0 0-5.6-.8c-1 0-2.1-.3-2-.5.1-.2 1-.1 1.2 0l.8.2 1.5.1c1 .2 2.3.4 4.3.5 1.2.1 2.3.4 2.4.6l-.1.3Zm.3-1.4c0 .4-.4.6-.6.4l-.7-.2-1.7-.1a55.3 55.3 0 0 0-6.7-.9c-.4 0-.5 0-.6-.2v-.3c.1-.2 1-.1 1.5 0l2 .2 2.2.2 2.7.2c2 0 2 0 1.9.7Zm.2-1.4-.1.3h-1.2a42.3 42.3 0 0 1-3.9-.3l-2.1-.2a20.8 20.8 0 0 0-3-.3l.1-.3c.1-.4.1-.4 3 0l4.2.2c3.1 0 3.2 0 3 .6Zm.1-1.1a33.8 33.8 0 0 1-7-.3c-2.3 0-3.1 0-3.2-.3 0-.4 0-.6.5-.5l2.7.2h6.9l.1.5v.4Zm0-2.7c0 .2-.1.2-.8.2l-4 .1c0 .3.6.4 2.4.4l2.1-.2c.2 0 .3 0 .3.3v.6a72.9 72.9 0 0 1-10.2-.5c0-.3.2-.5.8-.5a42 42 0 0 0 3 0h1l-.2-.1-.2-.2c0-.2.6-.3 2.4-.3H82c.8-.2 1.1 0 1 .2Z"/><path class="cls-1" d="m35.8 60.4-.5-.1-1-.3-1-.3-.8-.4c-.6-.4-2.3-2-2.5-2.6l-.4-.7c-.3-.6-.1-1.5.3-2.3.5-1 .7-1 2-1.1 1.4 0 1.6-.1 1.3-.3-.2-.2-.2-.2 0-.3l.4-.4c.2-.2.3-.3.5-.3l-.1-.5h-.3c-.3-.1-.5 0-.8.6-.1.4-.3.5-.5.5a4 4 0 0 0-.7.2H31c0-.1 0-1 .2-1.6v-1.2c-.2-.8-.1-1.1.5-2.2.4-.7.4-1 .1-1-.2 0-1 1.2-1 1.5 0 .2-.3.3-.5 0h-.3v.3c.6.7.9 3 .4 4l-.6 1a3 3 0 0 0-.5.7c-.1.3-.3.2-.3-.2 0-.2.1-.5.3-.7.2-.4.3-.5.2-.6l-.2-.4-.4-.6-.5-.7-.2-.3c-.2 0-.2.4 0 .7l.2.6v.2c.1 0 .2 0 .3.2 0 .2.1.3.2.3 0 0 .1 0 0 .2 0 .1 0 .1-.1 0h-.4c-.2 0-.2 0-.3.4l-.2.6a1 1 0 0 0-.2.6c0 .4-.2.4-.5 0-.2-.3-.2-.4 0-.7l.2-.8.3-.6c.2-.3.3-.4.2-.5-.3-.4-.4-.3-.8.5a3 3 0 0 0-.4 1.2l-.1.7c-.2.3-.2.5.2.5.2 0 1.2.9 1.2 1 0 .3-.2.3-.3.2-.2-.1-.2-.1-.2 0 0 .3.1.3.4.4.4 0 .5.1.5.4 0 .3-.3.4-.4.2h-.5c-.3 0-.3 0-.3-.2V56c-.2 0-.3 0-.3-.2 0-.1 0-.1 0 0h-.5l-.4-.3c-1-.6-2-1.5-3-2.6a6 6 0 0 1-1-2l-.2-.4c-.4-.7-.5-2.2-.4-3 .2-.4.2-.5 0-.6-.1-.2-.2-.2-.3 0-.2 0-.2.3-.2.8 0 .8-.1 1-.3.5l-.3-.4a7.2 7.2 0 0 0-1.5-1.2c-.3 0-.1.5.3.8l1.6 1.7c0 .2-.2.2-.5 0l-1-.2-.8-.2H18v.4l.4.1 1 .2c.6 0 1.2.2 1.4.5.3.3.9 1.5.8 1.6 0 .1-.3.1-.6-.1-.4-.2-1.3-.4-2-.4H19v.5h.1l.9.1c.4 0 .9.2 1 .3l.5.1c.2 0 1.8 1.6 1.8 1.8l-1.5-.1a4 4 0 0 0-1-.1h-.5l.2.4h.3l1.5.3c.9 0 2.3.6 2.4.8l.1.1.9.5.8.5.1.1.5.3 1 .8c.6.5.6.6.5.7-.2.2-.2.2-.6 0l-.4-.2c0-.2-1.1-1.4-1.3-1.4l-.3-.1-.2-.1c-.2 0-.1.2 0 .2l.2.1c0 .2.4.4.8.6.3 0 .1.3-.3.3-.3 0-.4 0-.6-.3l-.2-.4-.2-.1h-.2v.5c0 .2 0 .3.2.4l.4.2c0 .3.2.3.6.1.3-.1.4-.1.6.1l.3.4-1.4.1-1.6-.1-.6-.2h-.2l.6.7h.4c.5.1.5.1 3.2 0h1.7l.8.4 1 .4.6.3 1.4.5 1.3.5 2.5.7 1.2.3c.8.2 1.4.2 3.8.1l3.1.1h.7c-.1-.3 0-.3.5-.3l.7-.1 2-.5 3-.8.7-.2c.4 0 2.3-1 3.5-1.7l.8-.4.6-.3a4 4 0 0 1 1-.6 5 5 0 0 0 1-.6l1.2-1a14 14 0 0 0 3-3.3l.4-.6a13.6 13.6 0 0 0 1.7-3.3c1-2 1-2 1.4-4.2a14 14 0 0 0-1.3-8.1c-.4-.7-.4-1 0-1.2l.8-.3a5.8 5.8 0 0 0 3.4-2.6l.2-.2-.3-.8-.2.1-.5.6a7 7 0 0 1-1.6 1.1s-.1.1 0 .2l-.3.1-.7.4-.7.5c-.3 0-.6.4-.9.7-.4.6-1.3 1.2-1.7 1.2l-.5.3-.8.5-.6.4-.1.1-.8.3a7 7 0 0 1-5 0 3 3 0 0 0-.7-.3l-.5-.3-.8-.6c-.5-.4-.6-.6 0-.6l1.3.5 1.2.5.5.1c.4.3 2.4.3 2.9 0l.6-.3.5-.2c.2 0 1.2-1 1.7-1.7.9-1.4 2-2.5 3.2-3a16.2 16.2 0 0 0 2.3-1l.4-.3.4-.2a7 7 0 0 0 1.7-1.7l.5-.6-.1-1h-.1l-.3.6s0 .2-.2.3l-.5.8c-.4.5-1.2 1.2-1.5 1.2l-.3.2c-.2.2-2 1.2-2.3 1.2-.5 0-2.6 1.6-2.9 2.2l-1.4 2-1.3.8-.3.1c-.4.3-1.3.5-1.7.4a9.4 9.4 0 0 1-3.6-1.3l-.8-.3c-.3 0-.8 0-1.1-.2a7 7 0 0 0-1.8-.3c-.7 0-1.3-.1-1.6-.3a5.6 5.6 0 0 1-2-2.2v-.4h.3l.6.3c.9.4 1.9.5 3 .3.3 0 .6 0 1.1.2l1.7.6.3.1.3.2.4.2.8.2c1.2.3 2.3-.1 4-1.6a26 26 0 0 1 4.2-3l.5-.3.5-.2.5-.2c.1 0 1.5-.7 1.8-1a6 6 0 0 0 2.2-3.5l.3-1.4c0-.4.2-.8.3-.9l.1-.5.1-.3.1-.3c0-.2.8-1 1.2-1.3l.5-.2.8-.6c0-.1.1-.5.6-1l.2-.4c-.2-.2-.2-.5 0-.7.1-.3 0-.3-.8-1.2l-.2-.4-.3-.1h-.1c-.4 0-.5-.2-.4-.3h-.9c-.3 0-.4 0-.4-.2s0-.2-.4 0c-.3.3-.6.3-.6 0H69c-.4.3-.7.3-.9.1-.1-.2-.2-.2-.3 0-.3.2-.3.2-.6 0-.1-.2-.2-.2-.3 0-.3.1-.4.1-.5-.2 0-.1 0-.2-.3 0-.2 0-.4 0-.6-.2l-.4-.2c-.2 0-.3 0-.3-.2s0-.2-.3-.2h-.3l-.2-.4c-.2 0-.3-.2-.3-.3 0-.2 0-.2-.2 0h-.3l-.1-.5c0-.1 0-.1-.2 0h-.3c-.2-.1-.3-.2-.2-.4h-.7c-.3 0-.4 0-.4-.2l-.4-.2-.4.2c-.2 0-.3-.1-.3-.3H60v.1c-.3.1-.8.2-.9 0h-.4c-.2.3-.5.5-.6.4 0 0-.1 0 0-.1l-.6.1-.8.4a1 1 0 0 0-.6.3l-.5.3-.3.1c0 .2-.5.6-.7.6l-.3.1c0 .3-.5.7-.8.6l-.3.7v.2l-.4.4-2.3 1.7c-.5.2-1.7 1.5-2 2l-.3.9-.3.7-.3 1.1c-.4 1.5-.7 2-1.8 2.9a3 3 0 0 0-.7.6l-.1.2c-.2.2-.7 1.7-.7 2.1 0 .6.3 1.3.8 1.8.6.6 1 1.7 1.3 3.1.3 1.4 1 2.5 1.8 2.8.2.2.8.2 1.8.2h1.5l.5.5 1.2 1.2c.8.7 1.5 1.3 1.9 1.3l.8.3.6.4h1.8c1.5 0 2 0 2.2-.2l.5-.2 1.6-.8.8-.7 1-.8c.2-.3.5-.5.5-.2l.6 1.4.6 1.4c0 .1 0 .4.2.6.2.4.2.7.2 2.5 0 1.9 0 2-.3 3.2l-.5 1.5-.5 1a13 13 0 0 1-1.7 3.3c-.2.3-.5.8-.8 1s-.6.9-.8 1.2c-.4.6-1.5 1.6-1.7 1.6 0 0-.2 0-.3.2a16.7 16.7 0 0 1-3.9 2.6c-.1.2-.8.5-1.5.9a218.1 218.1 0 0 0-2 .8c-.3 0-.5 0-.5.2l-.6.2-.7.2-.7.2-.4.2h-1.3l-.4.1H47.6L46 61l-2.8.2h-2.1c-.2.2-.8.2-1 0h-1c-1 0-2.1-.3-2.7-.6l-.6-.2Zm-7.3-5a1 1 0 0 0-.2-.2c-.2-.2-.2-1.5 0-1.9l.1-.4c0-.2 0-.4.2-.4.1 0 .2.4.2 1.3l.1 1.5c0 .4-.2.5-.4.2Zm35-27.6-.3.1q-.3 0 0 .1c.4.2.4.4 0 .5-.2 0-.3.2-.3.3 0 .2-.6.7-.8.7l-.3.1-.4.2-.6.5-.5.5-.3.1c-.1.2-.8.3-1.6.2-.4 0-.5 0-1-.5-.3-.4-.4-.6-.3-.7l-.1-.5v-.3c0-.1.1-.3 0-.4 0-.3.7-1 1-1 .3.1.3 0 0-.2-.2-.2 0-.5.3-.4.1 0 .2 0 .3-.2.1-.2.2-.3.4-.2.1 0 .2 0 .3-.3.2-.5.7-.3.8.3v-.1c0-.4.1-.5.3-.6h.8c0-.2.7-.2.8 0h.2c.2-.3.5-.1.5.1s0 .3.2.2c.3 0 .5.1.5.5l.1.3c.2 0 .2.5 0 .7Zm2.3 0-1 .2c-.4.2-.7.3-.8.2l.1-.5c.2-.4.2-.5 0-1 0-.2-.3-.6-.6-.8-.3-.4-.5-.5-1.2-.6-.7-.2-.8-.2-1.2 0a3 3 0 0 1-.6.1c-.5 0-1.6.5-2.1.9-.7.5-1 .7-1.5 1.4q-.4.6-.3 2v.8l.5.5c.5.5.5.5 1.2.6h.7l-.4.5c-.6.6-1.1.8-1.8.4-1-.5-1-.7-1.2-1.7l-.2-.6-.6-1c-.7-1-.6-1.6.2-3.1l.6-.6c.7-.5 1.6-.7 3-.8 1 0 1.5-.2 2.3-.6 2-.9 3.5-1 4.3-.5.4.2.6.4.9.9.2.3.2.5.2 1.1 0 1-.3 2-.5 2.1Zm3.7-7.2a6 6 0 0 1-.5.5c-.3.3-.4.4-.1.4.2 0 .2.3-.2.6-.3.3-.3.3 0 .4l.1.2c0 .2-.3.6-.6.6h.1c.3 0 .4 0 .4.3 0 .1 0 .2-.2.3s-.2.1-.1.3v.3c-.2.1-.2.2-.1.2.2 0 .1.5-.1.5s-.2.1-.1.3c0 .2 0 .2-.2.3l-.3.3c0 .2-1 1.2-1 1.1v-.4l.2-.6.1-.5v-.9l-.1-.5-.4-.6c-.2-.5-.7-.9-1-.9l-.4-.1c-.4-.3-1.8-.3-2 0h-.5l-.3.2c0 .2-.1.2-.3.2-.2-.2-.8 0-.9.3l-.3.1a1 1 0 0 0-.4.1c-.7.4-1.9.6-2 .3l-.2.1c-.2.2-.2.2-.5-.2a2 2 0 0 1-.4-.6c0-.2-.2-.4-.3-.5l-.2-.3-.1-.1c-.1 0-.2 0-.2.3s0 .2.2.2l.1.2.2.4c.2 0 .3.3.3.5v.2c-.3-.2-.3-.2-.5.1 0 .3-.1.3-.3.1-.1-.1-.2-.1-.2 0l-.6.4c-.6.3-.8.4-.9.7 0 .1 0 .2-.4.1-.5 0-.6-.2-.3-.4.1 0 .1-.2 0-.2l-.2.1c0 .2-.1.2-.4 0l-.4-.1.6.6.3.1c0 .1 0 .2.2.2s.2.1 0 .4l-.2.5v.6c0 .7-.4.9-1.3.8l-1.4-.2h-.9c-.3.1-.2.3.1.4l.4.2c.1.1.3.2 1.5 0h1.3l.2.2.3.6c0 .3.1.5.7 1 .1.2.2.4.1.6v.3l.2.4.1.4.2.2.2.2 1.1.6h.3c.1-.2.4 0 .4.2 0 .3-.2.4-.4.2h-.6l-.7-.2-.5-.1-.4-.2-.3-.2c-.1 0-.3 0-.5-.2l-.6-.3-.3-.3-.3-.1s-.3 0-.4-.2h-.3c-.4.2-.5.2-.6 0 0-.3-.1-.3-.3-.4-.3 0-.4-.1-.4-.3l-.3-.3c-.1 0-.2 0-.2-.2a1 1 0 0 0-.3-.4l-.2-.5v-.4a.4.4 0 0 1 0-.6c.1-.2.1-.2 0-.4-.2-.1-.2-.2 0-.3l.1-.4c0-.4.2-.5.5-.4.3.2.7.2.7 0h-.4c-.3 0-.4-.1-.3-.3 0-.2 0-.3.2-.3s.3-.1.3-.3c0-.2 0-.3.2-.3s.3 0 .4-.2l.3-.3c.2-.1.3-.1.6.2.1.2.3.3.4.3l.3.2c0 .2.4.2.4 0l-.2-.1a.7.7 0 0 1-.2-.2l-.5-.3c-.5-.3-.5-.5-.1-.6.2 0 .3 0 .3-.3 0-.2.1-.3.2-.3.2 0 .7-.5.7-.7l.1-.2.2-.2.6-1c.1 0 .2-.1.2-.3l.1-.2.2-.3.3-.3c.2 0 .3-.1.3-.3 0-.2.1-.3.3-.3l.4-.3.7-.4.6-.3c.5-.3.7-.2.7.3v.4l.2-.4v-.6c.1-.2.6-.2.7 0v.6c0 .5.1 2.8.2 2.7.2-.1.2-.8.1-2 0-1.2 0-1.5.4-1.2h.3c.3-.1.4.2.4 1 0 .6 0 .8.1.7v-.7c0-.4 0-.5.2-.6h.3c0 .1.2.2.3.1s.2 0 .3 0l.5.2.3.4v.2c0-.4.3-.5.5-.3h.8l.6.3.5-.1c.1-.2.2-.2.4.1.2.3.2.3.2 0 .2-.3.5-.5.7-.2.2.2.3.2.4-.1.1-.3.6-.5.9-.3H69c.1 0 .3 0 .4.2.2.2.2.2 0 .5Zm-24 7.1c0-.8.2-1.3 1.4-2.7 1-1.1 1-1.3 1.2-1.7l.3-1c.2-.2.3-.6.3-.8 0-.4.8-2 1.1-2.4.2-.1.3-.4.3-.5l.4-.3 1-.6.7-.6V17l.5-.5c.4-.4 1-1.2 1-1.5 0-.1.6-.8.8-.8l.5-.4.5-.3.5-.3.6-.4 1.4-.4c.4-.2.6-.2 1.8-.2 1 0 1.2.1 2 .4l1.8.9c1 .7 2.3 1.3 2.8 1.3l1 .1 2 .2c1.5.1 2 .3 2.7.8.4.2.4.3.4.7 0 .8-.4 1.4-1.8 2.4l-.8.7-.5-.3c-.5-.4-2-.5-2.4-.3-.8.4-1.6.6-2.2.5a7.3 7.3 0 0 1-2.5-.5l-1.6-.5c-1.1-.5-3.3-.1-4.6.8-1 .7-1.7 1.6-2.5 2.8a8 8 0 0 1-2.2 2.5 7.9 7.9 0 0 0-2.2 2.5l-.2 1.2c0 1 0 1.2.3 1.6.1.3.5.8.8 1 .4.5.5.6.3.6a4 4 0 0 1-1 .1c-1.1 0-2-.5-3-2-.8-1-1-1.3-1-2Z"/><path class="cls-1" d="m35 40.2-.6.1-.4.2-.3.2a4 4 0 0 0-1.3.8l-.1.5c0 .4.4.4.8 0 .6-.6.7-.5.7.7l.1 1.7c.1.5.1.5-.3 1-.3.2-.4.4-.3.5 0 .2.1.3.4.2h.3v1.1l.1 1.4V51.3l.2.1c0 .3.3.2.5-.1.2-.3.3-.4.2-.8l.1-.6v-.3c-.1-.1-.2-.4-.2-1v-1.4l-.2-1.2c0-.5 0-.6.4-1 .4-.3.6-.4.9-.4.4 0 .9-.3.7-.5l-.2-.1-.2-.2c-.1-.2-.2-.2-.5 0l-.6.3c-.2.2-.4.3-.5.2l-.1-1.5v-1.5l.2-.1a4 4 0 0 1 2 0c.4.1.7-.2.5-.7-.2-.4-1.5-.6-2.3-.3ZM41 27.4v.5l.1 1 .2 2.1.2 2.7c0 1.3.2 1.8.5 1.9.2 0 1.7-.2 2.1-.4 1.4-.9 1.6-2.8.6-5a7.1 7.1 0 0 0-1.3-2c-.5-.5-1.4-1-1.8-1-.2 0-.4 0-.5.2Zm1.5.9a4.3 4.3 0 0 1 1.3 2c.4.9.5 1.2.6 2 0 .9-.1 1.4-.7 2-.2.4-.3.4-.6.4h-.4l-.2-1.5a31.4 31.4 0 0 0-.4-3.1l-.2-1.4c-.2-.4-.1-.7.1-.7l.5.2ZM34.6 27.5V36l.2.3c.5.3.5.1.5-1.9l.1-1.9c.2 0 .7 1.5.8 2.3.2.9.5 1.9.8 2 .6.3 1 0 .7-.4-.4-.4-.5-.7-.7-1.8a7 7 0 0 0-1.1-2.9c-.2-.3-.2-.3 0-.5.4-.3 1-.9 1.1-1.2.4-.9.5-2.2.1-2.2s-.5.2-.5.7l-.2 1c-.2.4-.8 1-1 1V29l-.1-1.5h-.6ZM38 27.8v6.4l.2.6.7 1 .4.3.4-.5c.3-.3.4-.6.4-.7l.2-.3c.1-.1.3-2 .3-3.5v-1.8c.2-.3.2-.6.1-1-.1-.5-.3-.7-.7-.6-.2 0-.2 0-.2 2.5l-.2 3.4v1l-.3.1c-.4 0-.6-1.4-.6-4.5v-2.5c-.2-.2-.4-.2-.6 0ZM22 27.9l-.1.6-.3 1.3c-.4 1.5-.5 1.9-.5 3.1-.1 1.1-.2 1.7-.3 1.3-.3-.8-.5-1.9-.6-3.3-.2-1.9-.3-2.3-.9-2.2-.2 0-.3 0-.4.5 0 .4 0 .9.3 2a47.5 47.5 0 0 0 1.2 4.8l.1 1.2c.1.5.4.7.7.5.2 0 .2-.3.2-1.4l.1-2.2.3-1.7c.1-1.1.3-2.2.7-3.3.3-1 .2-1.3-.2-1.3H22ZM31.8 28.2c-.7.6-1.1 2-.9 2.8.1.3.4.7.8 1 .4.3.8.9 1 1.2.3.6.3.8.3 1.5 0 .8 0 .9-.3 1.4-.3.4-.4.6-.6.6-.3 0-.6-.4-.8-.7-.1-.5-.7-.3-.7.2 0 .4 0 .5.6 1 .7.4 1.3.4 1.7 0 .6-.5.8-.6 1-1.3l-.1-1.8c-.2-1.2-.4-1.5-1.3-2.4-.4-.4-.8-1.4-.8-1.8 0-.3 1-1.1 1.3-1.1s.6-.2.6-.5c0-.2-.2-.3-.9-.3-.4-.1-.5 0-.9.2ZM23.4 28.4c-.3.6-.4 1.4-.4 5.1v3.7h.5l.1-2.3.2-4c.2-2.6.2-2.7 0-2.7-.1 0-.3 0-.3.2ZM24.8 29c-.2.3-.2.4-.3 1.8A43.8 43.8 0 0 1 24 37c-.1.8 0 .9.9.4l1.3-.5c.5-.2.6-.3.6-.5l-.3-.4c-.3-.1-.3-.1-.7.1l-.7.3c-.2 0-.2-.1-.2-.5l.1-.8.2-1.3.2-1.8.2-2v-1.1h-.3c-.2-.1-.3 0-.5.1Z"/><path class="cls-1" d="m27.5 29.1-.3.4v2.3a136.7 136.7 0 0 1 .3 4.8c.1.1 1.2.2 1.6.1.4-.1 1-1 1.3-2 .4-.9.4-1.7.2-2.4-.3-.7-1.5-2.4-2-2.9-.5-.4-.7-.4-1-.2Zm1.3 1.7c.7.8 1 1.8 1 3l-.2.9-.2.5c0 .3-.2.5-.4.7-.4.3-.4.3-.7.1l-.1-2.8v-3c0-.2.1 0 .6.6ZM19 37v.5c-.3 0-.5-.2-.5-.5-.1-.3-.2-.4-.5-.3s-.2.2.1.7c.2.3.3.5.3 1.2l.1 1c.2.3.6 1.9.5 2-.1.2-.5-.1-.6-.5 0-.4-.3-.5-.4-.2v.3l-.2-.3-.3-.2c-.2.2 0 .6.4 1 .3.2.7.7.8 1 .3.6.4 1 .1.8-.3-.3-1.7-.3-1.7 0l.7.2a5 5 0 0 1 2 .6l.8.4c.5.2 1.5 1.2 2 2.2l.8 1.6a13.7 13.7 0 0 1 1.2 3c0 .4.3 1.3.5 1.7l.5.9c.4.8.6 1 .8 1l.1.2.2.2c.2 0 .2-.2-.1-.5-.4-.5-.6-1-.4-2l.2-1 .1-.3.6-1.2c.7-.7 1.1-1 1.5-1.2.4-.2.5-.2.5.2l.2.4.1.6c0 .4 0 .5.3.6.2 0 .3.1.2.3v.5c0 .2-.1.2 0 .2v-.2l.3-.4c.3-.3.3-.5 0-1l-.7-1.1-.5-.8c-.3 0-.7.1-1.2.6l-.5.3v-.3c.2-.2.3-2 .2-2.4-.1-.6-.4-1-.6-1-.2.2-.2.6 0 1 .2.5.2 2.2 0 2.3l-.1.5a5 5 0 0 1-.7 1.8c-.2.3-.3.6-.3 1.1v.7l-.3-.2c-.1-.2-.3-.5-.3-.8l-.2-1.5c-.2-.9-.2-1.1 0-2.1.3-2.4.6-3.2 1.9-4.5.3-.3 1-.6 1.6-.9.2 0 .2-.1 0-.4 0-.2-.7 0-1 .3-.2.2-.4.2-.5.1l-.1-.7c0-.5 0-.8-.2-1l-.2-.8c0-.4 0-.5.4-.8.4-.5.5-.5.2-.6-.2 0-.3-.2-.3-.2h-.2c-.2 0-.3 0-.4-.2 0-.2-.4-.2-.6 0 0 .2 0 .3.2.5.4.3.5.7.3.8h-.3c-.3-.6-.4-.7-.6-.7-.4 0-.4.4 0 .7.3.2.6.4.7.9l.4.8c.3.5 0 2.3-.4 2.5-.2.2-1 1.4-1 1.8-.2.3-.3 1-.4 1.6 0 1-.1 1-.3 1l-.2-.3v-.4l-1.2-2c-.4-.8-.5-1.3-.5-3.7 0-1.3 0-1.6-.2-1.6l-.3.3c0 .4-.2.5-.5.5s-.3.1 0 .5l.4.5v2.2l-.7-.5-.8-.5-.4-.3c-.3-.4-.4-.5-.4-1.2 0-1.4 0-1.4.6-2l.7-.7.4-.2.4-.2c.2 0 .2 0 0-.2-.1-.1-.1-.2 0-.4.2-.4.1-.6-.2-.6l-.4.6c-.4.7-.6.8-.5.2 0-.6 0-.7-.2-.7s-.3.5-.2 1c0 .3 0 .4-.2.6-.4.4-.6.4-.8-.1-.2-.6-.2-.8.3-1.5l.4-.6-.2-.5c-.2-.7-.4-.7-.4 0ZM55 39.9c-.1.2-.2 1.3 0 1.4l.1.9c.3 2.7.4 5 .4 6.1v1.3h.3l.7-.1c.7-.3 1.2-.5 1.7-.5.9 0 1.3-.4.8-.7-.2-.2-1.2-.1-1.8.1l-.7.2h-.3v-2a26 26 0 0 0-.4-6.2v-.6h-.4l-.4.1ZM43.5 40.4c-.6.1-.8.3-.6.6l.7.2h.4v8.4c-.1.6.1 1 .6.8.2-.2.3-1.8.4-5.7v-3.5h1.8l-.1.7-.4 5.9c0 2.3 0 2.5.4 2.5.3 0 .5-.8.4-1.4v-1.3a39.8 39.8 0 0 0 .3-6.9c-.2-.1-.3-.2-.4 0l-.5-.1c-.2-.2-.4-.3-1.3-.3l-1.7.1ZM53.6 40.6l-.1.2-.4.9a6 6 0 0 0-.4 1.2l-.4 1.2a39 39 0 0 1-.9 3.7c-.3 1.2-.3 1.4-.2 1.5.3.3.6 0 .7-.5l.4-1.4c0-.5.2-1 .3-1.2 0-.4.6-1 1-.9h.3v1.5c0 2.1 0 2.8.2 3 .2.1.2 0 .4-.1.2-.2.2-.4.2-1.5a47.2 47.2 0 0 0-.3-5.3c0-2.3-.1-2.5-.8-2.3Zm.2 2.8c0 1.2 0 1.2-.2 1.3l-.6.1c-.3.1-.3.2.1-1.3.5-1.8.7-1.9.7-.1ZM41 40.9l-.5.5c-.1.2-.2.3-.5.2-.2 0-.6 0-1-.2l-.8-.1c-.1 0-.3 0-.4.2-.2.3-.3.4-.2 2v1.7l-.3.2c-.4.3-.3.5 0 .6h.4v2.2c0 2.3 0 2.7.5 2.7l.5-.4.9-.6c.6-.3.7-.5.4-.8h-.7l-.7.1v-1.7c0-1.8 0-1.8.7-1.8.6 0 .8-.2.7-.6-.1-.2-.2-.3-.5-.3-.1 0-.3 0-.4.2h-.3c-.2 0-.2 0-.3-.8V42.4h.8l1 .1.2.3.5.6.5.7.3.5.5 1c.2.4.2.7.1 1.6 0 1.6-.4 2.1-.8 1.3-.3-.3-.6-.5-.8-.4v.6c0 .7.4 1.1 1 1.3.4 0 .7-.2 1-.9.3-.6.3-.7.3-2 0-2-.3-2.6-1.4-4-.4-.5-.6-.7-.6-1 0-.4.4-.7.8-.5.6.2.9-.2.4-.7-.3-.3-.9-.3-1.3 0ZM51.4 41l-.2.5-.1.2c-.2.2-.7 1.6-.8 2.5a13 13 0 0 1-.4 1.9c0 .3-.2.5-.3.3l-.1-1.7c-.1-1.4-.4-2.9-.7-3.5-.1-.3-.5-.3-.6 0 0 .2 0 1 .4 2l.3 2c0 .8.2 1.6.3 1.8V49.9h.3c.5.2.7-.1.7-.8l.4-1.9.3-1.7c0-.7.9-3.7 1.2-4.1.2-.3 0-.7-.3-.7-.2 0-.3 0-.4.3ZM60.1 20.3v.3-.7.4ZM57.4 20c-.2.2-.2.8 0 1 .1 0 .2.2 0 .7v.6c.1.2.3.1.3-.2 0-.2 0-.4.2-.4.3-.2.3-1 0-1l-.3-.4c0-.4-.1-.4-.2-.3ZM61.3 20.1v2.1c.3.4.4.2.3-.8 0-1.2-.2-1.5-.3-1.3ZM67 20.8l-.6.8c0 .2-.1.3-.2.3v.1c0 .3 0 .2.5-.3l.5-.5.6-1c0-.1-.3 0-.7.6ZM67.7 21.2a7 7 0 0 0-.8 1l.4-.1.8-.8c.6-.7.8-1 .6-1l-1 .9ZM58.8 20.5l-.2.8-.2.9c-.2 0-.2.3-.1.6v.6c.2 0 .4-.1.4-.4v-.5c.2-.2.2-2.2 0-2ZM56.5 20.7v.4c0 .2 0 .2.1 0 .1-.1 0-.6-.1-.4ZM66.2 20.9l-.2.2c-.1 0-.2.3-.1.4l.3-.4.1-.4-.1.2ZM65.2 21.1c0 .3 0 .5.2.3v-.3c-.1-.2-.1-.2-.2 0ZM55.7 21.3l.2.3.2.3v.2c.3.2.3 0 0-.5-.2-.5-.4-.7-.4-.4ZM60.7 21.3v.9c.3 0 .3-.3.2-.8-.1-.3-.1-.3-.2 0ZM62.3 21.4v.9c.2.2.3-.5.2-.9-.1-.2-.1-.2-.2 0ZM63 21.5v.2-.3.2ZM63.6 21.5v.5c0 .2 0 .2.2 0s.2-.8 0-.8l-.2.4ZM64.5 21.3l.1.3.1-.2c0-.2 0-.3-.2 0ZM56.7 21.8c0 .2.1.3.2.3v-.7c-.2 0-.2.1-.2.4ZM65.5 21.8l.1.3.2-.2c0-.3-.2-.3-.3 0ZM68 22l-.4.2-.3.3c-.2.1-.3.2-.2.3l.3-.1.2-.2.2-.1.1-.2.4-.3c.2-.2.2-.2 0-.2l-.4.2ZM55.4 22c0 .2 0 .3.2.4l.1.2.2.2.1.2.2.3.2.4c0 .1.1.2.2 0 .1 0 .1-.1 0-.2a.5.5 0 0 1-.2-.4l-.1-.2s-.2-.1-.2-.3-.2-.3-.3-.3l-.1-.2c0-.3-.3-.3-.3 0ZM55 22.7l.3.3.1.3c0 .1 0 .2.2.2s.2 0-.1-.5c-.2-.4-.4-.5-.4-.3ZM57.8 23l.1.4c.1 0 .2-.3.1-.6 0-.3-.2-.2-.2.2ZM67.5 23s0 .2.2.1v-.3l-.2.1ZM54.8 23.3c0 .1 0 .4.2.4s.1-.4 0-.5h-.2ZM67.5 23.7l.2.1c.3 0 .3-.3 0-.3 0 0-.2 0-.2.2ZM55.7 23.7l.1.3.2-.1-.1-.3-.2.1ZM54.4 24.1l.1.2.2-.2-.2-.1v.1ZM67.1 24c0 .3.3.3.3.1 0 0 0-.2-.2-.2s-.1.1 0 .2ZM51.6 26c.1.2.2.2.3 0s0 0-.2 0-.2 0-.1 0ZM52.1 26.3l-.4.2c-.4 0-.4.2 0 .3l.4-.1.4-.2c.4 0 .4-.2 0-.3l-.4.1ZM52.9 26.7l-.4.1c-.2 0-.3.1-.3.2l-.5.1c-.5 0-.5.2 0 .3h.6c0-.2.2-.3.3-.3l.2-.1.3-.2h.3c0-.2 0-.2-.2-.2l-.3.1ZM52.5 27.6l.3.1.3-.1-.3-.1h-.2ZM50.5 29.2c-.2.1-.2.1 0 .1H51.7c-.3-.2-1-.2-1.2 0ZM52.1 29.5c0 .2.2.3.6.3.5 0 .3-.3-.1-.3H52ZM51.1 29.9h-.4l.5.2 1 .2h.2l-.6-.3-.7-.1ZM53.4 30.1c.3.2.5.3.5.1 0-.1-.3-.3-.5-.3H53l.3.2ZM52.9 30.6l.2.1.2-.1c0-.1 0-.2-.2-.2l-.2.2ZM52 30.9h.5c0-.2-.2-.2-.5 0ZM53.7 31l.2.2.2-.1c-.1-.2-.5-.3-.4 0ZM62.3 26.6v.2s.3 0 .3-.2-.2-.1-.3 0ZM59.4 26.9c-.1.1 0 .2 0 .2h.2c0-.2-.1-.3-.2-.2ZM60.7 27c0 .4 0 .4-.4.5H60c0-.3-.1-.3-.4 0-.3.2-.3.2-.1.3.2 0 .2.3-.1.3H59c0-.2-.7-.2-.7-.1s.8.5 1 .5l.3.1c0 .1 0 .2-.4.2h-.6s-.2.2-.5.1c-.5 0-.6.2-.1.3.2 0 .2 0 .1.2-.1.1-.1.4 0 .4l.2-.2c0-.3.4-.3.4 0s.3.3.7-.1c.4-.3.7-.4 1-.3.2.2.7.3 1 0h.2c.2 0 .3-.5.1-.6l-.3-.1c-.4-.1 0-.8.5-.8l.3-.1-.1-.1-.2-.1c0-.2-.2-.2-.4.1-.3.4-.8.4-.8 0l.1-.2.1-.2v-.3c-.1 0-.2.1-.2.3ZM62 27c-.1.1 0 .2.1 0 .1 0 .1 0 0-.1H62ZM62.5 27.3c-.2 0-.2 0 0 0h.3c0-.2-.1-.2-.3 0ZM24 56.4l.2.4.2.3c-.2.1-.8 0-1-.1-.3-.3-.6-.2-.5 0 .1.5 2 .7 2 .1l-.8-.8h-.2ZM58.3 66.2l.2.2.2.2c.1.4.4.8.5.8l.1.2.2.3.1.2.2.3c.1 0 .5.7.5 1l.1.1.2.3.2.2.1.2-.1.2c-.1 0-.2-.1-.2-.3s0-.2-.1-.2-.2 0-.3-.2c0-.2 0-.2-.1-.1-.2 0 0 .4 0 .4l.2.2.1.2.2.3.1.2.3.3c.1.2.1.2.2 0s.4-.2.4 0l.1.2c.1 0 .2 0 .2.2 0 0 0 .2.2.3s.1.2.1.3l.2.1.2.3.1.2.2-.2-.1-.3c-.1 0-.2 0-.3-.2l-.2-.3v-.2l-.3-.2-.1-.2-.3-.5-.4-.5-.1-.3a.5.5 0 0 1-.2-.3v-.2l-.3-.2-.2-.4c-.4-.4-.4-.5-.4-.7l-.2-.2-.2-.2-.1-.2-.2-.3-.1-.2c-.1 0-.2-.1-.2-.3l-.1-.2-.3-.3c0-.3-.2-.3-.2 0ZM55.8 66.5l.1.3.1-.3-.1-.2c-.1 0-.2 0-.1.2ZM55.5 67.2c-.1.1 0 .3.1.1.1 0 .1-.1 0-.2h-.1ZM55.8 67.6c-.1.1 0 .5.1.5s.2-.1.2-.3c0-.3-.1-.4-.3-.2Z"/><path class="cls-1" d="m61.6 72 .1.4.4.5.7.9c.2 0 0-.4 0-.5-.2 0-.2-.1-.2-.2l-.1-.2-.3-.3c0-.2-.1-.2-.2-.2V72c0-.2-.3-.2-.4 0ZM63 72.9v.3c.1.1.2 0 .1-.3 0 0-.1-.1-.2 0ZM33.4 67v.5c.3.1.3.8.1 1l-.2.4-.1.3-.2.4-.1.4-.2.3c0 .1 0 .4-.2.5s-.1.2-.1.4l-.2.3-.1.4-.2.5-.2.5-.1.5-.2.4-.1.5c-.2.2-.5 1.1-.5 1.5 0 .4.2.3.3-.2 0-.1 0-.4.2-.4l.1-.5c0-.2 0-.3.2-.3l.1-.5.2-.5.2-.5.1-.4.2-.5.1-.4.2-.4c0-.1 0-.3.2-.4s.1-.3.1-.4c0-.2 0-.4.2-.4l.1-.4.2-.3.1-.3.2-.5.2-.6.1-.4.2-.4c0-.3 0-.4-.2-.4s-.1.1-.1.4 0 .4-.2.4-.2-.1-.2-.3c0-.5-.1-.6-.2-.2ZM53.5 67.8c0 .2 0 .3.2.3 0 0 .1 0 0-.2l-.1-.4-.1.3ZM53.8 68.6l.2.4v-.7c-.2 0-.2 0-.2.3ZM53 69c-.2 0-.3.5 0 .7l.2.9c0 .7.1.7.2.4l.3-.6c.1-.2 0-.7-.2-1l-.1-.4c0-.2 0-.2-.4 0ZM54.5 72.6c-.1.2 0 .5.1.6.2 0 .2-.4 0-.6 0-.2 0-.2-.1 0ZM51.2 69v.9l.3.5.2.8.1.5.2.6.2.8.1 1 .2 1.1.1.8.2.9c0 .4.1.7.4.7.1 0 0-1.4-.2-1.8l-.2-.9a18.6 18.6 0 0 0-1-4.5l-.1-1-.3-.7c0-.6-.2-.3-.2.4ZM47.3 69.8l.1 8.8c.2.4.3-.3.2-3.7 0-3.9 0-5.8-.2-5.8l-.1.7Z"/></svg>