<svg version="1.1" id="Lag_1" xmlns="http://www.w3.org/2000/svg" x="0" y="0" viewBox="0 0 55 50" style="enable-background:new 0 0 55 50" xml:space="preserve">
  <style>
    .st0{fill:#ff6445}.st1{fill:#2f6457}.st2{fill:#fff}
  </style>
  <path d="M-81.5 17.9c0 .5.2 1.3.6 2.2.3.5.6 1.1 1.4 1.5.9.6 1.5 0 2.5.2 1.9.3 1.9 2 4 3 1.7.9 3.4.6 4.2.4 1.7-.3 2.8-1 4.2-1.9 1.4-.8 1-1 3-2.3l3.2-2.3c.9-1 1.2-2.3 1.3-2.7.3-1.5-.3-1.6 0-3.8l.3-3v-.8c.3-1.8 1.1-2.7.9-3-.3-.1-1.7.8-2.5 2.4-1 1.6-.1 2.3-1 4 0 .2-1 2.3-3 3.1l-2 .7-2 1.3c-1.4 1-2.2 1.5-2.7 2-1 1-1 1.4-1.6 1.6-.7.2-1.4 0-2.5-.4-1.2-.4-1.3-.7-2.2-1h-1.7c-.4 0-1.1 0-2.2-.4"/>
  <path d="M-83.4 13.8c.2-1 1-1 2.1-2.7 1.3-1.8 1-2.4 2-4.3.4-.7.6-.8 4-4.2 2.7-2.7 3-3.1 3.9-3.5a8 8 0 0 1 6.6.5l1.7 1c.2 0 .8.4 1.7.6 1.7.4 2.2 0 4 .4.9.2 1.4.4 1.7.8.6.8.3 2 .2 2.2-.4 1.3-1.6 2.3-2.6 2.3l-.6-.2-1.8-.4c-1.2-.1-1.4.4-2.6.6-.8 0-2-.2-4.2-.9-1.3-.4-1.4-.5-1.9-.5-1.4 0-2.4 1-2.9 1.3-.9.8-.7 1.1-2.1 2.8a15 15 0 0 1-2 2.2c-1 .9-1.6.9-2.1 1.7-.5.9-.5 1.7-.5 2 0 1.2.7 2 .9 2.2l1 1.1c-.1.3-1.3.4-2.4 0-2.2-.6-4.4-3-4.1-5zM-116.2.4c-.1.1-.2-.1-.3-.7-.2-.6-.3-.7-.6-.9-.3 0-.3.1 0 .6l.3.6c0 .2-.3 0-.3 0 0-.2-.2-.2-.3-.2-.4 0-.3.2.1.4.3 0 .5.3.6.3l.2.6h.5V.7l-.2-.3zM-115-2.8c-.9 1-1.1 1.5-1.1 2.4v.7c0 .1 0 .2.2.3 0-.3.3-.5.7-1 .6-.6.7-.6.8-1.4.2-1.7.2-1.8-.6-1zM-119.3 2.9l.3.1h.2l.5-.1h.5v-.5l-1.7.1.2.4c-.1 0 0 0 0 0zM-78.4 50.5c-.5-.5-.7-.6-1.3-.8l-1-.3-.5-.2h-.1c0 .3-.2.5-.5.5h-.3c.2 1 .3 1.2.7 1.5.3.3.4.3 1.7.3h1.5c.3 0 .3 0 .3-.2s0-.4-.5-.8zM-80.4 47.1h.2v-.8l-.2.6v.2zm-1.7 1.9h-.6l.8.4v-.2l-.2-.2zm36.3-10 .8-.4.3-.7.3-.5c0-.3-.3-.2-.5.1l-.3.5-.1.2-.6.7.1.1zM-42 41.1c-.2-.6-.5-.9-1.3-1.2-.4 0-.7-.2-1-.3h-.1l-.6.2-.2.1.2.9c0 .5.3.8 1.1 1 .5 0 .8.2 1 .5l.5.5c0 .2.4.3.6.2 0-.1 0-1-.2-1.9zm-38.4-.2c0 .1 0 .3.2.5.2.5.1 1-.6 2-.2.2-.3.5-.3.8 0 .2.7 1.7 1 2 .1.1.1.1.2 0l.1-.5.4-.8c.3-.5.3-.6.3-1.4-.1-1.4-.3-2-.7-2.4-.3-.3-.6-.4-.6-.2zm5.5.3c-.2 0-.4 0-.7.3-.7.8-.8.8-.9.8-.2 0-1.4 1-1.5 1.2-.2.7-.2 1.3 0 2v.5l-.2.2.1.1 1.3-.9c.7-.3 1-.9 1.2-1.6l.2-.7.5-1.5v-.4zm-45.5-46.3.2.4c.1.3.2.5.2 1.3 0 .9 0 1 .3 1.2l1.6.7.4.2h.2s-.3-1.2-.5-1.4v-.4c0-.3-2-2.3-2.2-2.3l-.2.1v.2zm3.5.3c-.5 1.4-.6 1.7-.3 2.1l.4.6c.2 0 .3 0 .4-.3.3-.6.3-1.3.1-2-.1-.9-.4-1-.6-.4zm-4.2 3.5-.1.2c0 .1.4.5.6.5l.3.2c.3.4 1 .8 1.3.8.3 0 .9-.4 1-.6 0-.2-.4-.7-1-1a7 7 0 0 0-2.1-.1zm-.9 2 .3.9.1.5c.1.2.7.4 1.4.4.5 0 .5 0 .5-.3 0-.4-.4-1.1-.6-1.1l-1.2-.6-.4-.2-.3-.1.2.5zm.3 2.4c-.6.3-.1 1 .7 1 .3 0 .5-.2.8-.5.5-.4.4-.5-.5-.6h-1v.1zm-6.2 2.2c0 .2.2.4.3.5.2.2.2.6.3 1.3 0 .9.4 1.7.9 2s1.5.3 2.3 0c.8-.2 1.1-.1 1.3.4.3.7.4.7.6.8.5 0 .2-.7-.4-1.3-.2-.3-.4-.6-.4-1-.2-.8-.3-1-1-1.7-.5-.5-.6-.6-1-.6-.5 0-1.6-.3-2-.6l-.8-.2c-.2 0-.2 0-.1.4zm2.7 2.2c0 .2-.3.1-.3 0s0-.2.1-.1l.2.1zm.5 3.7-1 .8-1 .8c-.7.3-.5.8.2.8.3 0 .6 0 .8.2l1 .1c.6 0 .6 0 1.3-.7l1-1 .4-.1-.3-.2-.6-.3c-.3-.3-1-.6-1.3-.5l-.5.1zm86.2 6.5-.8.2-.8.2-.3.1c-.6 0-1.7.7-2.2 1.7-.2.4-.2 1.4 0 2 .2.3.2.3.8.2l.7-.1.3-.2a2 2 0 0 0 1.3-1.2 9 9 0 0 1 1.1-2.2c.4-.4.6-.7.5-.8l-.6.1zM-42.9 22.9c-.3.6-.3 1 0 1 .2 0 .5-.6.5-1.2s-.2-.6-.5.1v.1zM-40.5 30.9l-.6.4-1.5.7c-1.2.5-2 1.6-2.1 2.7-.1 1 .2 2.5.5 2.4l.9-.3c1.3-.5 1.7-.8 2-1.3s.6-1.4.8-2.5l.2-.5.2-.4.3-.7c.6-.8.2-1-.7-.4v-.1zm-1.7 3.1c0 .5-.4 1-.8 1s-.2-.7.1-1c.5-.5.7-.5.7 0zm3.4 2.9-1.8.1c-1 0-1.3 0-1.7.3-.5.2-1.2.7-1.2.9l1 .5.5.1.5.3.3.1c.1.2.8.2 1.2 0l.4-.4.8-.8c.6-.5 1-1 .9-1.2l-.2-.1-.7.2z"/>
  <path d="m-44.9 21.4-.2-1.6c-.1-.7-.3-1.4-.6-2l-.2-.8c-.1-1.4-.5-2.7-1-4 0-.2-.3-1.2-.6-1.7-.8-1.2-1.4-2.4-1.9-3.7l-.6-1.4a158 158 0 0 0-9.4-10.6l-1-.7c-.3 0-1.4-.5-1.8-.9a7 7 0 0 0-1.7-1.3l-.2-.1-.4-.2c-.2-.2-1.1-.5-1.3-.5l-.2-.1c-.7-.5-1.6-.9-2.4-1.2l-1.3-.5-.9-.3-.7-.3-.8-.3-.6-.2-.3-.2-.1-.1-.5-.2-1.5-.6-.2-.1-.6-.2-.6-.1a67 67 0 0 0-15.5 0l-1 .2a11 11 0 0 0-3.6.8l-.6.1c-.7.1-2 .7-4.9 2.1a32.6 32.6 0 0 0-11.2 9c-.7.7-2 2-2.5 2.3 0 .2-.2.2-.4.2v.4c0 .2-.3.2-.5 0l-.1.5c0 .2 0 .4-.4.7l-.8 1.3-.5.8-.1.2-.1.3-.3.4-.1.3-.6 1.2-.4 1c-.3.5-.5 1-.6 1.6l-.4.7c-.1.3-.3.5-.4.5-.2 0-.2.1-.1.3.1.2 0 .3-.6 1.7l-.3 1-.1.4-.4 1.2-.4.8-.4 2.3-.2.9-.1.4-.2 1.2c-.3.8-.3 1-.2 2.4l.3 5.6c.8 4.3 2 8.5 3.6 12.6l.5 1 .5 1 .5.9.9 1.7c1.6 3 3.7 5.7 6.2 8l1.7 1.4 1.7 1.1.7.6 1 .6a28 28 0 0 1 4.6 3l1 .4c.4.3 1 .5 1.3.6l.9.3c.6.3 1.3.6 2 .7l.3.1.5.2 1.2.3 1 .3c.2 0 .6 0 .9.2 1 .4 2 .6 4.2.9l2 .3c2.1.4 4.2.4 6.3 0l1.8-.3 2.1-.4c.7 0 1.4-.2 1.7-.3h.6l.5-.2 1.2-.3c1-.2 2-.4 2.9-.8l.9-.5c1.9-1.5 4-2.6 6.3-3.5 1.2-.6 2.4-1.3 3.4-2.2 2-1.3 3.7-2.9 5.2-4.7l2-3 1.2-1.9.5-.6c.6-.7 1-1.5 1.2-2.3v-.3l.2-.5.6-1.2.5-1.1v-.3l.4-1 .5-.9.2-.2.1-.7v-.2c.3 0 .8-1.6.9-2.6.2-1.7.5-3.4.9-5l.2-1.2c.3-3 .2-6.1-.2-8.9zm0 3.6c-.2.1-.6.2-3 .2h-3c.1-.2.5-.2 1.5-.3l1.7-.2 1-.1c.4 0 .8 0 1-.2.6-.2.6-.2.7.1v.5h.1zm-.2-1.8.1.5c0 .2 0 .2-1.2.4l-1.6.2-.8.1-1.3.2c-.5 0-1.3 0-1.9.2l-2.7.2-.5.1h.5l1.6.2h1.3c.2.2-.4.3-1.6.3h-1.7c-.2 0-.2 0-.2-.3v-.4l.6-.2 1-.2.8-.1c.4 0 1 0 1.4-.2l1.2-.1.7-.2 1-.2c1.1 0 2.6-.3 2.7-.4.2-.2.6-.1.6-.1zm-.2-1c0 .3 0 .4-.5.5l-1.2.3c-1.6.1-2.5.3-2.9.5l-1 .1c-.3 0-.7 0-.9.2l-.8.1-1.5.2c-1.1.2-1.3.2-1.1-.2 0-.3.1-.3.7-.3.3 0 .8 0 1.1-.2l1.1-.1c.3 0 .8 0 1.2-.2l1-.1.9-.2.8-.1 2.2-.5c.6-.3 1-.2.9 0zm-10 .7 1.6.1c.1.1-.2.3-.9.3s-.9-.1-.7-.4zm9.7-2.3c0 .3 0 .3-.5.4-.5.1-.4.3.3.3.9 0 0 .5-1.2.7l-1 .2h-.9l-.8.2-.7.2c-.3 0-.7 0-1 .2-.6.2-2 .2-2 0 0 0 .3-.2.8-.2l.8-.2 1-.2c.4 0 .9 0 1-.2h1c.5 0 .8-.1.8-.2l.6-.2.6-.2c.1-.2-1.1-.2-1.4 0l-.9.2-1 .1-.7.2c-.3 0-.7 0-.8.2l-1.1.1c-.5 0-.8 0-1 .2 0 0-.4.2-1 .2s-.7 0-.8-.2c0-.1.2-.2.8-.2l1.1-.2.8-.1c.3 0 .7 0 .8-.2l.8-.1.7-.2.8-.1 1.1-.2 2.3-.7c.4-.2.7-.1.7.2zm-.3-1.7v1l-.7.2-.8.2-.4.1c0 .1-.3.2-2 .5-.9.1-1.8.3-2.6.6l-.7.1-1 .2c-1 .3-2 .1-1.6-.4l.5-.1c1.1-.1 2.1-.3 3.1-.7 1.2-.2 2.4-.6 3.6-1l2.1-.6.2-.1c0-.2.2-.2.3 0zm-.7-2.2c.2.1.2.2 0 .4s-.4.2-.7.2c-.1 0-.3 0-.4.2l-1.3.5-.4.2c-.2.1-.8.1-.8 0l.4-.2c.1 0 .3 0 .4-.2l.3-.1.4-.2.3-.2.5-.1.5-.2.4-.3h.4zm-.1-.5-.2.1-.2.2-.4.2-.4.1-.4.2-.5.1-.4.2c-.1 0-.3 0-.4.2l-.3.1-.6.2-.5.3h-.2c0 .1-.1.2-.3.2l-.6.1-.6.3c-.5 0-.4.2.3.2l.6-.1.3-.2.3-.1c0-.2.2-.2.5-.2.4 0 .5.2 0 .3l-.4.2-.4.2c-.4 0-.4.2 0 .3.3 0 .6 0 1.4-.5l.6-.2h.3l.9-.4 1-.4.3-.1s.2 0 .2-.2c.1-.2.5 0 .6.2 0 .5 0 .8-.5.9l-1 .3-2 .6-.5.1-.4.1-.7.3-1.1.2-1.2.3-.9.2c-1.2.4-1.6.3-1.5-.2 0-.2 0-.3.6-.3l.7-.1.7-.1.8-.2.6-.2c.4 0 .8-.1.6-.2l-2.1-.4c-.5 0-.6-.3-.1-.3l.6-.2 1-.4 1-.3 1.2-.5c.4 0 1-.3 1.5-.5l1.4-.6c.4-.2.8-.2.8 0zm-9.5 3.7c-.1-.2 0-.4.3-.4.2 0 .5 0 .6-.2l1-.1h1c0 .2-.2.3-.7.3-.4 0-.7.1-.7.2-.2.2-1.4.3-1.5.1v.1zm8.4-8c.1.3 0 .7-.2.7l-2.5 1.3-1.3.6-.8.4-.9.4-.6.3-.6.3s-.2 0-.3.2l-.3.1c-.1 0-.3 0-.3.2l-.3.2-.2.1c0 .2.4.2.6 0l.4-.1c.2 0 .3-.1.3-.2l.5-.2.7-.3.5-.3.4-.2 1-.5 1-.5.7-.4 1.5-.7c1-.5 1.2-.5 1 0 0 .2 0 .3-.2.3l-1.3.5-4.6 2.2-.3.1-.6.3-.7.4-.5.1-.3.2-.3.1-.3.2c0 .2.3.2.7 0l2.3-1 .2-.1.3-.1.6-.3c.6-.2 1.5-.6 4-1.9 1.2-.6 1.4-.6 1.5 0 0 .3 0 .3-.3.3l-.5.1-.4.2-1.8.8-.5.2-.2.1c-.2.2-.8.4-1.3.5-.7.2-1.4.6-2 1h-.3c-.2 0-.3.2-.3.2 0 .2.3.2.5 0l.4-.1.4-.1.5-.3 1.4-.5.3-.1.5-.2.8-.3 2.3-1c.5-.3.6-.3.6.2 0 .2 0 .3-.2.3l-1.4.5-.7.3-1 .4-1.8.6-.4.1-.4.2-.5.2-.5.1-.4.2-.4.1-.3.2-.4.2c-.6.4-1.3.6-1.3.3 0-.2.3-.5.5-.5s.3-.1.3-.2c.1-.2-.5-.2-.5 0-.1.2-.6.3-.7 0v-.2c.2 0 .1-.2 0-.2-.3-.2-.1-.5.3-.7.3-.2.3-.2.1-.3-.4-.2 0-.8.8-1l.3-.2 1-.6c2.2-1 4.4-2.2 6.5-3.4l.1.2h.1zm-.4-.8c.1.1 0 .5-.2.5l-2.6 1.3-1.9 1-1.1.6-1 .6-.8.4c-.2.2-.4.3-.5 0-.1-.2.3-.5 1.5-1.1l1.8-.9.7-.4 2.2-1.2.6-.4.7-.4h.6zm-2-4.3c0 .2-.2.3-.9.7l-.6.4-.8.4-.2.2-.2.1-.2.2-.4.2h-.2c0 .1 0 .2-.2.3l-.8.5-.8.6v.1c0 .1.8-.2.9-.4l.7-.4.2-.2 1-.6.6-.4.3-.2.6-.3.5-.4.3-.2h.5c0 .1-.2.6-.4.6l-.3.1-.3.2s-.2 0-.2.2l-.3.1-.3.1-.3.3-.5.3-.8.4-.8.6-.6.4-.2.1-.2.2c-.2 0-.3.3 0 .3l.8-.6.3-.1.3-.1c0-.2.3-.4.7-.6l.6-.3.5-.3.3-.2.3-.2h.2c0-.1.1-.2.3-.2l.3-.2.1-.2.4-.2.4-.1v.3l-.4.3c-.1 0-.3 0-.4.2l-.3.1-.2.2-.3.1-.3.2-.2.2h-.3l-.3.3-.8.5-.2.2h-.3c-.2.3-.5.5-.8.6-.2 0-.3.2-.3.2l-.2.2c-.1 0-.2 0-.2.2h.5c.1-.2.2-.2.3-.2l.2-.2.8-.5.5-.3.6-.4.6-.3.6-.4.2-.2h.2l.3-.2.3-.2.2-.1c.1-.2.4-.3.5-.1 0 .1 0 .5-.3.6l-.9.5-.5.3-.8.5c-.2 0-.4.2-.5.3l-.3.1-.4.2c-.2 0-.3.2-.3.2l-.2.2c-.3 0-.4.3-.2.3l.3.1h-1l-.3.2-.3.2c0 .2.4.2.5 0 0-.2.6-.2.6 0l-.2.1c-.2 0-.3.2-.3.3l-.3.1-.3.1-.3.3c-.1 0-.1 0 0 .2h.3l.6-.5 1.4-.8.4-.2 1.1-.6 1.4-.8c.2 0 .3-.2.3-.2l.1-.1.3-.2c.1-.1.1-.2-.1-.2-.4 0-.4-.2 0-.4l.2.1.1.2c.2 0 .6.5.6.6l-.5.3-1 .6-.5.3-.5.2-3.2 1.9-1 .6c-.6.4-.9.5-1 .3 0-.1 0-.3.3-.6.3-.2.3-.3.2-.4-.3 0-.4-.3-.1-.4v-.3c-.2-.2-.2-.2 0-.3v-.3c-.2-.2-.1-.6.2-.7.3-.2.3-.4 0-.3s-.4-.2-.1-.4v-.3c-.2-.1-.3-.2-.2-.4 0-.3.5-.6.8-.6l.2-.1s0-.2.2-.2l.6-.4.6-.3.2-.2.1-.1.6-.3.5-.4.5-.3.7-.3.2-.3h.5l.1.1zm.1 3.4-.2-.1c0-.2 0-.2.3 0 .1 0 .1.1 0 .1h-.1zm-.4.3-.2.1-.3.2c-.1.2-.2.2-.3 0-.1 0-.1 0 0-.1.2 0 .3-.2.4-.3 0-.1.4-.1.4.1zm-1.3.7c-.2.1-.3 0-.2-.1 0-.2.2-.2.3 0l-.1.2v-.1zm-.4.3-.2.1c-.2 0-.3 0-.1-.2h.3v.1zm-.5.3-.2.1h-.2c0-.1 0-.2.2-.2l.2.1zm1.3-6.7c0 .1 0 .2-.2.2s-.1.1-.2.2l-.2.2-.5.3-.4.3-.1.1-.5.4c-.7.4-2.2 1.9-2.1 2 0 .2 0 .2.2 0l1.2-1 2.6-2c.4-.4.6-.4.9.1.1.3.1.3-.2.5-.1.2-.3.3-.4.3l-.5.3-.5.3-.8.5-.8.5-1 .7-1 .7c-.2 0-.2-.4 0-.5.2 0 .2-.2 0-.3-.7 0-.3-.8.5-1.2l.4-.3.2-.1c.2 0 .1 0 .1-.1l.5-.4.5-.4.1-.1 1-.7c.9-.8 1.2-.9 1.2-.5zm-1.2-1.5.2.1c0 .2-.3.7-.5.7h-.1l-.6.5-.8.7-.5.4-.2.3c-.2.2-.2.2 0 .2h.1l1.1-1 1.3-1c.3-.3.7-.3.8-.1 0 0-.4.5-1.3 1.1l-1.3 1.2-1 .8-.4.3h-.2c0 .3-.3.1-.3-.1l.4-.6c.3-.3.4-.4.2-.5-.2 0 0-.5.4-1 .2 0 .4-.3.5-.4l.3-.2.4-.3c.4-.5.9-.8 1.5-1.1zm-18-13.3v.6l-1 2-.2.8-.2.4-.2.4-.1.3-.2.3-.1.5-.2.4c0 .1 0 .3-.2.3l-.1.6c0 .5-.3.4-.3-.1l.1-.5.2-.4.1-.5.2-.3c0-.1 0-.3.2-.5l.1-.5.2-.4.1-.3.2-.5.8-2.2c0-.5.7-.8.7-.3l-.1-.1zm-3.3-1.4c.2.2.2.3.1.6 0 .3-.1.5-.2.5l-.1.4-.1.4-.3.8-.4 1.1-.2.5v.3s-.3.4-.4.9l-.4 1-.2.7-.1.4-.2.5a6 6 0 0 1-.5 1.6c-.2.5-.2.8 0 .8.1 0 .2-.1.2-.3l.1-.5.2-.5.1-.6.2-.5c0-.2 0-.4.2-.4l.2-.4c0-.4.2-1 .4-1.5l.2-.5.1-.4c.1-.1.4-.7.5-1.3l.2-.5.2-.4v-.4c.1 0 .5-1 .7-1.8 0-.1.4-.2.5 0v.4c-.2 0-.3.3-.3.4l-.3 1-.3.8s0 .2-.2.3l-.1.6-.1.4c-.2.2-.4.8-.6 1.4l-.2.4v.4l-.3.4-.1.3c0 .2 0 .4-.2.5l-.1.6-.2.4-.2.5-.1.5c-.2.2-.2.9 0 .9l.1-.3.2-.5.3-.8.4-1 .1-.5.3-.8.4-1 .1-.3.2-.5.1-.4.2-.4c0-.1 0-.4.2-.5l.1-.4c0-.1 0-.3.2-.5l.6-1.6c.1-.3.2-.5.4-.5.3 0 .4.3.2.5v.3l-.4.8-.3.9s0 .3-.2.4c-.5.9-.8 1.8-1 2.8l-.8 2-.1.5-.2.4-.1.4-.2.4-.4 1.3c0 .1-.6-.2-.6-.4s-.1-.2-.3 0c-.1 0-.2 0-.3-.2-.1-.1-.2-.2-.4-.1-.3.2-.4-.3-.1-.8l.1-.6.2-.4.1-.4.2-.5.5-1.5.2-.6.1-.5c0-.1 0-.3.2-.4l.3-.9.5-1.6c0-.1 0-.3.2-.5a6 6 0 0 0 .5-1.8c0-.4.2-.5.5-.2zm-1-.5.1.5-.1.7-.2.5-.1.6c-.3.6-.4 1.1-.5 1.6l-.5 1.4-.5 1.7c0 .1 0 .3-.2.4l-.1.7c0 .2 0 .4-.2.4l-.1.3-.2.6-.2.7v.4c-.1 0-.2 0-.2.2s-.3.4-.4.3c-.1-.2 0-.7.1-.8l.2-.4c0-.2 0-.5.2-.5s.1-.3.2-.5c0-.6.3-1.3.4-1.7l.3-.6.1-.5.4-1 .3-1 .1-.7.2-.5.5-2.1c0-.4.3-.7.4-.7zm-1.5.3c0-.1 0-.3.2-.4.1-.2.5-.1.5 0l-.1.8-.2 1.1c0 .3-.2.6-.3.7v.3l-.3.7-1 3.3-.2 1-.2.7c0 .3 0 .6-.2.6l-.1.5c-.2 1-.4 1.3-.6 1.2V-2c.3-.4.6-1.5.6-1.8l.1-.5.2-.6c0-.2 0-.5.2-.6l.1-.4c0-.2 0-.4.5-1.8l.2-.8.1-.6c.2-.4.5-1.8.5-2.2zm-.4-.7c.2.2.2.2 0 1l-.3 1.2-.3 1.2-.3 1.3-.2.5v.4l-.2.7-.5 2-.2.6-.2.6-.1.5-.2.6-.1.5c-.2 0-.2-.8 0-1l.1-.9.1-.6.2-1 .2-1 .3-1 .3-1.1.2-1 .2-.8c.2-.7.5-1.8.5-2.4 0-.6.2-.7.6-.3h-.1zm-1.5.2.1-.5h.6l-.1.8-.3 1.3-.2.8-.3 1-.3 1.5-.2 1-.1.5c-.1 0-.2.3-.2.7 0 .9-.3 2.1-.5 2.5l-.1.8c0 .3 0 .5-.2.5-.5.1-.5 0-.4-.8l.9-3.3.2-1.2.2-1.2.2-1 .2-.9.2-.6.1-.9.2-1zm-1 .4c0-.9 0-1 .4-1 .2 0 .2 0 .2.4l-.1.7-.2 1-.2 1-.3 1.3c-.3 2-.7 4-1.3 6-.2 1.2-.2 1.2-.4 1.1-.1 0-.2-.2-.1-.8l.2-1.2.2-.7.1-.7.5-2.4c.2-1.6.6-3.2 1-4.7zm-.6-1h.2c.1.2.2.4 0 .9 0 .3 0 .7-.2.7v.7l-.2.7-.2.8-.4 2.1-.2 1-.2 1.1c-.3.7-.5 1.8-.5 2.5 0 .5 0 .6-.2.8-.2 0-.3.1-.4 0l.1-1.2.2-.7.1-.7.5-2.2c0-.5.2-1 .3-1.2v-.7l.2-.6.2-.5.1-.7.2-1 .4-1.8zm-1.2 1.4.2-1 .1-.4c.3-.1.4 0 .5.1v.4l-.3 1-.2.9-.1.7-.2 1-.5 2.3-.1.6-.2.7-.1.8-.2.8c-.3 1.8-.4 2.1-.5 2.1-.2 0-.2-.1-.2-.8l.2-1 .2-.7.5-2.4.1-.7c0-.3 0-.7.2-1l.5-2.5.1-.9zm-1-1.4c.1-.2.7-.2.8 0v.6c-.4 1.3-.6 2.6-.8 3.9l-.2 1-.6 3-.2.7-.1 1c-.1.8-.3 1.3-.5 1.3s-.2-1 0-2c.5-2 .8-4 1-6 .2-.4.4-1.6.5-2.6l.1-1v.1zm-1.5 0c.1-.2 1-.2 1 0l-.1.9-.3 1.5-.3 1.7c-.4 2-.7 4.1-.9 6.2 0 .7 0 .9-.2 1-.1.2-.3.3-.3.2-.2 0-.2-1.9 0-2.6l.4-3.1.7-5.8zm-1.5 2.6c.1-2.6.2-3 .7-2.8.2 0 .2.1.2.8l-.2 1.4a70 70 0 0 0-.8 8l-.2 1.5h-.2c-.3 0-.3-.8 0-1.5l.1-1.5.2-3 .2-3v.1zm-1.2-2.8c.1-.1.6-.1.8 0v2.5l-.2 1.7c-.2 1.7-.3 3.5-.3 5.3l-.1 1.3c0 .8-.1 1-.5 1-.2 0-.3-.2-.2-1l.5-10.7v-.1zm-1.6 11 .2-10.9c0-.2.6-.3.8-.1v.5c0 .3-.2 1.8-.2 4.4-.1 5-.2 7-.4 7h-.2c-.2 0-.2-.3-.2-1v.1zm1 1.4 1.8-.2h5.3c.7.2 1.7.5 2.4.9l1.9.7c.1 0 .4.1.5.3h.1l.2-.6-.2-.4V.3c0 .3-.3.5-.5.3s-.2-.4 0-1c.2-.1.3-.4.3-.5l.1-.3c.2-.2.4-.8.6-1.4l.2-.5v-.3l.2-.4.2-.4c0-.2 0-.3.2-.4l.1-.4.2-.6.1-.5.2-.4.5-1.5s0-.2.2-.3l.1-.4.2-.3.1-.4c0-.5.4-.8.6-.5v.2c-.2 0-.2.2-.2.4l-.2.4-.2.4-.1.5-.2.5-.1.3-.2.4c0 .1 0 .3-.2.5l-.1.6c0 .1 0 .3-.2.3l-.1.5c0 .3 0 .4-.2.4l-.2.4-.1.6-.2.5-.1.4-.2.5-.1.4-.2.5-.1.3-.2.7c.1.3.3 0 .3-.3s0-.4.2-.4.1-.1.1-.4 0-.4.2-.4l.1.3.1.3.1-.3v-.4s-.2-.1-.1-.3c0-.4.2-.5.2-.2l.1.4c0 .1 0 .1.2 0v-.4l.2-.5.2-.3s0-.3.2-.4l.1-.4.2-.4.1-.3.1-.3c.2 0 .6-1 .6-1.2l.1-.3.2-.3.1-.4 1-2.2c0-.2.2-.2.4 0v.5l-.2.4-.2.4-.2.4-.2.3-.4 1.2-.2.4-.1.4-.2.3c0 .1 0 .3-.2.4l-.1.4-.2.4-.1.4-.2.3-.2.3-.1.4-.2.5-.1.3c-.2.2-.3.7 0 .7l.1-.4.1-.3c.1 0 .2-.1.2-.3 0-.3.1-.5.2-.5l.2-.3.1-.4c.1 0 .2-.1.2-.3 0 0 0-.3.2-.4l.1-.4s0-.2.2-.3l.1-.4.2-.3.1-.3.2-.4.2-.4.1-.3.2-.4.1-.3.5-1.2c0-.2.5-.8.6-.7v.7c-.2 0-.2.2-.2.3l-.2.4-.2.3-.1.4-.2.4-.1.3-.2.4v.3c-.2 0-.6 1-.6 1.1l-.2.3-.2.3-.1.3-.2.4v.3l-.3.4c0 .3 0 .4.1.3.1 0 .2-.1.2-.3l.2-.3.1-.4.2-.3.2-.2.5-1.1.1-.4s0-.2.2-.3l.1-.2.2-.4.1-.4.2-.4.2-.3.1-.3.4-.7c.2-.6.3-.7.5-.5.1.1.1.3-.5 1.5L-69.9-5l-.7 1.3-.3.7-.1.2-.2.3-.1.4c-.1 0-.2 0-.2.3s.3.3.3 0c0-.2.1-.3.3-.5l.5-.8a8 8 0 0 1 .8-1.6l.3-.6 1-1.8.7-1.3h.3c.2.2 0 .5-.4 1.3a12 12 0 0 0-.8 1.6l-1.2 2.4-.4.8-.1.5s0 .2-.2.3l.5-.2.7-1.4 1.2-2.2 1-2c.2-.7.6-.9.7-.3l-.3.7-.4.7-.1.2-.2.3-.1.4-.7 1.2-.7 1.3-.4.9h.4c0-.1 0-.3.2-.5l.4-.6v-.3c.2 0 .3-.4.5-.6l1.3-2.4.6-1c0-.2.1-.2.3-.2.1 0 .2 0 .2.3 0 .2 0 .4-.2.5l-.5.9-.5 1-1.4 2.7h.2l.2-.2.7-1.2.5-.9 1.5-2.7.2.1c.2.1 0 .3-.4 1.2l-1.2 2.4-.7 1.5.3.1.1-.3.2-.2.1-.3.6-1 .7-1.5.6-1.3c0-.4.5-.4.6 0l-.2.3-.4.6-.6 1.4-.4.8-.3.7-.1.6v.2l.1.1.3-.5.7-1.5.5-1.1.3-.8c0-.3.2-.6.4-.6s.3.1.4.3c.2.2.2.3 0 .4l-.2.4-.3.6-1.1 2.2c-.2.2-.2.8 0 .8l.3-.6.4-.7.3-.7.5-.8.3-.7c0-.3.1-.4.3-.4.4 0 .5.3.2.7l-.2.3-.3.5-1.3 2.6c0 .2.2.2.3-.1l.6-1c.5-.8 1.1-1.6 1.5-2.5l.7.2-.6 1-.7.9-.2.4c-.4.3-1 1.2-1 1.4l-.2.3c0 .1.1.1.2 0l.2-.2 1.4-1.9c.8-1 1.4-1.8 1.5-1.7.2 0 .2.4 0 .6l-1.1 1.3-.6.7v.1l-.6.8c-.5.6-.5.7-.3.7s.7-.6 1.2-1.3l.6-.8.8-1 .7-.6.3.3c0 .1-1 1.4-1.7 2.1l-.4.6-.3.4c-.4.4-.6.9-.6 1 1.1-1 2.1-2.1 3-3.3.2-.3.7-.5.7-.2l-.5.6-2.2 2.8c0 .2 2-1.7 2.5-2.5.4-.6.8-.8.8-.4 0 .2-.4.6-1.9 2.3-.8 1-.9 1-.7 1 .1 0 1.5-1.3 2.3-2.3.5-.5.7-.7.8-.6l.2.2c0 .1-.5.7-1.2 1.3-1 1.1-1.3 1.4-1.1 1.4l2-1.7c.5-.6.6-.7.8-.5.2.1.2.1-.1.4L-58.8.7h.2l.2-.2c.2 0 .4-.3.6-.4 1.2-1.2 1.5-1.4 1.5-1 0 .2-.1.3-1 1-.3.3-.4.6-.2.6l.8-.6c.7-.6 1-.7 1-.4v.2l-.5.7-.4.3h.4l.5-.4c.3-.3.5-.3.7 0l-.3.5-.4.3.2.1.2-.2c.4-.2.8-.2.9 0l-.2.4c-.2.2-.2.3 0 .3l.1-.1c0-.2.6-.1.6 0s0 .3-.2.5c-.2.1-.3.3-.2.3h.2c.2-.3.7-.3.7 0l-.4.5-.5.5c0 .1.3 0 .7-.3.3-.3.4-.4.6-.3s.1.2-.4.7l-1.8 1.5-1 .8c-.6 1-.7 1.5-.7 2.7V11c.2 1 0 1.7-.3 2.3l.2 1.2h.1v.4c0 .2-.2.9-.5 1.4a7 7 0 0 0-.5 1.3l.4 1v-.1l.5.7.6 2.2.3.9.1.8.1.6c.2 2.5 0 5-.5 7.4l-.2 1.5c0 .4-.1.7-.2.7l-.2.3-.1.5-.2.4c0 .3-.3 1-.8 2l-.4.8c-.5 1.2-1.2 2.4-1.9 3.6-.4.8-1 1.9-1.6 2.5a75 75 0 0 1-7.1 6.7c-.4.4-1.4 1-2.4 1.5l-3 1.6-1.4.7-.5.2-.5.2c-.5.3-4 .5-7.5.3-2.3.1-4.6-.3-6.7-1.1-.1 0-.4 0-.6-.2l-1.7-.7-1-.4-1.2-.5c-.9-.3-1.3-.6-2.6-1.3l-.9-.5a12 12 0 0 1-2.1-1.7 7 7 0 0 0-1-.8 8 8 0 0 1-1.7-1.5l-.6-.9c-.4 0-.7-.4-1-.8l-1.7-2.4-.4-.8-.2-.5h-.3l-.3-.5c-.1-.4-.4-.7-.5-.9-.2-.2-.3-.6-.1-.7v-.5c-.5 0-.6-.3-.7-.8l-.2-.6v-1c-.3 0-.5-.2-.5-.7l-.1-.3-.2-.7-.2-1.2-.3-1-.2-1.2-.6-3.8a7 7 0 0 1-.2-2.9l.7-3.9.2-.7.1-.3.1-.3.2-.6.3-.6v-.4l.4-.7c.6-1.7 1.4-3.4 2.2-5l.4-.7a12 12 0 0 1 3-2.9l2.5-2.2.7-.6c0-.2.4-.3.5-.3l.9-.5 1.6-1 2-1 2.3-.9 1.2-.5 3.1-.4 1.6-.2 1.3-.2zm11.8 55-.1.4-.2.3c0 .4-.3.1-.3-.3s0-.5.2-.6c.4-.3.4-.3.4.2zm-12.6.7-.2.5-.2-.5.1-.4c.2 0 .3 0 .3.4zm-18.2-5.7c-.3-.2-.3-.5 0-.5l.2-.1.3-.2.1-.1.2-.2.4-.2.6-.6.4-.5c0-.2.3-.2.5 0v.3c-.1.2 0 .3.2 0h.2c.1.2 0 .3-.2.6l-.5.4-.5.4c-.5.6-1.1 1-1.8 1.4-.2 0-.2-.6 0-.6l-.1-.1zm-1.2-3c-.2-.4-.2-.4.3-.6.2 0 .6-.3.8-.5.3-.3.3-.3.1-.3h-.3c-.2.3-.5.5-.8.6l-.2.2c0 .2-.5.3-.7.2-.2 0-.2-.4 0-.4l.6-.3a4 4 0 0 1 1.3-.8l.2.2.4.1c.2 0 .3.1.3.2.2.1 0 .2-.3.6l-.8.6c-.3.3-.7.3-.9.1v.1zm.2 1.3c-.4.6-1 1.1-1.7 1.3l-.5.2h-.4s.4-.5 1-.8c.2 0 .4-.2.4-.3l.2-.2s.2 0 .4-.3l.8-.5-.2.6zm-1.3-4.4.5-.3c.5-.4.7-.4 1-.1.3.3.3.4 0 .5-.1.1-.1.1.1.1l.5.2c.2.1.2.2 0 .3-.2.3-.6.2-.7-.1s-.1-.3-.4-.1-.9.2-1.1 0c-.2 0 0-.5.1-.5zm-.6 0c-.3-.3-.3-.6 0-.8l.7-.4c.4-.3.6-.3.8 0 0 0 0 .2-.2.3l-.7.6c-.4.3-.5.3-.6.2v.1zm4.5 2.6c0 .3 0 .4-.5.6l-.5.3-.1.1-.4.3c-.2.2-.5.2-.5 0s.4-.7 1-1.2c.6-.4 1-.5 1-.1zm-1.6 1.7.2-.1c0-.1.2-.3.5-.4l.8-.6c.2-.2.3-.3.5-.1.2.1 0 .4-1.3 1.4l-.7.7c-.2.2-.3.2-.5 0l-.2-.2c0-.3.4-.7.7-.7zm.8 2.4.7-.5.6-.6 1-.8c.4-.4.6-.5.6-.2 0 .2-1.7 1.9-2 2l-.6.4c-.4.5-.7.5-.7.1l.4-.4zm-7.7-11.3c-.3 0-.3-.3 0-.3l.5-.2.5-.2.2-.1c0-.2.2-.2.5 0 .2 0 .2 0 0 .2-.4 0-.4 0-.1.1h.3c.1-.2 1-.3 1-.1.2.2.1.4-.2.4h-.2l-.4.2-.5.1-.4.2-.5.2-.3.1-.5.2c-.4.2-.9.2-1 0l.4-.2.3-.2.4-.1c.4 0 .4-.3 0-.3zm1.5-3.3c-.2-.1 0-.3.2-.3 0 0 .2 0 .3.3l.2.7.2.5c.4.3 0 .8-.4.8-.5 0-.6-.1-.4-.4v-.2c-.3-.1-.3-.4 0-.5.2 0 .2 0 0-.2-.3-.2-.3-.2-.2-.4.1-.1.2-.2.1-.3zm-1.4-3.5-.5-.1-.4-.2h-.2l-.1-.1-.3-.2h-.1c0-.2.6-.2 1 0h.5c.2-.2.3-.2.4 0s.1 0 .2-.1c.2-.2.2-.3.4 0 .1 0 .1.1-.1.3l-.2.2.2.2c.2.1.3.2.2.4l.1.4c.2.1.2.3-.1.5h-.5l-.2-.4-.2-.3c-.2 0-.2-.4 0-.5.2 0 .2 0-.1-.1zm-.5.6c0 .2-.3.2-.4 0l.1-.3h.2l.1.3zm-1.7-1.5c-.3.2-.7 0-.7-.3 0-.2 0-.2.6-.3l.8-.2h.5c.4 0 .5 0 .7.2l.2.4h-1l-1.1.2zm3.4 2.5c0-.1.3-.1.4 0v.2c-.2 0-.5 0-.4-.2zm.6-17.8-.4-.1c-.1 0-.3 0-.3-.2l-.3-.1-.4-.2-.4-.2c-.3 0-.4 0-.3-.2 0-.1.8 0 .8 0s.1.2.3.2.3.2.3.3l.4.1c.3 0 .3 0 .4.3 0 .2 0 .3-.1.1zm0-4.8.2.2c0 .1.1.2.3.2.3 0 .3-.3 0-.4-.3 0-.4-.3 0-.3l.2.2c0 .1.1.2.3.2l.3.1-.3.2-.3.1-.3.2s-.2 0-.3-.2l-.2-.1c-.1 0-.3 0-.3-.2l-.3-.2c-.3 0-.3-.3 0-.3.2 0 .3 0 .3-.2s.4-.1.5 0c0 .1 0 .2-.2.2-.3 0-.3.3 0 .3h.1zm1 .7.2-.1c.1-.2.6-.3.6 0v.2c-.2 0-.2.1 0 .2v.3h-.5c0-.2-.1-.2-.2-.2l-.3-.2.2-.2zm3.9-5.2-1-1-.7-.9-2.4-2.6 5 5c.1 0 0 0 0 .1-.3.1-.4 0-.9-.6zm17.1-19.2c.3-.2.3-.2.5 0l.2.8-.3 11.1c-.2 0-.2 0-.3-3v-5.3l-.1-3.6zm-.8 0c.3 0 .3.1.3.8 0 3.8 0 7.5.2 11.3-.4 0-.5-.2-.5-1.3l-.1-2L-90-7l-.2-3.8c-.1-1.5-.1-1.6.5-1.6zm-.7 2.1-.1.3c-.2.2-.2.2 0 .5.1.4.2.9.2 3-.1 1.7 0 3.3.2 5v1.2c-.2 0-.2-.1-.3-.8v-1.3l-.1-.6c-.2 0-.2.2-.2 1.5v1.4h-.2l-.3-.1.2-1.2v-1.3c0-.1 0-.2.2-.2l.1-3.5v-3.9c0-.2.2-.2.3 0zm-.4-2c.2 0 .3 0 .2.5-.1.7-.4.9-.4.3 0-.6 0-.7.2-.7v-.1zm-1.6.3c.2 0 .3.6.4 3l.2 1.9c.1.1.2.9.2 1.9 0 1.6 0 2 .2 2v-4.1c-.2-.3-.2-1.1-.3-2.2l-.1-2c-.2-.3-.2-.4 0-.5.3-.2.3-.2.5 0l.1.5V-2.3c0 1.4-.3 1.7-.4.3l-.2-1-.2-1.6-.2-1.7v-1.1l-.3-1.7-.1-1.8.1-1.1h.1zm-2.4.4c.2 2.7.6 5.4 1.3 8.1v1.1c.3 0 .3-2 0-2.3l-.1-1.2a46 46 0 0 0-.6-5.2l.1-.6c.1 0 .2 0 .2.2.1.2.3.2.3-.1 0-.3.5-.3.6 0v1l.2 1.7.2 1.6.1 1.3.2 1.6.2 1.4.1 1c0 .6.1 1 .2 1 .2.1.2 1 0 1l-.3-.2c-.2-.2-.2-.4-.2-1 0-.4 0-1-.2-1.2l-.1-1.5c0-.9 0-1.2-.2-1.3l-.1-1.5-.2-1.6v-1.2c-.1-1-.2-1.4-.4-1.5-.1 0 0 2.5.2 2.8l.4 4.6c0 .8.2 1.3.2 1.4l.2.7.1 1c.2.3.2.6 0 .5h-.5c0 .2-.2.1-.3 0-.2-.2-.3-.2-.3.1l-.2.3c-.2 0-.2-.4 0-.5.3 0 .2-1.5 0-1.5l-.2.5v.5l-.1-.5v-.6c.2-.3.2-2 0-2.5l-.1-.8-.2-1-.2-.6v-.6l-.4-1.3-.3-1.9c-.1-1 0-1.2.4-1.2zm-1.5.5c.2-.3.3-.3.5 0l.2.9.3 1v1c0 .5.3 1.6.6 2.6l.1 1 .2.8c.2.3.2 1.9 0 1.9l-.1-.3-.1-.5-.2-.8-.3-1.4-.3-1.4c-.4-1.6-.8-3.2-.9-4.8zm-1.1.4c.4-.3.4-.3.6.3l.3 1c.2 1.5.6 2.9 1 4.3l1.2 5.8h-.3c-.2 0-.2 0-.4-.5l-.2-.9-.2-.5-.1-.5-.1-.6-.4-1.5-.5-2-.1-.4c-.3-.8-.6-2.3-.6-2.7l-.1-.5-.2-.4-.1-.5.2-.4zm1 8.4-.1-.5c0-.4 0-.6-.2-.6l-.1-.5-.2-.8-.1-.7c0-.5 0-.6.2-.3v.4l.2.4.2.6c0 .3 0 .5.2.7.2.4.2 1.2 0 1.2l-.1.1zm-1.8-8c.3 0 .3 0 .4.5l.2.9.1.7c0 .2 0 .6.2.7l.1.9c0 .7-.2.8-.3 0 0-.2 0-.5-.2-.6l-.1-.7c0-.3 0-.6-.2-.8l-.1-.6-.2-.3-.1-.5c0-.2 0-.3.2-.2zm-1.6.7c.3-.2.4-.1.4.3l.1.8c.2.3.4 1 .5 1.8l.2.5.1.3.2.6.5 1.8.2.5.1.5.2.5.1.7.2.6.2.5.1.5.2.4.2.3c.2.1.1-.7 0-.8-.2 0-.2-.2-.2-.4s0-.4-.2-.6l-.2-.7-.2-.4v-.5l-.2-.7-.2-.4-.1-.6-.2-.6c0-.3 0-.5-.2-.6l-.1-.6c0-.1 0-.3-.2-.4l-.2-.5-.1-.7c-.3-.3-.3-.6-.5-1.6-.2-.9.1-1.2.5-.4l.2.7a36 36 0 0 0 1.2 4.7l.2.7.2.6.1.5.2.5c0 .6.3.7.3.3l.1-.6c0-.2.1-.2.2.1v.7c-.2.6-.2 1.4 0 1.3v-.5c0-.4.2-.6.3-.2.1.3 0 .7-.1.8-.1.1-.2.2-.1.4 0 .4.3.4.3 0l.1-.3c.1 0 .2.1.2.3 0 .3-.5.7-.8.7h-.2c0 .1-.1.2-.3.2-.3 0-.3 0-.3-.4l-.2-.6-.2-.6-.1-.4-.2-.5-.2-.7c-.3-.8-.4-1-.4-1.4l-.2-.6-.2-.5c0-.3 0-.4-.4-1.4l-.2-.7c0-.3 0-.5-.2-.6l-.1-.4c0-.2 0-.5-.2-.7-.3-.7-.4-1.4-.2-1.5zm-.5.3c.2 0 .2.2.2.4 0 .4.3 1.8.5 2.2l.2.5.1.5.2.5.1.7.2.5c0 .2 0 .4.2.5l.1.5c0 .1 0 .5.2.7.2.6.4 1.1.4 1.5 0 .2.2.4.3.4l.1.4.1.5c.2.2.4 1 .4 1.2h-.2c-.2 0-.3 0-.3-.3l-.1-.5-.4-1-.3-1-.5-1.5-.2-.7-.1-.6-.2-.4-.1-.5-.2-.6a.8.8 0 0 1-.2-.5l-.1-.7-.2-.6-.1-.4-.2-.5c0-.1 0-.4-.2-.5l-.1-.5c0-.3.1-.4.5-.2h-.1zm-1 .3c.2 0 .3 0 .5.8 0 .4.2.8.3.8l.1.5.5 1.8.1.5.2.4.2.6v.5l.3.7c0 .4.2 1 .5 1.5l.3 1 .4 1 .1.6c0 .3 0 .3-.3.3s-.3 0-.5-.6l-.3-1-.2-.6-.2-.7-1-3.3-.2-.8-.2-.9-.5-1.7-.2-.6-.1-.4c-.3-.3-.2-.6.2-.5v.1zm-1.2.5c.3-.2.4-.3.6 0l.1.6.3.8.1.6.1.4.2.6.3 1.1.4 1.6c.2 1 .6 2 1 3l.6 1.9c.2.4 0 .6-.3.6s-.3 0-.3-.3l-.2-.8-.1-.5-.2-.5-.2-.6-.1-.6-.5-1.4-.7-2.2v-.5l-.5-1.2-.4-1-.1-.6-.2-.4c-.2-.1-.2-.3.1-.6zm-.6.4.3.6.3 1 .1.5.1.5.4 1 .4 1.2.1.6c0 .1 0 .4.2.5l.2.6.3 1 1 3.5-.2.1c-.1 0-.2 0-.2-.2l-.1-.4-.2-.3-.1-.5-.4-1-.3-.8-.3-1-.8-2.2-.7-2-.4-1-.2-.6-.2-.5v-.1c0-.2.6-.6.7-.5zm-2.1 1.2c.2 0 .2 0 .2.6 0 .3.1.7.4 1.1l.6 1.6.5 1 .5 1.2.1.4.3.5.1.3.3.7.7 1.8.3.7.4.5v-.6l-.3-.5-.1-.3-.2-.5v-.4l-.3-.4a7 7 0 0 0-.5-1.3c-.1-.2-.4-.8-.4-1.1l-.4-1-.7-1.4s0-.4-.2-.7l-.5-1.2-.4-.8c-.2-.3 0-.6.3-.7.4 0 .4 0 .4.4l.3 1 .3.8.2.5v.2l.4.9.7 1.7 1 2.9.5 1.2.1.3.2.3.1.2c.2.1.2.2 0 .3l-.2.2s-.2 0-.3.2c-.3.3-.6.3-.6 0 0-.2-.2-.3-.2-.3l-.1-.3-.3-.7-.6-1.2-1-2.6-.4-.8c0-.1 0-.2-.2-.3l-.1-.3-.8-1.8-.8-1.8c0-.1.4-.5.7-.5zm-1.6 1c.3-.3.5-.3.7.3l.4.9.3.6.4.8.4.8.2.5.2.5.7 1.5c.2.2.3.5.6 1.4l.4.7.1.3.2.3.2.3v.3c.2.1.5.8.5 1s-.4 0-.5-.3l-1-1.9a72 72 0 0 1-2-3.9l-.5-1-.6-1-.3-.6a3 3 0 0 0-.4-.8c-.3-.3-.3-.3 0-.6v-.1zm-.8.6c.2-.1.3-.1.5.5l.5 1 .8 1.3.8 1.6c.5.8 1 1.7 1.3 2.6l.8 1.2.4.6.2.5.2.2c.2.2.2.6 0 .6s-.5 0-.5-.2l-.6-1.2-.7-1.2-.1-.3-.2-.3-.9-1.9-2.3-4.2c-.3-.4-.3-.7 0-.8h-.2zm-1 .8c.2-.3.5-.3.6 0 .7 1.5 1.5 2.9 2.4 4.3 0 .3.1.4.4.9l.2.4c.6 1.3 1.3 2.6 2.2 3.8.1 0 .1.3 0 .4l-.5-.3-.7-1a23 23 0 0 1-2.3-4l-.7-1.2-.4-.7-.7-1.2c-.3-.3-.4-.6-.4-.7l-.2-.2c-.2 0-.2-.2.1-.5zm-1.4 1.4c.8-1 1-1.1 1.1-.5l.2.6 1.5 2.3.7 1.3.5.8c.1.4.4.8.5.9l.5.8.9 1.3c.8 1 1 1.5.6 1.6-.1 0-.8-.9-.8-1.1v-.1l-.6-.6-.5-.8a28.8 28.8 0 0 1-3-3.9l-.7-1-.7-1c-.4-.4-.4-.4-.2-.6zm-.8.8c.3-.3.7-.4.7-.2l.7 1.4c.9 1.3 1.8 2.5 2.8 3.6l2.5 3.4c.2 0 .2.5 0 .6-.2.1-.4 0-.6-.5l-.3-.6-.5-.6a56.3 56.3 0 0 0-3.8-4.5l-.4-.6-1.2-1.6c-.1-.1 0-.2.1-.4zm-.9 1 .4-.4.4.7.5.6.3.4c0 .2.3.5.5.7l.7.8.5.7 1.1 1.3 2.4 2.7c.3.3.4.8.2.8l-1.6-1.5-3-3.2-2.5-2.7c-.4-.3-.4-.6.1-.9zm-.8 1c.1-.2.4 0 .4 0l1.4 1.9c.4.4.5.6.4.6l-1.6-1.5c-.7-.6-.9-1-.6-1zm-.6.7c.2-.3.3-.3.5.1.1.2.3.3.4.3l.1.1 2.1 2.3 1.4 1.4c.7.7 1.4 1.6 1.3 1.7l-1.6-1.6a30 30 0 0 0-3.2-3c-1.2-1.1-1.1-1-1-1.3zm-.5.6.7.5 1.1 1c.6.5.5.3 3 2.8a25 25 0 0 0 2.3 2.3c.4.2.5.6.2.6l-.4-.2-2.8-2.7-1.8-1.6-1.7-1.6c-.2-.3-.5-.5-.6-.5-.3-.1-.3-.6 0-.6zm-.9.6c.2-.2.4-.1.8.3 1.5 1.6 3.1 3.1 4.8 4.5l1 .8.9.9c.6.6.5.8-.2.2l-.7-.4-.1-.1-.3-.2a53.7 53.7 0 0 0-5.7-5c-.7-.6-.8-.7-.5-1zm-.5.7.8.6 2.1 1.8.6.5 1.3 1.2 3 2.6v.3c0 .2-.6.2-.7 0l-1-.8-1.2-1-5.8-4.2c-.1-.2.6-1 .9-1zm-1.2 1.2.3.3.8.7.7.5 1.1.8 2.6 1.9 2.8 2.2c-.1.3-.4.2-1-.3-.1-.2-.9-.8-1.6-1.2l-1.4-1-.5-.4-.5-.3-.6-.4-2.7-2-.4-.4c0-.1.2-.5.4-.4zm-.2 1.3.8.6.7.5.6.5 1 .7.8.5 2.1 1.5.6.3 1 .7c.4.1.5.4.4.6-.2.2-.4.2-.7 0l-.3-.3-.4-.3-3-1.9-1-.6-1-.6c-1-.7-1.5-1.1-2-1.3-.3-.2-.5-.4-.5-.6 0-.6.4-.8.9-.3zm-1.5 1c.1-.3.2-.3 1 .3l.9.6h.2l.5.4.5.3.8.5.8.5.8.5 1.6 1 .2.2.9.5.8.4v.6h-.2c-.1-.2-.2-.2-.3-.2l-.2-.2-.4-.1-.2-.1c0-.1-.1-.2-.3-.2l-.4-.3-.2-.1c-.1 0-.2 0-.3-.2l-.3-.1-.4-.2-.3-.1-.2-.2-.2-.2-.5-.3-.5-.3-.4-.3-.4-.4-.5-.3-.5-.3-.6-.4-.6-.3-.3-.1-.4-.3c-.3-.1-.5-.4-.4-.6zm3.8 3.2h-.5s0-.2-.2-.2l-.2-.1-.3-.3-.8-.5-.2-.1-.2-.2.1-.1.3.1.3.2.2.1.2.2c.1 0 .3 0 .3.2l.2.1.8.6zm-3.8-2.4.3.2c.3 0 .3.3 0 .3l-.2-.1-.3-.2-.1-.1c0-.2.2-.2.3-.1zm0 .6.4.2.7.4.8.6.3.2.2.2.6.3.7.3.2.2.2.1.2.1.2.2s.2 0 .3.2c.2.2.3.2.6 0h.4l-.1.1c-.1 0-.2 0-.2.2 0 .3.3.3.4 0h.6s-.1.2-.3.2l-.3.2-.2.1-.3-.1-.3-.2h-.2c0-.2-.2-.2-.3-.3l-.6-.3c-.1-.2-.4-.3-.4-.3l-.4-.2-2-1-1.5-.7c-.3-.1-.4-.3-.4-.4 0-.5.3-.5.7-.3zm-1.1.8c.2-.2.2-.2.6.1l.9.6.6.3 1.3.6.4.2.2.1.3.2c.2 0 .6.2 1.3.7l2.7 1.4.3.2c.8.4 1.2 1 .6 1l-.2-.1c0-.1-.4-.4-1-.6l-1.1-.7c-.2 0-.4-.2-.5-.3l-.3-.1-.7-.3-1.8-1-1.4-.6-1.1-.5-1-.5c-.3 0-.3-.5-.1-.7zm.3 1.2.4.2s.2 0 .2.2l.3.1.4.2.3.2.4.1.4.2.3.1.3.2.4.1c.1.2.4.3 1.2.6l.3.2 1 .4c.4.3 1 .5 1.1.7l1.4.6.5.5c0 .4-.3.3-1-.1l-2.4-1.3-1-.6-.7-.3c0-.2-.8-.5-1-.5l-.2-.1-.3-.2c-.1 0-.2 0-.3-.2l-.4-.1-.2-.2-.3-.1-.4-.2c0-.1-.1-.2-.3-.2l-.3-.1-.4-.2-.3-.2c0-.2.5-.2.6 0zm-1.1.7c0-.4.2-.4.6-.1l1.3.6 1 .6a7 7 0 0 1 1.9 1l2.2 1.1.7.4 1 .5c1 .5 1 .5.9.8 0 .2-.5.3-.5.1 0 0-.1-.2-.3-.2l-2.7-1.3-3-1.5c-.3 0-.7-.3-1-.4l-1-.5-.8-.3c-.4-.1-.5-.4-.4-.8h.1zm-.5 1h.4l2 1 2.5 1.1 1.3.7 2 .8.4.2s.2 0 .3.2l.3.1c.3 0 .6.4.5.6-.1.1-.4 0-.4 0 0-.2-.2-.2-.3-.2l-.4-.2-.4-.2h-.3c0-.3-.5-.3-.9-.1-.4.2-.7.2-.8 0l-.4-.2c-.5 0-.5-.3 0-.3l.4.1c0 .1 0 .2.3.2.4 0 .4-.3 0-.3l-.3-.2-1.2-.5c-.2 0-.4 0-.4-.2l-.6-.3-.8-.3-.5-.2-.3-.1c-.2-.2-1.8-.9-2-.9-.4 0-.7-.6-.4-.8zm5.4 3.3c0 .2-.5.2-.6 0 0 0 0-.2.4-.2l.2.2zm-6-2.4h.6c.1.2 1 .6 1.2.6l.4.1.4.2s.2 0 .3.2l.4.1.5.2.4.1.3.2.4.2.3.2c0 .2-.6.1-.7 0-.1-.2-.3-.2-.5-.2l-.4-.2-.4-.1a.8.8 0 0 1-.4-.2l-.5-.2-.5-.1-.4-.2-.4-.1-.3-.2c-.2 0-.7-.4-.6-.5l-.1-.1zm.3.8.4.2.3.1 1.2.4c.2 0 .4.2.5.3l.4.1.4.1c.1.2.8.5 1.3.5l.5.2.3.2.3.1.5.2c.2 0 .4 0 .5.2l.4.1.4.1 1.4.7.6.2c.1 0 .2 0 .2.3l-.1.3c-.1 0-.6-.1-1.2-.5-.8-.4-1.7-.8-2.6-1-.3-.3-.7-.4-.8-.4l-.5-.2-.3-.1-.4-.2-.3-.1a.8.8 0 0 1-.4-.2l-.5-.2-.4-.1-.5-.2-.5-.1-1.3-.5-.3-.1v-.3c-.1-.2.3-.3.5-.1zm-.8.9c0-.2.6-.1 1 0l.6.4.5.1.5.2.9.3 1 .5 1 .4.4.2h.3l1.3.6.4.1.3.2.3.2.4.1.7.3c.4.2.6.5.3.6-.3 0-.5 0-.7-.2l-.3-.2-.5-.1-.8-.4-2-.8c-.2 0-.4 0-.6-.2l-.5-.1-1.1-.5-1.5-.6c-.5-.3-1-.5-1.6-.6-.2 0-.5-.3-.4-.5h.1zm-.4 1c0-.3 0-.3.5-.2l.6.3.3.1c.1 0 .3 0 .5.2l.3.1.5.2 1.1.5 2 .6.8.4.8.3c.1 0 .3 0 .4.2l.5.1c.1 0 .4 0 .4.2l.3.2c.8.2 1 .4 1 .6 0 .3-.3.4-.5.2l-.3-.2-.5-.1-1.2-.6c-.1 0-.3 0-.5-.2l-1.3-.5-1.3-.4-1.7-.7-.6-.1-1.3-.5-.4-.2c-.3 0-.5-.3-.4-.6v.1zm-.6 1.8c0-.2 0-.2.6 0 .3 0 .6.2.7.3l1.5.6c.4 0 .8.2 1 .3l.4.2.4.1.3.2.5.1.5.2c.2 0 .3 0 .4.2s.3.1.5.2l.3.1c.1.2-.9.2-1 0l-.4-.2-.5-.1-.5-.2h-.4l-.4-.3-.6-.2-.5-.1a.8.8 0 0 1-.5-.2l-.4-.2-.4-.1-.5-.2-.4-.1a.8.8 0 0 0-.4-.2c-.2 0-.3-.2-.2-.4zm.2 1.8.6.2 1.4.5.7.2.5.1.7.2c.4 0 .6 0 .6.2l.6.1c.7 0 .6.3-.1.3h-.7c0-.2-.2-.3-.5-.3l-.6-.1-.5-.2-1-.1-1.2-.3c-1.3-.2-1.3-.3-1.3-.5 0-.4.3-.5.8-.3zm-.4 1 1 .2.9.2.7.2.8.1.6.2.7.1.8.2c.2 0 .6 0 .7.2l.7.1.5.2c.3.2 1.1.2 1.2 0l.4-.2.4-.1.4-.3c.2 0 .4 0 .4-.2 0 0-.7 0-.7.2h-.4l-.5.2c-.2.2-.8.3-1 .1l.2-.2.4-.2h-.5l-1 .1h-.4l.3-.2c.5 0 .4-.3-.1-.3l-.6-.2-.5-.2c-.2 0-.4 0-.6-.2l-.4-.1c-.2 0-.4 0-.6-.2l-.6-.1-.5-.2-.5-.2-.5-.1-.4-.2c-.2 0-.5 0-.9-.2-.5-.2-.6-.2-.6-.5s.3-.3 1.2 0l1.3.6 1.7.4.4.2.4.2.5.1c.3.2 1 .4 1.6.5l.5.2.5.1.4.2c0 .1.2.2.5.2.5 0 .5-.4 0-.4l-.4-.1c0-.1-.2-.2-.5-.2l-.4-.1c0-.1 0-.2.3-.2.2 0 .5 0 .5.2l.5.1c.3 0 .4.1.5.2l.5.1c.4 0 .5-.1 0-.2l-.3-.2-.5-.2-1.4-.5-.5-.2-.5-.1-.8-.4-.7-.3-.5-.2-.5-.1c-.4-.3-1-.5-1.2-.5l-.5-.2-.8-.3-.5-.2c-.2 0-.7-.5-.6-.6 0-.2.6 0 .8.1l.3.2.4.1 1 .4 1 .3.4.2.4.1 1.5.5.6.2 1.2.5.4.2.3.1.8.3 1 .4c.2.1.2.5-.1.6-.2 0-.2.1-.2.5l.1.5h-.4c-.3 0-.5 0-.6.2l-.5.2c-.3 0-.2.1.5.1l.7.1v.4c0 .6 0 .6-.8.6l-.8.2c-.2.3-1.3.2-1.3 0l.4-.2.7-.1.9-.2h.4c0-.2-.4-.3-.9-.3-.2 0-.5 0-.6-.2l-.6-.1-.8-.2-1.1-.2h-.9c0-.2-.4-.2-.7-.3l-.8-.2-1.8-.4-.9-.2-.6-.2c-.3 0-.4 0-.5-.2 0-.3.1-.5.6-.3zm6.7 2.4-.5.1c-.5 0-.7 0-.5-.2h1v.1zm-3.7-.6h-.6l.3-.1.3.1zm-3.7-.8c0-.2.1-.2.5-.2l.7.2.9.2c.4 0 .6.1.6.2.1.3-2.5 0-2.7-.2v-.2zm-.1.7c0-.2.1-.2.6 0l3.3.4c.5 0 1.1.2 1.3.3l.7.1c.3 0 .4.1.5.2 0 .2 1 .2 1.1 0 .2-.2 1.3-.2 1.3 0 .1.2-2.2.6-2.4.4l-1-.2-1.4-.2-1.2-.1-1-.2-1-.2c-.9 0-1 0-.8-.5zm-.5 2.1c0-.2 0-.2 1-.1l1.1.1c1.5.4 3 .6 4.6.7l1.1.1c.7 0 .9 0 1 .2l.8.1h1c0-.2-.3-.2-1.1-.3l-.8-.2a81 81 0 0 0-8.6-1.3c-.2-.5.2-.6 1.8-.3a45 45 0 0 0 7.9 1c0-.1.2-.2.8-.2.7 0 .9.1.5.3l-.7.1h-.4c0 .2.2.2.8.2s.5.8 0 1h-2l-1.3-.3-2-.2h-2c-1.6 0-3.2-.3-3.3-.5l-.2-.4zm10.2 4.5h-2c0 .2 0 .3-.3.3-1.3 0-1.7.1-1.7.2l.7.1c.9 0 1.2.1 1 .3h-.8l-.9.1c-.2.2-.4.3-.8.3l-1 .1-1.4.1-1 .1-1 .2-.7.2c-.1 0-.2 0-.2-.3 0-.2 0-.2.7-.2.5 0 .9 0 1-.2l1-.1c.6 0 1 0 1-.2l.8-.1c.9 0 1.4-.2 1.4-.3s-1-.1-2.5.1l-1.3.2h-.6l-.9.3h-.6v-.4c0-.7 0-.7 2.4-.7.8.1 1.5 0 2.3-.1l1.2-.1 1.6-.1.5-.1-.5-.1h-2l-2.6.2h-2c-.9.1-.9.1-.9-.2v-.1h1.5c3.1.1 6.3-.1 9.4-.5v.6l.2.4c.1.1 0 .4-.3.4l-.3.1c-.1.1-2 .2-2.2.1-.3-.2 0-.3.8-.3s1.4-.2 1-.3zm-10.2-3.4c.1-.3.3-.3.5-.2 2.7.4 5.5.6 8.2.7l1.4.1c1 0 1.2.1 1 .4l-8.6-.3c-2.7-.1-2.8-.1-2.5-.7zm0 1.2c.1-.2.2-.3.6-.2l2.7.1 5.1.1c2.4 0 2.7 0 2.8.2v.3c-.3.1-11 0-11.1-.2l-.1-.3zm.1.8h7.7c0 .2-.3.2-2.3.3l-5.5-.1.1-.2zm0 4.1c0-.2.5-.4 1.2-.5a41 41 0 0 0 7-1.2l1.2-.1 1-.2c.6-.2.9-.2 1 0v.4l-2.4.4-1.1.2-.7.2-.5.1-.6.2-.8.1-1.3.2-2.9.5c-.3.2-.7.2-.9 0l-.2-.3zm7.5-.2c-.5 0-.7-.1-.4-.3h.9c.3.2.1.3-.5.3zm-7 1.8.3-.1.6-.2 1-.2.9-.2c.1-.1 0-.1-.8 0l-1 .1h-1c0-.1 0-.2.3-.2.2 0 .4 0 .6-.2l.9-.1 1-.2c.2-.2 1.5-.2 1.7 0 .2.3 1.2.2 1.2 0l-.4-.2c-.3 0-.4-.1-.2-.2h.6c.5.2 1.7.2 1.9 0h.8l.8-.1c.3-.2 0-.3-.5-.3h-.7c-.5-.2-.1-.3.7-.3.7 0 1 0 1-.2l.7-.1h.8l-.1.3h-.8c-.6 0-.7 0-.4.3.1.3.3.3.4.1l.4-.1c.5 0 .5 0 .5.3l.1.5c.2.3.1.7-.1.7-.3 0-.5-.1-.5-.5s-.2-.6-.6-.4h-.5c-.1 0-.4 0-.6.2l-1 .2-.8.2-.7.1h-.6a2 2 0 0 1-1.1.3l-1 .3-1.2.1c-.7 0-1 .1-1 .2l1 .1c.8 0 1.2 0 1.3.2l.5.1c.4 0 .5.2.3.3h-.9c0-.2-.4-.2-1.2-.3-.9 0-1 0-1.3.2-.2.2-1 .2-1 0s0-.2.2-.2c.7 0 .8 0 .7-.2h-.6c-.4 0-.6 0-.6-.3zm7.4-.4c0 .2-.2.4-.6.3-.2-.1-.2-.2-.1-.3.1-.2.7-.2.7 0zm-1.4.6h-2c-.3-.2.1-.3.6-.3l.8-.2c.3-.2.6-.2.8 0 .2 0 0 .5-.2.5zm-5.8 1.2c0-.2 0-.2.5-.2.3 0 .6 0 .7-.2.3-.2 1.9-.2 2.1 0 .2.1 0 .2-.8.2l-2 .5c-.4.2-.5.1-.5-.3zm.3 1c0-.2.8-.6 1.1-.6h.5l.8-.3c.7 0 1.4-.2 2.1-.5l1-.2 1-.1c.8-.2.8-.2 1.1 0 .3.3.2.6-.3.6-.4 0-1.2.2-1.5.4l-.6.1-.4.1-.4.2-1.8.6-.4.1a4 4 0 0 0-1.5.6h-.3c-.2-.1-.4-.8-.4-1zm2.4 7.7c.1-.1 0-.3-.1-.3-.2 0-.3-.2-.3-.4l-.1-.3c-.2-.2-.2-.2.1-.3l2.1-1h.4l.3-.2.5-.1.6-.2.4-.2.4-.1.4-.2.5-.1.6-.3.3-.1c0-.2-.8 0-1 0l-.3.2c-.2 0-.4 0-.5.2l-.4.1c-.1 0-.4 0-.5.2l-.4.1-.5.2-.5.2-.4.1-.5.2-.3.1-.4.2-.5.1c-.2.3-.6.4-.7.2 0-.3.4-.6.7-.6.5-.1 1-.2 1.4-.5l.5-.2s.3 0 .4-.2l.5-.1.4-.2.3-.1.6-.2.5-.2.2-.1c0-.2-.3-.2-.7 0l-.5.1-1.5.6-.4.1s-.3 0-.4.2l-.4.1-.5.2-.4.1-.3.2-.3.2c-.3 0-.4-.3-.3-.7 0-.2 0-.3-.2-.4-.1 0-.2-.1-.2-.3s0-.3.4-.4l.6-.2.3-.1.5-.2c.6-.1 1.7-.5 1.7-.6l.5-.1c.3 0 .4 0 .5-.2.1-.1 0-.1-.4-.1l-.7.1-.5.2-.6.1-1 .4c-.4 0-.7.2-.8.3-.2.2-.7.2-.8 0l.1-.2c.2-.1.2-.2 0-.3l-.1-.4-.2-.4c-.2-.3 0-.6.7-.7l1.7-.6.5-.2 2-.6 1-.4.6-.2 1-.2h.8v-.3c0-.1 0-.2-.2-.2-.6 0-.8 0-.8-.4 0-.2 0-.2.2-.2l.6.1.3.3.1.4c.2.2.2.2 0 .3l-.1.2-.5.3c-.2 0-.4 0-.3.1 0 .2.4.2.7 0l.7-.2c.4 0 .5 0 .5.3s0 .2.3.2c.2 0 .4.2.6.4.2.2.3.3.4.2.2-.2.6 0 .6.2l-.2.1-.4.2-.3.1c-.1 0-.3 0-.3.2l-.4.2c-.2.2-.2.2.2.2.5 0 .5 0 .5.4v.5c-.1.2-.4.1-.6-.1l-.4-.2h-.3c0 .2.1.3.2.3l.3.3c.1 0 .2.1.4 0h.5c.2.1.3.2.3.6s0 .5-.3.5c0 0-.2 0-.3-.2l-.4-.1c-.2 0-.3-.1-.4-.3l-.2-.3c-.1 0-.7-.6-.7-.8l-.3-.4c-.1-.1-.2-.3-.1-.4.1-.4.1-.5-.2-.5-.4 0-.5 0-.4-.4 0-.2.2-.2.5-.2l.6-.2c.2-.1.2-.2-.5-.1-1 0-1.7.5-1.2.6.2 0 .3.2.3.4s0 .3-.3.3l-.6.1-.7.2c-.3 0-.4.1-.5.3 0 .2 0 .2.3.3.5.1.6.4.2.4-.4 0-1.3.2-1.9.5l-.5.1c-.3 0-2.3.8-2.3 1s1.3 0 2.7-.6l1-.4.5-.1c.3-.3 1-.3 1.5-.1h1.7l-.1.3c-.2.2-.2.2.2.1.2 0 .4 0 .6.2l.4.3c.3.1.2.3 0 .3s-.8.6-1.1 1c-.2.4-.3.5-.2.7.2.2 0 .3-.2.3 0 0-.2 0-.3.2l-.5.1-.5.2c0 .1-.3.2-.5.1-.4 0-.4-.2 0-.3l.5-.1.4-.2c.2 0 .3-.1.3-.2.1-.2-.8-.2-.8 0l-.4.2-.3.1-.4.2c-.1 0-.4 0-.6.2l-.6.1c-.2 0-.4 0-.4.2l-.5.2c-.4 0-.4.2 0 .3.2 0 .3.1.3.2 0 .2-.5.1-.7 0-.2-.2-.4-.2-.6-.1h-.2l.3.2c.4 0 .3.3 0 .3-.4 0-.9-.4-.7-.6l.1.1zm6.3-5.1c0 .2 0 .3-.3.1-.3-.1-.2-.3 0-.3s.3 0 .3.2zm-.5-.7c0 .3-.1.4-.6.5s-.6.1-.8 0c-.1-.2-.1-.2 0-.4l1.2-.3c.2 0 .2 0 .2.2zm-2 5.3c0 .2-.7.1-.8 0 0-.1 0-.2.4-.1l.4.1zm-1 .3-.3.2c-.3 0-.5-.1-.3-.3l.6.1zm-2.3 1.9c-.2-.4-.1-.7.2-.7l.3-.2.5-.1.5-.2.5-.2.5-.1.5-.2.4-.1 1-.4 1-.3.5-.2.2-.1.4-.2.5-.1.5-.2c.2 0 .3 0 .4-.2l.4-.1c.2 0 .5-.1 1.3-.6.5-.2.6-.2 1 0 .3.1 0 .6-.5.6-.4 0-1 .2-1.4.5l-.5.1-.4.2-.3.2-1.6.5-.3.1-.4.1-.8.4-1.2.5-.9.3-.3.1-.4.2c-.2 0-.3.1-.3.2l-.3.1-.4.2c-.1.2-.5.1-.6-.1zm.7 1c-.2-.3-.2-.4.5-.7l5.5-2.3.5-.2.8-.4.7-.3.5-.1.4-.2.5-.1c.2 0 .3-.1.3-.2.1-.2.4-.2.5 0v.2c-.2.1-.2.2 0 .3.3 0 .3.2.3.5l-.1.4-.8.6.2.1h.2c0-.2.1-.2.3-.3l.3-.2.3-.1c.3 0 .4 0 .4.2s-.2.4-.7.8c-.7.5-.7.5-.9.3l-.1-.4s0-.3-.2-.4v-.5l.8-.4c.2 0 .2-.2 0-.3l-.4-.2c0-.2-.5-.2-.6 0l-.3.2-.5.1-.7.4a81.1 81.1 0 0 1-6.6 2.9l-.6.3h-.5zm9.2-1.4c.2.1.2.1 0 .4l-.4.3-.8.5c-.4.4-.8.4-1 .2-.2-.3-.2-.3.3-.6l.8-.6c.3-.3.7-.4 1.1-.2zm-.8-.8c0-.3 0-.4.3-.4.2 0 .2 0 .2.3 0 .2 0 .2-.2.2s-.3 0-.3-.2v.1zm1-1.4.2.1-.2.1h-.1l.1-.2zm-1 3.5c.2 0 .3-.1.3-.2l.2-.1.3-.3c.3-.2.3-.2.6 0l.2.3c0 .4-1.7.9-1.9.6l.3-.3zm-7.9 1.1c-.2-.2-.2-.2-.1-.4l.2-.2.6-.3c.3 0 1-.4 1.6-.7l1.3-.6 1-.5 1.4-.6.6-.3.3-.1c.2 0 .3 0 .3-.2l.3-.1.4-.2c.2-.2.6-.2.7 0l-.2.2c-.1 0-.3 0-.4.2-.1.2 0 .1-.2.1l-1.4.7-.5.3-.8.4-1.2.6c-1.2.5-2.3 1.1-3.4 1.8-.1.2-.2.2-.5 0v-.1zm.7 1.2c-.2-.2-.3-.4-.2-.5 1.6-1.1 3.3-2 5.1-2.8 0-.2.2-.3.3-.3l1-.5c.2-.2.5-.2.6 0 .3 0 0 .5-.3.6-.1 0-.4.1-.5.3l-.6.3c-.2 0-.4.2-.6.4l-.4.2-1 .5-1.7 1-1 .8-.5.3-.2-.3zm.7 1.3c-.3 0-.4-1 0-1l2.8-1.5c1-.6 1.2-.7 1.7-.7h.5c-1 .9-2.2 1.7-3.4 2.3l-.6.3h-.1c-.1.3-.7.6-.9.6zm.6 1.2c-.2-.1-.4-.7-.3-.8l.4-.3 3-1.7 1-.7c.8-.6 1.2-.7 1.6-.5.2 0-.2.4-.8.8-.6.3-.7.3-2 1.2-1.1.7-1.8 1.3-2.4 1.8-.3.3-.3.3-.5.2zm.5.7c-.2-.2-.1-.4.3-.6l2.1-1.6h.2l.7-.6 1.3-.8 1-.7 1-.6c.3 0 .5-.1.5-.2l.2-.1h.3l.3.2c.2.2.2.2.6 0h.6c.1 0-.1.5-.4.6l-.5.3-.6.3c-.3 0-.5.2-.5.4s0 .2.3.1.5 0 .3.2c-.2.3-.5.3-.7.1h-.6l-.9.6c-.4.2-.8.3-1 .1l1-.7c.2 0 .4-.2.5-.3.1-.2.5-.4.8-.4.1 0 .2 0 .3-.2 0-.2.3-.4.6-.6.2 0 .3-.1.3-.2s-.3-.1-.4 0c-.1.3-.7.5-1 .4-.2 0-.3 0-.5.4 0 .2-.3.4-.4.4l-.5.3-.8.5-.9.6-.5.3-.5.3-.8.5-1.5 1h-.2zm.3.6c-.2-.3-.1-.3.4-.6l.6-.3.3-.2 1.2-.7c.8-.6 1.3-.8 1.5-.6.1.1-.3.5-.7.6l-.5.4-.6.3-1.3.8c-.6.5-.8.6-1 .3h.1zm.7.5 3-2c.8-.6 1.6-1.1 2.5-1.4.3-.2.5-.2.6 0 0 0-.4.5-.6.5l-.5.3a40 40 0 0 1-4.9 3c-.2 0-.3-.2-.1-.4zm.5 1c-.1-.1 0-.2.2-.3 1.5-.8 3-1.7 4.3-2.8l.2-.2.5-.4 1-.7.4-.4.8-.2.2.2-.5.5-3 2.2-1.1.7-.9.6-.8.5-.4.3c-.4.4-.8.4-.9 0zm.6.7c0-.1.1-.3.3-.3.4-.2.6-.3 1.4-1l.7-.4.6-.3.4-.3.4-.2c.3-.3.6-.3.6 0l-.2.2-.5.3-.5.3-.2.1-.5.4-.5.3-.9.6h-.1c0 .2-.7.6-.8.6l-.2-.3zm.6.7c0-.1.8-.7 1-.7v-.1l.5-.3.5-.3.9-.6.4-.4.6-.3.6-.4.7-.5c.2 0 .5-.2.8-.5.7-.6 1-.6.9-.1-.1.4-.5.8-.8.8l-.2.2-.5.3-2 1.3-1.7 1.1-.5.4c-.7.5-1.2.5-1.2.1zm5-1.9c0 .1-1 .9-1.2.9h-.2l-.3.3-.4.2h-.3s.5-.6.7-.6h.1l.2-.3.3-.1.8-.5h.1l.2.1zm-3.8 2.7-.2.1-.3-.1.2-.2.2-.1.2-.2c.2 0 .3-.1.3-.2l.3-.2.3-.1c.2-.2.4-.2.4 0h-.2l-.3.3-.2.2-.2.1-.3.2-.2.2zm.4.8c-.4 0-.3-.5.2-.8l2-1.3.6-.5 1.6-1.2c.4-.3.6-.5.4-.5 0 0-.2 0-.3.2h-.3l.2-.2.2-.2.2-.2c.1-.2.4-.2.6.1v.6c-.3.5-.5.7-1 1l-.7.4-2 1.6-1 .8c-.3.3-.5.4-.7.3V55zm.8.7-.3-.2.4-.4.5-.5c1-.6 1.9-1.2 2.7-2l1-.5.2-.3.3-.4.1-.4c0-.2 0-.2.3 0 .2 0 .4.2.4.3l-1.5 1.4-3.2 2.8c-.4.4-.5.4-.9.2zm.8.4.6-.5 1.4-1.1 2.6-2.3 1-.8 1.2-1s.8-.7 1.2-1.3c.3-.3.8-.5.8-.2l-2.4 2.4c-2 1.8-4 3.6-5.8 5.6-.1 0-.7-.7-.6-.8zm1.5 1.3-.3-.1c2.5-2.8 5.2-5.4 8-7.9 0 .1-.7 1-2 2.4l-3.9 3.9-1.8 1.7zm.8.5c-.3-.1-.3-.4 0-.6.3-.2 6.1-6.2 6.8-7.1.4-.5.8-.6.9-.3 0 0 0 .2-.2.3l-.6.8a62 62 0 0 1-6.1 6.8c0 .2-.6.2-.8.1zm1 .5c-.1-.2-.2-.4 0-.4s3.1-3.1 4.1-4.4l1-1.2 1.4-1.7c.4-.5.5-.6.6-.4l.1.2-.8 1-1 1.2-1.7 2-.5.5-1 1-1.6 2c0 .2-.4.3-.6.2zm1 .5c-.4 0-.3-.2.3-.8l1.8-2 .7-1 .8-.8.8-1 1-1.2.9-1c.3-.4.6-.5.6-.2 0 0 0 .2-.2.2l-.1.2s-.6 1-.8 1l-.3.5-.8 1-.8.9-1.2 1.2-2 2.4-.7.6zm.7.6c-.4-.2-.4-.3.2-.8l.8-1 2.1-2.4 3.7-4.2c-.2.5-.6.9-1 1.3 0 .1 0 .3-.2.5l-1 1-.6.8h-.1c-.2.5-.5.9-.9 1.3v.1l-.6.8-1.6 2-.4.5c-.1.2-.2.2-.4.1zm2.8 1.9c-.2-.2-.2-.4 0-.6l.1-.3s0-.2.2-.2l1.3-2.4.4-.5c0-.2.3-.6.6-1a31.5 31.5 0 0 1 1.7-2.6l.6-1c0-.1 0-.2.2-.3.1 0 .2-.5 0-.5 0 0-1.2 1.6-1.2 1.8l-.3.3-.5.8-.9 1.3-.4.7-1 1.5-.9 1.3c-.7 1.2-.7 1.1-1.2.8-.2-.2-.2-.2.2-.8l1.1-1.4s0-.2.2-.3l.8-1.1.3-.4a21.4 21.4 0 0 0 3.2-4.8l-.3.3-.6.7-.8 1.2-.8 1.1-1 1.2-.7 1c-.2.4-.4.6-.5.6l-.3.5c-.1.3-.5.6-.7.9l-.4.6c0 .2-.3.2-.5 0-.3-.1-.3-.1.1-.6l2.6-3.2.5-.6 1.3-1.7 1.4-1.8.1-.2c0-.2.3-.4.5-.4l.2.1.3.2c.1 0 .3 0 .3.2l.3.2c.1 0 .2 0 .1.3l-.1.4c-.2 0-.7 1-.9 1.3l-.3.6-.7 1-.5 1c-.9 1.5-1.8 3.1-2.5 4.7 0 .2-.5.2-.6.1zm1.2.6c-.4 0-.4-.1 0-1 .3-.2.5-.6.6-.8l.3-.5.5-1c.2-.5.3-.7.6-1l.3-.8.4-.6.1-.3.3-.5.4-.6.3-.6.8-1.7c.2-.4.3-.5.5-.2v.5l-.7 1-.1.3-.2.3-.3.5-1.4 2.9-1 1.7c-1 2-1.2 2.5-1.4 2.4zm1.2.2c0 .3-.3.4-.5.3-.3 0-.3-.5 0-.8l1.1-2.2c.7-1.5 1.4-2.9 2.3-4.2l.3-.7.4-.8v-.1l.2-.2c.3-.7.5-1 .6-1 .1 0 .2.1.1.3l-.1.5-.2.3-.5 1.1-.1.3-.2.3-.2.2-.4 1c-1 1.8-2 3.7-2.8 5.7zm3.7 1.8c-.3-.2-.3-.5 0-.9l.4-.8c0-.4.2-.7.3-.9l.1-.4.2-.4.3-.8.4-.9.1-.5s0-.3.2-.4l.5-1.3.1-.3.2-.4c0-.2 0-.3.2-.3s.1-.3.1-.4c0-.2 0-.4.2-.6v-.6l-.1.2c0 .2-.2.3-.3.4l-.1.5c0 .2 0 .4-.2.4l-.1.3-.2.5-.1.4-.2.3-.2.4-.1.3-.2.5-.1.5-.2.4c0 .1 0 .4-.2.5l-.1.4-.2.4-.1.4-.2.3c-.1 0-.2.2-.2.5l-.1.5-.2.4-.1.5-.2.3c0 .3-.2.3-.4 0 0-.1-.1-.1-.2 0-.2.2-.2.2-.4.1-.3-.1-.4-.1-.1-.4l.1-.5s0-.3.2-.4c.2-.1.1-.2.1-.4l.4-.8.3-.9.1-.4.2-.4c0-.1 0-.3.2-.4.2-.1.1-.2.1-.3l.2-.3c.2-.1.1-.3.1-.4l.2-.4.2-.3.1-.3.2-.3.1-.5.2-.4c0-.2 0-.4.2-.4.1-.2.2-.9 0-.9l-.2.3-.2.6-.1.6-.1.2c-.1 0-.2.1-.2.3l-.2.4-.5 1.1s0 .2-.2.3-.1.2-.1.4l-.2.3-.1.3-.2.5c-.5.9-.8 1.8-1 2.5l-.4 1c-.2 0-.6 0-.6-.2l.4-1 1.9-4.2.2-.5.4-.6.2-.6.2-.4.1-.3.2-.4.2-.3.1-.6.2-.5c0-.3-.2-.2-.3.2l-.2.3-.2.4-.1.4-.2.2-.1.5-1 1.8c0 .3-.3.8-.4 1l-.2.5-1.8 3.9c-.5.1-.6-.2-.3-.7l1.2-2.6.4-.7.3-.6.1-.3.2-.3c0-.1 0-.3.2-.3l.1-.2c0-.1 0-.3.2-.4l.1-.4.2-.3.2-.4.1-.3.2-.2.1-.3.2-.4c0-.1 0-.3.2-.4s.1-.3.1-.4c0-.2 0-.3.2-.3l.1-.3c0-.4.3-.4.3 0s.2.4.3.2c.1-.3.4-.2.5 0 0 0 .1.1.2 0l.2.1.3.1c.2 0 .4 0 .4.2l.4.1c.4 0 .5.4.2.7l-.2.5-.1.4-.2.3-.2.6c-.7 1.5-1.2 3-1.7 4.6 0 0 0 .3-.2.5l-.3 1-.6 1.7h-.4zm1.5-.2c0 .3-.3.6-.5.5-.2 0-.2-.5 0-.7l.5-1.5s0-.3.2-.4l.1-.6c0-.1 0-.3.2-.4.2-.1.1-.2.1-.3l.2-.5.5-1.4.5-1.3.1-.3s0-.3.2-.5l.7-2c.2-.4.5-.5.7-.2v.4l-.3.6-.1.5-.2.2-.1.6-.4.8c0 .3-.2.7-.3.8l-.3.8-.4.8-.1.6s0 .3-.2.4l-.1.3-.2.6-.8 2.3v-.1zm1 .5c0 .2-.5.3-.7.2-.1-.1 0-1 .2-1 0 0 .2-.1.2-.3l.2-.5v-.2l.2-.5.2-.5.1-.4.5-1.3c.4-.9.8-1.8 1-2.7l.6-1.8.2-.6c.2-.4.5-.5.7-.2v.3l-.2.5c0 .2 0 .3-.2.3s-.1.3-.1.4 0 .4-.2.5l-.2.8-.2.6v.3l-.2.4-.2.3-.6 1.4v.3c0 .2 0 .4-.2.5l-.3.8-.8 2.4zm1.1-.2-.2.6-.3.2c-.3 0-.3 0-.3-.3l.1-.5.2-.4.5-1.5.2-.3.1-.5c.3-.5.5-1 .5-1.4l.2-.4.1-.4.2-.4.1-.3.2-.6.3-1c.4-1.1.8-2.3 1-2.3h.2c0 .2 0 .8-.2 1l-.3.9c-.3 1.1-.6 2.2-1.1 3.2l-.2.5-.2.5v.3l-.4.8-.7 2.3zm1.5 1.4c-.3-.1-.3-.4-.2-.6l.3-1 .5-1.8.4-1.2.2-1 .2-.4.2-.7.2-.8.4-1.8.2-.5c.1-.1.2-.2 0-.4 0-.2 0-.2-.1 0 0 .3-.2.5-.3.6l-.1.6c0 .2 0 .4-.2.5s-.1.3-.1.5l-.2.6-.2.4-.8 3-.8 2.9c-.1.7-.3.8-.6.8s-.4-.4-.2-.7l.5-1.6.2-.6.1-.4.2-.6c.8-1.8 1.5-3.7 2-5.6v-.4c0-.3.1-.4.3-.4h.3l.3.1c.2.1.3.2.2.4l.1 1c.2.6.2 1.1 0 .8l-.1-.5-.1-.4c-.1 0-.3.4-.3.8l-.1.4-.2.4-.5 2.1-.1.6-.2.6-.2.6v.6l-.6 2.4c0 .6-.3.8-.6.7zm1.6-.4c0 .2 0 .4-.3.4-.5.2-.5 0 0-2l.5-2.2.4-2c0-.3 0-.5.2-.6l.1-.6c0-.3 0-.5.2-.5s.2.2.2.5l-.2 1.1-.2 1-.1.8-.3 1.3-.4 1.7-.1 1.1zm.7.6h-.3v-1l.6-2.9.1-.7c.2-.3.5-2.2.5-2.8l.1-.7.2-.7.3-1 .1-.7c0-.2.4-.1.5 0v.7l-.4 1.3-.4 1.7v.8l-.2.8-.2.7c0 .3 0 .7-.2 1l-.1 1.2c0 .4 0 .7-.2.9l-.1.7c0 .4 0 .6-.3.7zm.9-.6c0 .6 0 .6-.3.6h-.1v-.8l.2-.8.2-.8.2-1 .1-1c0-.5 0-.7.2-.8.1 0 .2-.2.2-.6l.1-1 .2-.8.1-.6c.1 0 .2-.3.2-.7v-.9l.3-.5c.2-.4.4-.3.3.2l-.2 1c0 .4-.2.9-.3 1l-.1.8c0 .2 0 .6-.2.7l-.1.6-.2.8-.1 1.1-.2.8-.2.8-.1.9c-.1 0-.2.4-.2 1zm1.1-.1-.1.6c0 .4-.3.6-.6.4-.2-.2-.1-1.2.1-1.5l.2-.5.1-1 .3-1.5.4-2.2.4-2.3.2-.8.2-.6c0-.2 0-.3.2-.3s.3 0 .4.2v.4c-.2.2-.4 1.2-.6 2.8l-.2 1a31 31 0 0 0-1 5.3zm2.2-.6c-.1 1.4-.1 1.6-.3 1.7-.1.1-.3.2-.4.1h-.2c-.2 0-.2-.8 0-1.4.5-1.8.9-3.7 1-5.6l.2-1 .2-1.3c.1-.5 0-1.1-.1-1l-.1.5-.2.7-.2 1-.1 1-.2.7-.1 1-.2 1c0 .3 0 .7-.2 1l-.1.8c0 .3 0 .5-.2.7l-.2 1c0 .5 0 .7-.2.8-.4.2-.5-.3-.3-.9.2-.4.6-2.3.6-2.8l.1-.9.2-.7.1-1 .6-3c.1-1.3.3-1.6.5-1.4.2.2.2.2.3 0h.3c.2 0 .2 2.1 0 2.3l-.2 1.2c0 1-.1 1.3-.5 3.2l-.1 2.3zm2.3-4.5c-.2 2.1-.3 4.3-.3 6.4h-.3c-.3 0-.3 0-.3-.5 0-1.4.3-4.5.4-5.2v-4c-.2 0-.2.2-.3 1.7l-.1 2c-.3 1.8-.4 3.7-.5 5.5 0 .6 0 .7-.3.7h-.3v-1.4c0-1.2 0-2 .4-4l.4-3.1.1-1.4.1-1.2c.2-.2.5 0 .7.2 0 .2 0 .3.1 0l.3-.2c.2 0 .2.3 0 4.5h-.1zm1 1.5c-.1 4.1-.1 4.6-.3 4.8h-.3v-5.9c.2-1.7.2-3.3.2-5 .2-.1.4.3.4.9v5.2zm1.4 4.4h-.4c0 .2-.4.4-.6.3-.2 0-.2-.2-.1-1.3v-9.3l1.3.1.1 2.1v2.2l.1 3v3h-.4v-.1zm1.3-.2h-.3c-.2 0-.2-.5-.2-4.2v-6c.3 0 .3 0 .3 1.7a81 81 0 0 0 .2 8.5zm4.7-.8h-.4c-.2-.2-.2-.2-.3 0-.1.2-.5.4-.8.3-.1 0-.2-.1-.2-.6v-.8c-.2-.3-.4-1.6-.5-3l-.2-1.8-.2-1c-.1-.8-.1-1-.3-.8-.1.2 0 1.2 0 1.6l.2 1.8c0 1 .1 2 .4 3 0 .3 0 .6.2 1 .2.5.1.6-.5.7l-.4.1v-1l-.2-2.2-.2-3c-.2-2.5-.3-3-.4-3-.2 0-.2 1.5 0 3 .2 1.9.3 3.7.3 5.6.1.7 0 .8-.4.8h-.3v-2.3l-.2-4.3c-.2-3-.1-3.5 0-3.6l.2.4.2.3v-.3c0-.3.2-.3.4-.3.3 0 .3 0 .3.5s0 .7.2.7l.1-.7.1-.7.4-.2c.3-.2.4-.1.5.3l.2.4.1.6c.1.8.3 1.9.5 2.2l.2.8.1.6.2.8c0 .8.3 2 .5 2.3l.2.7.1.8c0 .2 0 .3-.2.3h.1zm4.8-1.5-.5.2c-.2 0-.3 0-.6-1l-.3-.9-.7-1.9-1.1-2.8-.3-.9-.3-.8-.2-.4-.2-.3-.1-.3c-.2 0-.2.4 0 .8l.1.5.2.4.2.3.1.5.4.8c0 .3.2.7.3.8l.1.3.2.5.3 1 .4.8.1.4.7 1.9c.2.5.2.7 0 .8-.2 0-.3 0-.3-.3l-.2-.3a.8.8 0 0 1-.2-.5l-.1-.4-.2-.4-.5-1.6-.1-.4-.2-.5-.3-1-.4-.9-.1-.4-.1-.3-.2-.5-.3-.5v1.1c.2.2.2.4.2.6l.2.3.2.4.1.5.5 1.6s0 .2.2.3c.2.1.1.2.1.4 0 .1 0 .4.2.5l.5 1.5.1.3.2.4c0 .3 0 .3-.3.3-.2 0-.3-.1-.4-.4 0-.2 0-.5-.2-.5s0-.3 0-.5l-.2-.5a.8.8 0 0 1-.2-.5c0-.4-.4-1.5-.5-1.5-.2-.1-.2.6 0 1l.4 1.2c0 .5.2 1 .3 1 .3.4.2 1.2-.1.9l-.2-.3-.3-1.2-.1-.3-.2-.7-.1-.6-.2-.7-.2-.8-.1-.5c-.2 0-.3-1 0-1l.2.5c0 .4 0 .4.2.3v-.5l-.3-.7c-.1-.5-.3-.4-.3 0l-.1.4c-.3 0-.3.9 0 1.2l.1.7c0 .3 0 .6.2.7l.3 1.2.7 2v.5c-.5.3-.7 0-.8-.8l-.2-1-.3-.9c-.2-1.3-.5-2.6-.9-3.8l-.1-.7-.2-.8.1-.8c.2 0 .2-.2.2-.3l.2-.3c.1-.1.2-.3.1-.4 0-.3.5-1 .8-.8l.2-.1c0-.2.3-.2.5 0l.2.4s0 .2.2.3c.2.1.1.2.1.3l.2.2c.2 0 .1.3.1.4l.1.3.7 1.5.4.7.1.3s0 .3.2.4l.5 1 .3.9.3.7.4.8.1.2.2.3.1.3c.1.1 0 .2-.2.4h-.1zm.6-.5-.3-.3-.1-.3c-.1 0-.2-.1-.2-.3l-.1-.4-.2-.4-.1-.5-.2-.4c0-.1 0-.3-.2-.3l-.1-.3-.3-.7-.4-.8-.1-.3-.2-.3-.1-.4c-.1 0-.2-.1-.2-.3s0-.2.2-.2.1.1.1.3.1.2.2.2l.1.3c0 .3.1.4.2.5 0 0 .2.1.2.3l.1.3.2.2.1.4.2.4c0 .2 0 .4.2.4l.1.3c0 .2.1.3.2.3l.1.3.2.3.2.5.1.5.2.4-.1.3zm6.9-3.6c-.3 0-.5-.2-1.3-1.4l-.5-.6-.8-1-3-3.6v.2l.4.5c.7.7 1.3 1.6 1.8 2.4a33.2 33.2 0 0 0 2.8 3.8c0 .3-.4.2-.7-.1-1-1.2-1.9-2.5-2.7-3.8l-2.4-3.3v-.1l-.6-.8c-.2 0-.1.4.2.7l.3.5.1.2.6.9.2.3c0 .2.9 1.3 1 1.3l.1.2.3.5 1.6 2.3.6.7c.5.7.6 1 .3 1.2-.1 0-.6-.3-.6-.5v-.1l-1.3-1.7c-.2-.3-.7-1.1-.9-1.2l-.6-1c-.1-.4-.4-.7-.5-.9l-.4-.4-.2-.2v-.3l-.2-.3-.2-.2-.3-.5-.4-.5-.1-.2c-.2 0-.2.3 0 .4 0 0 .2.1.2.3l.1.3c.1 0 .2 0 .2.2l.1.2.2.2s0 .2.2.2l.1.2c0 .1 0 .2.2.3l.5.8.2.2.1.1c0 .1 0 .3.2.3s.1.3.1.4l.2.2.1.1.4.6.3.7.1.2.2.2s0 .2.2.2l.1.3.2.3.1.2.1.1.2.3.3.4c.2.1 0 .3-.3.1-.1-.1-.2-.1-.2.1l-.2.2-.3.2c-.3.4-.5.3-.8-.2l-1.4-2.5s0-.3-.3-.4l-.3-.6-.1-.2-.2-.3s0-.2-.2-.3-.1-.2-.1-.2l.1-.2c.1 0 .2 0 .2.2s0 .1.2.1.1 0 .1-.1l-.1-.2c-.1 0-.2 0-.2-.2-.1-.3-.3-.3-.3 0l-.1.1c-.2 0-.2-.3 0-.6v-.2l-.3-.3v-.3l-.5.6v-1l-.1-.3c-.1-.2-.1-.2-.3 0h-.3l.1-.3.1-.2c0-.2-.2-.2-.2 0l-.2.2-.2-.2.2-.3c.2-.1.2-.4 0-.5l-.2.2c0 .2-.1.3-.2.3-.2 0-.1.3.3 1l.5.6.1.2.3.5.3.5.3.3v.2l1.2 1.8.2.4c0 .2.1.2.2.2l.1.3.6 1 .4.7s.1.2.3.2c.2.2.3.6 0 .7h-.3l-1-1.5s0-.3-.2-.5l-.4-.5-.3-.5-.3-.6-.4-.6-.3-.6-.1-.3-.2-.2-.3-.5-.7-1.1a3 3 0 0 0-.8-1.2l-.1.1.1.2c.1 0 .2 0 .2.3l.1.3.2.2c0 .2 0 .3.2.4s.1.2.1.3l.2.2.1.3.3.6.7 1.2.3.5.4.6.7 1.2.7 1.1.5.8-.2.2c-.3.2-.6 0-.7-.5l-.4-.6-1.1-2.2c-.2 0-.8-1.4-.8-1.6l-.2-.2-.1-.3-.2-.3-.2-.3-.1-.4-.2-.3v-.2c-.1 0-.2-.1-.2-.3l-.1-.3-.3-.3c0-.2 0-.2-.2-.1v.3l.3.4c0 .2.1.3.2.3l.1.2c0 .1 0 .4.2.4s.1.3.1.4l.2.3.1.3.2.2.2.4.1.3.2.2.2.6.6 1.2.4.6.5 1 .2.5c0 .2.2.3.2.3v.3c0 .3-.5.3-.5.1l-.3-.8-.5-1.1-.5-1-.4-.9-.4-.7-.4-.7v-.1l-.2-.3-.2-.3c0-.4-.3-.4-.4 0 0 .1 0 .1-.1 0v-1l-.2.2c0 .3-.2.3-.3 0 0-.2-.1-.3-.2-.3l-.1-.3c0-.2 0-.4-.2-.5-.2-.1-.1-.2-.1-.3l-.2-.3-.1-.2c0-.3.2-.4.4-.2 0 0 .5-.3.5-.5l.4-.3.4-.3.2.3c.3.3.4.3.3-.1v-.3l.6-.3c.2-.3.4-.4.5-.3h.1s0-.2.2-.3c0-.2.1-.2.3 0h.1c0-.3.6-.9.9-.9.1 0 .3.1.4.4l.5.7c1.2 1.4 2.3 2.8 3.3 4.3l.4.5.3.4 1.4 1.7c.4.4.4.8 0 .8zm-7.1-4h-.2c-.2 0-.2 0 0-.2l.2.2zm7.6 3.4-.5-.7-.5-.6-.8-1-.9-1.2-.5-.7-.5-.4v-.1l-.5-.6-.4-.6c0-.2.2 0 .6.3l.6.7c0 .1 0 .2.2.2l.1.2.3.4.8 1c.9.9 1.8 1.9 2.5 3 0 0-.2.2-.5.1zm1.2-.6c-.3.2-.6.2-.7-.1l-.4-.5-1-1.3a64 64 0 0 0-5-5.4l.1-.2c0-.2-.2-.2-.2 0l-.2.2-.1-.2v-.2c.2 0 .2-.3 0-.3-.1 0 0-.3.3-.3l.6.4.4.4c1 1.4 2.2 2.7 3.4 4l2.8 3v.5zm.6-.5c-.1 0-.4-.2-1-.9l-1-1.2-2.4-2.5-.8-.9-.3-.4-1.4-1.4c-.6-.5-.7-.8-.5-1 0-.1.4.1.5.3l.6.7.4.5 1 1.2 1 1.2c.2 0 1.2 1 2.6 2.6l1 1c.2 0 .6.6.6.8h-.3zm2-1.4-2.1-2a56.6 56.6 0 0 1-4.2-4.3l-.4-.5-.5-.4-.6-.5.2.4.4.4.9 1a333.8 333.8 0 0 1 4 4.7l-1.7-1.8-1.2-1.2-2.2-2.4a93 93 0 0 1 6 7.4l-.9-.7-.7-.8-2.6-2.8-2.1-2.3-.8-.9-.4-.5c0-.2.4-.5.7-.6.2 0 .3-.1.3-.3 0-.3.2-.3.6 0l.4.5 6.8 6.9c.4.3.4.6.1.7zm1-.8c-.1.3-.4.3-1-.3l-7.4-7.6c.1-.2.3-.2.7.2l1.9 1.8 2 2c1.3 1.2 2.6 2.5 3.8 3.9zm1.5-1.6-.2.2-.4-.4-1.5-1.3-1.8-1.6a22 22 0 0 1-2.3-2l-1.9-1.5-.3-.2-.3-.2c0 .1.3.5 1 1l.7.7 6.5 5.8-.3.4-.3.3-1.1-1.2-2.5-2.4-2.2-2.1-1.7-1.6c-.6-.5-.8-.8-.7-.8l.4-.1.1-.3c0-.3.4-.3.7 0l1 .8c2 1.5 3.9 3.1 5.7 4.8 0 .2.5.5.9.9l.7.6-.2.2zm.5-.7a5 5 0 0 1-1.2-.8l-.6-.6a82 82 0 0 1-5.6-4.7l-1-.7c-.2-.1-.4-.3-.3-.4 0-.2.2-.4.3-.4l.9.8c.5.6 1.1 1.2 1.8 1.6l.5.4.7.6 1 .7 3.5 3.5zm2-2.9c-.3.1-.5 0-1.3-.6l-1.2-.9-1.1-.7-1.1-.8-.8-.6-2-1.4-.1.1v.2l.5.3.4.4.2.1.2.2.5.3.5.3.2.2.2.1.2.2.2.1 1.2.9c2 1.5 2.4 1.8 2.6 1.8l.2.4c0 .3-.4.4-.6.2a20 20 0 0 0-2.2-1.9l-.5-.3-.4-.4-.3-.3-.5-.3c-.1-.2-.4-.3-.4-.3l-.3-.2c0-.1-.1-.2-.2-.1-.2 0-.2.3 0 .3l.2.1c0 .1 0 .2.2.2h.1c0 .2.1.2.2.3.2 0 .4.2.7.5l.2.2.4.3.4.3 1 .8.7.5.7.7c.3.4-.2.3-.7-.2l-.5-.5-.7-.4-.6-.5-.2-.1-.6-.6-.7-.6h-.1l-.2-.2-.1-.2-.2-.1-.1-.2-.7-.6.2-.2c.1 0 .2 0 0 0h-.3c-.2.2-.3.2-.4 0l-.2-.2-.2-.1-.2-.2c-.1 0-.2 0-.2-.2-.1-.1-.5-.2-.5 0l.9.7c.5.4 1 1 1.3 1.1l1 .9.7.7.8.6c0 .2.5.4.5.4l.1.1 1.5 1.2c.3.3-.1.6-.3.3l-.7-.6-1.2-1-1.3-1-.8-.7-1-.8-.7-.6-1.1-1-1.1-1-.4-.3.3-.2.4-.2.1-.3c0-.1 0-.3.2-.3s.2-.2.2-.4c0-.3.2-.3.5 0l.3.3.5.3.4.4.7.4c1.9 1.4 3.9 2.8 5.9 4 .7.4 1 .7.5 1l.1-.1zm.7-1c0 .2-.6.2-.6 0l-.1-.1c-.4-.1-2.5-1.4-3.2-2l-.4-.3-.9-.5c-1.1-.9-2.3-1.7-3.6-2.4-.1 0-.4-.3-.4-.6 0-.2.4-.1.5 0 0 .2.1.2.2.2l.4.2.2.1.3.2c.2.2.7.2.7 0l-.3-.2c-.2 0-.3-.1-.3-.2 0-.2.6-.1.9.2.2.3.2.3 0 .4 0 .1-.1.2 0 .2l.3.2.7.6.4.3.5.3.8.5 1.1.8c1 .7 2.5 1.7 2.7 1.7.1 0 .2.2.1.4zm-7.8-6 .3.1-.3.2-.2-.2.2-.1zm1.7 1h.3l-.1.2-.2-.1v-.1zm6.7 4c-.1.5-.3.5-1.4-.2a25 25 0 0 1-1.7-1.2l-2.5-1.6-.1-.2-.2-.2c-.2 0-.3-.1-.3-.2h.6c0 .2.2.2.3.2l.3.2.4.2h.2l.3.3 1.3.8 1.1.7c.3 0 .6.3.7.3l.3.2.4.2.3.1c.2 0 .2.1.1.3l-.1.1zm.5-.8c0 .2-.5.2-.8 0l-.6-.4c-.7-.3-1.4-.7-2-1.2l-.5-.3-.8-.4-1.5-.8-.3-.1-.3-.1s0-.2-.2-.2a.8.8 0 0 1-.4-.2l-.3-.2-.3-.1-.4-.2s-.2 0-.3-.2l-.3-.1-.2.1c-.1.3-.5.2-.7 0-.1-.3 0-.5.1-.3.2.2.5.2.5 0l-.2-.1-.2-.3c0-.1 0-.2.3-.1l.4.2 1.3.6.6.3.8.4a52.4 52.4 0 0 1 6.3 3.7zm.6-1c-.2.5-.6.5-1.1 0l-1-.5-.6-.3a73.6 73.6 0 0 0-7.2-4c0-.2.2-.2.8 0l.6.3h.2c0 .2.6.5 1.2.7l.3.1 1 .5.9.5.8.4.6.3 1.2.7 1 .5.7.4c.4.1.6.3.5.5l.1-.1zm-.2-.7-.5-.3-3-1.6-1.6-.8-.9-.5-1.1-.5-1.1-.5-.3-.1-.4-.2c-.5-.1-.6-.4-.4-.6.3-.3.2-.3.7 0l4.8 2.4.8.4.7.4 2 1c.7.3.8.3.8.7 0 .3-.2.5-.5.3v-.1zm.8-1.1c-.1.1-.2.2-.3 0l-1.1-.5-1.4-.7-1.2-.6-.9-.5-.2-.1c-.2 0-1.4-.5-1.8-.8l-2.1-1-.3-.2c-.2 0-.2-.1-.3-.3 0-.3 0-.3.3-.3l.4.1.3.2s.2 0 .3.2l.4.1c.1 0 .5.1 1 .5l.4.2.4.2 1.3.7c.3 0 .6.2.6.3l.5.2.7.3.8.4.7.4.4.1 1 .4c.3.1.3.4.1.7zm-8.1-5.2.4.2.3.1c0 .2-.6.2-.7 0l-.4-.2-.3-.1c0-.2.6-.2.7 0zm.8.6h.5c0 .1-.2.2-.5 0-.1.1-.1 0 0 0zm7.9 3.3c0 .4-.5.4-1 0l-.7-.3-2.7-1.1-.3-.2-.2-.2-.3-.1-.4-.2-.4-.1-.2-.2-.3-.1-.4-.2-.2-.2c0-.2.4-.2.6 0l.3.2.3.1.4.2.3.1 1.1.5.6.2.7.3.8.4.5.1.2.1.7.3c.5.2.6.2.6.4zm.3-.6c-.1.2-.5.2-.6 0l-.2-.2-.6-.1-.7-.4-.7-.2-.3-.2-1.4-.6-.8-.3-.5-.1-.2-.2-.3-.2-1.2-.5-.3-.1-.4-.1c-.1-.2-.8-.5-1.2-.5-.4-.1-.5-.5-.3-.6s.4-.1.4 0l.3.2.8.4.8.3.4.1.3.2.7.3.6.4.4.1.4.2.4.1.3.2 1.2.5.5.1.4.2.4.2.3.1.6.2c.3 0 .4 0 .5.2v.3zm-1-1-1.5-.7c-.6-.2-1-.3-1.7-.7l-1.2-.5-.8-.4-.3-.2s-.3 0-.5-.2l-.8-.3c-1.3-.6-1.6-.8-1.5-1.1s.1-.3.5-.1c1.9 1.1 3.9 2.1 6 2.9l1 .4 1 .4.4.1.5.2c.2 0 .2 0 .2.3 0 .4-.1.3-1.3-.1zm1.8-1c0 .7-.1.8-.6.6l-.4-.3-.3-.1-1.3-.6-.6-.2-1.2-.6-2.7-1.2-.8-.4-.7-.3-.3-.2-.4-.1c-.3 0-.3 0-.3-.3v-.3l.2.1.2.1.4.2.5.2c.3 0 1 .4 1.5.6l1.6.6h.3l.6.3.8.3.6.3.4.2.5.1.6.2.5.2.4.1c.5 0 .6.1.5.5zm.6-1.3c-.1.4-.2.5-.4.5l-1.9-.6-.8-.3-.8-.3-1.6-.6-1.2-.5-1-.3-.9-.4-.5-.1-.6-.2c-.4 0-.4-.6-.1-.8s.4-.2.4 0l.3.1c.2 0 .4 0 .5.2l1.5.5s.3 0 .5.2l.4.1.4.2 1.2.4c.4 0 .9.2 1 .3l.5.2.5.1 1.9.5.8.2v.6h-.1zm.4-1.2c-.1.4-.2.4-.3.2l-1.6-.5-.7-.2-.6-.2-1-.3a36.8 36.8 0 0 0-5.7-1.8c-.2-.3-.1-.4.2-.3 0 0 .5 0 .8.2.3 0 .7 0 .9.2h.7l.6.2 1 .3c1.2.2 1.7.3 1.9.5h.4l.6.2.4.2.5.1c.1.1.7.3 1.2.3 1 .2 1 .3.7 1v-.1zm-.1-1.2a10 10 0 0 0-8.5-2l-1-.3c-.2 0-.2-.3-.1-.4l1.9.1 1 .3c1.2.4 2.4.6 3.6.8l1 .2 1 .3 1.1.3c.4 0 .6 0 .6.3s-.4.6-.6.4zm0-1.2-.8-.2-.6-.2-2.3-.5-1-.2-.7-.1-.6-.1c-.4-.2-2-.6-2.7-.6l-.6-.1c-.1-.2 0-.5.2-.5.1 0 .4 0 .6.2l.7.1c.2 0 .6 0 .7.2l.7.1.9.2c1.2.3 2.5.6 3.8.7l1.2.2c1 .2 1.1.2 1.2.5 0 .4-.2.5-.7.3zm.7-1h-.3c0-.2-.2-.2-.4-.2l-.8-.1-2.2-.5c-1.7-.2-2-.3-3.2-.6l-1.1-.2-1-.2-.5-.1c-.3 0-.4-.3-.2-.5.1-.2.1-.2.6 0l1.2.1 1.7.4c1 .2 3.6.5 5.5.6h1v.4c0 .5 0 .8-.3.9zm-.6-1.6-6.6-1h-1c-.4-.2-.9-.2-1-.2-.5 0-.6-.1-.5-.4 0-.1.2-.2.4-.1l1.3.1 1.3.2 1.2.2.8.1 1.2.2 1.2.2 1 .1c.4 0 .9 0 1 .2l.6.2.3.1c0 .2-.5.2-1.3 0l.1.1zm1.2-.7c-.1.2-.2.2-.5 0l-.8-.2c-.2 0-.7 0-1.2-.2-1.8-.4-3.7-.6-5.6-.8-1 0-2.1-.3-2-.5s1-.1 1.2 0l.8.2 1.5.1c1 .2 2.3.4 4.3.5 1.2.1 2.3.4 2.4.6l-.1.3zm.3-1.4c0 .4-.4.6-.6.4l-.7-.2-1.7-.1c-2.2-.4-4.5-.7-6.7-.9-.4 0-.5 0-.6-.2v-.3c.1-.2 1-.1 1.5 0l2 .2 2.2.2 2.7.2c2 0 2 0 1.9.7zm.2-1.4-.1.3h-1.2l-3.9-.3-2.1-.2-3-.3.1-.3c.1-.4.1-.4 3 0l4.2.2c3.1 0 3.2 0 3 .6zm.1-1.1a41 41 0 0 1-7-.3c-2.3 0-3.1 0-3.2-.3 0-.4 0-.6.5-.5l2.7.2h6.9l.1.5v.4zm0-2.7c0 .2-.1.2-.8.2l-4 .1c0 .3.6.4 2.4.4l2.1-.2c.2 0 .3 0 .3.3v.6c-3.4.1-6.8-.1-10.2-.5 0-.3.2-.5.8-.5h4l-.2-.1-.2-.2c0-.2.6-.3 2.4-.3h2.5c.8-.2 1.1 0 1 .2h-.1z"/>
  <path d="m-92.1 47.3-.5-.1-1-.3-1-.3-.8-.4c-.6-.4-2.3-2-2.5-2.6l-.4-.7c-.3-.6-.1-1.5.3-2.3.5-1 .7-1 2-1.1 1.4 0 1.6-.1 1.3-.3-.2-.2-.2-.2 0-.3l.4-.4c.2-.2.3-.3.5-.3l-.1-.5h-.3c-.3-.1-.5 0-.8.6-.1.4-.3.5-.5.5l-.7.2h-.7c0-.1 0-1 .2-1.6v-1.2c-.2-.8-.1-1.1.5-2.2.4-.7.4-1 .1-1-.2 0-1 1.2-1 1.5 0 .2-.3.3-.5 0h-.3v.3c.6.7.9 3 .4 4l-.6 1-.5.7c-.1.3-.3.2-.3-.2 0-.2.1-.5.3-.7.2-.4.3-.5.2-.6l-.2-.4-.4-.6-.5-.7-.2-.3c-.2 0-.2.4 0 .7l.2.6v.2c.1 0 .2 0 .3.2 0 .2.1.3.2.3 0 0 .1 0 0 .2 0 .1 0 .1-.1 0h-.4c-.2 0-.2 0-.3.4l-.2.6-.2.6c0 .4-.2.4-.5 0-.2-.3-.2-.4 0-.7l.2-.8.3-.6c.2-.3.3-.4.2-.5-.3-.4-.4-.3-.8.5-.2.4-.4.8-.4 1.2l-.1.7c-.2.3-.2.5.2.5a4 4 0 0 1 1.2 1c0 .3-.2.3-.3.2-.2-.1-.2-.1-.2 0 0 .3.1.3.4.4.4 0 .5.1.5.4 0 .3-.3.4-.4.2h-.5c-.3 0-.3 0-.3-.2v-.2c-.2 0-.3 0-.3-.2 0-.1 0-.1 0 0h-.5l-.4-.3c-1-.6-2-1.5-3-2.6-.5-.6-.8-1.3-1-2l-.2-.4c-.4-.7-.5-2.2-.4-3 .2-.4.2-.5 0-.6-.1-.2-.2-.2-.3 0-.2 0-.2.3-.2.8 0 .8-.1 1-.3.5l-.3-.4c-.4-.5-.9-.9-1.5-1.2-.3 0-.1.5.3.8l1.6 1.7c0 .2-.2.2-.5 0l-1-.2-.8-.2h-.4v.4l.4.1 1 .2c.6 0 1.2.2 1.4.5.3.3.9 1.5.8 1.6 0 .1-.3.1-.6-.1-.4-.2-1.3-.4-2-.4v.5h.1l.9.1c.4 0 .9.2 1 .3l.5.1c.2 0 1.8 1.6 1.8 1.8l-1.5-.1-1-.1h-.5l.2.4h.3l1.5.3c.9 0 2.3.6 2.4.8l.1.1.9.5.8.5.1.1.5.3 1 .8c.6.5.6.6.5.7-.2.2-.2.2-.6 0l-.4-.2c0-.2-1.1-1.4-1.3-1.4l-.3-.1-.2-.1c-.2 0-.1.2 0 .2l.2.1c0 .2.4.4.8.6.3 0 .1.3-.3.3-.3 0-.4 0-.6-.3l-.2-.4-.2-.1h-.2v.5c0 .2 0 .3.2.4l.4.2c0 .3.2.3.6.1.3-.1.4-.1.6.1l.3.4-1.4.1-1.6-.1-.6-.2h-.2l.6.7h.4c.5.1.5.1 3.2 0h1.7l.8.4 1 .4.6.3 1.4.5 1.3.5 2.5.7 1.2.3c.8.2 1.4.2 3.8.1l3.1.1h.7c-.1-.3 0-.3.5-.3l.7-.1 2-.5 3-.8.7-.2c.4 0 2.3-1 3.5-1.7l.8-.4.6-.3 1-.6 1-.6 1.2-1c1.2-.9 2.2-2 3-3.3l.4-.6c.7-1 1.3-2.1 1.7-3.3 1-2 1-2 1.4-4.2a14 14 0 0 0-1.3-8.1c-.4-.7-.4-1 0-1.2l.8-.3a5.9 5.9 0 0 0 3.4-2.6l.2-.2-.3-.8-.2.1-.5.6a9 9 0 0 1-1.6 1.1s-.1.1 0 .2l-.3.1-.7.4-.7.5c-.3 0-.6.4-.9.7-.4.6-1.3 1.2-1.7 1.2l-.5.3-.8.5-.6.4-.1.1-.8.3c-1.6.6-3.4.6-5 0l-.7-.3-.5-.3-.8-.6c-.5-.4-.6-.6 0-.6l1.3.5 1.2.5.5.1c.4.3 2.4.3 2.9 0l.6-.3.5-.2c.2 0 1.2-1 1.7-1.7.9-1.4 2-2.5 3.2-3a16 16 0 0 0 2.3-1l.4-.3.4-.2c.7-.5 1.2-1 1.7-1.7l.5-.6-.1-1h-.1l-.3.6s0 .2-.2.3l-.5.8c-.4.5-1.2 1.2-1.5 1.2l-.3.2c-.2.2-2 1.2-2.3 1.2-.5 0-2.6 1.6-2.9 2.2l-1.4 2-1.3.8-.3.1c-.4.3-1.3.5-1.7.4a9.2 9.2 0 0 1-3.6-1.3l-.8-.3c-.3 0-.8 0-1.1-.2l-1.8-.3c-.7 0-1.3-.1-1.6-.3a5.3 5.3 0 0 1-2-2.2v-.4h.3l.6.3a5 5 0 0 0 3 .3c.3 0 .6 0 1.1.2l1.7.6.3.1.3.2.4.2.8.2c1.2.3 2.3-.1 4-1.6 1.3-1.1 2.7-2.1 4.2-3l.5-.3.5-.2.5-.2a6.2 6.2 0 0 0 4-4.5l.3-1.4c0-.4.2-.8.3-.9l.1-.5.1-.3.1-.3c0-.2.8-1 1.2-1.3l.5-.2.8-.6c0-.1.1-.5.6-1l.2-.4a.5.5 0 0 1 0-.7c.1-.3 0-.3-.8-1.2l-.2-.4-.3-.1h-.1c-.4 0-.5-.2-.4-.3h-.9c-.3 0-.4 0-.4-.2s0-.2-.4 0c-.3.3-.6.3-.6 0h-.5c-.4.3-.7.3-.9.1-.1-.2-.2-.2-.3 0-.3.2-.3.2-.6 0-.1-.2-.2-.2-.3 0-.3.1-.4.1-.5-.2 0-.1 0-.2-.3 0-.2 0-.4 0-.6-.2l-.4-.2c-.2 0-.3 0-.3-.2s0-.2-.3-.2h-.3l-.2-.4c-.2 0-.3-.2-.3-.3 0-.2 0-.2-.2 0h-.3l-.1-.5c0-.1 0-.1-.2 0h-.3c-.2-.1-.3-.2-.2-.4h-.7c-.3 0-.4 0-.4-.2l-.4-.2-.4.2c-.2 0-.3-.1-.3-.3h-.2v.1c-.3.1-.8.2-.9 0h-.4c-.2.3-.5.5-.6.4 0 0-.1 0 0-.1l-.6.1-.8.4-.6.3-.5.3-.3.1c0 .2-.5.6-.7.6l-.3.1c0 .3-.5.7-.8.6l-.3.7v.2l-.4.4-2.3 1.7c-.5.2-1.7 1.5-2 2l-.3.9-.3.7-.3 1.1c-.4 1.5-.7 2-1.8 2.9l-.7.6-.1.2c-.2.2-.7 1.7-.7 2.1 0 .6.3 1.3.8 1.8.6.6 1 1.7 1.3 3.1.3 1.4 1 2.5 1.8 2.8.2.2.8.2 1.8.2h1.5l.5.5 1.2 1.2c.8.7 1.5 1.3 1.9 1.3l.8.3.6.4h1.8c1.5 0 2 0 2.2-.2l.5-.2 1.6-.8.8-.7 1-.8c.2-.3.5-.5.5-.2l.6 1.4.6 1.4c0 .1 0 .4.2.6.2.4.2.7.2 2.5 0 1.9 0 2-.3 3.2l-.5 1.5-.5 1c-.4 1.2-1 2.3-1.7 3.3-.2.3-.5.8-.8 1-.3.2-.6.9-.8 1.2a6 6 0 0 1-1.7 1.6s-.2 0-.3.2c-1.2 1-2.5 1.9-3.9 2.6-.1.2-.8.5-1.5.9l-2 .8c-.3 0-.5 0-.5.2l-.6.2-.7.2-.7.2-.4.2h-1.3l-.4.1h-.3l-1.6.4-2.8.2h-2.1c-.2.2-.8.2-1 0h-1c-1 0-2.1-.3-2.7-.6l-.6-.2zm-7.3-5-.2-.2c-.2-.2-.2-1.5 0-1.9l.1-.4c0-.2 0-.4.2-.4.1 0 .2.4.2 1.3l.1 1.5c0 .4-.2.5-.4.1zm35-27.6-.3.1c-.2 0-.2 0 0 .1.4.2.4.4 0 .5-.2 0-.3.2-.3.3 0 .2-.6.7-.8.7l-.3.1-.4.2-.6.5-.5.5-.3.1c-.1.2-.8.3-1.6.2-.4 0-.5 0-1-.5-.3-.4-.4-.6-.3-.7l-.1-.5V16c0-.1.1-.3 0-.4 0-.3.7-1 1-1 .3.1.3 0 0-.2-.2-.2 0-.5.3-.4.1 0 .2 0 .3-.2.1-.2.2-.3.4-.2.1 0 .2 0 .3-.3.2-.5.7-.3.8.3v-.1c0-.4.1-.5.3-.6h.8c0-.2.7-.2.8 0h.2c.2-.3.5-.1.5.1s0 .3.2.2c.3 0 .5.1.5.5l.1.3c.2 0 .2.5 0 .7zm2.3 0-1 .2c-.4.2-.7.3-.8.2l.1-.5c.2-.4.2-.5 0-1 0-.2-.3-.6-.6-.8-.3-.4-.5-.5-1.2-.6-.7-.2-.8-.2-1.2 0l-.6.1c-.5 0-1.6.5-2.1.9-.7.5-1 .7-1.5 1.4-.3.4-.4 1.1-.3 2v.8l.5.5c.5.5.5.5 1.2.6h.7l-.4.5c-.6.6-1.1.8-1.8.4-1-.5-1-.7-1.2-1.7l-.2-.6-.6-1c-.7-1-.6-1.6.2-3.1l.6-.6c.7-.5 1.6-.7 3-.8 1 0 1.5-.2 2.3-.6 2-.9 3.5-1 4.3-.5.4.2.6.4.9.9.2.3.2.5.2 1.1 0 1-.3 2-.5 2.2zm3.7-7.2-.5.5c-.3.3-.4.4-.1.4.2 0 .2.3-.2.6-.3.3-.3.3 0 .4l.1.2c0 .2-.3.6-.6.6h.1c.3 0 .4 0 .4.3 0 .1 0 .2-.2.3s-.2.1-.1.3v.3c-.2.1-.2.2-.1.2.2 0 .1.5-.1.5s-.2.1-.1.3c0 .2 0 .2-.2.3l-.3.3c0 .2-1 1.2-1 1.1v-.4l.2-.6.1-.5v-.9l-.1-.5-.4-.6c-.2-.5-.7-.9-1-.9l-.4-.1c-.4-.3-1.8-.3-2 0h-.5l-.3.2c0 .2-.1.2-.3.2-.2-.2-.8 0-.9.3l-.3.1-.4.1c-.7.4-1.9.6-2 .3l-.2.1c-.2.2-.2.2-.5-.2l-.4-.6c0-.2-.2-.4-.3-.5l-.2-.3-.1-.1c-.1 0-.2 0-.2.3s0 .2.2.2l.1.2.2.4c.2 0 .3.3.3.5v.2c-.3-.2-.3-.2-.5.1 0 .3-.1.3-.3.1-.1-.1-.2-.1-.2 0l-.6.4c-.6.3-.8.4-.9.7 0 .1 0 .2-.4.1-.5 0-.6-.2-.3-.4.1 0 .1-.2 0-.2l-.2.1c0 .2-.1.2-.4 0l-.4-.1.6.6.3.1c0 .1 0 .2.2.2s.2.1 0 .4l-.2.5v.6c0 .7-.4.9-1.3.8l-1.4-.2h-.9c-.3.1-.2.3.1.4l.4.2c.1.1.3.2 1.5 0h1.3l.2.2.3.6c0 .3.1.5.7 1 .1.2.2.4.1.6v.3l.2.4.1.4.2.2.2.2 1.1.6h.3c.1-.2.4 0 .4.2 0 .3-.2.4-.4.2h-.6l-.7-.2-.5-.1-.4-.2-.3-.2c-.1 0-.3 0-.5-.2l-.6-.3-.3-.3-.3-.1s-.3 0-.4-.2h-.3c-.4.2-.5.2-.6 0 0-.3-.1-.3-.3-.4-.3 0-.4-.1-.4-.3l-.3-.3c-.1 0-.2 0-.2-.2l-.3-.4-.2-.5V16c-.2-.1-.2-.4 0-.6.1-.2.1-.2 0-.4-.2-.1-.2-.2 0-.3l.1-.4c0-.4.2-.5.5-.4.3.2.7.2.7 0h-.4c-.3 0-.4-.1-.3-.3 0-.2 0-.3.2-.3s.3-.1.3-.3c0-.2 0-.3.2-.3s.3 0 .4-.2l.3-.3c.2-.1.3-.1.6.2.1.2.3.3.4.3l.3.2c0 .2.4.2.4 0l-.2-.1-.2-.2-.5-.3c-.5-.3-.5-.5-.1-.6.2 0 .3 0 .3-.3 0-.2.1-.3.2-.3.2 0 .7-.5.7-.7l.1-.2.2-.2.6-1c.1 0 .2-.1.2-.3l.1-.2.2-.3.3-.3c.2 0 .3-.1.3-.3 0-.2.1-.3.3-.3l.4-.3.7-.4.6-.3c.5-.3.7-.2.7.3V7l.2-.4V6c.1-.2.6-.2.7 0v.6c0 .5.1 2.8.2 2.7.2-.1.2-.8.1-2 0-1.2 0-1.5.4-1.2h.3c.3-.1.4.2.4 1 0 .6 0 .8.1.7v-.7c0-.4 0-.5.2-.6h.3c0 .1.2.2.3.1h.3l.5.2.3.4v.2c0-.4.3-.5.5-.3h.8l.6.3.5-.1c.1-.2.2-.2.4.1.2.3.2.3.2 0 .2-.3.5-.5.7-.2.2.2.3.2.4-.1.1-.3.6-.5.9-.3h1.3c.1 0 .3 0 .4.2.2.2.2.2.1.5zm-24 7.1c0-.8.2-1.3 1.4-2.7 1-1.1 1-1.3 1.2-1.7l.3-1c.2-.2.3-.6.3-.8 0-.4.8-2 1.1-2.4.2-.1.3-.4.3-.5l.4-.3 1-.6.7-.6v-.1l.5-.5c.4-.4 1-1.2 1-1.5 0-.1.6-.8.8-.8l.5-.4.5-.3.5-.3.6-.4 1.4-.4c.4-.2.6-.2 1.8-.2 1 0 1.2.1 2 .4l1.8.9c1 .7 2.3 1.3 2.8 1.3l1 .1 2 .2c1.5.1 2 .3 2.7.8.4.2.4.3.4.7 0 .8-.4 1.4-1.8 2.4l-.8.7-.5-.3c-.5-.4-2-.5-2.4-.3-.8.4-1.6.6-2.2.5a7 7 0 0 1-2.5-.5l-1.6-.5c-1.1-.5-3.3-.1-4.6.8-1 .7-1.7 1.6-2.5 2.8-.5 1-1.3 1.8-2.2 2.5-.9.7-1.7 1.5-2.2 2.5l-.2 1.2c0 1 0 1.2.3 1.6.1.3.5.8.8 1 .4.5.5.6.3.6l-1 .1c-1.1 0-2-.5-3-2-.8-1-1-1.3-1-2h.1z"/>
  <path d="m-92.9 27.1-.6.1-.4.2-.3.2-1.3.8-.1.5c0 .4.4.4.8 0 .6-.6.7-.5.7.7l.1 1.7c.1.5.1.5-.3 1-.3.2-.4.4-.3.5 0 .2.1.3.4.2h.3v1.1l.1 1.4v2.7l.2.1c0 .3.3.2.5-.1.2-.3.3-.4.2-.8l.1-.6v-.3c-.1-.1-.2-.4-.2-1v-1.4l-.2-1.2c0-.5 0-.6.4-1 .4-.3.6-.4.9-.4.4 0 .9-.3.7-.5l-.2-.1-.2-.2c-.1-.2-.2-.2-.5 0l-.6.3c-.2.2-.4.3-.5.2l-.1-1.5v-1.5l.2-.1c.7-.2 1.3-.2 2 0 .4.1.7-.2.5-.7-.2-.4-1.5-.6-2.3-.3zm6-12.8v.5l.1 1 .2 2.1.2 2.7c0 1.3.2 1.8.5 1.9.2 0 1.7-.2 2.1-.4 1.4-.9 1.6-2.8.6-5-.3-.7-.8-1.4-1.3-2-.5-.5-1.4-1-1.8-1-.2 0-.4 0-.6.2zm1.5.9c.6.5 1.1 1.2 1.3 2 .4.9.5 1.2.6 2 0 .9-.1 1.4-.7 2-.2.4-.3.4-.6.4h-.4l-.2-1.5-.4-3.1-.2-1.4c-.2-.4-.1-.7.1-.7l.5.3zm-7.9-.8v8.5l.2.3c.5.3.5.1.5-1.9l.1-1.9c.2 0 .7 1.5.8 2.3.2.9.5 1.9.8 2 .6.3 1 0 .7-.4-.4-.4-.5-.7-.7-1.8-.1-1-.5-2-1.1-2.9-.2-.3-.2-.3 0-.5a4 4 0 0 0 1.1-1.2c.4-.9.5-2.2.1-2.2s-.5.2-.5.7l-.2 1c-.2.4-.8 1-1 1v-1.5l-.1-1.5h-.7zm3.4.3v6.4l.2.6.7 1 .4.3.4-.5c.3-.3.4-.6.4-.7l.2-.3c.1-.1.3-2 .3-3.5v-1.8c.2-.3.2-.6.1-1-.1-.5-.3-.7-.7-.6-.2 0-.2 0-.2 2.5l-.2 3.4v1l-.3.1c-.4 0-.6-1.4-.6-4.5v-2.5c-.2-.2-.4-.2-.6 0l-.1.1zm-16 .1-.1.6-.3 1.3a9.5 9.5 0 0 0-.5 3.1c-.1 1.1-.2 1.7-.3 1.3-.3-.8-.5-1.9-.6-3.3-.2-1.9-.3-2.3-.9-2.2-.2 0-.3 0-.4.5 0 .4 0 .9.3 2a42 42 0 0 0 1.2 4.8l.1 1.2c.1.5.4.7.7.5.2 0 .2-.3.2-1.4l.1-2.2.3-1.7c.1-1.1.3-2.2.7-3.3.3-1 .2-1.3-.2-1.3h-.3v.1zm9.8.3c-.7.6-1.1 2-.9 2.8.1.3.4.7.8 1 .4.3.8.9 1 1.2.3.6.3.8.3 1.5 0 .8 0 .9-.3 1.4-.3.4-.4.6-.6.6-.3 0-.6-.4-.8-.7-.1-.5-.7-.3-.7.2 0 .4 0 .5.6 1 .7.4 1.3.4 1.7 0 .6-.5.8-.6 1-1.3l-.1-1.8c-.2-1.2-.4-1.5-1.3-2.4-.4-.4-.8-1.4-.8-1.8 0-.3 1-1.1 1.3-1.1.3 0 .6-.2.6-.5 0-.2-.2-.3-.9-.3-.4-.1-.5 0-.9.2zm-8.4.2c-.3.6-.4 1.4-.4 5.1v3.7h.5l.1-2.3.2-4c.2-2.6.2-2.7 0-2.7-.1 0-.3 0-.3.2h-.1zm1.4.6c-.2.3-.2.4-.3 1.8 0 2.1-.2 4.1-.5 6.2-.1.8 0 .9.9.4l1.3-.5c.5-.2.6-.3.6-.5l-.3-.4c-.3-.1-.3-.1-.7.1l-.7.3c-.2 0-.2-.1-.2-.5l.1-.8.2-1.3.2-1.8.2-2v-1.1h-.3c-.2-.1-.3 0-.5.1z"/>
  <path d="m-100.4 16-.3.4v2.3l.3 4.8c.1.1 1.2.2 1.6.1.4-.1 1-1 1.3-2 .4-.9.4-1.7.2-2.4a15 15 0 0 0-2-2.9c-.5-.4-.7-.4-1.1-.3zm1.3 1.7c.7.8 1 1.8 1 3l-.2.9-.2.5c0 .3-.2.5-.4.7-.4.3-.4.3-.7.1l-.1-2.8v-3c0-.2.1 0 .6.6zm-9.8 6.2v.5c-.3 0-.5-.2-.5-.5-.1-.3-.2-.4-.5-.3-.3.1-.2.2.1.7.2.3.3.5.3 1.2l.1 1c.2.3.6 1.9.5 2-.1.2-.5-.1-.6-.5 0-.4-.3-.5-.4-.2v.3l-.2-.3-.3-.2c-.2.2 0 .6.4 1 .3.2.7.7.8 1 .3.6.4 1 .1.8-.3-.3-1.7-.3-1.7 0l.7.2c.7.1 1.4.3 2 .6l.8.4c.5.2 1.5 1.2 2 2.2l.8 1.6c.5.9.9 2 1.2 3 0 .4.3 1.3.5 1.7l.5.9c.4.8.6 1 .8 1l.1.2.2.2c.2 0 .2-.2-.1-.5-.4-.5-.6-1-.4-2l.2-1 .1-.3.6-1.2c.7-.7 1.1-1 1.5-1.2s.5-.2.5.2l.2.4.1.6c0 .4 0 .5.3.6.2 0 .3.1.2.3v.5c0 .2-.1.2 0 .2v-.2l.3-.4c.3-.3.3-.5 0-1l-.7-1.1-.5-.8c-.3 0-.7.1-1.2.6l-.5.3v-.3c.2-.2.3-2 .2-2.4-.1-.6-.4-1-.6-1-.2.2-.2.6 0 1 .2.5.2 2.2 0 2.3l-.1.5c-.1.6-.4 1.3-.7 1.8-.2.3-.3.6-.3 1.1v.7l-.3-.2c-.1-.2-.3-.5-.3-.8l-.2-1.5c-.2-.9-.2-1.1 0-2.1.3-2.4.6-3.2 1.9-4.5.3-.3 1-.6 1.6-.9.2 0 .2-.1 0-.4 0-.2-.7 0-1 .3-.2.2-.4.2-.5.1l-.1-.7c0-.5 0-.8-.2-1l-.2-.8c0-.4 0-.5.4-.8.4-.5.5-.5.2-.6-.2 0-.3-.2-.3-.2h-.2c-.2 0-.3 0-.4-.2 0-.2-.4-.2-.6 0 0 .2 0 .3.2.5.4.3.5.7.3.8h-.3c-.3-.6-.4-.7-.6-.7-.4 0-.4.4 0 .7.3.2.6.4.7.9l.4.8c.3.5 0 2.3-.4 2.5-.2.2-1 1.4-1 1.8-.2.3-.3 1-.4 1.6 0 1-.1 1-.3 1l-.2-.3V35l-1.2-2c-.4-.8-.5-1.3-.5-3.7 0-1.3 0-1.6-.2-1.6l-.3.3c0 .4-.2.5-.5.5s-.3.1 0 .5l.4.5v2.2l-.7-.5-.8-.5-.4-.3c-.3-.4-.4-.5-.4-1.2 0-1.4 0-1.4.6-2l.7-.7.4-.2.4-.2c.2 0 .2 0 0-.2-.1-.1-.1-.2 0-.4.2-.4.1-.6-.2-.6l-.4.6c-.4.7-.6.8-.5.2 0-.6 0-.7-.2-.7s-.3.5-.2 1c0 .3 0 .4-.2.6-.4.4-.6.4-.8-.1-.2-.6-.2-.8.3-1.5l.4-.6-.2-.5c-.2-.7-.4-.7-.5 0zm36 2.9c-.1.2-.2 1.3 0 1.4l.1.9c.3 2.7.4 5 .4 6.1v1.3h.3l.7-.1c.7-.3 1.2-.5 1.7-.5.9 0 1.3-.4.8-.7-.2-.2-1.2-.1-1.8.1l-.7.2h-.3v-2c.1-2.1 0-4.2-.4-6.2v-.6h-.4l-.4.1zm-11.5.5c-.6.1-.8.3-.6.6l.7.2h.4v8.4c-.1.6.1 1 .6.8.2-.2.3-1.8.4-5.7v-3.5h1.8l-.1.7-.4 5.9c0 2.3 0 2.5.4 2.5.3 0 .5-.8.4-1.4v-1.3c.3-2.3.4-4.6.3-6.9-.2-.1-.3-.2-.4 0l-.5-.1c-.2-.2-.4-.3-1.3-.3l-1.7.1zm10.1.2-.1.2-.4.9-.4 1.2-.4 1.2a25 25 0 0 1-.9 3.7c-.3 1.2-.3 1.4-.2 1.5.3.3.6 0 .7-.5l.4-1.4c0-.5.2-1 .3-1.2 0-.4.6-1 1-.9h.3v1.5c0 2.1 0 2.8.2 3 .2.1.2 0 .4-.1.2-.2.2-.4.2-1.5a47 47 0 0 0-.3-5.3c0-2.3-.1-2.5-.8-2.3zm.2 2.8c0 1.2 0 1.2-.2 1.3l-.6.1c-.3.1-.3.2.1-1.3.5-1.8.7-1.9.7-.1zm-12.8-2.5-.5.5c-.1.2-.2.3-.5.2-.2 0-.6 0-1-.2l-.8-.1c-.1 0-.3 0-.4.2-.2.3-.3.4-.2 2v1.7l-.3.2c-.4.3-.3.5 0 .6h.4v2.2c0 2.3 0 2.7.5 2.7l.5-.4.9-.6c.6-.3.7-.5.4-.8h-.7l-.7.1v-1.7c0-1.8 0-1.8.7-1.8.6 0 .8-.2.7-.6-.1-.2-.2-.3-.5-.3-.1 0-.3 0-.4.2h-.3c-.2 0-.2 0-.3-.8v-1.8h.8l1 .1.2.3.5.6.5.7.3.5.5 1c.2.4.2.7.1 1.6 0 1.6-.4 2.1-.8 1.3-.3-.3-.6-.5-.8-.4v.6c0 .7.4 1.1 1 1.3.4 0 .7-.2 1-.9.3-.6.3-.7.3-2 0-2-.3-2.6-1.4-4-.4-.5-.6-.7-.6-1 0-.4.4-.7.8-.5.6.2.9-.2.4-.7-.3-.3-.9-.3-1.3 0zm10.4.1-.2.5-.1.2c-.2.2-.7 1.6-.8 2.5L-78 33c0 .3-.2.5-.3.3l-.1-1.7c-.1-1.4-.4-2.9-.7-3.5a.3.3 0 0 0-.6 0c0 .2 0 1 .4 2l.3 2c0 .8.2 1.6.3 1.8v2.9h.3c.5.2.7-.1.7-.8l.4-1.9.3-1.7c0-.7.9-3.7 1.2-4.1.2-.3 0-.7-.3-.7-.2 0-.3 0-.4.3zm8.7-20.7v.3-.7.4zm-2.7-.3c-.2.2-.2.8 0 1 .1 0 .2.2 0 .7v.6c.1.2.3.1.3-.2 0-.2 0-.4.2-.4.3-.2.3-1 0-1l-.3-.4c0-.4-.1-.4-.2-.3zm3.9.1v2.1c.3.4.4.2.3-.8 0-1.2-.2-1.5-.3-1.3zm5.7.7-.6.8c0 .2-.1.3-.2.3v.1c0 .3 0 .2.5-.3l.5-.5.6-1c0-.1-.3 0-.7.6h-.1zm.7.4-.8 1 .4-.1.8-.8c.6-.7.8-1 .6-1l-1 .9zm-8.9-.7-.2.8-.2.9c-.2 0-.2.3-.1.6v.6c.2 0 .4-.1.4-.4v-.5c.2-.2.2-2.2.1-2zm-2.3.2V8c0 .2 0 .2.1 0 .1-.1 0-.6-.1-.4zm9.7.2-.2.2c-.1 0-.2.3-.1.4l.3-.4.1-.4-.1.2zm-1 .2c0 .3 0 .5.2.3V8c-.1-.2-.1-.2-.2 0zm-9.5.2.2.3.2.3V9c.3.2.3 0 0-.5-.2-.5-.4-.7-.4-.4v.1zm5 0v.9c.3 0 .3-.3.2-.8-.1-.3-.1-.3-.2 0v-.1zm1.6.1v.9c.2.2.3-.5.2-.9-.1-.2-.1-.2-.2 0zm.7.1v.2-.2.1-.1zm.6 0v.5c0 .2 0 .2.2 0s.2-.8 0-.8l-.2.4v-.1zm.9-.2.1.3.1-.2c0-.2 0-.3-.2-.1zm-7.8.5c0 .2.1.3.2.3v-.7c-.2 0-.2.1-.2.4zm8.8 0 .1.3.2-.2c0-.3-.2-.3-.3-.1zm2.5.2-.4.2-.3.3c-.2.1-.3.2-.2.3l.3-.1.2-.2.2-.1.1-.2.4-.3c.2-.2.2-.2 0-.2l-.4.2.1.1zm-12.6 0c0 .2 0 .3.2.4l.1.2.2.2.1.2.2.3.2.4c0 .1.1.2.2 0 .1 0 .1-.1 0-.2l-.2-.4-.1-.2s-.2-.1-.2-.3-.2-.3-.3-.3l-.1-.2c0-.3-.3-.3-.3 0v-.1zm-.4.7.3.3.1.3c0 .1 0 .2.2.2s.2 0-.1-.5c-.2-.4-.4-.5-.5-.3zm2.8.3.1.4c.1 0 .2-.3.1-.6 0-.3-.2-.2-.2.2zm9.7 0s0 .2.2.1v-.3l-.2.2zm-12.7.3c0 .1 0 .4.2.4s.1-.4 0-.5h-.2v.1zm12.7.4.2.1c.3 0 .3-.3 0-.3 0 0-.2 0-.2.2zm-11.8 0 .1.3.2-.1-.1-.3-.2.1zm-1.3.4.1.2.2-.2-.2-.1v.1h-.1zm12.7-.1c0 .3.3.3.3.1 0 0 0-.2-.2-.2s-.1.1 0 .2l-.1-.1zm-15.5 2c.1.2.2.2.3 0s0 0-.2 0h-.1zm.5.3-.4.2c-.4 0-.4.2 0 .3l.4-.1.4-.2c.4 0 .4-.2 0-.3l-.4.1zm.8.4-.4.1c-.2 0-.3.1-.3.2l-.5.1c-.5 0-.5.2 0 .3h.6c0-.2.2-.3.3-.3l.2-.1.3-.2h.3c0-.2 0-.2-.2-.2l-.3.1zm-.4.9.3.1.3-.1-.3-.1h-.2l-.1.1zm-2 1.6c-.2.1-.2.1 0 .1h1.2c-.3-.2-1-.2-1.2 0v-.1zm1.6.3c0 .2.2.3.6.3.5 0 .3-.3-.1-.3h-.5zm-1 .4h-.4l.5.2 1 .2h.2l-.6-.3-.7-.1zm2.3.2c.3.2.5.3.5.1 0-.1-.3-.3-.5-.3h-.4l.4.2zm-.5.5.2.1.2-.1c0-.1 0-.2-.2-.2l-.2.2zm-.9.3h.5c0-.2-.2-.2-.5 0zm1.7.1.2.2.2-.1c-.1-.2-.5-.3-.4 0v-.1zm8.6-4.4v.2s.3 0 .3-.2-.2-.1-.3 0zm-2.9.3c-.1.1 0 .2 0 .2h.2c0-.2-.1-.3-.2-.2zm1.3.1c0 .4 0 .4-.4.5h-.3c0-.3-.1-.3-.4 0-.3.2-.3.2-.1.3.2 0 .2.3-.1.3h-.4c0-.2-.7-.2-.7-.1l1 .5.3.1c0 .1 0 .2-.4.2h-.6s-.2.2-.5.1c-.5 0-.6.2-.1.3.2 0 .2 0 .1.2-.1.1-.1.4 0 .4l.2-.2c0-.3.4-.3.4 0s.3.3.7-.1c.4-.3.7-.4 1-.3.2.2.7.3 1 0h.2c.2 0 .3-.5.1-.6l-.3-.1c-.4-.1 0-.8.5-.8l.3-.1-.1-.1-.2-.1c0-.2-.2-.2-.4.1-.3.4-.8.4-.8 0l.1-.2.1-.2v-.3l-.2.2zm1.3 0c-.1.1 0 .2 0 0 .2 0 .2 0 .1-.1h-.1v.1zm.5.3c-.2 0-.2 0 0 0h.3c0-.2-.1-.2-.3 0zm-38.5 29.1.2.4.2.3c-.2.1-.8 0-1-.1-.3-.3-.6-.2-.5 0 .1.5 2 .7 2 .1l-.9-.7-.1-.1.1.1zm34.3 9.8.2.2.2.2c.1.4.4.8.5.8l.1.2.2.3.1.2.2.3c.1 0 .5.7.5 1l.1.1.2.3.2.2.1.2-.1.2c-.1 0-.2-.1-.2-.3l-.1-.2c-.1 0-.2 0-.3-.2 0-.2 0-.2-.1-.1-.2 0 0 .4 0 .4l.2.2.1.2.2.3.1.2.3.3c.1.2.1.2.2 0s.4-.2.4 0l.1.2c.1 0 .2 0 .2.2 0 0 0 .2.2.3s.1.2.1.3l.2.1.2.3.1.2.2-.2-.1-.3c-.1 0-.2 0-.3-.2l-.2-.3v-.2l-.3-.2-.1-.2-.3-.5-.4-.5-.1-.3-.2-.3v-.2l-.3-.2-.2-.4c-.4-.4-.4-.5-.4-.7l-.2-.2-.2-.2-.1-.2-.2-.3-.1-.2c-.1 0-.2-.1-.2-.3l-.1-.2-.3-.3c0-.3-.2-.3-.2 0h-.1zm-2.5.3.1.3.1-.3-.1-.2c-.1 0-.2 0-.1.2zm-.3.7c-.1.1 0 .3 0 0 .2.1.2 0 0 0zm.3.4c-.1.1 0 .5.1.5s.2-.1.2-.3c0-.3-.1-.4-.3-.2z"/>
  <path d="m-66.3 58.9.1.4.4.5.7.9c.2 0 0-.4 0-.5-.2 0-.2-.1-.2-.2l-.1-.2-.3-.3c0-.2-.1-.2-.2-.2v-.4c0-.2-.3-.2-.4 0zm1.4.9v.3c.1.1.2 0 0-.3.1 0 0-.1-.1 0h.1zm-29.6-5.9v.5c.3.1.3.8.1 1l-.2.4-.1.3-.2.4-.1.4-.2.3c0 .1 0 .4-.2.5-.2.1-.1.2-.1.4l-.2.3-.1.4-.2.5-.2.5-.1.5-.2.4-.1.5c-.2.2-.5 1.1-.5 1.5s.2.3.3-.2c0-.1 0-.4.2-.4l.1-.5c0-.2 0-.3.2-.3l.1-.5.2-.5.2-.5.1-.4.2-.5.1-.4.2-.4c0-.1 0-.3.2-.4.2-.1.1-.3.1-.4 0-.2 0-.4.2-.4l.1-.4.2-.3.1-.3.2-.5.2-.6.1-.4.2-.4c0-.3 0-.4-.2-.4s-.1.1-.1.4 0 .4-.2.4-.2-.1-.2-.3c0-.5-.1-.6-.2-.2zm20.1.8c0 .2 0 .3.2.3 0 0 .1 0 0-.2l-.1-.4-.1.3zm.3.8.2.4v-.7c-.2 0-.2 0-.2.3zm-.8.4c-.2 0-.3.5 0 .7l.2.9c0 .7.1.7.2.4l.3-.6c.1-.2 0-.7-.2-1l-.1-.4c0-.2 0-.2-.4 0zm1.5 3.6c-.1.2 0 .5.1.6.2 0 .2-.4-.1-.6.1-.2.1-.2 0 0zm-3.3-3.6v.9l.3.5.2.8.1.5.2.6.2.8.1 1 .2 1.1.1.8.2.9c0 .4.1.7.4.7.1 0 0-1.4-.2-1.8l-.2-.9c-.1-1.5-.5-3-1-4.5l-.1-1-.3-.7c0-.6-.2-.3-.2.4v-.1zm-3.9.8.1 8.8c.2.4.3-.3.2-3.7 0-3.9 0-5.8-.2-5.8l-.1.7z"/>
  <path class="st0" d="M28.5 18.4c0 .5.2 1.2.6 2 .3.5.6 1 1.4 1.4.9.6 1.5 0 2.4.2 1.8.3 1.8 1.9 3.9 2.8 1.7.8 3.3.6 4.1.4 1.7-.3 2.7-.9 4.1-1.8 1.4-.7 1-.9 2.9-2.1 1.6-1.1 2.6-2.3 3.2-3.1 2.9-4 2.9-8.8 3-11.4V6c-.9.5-2.2 1.5-3 3l-.4.9c-.3.9.1 1.6-.6 2.8l-.7 1.2c-.6.9-1.3 1.5-1.9 1.8L46 17l-2.4 1.4c-.8.9-1.6 1.3-2.1 1.4-.4.1-1.1.3-2.1.8l-.3.1c-.7.2-1.4 0-2.4-.4-1.2-.4-1.3-.7-2.1-.9h-2.3l-1.6-.4"/>
  <path class="st0" d="M26.7 14.5c.2-.9 1-.9 2-2.5 1.3-1.7 1-2.2 1.9-4 .4-.7.6-.7 3.9-3.9 2.6-2.5 2.9-2.9 3.8-3.3a8 8 0 0 1 6.4.5l1.7.9c.2 0 .8.4 1.7.6 1.7.4 2.1 0 3.9.4.9.2 1.4.4 1.7.7.6.7.3 1.9.2 2-.4 1.2-1.6 2.1-2.5 2.1l-.6-.2-1.8-.2c-1.2-.1-1.4.4-2.5.6a17 17 0 0 1-4.1-.8c-1.3-.4-1.4-.5-1.8-.5-1.4 0-2.3.9-2.8 1.2-.9.7-.7 1-2 2.6l-1.9 2c-1 .8-1.6.8-2 1.6-.5.8-.5 1.6-.5 1.9 0 1.1.7 1.9.9 2l1 1c-.1.3-1.3.4-2.3 0-2.5-.6-4.6-2.8-4.3-4.7z"/>
  <path class="st1" d="M30.9 48.2c-.9-.7-2.4-.8-2.8-.2-.3.4.2 1.2.7 1.6.7.6 1.8.6 2.9.1 0-.3-.2-1-.8-1.5zM29.6 45.5h.2v-.7l-.2.6v.1zm-1.7 1.8h-.6l.8.4v-.2l-.2-.2zM29.6 39.8c-.1.1.1.4.2.5.2.5.1.9-.6 1.9a1 1 0 0 0-.3.7c.4 1.3.7 1.9 1 1.9l.3-.5.4-.7c.3-.5.3-.6.3-1.3 0-1.3-.2-1.9-.7-2.2-.2-.3-.5-.4-.6-.3zm5.3.3c-.2-.2-1.2.5-3 2.1l-.1 1.2.1 1.1-.2.2.1.1c.4-.2 1-.5 1.5-1.1l.9-1.2.2-.7.5-1.4v-.3z"/>
  <path class="st2" d="m11.6 39.5-.1-.3m-.7 2.8h-.7L9 41.4l-.4-.3a9.3 9.3 0 0 1-2.9-2.4 7.2 7.2 0 0 1-1.5-3.6v-1.4l-.3-.6-.2.7-.1.7c-.4.2-1.9-1.8-2-1.7l.4.7 1.6 1.6-1.6-.2-1-.2v.4l1.1.2 1.6.5c.3.2.6.5.5.8 0 .3-.3.5-.3.6L1.8 37v.5l1.2.1 1.3.3L6 39.6l-1.5-.1-1.5-.1.2.4 1.8.3 3.3 1.3c2.5 1.3 3 1.9 2.9 2.2l-.2.2c-.3.1-.6-.4-1.3-1l-.7-.6-.6-.2.1.1.8.5-.1.4c-.2.1-.5-.2-1-.7l.2.5.2.4c.1.1.2.2.6.2l.6.1.3.4-3.7-.2.6.5 3.5.2h1.7l2.3 1c1.3.6 3.2 1.3 5.4 1.6 1.7.3 3.3.4 4.5.3h3c4.2-.3 8.4-2.1 8.8-2.2 7.2-3.3 12.7-10.4 12.8-14.9.1-2.8-.4-4.2-.4-4.2-.6-1.8-1.4-2.5-1-3.4.3-.7.8-.6 2.6-2.3a4 4 0 0 0 1.5-3.2c-.7.8-2.6 2.9-4.8 4.8 0 0-2 1.7-3.9 2.5l-.3.1c-.9.3-1.7.7-2.8.6-.9-.1-2-.5-2.3-.6l-.7-.3-1.3-.8c-.3-.2-.4-.4-.4-.5.1-.1.6 0 1.7.4a6 6 0 0 0 3 .8l1.4-.2 1.1-.5c.2 0 1.2-.9 1.7-1.6a7.4 7.4 0 0 1 3.1-2.8l2.2-.9.8-.5.9-.7.8-.9.5-.6-.1-.9h-.1l-1 1.6-.8.7c-1.2 1-2.2 1.2-3.2 1.7-.8.3-1.8.9-2.8 2-.4.7-1.7 2.8-3.7 3a6 6 0 0 1-2.6-.4c-1.4-.4-1.5-.7-3-1.1l-2.3-.4-1.6-.3c-1.4-.5-2.3-2.1-2.1-2.4.1-.1.3-.1 1 .3l1.4.3c1.4.2 1.5 0 2.5.2l2.8 1 .5.2c1.2.2 2.2-.3 4-1.4l2.3-1.5 4.1-2.3.9-.6c1.1-.8 1.9-2 2.1-3.3l.3-1.4c.3-1 .5-1.7 1-2.3l.7-.6.5-.2.9-.9.7-1-.3-1A3.4 3.4 0 0 0 52 2.7h-1.5c-1-.1-1.3-.5-2.6-.7l-1-.1c-1.1-.2-1.3-.6-2.5-1.1-.9-.4-1.7-.5-2.1-.6C41.7 0 41 0 40.5 0l-1.7.4-1.7.9-1.8 1.2a9.6 9.6 0 0 0-4 3.6L30 8.8c-.5 1.2-.6 1.8-1.2 2.5s-.8.6-1.4 1.3c-.4.5-1.2 1.4-1.1 2.4 0 .5.2.5.8 1.7l1.3 2.9c.9 2 1.1 2.1 1.3 2.3.6.4 1.3.5 2.5.7l1.5.3c.7.3 1.1.7 1.3 1.1l2.6 1.5a8.8 8.8 0 0 0 6.6-.8l.8-.7 1-.7c.2-.3.5-.5.5-.2l.6 1.3.7 2.2s.4 1.9.2 3.9c-.3 2.8-4.2 10.2-12.6 13.8-5.6 2.4-10.6 1.9-13.1 1.7-5.3-.6-9.7-2.6-10.1-4.3-.3-1.2.2-2.4.2-2.4.2-.5.5-.7.6-.8.3-.2.6-.2 1.4-.3l1.4-.1-.3-.3c0-.2.2-.3.5-.5l.1-.7-.8.6c-.1.1-1 .9-1.5.7-.1-.1-.2-.2-.3-1.4a6.1 6.1 0 0 1 0-2c.2-.5.4-.6.6-1.3l.1-.9c-.1 0-.3 1.4-1 1.5l-.5-.1c.1.5.3 1.2.3 2l-.2 2-.9 1.2-.4.9c-.3 1.5-.3 2-.7 2.2zm34.4-26.6-.3.1c-.2 0-.2 0 0 .1.4.2.4.4 0 .5-.2 0-.3.2-.3.3 0 .2-.6.7-.8.7l-.3.1-.4.2-.6.5-.5.5-.3.1c-.1.2-.8.3-1.6.2-.4 0-.5 0-1-.5-.3-.4-.4-.6-.3-.7l-.1-.5v-.3c0-.1.1-.3 0-.4 0-.3.7-.9 1-.9.3.1.3 0 0-.2-.2-.2 0-.5.3-.4.1 0 .2 0 .3-.2.1-.2.2-.3.4-.2.1 0 .2 0 .3-.3.2-.5.7-.3.8.3v-.1c0-.4.1-.5.3-.6h.8c0-.2.7-.2.8 0h.2c.2-.3.5-.1.5.1s0 .3.2.2c.3 0 .5.1.5.5l.1.3c.2-.1.2.4 0 .6zm2.2 0-1 .2c-.4.2-.7.3-.8.2l.1-.5c.2-.4.2-.5 0-.9 0-.2-.3-.6-.6-.7-.3-.4-.5-.5-1.2-.6-.7-.2-.8-.2-1.2 0l-.6.1a5 5 0 0 0-2 .8c-.7.5-1 .7-1.5 1.3-.3.4-.4 1-.3 1.9v.7l.5.5c.5.5.5.5 1.2.6h.7l-.4.5c-.6.6-1.1.7-1.8.4-1-.5-1-.7-1.2-1.6l-.2-.6-.6-.9c-.7-.9-.6-1.5.2-2.9l.6-.6c.7-.5 1.6-.7 2.9-.7 1 0 1.5-.2 2.2-.6 1.9-.8 3.4-.9 4.2-.5.4.2.6.4.9.8.2.3.2.5.2 1 .2 1-.1 1.9-.3 2.1zM51 8.7l-.5.5c-.3.3-.4.4-.1.4.2 0 .2.3-.2.6-.3.3-.3.3 0 .4l.1.2c0 .2-.3.6-.6.6h.1c.3 0 .4 0 .4.3 0 .1 0 .2-.2.3-.2.1-.2.1-.1.3v.3c-.2.1-.2.2-.1.2.2 0 .1.5-.1.5s-.2.1-.1.3c0 .2 0 .2-.2.3l-.3.3c0 .2-1 1.1-1 1v-.4l.2-.6.1-.5v-.8l-.1-.5-.3-.8c-.2-.5-.7-.8-1-.8l-.4-.1c-.4-.3-1.8-.3-1.9 0h-.5l-.3.2c0 .2-.1.2-.3.2-.2-.2-.8 0-.9.3l-.3.1-.4.1c-.7.4-1.8.6-1.9.3l-.2.1c-.2.2-.2.2-.5-.2l-.4-.6c0-.2-.2-.4-.3-.5l-.2-.3-.1-.1c-.1 0-.2 0-.2.3s0 .2.2.2l.1.2.2.4c.2 0 .3.3.3.5v.2c-.3-.2-.3-.2-.5.1 0 .3-.1.3-.3.1-.1-.1-.2-.1-.2 0l-.6.4c-.6.3-.8.4-.9.7 0 .1 0 .2-.4.1-.5 0-.6-.2-.3-.4.1 0 .1-.2 0-.2l-.2.1c0 .2-.1.2-.4 0l-.4-.1.6.6.3.1c0 .1 0 .2.2.2s.2.1 0 .4l-.2.5v.6c0 .7-.4.8-1.3.7l-1.4-.2h-.9c-.3.1-.2.3.1.4l.4.2c.1.1.3.2 1.5 0h1.3l.2.2.3.6c0 .3.1.5.7.9.1.2.2.4.1.6v.3l.2.4.1.4.2.2.2.2 1.1.6h.3c.1-.2.4 0 .4.2 0 .3-.2.4-.4.2h-.6l-.7-.2-.5-.1-.4-.2-.3-.2c-.1 0-.3 0-.5-.2l-.6-.3-.2-.8-.3-.1s-.3 0-.4-.2H34c-.4.2-.5.2-.6 0 0-.3-.1-.3-.3-.4-.3 0-.4-.1-.4-.3l-.2-.2c-.1 0-.2 0-.2-.2l-.3-.4-.2-.4v-.4c-.2-.1-.2-.4 0-.5.1-.2.1-.2 0-.4-.2-.1-.2-.2 0-.3l.1-.4c0-.4.2-.5.5-.4.3.2.7.2.7 0h-.4c-.3 0-.4-.1-.3-.3 0-.2 0-.3.2-.3s.3-.1.3-.3c0-.2 0-.3.2-.3s.3 0 .4-.2l.3-.3c.2-.1.3-.1.6.2.1.2.3.3.4.3l.3.2c0 .2.4.2.4 0l-.2-.1-.2-.2-.5-.3c-.5-.3-.5-.5-.1-.6.2 0 .3 0 .3-.3 0-.2.1-.3.2-.3.2 0 .7-.5.7-.7l.1-.2.2-.2.6-.9c.1 0 .2-.1.2-.3l.1-.2h.1l.3-.3c.2 0 .3-.1.3-.3 0-.2.1-.3.3-.3l.4-.3.7-.4.6-.3c.5-.3.7-.2.7.3v.4l.2-.4v-.4c.1-.2.6-.2.7 0v.6c0 .5.1 2.6.2 2.5.2-.1.2-.7.1-1.9 0-1.1 0-1.4.4-1.1h.3c.3-.1.4.2.4.9l.1.7v-.7c0-.4 0-.5.2-.6h.1c0 .1.2.2.3.1h.3l.5.2.3.4v.2c0-.4.3-.5.5-.3h.8l.6.3.5-.1c.1-.2.2-.2.4.1.2.3.2.3.2 0 .2-.3.5-.5.7-.2.2.2.3.2.4-.1 0-.3.5-.5.8-.3h1.3c.1 0 .3 0 .4.2v.5zm-23.4 6.6c0-.7.2-1.2 1.4-2.5 1-1 1-1.2 1.2-1.6l.3-.9c.2-.2.3-.6.3-.7 0-.4.8-1.9 1.1-2.2.2-.1.3-.4.3-.5l.4-.3 1-.6.7-.6v-.1l.5-.5c.4-.4 1-1.1 1-1.4 0-.1.6-.7.8-.7l.5-.4.5-.3.5-.3.6-.4 1.1-.3c.4-.2.6-.2 1.8-.2 1 0 1.2.1 1.9.4l1.8.8c1 .7 2.2 1.2 2.7 1.2l1 .1 1.9.2c1.5.1 1.9.3 2.6.7.4.2.4.3.4.7 0 .7-.4 1.3-1.8 2.2l-.8.7-.5-.3c-.5-.4-1.9-.5-2.3-.3-.8.4-1.6.6-2.1.5-.8 0-1.7-.2-2.4-.5l-1.6-.5c-1.1-.5-3.2-.1-4.5.7-1 .7-1.7 1.5-2.4 2.6-.5.9-1.3 1.7-2.1 2.3-.9.6-1.6 1.4-2.1 2.3l-.2 1.1c0 .9 0 1.1.3 1.5.1.3.5.7.8.9.4.5.5.6.3.6l-1 .1c-1.1 0-1.9-.5-2.9-1.9-.9-.7-1.1-1-1-1.6z"/>
  <path class="st2" d="m17.4 26.9-.6.1-.4.2-.3.2-1.3.7-.1.5c0 .4.4.4.8 0 .6-.6.7-.5.7.7l.1 1.6c.1.5.1.5-.3.9-.3.2-.4.4-.3.5 0 .2.1.3.4.2h.3v1l.1 1.3v2.5l.2.1c0 .3.3.2.5-.1.2-.3.3-.4.2-.7l.1-.6v-.3c-.1-.1-.2-.4-.2-.9v-1.3l-.2-1.1c0-.5 0-.6.4-.9.4-.3.6-.4.9-.4.4 0 .9-.3.7-.5l-.2-.1-.2-.2c-.1-.2-.2-.2-.5 0l-.6.3c-.2.2-.4.3-.5.2l-.1-1.5v-1.4l.2-.1a3 3 0 0 1 1.9 0c.4.1.7-.2.5-.7-.1-.3-1.4-.5-2.2-.2zM23.3 15v.5l.1.9.2 2 .2 2.5c0 1.2.2 1.7.5 1.8.2 0 1.7-.2 2-.4 1.4-.8 1.6-2.6.6-4.7-.3-.7-.7-1.3-1.3-1.9-.5-.5-1.4-.9-1.8-.9-.1 0-.3 0-.5.2zm1.4.8c.6.5 1 1.1 1.3 1.9.4.8.5 1.1.6 1.9 0 .8-.1 1.3-.7 1.9-.2.4-.3.4-.6.4h-.4l-.2-1.4-.4-2.9-.2-1.3c-.2-.4-.1-.7.1-.7l.5.2zm-7.7-.7V23l.2.3c.5.3.5.1.5-1.8l.1-1.8c.2 0 .7 1.4.8 2.1.2.8.5 1.8.8 1.9.6.3 1 0 .7-.4-.4-.4-.5-.7-.7-1.7-.1-1-.5-1.9-1.1-2.7-.2-.3-.2-.3 0-.5.4-.3 1-.8 1.1-1.1.4-.8.5-2 .1-2s-.5.2-.5.7l-.2 1c-.2.4-.8.9-1 .9v-1.4l-.1-1.4H17zm3.3.3v6l.2.6.7.9.4.3.4-.5c.3-.3.4-.6.4-.7l.2-.3c.1-.1.3-1.9.3-3.3v-1.7c.2-.3.2-.6.1-.9-.1-.5-.3-.7-.7-.6-.2 0-.2 0-.2 2.3l-.2 3.2v.9l-.3.1c-.4 0-.6-1.3-.6-4.2v-2.3c-.2-.1-.4-.1-.7.2zm-15.5.1-.1.5-.3 1.2a8.4 8.4 0 0 0-.5 2.9c-.1 1-.2 1.6-.3 1.2-.3-.7-.5-1.8-.6-3.1-.2-1.8-.3-2.1-.9-2-.2 0-.3 0-.4.5a37.4 37.4 0 0 0 1.5 6.4l.1 1.1c.1.5.4.7.7.5.2 0 .2-.3.2-1.3l.1-2 .3-1.6c.1-1 .3-2 .7-3.1.3-.9.2-1.2-.2-1.2h-.3zm9.5.2c-.7.6-1.1 1.9-.9 2.6.1.3.4.7.8.9l1 1.1c.3.6.3.7.3 1.4s0 .8-.3 1.3c-.3.4-.4.6-.6.6-.3 0-.6-.4-.8-.7-.1-.5-.7-.3-.7.2 0 .4 0 .5.6.9.7.4 1.3.4 1.7 0 .6-.5.8-.6 1-1.2l-.1-1.7c-.2-1.1-.4-1.4-1.3-2.2-.4-.4-.8-1.3-.8-1.7 0-.3 1-1 1.3-1 .3 0 .6-.2.6-.5 0-.2-.2-.3-.9-.3l-.9.3zm-8.2.2c-.3.6-.4 1.3-.4 4.7V24h.5l.1-2 .2-3.7c.2-2.4.2-2.5 0-2.5-.1-.1-.3-.1-.4.1zm1.4.6c-.2.3-.2.4-.3 1.7 0 1.9-.2 3.9-.5 5.8-.1.7 0 .8.9.4l1.3-.5c.5-.2.6-.3.6-.5l-.3-.4c-.3-.1-.3-.1-.7.1l-.7.3c-.2 0-.2-.1-.2-.5l.1-.7.2-1.2.2-1.7.2-1.9v-1H8c-.2-.1-.3 0-.5.1z"/>
  <path class="st2" d="m10.1 16.6-.3.4v2.1l.3 4.5c.1.1 1.2.2 1.6.1.4-.1 1-.9 1.3-1.9.4-.8.4-1.6.2-2.2-.3-.7-1.5-2.2-1.9-2.7-.6-.4-.8-.4-1.2-.3zm1.3 1.6c.7.7 1 1.7 1 2.8l-.2.8-.2.5c0 .3-.2.5-.4.7-.4.3-.4.3-.7.1l-.1-2.6v-2.8c0-.3.1-.1.6.5zm-9.6 5.7v.5c-.8-.6-1.1-.7-1.1-.6l.3.5.3 1.1.6 2.8c-.2.2-.9-.4-1-.5v.5l.9 1.7H.1l2.6.7.8.4c1.4 1.6 2.2 3 2.7 4l1.3 2.9.9 1.8c.7 1.2 1.5 1.8 2.1 1.6.1 0 .3-.1.4-.4-.9.1-1.6-.3-1.9-1-.3-.6-.1-1.1 0-1.2.1-.5.3-1.4.9-2.2.4-.5.9-1.2 1.4-1.2.6.1 1.1 1 1.3 2.4.3-.3.5-.5.5-.7.2-.8-.3-1.7-1.4-2.4l-1.5.6c.1-.3.5-1.2.1-2.3l-.6-.9c-.2.2-.2.6 0 .9.2.5.2 2 0 2.1l-.8 2.1-.3 1.6-.6-.9c-.2-.5-.3-1.3-.3-2.3 0-1 0-2.5.9-3.9.8-1.3 2-1.9 2.7-2.2.1-.2.1-.3 0-.4-.1-.2-.6 0-1.5.4l-.1-1.2c-.4-.5-.7-.8-.5-1.2.2-.5.8-.7.7-.8h-.7c-.4-.1-.5-.7-.6-.6-.1 0-.1.3.1 1.4-.5-.6-.7-.7-.8-.6-.2.1 1.4 1.8 1 3.5l-.1.4c-.5 1.3-1 1.6-1.4 2.4-.5 1.2-.2 2-.5 2.1-.4.1-1-1.4-1.5-2.3l-.3-.6c-.7-2.1.2-4.1-.4-4.3h-.1l-.5.4c-.3.2-.4.2-.4.4l.2.4.4.5v2l-.7-.5-.6-.5c-.2-.2-.6-.7-.7-1.4-.1-1 .4-1.7.5-1.8l1.1-.8.2-1.4-.4.6c-.2.2-.3.5-.5.5-.2-.1-.1-1-.2-1 0 0 0 .6-.3 1.2-.1.2-.3.6-.5.6s-.4-.5-.4-1c0-.7.6-1.2.8-1.3l-.8-.6zm35.1 2.7c-.1.2-.2 1.2 0 1.3l.1.8c.3 2.5.4 4.7.4 5.7v1.2h.3l.7-.1c.7-.3 1.2-.5 1.7-.5.9 0 1.3-.4.8-.7-.2-.2-1.2-.1-1.8.1l-.7.2h-.3v-1.9c.1-1.9 0-3.9-.4-5.8v-.6h-.4c0 .2-.4.3-.4.3zm-11.2.5c-.6.1-.8.3-.6.6l.7.2h.4v7.8c-.1.6.1.9.6.7.2-.2.3-1.7.4-5.3v-3.3H29l-.1.7-.5 5.5c0 2.1 0 2.3.4 2.3.3 0 .5-.7.4-1.3v-1.2c.3-2.1.4-4.3.3-6.4-.2-.1-.3-.2-.4 0l-.5-.1c-.2-.2-.4-.3-1.3-.3l-1.6.1zm9.8.2-.1.2-.4.8-.4 1.1-.4 1.1c-.2 1.2-.5 2.3-.9 3.4-.3 1.1-.3 1.3-.2 1.4.3.3.6 0 .7-.5l.4-1.3c0-.5.2-.9.3-1.1 0-.4.6-.9 1-.8h.3V33c0 2 0 2.6.2 2.8.2.1.2 0 .4-.1.2-.2.2-.4.2-1.4 0-1.6-.1-3.3-.3-4.9 0-2.1-.1-2.3-.8-2.1zm.2 2.6c0 1.1 0 1.1-.2 1.2l-.6.1c-.3.1-.3.2.1-1.2.5-1.7.7-1.8.7-.1zm-12.4-2.3-.5.4c-.1.2-.2.3-.5.2-.2 0-.6 0-1-.2l-.8-.1c-.1 0-.3 0-.4.2-.1.3-.2.4-.1 1.9v1.6l-.3.2c-.4.3-.3.5 0 .6h.4v2c0 2.1 0 2.5.5 2.5l.5-.4.9-.6c.6-.3.7-.5.4-.7h-.7l-.7.1v-1.6c0-1.7 0-1.7.7-1.7.6 0 .8-.2.7-.6-.1-.2-.2-.3-.5-.3-.1 0-.3 0-.4.2h-.3c-.2 0-.2 0-.3-.7V29h.8l1 .1.2.3.5.6.5.7.1.3.5.9c.2.4.2.7.1 1.5 0 1.5-.4 2-.8 1.2-.3-.3-.6-.5-.8-.4v.6c0 .7.4 1 1 1.2.4 0 .7-.2 1-.8.3-.6.3-.7.3-1.9 0-1.9-.3-2.4-1.4-3.7-.4-.5-.6-.7-.6-.9 0-.4.4-.7.8-.5.6.2.9-.2.4-.7-.3-.2-.8-.2-1.2.1zm10.1.1-.2.5-.1.2c-.2.2-.7 1.5-.8 2.3l-.4 1.8c0 .3-.2.5-.3.3l-.1-1.6a11 11 0 0 0-.7-3.3.3.3 0 0 0-.6 0c0 .2 0 .9.4 1.9l.3 1.9c0 .7.2 1.5.3 1.7V36h.3c.5.2.7-.1.7-.7l.4-1.8.3-1.6c0-.7.9-3.4 1.2-3.8.2-.3 0-.7-.3-.7-.2 0-.3 0-.4.3zm8.5-19.3v.3V8v.4zm-2.7-.3c-.2.2-.2.8 0 .9.1 0 .2.2 0 .7v.6c.1.2.3.1.3-.2 0-.2 0-.4.2-.4.3-.2.3-.9 0-.9l-.3-.4c0-.4-.1-.4-.2-.3zm3.8.1v2c.3.4.4.2.3-.7 0-1.2-.2-1.5-.3-1.3zm5.6.7-.6.7c0 .2-.1.3-.2.3v.1c0 .3 0 .2.5-.3l.5-.5.6-.9c0-.1-.3 0-.8.6zm.7.3-.8.9.4-.1.8-.7c.6-.7.8-.9.6-.9l-1 .8zm-8.7-.6-.2.7-.2.8c-.2 0-.2.3-.1.6v.6c.2 0 .4-.1.4-.4v-.5c.2-.1.2-2 .1-1.8zm-2.2.2v.4c0 .2 0 .2.1 0 0-.2 0-.6-.1-.4zm9.4.2-.2.2c-.1 0-.2.3-.1.4l.3-.4.1-.4-.1.2zm-1 .1c0 .3 0 .5.2.3v-.3c-.1-.1-.1-.1-.2 0zm-9.2.2.2.3.2.3v.2c.3.2.3 0 0-.5-.2-.5-.4-.6-.4-.3zm4.8 0v.8c.3 0 .3-.3.2-.7-.1-.3-.1-.3-.2-.1zm1.6.1v.8c.2.2.3-.5.2-.8-.1-.2-.1-.2-.2 0zm.7.1v.2-.2zm.6 0v.5c0 .2 0 .2.2 0s.2-.7 0-.7l-.2.2zm.8-.2.1.3.1-.2c0-.2 0-.3-.2-.1zm-7.6.5c0 .2.1.3.2.3v-.7c-.2 0-.2.1-.2.4zm8.6 0 .1.3.2-.2c0-.3-.2-.3-.3-.1zm2.4.2-.4.2-.3.3c-.2.1-.3.2-.2.3l.3-.1.2-.2.2-.1.1-.2.4-.3c.2-.2.2-.2 0-.2l-.3.3zm-12.2 0c0 .2 0 .3.2.4l.1.2.2.2.1.2.2.3.2.4c0 .1.1.2.2 0 .1 0 .1-.1 0-.2l-.2-.4-.1-.2s-.2-.1-.2-.3c0-.2-.2-.3-.3-.3l-.1-.2c0-.3-.3-.3-.3-.1zm-.4.6.3.3.1.3c0 .1 0 .2.2.2s.2 0-.1-.5c-.2-.4-.4-.5-.5-.3zm2.7.3.1.4c.1 0 .2-.3.1-.6 0-.3-.2-.2-.2.2zm9.5 0s0 .2.2.1v-.3l-.2.2zm-12.4.3c0 .1 0 .4.2.4s.1-.4 0-.5l-.2.1zm12.4.4.2.1c.3 0 .3-.3 0-.3 0 0-.2 0-.2.2zm-11.5 0 .1.3.2-.1-.1-.3-.2.1zm-1.3.3.1.2.2-.2h-.3zm12.4-.1c0 .3.3.3.3.1 0 0 0-.2-.3-.1-.1-.1 0 0 0 0zm-15.1 1.9c.1.2.2.2.3 0s0 0-.3 0c-.1 0-.1 0 0 0zm.5.3-.4.2c-.4 0-.4.2 0 .3l.4-.1.4-.2c.4 0 .4-.2 0-.3l-.4.1zm.7.4-.4.1c-.2 0-.3.1-.3.2l-.5.1c-.5 0-.5.2 0 .3h.6c0-.2.2-.3.3-.3l.2-.1.3-.2h.3c0-.2 0-.2-.2-.2l-.3.1zm-.3.8.3.1.3-.1-.3-.1-.3.1zm-2 1.5c-.2.1-.2.1 0 0l1.2.1c-.3-.2-1-.2-1.2-.1zm1.6.3c0 .2.2.3.6.3.5 0 .3-.3-.1-.3h-.5zm-1 .3h-.4l.5.2 1 .2h.2l-.6-.3-.7-.1zm2.2.2c.3.2.5.3.5.1 0-.1-.3-.3-.5-.3h-.4l.4.2zm-.5.5.2.1.2-.1c0-.1 0-.2-.2-.2l-.2.2zm-.8.3h.5c0-.2-.2-.2-.5 0zm1.6.1.2.2.2-.1c-.1-.2-.5-.3-.4-.1zm8.4-4.1v.2s.3 0 .3-.2-.2-.1-.3 0zm-2.8.2c-.1.1 0 .2 0 .2h.2c0-.2-.1-.3-.2-.2zm1.2.1c0 .4 0 .4-.4.5h-.3c0-.3-.1-.3-.4 0-.3.2-.3.2-.1.3.2 0 .2.3-.1.3h-.4c0-.2-.7-.2-.7-.1l1 .5.3.1c0 .1 0 .2-.4.2h-.6s-.2.2-.5.1c-.5 0-.6.2-.1.3.2 0 .2 0 .1.2-.1.1-.1.4 0 .4l.2-.2c0-.3.4-.3.4 0s.3.3.7-.1c.4-.3.7-.4 1-.3.2.2.7.3 1 0h.2c.2 0 .3-.5.1-.6l-.3-.2c-.4-.1 0-.7.5-.7l.3-.1-.1-.1-.2-.1c0-.2-.2-.2-.4.1-.3.4-.8.4-.8 0l.1-.2.1-.2v-.3l-.2.2zm1.3 0c-.1.1 0 .2 0 0 .2 0 .2 0 0 0zm.5.3c-.2 0-.2 0 0 0h.3c0-.2-.1-.2-.3 0z"/>
</svg>
