<svg id="Lag_1" xmlns="http://www.w3.org/2000/svg" viewBox="0 0 55 50">
  <defs>
    <style>
      .cls-1{fill:#ff6445}.cls-2{fill:#14272b}
    </style>
  </defs>
  <path class="cls-1" d="M28.6 19.4c0 .6.2 1.3.6 2.1.3.6.6 1.1 1.4 1.5.9.6 1.5 0 2.4.2 1.8.4 1.8 2 3.9 3a6 6 0 0 0 4.1.4 10 10 0 0 0 4.1-1.9c1.4-.7 1-1 3-2.2 1.6-1.2 2.6-2.4 3.2-3.3 2.9-4.2 2.9-9.3 3-12v-.9a8 8 0 0 0-3 3.2l-.4 1c-.3 1 0 1.7-.6 3l-.7 1.2c-.6 1-1.3 1.6-2 1.9L46.3 18l-2.4 1.4c-.8 1-1.7 1.4-2.2 1.5-.4.1-1 .3-2 .9h-.4c-.7.3-1.4 0-2.4-.3-1.2-.5-1.3-.8-2-1h-2.4l-1.6-.4"/>
  <path class="cls-1" d="M26.8 15.3c.1-1 1-1 2-2.6 1.3-1.8 1-2.3 1.9-4.2.4-.8.6-.8 3.9-4.2 2.6-2.6 3-3 3.8-3.5 2.1-.7 4.5-.6 6.4.6l1.8 1 1.7.5c1.7.5 2 0 3.9.5.9.2 1.4.4 1.7.7.6.7.3 2 .2 2.1-.4 1.3-1.6 2.2-2.5 2.2l-.6-.2-1.8-.2c-1.2 0-1.4.4-2.5.6-.8 0-2-.2-4.2-.8-1.3-.4-1.4-.5-1.8-.5-1.4 0-2.3 1-2.8 1.2-.9.8-.7 1.1-2 2.8-.8 1-1.3 1.6-1.9 2.1-1 .8-1.6.8-2 1.7-.5.8-.5 1.7-.5 2 0 1.2.7 2 .9 2.1l1 1c-.1.4-1.3.5-2.3 0-2.5-.6-4.6-2.9-4.3-4.9Z"/>
  <path class="cls-2" d="m11.6 41.7-.1-.3m-.7 3H10L9 43.7l-.4-.3c-.7-.4-2-1.2-3-2.5A7.8 7.8 0 0 1 4.1 37v-1.5l-.3-.6c0 .2 0 .4-.2.7v.7c-.5.3-2-1.8-2-1.7l.3.7L3.5 37 2 36.9l-1-.2v.4c.3 0 .7 0 1.1.2l1.6.5c.3.2.6.6.5.9 0 .3-.3.5-.3.6l-2-.2v.5l1.1.1 1.3.3L6 41.8H4.4L3 41.5l.2.4 1.8.4c1.1.4 2.2 1 3.4 1.3 2.5 1.4 3 2 2.9 2.4l-.2.2c-.3 0-.6-.5-1.3-1.1a3 3 0 0 0-.7-.6l-.6-.2.9.6-.1.4c-.2.1-.5-.2-1-.7 0 0 0 .3.2.5 0 .2 0 .3.2.4 0 .1.2.2.6.2l.6.2.3.4-3.8-.2.6.5 3.6.2h1.7l2.3 1a19 19 0 0 0 5.4 1.8c1.7.3 3.3.4 4.5.3h3c4.3-.3 8.5-2.2 8.9-2.3 7.2-3.5 12.8-11 12.9-15.8 0-3-.4-4.4-.4-4.4-.6-2-1.4-2.7-1-3.6.3-.8.8-.6 2.6-2.4a4.4 4.4 0 0 0 1.5-3.4c-.7.8-2.6 3-4.9 5 0 0-2 1.8-3.9 2.7h-.3c-.9.4-1.7.8-2.8.7-.9 0-2-.5-2.3-.6l-.7-.3c-.4-.3-.8-.7-1.3-.9-.3-.2-.4-.4-.4-.5 0-.1.6 0 1.7.4.5.3 1.6.9 3 .9l1.4-.2 1.1-.6c.2 0 1.2-1 1.7-1.7 1-1.3 2-2.4 3.2-3 .8-.2 1.5-.6 2.2-.9l.8-.5.9-.7.8-1 .5-.6-.1-1h-.1l-1 1.7a7 7 0 0 1-.8.8c-1.3 1-2.3 1.2-3.3 1.8-.8.3-1.8.9-2.8 2-.4.8-1.7 3-3.7 3.2-.9.1-1.7 0-2.6-.4-1.4-.4-1.5-.7-3-1.1l-2.3-.5-1.7-.3c-1.4-.5-2.3-2.2-2-2.5 0-.1.2-.1 1 .3l1.4.3c1.4.2 1.5 0 2.5.2.8.2.8.4 2.8 1l.5.3c1.2.2 2.2-.3 4-1.5l2.3-1.6 4.1-2.4 1-.6c1-.9 1.8-2.1 2-3.5l.3-1.5c.3-1 .5-1.8 1-2.4L53 8l.5-.3c.3-.2.6-.5.9-1l.7-1a3 3 0 0 0-.3-1A3.4 3.4 0 0 0 52 2.9h-1.5c-1-.1-1.3-.6-2.6-.8h-1c-1-.3-1.3-.7-2.5-1.2-.9-.5-1.7-.6-2.1-.7-.6-.2-1.3-.2-1.8-.2l-1.7.4-1.7 1-1.8 1.3a9.9 9.9 0 0 0-4 3.8C30.5 7.8 30 9.3 30 9.3c-.5 1.3-.6 2-1.2 2.7s-.8.6-1.4 1.3c-.4.6-1.2 1.5-1.1 2.6 0 .5.2.5.8 1.8l1.3 3c1 2.1 1.1 2.2 1.3 2.4.6.5 1.3.6 2.5.8.8 0 1 0 1.5.3.7.3 1.1.7 1.3 1.2l2.7 1.5c.8.3 2.3.6 4 .2l2.6-1 .8-.7 1-.8c.2-.3.5-.5.5-.2l.6 1.4.7 2.3s.4 2 .2 4.1c-.3 3-4.2 10.8-12.7 14.6-5.6 2.5-10.6 2-13.1 1.8-5.4-.6-9.8-2.8-10.2-4.5-.3-1.3.2-2.6.2-2.6.2-.5.5-.7.6-.8.3-.2.6-.2 1.4-.3l1.4-.1-.3-.4c0-.2.2-.3.5-.5l.1-.7-.8.6c0 .1-1 1-1.5.7 0 0-.2-.2-.3-1.4a6.8 6.8 0 0 1 0-2.2c.2-.5.4-.6.6-1.3l.1-1s-.3 1.5-1 1.6l-.5-.1c.1.5.3 1.3.3 2.1l-.2 2.1-.9 1.3-.4 1c-.3 1.5-.3 2-.7 2.3Zm34.6-28.1H45q-.2 0 0 .2c.4.2.4.4 0 .5-.2 0-.3.2-.3.3 0 .2-.6.8-.8.8h-.3l-.4.3-.6.5-.5.6h-.3c-.1.3-.8.4-1.7.3-.4 0-.5 0-1-.6-.3-.4-.4-.6-.3-.7v-1.3c0-.3.6-1 1-1 .2.2.2 0 0-.1-.3-.2 0-.6.2-.5.1 0 .2 0 .3-.2s.2-.3.4-.2c.1 0 .2 0 .3-.3.2-.5.7-.3.8.3 0-.5.1-.6.3-.7h.8c0-.2.7-.2.8 0h.2c.2-.3.5-.1.5.1s0 .3.2.2c.3 0 .5.1.5.5l.1.4c.2-.2.2.4 0 .6Zm2.2 0-1 .2c-.4.2-.7.3-.8.2v-.5c.3-.5.3-.6 0-1 0-.2-.2-.6-.5-.7-.3-.5-.5-.6-1.3-.7-.7-.2-.8-.2-1.2 0l-.6.1a5 5 0 0 0-2 .9c-.7.5-1 .7-1.5 1.4-.3.4-.4 1-.3 2v.7l.5.5q.5.6 1.2.7h.7l-.4.5c-.6.6-1 .7-1.8.4-1-.5-1-.7-1.2-1.7l-.2-.6-.6-1c-.7-1-.6-1.5.2-3l.6-.6c.7-.6 1.6-.8 3-.8 1 0 1.4-.2 2.1-.6 2-.9 3.5-1 4.3-.5.4.2.6.4.9.8.2.3.2.5.2 1 .2 1.1-.1 2-.3 2.3Zm3.6-7.1-.5.5c-.3.3-.4.4-.1.4.2 0 .2.4-.2.7q-.3.3 0 .4v.2c0 .2-.2.6-.5.6.4 0 .5 0 .5.3 0 .2 0 .3-.2.4s-.2 0-.1.3v.3c-.2.1-.2.2-.1.2.2 0 0 .5-.1.5s-.2.2-.1.4q0 .2-.2.3l-.3.3c0 .2-1 1.2-1 1v-.4l.2-.6v-1.9l-.3-.8c-.2-.6-.7-.9-1-.9h-.4c-.4-.4-1.8-.4-2 0h-.4l-.3.1c0 .2-.1.2-.3.2-.2-.2-.8 0-1 .4h-.2c-.1 0-.3 0-.4.2-.7.4-1.9.6-2 .3l-.2.1q-.2.2-.5-.2l-.4-.6-.3-.6-.2-.3c-.2 0-.3 0-.3.2s0 .2.2.2l.1.3.2.4c.2 0 .3.3.3.5v.2q-.3-.2-.5.1c0 .3 0 .3-.3.1h-.2l-.6.5c-.6.3-.8.4-.9.7 0 .1 0 .2-.4.1-.5 0-.6-.2-.3-.4.1 0 .1-.2 0-.2h-.2c0 .3 0 .3-.4 0H35l.6.6.3.1c0 .1 0 .2.2.2s.2.1 0 .4l-.2.6v.6c0 .7-.4.8-1.3.7l-1.4-.2h-.9c-.3.1-.2.4.1.5l.4.2c.1 0 .3.2 1.5 0h1.3l.2.2.3.6c0 .3.1.5.7 1 .1.2.2.4.1.6v.3l.2.4.1.4.2.3.2.2 1.2.6h.3c0-.2.4 0 .4.2 0 .3-.2.4-.4.2h-.6l-.7-.2-.5-.1-.4-.2-.3-.2c-.1 0-.3 0-.5-.2l-.6-.4-.2-.8-.3-.1s-.3 0-.4-.2h-.3c-.4.2-.5.2-.6 0 0-.3-.1-.3-.3-.4-.3 0-.4-.1-.4-.4l-.2-.2c-.1 0-.2 0-.2-.2l-.3-.4-.2-.4v-.4c-.2-.2-.2-.5 0-.6v-.4c-.2-.1-.2-.2 0-.3v-.4c0-.5.3-.6.6-.5.3.3.7.3.7 0h-.4c-.3 0-.4 0-.3-.3 0-.2 0-.3.2-.3s.3-.1.3-.3 0-.3.2-.3.3 0 .4-.2l.3-.4.6.2c0 .3.3.4.4.4l.3.2c0 .2.4.2.4 0l-.2-.1-.2-.2-.5-.4c-.5-.3-.5-.5-.1-.6.2 0 .3 0 .3-.3 0-.2 0-.3.2-.3s.7-.6.7-.8v-.2l.3-.2.6-1s.2 0 .2-.3v-.2h.2l.3-.3c.2 0 .3-.1.3-.3s0-.3.3-.3l.4-.4.7-.4.6-.3c.5-.3.7-.2.7.3v.4l.2-.4v-.4c0-.2.6-.2.7 0v.6c0 .6 0 2.8.2 2.7.2-.1.2-.8 0-2 0-1.2 0-1.5.5-1.2h.3c.3-.1.4.2.4 1v.7-.7c0-.5 0-.6.3-.7 0 .1.3.2.4.1h.3l.5.2.3.5V9c0-.4.3-.6.5-.3h.8l.6.3.5-.1c0-.2.2-.2.4 0s.2.4.2 0c.2-.2.5-.5.7-.1.2.2.3.2.4-.1 0-.4.5-.6.8-.4h1.3s.3 0 .4.2v.6Zm-23.5 7c0-.8.2-1.3 1.4-2.7 1-1 1-1.3 1.2-1.7l.3-1c.2-.1.3-.6.3-.7 0-.4.8-2 1-2.3.3-.1.4-.4.4-.5l.4-.3 1-.7.7-.6v-.1l.5-.5c.4-.5 1-1.2 1-1.5 0-.1.6-.8.8-.8l.5-.4.5-.3.5-.3.6-.4 1.1-.4c.4-.2.6-.2 1.8-.2 1 0 1.2.1 2 .5l1.7.8c1 .7 2.3 1.3 2.8 1.3h1l1.9.3c1.5 0 1.9.3 2.6.7.4.2.4.3.4.8 0 .7-.4 1.3-1.8 2.3l-.8.7L51 8c-.5-.4-2-.5-2.3-.3-.8.4-1.7.6-2.2.5-.8 0-1.7-.2-2.4-.5L42.5 7c-1-.6-3.2-.2-4.5.7-1 .7-1.7 1.6-2.4 2.7a8 8 0 0 1-2.1 2.5c-1 .6-1.6 1.5-2.1 2.4l-.2 1.2c0 1 0 1.1.3 1.5 0 .4.5.8.8 1 .4.5.5.6.3.6l-1 .1c-1.1 0-2-.5-3-2-.8-.7-1-1-1-1.7Z"/>
  <path class="cls-2" d="M1.7 25.2v.6C1 25 .6 25 .6 25l.3.6.3 1.1.6 3c-.2.2-.9-.4-1-.5v.5l.9 1.8H0l2.6.7.8.5c1.4 1.6 2.2 3.1 2.7 4.2l1.3 3 1 2c.6 1.2 1.4 1.8 2 1.6.1 0 .3 0 .4-.4-.9.1-1.6-.3-1.9-1-.3-.7 0-1.2 0-1.3.1-.6.3-1.5 1-2.4.3-.5.8-1.2 1.3-1.2.6 0 1.2 1 1.4 2.5.3-.3.5-.5.5-.7.2-.9-.3-1.8-1.5-2.6l-1.5.7c.1-.4.5-1.3.1-2.5l-.6-1c-.2.3-.2.7 0 1 .2.6.2 2.1 0 2.3a11 11 0 0 0-.8 2.2l-.3 1.7-.6-1c-.2-.5-.3-1.4-.3-2.4s0-2.7 1-4.1c.7-1.4 2-2 2.6-2.4.1-.2.1-.3 0-.4 0-.2-.6 0-1.5.4v-1.2c-.5-.6-.8-.9-.6-1.3.2-.5.8-.7.7-.8h-.7c-.4-.1-.5-.8-.6-.7l.1 1.5c-.5-.6-.7-.7-.8-.6-.2.1 1.4 1.9 1 3.7v.4c-.6 1.4-1 1.7-1.5 2.5-.5 1.3-.2 2.1-.5 2.3-.4 0-1-1.5-1.5-2.5 0-.3-.2-.4-.3-.6-.7-2.2.2-4.3-.4-4.5l-.6.4c-.3.2-.4.2-.4.4l.2.4.4.5v2.2l-.7-.6L3 32c-.2-.2-.6-.7-.7-1.5 0-1 .4-1.8.5-1.9l1.1-.8.2-1.5-.4.6c-.2.2-.3.6-.5.6-.2-.2 0-1.1-.2-1.1 0 0 0 .6-.3 1.3 0 .2-.3.6-.5.6s-.4-.5-.4-1c0-.8.6-1.3.8-1.4l-.8-.7ZM42 9Zm-2.7-.3c-.2.2-.2.8 0 .9.1 0 .2.2 0 .7v.7c.1.2.3 0 .3-.2s0-.5.2-.5c.3-.2.3-1 0-1l-.3-.3c0-.4 0-.4-.2-.3Zm3.8 0v2.2c.3.4.4.2.3-.8 0-1.2-.2-1.6-.3-1.3Zm5.7.8-.6.7c0 .3-.1.4-.2.4 0 .4 0 .3.5-.2l.5-.6.6-1s-.3 0-.8.7Zm.7.3-.8 1 .4-.1.8-.8c.6-.7.8-1 .6-1l-1 1Zm-8.8-.6-.2.7-.2.9c-.2 0-.2.3 0 .6v.6c.1 0 .3 0 .3-.4V11c.2-.1.2-2.1.1-2Zm-2.2.2v.4q0 .2.1 0v-.4Zm9.5.2-.2.2c-.1 0-.2.3-.1.4l.3-.4v-.4.2Zm-1 .1c0 .3 0 .6.2.3v-.3H47Zm-9.3.2.2.4.2.3v.2c.3.2.3 0 0-.5-.2-.6-.4-.7-.4-.4Zm4.8 0v.9c.3 0 .3-.3.2-.8q0-.3-.2 0Zm1.6.1v.9c.2.2.3-.5.2-.9q0-.2-.2 0Zm.7.2Zm.6 0v.5q0 .2.2 0c.2-.2.2-.8 0-.8l-.2.2Zm.8-.3.1.4.1-.2c0-.3 0-.4-.2-.2Zm-7.6.6c0 .2.1.3.2.3V10c-.2 0-.2 0-.2.4Zm8.7 0v.3l.3-.2c0-.3-.2-.3-.3-.1Zm2.4.2-.4.2-.3.3c-.2.1-.3.2-.2.3h.3l.2-.3.2-.1v-.2l.5-.3q.2-.2 0-.2l-.3.3Zm-12.3 0c0 .2 0 .3.2.4v.2l.3.2v.2l.3.4.2.4s0 .2.2 0v-.2c-.1-.1-.2-.2-.2-.5l-.1-.2s-.2 0-.2-.3-.2-.3-.3-.3l-.1-.2c0-.3-.3-.3-.3-.1Zm-.4.6.3.3v.4s0 .2.3.2.2 0-.1-.6c-.2-.4-.4-.5-.5-.3Zm2.7.3.1.5c.1 0 .2-.4.1-.7 0-.3-.2-.2-.2.2Zm9.6 0s0 .2.2.1v-.3l-.2.2Zm-12.5.4s0 .4.2.4 0-.4 0-.6l-.2.2Zm12.5.4h.2c.3 0 .3-.2 0-.2 0 0-.2 0-.2.2Zm-11.6 0v.3l.3-.1-.1-.3h-.2Zm-1.3.3v.2l.3-.2h-.3Zm12.5-.1c0 .3.3.3.3 0h-.3c-.1-.1 0 0 0 0Zm-15.2 2c0 .2.2.2.3 0s0 0-.3 0q-.1 0 0 0Zm.5.3-.4.2c-.4 0-.4.2 0 .3h.4l.4-.3c.4 0 .4-.2 0-.3l-.4.1Zm.7.4-.4.1c-.2 0-.3.2-.3.3h-.5c-.5 0-.5.3 0 .4h.6c0-.2.2-.3.3-.3l.2-.1.3-.3h.3q0-.2-.2-.2l-.3.1Zm-.3.9h.6l-.3-.1h-.3Zm-2 1.6q-.2 0 0 0h1.2-1.2Zm1.6.3c0 .2.2.3.6.3.5 0 .3-.3-.1-.3h-.5Zm-1 .3h-.4l.5.2 1 .2h.2l-.6-.3-.7-.1Zm2.2.2c.3.2.5.3.5.1 0-.1-.3-.3-.5-.3H35l.4.2Zm-.5.5.2.1h.2c0-.2 0-.3-.2-.3l-.2.2Zm-.8.4h.5c0-.3-.2-.3-.5 0Zm1.6 0 .2.3.2-.1c-.1-.2-.5-.4-.4-.1Zm8.4-4.3v.2s.3 0 .3-.2-.2 0-.3 0Zm-2.8.2v.3h.2c0-.3 0-.4-.2-.3Zm1.2.2q0 .4-.4.5h-.3c0-.3 0-.3-.4 0q-.3.2 0 .3c.1 0 .1.3-.2.3h-.4c0-.2-.7-.2-.7 0s.8.4 1 .4l.3.2s0 .2-.4.2h-.6s-.2.2-.5 0c-.5 0-.6.3 0 .4q.1 0 0 .2v.4l.2-.2c0-.3.4-.3.4 0s.3.3.7-.1c.4-.3.7-.4 1-.3.2.2.7.3 1 0h.3c.2 0 .3-.5 0-.6l-.2-.3c-.4 0 0-.7.5-.7l.3-.1-.1-.1-.2-.1c0-.2-.2-.2-.4 0-.3.5-.8.5-.8 0v-.1l.2-.2v-.4l-.2.3Zm1.3 0s0 .2 0 0q.2 0 0 0Zm.5.3q-.2 0 0 0h.3c0-.2 0-.2-.3 0Z"/>
</svg>
