<svg id="Lag_1" xmlns="http://www.w3.org/2000/svg" viewBox="0 0 55 50">
  <defs>
    <style>
      .cls-1{fill:#fff}.cls-2{fill:#ff6445}.cls-3{fill:#2f6457}
    </style>
  </defs>
  <path class="cls-2" d="M28.5 18.4c0 .4.2 1.2.6 2 .3.5.6 1 1.4 1.4.8.6 1.4 0 2.4.2 1.8.3 1.8 1.9 3.9 2.8a6 6 0 0 0 4 .4c1.7-.3 2.8-1 4.2-1.8 1.3-.7 1-1 2.9-2.1 1.6-1.2 2.6-2.3 3.2-3.1 2.8-4 2.9-8.8 3-11.5V6a8.6 8.6 0 0 0-3.5 4c-.3.9.1 1.5-.6 2.8a7.6 7.6 0 0 1-2.6 3L46 17.1l-2.4 1.3a5 5 0 0 1-2 1.5l-2.2.7-.3.2c-.7.2-1.3 0-2.4-.4-1.2-.4-1.3-.7-2.1-1h-2.3c-.6 0-1.1-.2-1.5-.3"/>
  <path class="cls-2" d="M26.7 14.5c.2-.9 1-.9 2-2.5 1.3-1.7 1-2.2 2-4 .4-.6.5-.7 3.9-3.9 2.6-2.5 2.9-2.9 3.7-3.2a8 8 0 0 1 6.5.4l1.6 1 1.7.5c1.6.4 2.1 0 3.9.4.8.2 1.3.4 1.6.7.6.8.3 1.9.2 2-.4 1.3-1.6 2.2-2.5 2.2l-.6-.2-1.8-.3c-1.1-.1-1.3.3-2.5.5-.8 0-2-.2-4-.8-1.4-.4-1.4-.5-2-.5-1.3 0-2.3 1-2.8 1.2-.8.8-.6 1-2 2.6-.8 1-1.3 1.5-2 2-1 1-1.5 1-2 1.7-.5.8-.5 1.5-.5 1.8a3 3 0 0 0 1 2l.9 1c-.1.4-1.3.5-2.4 0-2.1-.5-4.2-2.7-3.9-4.6Z"/>
  <path class="cls-3" d="M31 48.2c-1-.7-2.5-.8-2.8-.2-.3.4.2 1.1.7 1.5.7.6 1.8.6 2.8.1 0-.3-.2-.9-.8-1.4ZM29.6 45.5h.2v-.7l-.2.6v.2Zm-1.7 1.8h-.5l.7.4v-.2l-.1-.2ZM29.6 39.8l.2.4c.2.5 0 1-.6 1.9l-.3.7c.4 1.3.7 2 1 1.9l.3-.5.4-.7c.3-.5.3-.6.3-1.3 0-1.3-.3-2-.7-2.2-.2-.2-.5-.3-.6-.2Zm5.3.3c-.2-.2-1.2.5-3 2a7.4 7.4 0 0 0 0 2.4l-.2.2h.1a5.8 5.8 0 0 0 2.5-2.2l.2-.7.5-1.4v-.3Z"/>
  <path class="cls-1" d="M11.6 39.5v-.3m-.8 2.8h-.7l-1-.6-.4-.2c-.8-.4-2-1.2-3-2.5a7.3 7.3 0 0 1-1.5-3.6v-1.4l-.3-.6-.2.8-.1.7c-.4.2-2-1.8-2-1.7l.4.7 1.5 1.6a14 14 0 0 1-2.6-.4v.4a12.7 12.7 0 0 1 2.7.7c.4.2.6.5.6.8 0 .4-.3.6-.4.6-.4-.2-1.3-.3-2-.3v.4l1.2.1 1.3.4 1.8 1.7-1.5-.1-1.5-.1.2.4 1.8.2c1 .5 2.2 1 3.3 1.3 2.5 1.3 3 2 2.9 2.2l-.3.2c-.3 0-.6-.4-1.3-1L9 42l-.6-.2v.2l.9.5-.1.4c-.2.1-.5-.1-1-.7l.2.5.2.4s.2.2.6.2l.5.1.3.4-3.7-.2.6.5 3.5.1h1.7l2.3 1a22.4 22.4 0 0 0 10 2h3c4.2-.2 8.4-2 8.8-2.2 7.1-3.3 12.7-10.4 12.8-15 0-2.7-.4-4.1-.4-4.1-.5-1.9-1.3-2.5-1-3.4.3-.7.8-.6 2.6-2.3a4 4 0 0 0 1.5-3.2A46 46 0 0 1 47 22s-2 1.7-4 2.5l-.2.1c-.9.4-1.7.7-2.8.6a14.1 14.1 0 0 1-3-.9l-1.2-.8-.4-.5s.6 0 1.7.4a6.1 6.1 0 0 0 4.4.6l1.1-.5c.2 0 1.2-1 1.7-1.6.8-1.3 2-2.3 3-2.8.9-.2 1.6-.6 2.3-1 .3 0 .5-.2.8-.4A7 7 0 0 0 52 16l.5-.5-.1-1h-.1l-1 1.6-.8.8c-1.2 1-2.2 1.2-3.2 1.6-.8.4-1.8 1-2.8 2.1-.4.7-1.7 2.8-3.8 3a7 7 0 0 1-2.6-.4c-1.4-.4-1.5-.7-3-1l-2.3-.5-1.6-.3c-1.4-.5-2.3-2-2-2.4l1 .3 1.4.3c1.3.3 1.4 0 2.5.2l2.8 1 .5.1c1.2.3 2.2-.3 4-1.4l2.3-1.5 4.1-2.3 1-.6c1-.8 1.8-2 2.1-3.3 0-.5.2-1 .3-1.4.2-1 .4-1.6 1-2.3l.7-.6.5-.2A6.6 6.6 0 0 0 55 5.4c0-.2 0-.6-.3-1-.6-1.3-2.3-1.7-2.5-1.7h-1.5c-1-.2-1.3-.5-2.6-.7l-1-.1c-1-.3-1.3-.7-2.4-1.2l-2-.5C41.6 0 41 0 40.4 0a6.8 6.8 0 0 0-3.3 1.4l-1.8 1.2a9.2 9.2 0 0 0-4 3.7l-1.2 2.6c-.5 1.3-.6 1.8-1.2 2.5s-.8.6-1.4 1.4c-.4.4-1.2 1.3-1.1 2.4 0 .5.2.6.8 1.7l1.2 2.9c1 2 1.1 2.1 1.3 2.3.6.4 1.4.5 2.5.7.7 0 1 0 1.5.3.7.3 1 .7 1.3 1l2.7 1.5a9.1 9.1 0 0 0 6.5-.7l.8-.7 1-.7c.1-.3.4-.5.4-.2l.6 1.3a12.7 12.7 0 0 1 1 6.1c-.3 2.9-4.2 10.3-12.7 13.8-5.6 2.4-10.6 2-13 1.7-5.4-.6-9.7-2.6-10.1-4.3-.3-1.3.2-2.4.2-2.4.2-.5.4-.7.6-.8.2-.1.6-.2 1.3-.2.8 0 1.4 0 1.4-.2 0 0-.3-.1-.3-.3l.6-.4v-.8l-.7.6c-.1 0-1 .9-1.5.7-.1-.1-.2-.3-.2-1.4-.1-1.1-.2-1.7 0-2l.5-1.3c.2-.5.2-1 .1-1 0 0-.3 1.5-1 1.6l-.4-.1a7.7 7.7 0 0 1 0 4 5.7 5.7 0 0 0-1.2 2c-.5 1.4-.5 2-.9 2.1Zm34.4-26.6h-.3c-.2 0-.2.1 0 .2.4.2.4.3 0 .4-.2 0-.3.2-.3.3 0 .2-.6.7-.8.7h-.3l-.4.2-.5.5-.5.5h-.3c-.1.3-.8.4-1.6.3-.4 0-.5 0-1-.5-.3-.4-.4-.6-.3-.7v-1.1c0-.3.6-1 1-1 .2.2.2 0 0-.1-.3-.2 0-.5.2-.4.1 0 .2 0 .3-.2.1-.1.2-.2.4-.1 0 0 .2 0 .3-.3.2-.5.7-.3.8.3v-.1c0-.4 0-.5.3-.6h.7c0-.2.7-.2.8 0h.2c.2-.3.5 0 .5 0s0 .4.2.3c.3 0 .5 0 .5.5v.2c.3 0 .3.5 0 .7Zm2.2 0-1 .2c-.3.2-.6.3-.7.2v-.5c.3-.4.3-.5 0-1 0-.1-.2-.5-.5-.7-.3-.3-.5-.4-1.2-.5-.7-.2-.8-.2-1.2 0a3 3 0 0 1-.5 0c-.5 0-1.6.5-2 .9-.8.5-1 .6-1.5 1.3-.3.4-.4 1-.3 1.9v.7l.5.5q.5.4 1.1.5h.7l-.4.5c-.6.5-1 .7-1.7.4-1-.5-1-.7-1.2-1.6l-.2-.6-.6-1c-.6-.8-.5-1.4.2-2.8l.6-.6c.7-.4 1.6-.6 3-.7.9 0 1.4-.2 2.2-.6 2-.8 3.4-.9 4.2-.4.3.2.5.3.8.8.2.3.2.5.2 1 0 1-.3 1.9-.5 2ZM51 8.7l-.5.5c-.3.2-.4.3 0 .3.1 0 .1.3-.3.6q-.3.3 0 .4l.1.1c0 .2-.3.6-.5.6.3 0 .4 0 .4.3l-.1.3c-.1 0-.2 0-.1.2v.3c-.2.1-.2.2-.1.2l-.1.5c-.1 0-.2 0-.1.3l-.2.2-.3.3c0 .2-1 1.1-1 1v-.3l.2-.6v-1.8l-.4-.5c-.2-.5-.7-.9-1-.9h-.4c-.3-.3-1.7-.3-2 0h-.4l-.3.1c0 .2 0 .2-.3.2-.2-.2-.8 0-.9.3h-.3a1 1 0 0 0-.3.2c-.7.3-1.9.5-2 .3H40q-.2.2-.5-.1L39 11c0-.2-.2-.4-.3-.5l-.1-.3h-.1c-.1 0-.2 0-.2.2s0 .2.2.2v.2l.3.4.2.5v.1q-.3-.1-.5.1c0 .3 0 .3-.2.1H38l-.6.4c-.6.3-.8.4-.9.6 0 .1 0 .2-.4.1-.5 0-.6-.2-.3-.3.1 0 .1-.2 0-.2h-.2c0 .3 0 .3-.4 0H35l.5.5.3.1c0 .1 0 .2.2.2s.2.1 0 .4l-.2.5v.5c0 .7-.4.9-1.2.8l-1.4-.2h-.9c-.3 0-.2.2.1.3l.4.2c.1.1.3.2 1.5 0h1.2l.2.2.3.6c0 .3.1.4.7 1 .1.1.2.3.1.5v.2l.2.4v.4l.3.2.2.2 1 .5h.3c.1-.2.4 0 .4.2 0 .3-.2.4-.4.2h-.6l-.6-.2H37l-.4-.3-.3-.2-.5-.1-.6-.3-.3-.3h-.3s-.2 0-.3-.3H34c-.4.2-.5.2-.6 0 0-.3-.1-.3-.3-.4-.3 0-.4 0-.4-.2l-.3-.3s-.2 0-.2-.2-.1-.3-.3-.4l-.2-.4v-.4a.4.4 0 0 1 0-.5q.1-.3 0-.4v-.3l.1-.4c0-.4.2-.5.5-.4.3.2.7.2.7 0h-.4c-.3 0-.4 0-.3-.2 0-.2 0-.3.2-.3s.3-.1.3-.3 0-.3.2-.3.3 0 .4-.2l.3-.3.6.2c0 .2.3.3.4.3l.2.2c0 .2.4.2.4 0h-.2l-.1-.3-.5-.3c-.5-.2-.5-.4-.1-.5.2 0 .3 0 .3-.3l.1-.3c.2 0 .7-.4.7-.6l.1-.2.2-.2.6-1c.1 0 .2 0 .2-.2v-.2l.3-.3.3-.3c.2 0 .3 0 .3-.2s0-.3.2-.3l.4-.3.7-.4.6-.3c.5-.2.7-.1.7.3v.4l.2-.4v-.5c0-.2.5-.2.6 0v.5c0 .5.1 2.6.2 2.5.2 0 .2-.7.1-1.8 0-1.1 0-1.4.4-1.1h.3c.3-.1.4.1.4.9 0 .5 0 .7.1.6v-.6c0-.4 0-.5.2-.6h.3c0 .1.2.2.3.1h.3l.5.2.2.4v.2c0-.4.3-.5.5-.3h.8l.6.3.5-.1c0-.2.2-.2.4 0s.2.3.2 0c.2-.2.5-.4.6-.1.2.2.3.2.4-.1.1-.3.6-.5 1-.3h1.2s.3 0 .4.2q.2.2 0 .5Zm-23.3 6.6c0-.7.1-1.2 1.3-2.5 1-1 1-1.2 1.2-1.6l.3-1c.2-.1.3-.5.3-.7 0-.3.7-1.8 1-2.2.2 0 .3-.4.3-.5l.4-.2 1-.6.7-.6.5-.5c.3-.4 1-1.1 1-1.4 0-.1.5-.8.7-.8l.5-.3.5-.3.5-.3.6-.4 1.3-.3c.4-.2.6-.2 1.8-.2 1 0 1.1 0 2 .3l1.7.9c1 .6 2.2 1.2 2.7 1.2h1l2 .3c1.4 0 1.9.3 2.5.7.4.2.4.3.4.7 0 .7-.4 1.3-1.7 2.2l-.8.6-.5-.2c-.5-.4-2-.5-2.3-.3a4 4 0 0 1-2.2.5c-.8 0-1.6-.2-2.4-.5l-1.6-.5c-1-.5-3.2 0-4.4.8-1 .6-1.7 1.4-2.5 2.6-.5.9-1.2 1.7-2.1 2.3-.9.6-1.6 1.4-2.1 2.3L31 16c0 1 0 1.2.3 1.5 0 .3.4.8.7 1 .4.4.5.5.3.5a4 4 0 0 1-1 .1c-1 0-1.9-.5-2.9-1.9-.7-.9-1-1.2-1-1.8h.2Z"/>
  <path class="cls-1" d="M17.4 27h-.6l-.3.2-.3.2a4 4 0 0 0-1.3.7l-.1.5c0 .4.4.4.8 0 .6-.6.7-.5.7.7v1.5q.2.5-.2 1c-.3.1-.4.3-.3.4 0 .2 0 .3.4.2h.3v4.8l.2.1c0 .3.3.2.5 0s.3-.4.2-.8l.1-.6v-.2c0-.1-.2-.4-.2-1v-1.3l-.2-1c0-.6 0-.6.4-1 .4-.3.6-.4 1-.4.3 0 .8-.3.6-.5h-.2l-.2-.2c0-.2-.2-.2-.5 0l-.6.2c-.1.2-.3.3-.4.2l-.1-1.4V28h.1a4 4 0 0 1 2 0c.4 0 .7-.2.5-.7-.2-.4-1.5-.6-2.3-.3Zm5.9-12v1.4l.3 2 .1 2.5c0 1.2.2 1.7.5 1.7.2 0 1.7-.1 2-.3 1.4-.9 1.6-2.6.7-4.7-.4-.7-.8-1.3-1.3-1.8s-1.4-1-1.8-1c-.2 0-.4 0-.5.2Zm1.4.8a4 4 0 0 1 1.3 1.9c.4.8.5 1.1.6 1.9 0 .8-.1 1.3-.7 1.8-.2.4-.3.4-.6.4H25l-.2-1.4c0-1-.2-2-.4-2.9l-.2-1.3c-.1-.4 0-.6.1-.6l.5.1v.1Zm-7.7-.7v8l.2.2c.5.3.5 0 .5-1.8l.1-1.7c.2 0 .7 1.4.8 2 .2 1 .5 1.9.8 2 .6.2 1 0 .7-.4-.4-.4-.5-.7-.7-1.7-.2-1-.5-1.9-1.1-2.7q-.2-.3 0-.5c.4-.2 1-.8 1-1 .5-1 .6-2.1.2-2.1s-.5.2-.5.6l-.2 1c-.2.3-.8.9-1 .9V15H17Zm3.3.3v6l.2.5.7 1 .4.2.4-.5c.3-.2.4-.5.4-.6l.2-.3s.3-1.8.3-3.2v-1.7c.2-.3.2-.6 0-1 0-.4-.2-.6-.6-.5q-.2 0-.2 2.3l-.2 3.2v1h-.3c-.4 0-.6-1.3-.6-4.2v-2.3c-.2-.2-.4-.2-.5 0h-.1Zm-15.5 0-.1.6-.3 1.2a8.5 8.5 0 0 0-.5 3c-.1 1-.2 1.5-.3 1.1-.3-.7-.5-1.7-.6-3-.2-1.8-.3-2.2-.9-2-.2 0-.3 0-.4.4A43.2 43.2 0 0 0 3.2 23l.1 1.1c.1.5.4.7.7.5.2 0 .2-.3.2-1.3v-2l.4-1.6c0-1 .2-2 .6-3 .3-1 .2-1.3-.2-1.3h-.2Zm9.5.4a3 3 0 0 0-.9 2.6l.8.9 1 1.1c.3.6.3.8.3 1.4 0 .7 0 .8-.3 1.3-.3.4-.4.6-.6.6-.3 0-.6-.4-.8-.7 0-.5-.7-.3-.7.2 0 .4 0 .5.6 1 .7.3 1.3.3 1.7 0 .5-.5.7-.6 1-1.3l-.2-1.6C16 20 15.8 19.8 15 19c-.4-.4-.8-1.3-.8-1.7 0-.2 1-1 1.2-1s.6-.2.6-.5c0-.1-.2-.2-.9-.2-.3-.1-.4 0-.8.2Zm-8.2.1c-.3.6-.4 1.3-.4 4.8V24h.5l.1-2.1.2-3.7c.2-2.4.2-2.5 0-2.5 0 0-.3 0-.3.2Zm1.4.6c-.2.3-.2.4-.3 1.7 0 2-.2 3.8-.5 5.8-.1.7 0 .8.9.3l1.2-.5c.5-.1.6-.2.6-.4l-.3-.4-.6.1-.7.3c-.2 0-.2-.1-.2-.5v-.7L8 21l.2-1.7.2-1.9v-1h-.8Z"/>
  <path class="cls-1" d="m10.1 16.6-.3.4V19l.3 4.5a4 4 0 0 0 1.6 0c.4 0 1-.9 1.3-1.8a3 3 0 0 0 .1-2.2c-.3-.7-1.4-2.3-2-2.7-.4-.4-.6-.4-.9-.2v-.1Zm1.3 1.6a4 4 0 0 1 1 2.8l-.2.8-.2.5c0 .2-.2.4-.4.6q-.4.3-.7.1v-5.4c0-.2 0 0 .5.6Zm-9.6 5.7v.5c-.8-.6-1-.7-1-.6l.2.5.3 1.1.5 2.8c-.2.2-1-.3-1-.4v.5l.9 1.7H0l2.6.7.8.4c1.4 1.6 2.2 3 2.7 4l1.3 3 .9 1.8c.6 1.1 1.5 1.8 2 1.6.2 0 .4-.2.5-.4-.9 0-1.6-.4-2-1-.2-.6 0-1.1 0-1.2.1-.6.3-1.4 1-2.3.3-.5.8-1.3 1.4-1.2.6 0 1.1 1 1.3 2.4.3-.2.4-.5.5-.7.2-.7-.3-1.7-1.4-2.4l-1.5.7c0-.3.4-1.3 0-2.3a3 3 0 0 0-.6-1c-.2.2-.2.6 0 1s.2 2 0 2.1a11.9 11.9 0 0 0-1 3.8l-.6-.9c-.2-.5-.3-1.3-.3-2.3 0-1 0-2.4.8-3.9a6 6 0 0 1 2.7-2.2v-.3c-.1-.2-.6 0-1.5.3v-1.2c-.3-.8-.5-1-.4-1.5.2-.5.8-.7.7-.8h-.7c-.4-.1-.5-.6-.6-.6l.2 1.3c-.6-.6-.7-.6-.8-.6-.2.1 1.4 1.8 1 3.5l-.1.4c-.5 1.3-1 1.6-1.4 2.5-.6 1.1-.2 2-.5 2-.4 0-1-1.4-1.5-2.3l-.2-.6c-.7-2 .2-4-.4-4.3l-.6.4-.4.4.2.4.4.5v2l-.7-.4-.8-.5a2.5 2.5 0 0 1-.2-3.3l1.1-.8.2-1.3-.4.5c-.2.3-.3.6-.5.6s-.1-1-.2-1c0 0 0 .5-.3 1.1-.1.2-.3.6-.5.6-.3 0-.5-.5-.5-1 0-.7.7-1.1.8-1.3l-.6-.5Zm35 2.7V28l.2.9c.3 2.5.4 4.6.4 5.7v1.2h.3l.6-.1c.7-.3 1.2-.5 1.7-.5.9 0 1.3-.4.8-.6-.2-.2-1.2-.1-1.8 0l-.6.2H38V33c0-2 0-3.9-.4-5.8v-.5h-.8Zm-11.1.5c-.6.1-.8.3-.6.6l.7.2h.4v7.8c-.1.5 0 1 .6.7.2-.2.3-1.7.4-5.3V28h1.7v.6l-.5 5.5c0 2.1 0 2.3.4 2.3.3 0 .5-.7.4-1.3v-1.2c.3-2.1.4-4.3.3-6.4-.2-.1-.3-.2-.4 0l-.5-.1c-.2-.2-.4-.3-1.3-.3l-1.6.1Zm9.8.2v.2l-.5.8-.4 1.2-.3 1-1 3.5c-.2 1.1-.2 1.3-.1 1.4.3.3.6 0 .7-.4l.4-1.3c0-.5.2-1 .3-1.2 0-.3.5-.9 1-.8h.2V33c0 2 0 2.6.2 2.8l.4-.1c.2-.2.2-.4.2-1.4a43 43 0 0 0-.3-5c0-2-.1-2.3-.8-2Zm.2 2.6q0 1.1-.2 1.2l-.5.1c-.3.1-.3.2 0-1.2.5-1.7.7-1.8.7 0Zm-12.4-2.3-.5.4c-.1.2-.2.3-.5.2-.2 0-.6 0-1-.2h-.8l-.4.1c-.2.3-.3.4-.2 2v1.5l-.2.2c-.4.3-.3.4 0 .5h.4v2c0 2.2 0 2.6.4 2.6l.5-.4 1-.5c.5-.3.6-.5.3-.8h-.7l-.7.1v-1.6q0-1.6.7-1.6c.6 0 .8-.2.7-.6-.1-.2-.2-.3-.5-.3 0 0-.3 0-.4.2h-.3q-.2 0-.3-.7V29h1.8l.2.4.5.5.5.7.2.4.5 1c.2.3.2.6.1 1.5 0 1.4-.4 2-.7 1.2-.3-.3-.6-.5-.8-.4v.6c0 .6.4 1 1 1.2.3 0 .6-.2 1-.9.2-.5.2-.6.2-1.8 0-1.9-.3-2.5-1.4-3.8-.3-.4-.5-.6-.5-.9 0-.4.4-.6.7-.5.6.2 1-.1.4-.6-.3-.3-.8-.3-1.2 0Zm10 0-.1.5-.1.2c-.2.2-.7 1.5-.8 2.4 0 .6-.2 1.1-.4 1.7 0 .3-.2.5-.3.3v-1.6c-.2-1.3-.5-2.7-.8-3.2 0-.3-.4-.3-.5 0 0 .2 0 .9.4 1.8l.2 1.9c0 .7.2 1.5.3 1.7V36h.3c.5.2.7-.1.7-.8l.4-1.7.3-1.6c0-.7.9-3.5 1.2-3.8.1-.3 0-.7-.3-.7-.2 0-.3 0-.4.3Zm8.5-19.2ZM39.2 8c-.2.2-.2.7 0 1 .1 0 .2.1 0 .6v.5c.1.2.3.1.3-.1s0-.4.2-.4c.3-.2.3-1 0-1l-.3-.3c0-.4 0-.4-.2-.3Zm3.8.1v2c.3.3.4.1.3-.8 0-1.1-.2-1.4-.3-1.2Zm5.6.6-.6.8c0 .2-.1.3-.2.3 0 .3 0 .2.5-.2l.5-.5.6-1s-.3 0-.7.6h-.1Zm.6.4-.7 1 .4-.1.7-.8c.6-.6.8-1 .6-1l-1 1Zm-8.6-.6-.2.7-.2.8c-.2 0-.2.3 0 .6v.6c.1 0 .3-.1.3-.4v-.5c.2-.2.2-2 0-1.8h.1Zm-2.3.2V9q0 .2.1 0v-.3Zm9.5.1-.2.2c-.1 0-.2.3-.1.4l.3-.4v-.3.2Zm-1 .2c0 .3 0 .5.2.3v-.3q0-.2-.2 0Zm-9.2.2.2.3.1.3v.2c.3.2.3 0 0-.5-.1-.5-.3-.6-.3-.4v.1Zm4.8 0v.9c.3 0 .3-.3.2-.8q0-.3-.2 0Zm1.6.1v.9c.2.1.3-.5.2-.9q-.1-.2-.2 0Zm.7.1Zm.6 0v.5q0 .2.1 0c.2-.2.2-.8 0-.8l-.1.4Zm.8-.2.1.3.1-.2c0-.2 0-.3-.2 0Zm-7.6.5c0 .2.1.3.2.3v-.7c-.2 0-.2.1-.2.4Zm8.6 0 .1.3.2-.2c0-.3-.2-.3-.3 0v-.1Zm2.4.2-.3.2-.3.2c-.2.1-.3.2-.2.3h.3l.2-.3h.1l.1-.2.4-.3q.2-.2 0-.2l-.4.2h.1Zm-12.2 0c0 .2 0 .3.2.3v.2l.3.2v.2l.2.3.2.4s.1.2.2 0c.1 0 .1-.1 0-.2a.5.5 0 0 1-.2-.4v-.2s-.3 0-.3-.3-.1-.2-.2-.2l-.1-.2c0-.3-.3-.3-.3 0V10Zm-.4.6.3.3v.3s0 .2.3.2.2 0-.1-.5c-.2-.4-.4-.5-.4-.3h-.1Zm2.7.3.1.4c.1 0 .2-.3.1-.6 0-.3-.2-.2-.2.2Zm9.5 0s0 .2.1.1v-.3l-.1.1v.1Zm-12.4.3s0 .4.2.4 0-.4 0-.5h-.2Zm12.4.4h.1c.3 0 .3-.2 0-.2l-.1.2Zm-11.5 0v.2h.3l-.1-.3h-.2Zm-1.3.3.1.2.2-.2H36.3Zm12.4 0c0 .2.2.2.2 0l-.1-.2c-.1 0-.1.1 0 .2h-.1Zm-15.1 1.8c0 .2.2.2.3 0s0 0-.2 0h-.1Zm.5.3-.4.2c-.4 0-.4.2 0 .2h.4l.3-.2c.4 0 .4-.2 0-.3h-.3Zm.7.3-.4.1-.2.2-.5.1c-.5 0-.5.2 0 .3h.5c0-.2.2-.3.3-.3h.2l.3-.3h.3q0-.2-.2-.2l-.3.1Zm-.4.9h.6l-.3-.1h-.2Zm-1.9 1.5q-.2 0 0 0h1.2-1.2Zm1.6.3c0 .1.1.2.5.2.5 0 .3-.2 0-.2H34Zm-1 .3h-.4l.5.2 1 .2h.1l-.5-.3H33Zm2.2.2c.3.2.5.3.5.1 0 0-.3-.3-.5-.3H35l.3.2h.1Zm-.5.5h.4c0-.1 0-.2-.2-.2l-.2.2Zm-.8.3h.4c0-.2-.1-.2-.4 0Zm1.6 0 .2.2h.2c-.1-.2-.5-.3-.4 0v-.1Zm8.4-4v.1s.3 0 .3-.1H44Zm-2.8.2c-.1.1 0 .2 0 .2h.1c0-.2 0-.3-.1-.2Zm1.2.1q0 .4-.4.5h-.3c0-.3 0-.3-.3 0q-.3.2-.1.3c.1 0 .1.3-.1.3h-.4c0-.2-.7-.2-.7-.1l1 .4.2.1c0 .1 0 .2-.3.2h-.6s-.2.2-.5.1c-.5 0-.6.2-.1.3q.2 0 0 .2v.3l.3-.1c0-.3.4-.3.4 0s.3.2.6-.1c.4-.3.7-.4 1-.3.2.2.7.3 1 0h.2c.2 0 .3-.5 0-.6h-.2c-.4-.2 0-.8.5-.8h.3l-.1-.2h-.2c0-.3-.2-.3-.4 0-.3.4-.8.4-.8 0l.1-.2.1-.2v-.2s-.2 0-.2.2Zm1.3 0c-.1.1 0 .2.1 0q.1 0 0 0h-.1Zm.5.3q-.2 0 0 0h.3c0-.2-.1-.2-.3 0Z"/>
</svg>
