<svg xmlns="http://www.w3.org/2000/svg" viewBox="0 0 270.4 86"><path d="M76 0C66 2 59 9 58 19c-2 8-1 29 1 33 2 5 6 9 11 11 4 2 6 2 12 2 13 0 21-5 23-15l1-5-7-1h-8l-1 4c-2 5-9 7-14 4-2-2-3-3-3-9v-7h33v-9l-1-13C102 4 90-2 76 0Zm17 5c4 2 9 6 9 9l1 1v10l-1 9H88l-16 1c-1 0-2 1-2 7s1 6 3 9 6 5 9 5 8-3 10-6c1-2 2-3 6-3 5 0 5 0 5 2 0 13-27 19-38 8-3-3-5-7-4-8v-1l-1-17 2-20c4-4 6-6 14-9 3-1 12 0 17 3Z"/><path d="M76 11c-5 3-8 12-4 15l9 1c11 0 12-1 12-7 0-3-1-4-3-7-2-2-3-3-7-3l-7 1Zm11 2c2 1 4 5 4 9v2H73v-4c0-3 0-4 3-6 2-2 7-3 11-1ZM0 2l23 1 22 1v5l-1 6a241 241 0 0 0-14 24l-1 1-1 2-1 2-3 5-2 4c1 0 0 0 0 0l-2 3-1 1h-1c1 1 0 2-1 4l-3 6c-4 6-3 6 16 6h15v4l-1 5-22 1-22 1 24 1h24V71H31l-17-1 17-29 17-27V1H24L0 2ZM119 43v42h18c17-1 19-1 23-3 9-4 12-9 13-20 0-9-1-13-8-18l-4-4 4-4c5-4 7-9 6-16-1-9-8-16-18-18l-20-1h-14v42Zm30-39c3 0 7 1 10 3 6 2 10 7 10 14s-2 10-6 15l-5 3 2 3 3 2 6 7c2 4 2 16-1 21-1 3-5 7-7 7l-2 1c0 2-10 3-24 3h-13l-1-40V4l11-1a111 111 0 0 1 17 1Z"/><path d="M135 13c-2 1-2 2-2 11s1 10 2 11c2 2 5 2 12 1 3-1 8-5 9-8 2-5-1-12-7-15-4-2-11-2-14 0Zm14 3c4 1 5 4 5 9 0 3 0 4-2 6-3 2-8 4-13 4h-3V14h5l8 2ZM135 47c-2 2-2 24 0 26h13l3-1 3-2c3-2 5-8 4-12-1-8-6-12-16-12-5-1-6-1-7 1Zm15 2c4 2 6 5 6 11 0 7-5 11-14 11h-6V48h5l9 1ZM183 32c0 34 0 38 5 44 5 7 15 11 27 10 9-1 15-3 19-7 6-7 6-6 7-44V1h-17v65l-4 3c-2 2-3 2-8 2l-7-1c-5-3-5-4-5-38V1h-17v31Zm14-27a816 816 0 0 1 2 62c5 10 24 9 27-2v-3l1-1V4h11v48c1 13 0 18-4 23-5 7-17 10-29 8l-7-1c-2 0-9-7-10-11-2-4-2-6-2-36V4h5l6 1ZM0 14l14 1h14L17 35 0 64c0 1 4-3 5-6l4-7a506 506 0 0 0 21-35l-1-2H0ZM255 42v8h8l7-1-6-1h-6V36h6l6-1-7-1-8-1v9ZM255 77v8h8l7-1-6-1h-6V71h6c6 1 6 1 6-1s0-2-7-2h-8v9Z"/></svg>