<svg xmlns="http://www.w3.org/2000/svg" viewBox="0 0 199.9 86"><path d="m154 2-6 9-2 3-4-2c-8-4-12-5-13-1-1 2 0 8 3 13 2 3 2 5 1 5-2 0-9 5-10 7-2 3-2 6 0 8 3 3 8 4 16 2h2l1 6c0 7 2 12 5 14v1l-2-1h-4l-4-4c-4 0-10 4-12 9h-1c0-2-1-5-3-6s-6 0-8 1h-2c-2-1-3-2-4-1s-2 1-3-1-3-2-6-1l-3 2-2 2-5 4-1 1c0 1 0 0 0 0l-2-5c-1-2-2-1-4-1l-4-1c-1-3-3-3-7-1l-5 2h-3c0 1-1 1-1-1 0-1-2-4-4-4-4 0-10 5-12 8 0 2-1 2-1 1l-1-1-1-2c-2-2-5-2-8-1l-3 1c-2-2-3-1-5 1h-2c-1-1-1-2 1-6l3-10 3-6-2-1c-2-2-5-1-8 2l-4 5-5 6-3 5H5c-4 0-5 0-5 3 0 2 0 3 2 3l2 1-2 3-2 7c0 3 0 3 1 1l3-8 3-6H4l-3-1 4-1h4l5-7 8-10c3-3 3-3 5-2l2 1-2 4-6 16 2 2c1 1 1 1-1 1l-2 1 1 7c1 1 5-3 5-7l2-3c3-1 4 0 3 2-1 3-1 3 2 0s5-4 7-2c2 1 2 3 1 7v3c1 1 4-2 5-5 1-4 3-6 6-8 4-3 8-2 8 2 0 3-6 8-9 8-2 0-2 0-2 2 1 2 3 3 5 2 3-1 7-5 8-8 0-3 1-3 2-4 2 0 2 0 2 2-1 2-1 2 3-1 4-4 5-5 7-3v7l1-2c2-2 5-3 6-2 2 1 2 3 1 6-1 6 2 6 4 0 2-4 4-5 6-5l2-2c1-2 4-3 6-3l1 4-1 4c-2 3-2 3 0 3s4-2 4-5 0-3 2-3q2-1 2 3l-1 3 2-2c2-3 5-4 8-4s4 3 2 8l-1 3c1 1 4-1 6-6 1-3 3-5 5-6 6-4 11-1 7 4-2 2-6 5-8 5s-2 0-2 2c1 2 3 3 6 2s7-6 7-8c0-3 2-4 3-3l1 2-1 3 2-2c4-5 8-5 10-2v5c-2 4-1 7 2 8l8 1c8 0 13-2 18-4 9-5 12-11 10-22-2-10-8-16-20-20-5-1-5-1-3 1 3 2 8 9 8 11 0 5-5 5-13 1l-6-3-2 3-8 14-4-1c-2-1-3-6-3-14v-6l-2 1h-16c-5-3-2-8 8-14l4-2c-1-1-5-7-6-11l-1-5c1-2 1-2 3-2l13 6 2 2v-3c2-5 8-13 11-14 1-1 1-1-1-1l-4 2Zm25 39 1 1c2 0 7 4 9 7l3 7c1 5 0 12-1 15-3 4-12 9-20 10h-12c-3-2-3-3-2-7l1-5c-1-2-4-4-6-4v-1l5-7c3-6 4-7 5-6 8 4 14 5 17 2 3-2 2-6-1-10-2-3-2-3 0-3l1 1ZM24 74l-2 2v-2l1-3c2 0 2 0 1 3Zm33 1c-2 2-6 3-5 2l1-1 2-1 2-1 1-1-1 2Zm81-1c-1 2-6 4-7 3l1-1 3-1c1 0 0 0 0 0l4-2-1 1Z"/><path d="M162 1c3 1 4 5 4 10l-1 7v2l4-1h15c7 3 0 11-12 15-1 1-1 1 1 1 6 1 13 5 18 10 5 6 8 10 8 16l1 3v-4c0-5 0-6-2-9-4-6-10-11-16-14l-5-3 3-2c8-4 10-10 6-14l-4-2-13 1-1-6c0-7-2-11-5-11-2 0-2 0-1 1ZM149 29c-3 4-1 10 4 10s6-8 2-10h-6Zm5 2c2 1 2 3 1 5h-5v-6l4 1ZM19 54l-7 12h2c2 1 3 0 3-2l4-9 2-6-4 5ZM199 66c0 8-8 14-21 17-7 2-17 3-21 2l-4-2c-2-2-2-2-1-6l-1-7c-2 0-6 4-8 8l-2 4-2-1v-2c1-2 0-2-1-1-2 2-6 3-8 3l-3-2h-4l-3 1c-3 0-4-2-3-5s1-5-1-5-5 3-7 7c-2 3-4 4-5 2l1-2c0-2 0-2-1-1l-3 1-3 1c-3 3-8 4-9 1l-1-1-1 1c-1 2-5 2-6 1v-7c2-6-4-1-8 7-2 3-3 4-4 3l2-6c2-6 2-9 1-9l-8 9-2 3h-1l-1-2-2 1c-5 3-11 3-12-1l-2 1c-4 4-8 2-7-3v-6c-2 0-5 3-8 7-2 3-3 4-4 2l-2 1c-2 1-5 1-6-1-2-1-2-2-2-6 1-4 1-4-1-5-3-1-4 0-6 5-6 12-6 13-5 13l5-8 4-8s2 1 1 3l1 5c2 3 6 5 8 4l4-1c2 0 2 0 5-4 4-6 5-6 5-1v5c3 2 5 2 7 1 2-2 2-2 4 0h9l4-1c2 2 3 1 5-3l4-5 2-2-1 2-2 6-2 3 2 2c3 2 4 1 6-3l3-5 1-2v3c0 3 2 5 6 5h8c2 0 4 0 5-2 4-2 4-2 6 0 3 2 4 2 6-1l7-7-1 2c-1 3 0 4 1 6 2 2 4 2 7 1h3c2 2 6 2 9 1h3c2 2 4 1 7-3 4-7 6-9 5-5v5c0 3 0 3 2 5l2 2h11l13-1c5-1 13-5 17-8s5-5 5-10c0-2 0-2-1-1Z"/><path d="M55 66c-2 1-6 7-5 7 2 1 8-4 7-6 0-2 0-2-2-1ZM135 66l-6 7c2 1 8-4 8-6-1-2-1-2-2-1ZM99 67v7l2-6c0-2-1-3-2-1ZM94 70l-2 8c1 1 2 1 4-1 2-1 2-1 1-2l-1-4c-1-2-1-2-2-1ZM0 85l1 1v-1H0Z"/></svg>