<svg xmlns="http://www.w3.org/2000/svg" viewBox="0 0 197.5 86">
  <path d="m169 12-7 14-2 1h8l-1-4 1-3h10l1 3v3c-1 1-1 1 4 1s5 0 3-1l-6-13-6-13-5 12Zm10 3 4 10c-1 1-2 0-3-3l-2-3v-2s-2-8-4-9l-1-3h1l5 10Zm-5-6 1 5 2 3h-4l-3-1 1-4c2-4 3-5 3-3ZM45 1c-4 1-7 4-9 7-3 8 0 15 12 23 9 7 13 12 12 18-1 5-5 8-11 8-10-1-13-14-5-23 3-3 2-3-3 1-6 5-9 11-6 16 4 8 16 11 24 6 4-3 6-6 6-11 1-7-2-10-12-18-9-7-11-10-12-15 0-6 3-10 9-10s10 4 10 11c0 4-2 8-5 10-3 4-1 3 3 0 8-6 9-14 2-20-4-4-10-5-15-3Zm-5 8c-1 2-1 7 1 10 2 4 4 6 12 11 8 7 10 10 10 15l-1 5-1-2c0-7-2-11-12-18-7-5-11-10-12-13s0-7 2-9c1-2 2-2 1 1Zm22 4c0 6 0 5-1-1l1-4v5ZM39 52v2l-3-7c0-5 1-5 1-1l2 6ZM73 1l1 1 1 12-1 13h3c5 0 5 0 4-1l-2-5 1-4 4 3c3 6 5 7 10 8l4-1h-1c-2 0-6-5-9-10l-2-3 2-1 2-4c1-3-1-6-3-7L73 1Zm5 15-1 9V5l1 11Zm6-12c1 2 2 5 1 8-1 2-2 3-4 3s-2-1-2-6V3h2l3 1Zm4 3-1 3V4l1 3Zm0 14c3 4 3 6 0 2l-4-7 4 5ZM102 1v1c2 0 2 21 1 24l-1 1 5 1c13 1 20-4 20-14 0-7-3-11-9-13h-16Zm15 3c6 3 7 13 2 18-1 2-2 3-5 3-6 1-6 0-6-12 0-9 0-10 2-10 1-1 5 0 7 1Zm-11 9 1 11-1 1-1-11 1-11v10Zm19 1c0 7-1 7-2 0V7c-1-1-1-1 0 0 2 2 2 3 2 7ZM137 1l1 1v24l-1 1h15l1-2c0-3 0-3-1-2s-2 2-5 1h-3l-1-5v-5l3 1h4v-4l-3 1h-4V3h7c1 1 1 1 1-1s0-1-7-1h-7Zm4 13v11V3v11ZM2 3l2 1v10L3 26q-2 1 2 1h4l-1-1-2-10V7l5 5a437 437 0 0 1 14 16l1-12 1-14 1-1h-4c-3 0-4 0-2 1l1 9v8l-8-9-8-9H0l2 2Zm12 8 9 9v2l-5-5a279 279 0 0 0-4-6ZM11 33h1c2 1 2 23 0 25-1 1-1 1 4 1h5l-2-1-1-7v-5h3l4 1c1 1 1 0 1-2l-1-2-4 1h-3v-9h7c1 1 2 1 2-1v-1l-8-1-8 1Zm5 13v11l-1-11 1-11v11ZM71 32l2 2 3 2-1 10-1 12c-2 1-1 1 2 1s4 0 3-1l-1-10-1-9 5 5 9 10 6 6V47l1-13 2-2h-8l1 2 1 9v7l-3-3C79 33 79 33 75 32h-4Zm13 10a187 187 0 0 0 10 11 238 238 0 0 0-14-14l-3-4 7 7ZM110 32v1l1 12-1 13c-1 1 0 1 5 1 10 1 16-2 18-8 3-6 1-13-4-17-3-2-4-2-11-2h-8Zm15 4c3 2 4 4 4 9 1 8-2 12-9 12l-4-1V45l1-11 8 2Zm-11 8v13l-1-11V35l1 9Zm18-4 1 6-1 5c-1 1-1-1-1-4l-1-7c-1-3 0-3 2 0ZM144 33h1l1 13-1 12c-1 1 1 1 7 1h8v-2l1-2h-1l-5 1c-4 0-5-1-4-6v-4h3l4 1v-4l-4 1h-3v-8c0-2 4-2 6-1h2v-2l-7-1-8 1Zm5 7ZM170 32l2 2 2 1v11l-2 12c-1 1-1 1 3 1h4l-1-1-2-11v-8l2 2 10 11 7 8V47l1-12 1-1c1-1 1-1-3-2l-3 1c2 0 3 5 2 11v6l-8-9-8-8-3-1h-4Zm15 12 8 10-6-7-9-9-3-3 10 9ZM41 70v2h1v-2h-1ZM132 71c1 1 1 3-1 3l-3 1c-1 1-2 5 0 6h5l1 1 1-1-1-6v-5h-2v1Zm0 7-1 3c-3 0-4-4-2-6s3-1 3 3ZM151 70v1l1 5-1 5 2 1 2-1-1-6c0-5 0-5-2-5h-1ZM157 70l2 2v-1c0-1-1-2-2-1ZM28 71v1l3 5 2 5 3-5 3-5v-1l-2-1c-2 0-3 1-1 2l-1 4-1 5-2-5-1-4c2-1 1-2-1-2l-2 1ZM60 72l-2 1v2l1 3c0 3 2 5 4 4 1-1 1-1-1-1l-1-3 1-3 1-1h-1l-1-2-1-1v1ZM76 72l-1 1v5c0 4 1 5 4 4v-1q-2 0-2-4c0-2 0-2 2-2s1 0 2 3c0 3 1 5 3 4s1-1 0-1l-1-3 1-3 2-1h-2l-1-2-1-1-1 1c0 1 0 2-2 2l-2-1v-2h-1ZM71 73l-3 1c-2 0-4 2-4 5l1 3 1 1c1 0 0 0 0 0l2-1 3-1c2-2 2-5 1-6v-2c0-2 0-2-1 0Zm-2 2-1 3-2 3v-3l1-3h2Zm2 4-2 2q-2 0 0-3c1-2 2-2 2-1v2ZM113 73l-2 1c-3 0-3 1-3 4l-1 4c-1 2 0 3 2 4 3 1 6-1 6-3s-1-2-3-2l-3-1 1-1 3-1 1-3v-1l1-1-1-1-1 1Zm-1 2v2h-3l2-3 1 1Zm1 8c0 2-3 2-4 1v-1c0-2 4-1 4 0ZM99 73c-1 1-1 2 1 2l1-1-2-1ZM39 74l1 1 1 3-1 3h-1l2 1 3-1h-1l-1-4-1-3h-2ZM51 75c-1 1 0 3 2 3l2 2h-3c-1-1-2 0-2 1h5c2-1 1-3-1-4-3-1-3-2-1-3l2 1c1 2 2 1 1 0-1-2-5-2-5 0ZM87 75v6c2 1 5 2 6 0h-2c-2 0-3-1-3-2l2-1 3-1c1-3-4-5-6-2Zm4 0c1 1 1 2-1 2l-2-1 2-2 1 1Z"/>
  <path d="m95 74 1 1v6h-1l2 1 3-1h-1l-1-3v-4h-3ZM117 75c-3 5 3 10 6 6 2-2 2-4 1-6-2-2-5-2-7 0Zm6 3c0 2-1 3-2 3s-2-1-3-3c0-3 2-4 4-3l1 3ZM138 75v6h6-2l-3-2 2-1h3v-2c0-2-1-2-3-2l-3 1Zm4 0c1 1 1 2-1 2l-2-1 2-2 1 1ZM157 74v7h-1l2 1 2-1-1-4c0-3 0-3-2-3-1 0-1 0 0 0ZM161 74l1 1 2 4 2 3 2-3 2-4c1-1 0-1-1-1h-2c1 1-1 6-1 6-1-2-2-5-1-6h-4Z"/>
</svg>
