<svg id="Lag_1" xmlns="http://www.w3.org/2000/svg" viewBox="0 0 55 50">
  <defs>
    <style>
      .cls-1{fill:#efefef}.cls-2{fill:#ff6445}
    </style>
  </defs>
  <path class="cls-2" d="M28.6 18.4c0 .5.2 1.2.6 2 .3.5.6 1 1.4 1.4.9.6 1.5 0 2.4.2 1.8.3 1.8 1.9 3.9 2.8 1.7.8 3.3.6 4.1.4 1.7-.3 2.7-1 4.1-1.8 1.4-.7 1-1 3-2.1 1.6-1.1 2.6-2.3 3.2-3.1 2.9-4 2.9-8.8 3-11.4V6c-.9.5-2.2 1.5-3 3l-.4.9c-.3.9 0 1.6-.6 2.8l-.7 1.2c-.6.9-1.3 1.5-2 1.8L46.3 17l-2.4 1.4c-.8.9-1.7 1.3-2.2 1.4-.4 0-1 .3-2 .8h-.4c-.7.3-1.4 0-2.4-.3-1.2-.4-1.3-.7-2-1h-2.4l-1.6-.3"/>
  <path class="cls-2" d="M26.8 14.5c.1-1 1-1 2-2.5 1.3-1.7 1-2.2 1.9-4 .4-.7.6-.7 3.9-4 2.6-2.4 3-2.8 3.8-3.2 2.1-.7 4.5-.6 6.4.5l1.8.9c.2 0 .8.4 1.7.6 1.7.4 2 0 3.9.4.9.2 1.4.4 1.7.7.6.7.3 1.9.2 2-.4 1.2-1.6 2-2.5 2l-.6-.1-1.8-.2c-1.2-.1-1.4.4-2.5.6-1.4-.1-2.8-.4-4.2-.8-1.3-.4-1.4-.5-1.8-.5-1.4 0-2.3.9-2.8 1.2-.9.7-.7 1-2 2.6l-1.9 2c-1 .8-1.6.8-2 1.6-.5.8-.5 1.6-.5 1.9 0 1 .7 1.9.9 2l1 1c-.1.3-1.3.4-2.3 0-2.5-.6-4.6-2.8-4.3-4.7Z"/>
  <path d="M31 48.1c-1-.7-2.4-.8-2.9-.2-.3.4.2 1.2.7 1.6.7.6 1.9.6 3 .1 0-.3-.2-1-.8-1.5Zm-1.3-2.7h.2v-.7l-.2.6v.1ZM28 47.2h-.7l.8.4v-.2l-.2-.2Zm1.7-7.5c-.1.1 0 .4.2.5.2.5 0 1-.6 2a1 1 0 0 0-.3.6c.4 1.3.7 2 1 2l.3-.6.4-.7c.3-.5.3-.6.3-1.3 0-1.3-.2-1.9-.7-2.2-.2-.3-.5-.4-.6-.3Zm5.3.3c-.2-.2-1.2.5-3 2.1l-.1 1.2v1.1l-.1.2v.1c.5-.2 1-.5 1.6-1l.9-1.3.2-.7.5-1.4V40Z" style="fill:#2f6457"/>
  <path class="cls-1" d="m11.6 39.5-.1-.3m-.7 2.8H10L9 41.4l-.4-.3a9.3 9.3 0 0 1-3-2.4c-.8-1-1.3-2.3-1.5-3.6v-1.4l-.3-.6-.2.7v.7c-.5.2-2-1.8-2-1.7l.3.7L3.5 35 2 34.9l-1-.2v.4l1.1.2 1.6.5c.3.2.6.5.5.8 0 .3-.3.5-.3.6l-2-.2v.5h1.1l1.3.4L6 39.6l-1.5-.1-1.5-.1.2.4L5 40l3.4 1.2c2.5 1.3 3 2 2.9 2.2l-.2.2c-.3.1-.6-.4-1.3-1l-.7-.6-.6-.2v.1l.9.5-.1.4c-.2.1-.5-.2-1-.7l.2.5.2.4c0 .1.2.2.6.2l.6.1.3.4-3.8-.2.6.5 3.6.2h1.7l2.3 1c1.3.6 3.2 1.3 5.4 1.6 1.7.3 3.3.4 4.5.3h3c4.3-.3 8.5-2 8.9-2.2 7.2-3.3 12.8-10.3 12.9-14.8 0-2.8-.4-4.2-.4-4.2-.6-1.8-1.4-2.5-1-3.4.3-.7.8-.6 2.6-2.3a4 4 0 0 0 1.5-3.2 50 50 0 0 1-4.9 4.8s-2 1.7-3.9 2.5h-.3c-.9.4-1.7.8-2.8.7-.9-.1-2-.5-2.3-.6l-.7-.3-1.3-.8c-.3-.2-.4-.4-.4-.5 0-.1.6 0 1.7.4 1 .5 2 .8 3 .8l1.4-.2 1.1-.5c.2 0 1.2-1 1.7-1.6a7.5 7.5 0 0 1 3.2-2.8l2.2-1 .8-.4.9-.7.8-1 .5-.5-.1-1h-.1l-1 1.7-.8.7c-1.3 1-2.3 1.2-3.3 1.7-.8.3-1.8.9-2.8 2-.4.7-1.7 2.8-3.7 3-.9 0-1.8-.1-2.6-.4-1.4-.4-1.5-.7-3-1.1l-2.3-.4-1.7-.3c-1.4-.5-2.3-2.1-2-2.4 0-.1.2-.1 1 .3l1.4.3c1.4.2 1.5 0 2.5.2l2.8 1 .5.2c1.2.2 2.2-.3 4-1.4l2.3-1.5 4.1-2.3 1-.6c1-.8 1.8-2 2-3.3l.3-1.4c.3-1 .5-1.7 1-2.3l.8-.6.5-.2.9-1 .7-1-.3-1c-.6-.9-1.5-1.5-2.6-1.6h-1.5c-1-.1-1.3-.5-2.6-.7l-1-.1c-1-.2-1.3-.6-2.5-1.1-.9-.4-1.7-.5-2.1-.6-.6-.2-1.3-.2-1.8-.2l-1.7.4-1.7.9-1.8 1.2c-1.7.8-3 2-4 3.6L30 8.8c-.5 1.2-.6 1.8-1.2 2.5s-.8.6-1.4 1.3c-.4.5-1.2 1.4-1.1 2.4 0 .5.2.5.8 1.7l1.3 2.9c1 2 1.1 2 1.3 2.3.6.4 1.3.5 2.5.7l1.5.3c.7.3 1.1.7 1.3 1l2.7 1.6c2.2.6 4.6.3 6.6-.8l.8-.7 1-.7c.2-.3.5-.5.5-.2l.6 1.3.7 2.2s.4 1.9.2 3.9c-.3 2.8-4.2 10.2-12.7 13.7-5.6 2.4-10.6 2-13.1 1.7-5.4-.6-9.8-2.6-10.2-4.2-.3-1.2.2-2.4.2-2.4.2-.5.5-.7.6-.8.3-.2.6-.2 1.4-.3l1.4-.1-.3-.3c0-.2.2-.3.5-.5l.1-.7-.8.6s-1 .9-1.5.7c0-.1-.2-.2-.3-1.4v-2c.2-.5.4-.6.6-1.3l.1-1s-.3 1.5-1 1.6l-.5-.1c.1.5.3 1.2.3 2l-.2 2-.9 1.2-.4.9c-.3 1.5-.3 2-.7 2.2Zm34.6-26.6H45q-.2 0 0 .2c.4.2.4.4 0 .5-.2 0-.3.2-.3.3 0 .2-.6.7-.8.7h-.3l-.4.3-.6.5-.5.5h-.3c-.1.3-.8.4-1.7.3-.4 0-.5 0-1-.5-.3-.4-.4-.6-.3-.7V16.3c0-.3.6-1 1-1 .2.2.2 0 0-.1-.3-.2 0-.5.2-.4.1 0 .2 0 .3-.2s.2-.3.4-.2c.1 0 .2 0 .3-.3.2-.5.7-.3.8.3v-.1c0-.4.1-.5.3-.6h.8c0-.2.7-.2.8 0h.2c.2-.3.5-.1.5 0s0 .4.2.3c.3 0 .5 0 .5.5l.1.3c.2-.1.2.4 0 .6Zm2.2 0-1 .2c-.4.2-.7.3-.8.2v-.5c.3-.4.3-.5 0-1 0-.1-.2-.5-.5-.6-.3-.4-.5-.5-1.3-.6-.7-.2-.8-.2-1.2 0h-.6a5 5 0 0 0-2 .9c-.7.5-1 .7-1.5 1.3-.3.4-.4 1-.3 1.9v.7l.5.5q.5.5 1.2.6h.7l-.4.5c-.6.6-1 .7-1.8.4-1-.5-1-.7-1.2-1.6l-.2-.6-.6-1c-.7-.8-.6-1.4.2-2.8l.6-.6c.7-.5 1.6-.7 3-.7 1 0 1.4-.2 2.1-.6 2-.8 3.5-1 4.3-.5.4.2.6.4.9.8.2.3.2.5.2 1 .2 1-.1 1.9-.3 2Zm3.6-6.7-.5.5c-.3.3-.4.4-.1.4.2 0 .2.3-.2.6q-.3.3 0 .4v.2c0 .2-.2.6-.5.6.4 0 .5 0 .5.3 0 0 0 .2-.2.3s-.2 0-.1.3v.3c-.2 0-.2.2-.1.2.2 0 0 .5-.1.5s-.2 0-.1.3q0 .2-.2.3l-.3.3c0 .2-1 1-1 1v-.4l.2-.6v-1.8l-.3-.8c-.2-.5-.7-.8-1-.8l-.4-.1c-.4-.3-1.8-.3-2 0h-.4l-.3.2c0 .2-.1.2-.3.2-.2-.2-.8 0-1 .3h-.2l-.4.2c-.7.4-1.9.6-2 .3H40q-.2.3-.5-.1l-.4-.6c0-.2-.2-.4-.3-.5l-.2-.3v-.1c-.2 0-.3 0-.3.3s0 .2.2.2l.1.2.2.4c.2 0 .3.3.3.5v.2q-.3-.2-.5 0c0 .4 0 .4-.3.2 0-.1-.2-.1-.2 0l-.6.4c-.6.3-.8.4-.9.7 0 0 0 .2-.4 0-.5 0-.6-.1-.3-.3.1 0 .1-.2 0-.2h-.2c0 .3 0 .3-.4 0H35l.6.6h.3c0 .2 0 .3.2.3s.2 0 0 .4l-.2.5v.6c0 .7-.4.8-1.3.7l-1.4-.2h-.9c-.3 0-.2.3.1.4l.4.2c.1 0 .3.2 1.5 0h1.3l.2.2.3.6c0 .3.1.5.7.9.1.2.2.4.1.6v.3l.2.4.1.4.2.2.2.2 1.2.6h.3c0-.2.4 0 .4.2 0 .3-.2.4-.4.2h-.6l-.7-.2-.5-.1-.4-.2-.3-.2c-.1 0-.3 0-.5-.2l-.6-.3-.2-.8-.3-.1s-.3 0-.4-.2h-.3c-.4.2-.5.2-.6 0 0-.3-.1-.3-.3-.4-.3 0-.4-.1-.4-.3l-.2-.2c-.1 0-.2 0-.2-.2l-.3-.4-.2-.4v-.4c-.2-.1-.2-.4 0-.5v-.4c-.2-.1-.2-.2 0-.3V15c0-.4.3-.5.6-.4.3.2.7.2.7 0h-.4c-.3 0-.4-.1-.3-.3 0-.2 0-.3.2-.3s.3-.1.3-.3 0-.3.2-.3.3 0 .4-.2l.3-.3c.2-.1.3-.1.6.2 0 .2.3.3.4.3l.3.2c0 .2.4.2.4 0l-.2-.1-.2-.2-.5-.3c-.5-.3-.5-.5-.1-.6.2 0 .3 0 .3-.3 0-.2 0-.3.2-.3s.7-.5.7-.7v-.2l.3-.2.6-1s.2 0 .2-.2v-.2h.2l.3-.3c.2 0 .3-.1.3-.3s0-.3.3-.3l.4-.3.7-.4.6-.3c.5-.3.7-.2.7.3V8l.2-.4v-.4c0-.2.6-.2.7 0v.6c0 .5 0 2.6.2 2.5.2-.1.2-.7 0-2 0-1 0-1.3.5-1h.3c.3-.1.4.2.4.9V9v-.7c0-.4 0-.5.3-.6 0 0 .3.2.4 0h.3l.5.3.3.4v.2c0-.4.3-.5.5-.3h.8l.6.3.5-.1c0-.2.2-.2.4 0s.2.4.2 0c.2-.2.5-.4.7-.1.2.2.3.2.4-.1 0-.3.5-.5.8-.3h1.3s.3 0 .4.2v.5Zm-23.5 6.6c0-.7.2-1.2 1.4-2.5 1-1 1-1.2 1.2-1.6l.3-1c.2-.1.3-.5.3-.6 0-.4.8-2 1-2.2.3-.1.4-.4.4-.5l.4-.3 1-.6.7-.6v-.1l.5-.5c.4-.4 1-1.1 1-1.4 0-.1.6-.7.8-.7l.5-.4.5-.3.5-.3.6-.4 1.1-.3c.4-.2.6-.2 1.8-.2 1 0 1.2 0 2 .4l1.7.8c1 .7 2.3 1.2 2.8 1.2h1l1.9.3c1.5 0 1.9.3 2.6.7.4.2.4.3.4.7 0 .7-.4 1.3-1.8 2.2l-.8.7-.5-.3c-.5-.4-2-.5-2.3-.3-.8.4-1.7.6-2.2.5-.8 0-1.7-.2-2.4-.5l-1.6-.5c-1-.5-3.2-.1-4.5.7-1 .7-1.7 1.5-2.4 2.6-.5.9-1.3 1.7-2.1 2.3-1 .6-1.6 1.4-2.1 2.3l-.2 1c0 1 0 1.2.3 1.6 0 .3.5.7.8.9.4.5.5.6.3.6h-1c-1.1 0-2-.4-3-1.8-.8-.7-1-1-1-1.6Z"/>
  <path class="cls-1" d="M17.4 26.9h-.6l-.4.3-.3.2-1.3.7-.1.5c0 .4.4.4.8 0 .6-.6.7-.5.7.7v1.6q.2.5-.2.9c-.3.2-.4.4-.3.5 0 .2 0 .3.4.2h.3v4.8h.3c0 .4.3.3.5 0s.3-.4.2-.7V35.7l-.1-1v-1.2l-.2-1.1c0-.5 0-.6.4-1s.6-.3.9-.3c.4 0 .9-.3.7-.5l-.2-.1-.2-.2c-.1-.2-.2-.2-.5 0l-.6.3c-.2.2-.4.3-.5.2l-.1-1.5v-1.4l.2-.1a3 3 0 0 1 1.9 0c.4 0 .7-.2.5-.7-.1-.3-1.4-.5-2.2-.2Zm6-12v1.5l.2 2 .2 2.5c0 1.2.2 1.7.5 1.8a8 8 0 0 0 2-.4c1.4-.8 1.6-2.6.6-4.7-.3-.7-.7-1.3-1.3-1.9-.5-.5-1.4-.9-1.8-.9 0 0-.3 0-.5.2Zm1.3.9c.6.5 1 1 1.3 1.9.4.8.5 1 .6 1.9 0 .8 0 1.3-.7 1.9-.2.4-.3.4-.6.4H25l-.2-1.4-.4-3-.2-1.2c-.2-.4 0-.7.1-.7l.5.2ZM17 15V23l.2.3c.5.3.5 0 .5-1.8v-1.8c.3 0 .8 1.4.9 2 .2.9.5 1.9.8 2 .6.3 1 0 .7-.4-.4-.4-.5-.7-.7-1.7-.1-1-.5-2-1.1-2.7q-.2-.3 0-.5c.4-.3 1-.8 1-1.1.5-.8.6-2 .2-2s-.5.2-.5.7l-.2 1c-.2.4-.8.9-1 .9v-1.4l-.1-1.4H17Zm3.3.3v6l.2.6.7.9.4.3.4-.5c.3-.3.4-.6.4-.7l.2-.3c.1-.1.3-2 .3-3.3v-1.7c.2-.3.2-.6.1-1 0-.4-.3-.6-.7-.5q-.2 0-.2 2.3l-.2 3.2v.9h-.3c-.4 0-.6-1.2-.6-4.1v-2.3c-.2-.1-.4-.1-.7.2Zm-15.6 0v.6l-.4 1.2c-.3 1-.5 1.9-.5 2.9s-.2 1.6-.3 1.2c-.3-.7-.5-1.8-.6-3.1-.2-1.8-.3-2.1-.9-2-.2 0-.3 0-.4.5.3 2.2.8 4.3 1.5 6.4l.1 1c.1.6.4.8.7.6.2 0 .2-.3.2-1.3l.1-2 .3-1.6c.1-1 .3-2 .7-3.1.3-1 .2-1.2-.2-1.2h-.3Zm9.6.3c-.7.6-1.1 1.9-1 2.6.2.3.5.7.9.9l1 1c.3.7.3.8.3 1.5s0 .8-.3 1.3c-.3.4-.4.6-.6.6-.3 0-.6-.4-.8-.7-.1-.5-.7-.3-.7.2 0 .4 0 .5.6.9.7.4 1.3.4 1.7 0 .6-.5.8-.6 1-1.2l-.1-1.7c-.2-1.1-.4-1.4-1.3-2.2-.4-.4-.8-1.3-.8-1.7 0-.3 1-1 1.3-1s.6-.2.6-.5c0-.2-.2-.3-.9-.3l-.9.3Zm-8.3.2c-.3.6-.4 1.3-.4 4.7V24h.5l.1-2 .2-3.7c.2-2.4.2-2.5 0-2.5 0-.1-.3-.1-.4 0Zm1.4.6c-.2.3-.2.4-.3 1.7C7.1 20 7 22 6.6 24c0 .7 0 .8 1 .4l1.3-.5c.5-.2.6-.3.6-.5l-.3-.4h-.7l-.7.4c-.2 0-.2-.1-.2-.5v-.7L8 21l.2-1.7.2-2v-1H8c-.2 0-.3 0-.5.2Z"/>
  <path class="cls-1" d="m10 16.6-.2.4v2l.2 4.6a4 4 0 0 0 1.7 0c.4 0 1-.8 1.3-1.8.4-.8.4-1.6.2-2.2-.3-.7-1.5-2.2-2-2.7-.5-.4-.7-.4-1.1-.3Zm1.4 1.6c.7.7 1 1.7 1 2.8l-.2.8-.2.5c0 .3-.2.5-.4.7q-.4.3-.7 0l-.1-2.5v-2.8c0-.3 0-.1.6.5Zm-9.7 5.7v.5c-.8-.6-1.1-.7-1.1-.6l.3.5.3 1 .6 2.9c-.2.2-.9-.4-1-.5v.5l.9 1.7H0l2.6.7.8.4c1.4 1.6 2.2 3 2.7 4l1.3 2.9 1 1.8c.6 1.2 1.4 1.8 2 1.6.1 0 .3-.1.4-.4-.9 0-1.6-.3-1.9-1-.3-.6 0-1.1 0-1.2.1-.5.3-1.4 1-2.2.3-.5.8-1.2 1.3-1.2.6 0 1.2 1 1.4 2.4.3-.3.5-.5.5-.7.2-.8-.3-1.7-1.5-2.4l-1.5.6c.1-.3.5-1.2.1-2.3l-.6-1c-.2.3-.2.7 0 1 .2.5.2 2 0 2l-.8 2.2-.3 1.6-.6-1c-.2-.4-.3-1.2-.3-2.2s0-2.5 1-4c.7-1.2 2-1.8 2.6-2.1.1-.2.1-.3 0-.4 0-.2-.6 0-1.5.4v-1.2c-.5-.5-.8-.8-.6-1.2.2-.5.8-.7.7-.8h-.7c-.4-.1-.5-.7-.6-.6l.1 1.4c-.5-.6-.7-.7-.8-.6-.2 0 1.4 1.8 1 3.5v.4c-.6 1.3-1 1.6-1.5 2.4-.5 1.2-.2 2-.5 2-.4.2-1-1.3-1.5-2.2l-.3-.6c-.7-2.1.2-4.1-.4-4.3L4 28c-.3.2-.4.2-.4.4l.2.4.4.5v2l-.7-.5-.6-.5c-.2-.2-.6-.7-.7-1.4 0-1 .4-1.7.5-1.8l1.1-.8.2-1.4-.4.6c-.2.2-.3.5-.5.5-.2-.1 0-1-.2-1 0 0 0 .6-.3 1.2 0 .2-.3.6-.5.6s-.4-.5-.4-1c0-.7.6-1.2.8-1.3l-.8-.6ZM37 26.6c-.1.2-.2 1.2 0 1.3l.1.8c.3 2.5.4 4.7.4 5.7v1.2h.3l.7-.1c.7-.3 1.2-.5 1.7-.5 1 0 1.3-.4.8-.7-.2-.2-1.2-.1-1.8 0l-.7.3h-.3v-2c.1-1.8 0-3.8-.4-5.7v-.6h-.4c0 .2-.4.3-.4.3Zm-11.3.5c-.6 0-.8.3-.6.6l.7.2h.4v7.8c0 .6.1.9.6.7.2-.2.3-1.7.4-5.3v-3.3H29v.7l-.6 5.5c0 2 0 2.3.4 2.3.3 0 .5-.7.4-1.3v-1.2c.3-2.1.4-4.3.3-6.4-.2-.1-.3-.2-.4 0l-.5-.1c-.2-.2-.4-.3-1.3-.3h-1.6Zm9.9.2-.1.2-.4.8-.4 1-.4 1.2c-.2 1.2-.5 2.3-1 3.4-.2 1-.2 1.3-.1 1.4.3.3.6 0 .7-.5l.4-1.3c0-.5.2-1 .3-1.1 0-.4.6-1 1-.8h.3V33c0 2 0 2.6.2 2.8l.4-.1c.2-.2.2-.4.2-1.4a40 40 0 0 0-.3-5c0-2-.1-2.2-.8-2Zm.2 2.6q0 1-.2 1.2H35c-.3.2-.3.3 0-1.1.6-1.7.8-1.8.8-.1Zm-12.5-2.3-.5.4c0 .2-.2.3-.5.2-.2 0-.6 0-1-.2l-.8-.1s-.3 0-.4.2c0 .3-.2.4 0 1.9v1.6l-.4.2c-.4.3-.3.5 0 .6h.4v2c0 2 0 2.5.5 2.5l.5-.4 1-.6c.5-.3.6-.5.3-.7H21v-1.5q0-1.7.7-1.7c.6 0 .8-.2.7-.6 0-.2-.2-.3-.5-.3 0 0-.3 0-.4.2h-.3q-.2 0-.3-.7V29h1.8l.2.4.5.6.5.7.1.3.5.9c.2.4.2.7.1 1.5 0 1.5-.4 2-.8 1.2-.3-.3-.6-.5-.8-.4v.6c0 .7.4 1 1 1.2.4 0 .7-.2 1-.8s.3-.7.3-2c0-1.8-.3-2.3-1.4-3.6-.4-.5-.6-.7-.6-1 0-.3.4-.6.8-.4.6.2 1-.2.4-.7-.3-.2-.8-.2-1.2 0Zm10.2 0-.2.6-.1.2c-.2.2-.7 1.5-.8 2.3l-.4 1.8c0 .3-.2.5-.3.3l-.1-1.6a11 11 0 0 0-.7-3.3c0-.2-.2-.3-.3-.3s-.3.1-.3.3c0 .2 0 .9.4 1.9l.3 1.9c0 .7.2 1.5.3 1.7V36h.3c.5.2.7-.1.7-.7l.4-1.8.3-1.6c0-.7.9-3.4 1.2-3.8.2-.3 0-.7-.3-.7-.2 0-.3 0-.4.3Zm5.8-19.5c-.2.2-.2.8 0 .9.1 0 .2.2 0 .7v.6c.1.2.3 0 .3-.2s0-.4.2-.4c.3-.2.3-1 0-1l-.3-.3c0-.4 0-.4-.2-.3Zm3.8 0v2c.3.5.4.3.3-.6 0-1.2-.2-1.5-.3-1.3Zm-2.4.5-.2.7-.2.8c-.2 0-.2.3 0 .6v.6c.1 0 .3-.1.3-.4v-.5c.2-.1.2-2 .1-1.8ZM48 9l-.2.2c-.1 0-.2.3-.1.4l.3-.4v-.4.2Zm-3.9.4v.8c.2.2.3-.5.2-.8q0-.2-.2 0Zm1.3 0v.6q0 .2.3 0c.2-.2.2-.7 0-.7l-.2.2Zm4.3.6-.4.2-.3.3c-.2 0-.3.2-.2.3l.3-.1.2-.2.2-.1v-.2l.5-.3q.2-.2 0-.2l-.3.3Zm-12.3 0c0 .2 0 .3.2.4l.1.2.2.2.1.2.2.3.2.4s.1.2.2 0c.1 0 .1-.1 0-.2l-.2-.4-.1-.2s-.2-.1-.2-.3-.2-.3-.3-.3l-.1-.2c0-.3-.3-.3-.3-.1Zm-2.5 4.4h-.4c-.2 0-.3.2-.3.3h-.5c-.5 0-.5.3 0 .4h.6c0-.2.2-.3.3-.3l.2-.1.3-.2h.3q0-.2-.2-.2h-.3Zm-.7 2.6c0 .2.2.3.6.3.5 0 .3-.3-.1-.3h-.5Zm-1 .3h-.4l.5.2 1 .2h.2l-.6-.3-.7-.1Zm9.3-2.7q0 .4-.4.5h-.3c0-.3 0-.3-.4 0q-.3.2 0 .3c.1 0 .1.3-.2.3h-.4c0-.2-.7-.2-.7-.1l1 .5h.3c0 .2 0 .3-.4.3h-.6s-.2.2-.5 0c-.5 0-.6.3 0 .4q.1 0 0 .2v.4l.2-.2c0-.3.4-.3.4 0s.3.3.7-.1c.4-.3.7-.4 1-.3.3.2.8.3 1 0h.3c.2 0 .3-.5 0-.6l-.2-.2c-.4-.1 0-.7.5-.7l.3-.1-.1-.1-.2-.1c0-.2-.2-.2-.4 0-.3.5-.8.5-.8 0V15l.2-.2v-.3l-.2.2Z"/>
</svg>
