<svg xmlns="http://www.w3.org/2000/svg" viewBox="0 0 20 20">
  <path d="m10.8 4-1 .1c-.4.1-1 .5-1.2.8-.3.5-.4.7-.4 2v1l-.7.1H7v2H8.2v6.1H11v-6h.9l1-.1V9l.2-1H11v-.7c0-1.1 0-1.2 1.3-1.2h.8V3.9h-.7l-1.6.1Zm2 .4v1.5h-.7c-.9 0-1 0-1.2.5l-.1.9c0 1 0 .9 1.1.9h1v.2l-.2 1.3-.8.1c-.8 0-.9 0-1 .2l-.1 3v3H8.4v-6h-.2l-.6-.1H7V8.2h.5c.8 0 .8 0 .8-1.4l.1-1.4c.3-.5.8-1 1.3-1.1l2-.1h1v.2Z"/>
  <path d="M5.4 2a4 4 0 0 0-3.3 3L2 10c0 5.2 0 4.9.5 5.9.3.6 1 1.4 1.6 1.7 1 .4.6.4 5.9.4h4.7l.4-.1c.7-.2 1.2-.5 1.7-1 .7-.8 1-1.5 1.1-2.5a158.4 158.4 0 0 0-.1-9.7c-.3-1-1.1-1.8-2-2.3-1-.4-.6-.4-5.6-.4H5.4Zm9.5.3c1.4.4 2.4 1.4 2.8 2.8l.1 5-.1 4.9a3.8 3.8 0 0 1-2.9 2.8H5.1A3.8 3.8 0 0 1 2.3 15c-.2-.6-.1-9.4 0-10 .3-1 1-2 2-2.4.8-.4.5-.4 5.6-.4l5 .1Z"/>
</svg>
