<svg xmlns="http://www.w3.org/2000/svg" viewBox="0 0 20 20">
  <path d="M5.4 2a4 4 0 0 0-3.3 3L2 10c0 5.2 0 4.9.5 5.9.3.6 1 1.4 1.6 1.7 1 .4.6.4 5.9.4h4.7l.4-.1c.7-.2 1.2-.5 1.7-1 .7-.8 1-1.5 1.1-2.5a158.4 158.4 0 0 0-.1-9.7c-.3-1-1.1-1.8-2-2.3-1-.4-.6-.4-5.6-.4H5.4Zm9.5.3c1.4.4 2.4 1.4 2.8 2.8l.1 5-.1 4.9a3.8 3.8 0 0 1-2.9 2.8H5.1A3.8 3.8 0 0 1 2.3 15c-.2-.6-.1-9.4 0-10 .3-1 1-2 2-2.4.8-.4.5-.4 5.6-.4l5 .1Z"/>
  <path d="M14.4 3.5c-.3.1-.6.5-.7.7l-.1.7.1.7c.5.8 1.6 1 2.2.3.7-.7.5-1.9-.3-2.3-.3-.1-.8-.2-1.2 0Zm1.2.3c.4.3.6.7.6 1.2s-.3.8-.7 1c-.4.2-.7.2-1.2 0-.4-.3-.6-.6-.6-1.1 0-.5.1-.7.5-1 .4-.3 1-.3 1.4 0Z"/>
  <path d="M14.7 4.4c-.2.1-.3.2-.3.5s.3.6.5.6.6-.3.6-.6l-.1-.3c-.1-.2-.4-.3-.5-.3h-.2Zm.6.2V5l-.3.4c-.4 0-.6-.6-.2-.7h.5ZM9 5.3a4.8 4.8 0 0 0-2.5 8 4.8 4.8 0 0 0 7.5-.6c.5-.7.8-1.8.8-2.7s-.3-2-.8-2.7a4.9 4.9 0 0 0-5-2Zm1.5.1c1.7.2 3.1 1.2 3.8 2.7.3.8.4 1.9.3 2.6-.1.7-.1.7-.4 1.3-.4 1-1.2 1.7-2.1 2.1-.8.4-1.2.5-2 .5-1.4 0-2.5-.4-3.4-1.4a4.3 4.3 0 0 1-1.3-3 4.6 4.6 0 0 1 4-4.8h1.1Z"/>
  <path d="M9.4 6a4 4 0 0 0-2.2 1.2C6.4 8 6 8.9 6 10c0 .7.1 1.1.4 1.7A4 4 0 0 0 9 14H11a4 4 0 0 0 3-3.9 4 4 0 0 0-4.5-4Zm1.7.4A3.8 3.8 0 1 1 6.7 12c-.4-.7-.5-1.2-.5-2l.1-1a3.8 3.8 0 0 1 4.8-2.6Z"/>
</svg>
