<svg xmlns="http://www.w3.org/2000/svg" viewBox="0 0 79 80"><path d="M75 6h-9V1l-1-1H53l-2 1v5H28V1l-2-1H14l-1 1v5H4c-2 0-4 2-4 4v66c0 2 2 4 4 4h71c2 0 4-2 4-4V10c0-2-2-4-4-4ZM54 7V3h9v9h-9V7ZM16 7V3h9v9h-9V7Zm60 69-1 1H4l-1-1V27h73v49Zm0-52H3V10l1-1h9v4l1 2h12l2-2V9h23v4l2 2h12l1-2V9h9l1 1v14Z"/><path d="M11 48h7l2-1v-8l-2-1h-7l-2 1v8l1 1ZM27 48h8l1-1v-8l-1-1h-8l-1 1v8l1 1ZM44 48h8l1-1v-8l-1-1h-8l-1 1v8l1 1ZM61 48h8l1-1v-8l-1-1h-8l-2 1v8l2 1ZM11 65h7l2-1v-8l-2-2h-7l-2 2v8l1 1ZM27 65h8l1-1v-8l-1-2h-8l-1 2v8l1 1ZM44 65h8l1-1v-8l-1-2h-8l-1 2v8l1 1ZM61 65h8l1-1v-8l-1-2h-8l-2 2v8l2 1Z"/></svg>