<svg id="Lag_1" xmlns="http://www.w3.org/2000/svg" viewBox="0 0 141.4 175">
  <defs>
    <style>
      .cls-1{fill:#ffb486}
    </style>
  </defs>
  <path class="cls-1" d="m107 0-1 2-1 2c-3-1-5 1-4 3v2l-2 1-2 1 5-1 2-1q1-1-1-2c-2-1-1-2 2-2h3V1l1 2 1 3v13c1 2 2 8 1 14v5l-1 5v4h1l1 1h2l-1-1-2-1 1-4a153 153 0 0 0 1-17v-1c0-3-2-5-1-6h-1v-2c0-2 0-2 2-2h1l-2-1h-1l1-1c1 0 1 0 0 0V9l-1-5-1-2-2-2h-1Z"/>
  <path class="cls-1" d="m102 11-4 1-2 1h1-4c1 0 0 0 0 0h-3l-1 1h1-2l-1 1s-1 0 0 0l7-1c7 0 11-2 10-3h-2Zm-3 2h-1 1Zm-7 1h-1 1ZM104 14l-3 1a142 142 0 0 0-7 1l7-1 4 1c0 2 0 2-6 3h-2 4c7 0 4 1-4 2l-5 1 8-1h4c2 0 0 2-1 3v9l-1 1h-1c1-1 0-1-1-1h-2v-1h-2c0 1-1 3-2 2v1c1 1 0 1-1 2l-3 6 1-1c0-2 2-4 3-4l1-3 2-1 1 1h2v-1h-1 2l3 3 1 1h-2l-2-1v1c2 0 2 1 1 3v2l1-1v-1l1-1v-1l1 2v2l1 1v2h-1c0 1 0 0 0 0h-1l-2-2-1-1-1-2c0-1 0-2 1-1h1l-1-2-1-1v-2l-1 2c-1 1-2 1-2-1v-1 2l2 1h1v2h-3l-1-1c0-1 0-1 0 0h-1l1 2h1l3 2 1 2h-6l-2 1h3c5 0 10 1 14 4l3 2c-1 0 0 0 0 0h1l3 1 4 1 4 4 2 6 1 3-1-3c0-4-2-8-4-10l-2-1-1-1h-3c-2 0-3-1-4-3h-1l-1-1-3-4h-1v-4c-2-1-2-1-3-10l1-7 1-7v-3l-2 1Zm3 27v1h-1l1-1Zm0 5h-1v-1c1-1 1 0 1 1Zm1 1h-1 1Z"/>
  <path class="cls-1" d="M92 20h-5l1 1 5-1 3-1-4 1ZM77 28c0 2 2 2 3 1h1a411 411 0 0 1 7 1l-4 3 1-1h1c0 1 0 1 0 0h1l1-1h5l-1-1-2-1-2-1h-4l-2-1v1l-1-1h-2l-2 1Z"/>
  <path class="cls-1" d="M76 28v1l-1 1v4l-1 2-1 4v4q0 1 0 0h1v1c-1 0-1 0 0 0l1 1 1 1c1 1 1 1-1 2l-6 5a29 29 0 0 1-8 3l-6 2c-3 0-6 2-11 5l-6 3c-2 2-12 6-14 6l-5-3a59 59 0 0 0-11-5l-3-1-2 2v2l-2 1c-2 2-1 4 1 4h2l1 1 6 2 3 1 3 2 3 2c2 2 3 2 7 2a124 124 0 0 0 29-11l8-3h3l3 1 4 1h1l6-1c1-1 1-1 4 1l4 1 1 4 1 4c2 3 1 4-3 5h-5a123 123 0 0 1-11 1l-5-1-6-1-6-2c-1-1-6 0-7 1h-2c-1-1-4 0-6 1l-2 1c-2 0-3 5-1 7l1 2 1 4 1 2c0 2 2 4 3 4l2 2v1l-3-2c-4-2-6-2-7-1l-1 2 1 5 1 3v9c-1 2 0 4 2 5l2 2 1 2h2l-2-3-4-8v-9l-1-2v-5c1-1 3 0 7 2l2 1 1 2v1-6c0-2-1-2-2-2l-2-1-1-4h1l-1-1c-2 1-2 0-2-2l-1-4c-2-3-1-4 1-4l2-2h1l2-1 2 1c1 1 1 0 3-1 2-2 8-1 11 1l7 2h11l8-1c6 0 7-1 8-3l-1-3c-1 0-2-3-1-6v-2l-3-1-4-2h-5l-2 1h-2l-1-1h-5c-4-2-8-1-25 7l-18 6h-5l-1-1-2-2-4-2-5-2-3-1h1l5 1 5 1 3 1 2 1 1 1 2-1 3-1 4-1 1-1 5-2 5-1 4-2h1l2-1a191 191 0 0 0 17-8l-7 2a229 229 0 0 1-39 13l-3-1h1v-1H9l-3-1 1-1h9-3s0-1 0 0l-1-1-1-1H9l1 1H6c-6 0-5 0-5-1h5l4-1-2-2c-3 0-3 0-1 1H6l-2-2 7 1 4 3c9 5 9 5 12 4l4-2 11-6 10-5 18-6c2-3 6-5 8-5 1 0 1-2-1-4l-2-2c0-1 0 0 0 0 1 1 1-1 1-3q0-6 3-9l1-1h-3v2l-1-1v-1l1-4-1 1Zm0 8-1 1 1-2v1Zm-1 4v2l-1-4c1-1 1 0 1 2ZM4 72c-1 0-1 0 0 0 0 0 1 0 0 0ZM82 31v2l1-1c1-2 1-2-1-1ZM93 32v1h2c1-1 1-1-1-1h-1ZM90 32l-1 1h-2l-1 1h-2v4l2-2 2-2 2-1h1l1-1h-2Zm-5 3h-1 1Z"/>
  <path class="cls-1" d="M88 35c-1 0-3 3-3 5l1 2 1-3c-1-2 1-3 2-4h2-3ZM79 36c-2 2-2 5 0 6l1 1-1-1c-1-2-1-3 1-5 2-1 2-1 1-2l-2 1Z"/>
  <path class="cls-1" d="M88 38c-1 2-1 2 1 0l1-2-2 2ZM80 38v3s2-3 1-4l-1 1ZM83 40v4l1-1v-4c-1-1-1-1-1 1ZM89 44l-1 1h-5v2h4l5-1v-2h-3Zm2 1v1l-1-1-1 1h-1v-1h3ZM77 45l1 1h2l1-1h-4ZM98 48l-1 1h-1 4l-2-1ZM104 50c1 2 1 2 2 1l-2-3v2ZM95 50c-2 1-3 6-2 6v1l-1 1-2 1-3 2c-2 1-5 0-5-1l-1-1v-2l-1-3v5l1 1 1 1 2 2h5l1-1 1-1 1-2 1-1 1-1c1 0 1 0 0 0-1-1 0-6 2-6v-1h-1Zm-5 11c-1 1-1 0 0 0v-1 1ZM115 55l2 1v1l1 1a90 90 0 0 1 6 8l-5-10c-3-3-4-4-3-2h-1c-1-2-2-2 0 1ZM73 56l-6 3-2 1 4-1h2c1 0 0 0 0 0l6-3 1-1c0-1 0 0 0 0l-5 1Z"/>
  <path class="cls-1" d="M87 59h-3v1h4v-1h-1ZM94 60l-1 1c0 1 0 1 0 0-1-1-1 0-1 1 0 0 0 1 0 0h2v-2ZM117 61l1 1v1-2h-1ZM90 63v1l2-1h-2ZM81 64l-5 2c-3 0-3 0-1 1h2l2-1 1-1h1l2-1h1-3ZM118 64l1 1 1 1-1-2h-1ZM85 65l-1 1-1 1h1l2-1 1-1h-2ZM104 80l-2 1c-1 0-1 0 0 0l-1 1-1 1-1 1-2 2v1c2 0 4-2 4-3l1-1 2-1s0-1 0 0c1 1-2 4-6 7l5 4v-1l1-4 2-5c0-2 1-2 1-1l1 1v1l-1 1-1 1-1 5c-1 2-1 3-2 2v1h1l1 1s0 1 0 0l-1 1 2-1h4c-1-2 1-2 3-1h3c1-1 3-1 4 1h1l1 1c1 0 2 3 1 4h1l2 2 3 1 2 2v3l1 1v1h-4l-4-1-1-1v1l5 1 2 1h2l3-1h2v2l-1 3v2s1 0 0 0l1-1c1-1 2 0 3 1l1 1v-1l-2-2-1-3c0-2-1-3-3-3l-2-2c0-3-2-4-4-5-2 0-4-3-5-5 0-2-1-2-3-3-3-2-3-2-5-1h-3c-2-1-2-1-2-3v-7 2l-3 9-1-1 1-5 1-2h1v-1l-1-1 1-2 1 1c2 0 1-1-2-2l-3-1-1 1q0 1 0 0v-1h-1Zm1 4h-1l1-1c1-1 0 0 0 0v1Zm-5 1h-1l1-1v1Zm2 3-1 1v-2c2-2 2-2 1 1Zm8 5v-2 2Z"/>
  <path class="cls-1" d="m112 84 1 2v3l1-1c1 1 0 0 0 0l-1-1v-2c0-1 1-1 4 1l2 3v-1l-4-4h-3ZM55 85h1v1-1h-1ZM61 88h2-2ZM81 88l-4 1h2l2-1h2-2ZM39 89l2 1-1-1h-1ZM40 92l1 1-1-2-1-1 1 2ZM122 101l2 2-1-1-1-1ZM36 106v3l1-2h2l-1-1h-2ZM126 106l1 1v-1h-1ZM135 111l-1 2 2-1c0-1 0-2-1-1ZM137 117l1 1v-1h-1ZM138 119v1c1 0 2-1 1-2l-1 1ZM38 125v1-1ZM45 137l2 3 1 2v1c2 0 2 0 1 5l1 4v-7l-3-6-1-1h1c1 1 1 1 0 0-1-2-2-2-2-1ZM67 140l1 1c2 2 3 3 4 8v13l-1 1v3l1 1 1-9v-11l-4-6-2-1Z"/>
  <path class="cls-1" d="M47 145v4l1-2v-2h-1ZM51 146l1 2 1 1-1-2-1-1ZM53 152l1 2c0 1 0 0 0 0v-3l-1-2v3ZM51 152l-1 1-2 2 1-1h1l2-3-1 1ZM50 155h1c0-1 0 0 0 0h-1ZM54 155q-2 1-1 2h1c2 0 2 0 5 4l3 5 2 2 1 3-1-5-3-3c-4-6-5-8-7-8Zm11 13c0 1 0 1 0 0l-1-1 1 1ZM68 164l-1 2c-1 0-1 0 0 0l2-1c0-2-1-2-1-1ZM70 170v2h1v-1l1-1c1 0 1 0 0 0h-2Z"/>
  <path class="cls-1" d="M72 171v1h1c0-1 0-2-1-1ZM77 174l1-1h-1v1ZM141 165c0 1 0 1 0 0v-1 1ZM134 166l-3 2c-3 2-5 3-15 5l-26 1c-1 0-1 0 0 0 1-1 0-1-2-1h-4l-3 1h-2l20 1 20-2 12-4c3-1 4-3 3-3ZM126 69q-1-3-2-2l1 3c1 2 1 3-2 9l-2 6a51 51 0 0 0-2 7l3-4 1-5c4-9 4-11 3-14Zm-5 23-1-2 1-1v3ZM132 165l2-3 3-11v-19h-1v-8l2 15-1 14-3 9-2 3Z"/>
</svg>
