<svg id="Lag_1" xmlns="http://www.w3.org/2000/svg" viewBox="0 0 190.7 175">
  <defs>
    <style>
      .cls-1{fill:#f8cabc}
    </style>
  </defs>
  <path class="cls-1" d="m133 1-2 1h-2l-6 1-4 3c-2 2-2 4-3 11 0 8 0 9 2 11 2 1 2 3 3 5v2l1 2c0 2-3 4-5 3l-1 1-3 1c-3 1-6 4-11 9l-2 3-2 5-2 4-3 5v6c2 1 2 5 1 5l-1 1-4 11-4 8-1 4-1 6h-2l-4 1c-1 2-2 2-3 1-3-2-10-2-11-1l-5 1-4 2-13 1H28l-6-5c-4-5-6-6-9-6-4 0-10 4-11 7l-1 3 1 3 1-1c0-5 5-10 10-10 4 0 13 8 13 11 0 1 29 2 29 0l2-1 4-1c3-2 8-3 12-1 2 1 4 0 7-1h6c3 2 3 1 2-4-2-4-2-4 2-10l3-9 3-8c3-6 3-7-1-8-1-1 0-2 1-4l5-10c5-10 9-13 18-16 6-1 7-2 7-3l-1-4-2-5v-7l-1 2c0 1-1 1-3-1l-2-2h2c4 0 4-1 1-3-1-2-2-3-1-6 0-4 3-8 5-8h1l1-1 13-4h-6Z"/>
  <path class="cls-1" d="m135 7-3 4 2 2h1v-2l1-2c2-1 3 1 5 4 1 2 2 2 3 2 3 0 7-4 6-4l-1-2-3-4h-3c-3-2-3-2-8 2Zm6 0c-2 1-3 1-2-1h2c2 0 2 0 0 1Zm6 3c1 2 0 3-2 3-3 0-4-2-2-4 3-1 4-1 4 1ZM129 8h1l1-1-1-1-1 2Z"/>
  <path class="cls-1" d="m130 14-2 4c-2 3-2 5 1 4l4 2c1 2 2 2 2 1l3-1 2-1v-6l-1-2c1-2 0-3-2 0-1 1-2 1-1 2 2 0 2 5 1 5-1 1-5-2-4-3l-3-6v1Z"/>
  <path class="cls-1" d="M123 16h5c1-1 2-1 0-1-2-1-5-1-5 1ZM159 32l-3 6c-2 1-3 4-1 4s6-11 5-12l-1 2ZM133 33c1 1 0 1-1 1h-1l-1 6v4c2 1 3 6 1 6v1l2 4c0 3 6 8 9 8l-3-4c-4-3-5-4-3-4l4-2c1-1 1-1-2-1l-3-1 1-1q2 0 0-1l-1-3c1-1 0-2-1-2s-2-1-1-3c0-3 0-3 5-3l5-1-4-1c-5 0-4-2 0-3 6 0 4-2-1-2-4 0-5 1-5 2ZM127 34l2 2-1-3-1 1ZM153 36v1c2-1 3-3 1-3l-1 2Z"/>
  <path class="cls-1" d="m156 47-2 3-3 4c-2 4-3 4-9 2l-2 1 2 1 2 2 4 1c6-1 6 0 3 2-2 1-2 2-1 2 2 0 6-4 6-6q0-2-1 0h-2v-4c2-2 6-9 5-10l-2 2ZM115 51l4 9c4 5 4 6 3 7-2 1-3 1-3-1l-4-7 1 5v4c-2 0-1 3 1 3l5-2c5 0 7-3 5-7l1-7-1-5v-1 5c-1 2-1 3-3 2l-2-3-1-2c-3-2-2 0 0 3 3 3 4 9 3 9-2 0-7-10-7-13 0-2-1-3-2-3v4ZM184 53l4 4v9l1 8v3c0 2-3 3-7 5l-5 3c1 1 9-2 9-3l1-1 1 4v2c2-2 3-16 2-25 0-5-1-6-3-9-5-5-7-5-3 0ZM159 59c-2 3-2 3 0 3 1 0 4-5 3-6l-3 3ZM177 47l-16-9c-2 1 0 2 9 7 8 4 11 5 7 2ZM161 67l-10 17-3 2c-2 3-5 4-10 4l-2 1c0 1 3 2 7 2l6 1 6 1 3-1h-3l-5-1c-3-1-2-6 0-7 3-1 8-7 8-9l2-2c1-1 6-15 5-16l-4 8ZM171 62v12l1-6c1-7 1-11-1-6ZM133 63l1 5v1c1-2 3-3 3-1l2 2c4 0 2-3-3-7l-4-4 1 4ZM176 63l-1 6c2-1 3-8 2-8l-1 2ZM152 65c-4 3-5 4-3 4l4-3c4-4 4-4-1-1Z"/>
  <path class="cls-1" d="m180 65-3 8c-3 6-4 9-1 5 2-3 6-14 5-15l-1 2ZM103 83l-2 5c-3 8-2 12-3 14v1h1v-5l1-4 5-9 4-5c3-1 2 6-1 12l-2 6 5 2c1-1 0-5-1-5l-1-1h2c2 2 4 1 3-1l2-1h1l-3-4v-6c0-4-1-5-4-4-4 0-4 0-7 5ZM146 81c-4 3-5 3-10 3l-7-1-1 2c0 3 1 4 2 2h2c4 1 9 0 14-3 9-6 9-8 0-3ZM171 90c1 5 0 8-1 12-2 7-2 8 0 6h2c1 0 2-12 1-17l1-5c1 0-1-2-3-2v6ZM129 90c0 1 0 2 2 2 4 1 5 0 2-2h-4ZM120 92l2 2 4 1c3 2 15 5 17 5l-1-2c-2-1-2-1 1-1l7 1 12 1-4-1-7-1-8-1c-4 1-17-2-21-4h-2Z"/>
  <path class="cls-1" d="m102 100 1 3 2 5h1l2-1c3 0 2 2 0 3-2 0-3 2-1 2l2 2 4 2c2 1 2 1 1 2s-1 1 1 1l2 1h13c4-2 8-1 13 3l4 2c0-1-2-4-6-6-3-2-12-3-13-1 0 1-11-1-13-3-2-1-2-2-1-3h5l3 1-4-1c-4 0-4 1 0 2h6l2-1c0-1-8-4-11-4l-4-2c-1-1-2-2-3-1-3 1-3-1-1-2 3-1 1-4-2-4h-3Zm12 11c0 1-3 3-4 2s1-3 3-3l1 1ZM150 104l3 1h3l-3-1h-3ZM99 106h-4c-4 0-5 1-3 4 2 2 8 4 8 2 0-1-3-3-4-2-2 0-2 0 0-1l4-1c3 1 3 1 2-1s-2-3-3-1ZM146 106l1 1h6l-1-1h-6ZM9 108c-5 3-6 14-2 24 3 5 10 12 12 12s0-3-4-5l-1-3v-1c-1 1-2-1-4-3s-2-5-3-11c0-6 0-7 2-10l5-2c2 0 2 0 1-1H9ZM176 109c0 4 8 15 9 15 0-1 0-3-2-5l-3-5-2-3-2-2ZM161 112c-2 2-4 2-9 2h-5c0 1 5 2 10 1l3 1-4 4c-1 0-2 5-1 6l1 1c-1 1 0 1 2 1 4 0 9 4 16 4h2l-8-5-2-2-5-1-4 1 3-4c4-7 6-9 8-8v-1c-1-2-5-2-7 0ZM172 112l2 2v-2l-3-2 1 2ZM18 112l2 2 1 2 2 2c1 0 4 7 3 9l1 8 1-5v-4c1 0 4 7 4 10 0 1 0 1 0 0 2-3 3-4 7-2 3 0 5 2 5 2 1 2 3 3 2 1l2-2 4-2 8-2 7-2c0-1 1-1 4 2l4 3 7-5c3-3 4-4 5-3l2 1-1-4-2-3-3 4c-3 3-4 4-5 3s-1-1-1 4v3l-3-3-3-3 5-4c2-2 6-5 8-5l3-3h-5c-1 2-1 2-4 0l-9-2h-6l2 2c2 2 5 3 4 1l2-1 3 1 2 1c2 0 2 1-2 4l-4 4-2-2-4-2v-2c0-2 0-2-3-2l-5 1c-1 1 0 1 2 1h2c-1 2 1 4 4 5 5 1 4 3-3 3l-7 1h-1c-1-2-4-1-4 2 0 2 0 2-2 1l-8-1c-6 0-6 0-9-4l-2-5h8l7 1c0 1-2 2-7 2-2 0-3 1-3 2l5 1 4-1 6-7v2h2q3-1 1-2H29c-3-1-7-3-7-5l-2-2-2-1ZM91 116v3l-1 1c-2-1-2 0 0 3 2 2 2 2 2 0s1-2 2-1h5l4 1 5 2c1-1-7-5-10-5l-5-2 1-2 2 1 7 1c3 0 6 2 6 4 0 1 2 1 2-1v-1l-1-1c0-2-2-3-6-3l-4-1c-1-1-8-1-9 1Z"/>
  <path class="cls-1" d="m168 115-3 3c-1 3-1 3 1 4l4 1h2l1-1c0-3-2-3-4-2-1 1-1 1-2-1s1-4 4-2l2 2h2c2 1 3 1 2-1s-7-4-9-3ZM50 125l2 2c2 1 4 0 4-2h-6ZM172 126h1l4 1c2 1 3 0 5-1s2-1-3-1l-7 1ZM148 128v3c2 0 2-2 1-3h-1ZM152 128v1l2-1h-2ZM138 131h-3v1h5l2-2-4 1ZM1 132v4a133 133 0 0 1 5 29l-1-22-1-8 4 6 3 6h2c3 2 3 0-1-5l-5-7c-2-4-4-5-6-3ZM35 137c1 4 5 11 6 10l-2-5-2-5-1-2c-1-1-1 0-1 2ZM98 143c-1 1-6 4-7 3v1c1 2 1 2 3 1l6-4 5-2-7 1ZM45 146c-2 3-3 5 0 5 1 1 1 1 1-1-1-1 0-3 1-4l2-2c0-2-2-1-4 2ZM17 148l-1 2c-1 1 0 1 1 1 3-1 7 5 5 6-1 1 0 1 2 1v2l2-1-4-7c-4-5-5-6-5-4ZM22 147l9 13h1v-1c-1 0-2-1-2-3l-2-3-3-3-3-3Z"/>
  <path class="cls-1" d="m11 151 1 1c1 0 1 2-1 4s-1 11 1 17l1 2c0-2 2-3 3-4 3-2 7-9 6-10l-3 4c-3 4-5 6-7 5l2-3c3-3 5-6 5-8l-3 3-4 4c-2 0-1-1 1-3l3-5c1-4 0-3-2 1l-2 3c-1 0-1-1 1-5s2-7-1-8c-1 0-2 1-1 2ZM81 152l-7 2v1c1 1 12-4 12-5s0-1-5 2ZM39 152l2 3 1 1v-2l-3-4v2ZM18 153l2 2c2 1 2 1 0 0l-2-2ZM71 156l1 1 1-1-1-1-1 1ZM67 157c-2 1-2 2 1 1l2-1h-3ZM60 159v1l2-1h-2ZM56 161h1c2-1 2-2 1-2l-2 2ZM46 163c-1 2-1 2 1 1l2-1h-3ZM32 169c-3 2-2 3 1 1l2-3c-1 0-2 0-3 2ZM184 109c1-3 4-17 3-18s-1 1-3 10c-1 10-2 12 0 8ZM111 140c4 0 18-5 18-5 1-2-2-1-11 2-9 2-11 3-7 3ZM160 19l-7-13 3 8c4 6 5 8 4 5Z"/>
</svg>
