<svg xmlns="http://www.w3.org/2000/svg" viewBox="0 0 228.4 175"><path d="M208 2q-2 2 1 1l7-1 4-1c-3-2-9-1-12 1ZM208 14l1 1 2-1-2-2-1 2ZM216 15h2c1-1 1-1-1-1-1 0-2 0-1 1ZM212 19l1 1 1-2-2-1v2ZM209 22l3 1c2 0 3 0 2-1l-3-1-2 1ZM221 125l-3-6-3-7-3-5-8-12 2-1 3-1c0-1-5-9-7-10-1-1-1-2 2-4l2-5 8-10c9-9 15-19 14-24l-5-5-5-3-5-1c-3 0-5-1-6-3l-7-4-8-1c-4-1-5 0-10 4l-6 7-2 1c-3 0-10 7-11 10l-1 7-1 7c-1 2-1 2 1 0l2-4 2-1c2 0 2 1 1 3l2-1 1-5c0-3 5-7 10-9 3-1 4-2 3-3-4-2-10 2-15 9l-3 5v-4c0-4 2-6 11-12l6-6c3-5 15-6 23-1l7 3 5 2 5 2 2 3h1c2-1 1 4-2 10l-10 12-10 13-3 6 3 6c2 3 2 5 1 6-2 2-2 4 2 9l2 5 2 2 2 3c0 5 6 15 8 15l1-2ZM26 34l-2 3-10 4-5 7c-4 5-5 6-4 10 2 12 1 18 1 20l-2 4-1 2-2 3-1 2h7c7-2 9-4 9-13 1-10 1-10 12 0l10 12h2c2 0 3 1 3 3l2 3 2 1 4 6c3 3 4 5 4 7-1 2 1 3 2 1s-2-8-7-13L24 69c-6-5-9-4-10 6-1 7-3 11-6 11-3 1-3 0 0-6 2-4 2-9 1-20-1-5-1-6 4-12 3-5 6-7 9-8l4-3h2c0 2 1 2 2 2 1-1 2 0 2 1l2 1 1-2 6-1c7 0 12 1 12 3l-2 1h-2c-2 1 7 3 15 4 8 0 8 0 4-2l-8-3-12-5c-6-3-10-3-15 0l-3 1-2-3q-1-2-2 0ZM73 39c3 2 3 3 0 3-1 1-1 1 1 1 4 0 4-1 2-4l-2-1h-2l1 1Z"/><path d="m136 126 5-1c3-2 7-11 8-13l1-3 2-4 1-2c1 0 6-10 7-16s5-11 8-13c3-1 5-3 6-6 1-2 3-4 5-4 4 0 7-7 5-11v-7c2-4 1-5-1-2l-5 8 3 2c2 0 3 1 2 3l-2 4c-1 3-3 3-3 0l-1-2-4 7c0 3-4 7-6 6-3-1-8 7-10 15 0 3-5 13-10 22l-2 5-5 8-2 3M85 123l-4-8-4-10-1-3-1-5c0-5 1-6 5-8 10-6 26-10 51-12l17-3 10-2c5-1 7-3 5-5-1-2-1-2-1 0l-2 1v-2c1-2-1-2-3 0l-1 1c0-2-3-2-15-2a73 73 0 0 1-18-1c0 2-8 2-35 1-18 0-19-1-19-3 0-3-2-3-6-1s-4 2-4 0l-3-3-4-3h-1c0 4-2 0-3-5 0-4-1-5-2-2l1 6c3 5 12 11 16 10l5 1c2 2 7 2 20 2a82 82 0 0 1 21 1c8-1 42 0 42 1 1 1-18 6-22 6-4-1-22 2-33 5s-16 6-21 10c-2 2-3 3-2 9 1 7 7 23 11 26l2 1"/><path d="M68 51c-2 1-2 1 2 1l4-1c0-2-2-2-6 0ZM170 58l2 1v-1l-1-1-1 1ZM165 63c-1 2-1 2 1 0l1-2-2 2ZM60 117c-1 2 11 20 14 24a164 164 0 0 0-15-24ZM82 150l3 3a8927 8927 0 0 1 15 20l2-1 1-4-2-9-3-8c-1-2-1-4-3-4h-1l1 5 3 8 2 6q0 3-3 0l-9-12-4-5M173 112c-11 13-13 17-13 28 1 7 3 3 3-4s0-7 6-16l8-10a474 474 0 0 0 21 23c3 2 5 6 5 8q0 4 2 2c2-4 1-7-4-11l-6-9-5-5-5-6c-2-3-4-6-6-6l-6 6ZM206 153v1l-1 6v2c0 2 4 4 7 4 6 0 11-7 12-12v-6 6c-1 3-4 7-12 10l-2-1c-3 0-1-5-1-10-1-3-1-6-3-7h-2v1a21 21 0 0 1 1 2M146 147l-3 4-9 12c-8 8-12 10-15 6-1-2-1-3 6-16 2-4 0-4-3 0l-7 15c0 3 0 4 2 5l5 2c2 1 3 0 7-4l12-13 6-8M4 10l3 1h8q3 1 0-1c-2-2-9-2-11 0ZM15 21l-2 1 2 1 1-1-1-1ZM7 22c-2 0-2 1 0 2l2-1-2-1ZM12 26l-1 1v1l1-1v-1ZM13 29l-3 2 3 1c2 0 3-1 3-2l-3-1Z"/></svg>