<?xml version="1.0" encoding="UTF-8"?><svg id="Lag_1" xmlns="http://www.w3.org/2000/svg" viewBox="0 0 130 175"><path d="M60,0l1.11,1,6.67,4h1.11l-1.11-1L62.22,0h-2.22Z"/><path d="M57.78,2h1.11l3.33,1,1.11-1h-5.56Zm-6.67,1h0Zm17.78,0l1.11,1-1.11-1q-1.11,0,0,0Zm-11.11,0l-2.22,1-6.67,2v0h-2.22v1l-2.22,2-2.22,1-1.11,2-2.22,3h-1.11v1h-1.11v2c0-1,0,0,0,0l-1.11,2,1.11,1c1.11,0,0,0,0,0l1.11-4,1.11-1,1.11-2,3.33-3,2.22-2c1.11-2,2.22-2,2.22-1l1.11-1,2.22-1v1q-1.11,0,0,0l1.11-1q.74,0,0,0h-1.11l6.67-1,4.44-1h1.11v0l-5.56-1Zm6.67,1h1.11c1.11,0,0,0,0,0l-1.11-1v1Zm5.56,0l1.11,2,1.11,2v2h2.22l-1.11-1h2.22l-1.11-1-2.22-1-2.22-3Zm-4.44,1h0q-.74,0,0,0Z"/><path d="M61.11,6l-2.22,1v1c1.11,0,2.22,2,1.11,3h-1.11l-1.11-1,1.11,1h1.11l-1.11-2h-2.22l-2.22,1h-1.11l-2.22,2-1.11,1q1.11-1,1.11,1l-1.11,2s0,1,0,0l2.22-1,1.11-1h-1.11q-1.11,1,0,0l1.11-1,1.11-1v1h1.11l4.44-1,4.44-1,1.11-2h-1.11v1h-1.11l-1.11,1v-2l-1.11-1v-1h3.33l1.11,1,1.11,1-1.11-2c0,1,0,0,0,0v-1h-1.11l-1.11-1-2.22,1Zm0,3c0,1,0,0,0,0v0Zm-4.44,1h1.11l-2.22,1v-1h1.11Zm-3.33,1l-1.11,1v-1h1.11Zm17.78-4l-1.11,1v4h3.33l1.11-1-1.11,1-3.33-1h1.11V7Z"/><path d="M50,8v1l-1.11,2-2.22,3h-1.11v2h1.11l-1.11,1-1.11,1h1.11l1.11-1,1.11-1h1.11v-1l-1.11,1q0-1,0,0h-1.11v-1l2.22-2,2.22-3v-2h-1.11Zm12.22,1h1.11l1.11-1h-2.22v1Zm13.33,1l1.11,1,4.44,3,1.11,1-4.44-4-1.11-1h-1.11Zm-32.22,3l-3.33,2h1.11l4.44-2-1.11,1s0,1,0,0l1.11-1v-1s1.11,0,0,0l-2.22,1Zm20-1l1.11,1c2.22,0,6.67,3,8.89,5l3.33,1h1.11l-1.11-1q-2.22-1-1.11-2l2.22,1c1.11-1-1.11-1-3.33-2-1.11,0-2.22,0-1.11,1l-2.22-1s0-1,0,0q-1.11,0,0,0v-1l2.22,1v-1h-4.44l1.11-1h-1.11l-5.56-1Zm5.56,1h0Zm6.67,0q-1.11,0,0,0l2.22,1v-1s-1.11,0,0,0h-2.22Zm2.22,2l1.11,1,1.11,1-1.11-1-1.11-1Zm3.33,1v0q-.74-.67,0,0Zm-31.11,2l-2.22,3q-1.11,0,0,0l3.33-5-1.11,2Zm-6.67,0h1.11v-1l-1.11,1Zm40,1v5h1.11l1.11,1v-1l-1.11-2v-1l-1.11-1v-1Zm-41.11,0h-1.11c-1.11,0-4.44,2-3.33,3l-1.11,1v1l3.33-4h2.22v1l1.11-1v-1h-1.11Zm1.11,0l-1.11,1v-1h1.11Zm37.78,1v5l-1.11,4-1.11,1-1.11-1-1.11-2-2.22-2-1.11,2v3l1.11,1,1.11,1,2.22,3,2.22,2,1.11,3v-3c-1.11,0-3.33-3-2.22-4l-1.11-1-1.11-2c1.11,0,4.44,3,3.33,4l1.11,1h1.11l-1.11-1q0-1,0,0l1.11-1-2.22-1c0-1,0-2,1.11-1h2.22l-1.11-3v-2l1.11,2v-1l-2.22-2,1.11-1v-5l-1.11,1Zm1.11,3v1l-1.11-2,1.11,1Zm-6.67,5v1l1.11,2v1q1.11,0,0,0l-1.11-2-1.11-1v-2h1.11v1Zm6.67,2v1c-1.11,0-2.22-1-1.11-2l1.11,1Z"/><path d="M75.56,20l2.22,2,1.11,1v-2h-2.22l-1.11-1Zm-35.56,1v1l-2.22,1c-1.11,2-1.11,3,1.11,2l2.22-1v-1l1.11-1v-1h-1.11v-1l-1.11,1Zm0,1v-1h1.11l-1.11,1Zm26.67-1l1.11,1v1h-1.11q-1.11-1,0,0h3.33c2.22,1,2.22,0,1.11-1h-2.22l-1.11-1h-1.11Zm6.67,1l1.11,2h1.11l-3.33-3,1.11,1Zm-27.78,1l-1.11,1,1.11-1,1.11-1-1.11,1Zm7.78-1l-2.22,1-1.11,1h1.11l3.33-1h1.11v-1h-2.22Zm-17.78,2q-1.11,1,0,0v0Zm10,0v2l1.11-2v-1l-1.11,1Zm14.44,0v1h1.11v1c1.11,0,3.33,2,2.22,3l2.22,3v-2l-1.11-1,4.44,1,4.44,1-5.56-3-6.67-2,1.11-1-1.11-1h-1.11Z"/><path d="M38.89,25c-1.11,1-2.22,1-1.11,2v1h1.11v4h1.11l-1.11-1,1.11-2,1.11-2h-1.11v-1l1.11-1v-1l-2.22,1Zm17.78-1l-1.11,1s-1.11,0,0,0l-2.22,1-1.11,1c0,1-1.11,2-3.33,2l-1.11,1,3.33-1,3.33-3,2.22-1v-1Zm-21.11,2v0q1.11-1,0,0Zm30,1h2.22q.74,0,0,0l-2.22-1h-1.11l1.11,1Z"/><path d="M36.67,27l-1.11,2v0h-1.11v4q1.11,0,0,0v2l1.11-2,2.22-2c1.11,0,0,0,0,0v-1h-1.11v-3Zm18.89,2l-4.44,4-2.22,1h2.22c3.58-1.61,6.64-4.02,8.89-7l-4.44,2Zm13.33-1l1.11,1h1.11l-2.22-1Zm-10,2l-2.22,4h1.11l1.11-3v-1Zm-12.22,2l-2.22,1v3l1.11,1-1.11-2c0,1,0,0,0,0,0,0,0-1,0,0l2.22-2,2.22-2-2.22,1Zm-10,2v2l1.11,1,1.11-1-1.11,1v1h1.11v-2q-1.11-4-2.22-2Zm22.22-1l1.11,2v-1l1.11-1s1.11,0,0,0h-2.22Zm4.44,0l1.11,2v-3l-1.11,1Zm2.22,1l1.11,1v-2l-1.11,1Zm-25.56,0l2.22,2c2.22,1,1.11,0,0-1l-2.22-1q-1.11,0,0,0Zm10,1c-2.22,0-4.44,2-3.33,3h2.22l3.33-1h1.11l-1.11-1h-3.33l1.11-1h0Zm-2.22,2v1l-1.11-1h1.11Zm34.44-1v3l-2.22,8q-2.22,0,13.33,11c14.44,10,17.78,14,20,20l2.22,3,2.22,3v2c-.65-4.68-2.56-9.14-5.56-13l-2.22-3-1.11-2q0-1,0,0l-2.22-2-2.22-1c-2.07-1.83-4.3-3.5-6.67-5l-4.44-4-2.22-2-3.33-1-1.11-1-2.22-2-3.33-2,1.11-2v-4l1.11-6h-1.11Zm-27.78,2h-3.33l-2.22,1q0,1,0,0h-2.22l-1.11,1c1.59,5.4,3.44,10.74,5.56,16v-3l-1.11-2c0-1,0,0,0,0l-2.22-5c-2.22-5-2.22-6-1.11-6h14.44q2.22,0,0-1l-6.67-2v1Zm13.33,0h1.11c0-1,0,0,0,0h-1.11Zm-32.22,0v1h1.11v1l-1.11,3v5l6.67,5,1.11,2v3q0,2-5.56,7c-5.04,4.13-9.86,8.47-14.44,13l-2.22,1h-1.11l-2.22,2-1.11,1h-2.22l-1.11,1h1.11l4.44-2,3.33-2,6.67-5,10-9,6.67-5-1.11-3-1.11-5v-3h-1.11l-1.11,1,1.11,2h-2.22c-2.22-3-3.33-5-2.22-6v-2l-1.11-2,1.11-3v-1h-2.22Zm32.22,2l7.78,7c2.22,1,3.33,2,2.22,0l-12.22-9,2.22,2Zm3.33,3l3.33,2c1.48,.67,1.48,1,0,1l-3.33-3-1.11-1,1.11,1Z"/><path d="M38.89,42v2q2.22-1,2.22,1v2l1.11,1v-1l-1.11-3v-2l-1.11-2-1.11,2Zm23.33-2l-4.44,5v4q0,1,0,0l1.11-1,1.11-1h-2.22l1.11-1h4.44l3.33,1v2h1.11l-1.11-5-3.33-4h-1.11Zm2.22,3v2h-5.56l1.11-2c2.22-2,3.33-2,4.44,0Zm2.22-1l1.11,1v-1h-1.11Zm-26.67,3v0Zm28.89,0h0Zm-31.11,2l2.22,3,1.11,1v-1l-2.22-2v-1h-1.11Zm22.22,2h0Zm-15.56,1v1q0,1,0,0l1.11-1s0-1,0,0l-1.11-1v1Zm23.33-1v1h1.11l-1.11,1v1h1.11q0-2,2.22,0c2.22,2,1.11,0-1.11-2l-2.22-1Zm10,3l-1.11,2,23.33,16,3.33,1c-7.02-8.28-15.24-15.68-24.44-22l-1.11,3Zm3.33,0c-1.11,0,0,0,0,0l6.67,5,1.11,1v1h1.11l1.11,1,3.33,3,2.22,2,2.22,4-1.11-2q0-1,0,0l-2.22-1-4.44-3-4.44-3-4.44-3-1.11-1-1.11-1-2.22-2,1.11-1,1.11-1,1.11,1Zm-22.22-2l-3.33,3c-2.22,3-2.22,5-1.11,7l1.11-1v-4l2.22-3h3.33c3.33,0,6.67-1,5.56-2h-1.11c0-1,0,0,0,0h-3.33l-2.22,1h-1.11l1.11-1h-1.11Zm-2.22,0l-1.11,1h1.11v-1Zm-3.33,2c0,1,0,2,1.11,1v-2c0-1,1.11,0,0,0l-1.11,1Zm21.11,0l1.11,1-1.11-1c0-1,0,0,0,0Zm-15.56,1h0Z"/><path d="M62.22,53c-1.11,0-2.22,0-1.11,1h-1.11c-1.11,0,0,0,0,0h3.33l1.11-1h-2.22Zm3.33,0h0Zm6.67,2v1l1.11-1h1.11l1.11,1,1.11,5v4l1.11,1h-1.11l-1.11,1-2.22,2h1.11v1h1.11v-1l1.11-1q1.11,0,0,0h-1.11l1.11-1,1.11-1v-2c1.11,0,0,0,0,0v-4l2.22,1h2.22l-4.44-4-4.44-4-1.11,2Zm-26.67,2l1.11,3,2.22,5,2.22,4,2.22,2,2.22,1-3.33-10-1.11-2v1l1.11,2,1.11,4,1.11,3-3.33-3v-1h1.11l-2.22-2-1.11-2-1.11-2-1.11-2v-1h-1.11Zm24.44,2h0Zm-13.33,0l2.22,1-1.11-1h-1.11Zm8.89,1l1.11-1h-1.11v1Zm-3.33,0c1.11,0,0,0,0,0q-1.11,0,0,0Z"/><path d="M45.56,62h1.11v1l-3.33,2v1l2.22-1,2.22-1h-1.11v-1c1.11-2,0-2-1.11-1Zm1.11,2v1l-1.11-1h1.11Zm3.33-2v1l1.11,1-1.11-2Zm28.89,0v1c1.11,0,2.22,1,2.22,3s1.11,2,2.22,3l2.22,2q-.74,0,0,0l1.11,2-2.22-9c-1.11-2-2.22-3-5.56-2Zm4.44,3l1.11,3c-1.11,0-2.22-1-2.22-3s0-2,1.11,0Z"/><path d="M41.11,65l-2.22,3,1.11-1,1.11-1v-1l3.33-1c2.22-3,0-2-3.33,1Zm37.78,1l-1.11,4,1.11,4v2q1.11,0,0,0v1l1.11-1v-3l-1.11-2q0-1,0,0l1.11-1-1.11-2h1.11l-1.11-2v0Zm-38.89,4c-1.6,1.23-3.08,2.56-4.44,4l-1.11,1c-1.11,2,2.22,0,4.44-3l3.33-3-1.11,7,1.11-1,1.11-1-1.11-1c0-4,2.22-7,2.22-5q0,1,0,0v-2l-4.44,4Zm31.11-4q-2.22,1,1.11,1h2.22l1.11-1h-4.44Zm-32.22,2l-1.11,2,3.33-2c1.11-2,0-1-2.22,0Zm51.11,0v3l2.22,2h0l-1.11,1,1.11,1,1.11-1,1.11-1-2.22-4-2.22-1Zm-37.78,2l3.33,3-3.33-3Zm30,1v1l1.11,1,1.11,1h1.11l1.11,1-4.44-5v1Zm24.44,0c2.22,0,3.33,2,2.22,4v3l1.11-4,1.11,9v4l1.11,1v4l1.11,1v7l1.11,4-1.11-14-2.22-13-1.11-4-4.44-3,1.11,1Zm-25.56,1l1.11,2-1.11-3v1Zm17.78,1h3.33l1.11-1-4.44,1Z"/><path d="M34.44,74l-6.67,3c-1.11,0-3.33,2-2.22,3v-1c1.11-1,4.44-3,5.56-2v1l1.11-1,1.11-2,2.22-1,1.11-2-2.22,2Zm14.44-1v4l1.11-1q2.22,0,1.11-1l-1.11,1h-1.11l1.11-2h1.11l-1.11-1h-1.11Zm55.56,0l2.22,1-2.22-1q-1.11-1,0,0Zm-51.11,1l1.11,1,2.22,2,2.22,3v-2l-1.11-1-1.11-2,1.11,1c1.11,2,0,2-1.11,1v-1l-3.33-3v1Zm-7.78,0v2l2.22,2v-3q0-2-2.22-1Zm1.11,1h0Zm8.89-1h0Zm3.33,0v1l2.22-1h-2.22Zm41.11,0l1.11,1v-1h-1.11Zm-15.56,0l2.22,5-1.11,2v1l1.11-2h2.22v-2l2.22-1h3.33l-1.11,2h-1.11c1.11,1,3.33-1,3.33-2v-1h-4.44l-1.11,1h-2.22l-1.11-2h-1.11l-1.11-1Zm2.22,3l1.11,1-1.11-2v1Zm-33.33-1l1.11,1,1.11,1,1.11,2,1.11,2h1.11l-1.11-2-4.44-4Zm47.78,1v2h1.11v-2h-1.11Zm-23.33,1v2l-1.11,4v1l-1.11,2q-1.11,1,1.11,2,1.11,0,0,0l1.11-6,2.22-6-2.22,1Zm27.78,0h0q0-1,0,0Z"/><path d="M28.89,78v1h-1.11l1.11,1c0-1,0,0,0,0h-2.22l1.11,1,2.22-3h-1.11Zm14.44,1l1.11,2,1.11,2v3l1.11,2c1.11,2,1.11,1-6.67,3l-3.33,1c4.14-.27,8.24-.94,12.22-2v-1c-1.11,0-3.33-4-2.22-5l1.11,2,2.22,3,1.11,1-1.11-2-4.44-8,2.22,1c2.22,1,3.33,2,4.44,1v-1h-1.11l-2.22-1h2.22q.74-.67,0,0l-4.44-1-1.11-1h-2.22v1Zm15.56,1h0Zm10,0h1.11v-1l-1.11,1Zm21.11,0c-1.11,0,0,0,0,0h1.11v-1l-1.11,1Zm-64.44,1l-1.11,1h0q2.22,0,1.11-1v0Zm4.44,0h1.11v2l-1.11,1h1.11l1.11-1-1.11-2h-1.11Zm28.89,1l1.11,1,1.11,1,1.11,3,2.22,3,2.22,3v-1l-1.11-2c-1.11-1,0-1,5.56-1l3.33-1h-4.44c-6.67,0-5.56,0-7.78-3l-2.22-3h-1.11c-1.11,0,0-1,0,0Zm55.56,1c2.22,7,2.22,13,1.11,18v3h1.11c-1.11-2,0-4,1.11-3v-6h1.11v-1q-2.22,0-2.22-2l1.11-2h0l-1.11-2-2.22-7v2Zm-32.22,0l-2.22,2h1.11l3.33-1s-1.11,2-2.22,1l-1.11,1v1h-3.33v1h2.22l2.22-1,2.22-1h0v-2l1.11-1v2l1.11-2h-4.44Zm-2.22,4h0Zm-58.89-4h0Zm66.67,0v1l2.22,2v1l-1.11-3-1.11-1Zm-68.89,0l-2.22,1c-1.11,0-3.33,1-3.33,3l1.11-1,4.44-2h1.11l-1.11-1Zm87.78,0v1h1.11l-1.11-1Z"/><path d="M58.89,84l1.11,1v-1h-1.11Zm-48.89,2l-3.33,2h1.11l3.33-3-1.11,1Zm23.33-1v1h-1.11v1l2.22-1-1.11-1q-1.11-1,0,0Zm-8.89,0v1l1.11-1h-1.11Zm-3.33,1h0Zm86.67,0v0Zm-83.33,1h1.11v-1l-1.11,1Zm3.33,0h0Zm7.78,0c1.11,0,0,0,0,0q-1.11,0,0,0Zm-13.33,1h1.11l-1.11-1v1Zm14.44,0v0Zm21.11,0l3.33,1h2.22l-3.33-1h-2.22Zm33.33,1l1.11,3-2.22-4,1.11,1Zm-37.78,0h2.22l1.11,1v-1l-2.22-1-1.11,1Zm-41.11,1c.85,2.3,1.59,4.64,2.22,7v-2l-1.11-3c0-2-1.11-3-2.22-3l1.11,1Zm-8.89,0l2.22,1-1.11,1h1.11l5.56,9-1.11,4-2.22,2-2.22,3-2.22,2,3.33-2q4.44-4,3.33-1l-1.11,5v1l-1.11,1c1.11,1,2.22-2,2.22-3l1.11-3v-3q0-8,2.22-8c1.11,0,2.22,2,2.22,6v-5l-2.22-1c-2.22,0-3.33-1-3.33-2l1.11-1c1.11,0,0,0,0,0v-1l-3.33-1v-1l-2.22-1c0-2-2.22-3-2.22-2Zm33.33,0l-2.22,1v3h4.44l-1.11,1c-1.11,0-2.22,1,0,1l4.44,5-3.33-4v-2l1.11-1,3.33-1v-1l-3.33,1h-4.44v-2l1.11-1q0-1,0,0Zm37.78-1v2l-2.22,5-2.22-1v1l2.22,1h8.89s0,1,0,0h1.11l-4.44-1h-3.33l-2.22,1-1.11-1h1.11l3.33-5-1.11-2Zm14.44,1v1q0,.67,0,0l1.11,1v3l1.11-3-1.11-2h-1.11q0-.67,0,0Zm-37.78,0l-1.11,1,2.22-1h1.11q1.11,0,0,0h-2.22Zm16.67,0v1h2.22v-1h-2.22c-1.11,0,0,0,0,0Zm-34.44,1v0Zm13.33,0h2.22v-1l-2.22,1Z"/><path d="M72.22,92c-4.44,2-11.11,3-15.56,1l-4.44-1h0l4.44,2,6.67,1,5.56-1,4.44-3-1.11,1Zm-23.33,0l3.33,6-1.11-2-2.22-3v-1q-1.11,0,0,0Zm10,0h0Zm33.33,1l1.11,1h-1.11l-1.11,1h3.33v-1l-2.22-1Zm27.78,3v20l3.33,7c0,4,2.22,8,3.33,10l1.11,8v20c-.14,4.67-.14,9.33,0,14l2.22-3v-13l-1.11-6v-10s1.11-6-1.11-7v-1l-1.11-2-1.11-2v-2l-1.11-4-3.33-8v-14l1.11-4v-2l-2.22-1Zm10,67v4l-1.11,2c-1.11,0,0,0,0,0v2c-1.11,2-1.11,1-1.11-2v-4l1.11-3v-1l1.11,2ZM34.44,96v1l1.11,1v-2l-1.11-1v1Zm33.33,0l1.11,1q0,1,0,0v1h1.11l-1.11-1v-1h-1.11Zm24.44,0l1.11,2h1.11l-1.11-1v-1l2.22,3,1.11,2c2.22,1,2.22,3,1.11,4l1.11,1h1.11l-2.22-6-2.22-3-2.22-1h-1.11Z"/><path d="M50,97l7.78,7,4.44,1c3.33,0,3.33-1,5.56-3,4.44-4,3.33-4,0-1l-3.33,2-1.11,1q1.11,0,0,0h-1.11l-1.11-1h-3.33l-5.56-5c1.11,0,0,0,0,0l-2.22-1-1.11-1,1.11,1Z"/><path d="M58.89,96c0,1-1.11,1,4.44,1h4.44l-8.89-1Zm53.33,3l1.11,1v-2l-1.11,1Zm-77.78,3c0,4,0,7-2.22,9l-1.11,2q0,1,0,0l2.22-2,2.22-5v-5l2.22,1,2.22,2,1.11,1,3.33,5v1c1.11-1-2.22-6-6.67-9l-3.33-3v3Zm32.22-1l-1.11,1,1.11-1,1.11-1-1.11,1Zm6.67,0l12.22,10-3.33-2-7.78-8,2.22,2c2.22,2,6.67,5,8.89,5l-3.33-2-5.56-4-2.22-2-1.11,1c-1.11-2-1.11-1,0,0Zm-30,3l2.22,4,1.11,2v-1s-1.11,0,0,0l-4.44-7,1.11,2Zm56.67,3h2.22l1.11-1h-1.11l-2.22,1Zm13.33,0l-1.11,2-1.11,2,3.33-4h-1.11Zm-15.56,1l-1.11,4v-5l-1.11,3v1l-1.11,2,2.22,3v-2c2.22,1,1.11,0,0-1-2.22,0-2.22-1,0-1q1.11,1,2.22-1l-1.11-4v1Zm7.78,0l-1.11,1v1l1.11-3v1Zm-12.22,1l-2.22,1h-1.11l3.33,1,1.11-3-1.11,1Zm14.44,0v1l1.11-1c0,1,0,0,0,0h-1.11Zm-5.56,1h1.11l-1.11-1c-1.48,0-1.48,.33,0,1Zm-55.56,1l2.22,7v-5h-1.11v-2h-1.11Zm62.22,0l1.11,1v-1h-1.11Zm-94.44,1v5l1.11-3c0-3,0-4-1.11-2Zm32.22,0v2l1.11,4q0,3,0,0l-1.11-6Zm-43.33,3v2l1.11,2v8s-1.11,0,0,0v5h-1.11v5l1.11,3-1.11,4v5l-1.11,3,1.11,2v4l1.11,2v1l2.22,3,2.22,1v2h1.11v1c0,2,2.22,7,3.33,6l2.22,1h2.22l-2.22-1c-2.22-1-3.33-2-3.33-4l-3.33-6c-2.22-1-3.33-4-4.44-6v-22l1.11-7,1.11-7-1.11-5-2.22-2Zm83.33-1h0Zm14.44,0h0q-1.11,0,0,0Zm5.56,0l-3.33,2-4.44,1c-1.11-1-2.22-1,0,0l1.11,2v1l1.11-1v-1l1.11-1,2.22-1h1.11l2.22-2h-1.11Zm-16.67,1l5.56,2,1.11,9,1.11,6-1.11,4v13l1.11,3c2.22,2,3.33,11,2.22,15v8h2.22l-1.11-1v-7l1.11-7-1.11-3,1.11,1,1.11,2h1.11v1l2.22,2,1.11,4c.06,2.67,.06,5.33,0,8l1.11-6v-5l-1.11-2-2.22-2-4.44-6c-4.44-6-5.56-11-3.33-18v-6l-1.11-8-1.11-6-3.33-1h-2.22Zm8.89,0h0Zm-72.22,3v0Zm-13.33,0l2.22,4,1.11,2c0,1,0,0,0,0h1.11v4h-1.11v3h1.11l-1.11,1c1.11,1,2.22,0,1.11-1l1.11-1v-4h6.67l3.33-1h-1.11l-3.33,1-1.11-1v-1h0v1h-1.11q-1.11,0,0,0l-1.11-1v1h-1.11q-1.11,0,0,0v-1l-1.11,1h-1.11c1.11-1-1.11-3-2.22-3v-1l-1.11-1-1.11-2Zm5.56,11h0Zm11.11-9v1l1.11,9c0,7,1.11,11,3.33,16l2.22,8-1.11,6c-2.29,5.3-5.28,10.33-8.89,15l1.11-1,2.22-2,1.11-2,1.11-1v-2l2.22-2,1.11-3,1.11-2v-2h1.11v-8l-3.33-6-1.11-1-1.11-9,1.11-4q0,1,0,0l-1.11-4c0-4-1.11-7-2.22-6Z"/><path d="M12.22,126c-.86,5.89-2.73,11.63-5.56,17l1.11-1v1h1.11v-2c1.11-1,5.56-17,4.44-19l-1.11,4Zm16.67-3v0Zm20,0v1l1.11,3,1.11,4-1.11-6-1.11-2Zm-23.33,1v0q1.11-1,0,0Zm1.11,0h0Zm22.22,4c-1.11,1,0,2,1.11,4l1.11,2-1.11-3-1.11-3q0-1,0,0Zm-2.22,3v5l1.11-5h-1.11Zm-11.11,11l1.11,1,1.11,1,3.33,5v2l-1.11,1,4.44-6v-1h-1.11l-1.11,3v1l-1.11-1v-2l-1.11-1-4.44-4v1Zm13.33,4l-1.11,2v0l1.11-2,1.11-2-1.11,2Zm76.67,3l-1.11,3c-1.11,0-2.22,2-2.22,5s-1.11,4-6.67,6l-4.44,1q-1.11,0,0,0c1.11,1,3.33,1,5.56-1l3.33-1c2.22-1,2.22-3,2.22-6,0-2,1.11-2,3.33-5l2.22-4-2.22,2Zm-78.89,1h0ZM2.22,91l-1.11,3,1.11,2v-1l-1.11-1v5l1.11,2v4l1.11,4v2l-2.22-8-1.11-8v-2l3.33-2h-1.11Z"/></svg>