<svg id="Lag_1" xmlns="http://www.w3.org/2000/svg" viewBox="0 0 179.8 175">
  <defs>
    <style>
      .cls-1{fill:#2f6457}
    </style>
  </defs>
  <path class="cls-1" d="m128 1-2 1h1l5 1h1l-1-2h-1c0 2-1 2-2 0h-1ZM121 4l-2 1v1l2-1 1-1 1-1 1-1-3 2ZM12 3l2 3v4c-1 1-1 0-2-1l-1-2H8l1 1h1l1 2c2 1 2 2 3 1l2 1c0 2 5 4 8 4 4 0 7 2 7 3l5 4c1 2 2 1 0 0-1-1-1-1 0 0v-1c-4-5-7-6-13-7-4 0-6-2-7-4 0-3-4-9-4-8Zm23 18c1 2 0 2-2-1l-1-1 3 2ZM126 4v1c1 0 0 0 0 0h4V4h-4ZM98 7v4l1 2v-2l-1-5v1ZM117 8c-4 4-4 5 0 2l4-2 3-1h-4c-1-1-2-1-3 1Zm2 0-2 1V8l2-1v1ZM126 7h1l4-1-5 1ZM129 8l-4 1c-4 0-6 1-6 2h-1l-3 2-2 1v2l-1 2v4l1 2v5-1l1-3 1-2 3-1 3-2 2-1-9 3c-1 1-2 0-1-2v-1l1-4c1-1 3-3 5-3l2-1c0-1 10-2 12-1l4-1-2-1v1l-6-1ZM39 11l-2 2-1 2-1 1h1l5-5h1-3ZM49 10v1l-1 1s-1 0 0 0l-5 6 2-3 2-3c-1-1-1 0-2 1l-1 2-2 1q-1 1 0 0v3l-1 2h1l4-4 2-3 1-2 1-1s-1 0 0 0v-1h-1ZM94 11l1 5a349 349 0 0 0 4 13l-1-7-3-8-1-4v1ZM159 13l-2 2h-2 1c1 1 2 0 4-2l2-2-3 2ZM111 13l-1 2 1-1 2-3-2 2Z"/>
  <path class="cls-1" d="M124 12h1c-1 1 0 1 3 1l3-1c-1 0-1 0 0 0h2c1-1-1-1-5-1l-4 1ZM41 14h-1l-1 1-1 2 2-1 3-4-2 2ZM59 12l-2 4-6 5c0 2 1 1 4-3l4-3v-3ZM97 13v2l1 3v-5c0-1-1-2-1 0ZM106 14c0 3 1 7 3 7l-1-1-2-5v-4 3ZM119 13c-3 1-3 2-2 2h1l2-1 2-1h-3ZM62 14h-2v3l2-2v-1ZM50 15l-1 1v1c-1-1-3 1-3 2l-1 1-1 1h2l1-1 3-3 2-3-2 1ZM99 16l1 7v2h1v-2l-1-2v-5q-1-3-1 0ZM64 16l-2 1h-1l-3 4 1-2-1 1-2 1c-2 0-3 1-1 1h1l1-1v1l-2 1c0-1 0 0 0 0h2l7-7c2-2 2-2 0 0ZM121 15h2-2ZM132 15v1l1-1v-1l-1 1ZM140 15h2l-1-1-1 1ZM53 16l-3 2c-3 2-3 3-1 2 2 0 6-5 5-5l-1 1ZM147 16h5l-1-1h-4c-2 0-2 0 0 1ZM120 16c-5 1-7 2-6 3v2l2-1v-1l-1-1h1l9-2h-5ZM127 16h1-1c-1 0-1 0 0 0ZM138 16h1-1c-1 0-1 0 0 0ZM146 17h2l-1-1c-1 0-2 0-1 1ZM155 17h1c2 0 2-1 1-1l-2 1ZM126 18v1l1-1 1-1-2 1ZM142 19c-3 0-9 3-9 4h-2v5c1 0 1 1-1 2l-2 2v2l1 2 1-2c-1-1 0-1 0 0l1-1 1-4 1-2v2c-1 3 0 3 2 1l1-2-2-1-1-1h-1v-1c-1 1-1 1 0 0 2-2 11-6 16-6l13 4h1l-5-3c-4-2-10-2-15-1Zm-10 7-1 1 1-1ZM61 22l-2 2 2-1v-1l1 1v1l1-1v-1l2-2v-1l-4 3ZM110 21v2l-2 1c0 2 0 2 2 0l1-1v-2h-1ZM82 23l-1 2 2-4-1 2Z"/>
  <path class="cls-1" d="m153 22 1 1 1-1h-2ZM49 23l3 1 2-1h-5ZM67 24l-3 1-1 1h-1c-1 0-1 0 0 0l2 4v2l1 1 1 7c2 3 2 4 1 8v4l1 1v1-1l1-2h1c1 3 0 5-1 8-1 1-2 3-3 2v3l-2 1c-1 4 0 2 3-3 2-2 3-5 4-4l-3 5-4 7v1l-7-1-1 1 4 1 4 1c2 1 2 0 2-3l2-5 1-1 2-3V50l-1-4-1-3-1-2-1-2-1-5-2-7v-1l1 1h1v-1h1l1 1-2 1v1l2-1 1-1 1-1h-2v-2h1c1-2 0-2-2 0Zm3 22h-1v-2l1 2ZM84 23c0 2 0 2 1 1v-1h-1ZM122 25l-1 3-1 2c1 1-1 2-3 3l-2 1 2-1c3 0 7-4 7-7l-1 2-2 2v-1l2-5-1 1ZM156 25l-2 1h4l-3 1c-1 0-1 0 0 0l3 1h1l1 1v2h3l-5 2-5 3c-2 3-3 3-2 0 1-2 2-5 1-6-2-1 0-1 2-1h4-1l-2-1h-7c-1-1-9 3-12 6l-2 3-2 2c0-1 0-1 0 0l-2 1c-1-1-1-1 0 0l1 1v1l1-1 1-2 2-2 2-1c2 0 2 0 1-1l1-2 3-1 5-2h3c1 1 2 1 1 2l-1-1h-1l-4 1c-1-1-3 1-3 2l1 2c1 1 4 0 4-2 0-1 1-2 2-1h-1l-1 1h1c1-1 3-1 3 1l-1 1-1 1c-1 0-1 0 0 0v2l-3 1c-1 0-2 0-1-1l-1-1v2c0 2-1 2-2 1l-2-2-1-1c-1-1-2-2-2 0l4 3 2 1-4 1-5-1h-2l1 1c2 0 3 1 2 2s-1 1 0 0 2-1 1 1l-1 2 1-1 1-3 3-1 6-2 5-2 1 2 2 2-1-2-1-2 1-1 2-1h1c-2-1-1-1 1-2l4-2h1c3-2 3-3 0-4-2-1-3-2-1-3l-2-2-3 1Zm4 1-1 1v-1h1Zm-15 9c-1 0-2-1-1-2h1v2ZM38 25h2l-1-1-1 1ZM42 25h8-8Z"/>
  <path class="cls-1" d="M148 25c-2 0-3 1-1 1l3-1h1l2 1 1-1h-6ZM128 26l-2 3 2-1 2-2-2 2c-1 1-1 2-2 1h-2v1c2 1 1 10-1 11l-1 1-1 2v2h1v1h1c-1-1 0-1 1-1l3-5h1v-1l-1-1h1l2-2c2-2 1-2-1 0l-2 1v1l-2 3-1 3c-2 0-2-1 0-3l2-8v-2l2-2 2-1q1 1 0 0v-2c0-2-1-2-2-1Zm-2 4v1h-1c0-2 1-2 1-1ZM143 26h-3 5-2ZM91 28v3l1-2c0-3-1-4-1-1ZM38 29h-8l4 2c3 2 8 3 11 1l7-1 4-1h-4l-5-1h-3c-1 0-1 0 0 0l-1-1-5 1Zm7 2-1 1c-1 1-1 1-2-1 0-2 0-2 1-1l2 1Zm-3 0c1 2-5 2-7 0-1-1 0-1 3-1l4 1ZM111 29l-2 1v1h2l1-1-1-1ZM9 30v4l4 3v-1c-3-2-4-5-2-5v-1H9ZM113 30l-1 2v1l-1 1h1l1-1v-3c0-1 0-1 0 0ZM24 31l-1 1 4-2-3 1Z"/>
  <path class="cls-1" d="m28 31-2 3-1 1c-1-1-4 2-4 4l1-1h1v1l-1 2-1 1 3 1 5 2 1 1-1-2h-2l-2-1h1v-1l3-2 4-1-1 3c0 3 1 5 5 7 2 2 4 2 5 2l5-5 1-2h1v1l1 1 1 1v4l1 2 1-1-1-2 1-2h1l-1-1c1-1 0-1-1-1l-1-1 1-1h-2l-3-1c-1-1-2-2 0-2s3 0 5-2l2-1-3-2-4-2v-1h-2l-5 1-5-1c-5-3-4-3-7-2Zm14 4c6 0 9 1 10 3 0 1-5 3-7 2h-4v-2 1h-2l-2-1h-2l-3 1c-9 0-8 0-8-2l1-1 3-2 1-2c2-1 2-1 4 1 3 1 3 2 9 2Zm-3 5 1 1c-3 0-4 2-3 4s2 1 5 0c2-1 2-2 1-2l-1-1v2h-1v-2l2-1h1l1 1v5c-1 2-5 3-6 2h-1l-3-2c-1-2-2-2-1-4 0-3 2-4 5-3Zm-15 0 1 2-1-1h-1v1-2h1Z"/>
  <path class="cls-1" d="M45 36v1l1 1v-1h2l1 1-2-2h-2ZM38 36v1h1v-1h-1ZM42 36v1c1 1 2 0 2-1h-2ZM42 39h2c1-1 1-1-1-1l-1 1ZM92 30l1 2h1l-1-2h-1ZM12 32c0 2 1 3 2 2l-1-3-1 1ZM49 32v1h1l1 1 3 1 2 1h1l-1-1c-1-2-1-2-3-2h-1l5-1h-8ZM110 33l-1 1-2 6-3 7v7l-1 2v2q0 2 0 0h2v2h1l1 2c4 3 5 8 3 11v12l2 6v2h1v1l-3-1-2-2-3-3c1 0 1 0 0 0l-2-5h-1l-1-2c0-2-1-3-2-3l-2-1-1-3 1-3 1-1c-1-2 3-2 6 0l1 3c-1 2 0 4 1 3 1-2 0-5-1-7l-1-1-1-1h-4l-1-1c0-2 1-4 2-2v-2l-1-15V33l-1 16a101 101 0 0 1-1 20l-1 1c0-1-1-1-1 1v5h-1l1 1 2 4v2l1 6 1 4v-6l-1-4h1l2 7 1 1v2l1-1v-2 2l2 2c1-1 10 6 10 7l1 1 6 7 4 7c3 3 4 5 2 5h-6l6 2 1-1c2 0 5 3 5 4l1 1c1-1 2 2 2 3h2v1c-1 0 4 7 7 9l1 3 8 6 3 3 14 7 8 3-2-1-1-2h3l-2-1h-2l-1 1-1-1c-1 1-1 1 0 0l-1-1-1 1-1-1-4-2h3-3c-2 1-19-11-18-13l-1-1-7-9c-2-4-9-11-10-11l-4-5-2-5c1 0 0 0 0 0l1 1 1 2a54 54 0 0 0 10 11l-5-6a43 43 0 0 1-7-9l-2-3-2-5-2-3-2-5v3l1 2-2-4h-1v-1l-1-3-1-1 2 1 1 2-3-4h-1l-1-5V71l1-4-3-4c-4-6-4-7-4-13 0-4 0-5 3-10 3-7 4-9 2-8Zm-9 48c0 4 4 9 5 11l7 4 5 4 3 4 1 2 1 1c1 1 2 3 1 4l-2-3a28 28 0 0 0-13-13v-1l-2-1-3-2c-2-2-4-6-3-7h-1v-1l-2-3-1-2c1-1 3 2 4 3ZM20 34l-2 2-1 1-2 1-2 1-1 1 1 1 9-7h-2ZM132 34v1l1-1h-1Z"/>
  <path class="cls-1" d="m112 36-4 6 2-2 3-5 1-1-2 2ZM87 36v2-3 1ZM158 39c-3 3-3 3-1 2l4-5-3 3ZM93 39v1-2 1ZM149 42v1-1c-1 0 0 0 0 0ZM145 43l1 1v-1h-1ZM54 44h-1 2v-1l-1 1ZM107 44l-1 9 1-3v-6ZM139 45l-1 2h1c2-2 1-3 0-2ZM143 45v1l1-1-1-1v1ZM118 47l-1 1 3-2-2 1ZM149 46c-2 1-3 3-5 3l-1 1 2-1 5-3h-1ZM124 47v1l1-1h-1ZM55 47l1 1c2 1 2 0 1-1h-2ZM95 50l-1 5 1 3V48v2ZM127 49v1-1c1-1 0-1 0 0ZM31 50c0 1 3 3 4 2 0 0 1 0 0 0l2 2c2 2 3 2 2 0-1-1-1-1 0 0l3 1h1l1 1h3l-2-1-4-2h-3l-1-1-1-1h-3v-1h-2Zm6 3s0 1 0 0l-1-1 1 1ZM53 50s2 3 3 2l-2-1-1-1ZM114 50c-2 2-3 4-2 5l1 4v2-2l1-4 1-1h-1l-2 1 2-3v-2ZM90 53v7-6l1-3-1 2ZM23 53l2 1v-1l-3-1 1 1ZM27 54l3 3c2 4 5 5 8 5h3-3c-4-1-5-1-6-3l-5-5c-1 0-1 0 0 0ZM73 55v3c0 2-1 3-3 5l-2 5-1 4v5l1 7-1 6v1l6-7 1-2 1-3 1-3v-4c-1-3 0-5 1-9 2-3 2-3 1-5-1-1-4-4-5-3Zm4 4-1 4-1 8-2 8-2 6c-1 3-2 2-2-2v-7c-1-3-1-8 1-10v-1l2-1 1-2 1-1v-2l1-2 2 2ZM106 55l5 9 1 1v-5l-1-4v6l-3-4-2-3ZM137 55v1l1-2c1 0 0 0 0 0l-1 1ZM140 55h2-2Z"/>
  <path class="cls-1" d="m85 56-3 1c-2 1-3 1-2 4l-1 1v3l-2 11-1 5-1 3-13 14-1 2c0 2-5 9-7 11l-2 4h-1c-2 0-3 1-3 2h1l1-1v1l-1 2-1 1v1l5-6c5-7 7-9 9-14l1-2 1-2 1-1 4-4 1-1 2-1 1-2 2-2c2-2 4-7 4-12l2-14c1-1 1-1 0 0l-1-1 1-1 1 3-1 7-1 4 2-7c1-5 1-6 3-8l1-2-1 1ZM143 56v1l1 1 2 1 1 1 2 1-1-1-2-2v-1l-1 1c1 1 1 1 0 0l-1-2h-1ZM159 56h1c1 0 2 0 0 0h-1ZM156 58l-2 2 2-2c2-2 2-2 0 0ZM132 59v5l1-5h-1ZM41 64l-4 3v1l-1 1c-2 2-5 3-10 3h-5l5 1c7 0 8-1 14-7s6-7 1-2ZM89 63l-1 3v3l1-3v-3ZM113 64v2-3 1ZM133 64c0 1 0 1 0 0l1-1c-1-1-1 0-1 1ZM150 63h2-2ZM52 64v2l1 2 2 3-1-3-2-4ZM92 68v5l1-6-1 1ZM112 70v6c-1 4-1 5 1 0 1-3 6-8 8-8h1c-1-1-3 0-5 1l-2 1s-1-1 0 0l-1 2c-1 1-1 1-1-2v-3l-1 3ZM123 69l1-1h-1v1ZM127 69h-1 3-2Z"/>
  <path class="cls-1" d="m120 69-4 4-1 2c-2 2-3 11-2 12h1c-1-3 0-10 1-11l2-3 2-3 2-1h-1ZM99 71v6-2l1-3v-1h-1ZM62 74c2 1 2 4 0 13v4l-1 2v2l-2 3-1 4-1 1-6 9c-2 2-1 3 0 1l8-11 4-7 3-4c-1 1-1-3-1-7l-1-10-2-1v1ZM46 119v1l-3 6-6 11a163 163 0 0 1-20 26l-1 1-3 2-2 1h2l2-1-6 3-8 5-1 1h1l2-1h1l3-2 4-2 8-6c-1-1 0-1 1-1l6-4 1-2 1-1 1-1 1-1 1-2c3-4 5-6 5-8l2-1 1-1 1-3 2-4v-1l1-1 2-2c0 1 0 0 0 0v-1c2 0 2-2 2-5v-2h-2l1-2 1-2Zm0 6-1 1-2 4-2 2s-1 0 0 0c0 1-2 7-4 9l-2 3-1 1c0-1 0 0 0 0l-3 4-3 5-1 1h-1c1 1-1 2-2 2l4-5 10-15 5-10c2-3 3-4 3-2Zm-23 35-2 2c-1-1 2-4 3-4l-1 2Zm-6 5h-1l1-1v1ZM150 141l2 4 4 3 2 1h2v1l1 1h1v1h2l3 1-3-1a84 84 0 0 1-14-11Z"/>
</svg>
