<svg id="Lag_1" xmlns="http://www.w3.org/2000/svg" viewBox="0 0 105.3 175">
  <defs>
    <style>
      .cls-1{fill:#ff6445}
    </style>
  </defs>
  <path class="cls-1" d="M94 1v2l-1 3c-1 0-1 0 0 0l3 2 1 2-1-5-1-2V1l2 1 2 2 2 1-1-1c-2-2 0-2 2 0 1 2 3 6 2 7v4l-1 5-1 3-1 3-1 3-4 7-1 1-2 1-1 1h-1l-4 3-4 3-2 1-2 1-3 1c-2 0-8 6-9 8l-2 4c-2 1-2 3-2 6 1 2 1 2-1 2-4 2-16 3-21 2-4-2-4-2-4-8a118 118 0 0 1 6-30c1-2 1-2-1-4l-2-2-5-4-5-2a26 26 0 0 1-7-5 72 72 0 0 1-9-8l-1 2-1 2-1 1c-1 2 0 2 2-1l1-2 3 2 4 4 4 3 4 3c4 1 7 3 8 5l2 1 2 1 1 4-2 10-2 5v4l-1 6c-1 11-1 12 2 13 6 2 15 2 21 0 4-1 5-2 4-5 0-2 0-3 2-5l2-4c2-3 8-8 11-8h2c1 1 1-1 2-1l2-2a119 119 0 0 0 13-9l1-2 3-7 1-1v-2l1-2c1-2 2-12 1-15l-2-3-3-2-3-1h-3Z"/>
  <path class="cls-1" d="M10 2c-3 2-8 5-9 8v4-4l8-6 2-1 2-1 6 3 8 3 6 4c3 3 8 5 12 6 3 1 8 3 9 5l1 2c0 2 1 3 3 3 3 1 5-1 5-5 0-3 1-5 3-6l2-1 2-2 1 1h2l2 1c1 1 1 0 1-1l-1-1h-4c-2-1-2-1-3 1l-2 1-2 1-2 5-1 4-1 1h-1c-2 0-3-1-3-3s-5-6-11-7c-5-1-8-3-12-7l-4-2-12-6h-7Z"/>
  <path class="cls-1" d="m92 8 1 2v1l2 3 2 4-1 2-1 2-2 3-1 3-6 4-1 1h-2l-3 1c0 1-2 2-6 2l-1-1 1-2 1-1 2-2 1-2h-1l-4 5-1 1c0 1 0 2-1 1v-1h-1l-1 3c0 2-2 4-6 4l-9-3-1-1 2-4 3-3c1 0 1 0 0 0-1-1-2 0-3 1l-2 3c-3 3 1 7 9 8 4 0 6-1 7-3l5-2 9-2 6-3 3-1 3-6 3-7-2-4-2-4-1-2-2-2 1 2ZM21 8h1V7l-1 1ZM7 9l-3 5h1l2-3 1-1v1l1 2V8L7 9Z"/>
  <path class="cls-1" d="m78 14-1 1v2l1 1 1 2v1l-1 3 1 2 1 1v1l-1 1c1 2 2 1 2-1l-1-2-1-3h1v1l1-1-1-2h1v-1l-1-2h-1l-1-2c1-1 3 0 3 1l1 2 1 4v3-8l-4-4h-1c-1 0-1 0 0 0ZM2 15h2-2ZM33 15l2 1h1-1l-1-1h-1ZM69 17l2 2-1-1-1-1h2-2ZM73 17h2-2Z"/>
  <path class="cls-1" d="m75 18 1 1c1 1 2 0 1-1h-2ZM73 19c1 2 2 3 3 2l-1-1-2-1ZM65 19l1 1h3l3 1-1-1h-2l-4-1ZM49 22l1 1c1 0 2 0 1-1h-2s-1 0 0 0ZM75 26c0 1 1 2 2 1h-1l-1-1ZM83 29c0 1 0 1 0 0v-1 1ZM53 29l-4 4-7 6a64 64 0 0 0 11-8l2-3-2 1ZM60 31h1l-1-1v1ZM49 36v1l1-1h-1ZM85 37c-1 0-1 0 0 0h2v-1l-2 1ZM44 39v1l1-1h-1ZM71 39l-1 10v2l1-2v-3l1-7h-1ZM49 42h1v-1l-1 1ZM54 43l1 1v-1h-1ZM59 45l1-1h-1v1ZM50 45h2l-1-1-1 1ZM64 45v1l1-1h-1ZM67 47l1 1v-1h-1ZM52 47v2l1-1-1-1ZM65 48v1l1-1h-1ZM61 50l1 1v-2l-1 1ZM42 51v1h1l-1-1ZM58 51v1l1-1h-1ZM45 52l1 1v-1h-1ZM62 53h1v-1l-1 1ZM62 55v1h1c0-1 0-2-1-1ZM50 56l1 1v-2l-1 1ZM52 59c-1 0-1 0 0 0l1-1-1 1ZM62 59h1v-1l-1 1ZM56 59l1 1v-2l-1 1ZM60 60v1l1-1-1-1v1ZM44 61v1l2-1h-2ZM40 61l1 1v-1h-1ZM53 61l1 1-1-1ZM39 64v1-1c0-1 0 0 0 0ZM42 65l1-1h-1v1ZM59 64l1 1v-1h-1ZM40 67v1-1c0-1 0-1 0 0ZM57 67l1 1v-2l-1 1ZM52 67l1 1v-1h-1ZM36 71h1v-1l-1 1ZM65 72v1h1l-1-1c0-1 0-1 0 0ZM66 77v1-1c0-1 0-1 0 0ZM35 81l1 1v-1h-1ZM35 88c0 2 0 2 1 1v-4l-1 3ZM70 90v3c1 1 1 0 1-2-1-4-1-5-1-1ZM36 93l1 1v1l1 1v-2l-1-1c-1 0 0 1 0 0h-1ZM50 93h2-2ZM52 94l1 2v2l1 1v-2l-1-4-1 1ZM70 96v5l1-7-1 2ZM38 98l1 1v1l1 1-1-3h-1ZM53 101l1 1h1c0 1 0 1 0 0l-1-2-1 1ZM40 102v1-1c0-1 0-1 0 0ZM41 105c0 1 2 7 4 9l2 3 2 3v2l1 2 1 7 1 3v1l1 2v1l2 7c2 6 2 6 7 4h2v-4l-1-4v7h-2c-3 1-3 0-4-2l-2-5-2-10-3-11-3-6c-2-1-5-7-5-9h-1ZM70 108v12l1 2v1l2 9-1 12-1 4-2 3c-2 1-3 0-3-2v-6l-1-1v10h6l1-2v-2l1-2v-2l1-3a39 39 0 0 0-1-16v-2l-2-12v-4l-1 1ZM61 118l3 12c1 4 1 4 1-1l-3-11h-1ZM59 121l1 7 1 2 2 4c1-1 0-3-2-7l-1-5-1-4v3ZM49 137h1l-1-1v1ZM83 137h-5 3c1 0 2 0 1 1h-3c-1 0-3 0-2 1l13-1 4-1H83Zm2 1h-2l1-1 1 1ZM38 138h2l-2-1v1ZM76 138l1-1h-1v1ZM32 141h8l3-1h-4l-7 1ZM83 143h1-1ZM85 143h1-1ZM39 146h1-1c-1 0-1 0 0 0ZM77 147l-3 1h6c5 0 6-1 3-1h-6ZM85 148h7l-4-1-3 1ZM46 148l-5 1h-2l-2 1 7-1h1l2 1 5-1a245 245 0 0 1-6-1ZM75 150l-2 1h8v1-1l-6-1ZM33 151h3-3ZM51 151c-1 1 0 1 3 1h4c1-1-3-1-7-1ZM86 151l-1 1h1l2-1h2-4ZM83 152h1-1s-1 0 0 0ZM63 153l-1 1c-1 1 0 2 1 1 1 0 2-2 1-3l-1 1ZM36 153h1c1 0 0 0 0 0h-1ZM32 153l-2 1c0-1 0 0 0 0h3l-1-1ZM40 153c-1 1-1 1 1 1h2l-3-1ZM53 154c-3 0-4 0-3 1h4l3-1h1-5ZM77 155h1l2-1h-3ZM70 156l-1 2h4l1-1h-1l-1-1h-2ZM41 156l-4 1h4l4-1h1-5ZM56 156l1 1-3 1h-4 7l2-1-3-1ZM33 157l1 1 1-1h-2ZM87 157l-7 1h-4l8 1c9-1 8-1 8-2h-5ZM65 158l-2 1h-2l1 2-1 2c1 0-1 5-3 7h-1v1l-1 1H44l2 1h11v1l1-1 1-3 4-7 1-4 1-1ZM67 159v1h1l-1-1ZM71 159c-1 1 0 1 1 1v-1h-1ZM71 161l1 1v1h10l-9-1c-1 0-1 0 0 0l-1-1h-1ZM55 162v1l2-1h-2ZM69 162l2 1-2-2v1ZM33 165h3l-1-1c-3 0-4 0-2 1Z"/>
  <path class="cls-1" d="M54 165c0 1-1 2-3 2-2 1-2 1 0 1l3-1 1-2h-1ZM70 165l-1 1 1 1 3-1h2-2l-3-1ZM76 166h5l-3-1-2 1ZM55 169h1v-1l-1 1ZM39 169s0 1 0 0l1 1h2v-1h-3ZM53 169v1h1v-1h-1ZM70 169l5 1h4c1-1-4-1-7-1h-2ZM50 170h1l-1-1v1ZM68 170v1c1 1-2 3-5 3h-4l-1 1 9-1 2-1 1-1v-2h-2ZM52 171h1l-1-1v1Z"/>
  <path class="cls-1" d="m60 171 1 1h5l-3-1h-3ZM73 172v1l2-1h-2ZM78 172l-1 1 6-1h-5ZM59 173h1-1c-1 0-1 0 0 0Z"/>
</svg>
