<svg xmlns="http://www.w3.org/2000/svg" xmlns:xlink="http://www.w3.org/1999/xlink" viewBox="0 0 234.81 175.97" xmlns:v="https://vecta.io/nano"><path d="M155.5 1c.4.6 1.1.8 1.6.5 1.4-.9 1.1-1.5-.7-1.5-.8 0-1.2.5-.9 1zm4 0c.3.5 1.4 1 2.3 1 1.5 0 1.5-.2.2-1-2-1.3-3.3-1.3-2.5 0zm-10.7 1.1c-1 .5-1.8.8-1.8.5s-1.2-.1-2.7.5c-1.6.6-3.8 1.2-5.1 1.4-1.3.1-3.3 1.3-4.5 2.5-1.8 2-2.1 3.7-2.3 11.3-.3 8-.1 9.2 1.8 10.7 1.2.9 2.1 2.9 2.2 4.7 0 1.7.4 2.9.9 2.6.4-.2.7.5.7 1.6 0 2.2-3.4 4.6-5 3.6-.6-.3-1-.2-1 .3s-1.3 1.2-2.8 1.5c-2.7.5-6.3 3.5-10.9 9-1.3 1.5-2.2 2.8-2.1 3 .3.6-1.4 4.7-2 4.7-.4 0-1.4 2-2.1 4.5s-1.6 4.5-2 4.5c-1 0-1.1 5.9-.1 6.5 1.2.8 1.3 4.5.2 4.5-.5 0-.9.6-1 1.2-.4 4.2-2.9 11.8-3.6 11.1-.5-.4-.6-.3-.2.4.6 1.2-1.8 6.1-3.7 7.4-.5.4-.9 2.7-.9 5.3-.1 4.2-.3 4.6-2.5 4.6-1.4 0-3.1.7-3.9 1.5-1.2 1.2-2 1.3-3.7.3-2.5-1.3-9.6-1.8-10.2-.7-.3.4-2.3 1-4.5 1.4s-4 1.1-4 1.5c0 .5-5.6 1-12.6 1.2l-12.5.3-5.9-5.8c-4.7-4.5-6.6-5.7-9.2-5.7-4.2 0-9.4 3.7-10.5 7.5-.9 2.9-1.1 3-5.8 2.8-2.8-.1-7.4-.5-10.2-.9-4.3-.5-5.3-.4-5.3.8 0 1.1 2.3 1.7 8.9 2.6 12.2 1.7 13.1 1.6 13.1-.8 0-5.2 4.9-10 10.2-10 3.5 0 12.7 7.8 12.8 10.7 0 1.6 28 1.9 28 .3 0-.6.6-1 1.3-1 .6 0 2.4-.6 3.9-1.4 3.5-1.8 8.6-2.2 11.9-.8 2 .8 3.7.7 6.8-.4s4.7-1.1 6.2-.3c2.9 1.5 3.1.8 1.3-3.8-1.6-3.9-1.5-4 2-10.7 2-3.7 3.6-7.7 3.6-8.8s1.2-4.7 2.7-8c2.7-6.1 2.6-6.8-1.1-8.1-.5-.2-.2-1.6.6-3.3.9-1.6 3.1-6 4.9-9.9 4.9-10.1 9-13.8 17.8-16 5.7-1.5 7-2.2 6.5-3.5-.4-.8-.8-2.6-.9-4-.2-1.4-.8-3.8-1.4-5.3-.8-2-.8-3.4-.1-4.8.7-1.2.7-1.9.1-1.9-.5 0-1.1.7-1.3 1.6-.3 1.4-.6 1.4-2.8-.5l-2.5-2 2.8-.1c3.2 0 3.4-1 .8-3.4-1.3-1.2-1.8-2.8-1.6-5.1.4-4.1 3.3-8.8 5.1-8.1.8.3 1.4.1 1.4-.4 0-.6.5-1 1.1-1 2.5 0 11.9-3.2 11.9-4.1 0-1.2-3-1.1-5.2.2zm2.1 5.9c-2.4 2.2-3.8 3.9-3.1 4 .6 0 1.2.7 1.2 1.6 0 .8.5 1.2 1 .9.6-.4.8-1.5.5-2.5s0-2 .9-2.3c1.5-.6 3.2 1 5.1 4.7.7 1.3 1.8 2 3 1.8 2.5-.5 6.8-3.9 5.5-4.4-.6-.2-1.2-1.1-1.4-2.1-.2-1.7-2.6-4.8-2.6-3.4 0 .4-1.3.1-2.8-.7-2.7-1.4-3-1.3-7.3 2.4zm5.6.2c-1.9 1.1-3 .5-2.1-1.1.4-.6 1.4-.7 2.2-.4 1.5.5 1.4.7-.1 1.5zm5.8 2.7c.6 2.3 0 3.1-2.4 3.1-2.7 0-3.3-1.9-1.3-3.5 2.5-1.9 3.1-1.8 3.7.4zM145 8.6c0 .8.5 1.2 1 .9.6-.3 1-1 1-1.6 0-.5-.4-.9-1-.9-.5 0-1 .7-1 1.6zm-5 1.3c0 2.2 1.3 3.9 2.6 3.4 1.9-.7 1.8-1.6-.6-3.1-1.1-.7-2-.8-2-.3zm5.3 5.5c.3.8-.3 2.5-1.4 3.7-2.3 2.7-2 4.5.9 4.1 1.2-.2 2.7.6 3.7 2 1.1 1.5 1.9 1.9 2.2 1 .3-.6 1.3-1.2 2.4-1.2 1 0 1.9-.3 2-.8.4-4 .4-6.2-.2-6.2-.4 0-.5-.9-.2-2 .6-2.4-.3-2.6-2.5-.3-1.2 1.2-1.3 1.8-.4 2.1 1.3.4 1.7 4.8.4 5.6-1 .6-4.7-2.2-4-3 .9-.8-1.2-6.4-2.4-6.4-.6 0-.8.6-.5 1.4zm-6.7 1.3c-.6 1.5 1.7 1.6 4.9.3 1.6-.6 1.7-.9.5-1.3-2.5-.9-4.9-.4-5.4 1zm7.1 11.2c-.3 1.2-.1 2.1.3 2.1 1.4 0 1.9-1.5 1.1-2.9-.6-.9-1-.7-1.4.8zM170 29c-.8.5-1.2 1.2-.9 1.5.4.3 1.2-.1 1.9-1 1.4-1.7 1.1-1.9-1-.5zm3.5 4.3c-.4 2-1.6 4.3-2.6 5.3-2 1.8-2.6 4.4-1 4.4 1.5 0 6.3-11.2 5.2-12.3-.6-.6-1.2.3-1.6 2.6zm-24.7.6c.4 1.1.1 1.3-1.2.8-1.4-.5-1.7-.3-1.2.8.3.8-.1 3.2-.9 5.4-1.2 3.6-1.2 3.9.5 4.4 1.9.5 2.6 5.7.6 5.7-.6 0-.5.4.3.9s1.5 2.2 1.7 3.8c.3 3.1 5.4 8.3 8.2 8.3 1.2-.1.3-1.3-2.8-4-3.7-3.3-4.1-4-2.4-4 1.2 0 2.7-.7 3.4-1.5 1.1-1.3.8-1.5-1.9-1.5-1.7 0-3.1-.5-3.1-1 0-.6.8-1 1.8-1q1.6-.1 0-1c-1-.6-1.4-1.8-1.1-3 .4-1.4 0-2-1.1-2-1.3 0-1.7-.7-1.4-3.2.3-3.1.4-3.2 5.5-3.1 2.9 0 5-.4 4.7-.8-.3-.5-2.1-.9-4-.9-4.5 0-4.1-2.4.4-2.8 5.1-.5 3.7-2-1.7-1.9-3.8.1-4.7.5-4.3 1.6zm-6.2 1.5c.3.9 1.1 1.6 1.6 1.6 1.3 0 .5-2.3-1-2.8-.7-.2-1 .2-.6 1.2zm25 1.2c-.4 1-.1 1.4.6 1.2 1.5-.5 2.3-2.8 1-2.8-.5 0-1.3.7-1.6 1.6zm-32 10.1c-.3.3.6 1.7 2 3 2.9 2.7 4.1 2.5 2.5-.5-1.1-2.1-3.5-3.4-4.5-2.5zm35.1 1.3c-.9 1.1-1.7 2.4-1.7 2.8s-1.2 2.5-2.6 4.6c-2.7 3.9-3 4-9.1 2.1-1.5-.5-2.3-.3-2.3.4 0 .6.9 1.1 2 1.1 1.2 0 2 .7 2 1.6 0 1.4.7 1.5 4.5 1 5-.8 5.8.2 2.3 2.7-1.3.9-1.8 1.6-1.2 1.6 2.1.1 6.4-4 6.4-6.2q0-2-1.4-.1c-1.4 1.8-1.5 1.8-2.1.1-.5-1.1-.1-2.5.8-3.5 1.8-1.9 5-9.2 4.5-9.8-.2-.2-1.2.6-2.1 1.6zm-40.1 3.6c.4 2.1 2.5 6.4 4.7 9.7 3.3 4.8 3.8 6 2.6 6.8-2.1 1.3-2.9 1.1-2.9-.6 0-2-3-7.9-3.6-7.2-.3.3-.1 2.2.5 4.4.7 2.5.7 3.9.1 4.1-1.8.6-1.1 3.4.8 2.8.9-.3 3.4-.8 5.5-1.2 4.7-.8 6.3-3.3 4.8-7.6-.8-2.3-.8-4 .1-6.4.9-2.5.9-3.8-.1-5.6-.6-1.3-.9-1.5-.7-.5.3.9.3 3 0 4.6-.6 2.6-.9 2.8-2.5 1.8-1.1-.7-1.9-1.7-1.9-2.3s-.7-1.7-1.5-2.4c-2.2-1.8-1.8.3.5 3.3 2.3 2.9 3.8 8.7 2.3 8.7-1.1 0-5.9-10-6.5-13.4-.1-1.1-.9-2.1-1.6-2.4-1-.3-1.2.5-.6 3.4zM198 54c1.7 2.2 3.5 4.2 3.8 4.4.4.2.7 3.9.6 8.3 0 4.3.3 8.1.8 8.4s.4 1.7-.1 3.1c-.6 1.7-2.6 3.2-6.6 4.8-3 1.2-5.3 2.5-5 2.8.7.8 8.5-2 8.5-3 0-.6.6-.8 1.3-.5.7.2 1.1 1.6.9 3.3-.2 1.6-.1 2.6.2 2.3 1.7-1.6 2.7-15.8 1.9-25-.4-4.5-1.1-6.3-3.7-9.2-4.4-5-6.6-4.7-2.6.3zm-73.6 2.5c.4 1.6.8 4.7.9 6.7.3 4.1 1 5.2 2.8 4.6.9-.3.8-.8-.2-1.8-.8-.8-1.4-3.4-1.4-5.7-.1-2.4-.7-4.9-1.4-5.5-1.1-1.1-1.2-.8-.7 1.7zm49.8 3.2c-2.6 2.9-2.7 3.3-.9 3.3 1.2 0 4.2-4.8 3.5-5.6-.2-.1-1.3.9-2.6 2.3zm-53.2.2c0 .6.5 1.3 1 1.6.6.3 1-.1 1-.9 0-.9-.4-1.6-1-1.6-.5 0-1 .4-1 .9zm61.6.8c-.9 2.7-2.4 14.7-2 15.2.9 1 1.4-1 2.2-8.5.9-8 .9-10.1-.2-6.7zm-6.9 7.1c-5.5 11.6-8.8 17.2-10.1 17.2-.7 0-1.8 1.1-2.6 2.4-1.4 2.7-4.9 4.1-9.2 3.8-1.6-.1-2.8.2-2.8.7 0 1.1 3.5 2.1 7.5 2.1 1.7 0 4.1.6 5.5 1.3 1.5.7 3.7 1 5.5.6l3-.7-2.8-.1c-1.6 0-3.7-.6-4.8-1.1-2.5-1.4-2.2-6 .6-7 2.2-.8 7.5-7.1 7.5-8.8 0-.5.6-1.5 1.4-2.1 1.4-1.2 6.1-14.9 5.4-15.7-.2-.2-2 3.1-4.1 7.4zm10-4.9c-.4 1.8-.6 5.4-.6 8l.1 4.6.9-6c1.1-7 .8-11.9-.4-6.6zm-37.4 1c.4 1.8.7 4.3.8 5.5 0 1.9.1 1.9.8.3.8-2.1 2.6-2.4 2.6-.5 0 .7 1 1.4 2.2 1.6 3.3.5 1.9-2.5-3.1-6.9l-3.9-3.4.6 3.4zm42.2.1c-1.3 4-1.6 7.5-.7 6.5 1-1.1 2.6-8.5 1.8-8.5-.3 0-.7.9-1.1 2zm-68.9 2.6c1.7 4.2 3.2 5.6 4.8 4.7.5-.4.7.3.4 1.5-.4 1.5-.2 1.9.8 1.5 1.7-.6 1.7-.9.4-3.4-.6-1-1.7-1.9-2.5-1.9s-1.5-.6-1.5-1.3c0-.8-.9-2.2-2-3.2q-2-1.8-.4 2.1zm45.6-.2c-4.2 3-4.8 3.6-3.4 3.6.7 0 2.6-1.3 4.4-3 3.9-3.5 3.5-3.8-1-.6zm27.2-.8c-.3 1-1.9 4.8-3.5 8.3-3 6.6-3.3 9.1-.4 4.8 2-3.1 5.8-13.8 5.1-14.5-.3-.2-.8.4-1.2 1.4zm-22.5 1.7c-1.5 1.2-2.9 3-3.2 3.9-.8 2.2-6.1 5.5-10.7 6.7-8.6 2.3-9.5 2.2-13.2-.3-4.4-2.9-16.8-4.1-16.8-1.6 0 .6.8 1 1.8.8 1.2-.2 1.7.4 1.7 2 0 1.4 1.6 3.7 4.4 6.2 5 4.5 5.1 4.6 5.1 2.5 0-.8-.4-1.5-1-1.5-1.2 0-5.5-4.4-6.3-6.4-.8-2.1 1.7-2.1 3.8 0 1.1 1.1 2 1.3 2.6.7.7-.7 2.5-.6 5.5.3 7.1 2.1 13.9.8 20.2-3.9 2.9-2.2 6.2-5.8 7.3-7.9s1.8-3.8 1.7-3.8c-.2 0-1.5 1-2.9 2.3zm-52.8 1.3c0 1.1.3 1.4.6.6.3-.7.2-1.6-.1-1.9-.3-.4-.6.2-.5 1.3zm42.9 4.9c-1.5.9-5.4 1.4-10 1.5-5.2 0-7 .3-6 1 3.2 2.1 13.5.6 17.5-2.5 2.5-1.8 1.7-1.9-1.5 0zm-42.8.7c-1.8 1.8-1.4 2.8.8 2.8 1.1 0 2-.6 2-1.4 0-2.1-1.5-2.7-2.8-1.4zm.3 9.5c-1.4 2.8-2.5 5.5-2.5 5.8 0 .4-1.4 2.5-3.1 4.7l-3.2 3.9 2.2 1.6c1.2.8 2 2.1 1.7 2.9s.1 1.4.9 1.4c1.8 0 2.1-4.6.3-5.2-.8-.3-.5-1.5 1-3.9a91.15 91.15 0 0 0 4.6-8.5c1.4-2.8 3.2-5.4 4-5.7 2.6-1 2 6.2-.9 11.9-1.4 2.7-2.5 5.4-2.5 6.1 0 1.3 3.5 2.7 4.9 1.9 1.1-.7.2-4.6-1.1-4.6-.5 0-.6-.5-.2-1.1.4-.8.9-.8 1.7 0 1.7 1.7 3.7 1.3 3-.5-.5-1.3-.1-1.5 1.8-1 2.3.7 2.4.7.4-.9-1.1-.9-2.1-2.6-2.2-3.8a196.96 196.96 0 0 1-.4-6.2c-.3-4-.4-4.1-4.1-4-3.7 0-4 .3-6.3 5.2zm42.1-1.4c-4 2.6-5.7 3.1-10 2.9-2.8-.1-5.8-.4-6.6-.7-1-.3-1.5.3-1.6 2-.2 2.5 1 3.3 2.1 1.5.4-.6 1.3-.7 2.3-.2 3.3 1.6 8.7.6 13.3-2.6 8.6-5.9 9.1-8.4.5-2.9zm22.4-1.9c0 .8.5 1.8 1 2.1.6.3 1-.3 1-1.4 0-1.2-.4-2.1-1-2.1-.5 0-1 .6-1 1.4zm1.7 10.9c.4 4.4.1 8-1.1 11.9-1.9 6.8-2 7.4-.3 5.9.8-.6 1.6-.8 1.9-.6.7.8 1.7-11 1.5-16.8-.2-2.7.2-4.7.8-4.7 1.1 0-1.5-2-2.7-2-.4 0-.5 2.8-.1 6.3zm-41 .1c-.4.9.3 1.6 2 2.1 3.3.8 4.3-.3 1.9-2.1-2.5-1.8-3.2-1.8-3.9 0zm-8.7 2.1c0 .8.6 1.5 1.4 1.5s2.7.6 4.3 1.4c2.5 1.2 14.8 4.6 16.9 4.6.4 0-.1-.7-1.2-1.5-1.8-1.4-1.7-1.4 1.2-1.5 1.7 0 4.4.4 6 1 3.4 1.1 12.8 2.1 12 1.2-.3-.3-2.1-.7-3.8-.8-1.8-.2-4.9-.9-6.9-1.5s-5.4-.9-7.5-.6c-4.5.6-16.8-1.8-20.1-3.9-2-1.3-2.3-1.3-2.3.1zm44 3c-.8.9-.8 1.5-.2 1.5 1.2 0 2.6-1.9 1.9-2.6-.2-.2-1 .2-1.7 1.1z"/><use xlink:href="#B"/><path d="M118.7 100.6c-.3.4 0 1.9.8 3.5.8 1.5 1.5 3.6 1.5 4.6 0 1.3.3 1.4 1.2.5.7-.7 1.8-1.2 2.5-1.2 2.1 0 1.5 2.1-.7 2.7-2 .5-2.4 2.5-.5 2.4.6 0 1.4.7 1.8 1.5.5.8 2 2 3.5 2.5 2.1.8 2.3 1.2 1.2 1.9-1.2.8-1.1 1 .7 1 1.2 0 2.4.6 2.6 1.2.4 1 .8 1 1.4.1s1.9-.9 5.1 0c3.3.9 4.7.9 6.2-.1 3.5-2.2 7.4-1.4 11.8 2.4 2.3 1.9 4.2 3.2 4.2 2.7-.1-1.4-2.3-3.9-5.3-5.8-3-2-11.7-3.1-12.6-1.6-.8 1.3-11.2-.8-13.4-2.7-1.5-1.4-1.6-1.8-.3-3 1.1-1.1 2-1.2 4.3-.3l2.8 1.1-3.2-.5c-4-.5-4.3.2-.7 1.5 1.8.7 3.1.7 3.9 0 .9-.8 1.5-.8 2 0 .7 1.1 2.5.4 2.5-1 0-.9-8.5-4-11.2-4-1 0-2.6-.9-3.5-1.9-1.2-1.5-2.1-1.7-3.5-1-2.2 1.2-2.5-.6-.3-1.9 2.6-1.4.7-4.5-2.2-3.7-1.6.4-2.2.2-1.8-.5.7-1.1.2-1.4-.8-.4zM130 112c0 1.2-2.8 2.5-3.6 1.7-.9-.9.6-2.7 2.2-2.7.8 0 1.4.5 1.4 1zm12.6-11.1c.5.5 2.9 1.3 5.3 1.8 4.4.8 6.9 3.3 3.4 3.3-1.5 0-1.5.2-.3 1 2.6 1.6.3 2.2-4 1-4.1-1.1-7-.8-3.3.4 2.4.8 11 2.5 15.3 3.1l3.5.5-3.1-2c-2.2-1.4-3-2.6-2.7-3.9.4-1.5-.7-2.2-6.1-4-7.1-2.3-9.6-2.7-8-1.2zm23.4 1.2c0 .5.5.7 1 .4.6-.3 1-.8 1-1.1 0-.2-.4-.4-1-.4-.5 0-1 .5-1 1.1zm-22.5 2.9c.3.5 1.8 1 3.3.9 2.4 0 2.5-.1.7-.9-2.8-1.2-4.7-1.2-4 0zm21.5.4c0 .2 1.4.6 3 .8 1.7.3 3 .1 3-.4 0-.4-1.3-.8-3-.8-1.6 0-3 .2-3 .4zm-49.5 1.6c-.4.6-2.1.8-4 .4-4-.7-4.9.4-2.6 3.2 1.6 2 7.1 3.9 7.1 2.5 0-1.5-2.3-2.9-3.9-2.4-1.2.3-1.1.1.2-.7 1.1-.7 3-1 4.3-.7 2.7.5 2.6.5 1.8-1.7-.7-1.8-2-2.1-2.9-.6zm45.5 0c0 .4.7 1.1 1.6 1.4 2.6 1 5.4.7 5.4-.6 0-.6-.3-.9-.6-.6-.3.4-1.9.2-3.5-.2-1.6-.5-2.9-.5-2.9 0zm-132.7 2.2c-5.2 2.5-6.1 14.1-1.8 23.3 2.5 5.1 9.3 12.5 11.6 12.5 1.4 0-.6-2.6-3.9-5.3-1.2-1-1.9-2.4-1.5-3 .3-.7.3-.9-.2-.5-.4.4-1.8-.9-3.1-2.8-1.9-2.7-2.6-5.4-2.9-11-.5-6.9-.4-7.6 1.9-9.9 1.4-1.4 3.5-2.5 4.8-2.5 1.9 0 2-.2.8-1-1.8-1.2-2.9-1.2-5.7.2zm183.7.1c0 1.6 4 7 4.7 6.3.6-.5-2.4-6.3-3.7-7.1-.5-.3-1 0-1 .8zm8.6 6.2c2.7 4.4 4.3 8.2 4 9.1-.4 1.1-.1 1.4 1.2 1.2 2.1-.4 1.9-5.4-.4-7.9-.8-.8-1.4-2.3-1.4-3.1 0-1.4-5.9-6.8-7.4-6.8-.3 0 1.5 3.4 4 7.5zm6.9-5.2c-.4 1-.5 2.1-.1 2.4 1 1 1.8-.4 1.3-2.4q-.4-1.7-1.2 0zm-85.5.6c0 .5.9 1.2 1.9 1.6 1.2.4 1.8 1.2 1.4 2.1-.3.9.2 1.4 1.5 1.4 3.3 0 3.4-1.7.3-3.9s-5.1-2.7-5.1-1.2zm48-.5c0 3.3 7.6 15 9 14.1.5-.3-.4-2.4-2-4.7-1.7-2.3-3-4.6-3-5.3s-.9-2-2-3-2-1.5-2-1.1z"/><use xlink:href="#B" x="36" y="12"/><path d="M175.5 113.2c-2.1 1.6-3.7 2-8.1 1.6-3-.3-5.4-.1-5.4.4 0 .8 4.7 1.3 10.3 1.1 1.5-.1 2.7.2 2.7.6-.1 1.2-2.7 4.1-3.7 4.1-1.4 0-2.3 4.9-1.1 5.6.4.3.6 1 .3 1.5-.4.5.6.9 2.2.9 3.9.1 14.1 2.6 15.7 4 2.1 1.6 2.7 5 1 5-.8 0-1.7-.6-2-1.4s-1.3-1.2-2.5-.9c-1 .3-1.9.1-1.9-.4 0-1.1-4.4-3.3-6.5-3.3-1.8 0-2 2.6-.3 3.6.7.5.8.3.3-.6-.5-.8-.3-1.1.6-.8.8.3 1.3 1.1 1.1 1.7-.1.7.3 1.1 1 1 2.1-.2 5.8 1.2 5.8 2.3 0 .5.4.6 1 .3 1.5-.9 13 .6 12.4 1.6-1 1.7 5.1.8 8.6-1.2l3.5-2-3 .5c-1.6.3-3.9.8-5 1.1-1.4.4-2.4-.1-3.3-1.6-1.7-2.6-1-3.4 1.8-1.9 1.6.8 3 .8 5.7-.1 2-.6 5.7-.9 8.4-.6s4.9.3 4.9-.2c0-.4-.7-.8-1.5-.9-1.6-.1-11.2-.1-14.2 0s-7.4-1-9-2.4c-1.3-1-1.7-1-2-.1-.3.7-1.2 1.3-2 1.3-.9 0-1.3-.3-1-.7.7-.6-4.2-3.3-7.3-3.9-.8-.2-2-1-2.6-1.9-.9-1.2-2.1-1.5-4.8-1-2 .4-3.6.5-3.6.2 0-.4 1-2.1 2.3-4 4.6-6.7 6.6-8.9 7.8-8.1.7.4.9.3.6-.3-1.3-2.1-4.7-2.1-7.2-.1zm20.3 23c-2 2.9-3.8 3.4-3.8 1s.8-3.2 3.3-3.2c1.8 0 1.8.2.5 2.2zm-9.3-23.2c1 1.1 2 2 2.2 2s-.1-.9-.7-2-1.6-2-2.2-2-.3.9.7 2zm22.5-1.3c0 2 4.2 10.9 4.7 9.6.2-.6-.7-3.3-2.1-6-1.4-2.6-2.5-4.3-2.6-3.6zm-172 1.6c0 1 .7 1.7 1.5 1.7a1.54 1.54 0 0 1 1.5 1.5c0 .9.7 1.8 1.5 2.1 1.3.5 3.8 7 3.4 9.1-.4 2.4.2 8.5.8 7.9.4-.4.6-2.5.4-4.6-.1-2.2.1-4 .6-4 .9 0 3.2 6.8 3.4 9.7 0 1.4.2 1.5.6.3 1.4-3.3 2.6-3.8 6.8-2.3 2.2.7 4.3 2 4.8 2.8 1 1.9 2.8 2 2.1.1-.3-.7.3-1.6 1.3-2s2.9-1.3 4.3-2c1.4-.8 4.9-1.6 7.9-1.9s5.8-1.2 6.2-1.9c.6-1 1.6-.5 3.8 1.9 1.6 1.8 3.7 3.3 4.7 3.3.9 0 3.6-2.1 6.1-4.7 3.3-3.6 4.6-4.4 5.2-3.4.5.7 1.4 1.2 2 1 .7-.3.3-1.6-1-3.8l-2-3.3-3.1 4.1c-2.4 3.1-3.5 3.8-4.5 2.9-1.4-1.2-1.6-.7-1.3 3.7l.2 3-2.8-2.7-2.7-2.7 4.4-4c2.4-2.2 5.9-4.8 7.7-5.6 1.8-.9 3-2 2.7-2.6-.9-1.3-3.1-1.1-4.4.5-1 1.2-1.6 1.2-4.1-.1-1.7-.8-5.6-1.7-8.7-2l-5.8-.6 1.9 2.2c1.7 1.9 5.3 3.1 4.3 1.3-.3-.4.6-.8 1.9-.8 1.3-.1 2.4.2 2.4.7s1 .9 2.1.9c1.9 0 1.6.5-1.9 4.1l-4 4.2-2.3-2.2c-1.2-1.1-2.6-2.1-3.1-2.1-.4 0-.7-1-.5-2.3.2-1.9-.2-2.2-3.2-2-1.8 0-3.8.6-4.5 1.3-.8.9-.4 1 1.7.5 2.1-.6 2.6-.4 2.2.6-.7 2 .6 3.5 4 4.6 4.6 1.5 3.6 2.8-2.5 3.1-3 .2-6.1.9-6.9 1.5-1.1.9-1.5.9-1.8-.1-.8-2.3-3.3-1.3-3.3 1.4 0 2.1-.3 2.5-1.7 1.8-1-.4-4.5-.9-7.8-1-5.9-.2-6-.3-8.7-4.5-1.5-2.4-2.5-4.6-2.2-4.8.3-.3 3.6-.5 7.4-.6 4.9 0 7 .4 7 1.2 0 1.2-2 2-6.9 2.5-1.4.2-2.6.8-2.8 1.5-.3.8 1.1 1.1 4.5 1 2.8-.1 4.8-.5 4.6-.9-.5-.8 4.5-6.8 5.7-6.8.4 0 .6.7.2 1.6-.5 1.4-.3 1.5 1.8.4q2.3-1.3.3-2.1c-3-1-19.4-1-19.4.1 0 .5-.8.6-1.7.2-3.2-1.3-6.3-3.7-6.3-4.8 0-.6-.9-1.9-2-2.9-1.8-1.6-2-1.6-2-.2zm169 .2c.1.5.7 2.1 1.5 3.5 2 3.4 1.9 6-.2 6.1-1.5 0-1.5.2.2.8 2.8 1.2 3.8.3 3.1-2.5-.7-2.7-4.6-9.5-4.6-7.9zm-88 1.5c-1.3.8-1.3 1 .2 1 .9 0 2-.5 2.3-1 .8-1.3-.5-1.3-2.5 0zm111.6.8c-1.1 3.1.2 9.5 1.7 8.9.7-.3 1-1.1.8-1.8l-1.1-5.4c-.5-3.6-.7-3.7-1.4-1.7zM108.1 117c-.5.8-.6 2.1-.3 2.9.3 1 0 1.2-1.2.8-2.1-.8-2-.1.4 3 2 2.5 2 2.6 2 .3 0-1.7.4-2.1 1.8-1.5.9.4 3.2.7 5 .6 1.7-.1 3.2.3 3.2.8 0 .9 4.9 2.5 5.7 1.8.9-1-6.8-4.8-10-4.9-2.1-.1-3.8-.8-4.6-2-.9-1.4-.8-1.8.2-1.8.8 0 1.7.3 2.1.7.9.9 3.5 1.5 6.9 1.4 2.8-.1 5.7 1.8 5.7 3.8 0 1.6 1.7 1.3 2.4-.4.3-.8.1-1.5-.4-1.5-.6 0-1-.6-1-1.4 0-1.7-2.2-2.6-6-2.6-1.6 0-3.1-.4-3.4-.9-1-1.5-7.7-.8-8.5.9zm74-1c-.7.4-1.8 1.9-2.6 3.3-1.2 2.4-1.1 2.7.9 4.1 1.4.9 2.8 1.1 3.6.6s1.8-.6 2.2-.4c.4.3.8-.2.8-1 0-2.1-1.8-3-3.4-1.7-1 .9-1.5.7-2-.5-1.1-2.8 1.1-4 3.4-1.9 1.1 1 2 1.5 2 1.2 0-.4 1.1-.2 2.5.3 2 .7 2.3.6 1.8-.6-.9-2.4-7.1-4.7-9.2-3.4zm37.6 3.9c.4 1.5-.2 2.4-2.1 3.2-1.4.7-2.6 1.9-2.6 2.7 0 1.3.3 1.3 2.2 0 1.2-.8 2.8-2.4 3.5-3.5 1.1-1.7 1.1-2.2-.1-3.2s-1.4-.9-.9.8zm-206.2 3.2c-1.6 1-4.3 1.9-6 1.9-5.3 0-7.5 1.1-7.4 3.4.1 1.7.2 1.7.6.3.3-1.3 1.5-1.7 5.1-1.7 2.5 0 7.2-.5 10.4-1.2 4.5-.9 5.8-1.6 5.8-3 0-2.4-4.5-2.3-8.5.3zm54.2 2.6c-.4.3.3 1.2 1.6 1.8 2.2 1.2 4.7.3 4.7-1.6 0-1-5.3-1.2-6.3-.2zm118.8 1.3c-.3.5 0 .7.8.4.7-.2 2.5-.1 3.8.5 1.8.6 3.2.5 4.9-.5 2.4-1.2 2.2-1.3-3.2-1.4-3.1 0-6 .4-6.3 1zm24 0c.3.5 1 1 1.6 1 .5 0 .9-.5.9-1 0-.6-.7-1-1.6-1-.8 0-1.2.4-.9 1zm-47 1.9c.4.8.2 1.7-.6 2.2-.9.6-1 .9-.2.9 1.9 0 2.7-2.1 1.3-3.3-1-.9-1.1-.9-.5.2zm3.5.1c-.9.6-1 1-.3 1 .6 0 1.5-.5 1.8-1 .8-1.2.4-1.2-1.5 0zm-104 1a1.08 1.08 0 0 0 1 1c.6 0 1-.5 1-1a.94.94 0 0 0-1-1c-.5 0-1 .4-1 1zm-48.2.5c-.2.3-2.9.9-5.8 1.5-6.2 1.2-7 1.8-6.1 4.4.7 1.8.8 1.8 2.8-.3 1.3-1.4 3.5-2.4 5.5-2.5 1.9-.1 4.5-1 5.9-1.9 2.2-1.6 2.2-1.7.3-1.7-1.1 0-2.3.2-2.6.5zm195.4 0c.3.3 1.8.8 3.4 1.1 2.2.3 2.5.2 1.4-.6-1.5-1-5.8-1.4-4.8-.5zm-56.7 1.4c-1.1.5-2.3.7-2.7.4-.5-.2-.8.1-.8.6 0 1.3-.4 1.4 5-.3 2.5-.8 3.6-1.5 2.5-1.5s-2.9.4-4 .8zm77.8 1.3c-.2 1.7 0 1.8 1.5.7.9-.8 1.8-1.4 2-1.5.1-.1-.5-.4-1.6-.6-1.2-.4-1.8.1-1.9 1.4zm-211.2-.3c-1.1.7-1.1 1.5-.2 4.3 1.5 4.6 4.1 19.5 4.1 23.8 0 1.9.4 4.1.9 4.9 1.2 1.9.5-11.4-1.2-21.7-.7-4.5-1.2-8.2-.9-8.2.9 0 4.1 4.6 4.2 6 .1 1.6 2.9 7 3 5.7 0-.4.9-.3 2 .3 2.9 1.5 2.5-.1-1.1-4.6-1.7-2.2-4-5.6-5-7.7-2-3.7-3.3-4.4-5.8-2.8zm-9.6 3.1c-.3.5.1 1 1.1 1 1.3 0 1.4.3.5 1.4-.8 1-.9 1.6-.1 2.1 2.2 1.4.8 3.4-3.7 4.9-5.5 1.9-5.6 1.9-4.8.6.3-.6.2-1-.4-1-1.1 0-3.1 3.2-3.1 4.9 0 1.1 1 .8 8.8-2.6 4-1.7 6-.8 3.3 1.5-1.1.9-2.2 2.8-2.6 4.1-.6 2.1-.5 2.3 1.1 1.6 1.1-.4 3-1 4.3-1.3l2.4-.5-2.2 3.2c-1.7 2.3-12 11-13.7 11.6-.1 0-.5 1.1-.9 2.5q-.8 2.4 2.6-.5c1.9-1.7 5.5-4.3 8-5.9 3.7-2.4 4.8-3.7 5.7-7.3.9-3.1.9-5 .2-6.4-.6-1-1.3-4.8-1.7-8.4-.5-5.4-.9-6.5-2.4-6.5-1 0-2.1.4-2.4 1zm5.5 13.8c0 1.3-1.2 2.2-2.2 1.6s-.1-2.4 1.3-2.4c.5 0 .9.4.9.8zm37.4-11.4c.4 3.2 4.4 10.1 5.3 9.2.3-.2-.5-2.2-1.6-4.5-1.2-2.2-2.1-4.7-2.1-5.5s-.5-1.8-1-2.1c-.7-.4-.9.6-.6 2.9zM227 138c0 .5.4 1 .9 1 .6 0 1.3-.5 1.6-1 .3-.6-.1-1-.9-1-.9 0-1.6.4-1.6 1zm-168 1c0 .5.5 1 1.1 1 .5 0 .7-.5.4-1-.3-.6-.8-1-1.1-1-.2 0-.4.4-.4 1zm84.6-.1c-1 1.5.9 3.1 3.4 3 1.1-.1 1.1-.2-.2-.6-.9-.2-1.8-1.2-2-2.1-.3-1.4-.5-1.4-1.2-.3zM8 140.5c-.8.9-.8 1.5-.2 1.5 1.2 0 2.6-1.9 1.9-2.6-.2-.2-1 .2-1.7 1.1zm125.9.2c-1.3 1.6-1.2 1.7.4.4s2.1-2.1 1.3-2.1c-.2 0-1 .8-1.7 1.7zm36.6-.7c-.3.5-.2 1 .4 1 .5 0 1.3-.5 1.6-1 .3-.6.2-1-.4-1-.5 0-1.3.4-1.6 1zm40.5 2c2 1.3 3.3 1.3 2.5 0-.3-.6-1.4-1-2.3-1-1.5 0-1.5.2-.2 1zm7.5 0c-.3.5-.1 1 .4 1 .6 0 1.1-.5 1.1-1 0-.6-.2-1-.4-1-.3 0-.8.4-1.1 1zm-104.3 1.6c-1.1 1.8-5.8 4.5-6.6 3.7-.4-.4-.4.1 0 1 .6 1.6.8 1.7 2.8.2 1.1-.9 4-2.5 6.4-3.6 2.3-1.1 4.2-2.2 4.2-2.4 0-.9-6.2.1-6.8 1.1zm36.2 1.5c.1 2.9-.3 3.3-3.9 4.4-4.7 1.5-2.6 1.9 2.5.6 2.8-.8 10.1-1.7 15.3-2.1.4 0 .7-.4.7-.9s-1.5-.5-3.2-.1c-4.2.8-8.5-.6-9.3-3.1-1-3-2.3-2.2-2.1 1.2zm10.6-2.4c-1.4.3-2.9.9-3.5 1.5-1.3 1.3 4.6.1 6-1.3.5-.5.7-.8.5-.8-.3.1-1.6.4-3 .6zm30.5.3c-2.5 1.1.1 1.1 3.5 0 2-.6 2.1-.8.5-.8-1.1 0-2.9.3-4 .8zm-7.9 2.4c2 2.7 3.7 3.5 2.8 1.3-.2-.7-1.4-1.8-2.5-2.5q-2.1-1.3-.3 1.2zm-120.4 1.3c-2.6 3.3-2.8 4.9-.6 5.7 1.3.5 1.5.2 1.1-1.3-.3-1.2.3-2.7 1.4-3.7 1-.9 1.9-2.1 1.9-2.6 0-1.6-1.6-.8-3.8 1.9zm58.4-.2c-2 3-2 3.6-.2 2.9 1.6-.6 4-5.4 2.7-5.4-.5 0-1.6 1.1-2.5 2.5zM51 145.4c0 .2.7.7 1.6 1 .8.3 1.2.2.9-.4-.6-1-2.5-1.4-2.5-.6z"/><use xlink:href="#B" x="42" y="46"/><use xlink:href="#B" x="93" y="46"/><path d="M168.8 146.7c.6.2 1.8.2 2.5 0 .6-.3.1-.5-1.3-.5s-1.9.2-1.2.5zm-55.4 2.5c-4.8 3.6-5.1 4.3-.9 1.8 4.9-2.8 6.3-4 4.8-4-.6 0-2.3 1-3.9 2.2zm91.1-1.2c-.3.5.1 1 .9 1 .9 0 1.6-.5 1.6-1 0-.6-.4-1-.9-1-.6 0-1.3.4-1.6 1zM36 149.4c0 .8-.6 1.7-1.2 2-.7.3-.4.4.7.2 2.7-.6 7.5 5.1 5.4 6.5-1.3.8-.5 1.3 1.4 1 .5-.1.6.3.3.8-.4.5-.2 1.2.3 1.5s1.2-.1 1.5-1-1-3.7-3.4-7c-4.3-5.7-5-6.3-5-4zm5-1.1c0 1 7.7 12.4 8.8 13.1.5.3.9-.1.9-.9s-.4-1.2-.8-1c-.3.3-1.2-.9-1.9-2.5-.7-1.7-1.6-3-2-3-.5 0-1.7-1.5-2.9-3.3-1.1-1.7-2.1-2.8-2.1-2.4zm-11.3 3.3c.3.8.9 1.4 1.4 1.4 1.2 0 .7 2.1-.9 3.8s-1.4 11 .4 16.7c.7 2.2 1.3 3.1 1.3 2 .1-1.1 1.5-2.9 3.2-4 2.6-1.7 6.6-8.2 5.6-9.2-.2-.1-1.5 1.4-2.8 3.4-2.7 4-5.4 6.1-6.6 5-.4-.4.5-1.8 1.9-3 2.7-2.3 4.8-5.7 4.8-7.8 0-.7-1.4.7-3 2.9-1.7 2.3-3.5 4.2-4 4.2-1.6 0-1.2-1.5.9-3.4 1.1-1 2.4-3.1 3-4.7 1.3-3.8-.2-2.9-1.9 1.1-.7 1.6-1.6 3-2.1 3-1.3 0-1.1-1.4.6-4.6 2.2-4.2 2-7.9-.4-8.1-1.4-.1-1.8.3-1.4 1.3zm67.8.9l-6 2.9c-.5.2-.8.6-.5.9.7.8 12-4.3 12-5.4s.3-1.2-5.5 1.6zm-93.7 1.1c-4.5 3.2-4.9 4.7-1 3.8 3.5-.8 5.5-2.7 5-4.8-.2-1.4-.9-1.2-4 1zm53.5-.8c1 1 1.7 2.4 1.7 3a2.04 2.04 0 0 0 .9 1.6c.5.4.4-1-.2-2.9S58 151 57.2 151c-1.3 0-1.3.3.1 1.8z"/><use xlink:href="#B" x="6" y="52"/><path d="M116.5 153c-.4.6.7 1 2.7 1 2.5 0 2.9-.3 1.8-1-1.9-1.3-3.7-1.3-4.5 0zm-64.5.9c0 .6.4 1.3 1 1.6s.7-.1.4-.9c-.7-1.8-1.4-2.1-1.4-.7zm97 .1c-1.3.8-1.2 1 .3 1 .9 0 1.7-.5 1.7-1 0-1.2-.1-1.2-2 0z"/><use xlink:href="#B" x="19" y="54"/><path d="M37 154.4c0 .2.8 1 1.8 1.7 1.5 1.3 1.6 1.2.3-.4s-2.1-2.1-2.1-1.3zm28.3 3.1c0 2.2.2 3 .4 1.7.2-1.2.2-3 0-4-.3-.9-.5.1-.4 2.3zm76.7-2.4c0 .5.5.7 1 .4.6-.3 1-.8 1-1.1 0-.2-.4-.4-1-.4-.5 0-1 .5-1 1.1zm-8 .9c-.8.5-1 1-.5 1 .6 0 1.7-.5 2.5-1s1.1-1 .5-1c-.5 0-1.7.5-2.5 1zm-45.5 1c-.3.5-.1 1 .4 1 .6 0 1.1-.5 1.1-1 0-.6-.2-1-.4-1-.3 0-.8.4-1.1 1zM18 158a1.08 1.08 0 0 0 1 1c.6 0 1-.5 1-1a.94.94 0 0 0-1-1c-.5 0-1 .4-1 1zm66.3-.3c-2.1.8-1.5 2.2.7 1.6 1.1-.3 2-.9 2-1.4 0-1-.8-1-2.7-.2zM78 160c-.9.6-1 1-.3 1 .6 0 1.5-.5 1.8-1 .8-1.2.4-1.2-1.5 0zM.5 161c-.3.5-.2 1 .4 1 .5 0 1.3-.5 1.6-1 .3-.6.2-1-.4-1-.5 0-1.3.4-1.6 1zm73.4.7c-1.3 1.6-1.2 1.7.4.4s2.1-2.1 1.3-2.1c-.2 0-1 .8-1.7 1.7zm-10.4 2.4c-1 1.4-.1 2.1 1.9 1.3.9-.3 1.3-1 1-1.5-.7-1.2-2.1-1.1-2.9.2zm-54.1 2.5c-1.8 1.4-1.8 1.5.4.4 1.2-.6 2.2-1.3 2.2-1.5 0-.8-.5-.6-2.6 1.1zm3.6.9c0 .8.2 1.5.4 1.5s.6-.7 1-1.5c.3-.8.1-1.5-.4-1.5-.6 0-1 .7-1 1.5zm37.2 2.2c-2.5 2.5-1.8 3.1 1.2.8 1-.7 1.6-1.8 1.5-2.3-.2-.5-1.4.2-2.7 1.5zm-47.7 2.8c-1.7 1.3-2.6 2.4-2 2.5.6 0 2.3-1.1 4-2.5 1.7-1.3 2.6-2.4 2-2.5-.5 0-2.3 1.1-4 2.5zm9.1-.8c-.6 1.4-.5 1.5.5.6.7-.7 1-1.5.7-1.8s-.9.2-1.2 1.2zm29.4.8c0 .8.2 1.5.4 1.5s.6-.7 1-1.5c.3-.8.1-1.5-.4-1.5-.6 0-1 .7-1 1.5z"/><defs ><path id="B" d="M133.8 99.7c.7.3 1.6.2 1.9-.1.4-.3-.2-.6-1.3-.5-1.1 0-1.4.3-.6.6z"/></defs></svg>