<?xml version="1.0" encoding="UTF-8"?><svg id="Lag_1" xmlns="http://www.w3.org/2000/svg" viewBox="0 0 130 175"><path d="M98.67,0l-.92,2-.92,2c-2.76-1-4.61,1-3.69,3v2l-1.84,1-1.84,1,4.61-1,1.84-1c.61-.67,.31-1.33-.92-2-1.84-1-.92-2,1.84-2h2.76V1l.92,2,.92,3v13c.92,2,1.84,8,.92,14v5l-.92,5v4h.92l.92,1h1.84l-.92-1-1.84-1,.92-4v-7l.92-5v-5l.92-1c1.84,0,2.76-1,2.76-3l-.92-1h-.92l.92,1v1h-.92v1h-.92v-3h-1.84l-.92-2s.92,0,0,0v-2q0-2,1.84-2h.92l-1.84-1h-.92l.92-1q.92,0,0,0v-3l-.92-5-.92-2-1.84-2h-.92Zm5.53,22v0Z"/><path d="M103.28,11h.92l-.92-1v1Zm-9.21,0l-3.69,1-1.84,1h-2.76c.92,0,0,0,0,0h-2.76l-.92,1h-.92l-.92,1s-.92,0,0,0l6.45-1c6.45,0,10.14-2,9.21-3h-1.84Zm-2.76,2h0Zm-6.45,1h0Zm-2.76-2h1.84l.92-1-2.76,1Zm3.69,0h.92l-.92-1v1Zm10.14,2l-2.76,1c-2.16,.28-4.31,.61-6.45,1l6.45-1,3.69,1q0,2-5.53,3h1.84c6.45,0,3.69,1-3.69,2l-4.61,1,7.37-1h3.69c1.84,0,0,2-.92,3v9l-.92,1h-.92c.92-1,0-1-.92-1h-1.84v-1h-1.84c0,1-.92,3-1.84,2v1c.92,1,0,1-.92,2l-2.76,6,.92-1c0-2,1.84-4,2.76-4l.92-3,1.84-1,.92,1h1.84v-1h.92l2.76,3,.92,1h-1.84l-1.84-1v1c1.84,0,1.84,1,.92,3v2l.92-1v-1l.92-1v-1l.92,2v2l.92,1v2h-.92c0,1,0,0,0,0h-.92l-1.84-2-.92-1-.92-2c0-1,0-2,.92-1h.92l-.92-2-.92-1v-2l-.92,2c-.92,1-1.84,1-1.84-1v1l1.84,1h.92v2h-2.76l-.92-1q0-1,0,0h-.92l.92,2h.92l2.76,2,.92,2h-5.53l-1.84,1h2.76c4.61,0,9.21,1,12.9,4l2.76,2c-.92,0,0,0,0,0h.92l2.76,1,3.69,1,3.69,4,1.84,6,.92,3-.92-3c0-4-1.84-8-3.69-10l-1.84-1-.92-1h-2.76c-1.84,0-2.76-1-3.69-3h-.92l-.92-1-2.76-4h-.92v-4q-1.84-1-2.76-10l.92-7,.92-7v-3l-1.84,1Zm2.76,27v1h-.92l.92-1Zm0,5h-.92v-1c.92-1,.92,0,.92,1Zm.92,1h0ZM76.56,15v1l1.84-1h-1.84Z"/><path d="M84.85,20h-4.61l.92,1,4.61-1,2.76-1-3.69,1Zm-9.21,1h0Zm0,2h0Zm-4.61,5c0,2,1.84,2,2.76,1h.92c2.15,.31,4.3,.65,6.45,1l-3.69,3,.92-1h.92q0,1,0,0h.92l.92-1h4.61l-.92-1-1.84-1-1.84-1h-3.69l-1.84-1v1l-.92-1h-1.84l-1.84,1Z"/><path d="M70.11,28v1l-.92,1v4l-.92,2-.92,4v4q0,.67,0,0h.92v1q-.92,0,0,0l.92,1,.92,1q.92,1-.92,2l-5.53,5c-2.31,1.39-4.79,2.4-7.37,3l-5.53,2c-2.76,0-5.53,2-10.14,5l-5.53,3c-1.84,2-11.06,6-12.9,6l-4.61-3c-3.21-2.04-6.61-3.71-10.14-5l-2.76-1-1.84,2v2l-1.84,1c-1.84,2-.92,4,.92,4h1.84l.92,1,5.53,2,2.76,1,2.76,2,2.76,2c1.84,2,2.76,2,6.45,2,9.3-2.44,18.27-6.13,26.72-11l7.37-3h2.76l2.76,1,3.69,1h.92l5.53-1q.92-1,3.69,1l3.69,1,.92,4,.92,4c1.84,3,.92,4-2.76,5h-4.61c-3.36,.5-6.74,.83-10.14,1l-4.61-1-5.53-1-5.53-2c-.92-1-5.53,0-6.45,1h-1.84c-.92-1-3.69,0-5.53,1l-1.84,1c-1.84,0-2.76,5-.92,7l.92,2,.92,4,.92,2c0,2,1.84,4,2.76,4l1.84,2v1l-2.76-2c-3.69-2-5.53-2-6.45-1l-.92,2,.92,5,.92,3v9c-.92,2,0,4,1.84,5l1.84,2,.92,2h1.84l-1.84-3-3.69-8v-9l-.92-2v-5c.92-1,2.76,0,6.45,2l1.84,1,.92,2v-5c0-2-.92-2-1.84-2l-1.84-1-.92-4h.92l-.92-1c-1.84,1-1.84,0-1.84-2l-.92-4c-1.84-3-.92-4,.92-4l1.84-2h.92l1.84-1,1.84,1c.92,1,.92,0,2.76-1,1.84-2,7.37-1,10.14,1l6.45,2h10.14l7.37-1c5.53,0,6.45-1,7.37-3l-.92-3c-.92,0-1.84-3-.92-6v-2l-2.76-1-3.69-2h-4.61l-1.84,1h-1.84l-.92-1h-4.61c-3.69-2-7.37-1-23.03,7l-16.59,6h-4.61l-.92-1-1.84-2-3.69-2-4.61-2-2.76-1h.92l4.61,1,4.61,1,2.76,1,1.84,1,.92,1,1.84-1,2.76-1,3.69-1,.92-1,4.61-2,4.61-1,3.69-2h.92l1.84-1c5.34-2.39,10.57-5.06,15.66-8l-6.45,2c-11.59,5.49-23.62,9.84-35.93,13l-2.76-1h.92v-1H8.38l-2.76-1,.92-1h5.53s0-1,0,0l-.92-1-.92-1h-1.84l.92,1h-3.69c-5.53,0-4.61,0-4.61-1H5.61l3.69-1-1.84-2q-2.76,0-.92,1h-.92l-1.84-2,6.45,1,3.69,3q8.29,5,11.06,4l3.69-2,10.14-6,9.21-5,16.59-6c1.84-3,5.53-5,7.37-5,.92,0,.92-2-.92-4l-1.84-2c0-1,0,0,0,0,.92,1,.92-1,.92-3,0-4,.92-7,2.76-9l.92-1h-2.76v2l-.92-1v-1l.92-4-.92,1Zm0,8l-.92,1,.92-2v1Zm-.92,4v2l-.92-4c.92-1,.92,0,.92,2ZM3.77,72q-.92,0,0,0s.92,0,0,0ZM75.64,31v2l.92-1q.92-2-.92-1Zm10.14,1v1h1.84q.92-1-.92-1h-.92Zm-2.76,0l-.92,1h-1.84l-.92,1h-1.84v4l1.84-2,1.84-2,1.84-1h.92l.92-1h-1.84Zm-4.61,3h0Z"/><path d="M81.17,35c-.92,0-2.76,3-2.76,5l.92,2,.92-3c-.92-2,.92-3,1.84-4h-.92Zm4.61,0h.92l-.92-1v1Zm-12.9,1c-1.84,2-1.84,5,0,6l.92,1-.92-1c-.92-2-.92-3,.92-5q1.84-1,.92-2l-1.84,1Zm20.27-1l.92,2h.92l-1.84-2Z"/><path d="M81.17,38q-.92,2,.92,0l.92-2-1.84,2Zm-7.37,0v3s1.84-3,.92-4l-.92,1Zm2.76,2v4l.92-1v-4q-.92-1-.92,1Zm18.43,3v0Zm-23.96,1h.92l-.92-1v1Zm11.06,0l-.92,1h-4.61v2h3.69l4.61-1v-2h-2.76Zm1.84,1v1l-.92-1-.92,1h-.92v-1h2.76Zm-12.9,0l.92,1h1.84l.92-1h-3.69Zm22.11,4l.92,1c.92,1,.92,3-.92,3l-.92,1,.92,1h-2.76l.92,1,.92,1-.92,1h-.92v3l.92,3v1q0,1,0,0v-1h1.84l-.92-1c-1.84,0,0-6,1.84-8l.92-1v-1l.92-1s0-1,0,0l-.92-1-1.84-2Zm-2.76-1l-.92,1h2.76l-1.84-1Zm5.53,2q.92,2,1.84,1l-1.84-3v2Zm9.21-1h.92q.92,0,0,0h-.92Zm-17.51,1c-1.84,1-2.76,6-1.84,6v1l-.92,1-1.84,1-2.76,2c-1.84,1-4.61,0-4.61-1l-.92-1v-2l-.92-3v5l.92,1,.92,1,1.84,2h4.61l.92-1,.92-1,.92-2,.92-1,.92-1q.92,0,0,0c-.92-1,0-6,1.84-6v-1h-.92Zm-4.61,11c-.92,1-.92,0,0,0v0Z"/><path d="M92.22,50h.92v-1l-.92,1Zm15.66,1h.92v-1l-.92,1Zm-34.09,1l.92,1h.92c0-2-.92-2-1.84-1Zm15.66-1l.92,1h.92l-1.84-1Zm16.59,4l1.84,1v1l.92,1c1.98,2.55,3.82,5.22,5.53,8l-4.61-10c-2.76-3-3.69-4-2.76-2h-.92c-.92-2-1.84-2,0,1Zm-38.7,1l-5.53,3-1.84,1,3.69-1h1.84c.92,0,0,0,0,0l5.53-3,.92-1c0-1,0,0,0,0l-4.61,1Zm30.41,0h.92v-1l-.92,1Zm.92,1v2q.92,2,1.84,1s0-1,0,0v5l.92,3h-.92v-1h-.92v-2l-.92,2,.92,1c-.92,1,0,1,0,0h1.84l2.76,1,.92,1h-4.61v1q-.61,.67,0,0h2.76v-1l2.76,1,2.76,1h3.69l-2.76-1-3.69-2-1.84-1,.92-1v-1h.92v2h1.84l-.92-1-.92-2h-1.84v2c-.92,2-1.84,1-1.84-2l-.92-1v-1h-.92l.92-1h.92l-.92-3h-.92l.92-1-.92-1-.92,1v0h-.92v-1Zm2.76,4l-.92,1v-1l.92-1v1Zm10.14-3l.92,1v-1l-.92-1v1Zm2.76,0l.92,1-.92-1c0-1,0,0,0,0Zm-34.09,1h-2.76v1h3.69v-1h-.92Zm6.45,1l-.92,1q0,1,0,0c-.92-1-.92,0-.92,1,0,0,0,1,0,0h1.84v-2Zm7.37,0v1l.92,3,1.84,3,.92-1h-.92v-2q.92,0,0,0l-.92,1v-2q0-1,0,0l-.92-1v-2h-.92Zm19.35,0l.92,2v-2h-.92Zm-25.8,2l.92,1v-1h-.92Z"/><path d="M104.2,62v1h1.84l-.92-1-.92-1v1Zm3.69-1l.92,1v-1h-.92Zm7.37,2s0,1,0,0v0Zm-12.9,0v3l.92-1c0-1-.92,0,0,0v-1q0-2-.92-1Zm-19.35,0v1l1.84-1h-1.84Zm-8.29,1l-4.61,2q-2.76,0-.92,1h1.84l1.84-1,.92-1h.92l1.84-1h-1.84Zm34.09,0l.92,1,.92,1-.92-2h-.92Zm-20.27,0l.92,1v-1h-.92Zm-10.14,1l-.92,1-.92,1h.92l1.84-1,.92-1h-1.84Zm11.98,1v2h.92l-.92-2-.92-1,.92,1Zm-27.64,0q-.92,1,.92,1l2.76-1h-3.69Zm16.59,1l.92,1v-1h-.92Zm17.51,0v1h.92s0-1,0,0l-.92-1Zm13.82,0v1h.92l-.92-1Zm-37.78,1h.92l-.92-1v1Zm23.03,1v1l-.92,1h.92v-2q0-1,0,0Zm2.76,2v0l.92-1-.92,1Zm-12.9,0l.92,1v1h-.92l.92,1v5l1.84-2,.92-2-.92,2-1.84,1,.92-2v-5h-1.84Zm7.37,1l.92,1v-1c.92,0,0,0,0,0h-.92Zm8.29,0v1h-.92v1q-.92,1,0,0c.92-1,0,0,0,1v1l2.76-2-.92,4v1l.92-3,1.84-2c1.84,1,2.76,2,1.84,5l-.92,4,.92-4,.92-3v-1h-.92c0-1,0-2,.92-1h.92l-.92-1h-.92l-.92-1s-.92,0,0,0c.92,1,0,2-.92,2v-1h-.92v1l-.92-1-.92,1v-2h-.92Zm-11.06,1v0Zm19.35,1v0Zm0,0h.92v-1l-.92,1Zm-19.35,1h0q.92-1,0,0Zm19.35,2v1l-.92-1h.92Zm-18.43,1h.92v-1l-.92,1Zm7.37,0v1l.92-2-.92,1Zm-7.37,1v0s-.92,0,0,0Zm17.51,1v0c0-1-.92,0,0,0Zm-12.9,0l-1.84,1q-.92,0,0,0l-.92,1-.92,1-.92,1-1.84,2v1c1.84,0,3.69-2,3.69-3l.92-1,1.84-1s0-1,0,0c.92,1-1.84,4-5.53,7l4.61,4v-1l.92-4,1.84-5c0-2,.92-2,.92-1l.92,1v1l-.92,1-.92,1-.92,5c-.92,2-.92,3-1.84,2v1h.92l.92,1s0,1,0,0l-.92,1,1.84-1h3.69c-.92-2,.92-2,2.76-1h2.76c.92-1,2.76-1,3.69,1h.92l.92,1c.92,0,1.84,3,.92,4h.92l1.84,2,2.76,1,1.84,2v3l.92,1v1h-3.69l-3.69-1-.92-1v1l4.61,1,1.84,1h1.84l2.76-1h1.84v2l-.92,3v2s.92,0,0,0l.92-1c.92-1,1.84,0,2.76,1l.92,1v-1l-1.84-2-.92-3c0-2-.92-3-2.76-3l-1.84-2c0-3-1.84-4-3.69-5-1.84,0-3.69-3-4.61-5,0-2-.92-2-2.76-3q-2.76-2-4.61-1h-2.76q-1.84-1-1.84-3v-5l-2.76,9-.92-1,.92-5,.92-2h.92v-1l-.92-1,.92-2,.92,1c1.84,0,.92-1-1.84-2l-2.76-1-.92,1q0,.67,0,0v-1h-.92Zm.92,4h-.92l.92-1c.92-1,0,0,0,0v1Zm-4.61,1h-.92l.92-1v1Zm1.84,3l-.92,1v-2q1.84-2,.92,1Zm7.37,5v0Zm-10.14-12h.92c.92,0,0,0,0,0h-.92Zm11.06,0h.92l-.92-1v1Zm8.29,0v1l.92-1h-.92Zm-23.03,2h.92l.92-1-1.84,1Zm20.27,0q0,1,0,0v0Z"/><path d="M103.28,84l.92,2v3l.92-1c.92,1,0,0,0,0l-.92-1v-2c0-1,.92-1,3.69,1l1.84,3v-1l-3.69-4h-2.76Zm-52.52,1h.92v0h-.92Zm-2.76,2h.92l-.92-1v1Zm8.29,1h0Zm18.43,0l-3.69,1h1.84l1.84-1h0Zm-38.7,1l1.84,1-.92-1h-.92Zm13.82,0l.92,1,1.84-1-.92-1-1.84,1Zm35.93-1l1.84,1h1.84l-3.69-1Zm-11.98,1v0q.92,0,0,0Zm34.09,1v0Zm-19.35,1h0Zm-51.6,1l.92,1-.92-2-.92-1,.92,2Zm49.76-1v1l.92-1h-.92Zm-13.82,1l.92,1v1l.92-1-1.84-2v1Zm-30.41,1l.92-1h-.92v1Zm48.83,0v1l.92-1h-.92Zm-11.06,1l1.84,1,.92-1h-1.84l-.92-1v1Zm-42.38,0v1c.92,1,1.84,0,1.84-1h-1.84Zm52.52,2v0Zm-6.45,2l.92,1,.92-1h-1.84Zm16.59,0l.92,1,.92-1h-1.84Zm-8.29,1h.92v-1l-.92,1Zm10.14,0v4l.92-1,.92-2h.92l1.84-1c0,1,.92,0,0,0h-3.69v-1l-.92,1Zm-4.61,1l.92,1v-1h-.92l-.92-1,.92,1Zm13.82,1h.92v-1l-.92,1Zm.92,0l1.84,2-.92-1-.92-1Zm-32.25,1l.92,1v-1h-.92Zm-25.8,1l.92,1-.92-2v1Zm-3.69,0v1l.92,2,.92,1-1.84-4Zm24.88,0l.92,1s.92,0,0,0v-1h-.92Zm-30.41,1l-.92,1,.92-1h0Zm69.1,0l-.92,1h1.84q0-1,0,0h.92l-.92-1h-.92Zm-55.28,0l.92,1v-1h-.92Zm45.15,1s.92,0,0,0v0Zm-26.72,0v0Zm-44.23,1v3l.92-2h1.84l-.92-1h-1.84Zm25.8,0l1.84,1-1.84-1-.92-1,.92,1Zm-12.9,0l-.92,1h1.84l-.92-1Zm59.89,0v1c.92,0,1.84,0,.92-1h-.92Zm10.14,0l.92,1v-1h-.92Zm-38.7,1v1l.92-1h-.92Zm-5.53,0v1h.92l-.92-1Zm7.37,0v1l.92-1h-.92Zm23.96,0v1h1.84v-1h-1.84Zm-67.26,1v1l1.84-1h-1.84Zm60.81,1h.92v-1l-.92,1Zm-40.54,0c-1.84,2-1.84,3,0,1l.92-2-.92,1Zm12.9,3l.92,2v-3h-.92v1Zm55.28-1l-.92,2,1.84-1c0-1,0-2-.92-1Zm-47.91,2h.92v-1l-.92-1v2Zm-36.86,0s0,1,0,0v0Zm51.6-1l-1.84,4,.92-1,1.84-2v-1h-.92Zm-31.33,1l.92,1c0,1-.92,0,0,0l.92,1v-2h-1.84q-.61,0,0,0Zm11.98,0l.92,1v-1h-.92Zm47.91,1v1l.92-1h-.92Zm2.76,0h0Zm-29.48,1v2l.92-1q0-2-.92-1Zm-1.84,2v1l.92-1h-.92Zm35.01,0l.92,1v-1h-.92Zm-2.76,1h0q-.92,0,0,0Zm3.69,1v1c.92,0,1.84-1,.92-2l-.92,1Zm-88.45,0h.92l-.92-1v1Zm51.6,2v1l.92-2v-1l-.92,2Zm33.17-2h0q-.92,0,0,0Zm-61.73,0l.92,1-.92-1Zm2.76,0h0Zm58.05,1v0Zm-85.69,4v1l.92-1h-.92Zm2.76,1l.92-1h-.92v1Zm2.76-1l-1.84,2v1l1.84-2v-1Zm5.53,1c0,1,0,2,.92,0h.92v-1l-1.84,1Zm81.08-1v1h.92l-.92-1Zm-93.98,1v0Zm90.3,1v0Zm-82.93,0v1h.92l-.92-1Zm6.45,1h.92v-1l-.92,1Zm80.16,0h.92l-1.84-1,.92,1Zm-91.22,0v1l.92-1h-.92Zm31.33,1l.92,1v-1h-.92Zm12.9,1l1.84,1h.92v1l-.92,1c.92,1,1.84,0,1.84-2h-.92l-.92-1-.92-1-.92,1Zm-9.21,1l.92,1,.92-1h-1.84Zm56.21,0v1l-.92,1h.92l.92-1c0-2-.92-2-.92-1Zm-53.44,1h.92v-1l-.92,1Zm11.98,0l-.92,1c.92,0,1.84-1,.92-2v1Zm3.69,0h.92l-.92-1v1Zm-51.6,0l.92,1v-1h-.92Zm30.41,0v0Zm11.06,1h.92l-.92-1v1Zm-17.51,2q0,1,0,0l.92-1-.92,1Zm12.9,0h.92l-.92-1v1Zm21.19,0h.92q.92,1,0,0h-.92Zm-49.76,0l.92,1v-1h-.92Zm12.9,1l.92,1v-1h-.92Zm20.27,0h.92c1.84,0,1.84-1,0-1l-.92,1Zm-35.93,1h1.84q.92-1-.92-1l-.92,1Zm-3.69,1l1.84,3,.92,2v1q1.84,0,.92,5l.92,4v-7l-2.76-6-.92-1h.92q.92,1,0,0c-.92-2-1.84-2-1.84-1Zm22.11,0h.92s.92,0,0,0v-1l-.92,1Zm65.42,1h.92l-.92-1v1Zm-63.58,0h0Zm2.76,0l-.92,1h.92l.92-1h-.92Zm-6.45,2l.92,1c1.84,2,2.76,3,3.69,8v13l-.92,1v3l.92,1,.92-9v-11l-3.69-6-1.84-1Zm49.76,2l.92,1v-1l-.92-1v1Z"/><path d="M43.39,145v4l.92-2v-2h-.92Zm3.69,1l.92,2,.92,1-.92-2-.92-1Zm6.45,1v0Zm6.45,2h.92l-.92-1v1Zm30.41,2c0,1,.92,1,.92-1v-1l-.92,2Zm-41.46,1l.92,2c0,1,0,0,0,0v-3l-.92-2v3Zm29.48-2v1l.92-1h-.92Zm-31.33,2l-.92,1-1.84,2,.92-1h.92l1.84-3-.92,1Zm30.41,0l.92,1v-1h-.92Zm8.29,1h.92l-.92-1v1Zm7.37,0h0Zm-46.99,2h.92c0-1,0,0,0,0h-.92Zm3.69,0c-1.23,.67-1.54,1.33-.92,2h.92q1.84,0,4.61,4l2.76,5,1.84,2,.92,3-.92-5-2.76-3c-3.69-6-4.61-8-6.45-8Zm10.14,13q0,1,0,0l-.92-1,.92,1Zm32.25-9v0Zm-31.33,2l1.84,1c.92-2,0-3-.92-3h-1.84l.92,2Zm4.61-1h0Zm20.27,3l.92,1c.92,0,0,0,0,0l-.92-1Zm2.76,1h1.84q0,1,0,0c0-1-1.84-2-1.84,0Zm-25.8,0l-.92,2q-.92,0,0,0l1.84-1c0-2-.92-2-.92-1Zm28.56,1q-.92,0,0,0h0Zm-21.19,1c-1.84,1-1.84,2-.92,2l.92-1v-1Zm14.74,1l1.84,1-.92-1c-.92,0,0,0,0,0l-.92-1v1Zm-15.66,2v1l.92-1h-.92Zm-4.61,1v2h.92v-1l.92-1q.92,0,0,0h-1.84Zm25.8,0l.92,1v-1h-.92Zm14.74-12l-.92,1h.92l.92-1h-.92Z"/><path d="M66.42,171v1h.92c0-1,0-2-.92-1Zm5.53,0v2l.92-1v-1h-.92Zm29.48-12h.92l-.92-1v1Zm-30.41,15l.92-1h-.92v1Zm34.09-13l.92,1v-1h-.92Zm6.45,0h-1.84l-1.84,1h4.61l-.92-1Zm-5.53,2l2.76,1-1.84-1h-.92Zm12.9,1h-.92v1l1.84-1h-.92Zm-13.82,1l-.92,1,.92-1s0-1,0,0Zm24.88,0q0,1,0,0v0Zm-23.96,0v1l.92-1h-.92Zm17.51,1l-2.76,2c-2.76,2-4.61,3-13.82,5l-23.96,1q-.92,0,0,0c.92-1,0-1-1.84-1h-3.69l-2.76,1h-1.84l18.43,1,18.43-2,11.06-4c2.76-1,3.69-3,2.76-3Zm-7.37-97c-.61-2-1.23-2.67-1.84-2l.92,3c.92,2,.92,3-1.84,9l-1.84,6c-.77,2.28-1.38,4.62-1.84,7l2.76-4,.92-5c3.69-9,3.69-11,2.76-14Zm-4.61,23l-.92-2,.92-1v3Z"/></svg>