<svg xmlns="http://www.w3.org/2000/svg" viewBox="0 0 126.9 175"><path d="m59 0 2 1 1 1h1l1 1 1 1 1 1 1 2 2 3 6 9 1 3v9l-1 16v3a9 9 0 0 1-1 4 85 85 0 0 0-5 1l-1-4h-1v-1l-1-3h-1l-1 1v-2l-1-4c-2-2-2-3-1-4l3-1v-1h-1l-1-1 2-8 1-7-1-3-1-1-3-2h-1 2l2-1-1-1v-1l1 1c1-1 2 0 2 1v1l1 1 1 3 1 1v10l-1 3-1 2-1 2h3l1-7v-9l-1-1v-2h-1v-1l-1-1v-2l-1-1c0-1 0 0 0 0v-1l-1-1-3-4-1-1-3 1h-3c-2 0-1 0 0-1 2 0 2-1 2-2h-2l-1-1c0-1 0 0 0 0h-1l2-2h4ZM19 7v4h-3V8h1l1-1h1Zm-5 4v3l-3 4v1l1 1 2 4 3 3 2 4-1 1v2l2 1 2 2h1l3 1v-9l-1-3-1-2v-2l1 1v1l1-1v-1h1l1-1 3-2h1v1l1 1h2c1 1 2 1 1 2l-1 1 1 2v2l-2 2c-2 2-2 3-1 4l1 1 1 3v9l2 4 1 1 1 1 2 4v1h1l1 1h1l-1-4-2-3 1-1v-1l1-1 2-1c1-1 0-3-1-4v-4l2 7 2 4 2 3 2 3 3 4c1 3 0 5-1 6l-1 1h-1l-1-1c-3-1-6-4-7-6 0-1 0-1 0 0 0 2-1 2-1 1s-1-1-1 3v3l1 4h1l2-3-1-2-1-3q0-1 0 0l2 2 2 3 1 2c1 1-1 6-4 10l-1 1-2 1h2l1 1v1l1 1v3l1 1v4a41 41 0 0 1-1 8l1 7 1 2 1 2c1 3-1 6-4 7v4l1 14a52 52 0 0 0 1 12l2 9-1 3-2 1-2-1-1-7a620 620 0 0 1-3-17 279 279 0 0 0-4-17l-6-1h-3v-1l-2-8v-2l-1-4-1-9v-4l-1-2-1-5-1-2-1-2c-3-7-3-7-2-12l-1-4v-2l1-7h1v-2l1-1v-3c-1-1-1 0-1 1l-1 2-1 1V44l-1-1v-2l-1 1-5 12c0 1-1 2-2 1l-1-1-1-1H4l1 1-1-2v-2l-1-2v-1l-1 1c-1 1-2 1-2-1l1-3 4-3 3-3 3-5 2-3v-2H9L3 18c0-2 1-3 3-4l5-3h3Zm4 1q1 0 0 0h-2 2Zm16 7v2l-1-2h1Zm82 19h4l1 1 2 2 1 1 3 1-1 1h-2l-4 3-1 2-1 1h-2l-3 1a22 22 0 0 0-4 2h-2l-10 5c-1 2-2 2-1 0 0-3 1-4 4-7l1-1h2l3-1 3-3 5-6 1-2h1Zm-38 3v2c-1 2-1 2-2 1v-6 1l2 2Zm3 7-1 2-1 1-1-1 1-1 2-1Zm15 0a111 111 0 0 0-4 6l1-4 2-2h1Zm23 4c1 1 2 3 2 9 1 1 0 6-1 8l-1 2a174 174 0 0 1-4 14l-2 4-5 7-2 6v2l1 2v1l3 7v1c-2 0-4-3-4-7h-1l-2-3a282 282 0 0 1 0-6l1-3 6-12 1-2 1-2v-8a46 46 0 0 0-1-11v-3c2-5 5-7 8-6ZM59 68l1 1v4a101 101 0 0 1-1 16l-5-10-1-2c0-1 0 0 0 0l-1-3-3-5 1-1 1 1h2l4-2v-1l2 2Zm-3 26 3 3 1 8 1 10v11l1 5v2l4 9v4l1 5 1 3 1 6c1 1 1 1-1 1h-1l-1-1v3c-1 1-1 0-1-1l-1-2-1-1a38 38 0 0 0-3-8v-1l-1-1v-2l-3-9-2-4-2-6a136 136 0 0 1 1-31l1-4v-1l2 2Zm23 33h3c3 1 3 1 3 4l-1 4v2l1 5 2 5v22c0 2-1 3-3 3h-3v-4l-1-5-1-3-1-6-1-3-1-3v-5l-1-5-1-5v-6h5Zm32 5 4 7c4 5 6 9 7 18l1 4 1 3 2 6 1 3-1 2h-5l-1-1v-3l-1-2a22 22 0 0 0-2-8l-1-1-6-10-1-4-1-2-1-1v-2l-3-3-2-3-3-5-1-1h4a16 16 0 0 0 8-2l1 5Zm-41 31-1 3-2 1v-2l1-2h2Z"/><path d="m24 40 4 3 1 1v-3h-2l-1-1h-2ZM21 42a33 33 0 0 0 2 4l-1 2v1l-1 5-1 2-2 1v1l1 1h1l2-2 1-2 2-5v-1l1-1v-2l-2-1-3-3ZM24 42v1l2 1 1 1v-1l-1-1-2-1ZM44 73v-1 1ZM40 77h1-1c-1 0 0 0 0 0ZM43 79v1l-2 1-1 1h1l1-1 2-2h-1ZM30 113l-1 1h1v-1l1-1-1 1ZM118 48h1v-1l-1 1Z"/></svg>