<svg xmlns="http://www.w3.org/2000/svg" viewBox="0 0 136.7 175"><path d="m80 0 7 1 6 2 2 1-1-2c-2-1-3-2-8-2h-6ZM125 2l-2 1c-4 1-10 5-15 9l-5 4-1-2-1-4-2-2-1-2 1 4c2 1 2 8 1 8-2 0-1 1 1 2l6-1h-1c-2 0-4 0-3-1l1-1 5-4 6-4 2-2 2-1h1l2-1 4-1c3-2 6-2 8 0s2 6 0 6l-2 2-2 2-1 2-2 2-4 5c-2 3-2 3-2 9l1 6v3a62 62 0 0 1-6 21v3c0 4-3 5-17 5H83c-9-3-10-3-7-8 2-2 3-10 2-12-1-1-1 0-1 2 1 3-1 8-2 10l-2 5c1 2 1 2 3 2l2 1c3 2 20 3 29 2 5-1 6-1 8-3l2-4 3-8 1-4 2-6V37c0-11 0-12 2-14l2-3 5-5 1-2c4-3 5-7 2-10l-3-2h-5l-2 1ZM78 2v1l1-1h-1ZM86 4l1 1 2 1c2-1 2-2 0-1l-2-1h-1c-1 0-1 0 0 0ZM96 5l1 1-1-2v1ZM77 6c-2 0-3 2-2 2l1-1 2-1 6 3 1-1 1-1c-1-1-8-2-9-1ZM92 7l1 1c2-1 1-2 0-2-2 0-2 0-1 1Z"/><path d="M117 10c-3 2-4 3-2 3l2-2 2-1 1-1 1-1h1c-1-1-1-1-5 2ZM89 10l-2 1h5l4 1h2l-3-1-2-1-2-1-2 1ZM84 11c-1 1 1 3 2 3v-2q-1-2-2-1ZM74 11l-1 4c0 1 0 2 1 1l1-2v-4l-1 1ZM87 15h-6l-4 1 3 1h7l3-1 5-1h3l-3-1h-4l-4 1ZM110 14h2-2ZM116 17v1l1-1h-1ZM74 18c-1 1 3 6 4 7l1 2-2 1-9 7-2 1-1 2-1 1a109 109 0 0 0-9 9l-3 1c-1 1-3 3-5 3l-6 3-8 6-2 1-5 3-2 1c-3 2-10 3-12 2h-2l1 1 5 1 8-2 2-1 2-1 5-3 11-7 6-3c4-2 13-9 17-14 7-9 16-14 19-10 3 3 1 13-2 14l-5 5 8-6 2-7c0-5-1-6-6-8-3-2-6-4-6-6l-3-3ZM113 21l4 4h1c1-2-3-5-6-5l1 1ZM106 22l-1 4c-2 2-5 2-15 0h-2c0 1 9 3 15 2 3 0 6-5 3-7v1ZM106 38l-10 4a264 264 0 0 1 1 1c10-5 16-6 23-4v-1c-3-2-8-2-14 0Z"/><path d="M77 46a306 306 0 0 1-30 20l-7 3-10 4-1 1h-2l-2 2c-2 2-1 2 2 1 1-1 4-3 7-3l4-3 2-1h3l1-1 2-1 2-1 3-1 6-4c5-3 17-11 22-16l2-3-4 3ZM80 53v1-2 1ZM80 57c1 3 5 6 9 6h19c3 0 7-2 7-3h-1l-4 2H88l-7-5-1-1v2ZM91 66l1 1v-1h-1ZM8 70l-4 2c-3 0-3 1-2 1h3l5-1c3 0 3 0 0-2H8ZM71 72l1 1 1-1h-2ZM18 74h1l-1-1v1ZM1 75l1 2 1 1c0 2 3 4 5 4v-1l-5-4-2-3v1ZM15 78v1l1-1-1-1v1ZM20 79v1h3l1-1h-4ZM116 81l-1 5-1 3-1 2h2l2-6c0-4 0-6-1-4ZM19 81l-1 2v1h-1 2l2-1v-1l-2-1ZM10 82v1l2 1 3 1q1 0 0 0l-3-2-2-1ZM93 87v6-11 5ZM66 88v2c1 1 1 1 1-1s-1-2-1-1ZM66 94v3l1 1v-5l-1-1v2ZM113 94l-1 4v1l-1 1h1l3-8-2 2ZM81 94l2 2 7 1 7 1h2l-1-1h-1l-6-1-8-1-2-1ZM68 104l3 15 2 11c0 6 2 9 7 21l3 6 3-1c6-1 7-1 8 2l-1 2v1l5 9h1l1-1v1l1 2c1 2 2-1 1-3v-3l-2-2-2-1h-1c2-1 2-2-1-1l-2-1c0-2 5-2 5 0l1 1v-1l3-2 2-1h-7l-2-2-2-1-1-11 2 3 2 3 1 2c0 3 1 4 2 2s3-3 7-3l2 2c0 2 1 2 1 1l8-1h7-4l-4-1-4-1h-3l-2-7-2-7v-1l-5-7c-2-2-3-6-1-8l1-2 1-2 2-3 1-2 1-2 1-1s1 0 0 0l1-2 1-2 1-1v-2l-2 2-5 9c-5 8-7 13-4 15l6 10 1 11-4 1-3 1-2-4-2-4v-1l-1 1c-2-1-3 1-3 6l-1 5h-4c-2 1-3 1-3-1l-1-3-6-14-1-5-1-4-2-12-1-3-2-8-1-5v5Zm33 64-1 1-1-1-1-1v-1c0-1 1-2 2 0l1 2Z"/><path d="M89 104v7c1 2 2-3 1-7v-4l-1 4ZM53 110h2-2ZM87 114l1 1v-2l-1 1ZM61 116h7-7ZM110 117h17-17ZM55 119h5c2-1 0-1-2-1l-3 1ZM105 122h-3 15l-6-1-6 1ZM53 123h3-3ZM62 123h3c4 0 4-1 1-1l-4 1ZM103 126h18c2-1-1-1-6-1l-12 1ZM125 125h3-3ZM104 128h7-7ZM89 132c2 1 2 2 1 2v1c1 0 2-3 0-3h-1ZM112 132h3c1-1 0-1-1-1-2 0-3 0-2 1ZM108 132h2-2ZM40 135h11a174 174 0 0 1 20 0H40ZM111 137h4-4ZM122 144h1-1c-1 0-1 0 0 0ZM111 145l2-1h-1l-1 1ZM112 146h4-4ZM113 148l-2 1h22l-7-1a227 227 0 0 1-13 0ZM63 149a129 129 0 0 1-10 1l8 1 7-1h4l5-1H63ZM19 150c-3 1-3 1 3 1l9-1H19ZM36 150h3-3ZM47 152h3-3ZM94 152l1 1h1c0-1-1-2-2-1ZM71 153h9-9ZM132 153h3l-2-1c-3 0-3 0-1 1ZM30 154h-1l-2 1h7c8 0 10 0 6-1H30Z"/><path d="M43 154c-1 1 0 1 2 1h1l-1-1h-2ZM50 154h1l1 1h2c2-1 2-1 0-1h-4ZM58 155h2c2 0 3-1 1-1l-3 1ZM63 154l2 1h1l-3-1ZM70 155c-1 1 0 1 1 1l2 1 4-1 4-1H70ZM109 157v4l3 1 11-1 8-1h-20c-2-1-2-2-1-2l1-1c0-2-1-2-2 0Z"/><path d="M113 156v1l1-1h1-2ZM122 156h1l-1-1v1ZM98 156l1 1 1-1h-2ZM51 158H40l3 1h3l6-1h7l8-1h-8l-8 1ZM33 158h5-5ZM80 159c1 0 1 1-5 1h-6 16c1-1-1-2-4-2-2 0-3 0-1 1ZM85 162c0 2-1 2-4 2-2 0-3 0-2 1l8-1v-1l2-1 2-1h-2l-4 1ZM63 162h1-1s-1 0 0 0ZM48 163h2-2ZM110 164l1 2h5l-1-1-1-1h-1l-1-1c-1-1-2 0-2 1ZM47 167h6l-3-1h-4l1 1ZM56 167h1-1c-1 0-1 0 0 0ZM113 169h3c1 0 1-1-1-1h-2ZM42 169h1l-1-1v1ZM74 169l-3 1h4a155 155 0 0 1 8-1h-9ZM88 170l1 2 1-1-1-1h-1ZM107 171l-2 1v1l2 1h2l1-1 2-1-1-1h-4ZM128 171c-3 1-3 1 4 1h4l-8-1ZM43 172l-8 1 18-1-1-1-9 1ZM87 172v1l1-1-1-1v1ZM56 172l2 1c3-1 2-1 0-1h-2ZM120 173h1l2-1h-2l-1 1ZM78 173l-6 1c-7 1-8 1-1 1l8-1c3-1 4-1 1-1h-2ZM90 174l1 1 3-1 3-1h-3l-4 1ZM103 174l1 1v-1h-1Z"/></svg>