<svg id="Lag_1" xmlns="http://www.w3.org/2000/svg" viewBox="0 0 127.1 175">
  <defs>
    <style>
      .cls-1{fill:#f8cabc}
    </style>
  </defs>
  <path class="cls-1" d="m58 1 2 1c1 0 1 1-1 4l-3 12 1 6 1 3-1 4c-1 4-2 5-5 5l-5 1H34c-4 1-6 2-8 5l-2 1-8 5-2 2-1 1-2 1-3 3-4 3-2 1c-1 0-2 1-2 4s1 5 3 6h8l13-6 5-3 3-2c1 0 7 11 6 12l1 1 1 5 1 7 3 5c5 14 6 18 8 20v2l1 2c2 1 2 4 1 5-2 1-3 4-2 16v6l-1 6-1 5-5 12-4 13 2-1v-3l4-8a125 125 0 0 1 4-10l1-4c1 0 2-6 1-8v-16l2-7c2-2 2-5 0-7l-1-2-2-4v-1l-1-1-4-9-1-4-2-5-2-5-1-6v-3c-1 0-2 0-1-1a20 20 0 0 0-4-10c-2-3-4-4-6-3l-8 5-12 6c-2 1-7 0-8-2l-1-3c0-2 0-2 2-3l2-2 3-1 5-4c3-3 3-4 3-5 0-2 0-2 4-2 3 0 4-1 7-4l4-2 3-2 6 1h3l2 1 1-1h4l2-1 2 1 1-1 2-3 2-3 1-5v-2l-2-4 1-3c-1-5 1-11 2-12l1-2V1h-2l-2-1v1ZM94 1l1 3V1h-1ZM89 2c0 1 0 2 1 1l1-1-1-1-1 1ZM92 3v3l2 8v7l-2 3-3 3h-2l-1-1-1 1h-2l-1 1-1 2v1l-1 1v2l-1 3h1l1 1h1l-1-1c-1-2-1-3 1-6l2-2h1v2c0 2 0 3-1 2s0 1 0 1l1 1c1-1 1 1 1 3v1-4l1-1v-1l1-4 1-1h2l1-1c3-2 4-4 3-8 0-9-1-15-2-15V2l-1 1ZM77 3h2l-3-1c-1 0-1 1 1 1ZM67 4l-2 1v1l3-1V4l-1-1v1ZM96 4l1 1 3 6-2 5c-2 4-2 4 1 1 2-3 3-6 2-9s-5-7-5-4ZM73 5c0 2 1 3 1 1V5h-1ZM85 6l1 2V7l-1-1c-1 0-1 0 0 0ZM76 7v1l2 1c1 0 1-1-1-2h-1ZM65 10v1l1-1V9l-1 1ZM68 11h2l-3-1 1 1Z"/>
  <path class="cls-1" d="M97 12v1l1-1h-1ZM63 15l-1 1 3 1 5 1v-1l-1-2-1-1h-1c0-1-3-1-4 1Zm4 0c2 2 1 2-1 1l-3-1h4ZM92 15h1v-1l-1 1ZM88 20v3q-1 1 0 0v-3q0-1 0 0ZM80 27v1-2 1ZM69 32v1l1-2-1-1v2ZM63 34v2c1 1 1 0 1-2v-2l-1 2ZM84 40v1l2 1 2 1 5 1h5l2 4 1 3 1 2 1-1-1-3-3-5-5-2-10-2ZM82 48l-1 3-1 3 1-1 2-6-1 1ZM62 49v1l1-1h-1ZM30 50h1-1s-1 0 0 0ZM35 53c0 1 0 1 0 0v-1 1ZM52 53l5 3 3 2a85 85 0 0 0 13 7l11 5h3l-1-1-3-2v-1l-1 1c0 1-1 1-3-1l-7-2-1-1-6-3-6-3-1-1-1-1-6-3 1 1ZM36 53l1 2c2 1 2 0 1-1l-2-1ZM101 54l-1 6-1 8v6c-1 1-2 6-1 7l1-3 1-4a11 11 0 0 0 0-1v-5l2-10v-4h-1ZM96 85v1l1-2-1 1ZM94 92l1 1v-2l-1-1v2ZM65 93h-1 3v-1l-2 1ZM69 93h4l-2-1c-2 0-3 0-2 1ZM96 95a769 769 0 0 0-10 9 42 42 0 0 1-24 9l-5 1h1l5-1c6 0 10-1 11-2h1c1 1 9-3 13-6l4-3 3-3c3-3 3-3 3-1l1 1c1-1 1 0 1 2 0 1 0 1 0 0 1-1 3 0 3 1l2 2 8 11 1 1 1 3v1c0-1 1-1 1 1 2 3 2 4 1 4l-1-2-4-1 1 1h1l1 1c0 1 0 2-2 2l-3 2c-1 1 0 8 2 10l1 3 2 4 1 5v4l1 4 1 3v1c1 0 2 1 2 5 0 5 1 8 2 8v-4l-3-12c-2-7-2-8-1-8 0-1-1-5-3-7l-1-4-1-3-2-5v-4l5-1 4-1a85 85 0 0 0-17-25l-2-2c-2-1-2-2-2-3v-1l-1-1-2 1Z"/>
  <path class="cls-1" d="M70 114h-1v2c0 1 0 0 0 0h2l1 1v2h1l1-1h2l-1-1-2-2c0-2 0-2-3-1ZM60 115h1l2 1v1l2-2h-5ZM66 116l-2 2c-1 0-2 2 0 2v-1l1-1h2v-1l-1-1Z"/>
  <path class="cls-1" d="m69 118-1 1h-2v1l2 1-1-1h6c-2 0-4-2-3-2v-1l-1 1Z"/>
  <path class="cls-1" d="M62 121c0 1 1 2 6 1h6l3-1h2v-1l-5 1H62c0-1 0-1 0 0ZM117 132c-1 1-1 3 1 4l3 1 1-1 2 8 1 9a234 234 0 0 0 1 11l-1 1-1-1v-2l-1 2 1 3v1l1-1 1-1v9-30a15 15 0 0 1-1-3v-2l-1-1-1-5c0-2-1-3-1-1s0 2-2 2c-1 0-3-1-2-3h-1Z"/>
  <path class="cls-1" d="M117 139v4c1 1 2-2 2-4l-1-1-1 1ZM120 142l1 3 1 2-1-6-1 1ZM122 153v3l3 1v-1l-3-2 2-1 1-1c-1-1-3 0-3 1Z"/>
  <path class="cls-1" d="M124 155h1l-1-1v1ZM88 164l-2 3-3 5c-3 2-3 3-2 3l7-8c1-1 1-2 2-1l1 2 2 7 1-1-2-8-4-2Z"/>
</svg>
