<svg xmlns="http://www.w3.org/2000/svg" viewBox="0 0 190.7 175"><path d="M140 1h2c1 0 1-1-1-1l-1 1ZM144 1l3 1V1h-3ZM133 2l-2 1h-2l-6 1-4 3c-2 2-2 4-3 11 0 8 0 9 2 11 2 1 2 3 3 5v2l1 2c0 2-3 4-5 3l-1 1-3 1c-3 1-6 4-11 9l-2 3-2 5-2 4-3 5v6c2 1 2 5 1 5l-1 1-4 11-4 7-1 4-1 6h-2l-4 2h-3c-3-1-10-2-11-1l-5 2-4 1-13 2H28l-6-6c-4-4-6-6-9-6-4 0-10 4-11 8l-1 2 1 4 1-2c0-5 5-10 10-10 4 0 13 8 13 11 0 2 29 2 29 0l2-1 4-1c3-2 8-2 12-1h7l6-1c3 2 3 1 2-3-2-4-2-4 2-11l3-9 3-8c3-6 3-6-1-8l1-3 5-10c5-10 9-14 18-16 6-1 7-2 7-3l-1-4-2-5v-7l-1 1c0 2-1 2-3 0l-2-2h2c4 0 4-1 1-4-1-1-2-2-1-5 0-4 3-8 5-8h1l1-1 13-4h-6Z"/><path d="m135 8-3 4 2 2h1v-2l1-2c2-1 3 1 5 4 1 2 2 2 3 2 3 0 7-4 6-4l-1-2-3-4h-3c-3-2-3-2-8 2Zm6 0c-2 1-3 1-2-1h2c2 0 2 0 0 1Zm6 3c1 2 0 3-2 3-3 0-4-2-2-4 3-1 4-1 4 1ZM129 9h1l1-1-1-1-1 2ZM124 10c0 2 2 4 3 3 2 0 2-1-1-3h-2Z"/><path d="m130 15-2 4c-2 3-2 4 1 4l4 2c1 2 2 2 2 1l3-1 2-1v-6l-1-2c1-2 0-3-2 0-1 1-2 1-1 2 2 0 2 4 1 5s-5-2-4-3-2-6-3-6v1Z"/><path d="M123 17h5c1-1 2-1 0-1-2-1-5-1-5 1ZM130 28v2c2 0 2-2 2-3-1-1-1-1-2 1ZM155 29l-1 1c1 1 1 0 2-1 2-1 1-2-1 0ZM159 33l-3 5c-2 2-3 5-1 5s6-11 5-12l-1 2ZM133 34c1 1 0 1-1 1h-1l-1 6v4c2 1 3 6 1 6v1l2 3c0 3 6 9 9 9 1 0 0-2-3-4-4-4-5-4-3-4l4-2c1-1 1-1-2-1l-3-1 1-1q2 0 0-1l-1-3c1-2 0-2-1-2s-2-1-1-3c0-3 0-4 5-3l5-1-4-1c-5 0-4-3 0-3 6 0 4-2-1-2-4 0-5 1-5 2ZM127 35l2 2-1-3-1 1ZM153 36v2c2-1 3-3 1-3l-1 1Z"/><path d="m156 48-2 3-3 4c-2 4-3 4-9 2l-2 1 2 1 2 1c0 2 1 2 4 1 6-1 6 0 3 3-2 1-2 2-1 2 2 0 6-4 6-7q0-2-1 0c-2 2-2 2-2 0v-3c2-2 6-9 5-10l-2 2ZM115 51l4 10c4 5 4 6 3 7-2 1-3 1-3-1s-3-8-4-7l1 4v4c-2 1-1 4 1 3l5-1c5-1 7-3 5-8l1-6-1-5v-1 5c-1 2-1 2-3 1l-2-2-1-2c-3-2-2 0 0 3 3 3 4 9 3 9-2 0-7-10-7-14l-2-2v3ZM184 54l4 4v8l1 9v3l-7 5-5 2c1 1 9-2 9-3h1l1 3v2c2-1 3-15 2-24 0-5-1-7-3-10-5-5-7-4-3 1ZM159 59c-2 3-2 4 0 4 1 0 4-5 3-6l-3 2ZM177 48l-16-9c-2 1 0 2 9 6 8 5 11 6 7 3ZM161 67l-10 18-3 2c-2 3-5 4-10 4h-2c0 2 3 3 7 3l6 1h9-3l-5-1c-3-2-2-6 0-7 3-1 8-8 8-9l2-2c1-1 6-15 5-16l-4 7ZM171 63v12l1-6c1-7 1-12-1-6ZM133 64l1 5c0 2 0 2 0 0 1-2 3-2 3 0l2 1c4 1 2-2-3-6l-4-4 1 4ZM176 64l-1 6c2-1 3-8 2-8l-1 2ZM152 66c-4 3-5 4-3 4l4-3c4-4 4-4-1-1Z"/><path d="m180 65-3 8c-3 7-4 10-1 5 2-3 6-13 5-14l-1 1ZM103 68v1-2 1ZM103 74c-2 2-2 3 1 3l2-2c0-2-2-3-3-1ZM103 83l-2 6c-3 7-2 11-3 13v1h1v-5l1-4 5-8 4-6c3-1 2 6-1 12l-2 6c0 1 3 3 5 2 1-1 0-5-1-5l-1-1h2c2 2 4 2 3 0 0-1 0-2 2-1s3 1 1-1l-3-4v-6c0-4-1-4-4-4-4 0-4 0-7 5ZM146 82c-4 2-5 3-10 3l-7-1-1 2c0 3 1 3 2 2l2-1c4 2 9 1 14-2 9-6 9-9 0-3ZM170 80l1 2 1-1-1-2-1 1ZM171 91c1 4 0 8-1 12-2 6-2 7 0 5h2c1 1 2-11 1-17l1-4c1 0-1-2-3-2v6ZM129 91l2 2c4 1 5 0 2-2-2-2-3-2-4 0ZM120 93l2 1 4 2 17 4-1-1c-2-1-2-1 1-2l7 1c3 2 13 3 12 2l-4-1-7-2h-8c-4 0-17-2-21-4h-2Z"/><path d="m102 100 1 4 2 4 1 1 2-2c3 0 2 2 0 3s-3 3-1 2l2 2 4 2c2 1 2 2 1 2-1 1-1 1 1 1l2 2h13c4-3 8-2 13 2l4 3c0-2-2-4-6-6-3-2-12-3-13-2 0 2-11-1-13-2-2-2-2-2-1-3 1-2 2-2 5-1l3 1h-4c-4-1-4 0 0 1h6c0 1 2 1 2-1 0-1-8-4-11-4l-4-1c-1-2-2-2-3-1-3 1-3-1-1-2 3-2 1-5-2-4l-2-1h-1Zm12 11c0 2-3 3-4 2s1-3 3-3l1 1ZM151 102h1l1-1-1-1-1 2ZM150 105l3 1 3-1-3-1-3 1ZM99 106l-4 1c-4-1-5 0-3 3 2 2 8 4 8 2l-4-2c-2 0-2 0 0-1h4c3 0 3 0 2-2s-2-2-3-1ZM146 106l1 2c3 1 6 0 6-1h-1l-3-1h-3ZM9 109c-5 2-6 14-2 23 3 5 10 12 12 12s0-2-4-5c-1-1-2-2-1-3v-1c-1 1-2 0-4-2-2-3-2-6-3-11 0-7 0-8 2-10l5-3c2 0 2 0 1-1-2-1-3-1-6 1ZM176 110c0 3 8 15 9 14 0 0 0-3-2-5l-3-5-2-3-2-1ZM161 113c-2 1-4 2-9 1l-5 1 10 1h3l-4 4c-1 0-2 5-1 6l1 1c-1 1 0 1 2 1 4 0 9 4 16 4h2l-8-4-2-2c-1-1-2-2-5-1h-4l3-4c4-7 6-9 8-8-1-2-5-2-7 0ZM172 112l2 2v-2l-3-2 1 2ZM18 113l2 1 1 2 2 2c1 0 4 7 3 9l1 8 1-5v-4c1 0 4 7 4 10 0 1 0 1 0 0 2-3 3-4 7-2l5 3c1 2 3 2 2 0l2-2 4-2 8-2 7-2 4 2 4 3 7-4c3-4 4-5 5-4l2 1-1-4-2-3-3 4c-3 3-4 4-5 3s-1-1-1 4v3l-3-3-3-3 5-4 8-5 3-3c-1-1-3-1-5 1h-4l-9-2-6-1 2 2 4 2 2-1h3l2 1c2 0 2 1-2 4l-4 5-2-3-4-2v-2c0-2 0-2-3-2l-5 1c-1 1 0 1 2 1h2c-1 2 1 4 4 5 5 1 4 3-3 3l-7 2-1-1c-1-2-4-1-4 2 0 2 0 2-2 2l-8-1c-6-1-6-1-9-5l-2-5h8l7 1c0 1-2 2-7 2l-3 2 5 1 4-1 6-7v2h2q3-1 1-2H31l-2 1-7-5-2-3c-2-2-2-2-2 0ZM91 116v3l-1 1c-2-1-2 0 0 3s2 3 2 0c0-1 1-2 2-1h5l4 1 5 2c1-1-7-5-10-5l-5-2 1-2 2 1c1 1 3 2 7 1 3 0 6 2 6 4s2 2 2 0v-2l-1-1c0-2-2-3-6-3l-4-1c-1-1-8 0-9 1Z"/><path d="m168 115-3 4c-1 2-1 2 1 4h6l1-1c0-2-2-3-4-2h-2c-1-3 1-4 4-2l2 1h4c-1-3-7-5-9-4ZM50 125l2 2c2 1 4 0 4-2h-6ZM172 126l1 1h9c2-1 2-2-3-2l-7 1ZM148 128v3c2 0 2-2 1-3h-1ZM152 128v1l2-1h-2ZM45 129l1 1 1-1-1-1-1 1ZM138 131l-3 1c0-1 0 0 0 0 0 1-1 2 5 0l2-2-4 1ZM1 132v4a132 132 0 0 1 5 29l-1-22-1-8 4 6 3 6h2c3 2 3 0-1-4l-5-8c-2-4-4-4-6-3ZM35 138c1 3 5 10 6 9l-2-5-2-5-1-2c-1-1-1 0-1 3ZM41 138l1 1v-1l-1-1v1ZM98 143c-1 2-6 4-7 3v1c1 2 1 2 3 1l6-4 5-2-7 1ZM45 146c-2 3-3 5 0 6l1-2c-1-1 0-2 1-3l2-3c0-2-2-1-4 2ZM33 145l1 1c1 0 2 0 1-1h-2ZM17 149l-1 2h1c3-1 7 5 5 6-1 1 0 2 2 1v3l2-1s-1-4-4-7c-4-6-5-7-5-4ZM22 147l9 14 1-1v-1c-1 0-2-1-2-3l-2-3-3-3-3-3Z"/><path d="m11 151 1 1c1 0 1 2-1 4s-1 11 1 17l1 2c0-2 2-3 3-4 3-2 7-9 6-10l-3 4c-3 4-5 6-7 5l2-3c3-3 5-6 5-8l-3 3-4 4c-2 0-1-1 1-3l3-5c1-4 0-3-2 1l-2 3c-1 0-1-1 1-4 2-5 2-8-1-9-1 0-2 1-1 2ZM81 152l-7 3c1 1 12-4 12-5s0-1-5 2ZM39 152l2 3 1 2v-3c0-2-2-4-3-4v2ZM34 153l1 2v-1l-1-1ZM18 154l2 1c2 2 2 1 0 0l-2-1ZM47 157c0 2 1 3 1 1v-4c-1-1-1 0-1 3ZM71 156l1 1 1-1-1-1-1 1ZM67 157c-2 1-2 2 1 1l2-1h-3ZM60 159v1l2-1h-2ZM56 161c-1 1-1 2 1 0l1-2-2 2ZM46 163c-1 2-1 2 1 1l2-1h-3ZM32 169c-3 2-2 3 1 1l2-3c-1 0-2 0-3 2ZM22 172l1 1 1-1-1-2-1 2ZM184 110c1-4 4-18 3-19s-1 2-3 11c-1 9-2 12 0 8ZM111 140c4 0 18-4 18-5 1-1-2-1-11 2l-7 3ZM160 19l-7-12 3 7c4 7 5 9 4 5Z"/></svg>