<svg width="685" height="1198" viewBox="0 0 685 1198" fill="none" xmlns="http://www.w3.org/2000/svg">
<path d="M231 943.151V794.151H145V943.151H231Z" fill="#FFB486"/>
<path d="M539.565 793.832L343.221 700L301.576 764.506L497.92 858.338L539.565 793.832Z" fill="#FFB486"/>
<path d="M383.474 764.506L187.13 858.338L145.485 793.832L341.829 700L383.474 764.506Z" fill="#FFB486"/>
<path d="M344.461 1135.44L540.423 1041.79L498.875 977.436L302 1070.95L344.461 1135.44Z" fill="#FFB486"/>
<path d="M540 1042V794H454V1042H540Z" fill="#FFB486"/>
<path d="M24 923V156H0V923H24Z" fill="#FFB486"/>
<path d="M6 923H145V899H6V923Z" fill="#FFB486"/>
<path d="M0 168H195V144H0V168Z" fill="#FFB486"/>
<path d="M387 730V0H302V730H387Z" fill="#FFB486"/>
<path d="M387.423 1197.88V1070.88H302.423V1197.88H387.423Z" fill="#FFB486"/>
<path d="M229.538 155.638C230.195 156.025 230.195 156.975 229.538 157.362L196.508 176.829C195.841 177.222 195 176.741 195 175.967V137.033C195 136.259 195.841 135.778 196.508 136.171L229.538 155.638Z" fill="#FFB486"/>
</svg>
