<svg width="689" height="1674" viewBox="0 0 689 1674" fill="none" xmlns="http://www.w3.org/2000/svg">
<path d="M231 1419.15V1270.15H145V1419.15H231Z" fill="#FFB486"/>
<path d="M539.565 1269.83L343.221 1176L301.576 1240.51L497.92 1334.34L539.565 1269.83Z" fill="#FFB486"/>
<path d="M383.473 1240.51L187.129 1334.34L145.484 1269.83L341.828 1176L383.473 1240.51Z" fill="#FFB486"/>
<path d="M344.459 1611.44L540.421 1517.79L498.873 1453.44L301.998 1546.95L344.459 1611.44Z" fill="#FFB486"/>
<path d="M540 1518V1270H454V1518H540Z" fill="#FFB486"/>
<path d="M24 1399L24 289H9.15527e-05L9.15527e-05 1399H24Z" fill="#FFB486"/>
<path d="M6 1399H182V1375H6V1399Z" fill="#FFB486"/>
<path d="M0 300H195V276H0V300Z" fill="#FFB486"/>
<path d="M387 1206L387 0L302 0L302 1206H387Z" fill="#FFB486"/>
<path d="M387.422 1673.88V1546.88H302.422V1673.88H387.422Z" fill="#FFB486"/>
<path d="M229.538 287.638C230.195 288.025 230.195 288.975 229.538 289.362L196.508 308.829C195.841 309.222 195 308.741 195 307.967V269.033C195 268.259 195.841 267.778 196.508 268.171L229.538 287.638Z" fill="#FFB486"/>
</svg>
