<svg width="383" height="698" viewBox="0 0 383 698" fill="none" xmlns="http://www.w3.org/2000/svg">
<g clip-path="url(#clip0_406_893)">
<path d="M84 528L84 132H0L0 528H84Z" fill="#FFB486"/>
<path d="M231.06 555.554L40.4346 464.455L0.00275179 527.082L190.628 618.181L231.06 555.554Z" fill="#FFB486"/>
<path d="M382.602 131.448L191.977 40.3489L151.545 102.976L342.17 194.075L382.602 131.448Z" fill="#FFB486"/>
<path d="M382.604 527.081L191.979 618.18L151.547 555.553L342.172 464.454L382.604 527.081Z" fill="#FFB486"/>
<path d="M231.057 102.976L40.4316 194.075L-0.000177899 131.448L190.625 40.3488L231.057 102.976Z" fill="#FFB486"/>
<path d="M383 526V132H299V526H383Z" fill="#FFB486"/>
<path d="M235 645V574H152V645H235Z" fill="#FFB486"/>
<path d="M235 72V0L152 0V72H235Z" fill="#FFB486"/>
<path d="M195.95 696.332C194.827 697.292 193.173 697.292 192.05 696.332L129.158 642.53C127.04 640.718 128.321 637.25 131.108 637.25H256.892C259.679 637.25 260.96 640.718 258.842 642.53L195.95 696.332Z" fill="#FFB486"/>
</g>
<defs>
<clipPath id="clip0_406_893">
<rect width="383" height="698" fill="white"/>
</clipPath>
</defs>
</svg>
