<svg xmlns="http://www.w3.org/2000/svg" viewBox="0 0 123.2 175"><path d="M61 1c-4 1-6 2-7 4l-3 2-3 1v4l1 1v1l1-1-1-3 1-2c1-1 2-1 2 1l2 2 1 2 1 1 3 1 6 4 3 2 1 5-3 3-5 7c-2 3-2 5-2 10l-1 6-5-3h-1c-1 0-3-2-4-6-2-3-2-4-2-12l-1-10c-2-3-4-4-5-4v1l3 2 2 11c0 12 1 16 7 19l8 3v-3c-1-4 0-10 2-14 1-3 5-8 7-8l1-2-1-2v-2h3c3 0 3 0-5-4-11-6-14-8-12-12l3-3c3-2 4-2 9-2 6 0 7 1 11 2 8 3 13 7 18 15l5 5 3 5c3 7 5 18 5 26 0 5-1 8-4 9l-1 2 3-1 2-4a60 60 0 0 0-6-36l-7-8A66 66 0 0 0 85 5l-6-2-2-1c-1-2-13-3-16-1Z"/><path d="m62 3-2 1h14c4 1 9 3 11 6l3 1 2 2h1L81 5c-7-3-14-4-19-2ZM58 5h1V4l-1 1ZM56 6c-1 1 0 3 1 4 1 2 17 11 19 11l-5-4-2-1-5-2c-4-2-7-5-7-6l2-1c1 0 3-1 1-1l-2-1-2 1ZM93 17c-1 0-1 0 0 0l1 2v2l-1 1 3 2c1 0 2 1 3 5l2 18 1 17 1 2-1-2v-5a376 376 0 0 0-2-32c-2-4-3-5-4-4l-2 1c-1-1 1-2 2-2v-2c-1-3-2-4-3-3ZM19 20l-6 6 1 5v9h-1l-1 7 1 5c1 1 2 4 1 5l-1-1c-2-2-4-3-7-3-3 1-3 3-2 5v3c-4 3-5 8-3 10v2l1 2h2l1 1 5 4 3 1v8l1 3 2 4 3 6c1 4 3 7 5 7l1 1 3 1h2l-1 2-1 2-2 2-3 6-1 1-2 6-1 3v2l-1 1-1 6a74 74 0 0 1-2 8l-2 9-3 11-1 1-1-1v1l1 3c0 2 1 1 1-1l3-9 4-15 4-19a49 49 0 0 1 8-14l5-6 2-1h-3c-7 1-12-1-13-8l-3-5c-2-3-2-3-1-5v-2c-2 0-2-2-2-5 1-3 0-4-3-5l-3-2c-2-2-2-4 0-7 1-2 1-3-1-1l-1 1s-1 0 0 0c0 1-3 5-4 4l1-2c1-2 2-2 1-3l-1 1c-1 1-2 0-2-2s4-7 5-7l1 2c0 3 1 4 2 4v-3c-1 0-1-1 1-1 1-1 1-1-2-4-4-2-4-4-2-4 4-1 7 2 6 6-1 2 0 2 2-1 3-4 3-5 1-9l-2-4 1-4 1-6v-4h3l1-1v3l1-3 1-1 1 1 1 1h1l1 1v-1l-7-3-1-1v-2l1-1 1-1 2-3 1-2-6 7c-1 2 0 3 2 3l1 1c-1 1-3 1-4-1-2-2-1-4 5-9 3-3 2-4-1-1ZM39 19l1 2c1 2 2 3 2 9 0 5 0 11 2 14v3c-1 3 1 5 4 5h3l5 2c4 1 4 2 6 8l2 2-1-3-1-4-1-1v-1c0-2 0-2 3-2l12-6 3-4c3-5 4-11 1-11l-3 1-3 1h3c1-1 4 0 4 1l-1 1v1c1 2-5 10-8 11l-2 1-7 2-1-5c0-6 1-9 3-11l1-2c-1-1-2 1-3 4-2 3-2 4-2 9 0 8 0 9-5 7l-5-2-3-1c0 2-1 1-3 0v-2h2l-1-3c-2-4-3-10-3-14 0-7 0-9-2-11l-2-1ZM79 24l4 3-2-1-2-2ZM101 26c2 5 2 9 2 19v14s0 1 0 0c1-1 1-1 1 1 0 3 1 3 2 1 2-3 2-16 0-17v15c-1 1-1 1-1-3V42l1 1v-1c-1-8-3-12-4-14l-1-2Z"/><path d="m68 30-1 2 1-1 3-1c0 1 0 1 0 0 1-2 0-2-3 0ZM20 29l6 2c0-1-2-2-5-2h-1ZM85 31h1l2 4c2 4 3 11 1 20-2 13-1 19 5 24 4 4 7 5 12 5h3v-2a71 71 0 0 0-6-15v2l3 7v2h1l1 3v3l-3-1c-5 0-10-3-13-8-2-3-2-3-2-9l1-12V43c0-5 0-6-2-9-1-3-3-4-4-3Z"/><path d="m83 35-2 7c-3 6-9 10-16 12l-3 1 1 2a128 128 0 0 0 4 13l1 1 1 1 1 4-4-14c-3-5-3-7 2-8l3-1 5-3c4-3 8-9 9-14v-3 2l1 3 1 1v2c1 0 1 7-1 15v10l1 9 6 7c6 4 8 5 12 5l6-1 1-3-4-11c-3-7-3-5 0 2l3 8-1 3c-2 1-8 1-11-1-4-2-9-6-11-10-1-4-2-9 0-19V38c-1-4-2-6-4-6l-1 3ZM20 39c-7 1-7 2 1 2 4 0 6 0 10 2 6 2 9 4 11 8 3 6 4 12 3 26v13l2 4 4 5 2 2-1 1-2 1v-1c2-1 2-2 1-2-2-1-3-1-3 1l1 2-1 4c-1 7-6 14-9 13-2 0-5-4-5-5v-4 7h1l6 3h2c0 1 0 1 0 0l3 4 3-1c4-2 7-5 7-7l-2-3v5l-1 1h-2s-1 0 0 0l-2 3c0-1 0-1 0 0l-1 1-2-2-1-1v-1l2-5 2-1v-3 1h2l1 1h1l-2-2-2-1 1-4c0-1 0-2 2-3s2-2-1-5l-3-5-1-2V77l1-2-1-5a50 50 0 0 0-2-15l-1-1v-1l-1-2v-3l-3-2-3-2a43 43 0 0 0-12-4l-5-1Z"/><path d="m19 46 1 2 1-1h3c1-1 3-1 4 1h2v-1h-1l-2-1-2-1c-1 0-2 0-1 1 1 0 1 0 0 0l-2-1h1-1l-1 1-1-1c-1-1-1-1-1 1ZM24 52l1 1 2 1c3 2 3 3 1 4h-1v-1l-1 1 3 1 2-2h-1v-1h1l-7-5v1Z"/><path d="M22 53v1h2l1 1c0 1 0 2 1 1h2l-6-3ZM20 54v1h-1l-1-1v2l3 3-1-1h-3l1 1c0 1 0 0 0 0h2v1h1l1-2c0-3-1-4-2-4s-1 0 0 0ZM6 56l2 3 3 1c1-1 0-3-1-4H6ZM23 57v2h2v-1h-1v-2l-1 1ZM33 57h4l-3-1c-1 0-2 0-1 1ZM31 60l-3 1-1 1h2l2-1 3-2h-1l-2 1ZM16 60v1l1-1h-1c-1 0 0 0 0 0ZM5 63v1l1-1H5ZM14 62l1 1 1-1h-2ZM10 63c0 1 6 4 9 4l4-1c2-2 2-2 1-3l-1 1-1 1-1 1h-3l-3-2h-2l-1-1h-2ZM32 63l-3 1h-2 3l2-1v-1 1ZM33 64l2 1 6 1h3l-2-1-6-1h-3ZM5 65h1v-1l-1 1ZM29 66v2l1 1 15 4a73 73 0 0 0-14-4l-1-1c-1 0-1-2 1-2l3 1h3c1-1 1-1-2-1l-4-1-2 1ZM64 66l1 3 1 2v2-4c-2-4-2-5-2-3ZM2 67c-1 2 0 3 1 1v-2l-1 1ZM11 67l-1 1h3l2 1h2l2 1v1l1-2-2-1-5-1h-2ZM23 67l-2 1h3l1 1v-4l-2 2ZM5 66l-1 2 2-2H5ZM7 67h1-1s-1 0 0 0ZM6 68v1l1-1H6ZM50 69c-3 3 0 8 4 6 2-1 6 3 7 7v3l1 5 1 3v2l1 2c3 2 7-2 7-6l-2 2c-2 6-4 5-6-5l-2-8c-2-5-6-7-8-6h-2l1-1c7-3 11 3 13 19 1 4 2 4 3 1l2-3v-1l-2 1c-1 2-2 2-2-4-2-9-5-14-10-15l-3-1c0-2-2-2-3-1Zm3 1c0 2-2 3-3 3v-3c2-2 3-1 3 0ZM21 71v3l1 2v-4l-1-1 2-1c1 0 1 0 0 0-2-1-3-1-3 1ZM10 71l-1 1h2l-1-2v1ZM26 72h5l2 1c0-1 0 0 0 0h1l5 1h2l-8-2-6-2-1 2ZM8 73c-1 1 0 3 2 3v-1l-1-2v-1l-1 1ZM16 72l1 1v1l-1-2c-2 0-2 0 0 0Z"/><path d="m18 72 1 2 1 2c1 3 0 4-3 2-2-2-5-2-6-1l1 1c3-1 5 1 4 2v1l1 2c-1 1 0 1 0 0v-2c-1-1 1 0 2-1h2l1 1-1-6-2-3h-1Z"/><path d="M15 75h3-1l-1-1-1 1ZM67 76l1 2v1c1-1-1-5-1-5v2ZM70 78l1-1h-1v1ZM25 80l7 1c7 0 8 1 9 3l1 3h1v3c1 1 1 0 1-4 0-3 0-4-1-3v1l-1 1v-1c0-2-3-3-5-3l-2-1v-1l-1 1-1 1v-1h-3c-3 1-5 0-5-1h-1l1 1ZM20 82l-1 1h1v-1c0-1 0-1 0 0Z"/><path d="m28 82 5 1h5l1 1 1 3 1 1-2-5-11-1ZM16 85l4 3v-2l-3-1h-1ZM25 87h1v-1l-1 1ZM18 89l2 1 1 1h1c1-1 2 0 3 1l1 1v1l-1-3c-1-2-6-3-7-2ZM19 92h1v-1l-1 1ZM45 95l-3 10-2 1-3 4c-2 4-2 5 0 8h4l5-6v-4l-1-2c1-2 2-2 1 1l1 1V97q-1-1 0 0l2 1-4-6v3Zm1 7-1 2h-1l1-2c1 0 0 0 0 0v-1l1 1Zm-2 6v5l-1-1h-4 2c1 0 2 2 1 3h-6l1-2 1-1h1l-1-1c-2-1 3-5 6-5v2Zm-4 10h-2l1-1 1 1ZM26 99v1l1-1h-1ZM109 99l-10 5 6-2c6-3 10-3 13-2 3 2 6 6 4 6l-2-2-2-3c-2-1-7 0-14 2-5 2-6 3-8 2h-2l2 1c2 1 3 4 3 7s0 3 1 2c1-3 0-7-1-8v-1l4-1 3-1 2-1 5-1c5-1 6 0 6 2s2 3 3 2c2 0 2-1 0-3-1-4-8-5-13-4ZM25 101v1l1-1h-1ZM82 106l-2 2-1 1-5 6-3 4c-3 3-3 5 0 2l8-6c2-1 10-2 12-1 4 2 5 1 1-1h-5c-9 0-9 0-11 3-1 2-2 1-1-1l10-9h-3ZM50 110l1 1h1l-2-1ZM53 111v1l1-1h-1ZM55 113h1c1 0 1 0 0 0l-1-1v1Z"/><path d="m96 115-1 2-3 1-2 1-1 1h-1l-5 4-5 3v1-1h-1l-1 1c0-1 0 0 0 0v1h-1v2l-1-1-1 1-2 1v1c0 1 0 1 0 0h1l2-1 4-3 7-5 8-5c3-1 5-4 4-6l-1 2ZM57 116c1 2-1 5-5 8l-4 3-2 1-4 1h1l1 1-4 7-1 2-1 2-1 4-2 2-5-2-4-3-2-1h-1l3 2 8 6-2 3-2 2-1 2-1 3-2 2-2 4 4-4c5-9 8-13 9-13l5-13c2-4 4-6 7-6h1c-1 1 0 1 1 1l3-1 4-1 1-2v2l1-2 4-2c3-1 3-2-1 0l-7 3-3 1h-3c-1-1-1-1 2-3 6-4 8-8 6-10-1-1-2-1-1 1ZM49 115v1l1-1h-1ZM49 117l1 1h1-1v-1h-1ZM78 118v8l1-3v-5h-1ZM27 121v4l-1 2c-2 0-2 0-1 2 0 2 1 2 2 0l1-6c1-5 0-6-1-2ZM101 120l-1 2 1 1 1-2-1-1Z"/><path d="M72 123q-1 0 0 0h1l1 1h-2l-1 1h-1l-1 1-4 2c-1 0-2 0-1-1 0-1-1-2-2 0l1 2h2l6-3c4-1 6-3 6-4l-5 1ZM96 123l-1 1c-1 0-1 0 0 0 4-1 4-2 1-1ZM32 125v1l1-1h-1ZM89 126l-3 2c-3 0-4 1-2 1l7-3h-2ZM93 126v1l1-1h-1ZM58 132l-3 5c-2 2-2 2 0 0l2-1 3-6c1-2 0-2-2 2Z"/><path d="m80 130-3 1-4 3c-4 3-5 3-4 1h1v-1c-1-1-1 0-3 2l-4 5c-2 2-2 2-6 1-2-2-6-2-9-2v1h4l2 1h1c1-1 4 1 4 2l-2 1-2 3h-2v1l-9 5-1 1-1 1v-3h-2v5l4-2v-1c1 1 4-1 9-5a311 311 0 0 1 27-20Zm-12 7v1l-1-1c0-2 1-2 1 0ZM39 130h2l-1-1-1 1ZM55 133l-4 4h1l4-5 2-3-3 4ZM52 132l-1 1c1 1-4 6-6 6v1h-1l-3 6 2-2 3-4 7-8h-1ZM24 134v6l1-2v-5l-1 1ZM21 136v7a48 48 0 0 0-3 12v7l-2 8v2l3-13a311 311 0 0 1 2-23ZM44 136v1h1c0-1 0-2-1-1ZM29 137h1v-1l-1 1Z"/><path d="M46 143h2v-1c-1-1-2-1-2 1ZM45 145v2h1v-2h-1ZM39 148l-2 6-2 6-1 2v1l-2 7-1 5 4-12 5-13v-3l-1 1ZM43 149l1 1v-1h-1ZM25 150h1c0 1 0 1 0 0h-1ZM42 150v2h1v-1h1l-2-1ZM73 153a131 131 0 0 0-20 22l4-4 2-2 5-6a92 92 0 0 1 12-13l-3 3ZM24 152l1 1v-2l-1 1ZM93 155l-1 1h2c1-2 1-2-1-1ZM79 156l1 1v-1h-1ZM89 157h1v-1l-1 1ZM78 159l-1 3 1-1 1-2v-2l-1 2ZM92 166l-4 2-1 1h-1v1l-1 1v1l3-2 4-4 3-2-3 2ZM20 168v2l-1 2v1c1 0 2-2 1-5 0-1 0-1 0 0ZM42 167v3-3ZM36 170l1 1v-2l-1 1ZM48 173h1v-1l-1 1Z"/></svg>