<?xml version="1.0" encoding="UTF-8"?><svg id="Layer_1" xmlns="http://www.w3.org/2000/svg" width="179.8" height="114" viewBox="0 0 179.8 114"><defs><style>.cls-1{fill:#2f6457;}</style></defs><path class="cls-1" d="M128,1l-2,1,1,1h6l-1-2h-1c0,2-1,2-2,0h-1Zm1,0h1l-1-1V1Zm12,0l1,2V1l-1-1V1Zm10,1l1,1V1l-1,1Zm4,1h1l-1-1v1Zm-34,1l-2,1v1l2-1,1-1,1-1,1-1-3,2Zm15-1h0ZM12,4l2,2v4q-1,1-2-1l-1-2h-3l1,1h1l1,3h3l2,1c0,2,5,4,8,4,4,0,7,2,7,3l5,5c1,1,2,1,0-1q-1-1,0,0v-1c-4-5-7-6-13-7-4,0-6-1-7-4,0-3-4-9-4-8v1Zm23,17c1,2,0,2-2,0l-1-2,3,2ZM145,4l2,2-1-2-2-1,1,1Zm8,0v1l1-1h-1Zm-27,0v1c1,0,0,1,0,0h4v-1h-4Zm13,0l4,2-1-1-3-1Zm-4,1l1,1,1-1h-2Zm-37,2v4l1,2v-1l-1-5q-1-2,0,0Zm41,0h1l-1-1v1Zm-48,0v0Zm26,1c-4,4-4,5,0,2l4-2h3l-2-1h-2c-1-1-2-1-3,1Zm2,0l-2,1,2-1q1,0,0,0Zm7-1h0Zm13,1q0,1,0,0v0Zm4,0h1v-1h-1v1Zm21,0v0Zm-120,2l-1,1,2-3-1,2Z"/><path class="cls-1" d="M129,9h-4c-4,0-6,1-6,2h-1l-3,2-2,1v2l-1,2v4l1,2v4l1-3,1-2,3-1,3-2,2-1c-1,0-7,2-9,4-1,0-2-1-1-3v-1l1-3c1-2,3-4,5-4l2-1c0-1,10-2,12-1l4-1-2-1v1l-6-1v1Zm-22,1l-1,1h1v-1Zm-68,1l-2,2-1,2-1,1h1l5-5h-2Zm10-1v1l-1,1s-1,0,0,0l-5,6,2-3,2-3c-1-1-1,0-2,1l-1,2-2,1q-.67,.67,0,0v3l-1,2h1l4-4,2-3,1-1,1-2s-1,0,0,0v-1h-1Zm45,1l1,5c1.24,4.69,2.57,9.36,4,14l-1-8-3-8-1-4v1Zm14,0v1l1-1v-1l-1,1Zm51,2l-2,2h-2c-1,0-1,1,1,1l4-3,2-2-3,2Zm-106-1l-1,1,2-1h-1Zm57,0v1l1-1-1-1v1Zm1,1l-1,2,1-1,2-3-2,2Z"/><path class="cls-1" d="M124,12l1,1h3l3-1q-1,0,0,0h2c1-1-1-1-5-1l-4,1Zm-83,2h-1l-1,1-1,2,2-1,3-4-2,2Zm14-1v1l1-1h-1Zm4-1l-2,4-6,5c0,2,1,1,4-3l4-3v-3Zm38,1v3l1,2v-5h-1Zm9,2c0,3,1,6,3,6l-1-1-2-5v0Zm13-2c-3,1-3,2-2,2h1l2-1,2-1h-3Zm-27,2c1,2,1,3,1,0l-1-2v2Zm-30-1l-2,1c0-1-1-1,0,0v2l2-2v-1Zm-12,1l-1,2c-1-1-3,1-3,2l-1,1-1,1h2l1-1,3-3,2-3-2,1Zm49,2l1,6v2h1v-2l-1-2v-5c-.67-1.33-1-1-1,1Z"/><path class="cls-1" d="M107,14v1l1-1h-1Zm52,1c0,1.33,.33,1.33,1,0l1-1-2,1Zm-126,0v3l1-2c0-1.33-.33-1.67-1-1Zm31,1l-2,1h-1c0,2-2,4-3,4l1-1h-1l-2,1c-2,1-3,1-1,1h1l1-1v1l-2,1h2l7-7q2-2,0,0Zm57-1h0Zm11,0v1l1-1v-1l-1,1Zm8,0h0Zm-87,1l-3,2c-3,2-3,3-1,2,2,0,6-5,5-5l-1,1Zm94,0h4l-4-1q-2,0,0,1Zm-40,1l1,2v-1c0-3-1-3-1-1Zm13,0c-5,0-7,1-6,2v2s-1,0,0,0l2-1v-1l-1-1h1l9-2h-5v1Zm7-1h0q-1,0,0,0Zm11,0h0q-1,0,0,0Zm-99,2l-1,2,2-2v-1l-1,1Zm71-1l1,1c0,1,0,0,0,0l-1-1Zm36,0h2l-1-1-1,1Zm9,0h1c2,0,2-1,1-1l-2,1Zm-120,1l1,1-1-1c1-1,0-1,0,0Zm93-1l1,1h1l-2-1Zm24,1h1l-1-1v1Zm-26,0v1l1-1h-1Zm-70,2l-2,1,2-1,2-2h-1l-1,1v1Zm86-1c-3,0-9,3-9,4l-2,1c-1,0,0-1,0,0v4c1,0,1,1-1,3l-2,1v2l1,2,1-2c-1-1,0-1,0,0,1,1,1,0,1-1l1-4,1-2v2c-1,3,0,3,2,1l1-2-2-1-1-1h-1v-1q-1,1,0,0c2-2,11-6,16-6l13,4h1l-5-2c-4-2-10-3-15-2Zm-10,8h-1l1-1v1Zm-71-5l-2,2h2v-2l1,2q-1,1,0,0l1-1v-1l2-2v-1l-4,3Zm6-2v2c1,0,2,0,1-2h-1Zm43,1v2l-2,2,2-1,1-1v-2h-1Zm-45,1h1v-1l-1,1Zm17,1l-1,2,2-4-1,2Z"/><path class="cls-1" d="M153,22l1,1h1l-2-1Zm-108,1l-2,1h2l2-1h-2Zm4,0l3,1,2-1h-5Zm18,1l-3,1-1,1h-1v1c1,0,2,1,2,3v2l1,2,1,6q2,4,1,8v4l1,1v0l1-2h1c1,3,0,5-1,8-1,1-2,3-3,2v3l-2,1c-1,4,0,2,3-3,2-2,3-5,4-4l-3,5-4,7v1l-7-1-1,1,4,1,4,1c2,1,2,0,2-3l2-5,1-1,2-3v-11l-1-4-1-3-1-2-1-2-1-5-2-7v-1l1,1h1v-1h1l1,1-2,1v1l2-1,1-1,1-1h-2v-2h1c1-2,0-1-2,0Zm3,23l-1-1v-2l1,3Zm14-24q0,2,1,1v-1h-1Zm41,0h0Zm-86,1h2l-1-1c-1,0-2,0-1,1Zm71,1c-2,2-2,4-1,4l1-1h1v-4l-1,1Zm1,1l-1,1v-1h1Zm9-2v1l1-1h-1Zm2,1l-1,3-1,3-3,2-2,1,2-1c3,0,7-4,7-7l-1,2-2,2v-1l2-5-1,1Zm5,0v1l1-2-1,1Zm29,0l-2,1h4l-3,1v1h4l1,1v2h3l-5,2-5,3c-2,3-3,3-2,0,1-2,2-5,1-6l2-1h1l-6-1h-1c-1,0-9,3-12,6l-2,3-2,2q0-1,0,0l-2,1c-1-1-1,0,0,0l1,2q-1,0,0,0l1-1,1-2,2-2,2-1q2,0,1-1l1-2,3-1,5-2h3c1,1,2,1,1,2l-1-1h-1l-4,1c-1-1-3,1-3,2l1,2c1,1,4,0,4-2,0-1,1-2,2-1l-1,1-1,1h1c1-2,3-1,3,0l-1,1-1,1q-1,0,0,0v2l-3,1c-1,0-2,0-1-1l-1-1v2c0,2-1,2-2,1l-2-2-1-1c-1-1-2-2-2,0l4,3,2,1-4,1-5-1-2,1h1c2,0,3,1,2,2s-1,1,0,0,2-1,1,1l-1,2,1-1,1-3,3-1,6-2,5-2,1,2,2,2-1-2-1-2,1-1,2-1h1c-2,0-1-1,1-2l4-1,1-1c3-1,3-3,0-4-2-1-3-2-1-2,0-1,0-2-2-2h-3Zm4,1l-1,1v-1h1Zm-15,9c-1,0-2-1-1-2h1v2ZM38,25h2l-1-1-1,1Zm4,0h0Zm106,0c-2,0-3,1-1,1l3-1h1l2,1,1-1h-6Zm-96,0h0q-1,0,0,0Zm76,1l-2,3,2-1,2-1-2,1q-1,2-2,1h-2v1c2,1,1,10-1,11l-1,1-1,3v1c1-1,1,0,1,1v1l1-1,1-1,3-5h1v-1l-1-1h1l2-2c2-2,1-2-1,0l-2,1v1l-2,3-1,3c-2,0-2-1,0-3l2-8v-2l2-2h2v-3c0-2-1-2-2-1Zm-2,4v2l-1-1c0-2,1-2,1-1Zm17-4h0Zm-52,2v3l1-2c0-3-1-4-1-1Zm4-1l1,1v-2l-1,1Zm-57,2h-8l4,2c3,2,8,3,11,1l7-1,4-1h-4l-5-1h-3q-1,1,0,0l-1-1-5,1Zm7,2l-1,1q-1,1-2-1,0-2,1-1l2,1Zm-3,0c1,2-5,2-7,0-1-1,0-1,3-1l4,1Zm69-2l-2,1v1h2l1-1-1-1Zm-102,1v4l4,3v-1c-3-2-4-4-2-5v-1h-2Zm104,0l-1,2v1l-1,1h1l1-1v-3q0-1,0,0Zm2,0v0Zm-91,1c-1,1-2,1-1,2l4-3-3,1Z"/><path class="cls-1" d="M28,32l-2,2-1,1c-1-1-4,2-4,4l1-1h1v1l-1,2-1,1,3,2,5,1,1,1-1-2h-2l-2-1h1v-1l3-2,4-1-1,3c0,3,1,5,5,8l5,1,5-5,1-2h1v1l1,1,1,1v4l1,2,1-1-1-2,1-2h1l-1-1c1-1,0-1-1-1l-1-1,1-1h-2l-3-1c-1-1-2-2,0-2l5-1,2-2-3-2-4-2v-1h-2l-5,1-5-1c-5-3-4-3-7-1Zm14,3c6,0,9,1,10,3,0,1-5,3-7,2h-4v-1l-1,1-1-1-2-1h-2l-3,1c-9,0-8,0-8-2l1-1,3-2,1-2q2-1,4,1c3,1,3,2,9,2Zm-3,5l1,1c-3,0-4,2-3,4s2,2,5,0c2-1,2-2,1-2l-1-1v2h-1v-2h2l1-1,1,1v5c-1,2-5,3-6,2h-1l-3-2c-1-2-2-2-1-4,0-3,2-4,5-3Zm-15,0l1,2-1-1h-1v-1h1Z"/><path class="cls-1" d="M45,36v1l1,1,2-1,1,1-2-2h-2Zm-7,0v1c0,1,0,0,0,0h1v-1h-1Zm4,0v1c1,1,2,0,2-1h-2Zm0,3h2q1-1-1-1l-1,1Zm50-9l1,2h1l-1-2h-1Zm-80,3c0,1,1,2,2,1l-1-3-1,2Zm37-1v1h1l1,1,3,1,2,1,1,1-1-2q-1-2-3-1l-1-1,5-1c0,1,0,0,0,0h-8Zm9,0l1,1h0v-1h-1Zm52,1l-1,1-2,6-3,8v6l-1,3v1q0,1.33,0,0h2v2h1l1,2c4,3,5,8,3,11v12l2,6v2h1v1l-3-1-2-2-3-2v-1l-2-4-1-1-1-2c0-2-1-3-2-3l-2-1-1-3,1-3,1-1c-1-2,3-2,6,0l1,3c-1,2,0,4,1,3,1-2,0-5-1-7l-1-1-1-1h-4l-1-1c0-2,1-3,2-2v-2l-1-15v-14l-1,16c.33,6.68,0,13.38-1,20l-1,1c0-1-1-1-1,1v5h-1l1,1c1,0,3,4,2,5v1l1,6,1,4v-6l-1-4h1l2,7,1,1v2l1-1v0l2,2,10,7,1,1,6,7,4,7c3,3,4,5,2,5l-2,1-3-1h-1l6,2,1-1c2,0,5,3,5,4l1,1c1-1,2,2,2,3h2v1c-1,0,4,7,7,9l1,3,8,6,3,3,14,7,8,3-2-1-1-2h3l-2-1h-2l-1,1-1-1q-1,1,0,0l-1-1-1,1-1-1-4-2h0c-2,1-19-11-18-13l-1-1-7-9-10-11-4-5c-2-3-3-4-2-5l1,1,1,2c2.81,4.11,6.18,7.81,10,11l-5-6c-2.72-2.68-5.08-5.7-7-9l-2-3-2-5-2-3-2-4v2l1,2-2-4h-1v-1l-1-3-1-1,2,2,1,1-3-4h-1l-1-5v-13l1-4-3-4c-4-6-4-7-4-13,0-4,0-5,3-10,3-7,4-9,2-7Zm-9,49c0,3,4,9,5,10l7,4,5,4,3,4,1,2,1,1,1,4-2-3c-2.75-5.67-7.33-10.25-13-13v-1l-2-1-3-2c-2-2-4-6-3-7h-1v-1l-2-3-1-2c1-1,3,2,4,3v1Zm14-50h0Zm8,1h1v-1l-1,1Zm-103,2l-2,1-1,1-2,1-2,1-1,1,1,1,9-7-2,1Zm100-1h2l-1-1-1,1Zm12,0v1l1-1h-1Z"/><path class="cls-1" d="M112,36l-4,6,2-2,3-5,1-1-2,2Zm-25,1v0Zm34-1h1v-1l-1,1Zm37,3q-3,3-1,2l4-5-3,3ZM4,38c1-1,2,0,3,1l1,1-1-2h-3Zm96,2l1,5q1,1,1-2c-1-5-2-7-2-3Zm-40-1l1,1v-1l-1-1v1Zm33,0v0c0-1,0,0,0,0Zm-84,2h1v-1l-1,1Zm140,2q0,1,0,0v0Zm-40,0h1v-1h-1v1Zm21,0v1l1-1-1-1v1Zm15,0l1,1q0-2-1-1Zm-91,1h1v-1l-1,1Zm53,0l-1,9,1-2v-7Zm20,0v1l1,1,1,1v-1l-1-1v-2l-1,1Zm12,2l-1,2,1-1c2-2,1-3,0-2v1Zm4-1v1l1-1-1-1v1Zm-25,2l-1,1,3-2-2,1Zm31-1c-2,1-3,3-5,3l-1,1,2-1,5-3h-1Zm-25,1v1l1-1h-1Zm-69,0l1,1h1l-2-1Zm47,3v0Zm62-2l1-1h-1v1Zm-135,0v1l1-1-1-1v1Zm66,2l-1,5,1,3v-8Zm23-1l-2,1c0-1,0,0,0,0h2l1-2-1,1Zm9,0v0c1-1,0-1,0,0Zm5,0h1l-1-1v1Zm-101,1c0,1,3,3,4,2,0,0,1,0,0,0l2,2c2,2,3,2,2,0q-1-1,0,0l3,1h1l1,1h3l-2-1-4-1-3-1-1-1-1-1h-3v-1h-2Zm6,3s0,1,0,0l-1-1,1,1Zm16-3c0,1,2,3,3,2l-2-1-1-1Zm61,0c-2,2-3,4-2,5l1,4v0l1-4,1-1h-1c-1,1-1,2-2,1l2-3v-2Zm47,1h1v-1l-1,1Zm-132,0l2,1v-1h-2Zm61,2v1l1-3-1,2Zm72,0l-2,2,2-1,1-3-1,2Zm-139,0l2,1v-1h-2Zm136,2q-1,1,0,0l1-2-1,2Zm-132-1l3,3c2,4,5,6,8,5h0c-4-1-5-1-6-3l-5-5q-1,0,0,0Zm31,1l4,1,1-1h-5Zm8,1v1c1,1,1,0,1-1q0-2-1,0Zm7-1v3l-3,6-2,4-1,4v5l1,7-1,6v1l6-7,1-2,1-3,1-3v-4c-1-3,0-5,1-8,2-3,2-4,1-6-1-1-4-4-5-3Zm4,4l-1,4-1,8-2,8-2,6c-1,3-2,2-2-2v-6c-1-4-1-9,1-11v-1l2-1,1-2,1-1v-2l1-2,2,2Zm29-4l5,9,1,1v-4l-1-5v6l-3-4-2-3Zm31,0v1l1-1v-1l-1,1Zm3,0h0Zm22,0l1,1v-2l-1,1Zm-110,1h2l-1-1-1,1Z"/><path class="cls-1" d="M85,56l-3,1c-2,1-3,1-2,4l-1,2v2l-2,11-1,6-1,2-13,14-1,2c0,2-5,9-7,11l-2,4-1,1c-2-1-3,0-3,1h1l1-1v1l-1,2-1,1v1l5-6c5-7,7-9,9-14l1-2,1-2h1l4-5,1-1,2-1,1-2,2-2c2-2,4-7,4-12l2-14q1-1,0,0h-1l1-1c1-1,1,0,1,2l-1,7-1,4,2-7c1-4,1-6,3-8l1-2-1,1Zm-45,0l1,1v-1h-1Zm8,0l1,1,1-1h-2Zm91,0h0Zm4,0v1l1,1,2,1,1,1,2,1-1-1-2-2v-1l-1,1q1,1,0,0l-1-2h-1Zm16,0h1c1,0,2,0,0,0h-1Zm-123,2l1,1-1-1-1-2,1,2Zm127-1l-2,1c-1,0-2,0-1,1l3-1,1-1-2-1,1,1Zm-63,1l1,1v-2l-1,1Zm36,0h-1v1h1v-1Zm20,0l-2,2,2-2q2-2,0,0Zm2,1l1,1v-1h-1Zm-26,0v5l1-5h-1Zm32,0v1l1-1h-1Zm-123,5l-4,4c0,1,0,0,0,0l-1,1c-2,2-5,3-10,3h-5l5,1c7,0,8-1,14-7s6-7,1-2Zm111-3h0Zm-62,2l1,1-1,4h1v-6l-1,1Zm-1,0l-1,4v2l1-3v-3Zm24,1v0Zm20,0q0,1,0,0l1-1-1,1Zm17-1h0Zm-98,1v2l1,2,2,3-1-3-2-4Zm40,4v5l1-6-1,1Z"/><path class="cls-1" d="M77,67l-1,1h1v-1Zm67,1h1l-1-1v1Zm-32,2v6q-1,5,1,0c1-3,6-8,8-8h1c-1-1-3,0-5,1l-2,1s-1-1,0,0l-1,2q-1,1-1-2v-3l-1,3Zm11-1h1l-1-1v1Zm4,0h0Z"/><path class="cls-1" d="M120,69l-4,4-1,2c-2,2-3,11-2,13l1-1c-1-3,0-10,1-11l2-3,2-3,2-1h-1Zm8,1v1l1-1h-1Zm-29,1v4l1-3v-1h-1Zm26-1h0q-1,0,0,0Zm-69,3l4,1h2l-3-1-3-1v1Z"/><path class="cls-1" d="M62,74c2,1,2,4,0,13v4l-1,2v2s0,1,0,0l-2,3-1,4-1,1-6,9c-2,2-1,3,0,1l8-11,4-7,3-3-1-8-1-10-2-1v1Zm38,0l1,1v-2l-1,1Zm-49,1l1,1v-1l-1-1v1Zm51,1q-2,1-1,2c1,1,3,0,3-1v-1s1,0,0,0h-2Zm1,2h-1q-1,0,0,0h1Zm-19,1v2l1-3-1,1Zm11,0v0Zm7,2l1,1v-1h-1Zm-77,1h0Zm58,0v1l1-1h-1Zm-53,2h1v-1l-1,1Zm56,0v6l1-6h-1Zm-61,1l1,1v-1h-1Zm69,4c1,6,1,7,1,2l-1-5v3Zm-60-1l1,2v-1c0-2-1-2-1-1Zm8,1q1,0,0,0v0Zm84,0l1,1v-1h-1Zm-39,5v1l1-1v-1l-1,1Zm-46,1h1l-1-1-1,1h1Zm102,19v1l1-1h-1Zm-115,3v1l1-1h-1Zm3,2h1l1-1h-1l-1,1Zm15,0v1l-3,6-6,11c-5.78,9.32-12.48,18.03-20,26l-1,1-3,2-2,1h2l2-1-6,3-8,5-1,1H1l2-1h1l3-2,4-2,8-6c-1-1,0-1,1-1l6-4,1-2,1-1,1-1,1-1,1-2,5-7,2-2,1-1,1-3,2-4v-1l1-1c1-1,1-2,2-1v-2c2,0,2-1,2-5v-2h-2l1-2,1-2h-1Zm0,6l-1,1-2,4-2,2s-1,0,0,0c0,1-2,7-4,9l-2,3-1,1c0-1,0,0,0,0l-3,4-3,5-1,1h-1c1,1-1,2-2,2l4-5,10-15,5-10c2-3,3-4,3-2Zm-23,35l-2,2c-1-1,2-4,3-4l-1,2Zm-6,5h-1l1-1v1Zm125-34v2l1,1,1,1c0,2,2,4,3,4l1,1-2-3-2-2-2-4q-.67-.67,0,0Zm8,10l2,4,4,3,2,1h2v1l1,1h1v1h2l3,1-3-1c-5.04-3.16-9.74-6.85-14-11Zm20,14l1,1h1l-2-1Z"/></svg>