<svg xmlns="http://www.w3.org/2000/svg" viewBox="0 0 117.8 175"><path d="m54 0 1 1 6 4h2-1l-1-1-5-4h-2Z"/><path d="M52 2h1l3 1 1-1h-5ZM46 3h2-1ZM62 3l1 1-1-1c-1 0-1 0 0 0ZM52 3l-2 1-6 2v1-1h-2v1l-2 2-2 1-1 2-2 3h-1v1h-1v2c0-1 0 0 0 0l-1 2 1 1c1 0 0 0 0 0l1-4 1-1 1-2 3-3 2-2c1-2 2-2 2-1l1-1 2-1v1c-1 0-1 0 0 0l1-1q1 0 0 0h-1l6-1 4-1h1v1-1l-5-1ZM58 4h1c1 0 0 0 0 0l-1-1v1ZM63 4l1 2 1 2v2h2l-1-1h-1 3l-1-1-2-1-2-3ZM59 5h1-1q-1 0 0 0Z"/><path d="m55 6-2 1v1c1 0 2 2 1 3h-1l-1-1 1 1h1l-1-2h-2l-2 1h-1l-2 2-1 1c1-1 1-1 1 1l-1 2s0 1 0 0l2-1 1-1h-1c-1 1-1 1 0 0l1-1 1-1v-1 2h1l4-1 4-1 1-2h-1v1h-1l-1 1V9l-1-1V7h3l1 1 1 1-1-2c0 1 0 0 0 0V6h-1l-1-1-2 1Zm0 3c0 1 0 0 0 0V8v1Zm-4 1h1l-2 1v-1h1Zm-3 1-1 1v-1h1ZM64 7l-1 1v4h3l1-1-1 1-3-1h1V7Z"/><path d="M45 8v1l-1 2-2 3h-1v2h1l-1 1-1 1h1l1-1 1-1h1v-1l-1 1c0-1 0-1 0 0h-1v-1l2-2 2-3V8h-1ZM56 9h1l1-1h-2v1ZM68 10l1 1 4 3 1 1-4-4-1-1h-1ZM39 13l-3 2h1l4-2-1 1s0 1 0 0l1-1v-1s1 0 0 0l-2 1ZM57 12l1 1c2 0 6 3 8 5l3 1h1l-1-1c-2-1-2-1-1-2l2 1c1-1-1-1-3-2-1 0-2 0-1 1l-2-1s0-1 0 0c-1 0-1 0 0 0v-1l2 1v-1h-4l1-1h-1l-5-1Zm5 1h-1 1ZM68 13c-1 0-1 0 0 0l2 1v-1s-1 0 0 0h-2ZM70 15l1 1 1 1-1-1-1-1ZM73 16v2-2q-1-1 0 0ZM45 18l-2 3c-1 0-1 0 0 0l3-5-1 2ZM39 18h1v-1l-1 1ZM75 19v5h1l1 1v-1l-1-2v-1l-1-1v-2 1ZM38 19h-1c-1 0-4 2-3 3l-1 1v1l3-4h2v1l1-1v-1h-1Zm1 0-1 1v-1h1ZM73 20v5l-1 4-1 1-1-1-1-2-2-2-1 2v3l1 1 1 1 2 3 2 2 1 3v2-5c-1 0-3-3-2-4l-1-1-1-2c1 0 4 3 3 4l1 1h1l-1-1c0-1 0-1 0 0l1-1-2-1c0-1 0-2 1-1h2l-1-3v-2l1 2v-1l-2-2 1-1v-5l-1 1Zm1 3v1l-1-2 1 1Zm-6 5v1l1 2v1c1 0 1 0 0 0l-1-2-1-1v-2h1v1Zm6 2v1c-1 0-2-1-1-2l1 1Z"/><path d="m68 20 2 2 1 1v-2h-2l-1-1ZM36 21v1l-2 1c-1 2-1 3 1 2l2-1v-1l1-1v-1h-1v-1l-1 1Zm0 1v-1h1l-1 1ZM60 21l1 1v1h-1c-1-1-1-1 0 0h3c2 1 2 0 1-1h-2l-1-1h-1ZM66 22l1 2h1l-3-3 1 1ZM41 23l-1 1 1-1 1-1-1 1ZM48 22l-2 1-1 1h1l3-1h1v-1h-2ZM32 24c-1 1-1 1 0 0v-1 1ZM41 24v3-1l1-2v-1l-1 1ZM54 24v1h1v1c1 0 3 2 2 3l2 3v-2l-1-1 4 1 4 1-5-3-6-2 1-1-1-1h-1Z"/><path d="M35 25c-1 1-2 1-1 2v1h1v4h-1 2l-1-1 1-2 1-2h-1v-1l1-1v-1l-2 1ZM51 24l-1 1s-1 0 0 0l-2 1-1 1c0 1-1 2-3 2l-1 1 3-1 3-3 2-1v-1ZM32 26v1-1c1-1 1-1 0 0ZM59 27h2q1 0 0 0l-2-1h-1l1 1Z"/><path d="m33 27-1 2v2-2h-1v4c1 0 1 0 0 0v2l1-2 2-2c1 0 0 0 0 0v-1h-1v-3ZM50 29l-4 4-2 1h2a21 21 0 0 0 8-7l-4 2ZM62 28l1 1h1l-2-1ZM53 30l-2 4h1l1-3v-1ZM42 32l-2 1v3l1 1-1-2c0 1 0 0 0 0s0-1 0 0l2-2 2-2-2 1ZM33 34v2l1 1 1-1-1 1v1h1v1-3c-1-4-1-4-2-2ZM53 33l1 2v-1l1-1s1 0 0 0h-2ZM57 33l1 2v-3l-1 1ZM59 34l1 1v-2l-1 1ZM36 34l2 2c2 1 1 0 0-1l-2-1c-1 0-1 0 0 0ZM45 35c-2 0-4 2-3 3h2l3-1h1l-1-1h-3l1-1h1-1Zm-2 2v1l-1-1h1ZM74 36v3l-2 8c-2 0-2 0 12 11 13 10 16 14 18 20l2 3 2 3v2a29 29 0 0 0-5-13l-2-3-1-2c0-1 0-1 0 0l-2-2-2-1a48 48 0 0 0-6-5l-4-4-2-2-3-1-1-1-2-2-3-2 1-2v-4l1-6h-1ZM49 38h1-4l-2 1c0 1 0 1 0 0h-2l-1 1a190 190 0 0 0 5 16v-3l-1-2c0-1 0 0 0 0l-2-5c-2-5-2-6-1-6h13c2 0 2 0 0-1l-6-2v1ZM61 38h1c0-1 0 0 0 0h-1ZM32 38v1h1v1l-1 3v5l6 5 1 2v3c0 2 0 2-5 7a196 196 0 0 0-13 13l-2 1h-1l-2 2-1 1h-2l-1 1h1l4-2 3-2 6-5 9-9 6-5-1-3-1-5v-3h-1l-1 1 1 2h-2c-2-3-3-5-2-6v-2l-1-2 1-3v-1h-2ZM61 40l7 7c2 1 3 2 2 0l-11-9 2 2Zm3 3 3 2q2 1 0 1l-3-3-1-1 1 1Z"/><path d="M35 42v2c2-1 2-1 2 1v2l1 1v-1l-1-3v-2l-1-2-1 2ZM56 40l-4 5v4c0 1 0 1 0 0l1-1 1-1h-2l1-1h4l3 1v2h1l-1-5-3-4h-1Zm2 3v2h-5l1-2c2-2 3-2 4 0ZM60 42l1 1v-1h-1ZM36 45v2-2ZM62 45h1-1ZM34 47l2 3 1 1v-1l-2-2v-1h-1ZM54 49h6-6ZM40 50v1c0 1 0 1 0 0l1-1s0-1 0 0l-1-1v1ZM61 49v1h1l-1 1v1h1c0-2 0-2 2 0s1 0-1-2l-2-1ZM70 52l-1 2 21 16 3 1a117 117 0 0 0-22-22l-1 3Zm3 0c-1 0 0 0 0 0l6 5 1 1v1h1l1 1 3 3 2 2 2 4-1-2c0-1 0-1 0 0l-2-1-4-3-4-3-4-3-1-1-1-1-2-2 1-1 1-1 1 1ZM53 50l-3 3c-2 3-2 5-1 7l1-1v-4l2-3h3c3 0 6-1 5-2h-1c0-1 0 0 0 0h-3l-2 1h-1l1-1h-1ZM51 50l-1 1h1v-1ZM48 52c0 1 0 2 1 1v-2c0-1 1 0 0 0l-1 1ZM67 52l1 1-1-1c0-1 0 0 0 0ZM53 53h1-1Z"/><path d="M56 53c-1 0-2 0-1 1h-1c-1 0 0 0 0 0h3l1-1h-2ZM59 53h1-1ZM65 55v2-1l1-1h1l1 1 1 5v4l1 1h-1l-1 1-2 2h1v-1 2h1v-1l1-1c1 0 1 0 0 0h-1l1-1 1-1v-2c1 0 0 0 0 0v-4l2 1h2l-4-4-4-4-1 2ZM41 57l1 3 2 5 2 4 2 2 2 1-3-10-1-2v1l1 2 1 4 1 3-3-3v-1h1l-2-2-1-2-1-2-1-2v-1h-1ZM63 59h1-1ZM51 59l2 1-1-1h-1ZM59 60l1-1h-1v1ZM56 60c1 0 0 0 0 0-1 0-1 0 0 0Z"/><path d="M41 62h1v1l-3 2v1l2-1 2-1h-1v-1c1-2 0-2-1-1Zm1 2v1l-1-1h1ZM45 62v1l1 1-1-2ZM71 62v1c1 0 2 1 2 3s1 2 2 3l2 2q-1 0 0 0l1 2-2-9c-1-2-2-3-5-2Zm4 3 1 3c-1 0-2-1-2-3s0-2 1 0Z"/><path d="m37 65-2 3 1-1 1-1v-1l3-1c2-3 0-2-3 1ZM71 66l-1 4 1 4v2c1 0 1 0 0 0v1l1-1v-3l-1-2c0-1 0-1 0 0l1-1-1-2h1l-1-2v-2 2ZM36 70a36 36 0 0 0-4 4l-1 1c-1 2 2 0 4-3l3-3-1 7 1-1 1-1-1-1c0-4 2-7 2-5 0 1 0 1 0 0v-2l-4 4ZM64 66c-2 1-2 1 1 1h2l1-1h-4ZM35 68l-1 2 3-2c1-2 0-1-2 0ZM81 68v3l2 2h1-1l-1 1 1 1 1-1 1-1-2-4-2-1ZM47 70l3 3-3-3ZM74 71v1l1 1 1 1h1l1 1-4-5v1ZM96 71c2 0 3 2 2 4v5-2l1-4 1 9v4l1 1v4l1 1v7l1 4-1-14-2-13-1-4-4-3 1 1ZM73 72l1 2-1-3v1ZM89 73h-2 5l1-1-4 1Z"/><path d="m31 74-6 3c-1 0-3 2-2 3v-1c1-1 4-3 5-2v1l1-1 1-2 2-1 1-2-2 2ZM44 73v4l1-1c2 0 2 0 1-1l-1 1h-1l1-2h1l-1-1h-1ZM94 73l2 1-2-1c-1-1-1-1 0 0ZM48 74l1 1 2 2 2 3v-2l-1-1-1-2 1 1c1 2 0 2-1 1v-1l-3-3v1ZM41 74v2l2 2v-3c0-2 0-2-2-1Zm1 1h-1 1ZM50 74h1-1ZM53 74v1l2-1h1-3ZM90 74l1 1v-1h-1ZM76 74l2 5-1 2v1l1-2h2v-2l2-1h3l-1 2h-1c1 1 3-1 3-2v-1h-4l-1 1h-2l-1-2h-1l-1-1Zm2 3 1 1-1-2v1ZM48 76l1 1 1 1 1 2 1 2h1l-1-2-4-4ZM91 77v2h1v-2h-1ZM70 78v2l-1 4v1l-1 2c-1 1-1 1 1 2 1 0 1 0 0 0l1-6 2-6-2 1ZM95 78h-1 1c0-1 0-1 0 0Z"/><path d="M26 78v1h-1l1 1c0-1 0 0 0 0h-2l1 1 2-3h-1ZM39 79l1 2 1 2v3l1 2c1 2 1 1-6 3l-3 1a52 52 0 0 0 11-2v-1c-1 0-3-4-2-5l1 2 2 3 1 1-1-2-4-8 2 1c2 1 3 2 4 1v-1h-1l-2-1h2q1-1 0 0l-4-1-1-1h-2v1ZM53 80h2-2ZM62 80h1v-1l-1 1ZM81 80c-1 0 0 0 0 0h1v-1l-1 1ZM23 81l-1 1h-1 1c2 0 2 0 1-1v-1 1ZM27 81h1v2l-1 1h1l1-1-1-2h-1ZM53 82l1 1 1 1 1 3 2 3 2 3v-1l-1-2c-1-1 0-1 5-1l3-1h-4c-6 0-5 0-7-3l-2-3h-1c-1 0 0-1 0 0ZM103 83c2 7 2 13 1 18v3h1c-1-2 0-4 1-3v-6h1v-1c-2 0-2 0-2-2l1-2h1-1l-1-2-2-7v2ZM74 83l-2 2h1l3-1s-1 2-2 1l-1 1v1h-3v1h2l2-1 2-1h2-2v-2l1-1v2l1-2h-4Zm-2 4h-1 1ZM19 83h1-1ZM79 83v1l2 2v1l-1-3-1-1ZM17 83l-2 1c-1 0-3 1-3 3l1-1 4-2h1l-1-1ZM96 83v1h1l-1-1Z"/><path d="m53 84 1 1v-1h-1ZM9 86l-3 2h1l3-3-1 1ZM30 85v1h-1v1l2-1-1-1c-1-1-1-1 0 0ZM22 85v1l1-1h-1ZM19 86h-1 2-1ZM97 86v1-1ZM22 87h1v-1l-1 1ZM25 87h2-2ZM32 87c1 0 0 0 0 0-1 0-1 0 0 0ZM20 88h1l-1-1v1ZM33 88v1-1ZM52 88l3 1h2l-3-1h-2ZM82 89l1 3-2-4 1 1ZM48 89h-2 4l1 1v-1l-2-1-1 1ZM11 90a88 88 0 0 1 2 7v-2l-1-3c0-2-1-3-2-3l1 1ZM3 90l2 1-1 1h1l5 9-1 4-2 2-2 3-2 2 3-2c4-4 4-4 3-1l-1 5v1l-1 1c1 1 2-2 2-3l1-3v-3c0-8 0-8 2-8 1 0 2 2 2 6v3-8l-2-1c-2 0-3-1-3-2l1-1c1 0 0 0 0 0v-1l-3-1v-1l-2-1c0-2-2-3-2-2ZM33 90l-2 1v3h4l-1 1c-1 0-2 1 0 1l4 5-3-4v-2l1-1 3-1v-1l-3 1h-4v-2l1-1c0-1 0-1 0 0ZM67 89v2l-2 5-2-1v1l2 1h8s0 1 0 0h1l-4-1h-3l-2 1-1-1h1l3-5-1-2ZM80 90v1q0 1 0 0l1 1v3l1-3-1-2h-1q0-1 0 0ZM46 90l-1 1 2-1h1c1 0 1 0 0 0h-2ZM61 90v1h2v-1h-2c-1 0 0 0 0 0ZM30 91v-1 1ZM42 91h-1 3v-1l-2 1Z"/><path d="M65 92c-4 2-10 3-14 1l-4-1h-2 2l4 2 6 1 5-1 4-3-1 1ZM44 92l3 6-1-2-2-3v-1c-1 0-1 0 0 0ZM53 92h-2 8-6ZM83 93l1 1h-1l-1 1h3v-1l-2-1ZM108 96v20l3 7c0 4 2 8 3 10l1 8v20a258 258 0 0 0 0 14l2-3v-13l-1-6v-10s1-6-1-7v-1l-1-2-1-2v-2l-1-4-3-8v-14l1-4v-2l-2-1Zm9 67v4l-1 2c-1 0 0 0 0 0v2c-1 2-1 1-1-2v-4l1-3v-1l1 2ZM31 96v1l1 1v-2l-1-1v1ZM61 96l1 1c0 1 0 1 0 0v1h1l-1-1v-1h-1ZM83 96l1 2h1l-1-1v-1l2 3 1 2c2 1 2 3 1 4l1 1h1l-2-6-2-3-2-1h-2 1Z"/><path d="m45 97 7 7 4 1c3 0 3-1 5-3 4-4 3-4 0-1l-3 2-1 1c1 0 1 0 0 0h-1l-1-1h-3l-5-5c1 0 0 0 0 0l-2-1-1-1 1 1Z"/><path d="M53 96c0 1-1 1 4 1h4l-8-1ZM101 99l1 1v-2l-1 1ZM31 102c0 4 0 7-2 9l-1 2c0 1 0 1 0 0l2-2 2-5v-5l2 1 2 2 1 1 3 5v1c1-1-2-6-6-9l-3-3v3ZM60 101l-1 1 1-1 1-1-1 1ZM66 101l11 10-3-2-7-8 2 2c2 2 6 5 8 5l-3-2-5-4-2-2-1 1c-1-2-1-1 0 0ZM39 104l2 4 1 2v-1s-1 0 0 0l-4-7 1 2ZM90 107h2l1-1h-1l-2 1ZM102 107l-1 2-1 2 3-4h-1ZM88 108l-1 4v-5l-1 3v1l-1 2 2 3v-2c2 1 1 0 0-1-2 0-2-1 0-1 1 1 1 1 2-1l-1-4v1ZM95 108l-1 1v1l1-3v1ZM84 109l-2 1h-1l3 1 1-3-1 1ZM97 109v1l1-1c0 1 0 0 0 0h-1ZM92 110h1l-1-1q-2 0 0 1ZM42 111l2 7v-5h-1v-2h-1ZM98 111l1 1v-1h-1ZM13 112v5l1-3c0-3 0-4-1-2ZM42 112v2l1 4c0 3 0 3 0 0l-1-6ZM3 115v2l1 2v8s-1 0 0 0v5H3v5l1 3-1 4v5l-1 3 1 2v4l1 2v1l2 3 2 1v2h1v1c0 2 2 7 3 6l2 1h2l-2-1c-2-1-3-2-3-4l-3-6c-2-1-3-4-4-6v-22l1-7 1-7-1-5-2-2ZM78 114h2-2ZM91 114h1-1c-1 0-1 0 0 0ZM96 114l-3 2-4 1c-1-1-2-1 0 0l1 2v1l1-1v-1l1-1 2-1h1l2-2h-1ZM81 115l5 2 1 9 1 6-1 4v13l1 3c2 2 3 11 2 15v8h2l-1-1v-7l1-7-1-3 1 1 1 2h1v1l2 2 1 4a187 187 0 0 1 0 8l1-6v-5l-1-2-2-2-4-6c-4-6-5-11-3-18v-6l-1-8-1-6-3-1h-2ZM89 115h1-1ZM24 118v1-2 1ZM12 118l2 4 1 2c0 1 0 0 0 0h1v4h-1v3h1l-1 1c1 1 2 0 1-1l1-1v1-5h6l3-1h-1l-3 1-1-1v-1h-1 1v1h-1c-1 0-1 0 0 0l-1-1v1h-1c-1 0-1 0 0 0v-1l-1 1h-1c1-1-1-3-2-3v-1l-1-1-1-2Zm5 11h-1 1ZM27 120v1l1 9c0 7 1 11 3 16l2 8-1 6a72 72 0 0 1-8 15l1-1 2-2 1-2 1-1v-2l2-2 1-3 1-2v-2h1v-8l-3-6-1-1-1-9 1-4c0 1 0 1 0 0l-1-4c0-4-1-7-2-6Z"/><path d="M11 126a57 57 0 0 1-5 17l1-1v1h1v-2c1-1 5-17 4-19l-1 4ZM26 123v1-2 1ZM44 123v1l1 3 1 4-1-6-1-2ZM23 124v1-1c1-1 1-1 0 0ZM24 124h1-1ZM44 128c-1 1 0 2 1 4l1 2-1-3-1-3c0-1 0-1 0 0ZM42 131v5l1-5h-1ZM32 142l1 1 1 1 3 5v2l-1 1 4-6v-1h-1l-1 3v1l-1-1v-2l-1-1-4-4v1ZM44 146l-1 2v1-1l1-2 1-2-1 2ZM113 149l-1 3c-1 0-2 2-2 5s-1 4-6 6l-4 1c-1 0-1 0 0 0 1 1 3 1 5-1l3-1c2-1 2-3 2-6 0-2 1-2 3-5l2-4-2 2ZM42 150h-3 4-1ZM2 91l-1 3 1 2v1-2l-1-1v5l1 2v4l1 4v2l-2-8-1-8v-2l3-2H2Z"/></svg>