<svg xmlns="http://www.w3.org/2000/svg" viewBox="0 0 60 80"><path d="M14 0h-3L5 2 2 6 1 7l-1 3 3 1h3l8 1 5 1 1 3 1 2 1 8a127 127 0 0 1-1 20c0 5 0 5-2 5a76 76 0 0 0-6 1v1l5 5 3 3 4 4a87 87 0 0 1 10 12 67 67 0 0 1 3 3h1l2-2a163 163 0 0 1 6-7 34 34 0 0 1 3-4v-1a653 653 0 0 0 9-15h-4l-2-1V37a176 176 0 0 0-1-23v-2l-1-3V8l-3-3-2-2h-1l-1-1h-3l-3-1h-7a130 130 0 0 1-17-1Zm8 2 2 3 1 2 1 1v2l2 6v3l1 1v-5l-1-2v-3h-1V8l-1-2-1-1-1-2V2c2 0 3 2 5 5l1 1V7l-1-2-1-1-1-2h1l2 1 1 3 1 1 1 2 1 1-1-4h-1l-1-2c-1-1-1-2 1-2l2 3 1 1v1l1 1V6l-1-2-1-1 1-1 2 2 1 1V4l-1-1c1-1 2 0 3 2l1 1a18 18 0 0 1 1 4l1 1 1 2v-3l-3-5-1-2c1 0 2 0 3 2l1 2c2 1 1 0 0-2V4l2 2 1 2 2 2-2-3 1-1 1 2 1 1v2l1 4 1 5v11a312 312 0 0 0-1 19v4h6v2h-1v1a94 94 0 0 0-5 7 147 147 0 0 0-6 8l-6 6-1-1a107 107 0 0 1-7-8l-1-1a82 82 0 0 0-7-7 79 79 0 0 0-6-5l4-1 5-1V39l1-15-1-3a52 52 0 0 0-1-7l-1-3v-1l-1-1-1-1-1-2V5l-2-2c-2-2-1-2 1-2l2 1Zm-6 0c1 1 3 2 4 5l1 1 1 1v1l1 1v3l1 2v3l1 2v10a409 409 0 0 0-2 20v-8a120 120 0 0 0-1-23 40 40 0 0 0-3-12l-1-1-2-3h-1l-1-1h-3L9 4 5 6 4 8l-2 2V7l5-4h1V2h8Zm-6 3L8 7h1l1-1h1l-1 2-1 1c-1 2-2 2-3 1L5 9v1-2l3-2 1-1h1Zm3 0v2l1-1 1-1v2l-1 2 1-1c1-1 1-2 2-1l-1 1v2-1l1-1v1l1 1v1h-3a89 89 0 0 1-6-1l1-1 1-1 1-2 1-1Zm43 47h1v1h-2l-3-1h4Zm-33 1v1h-5l-2 1v-1l-1-1h8Z"/><path d="m39 9 1 1c0 1 0 1 0 0s0-2-1-1ZM49 13v2l1 2v-3l-1-2v1ZM34 15l1 1v2l1 1v-3l-1-1h-1ZM32 17v1h1l-1-2v1ZM45 20v1h1v-1h-1ZM50 20v1l1 1v-1l-1-1ZM30 25v3l1-2-1-1ZM44 35v1h1c1-1 0-2-1-1ZM50 37v1l1-1h-1ZM33 42l-1 1v2h1v-3c-1 0 0-1 0 0ZM29 42v4h1v-4h-1ZM40 44l-1 8h1v-2a79 79 0 0 1 1-6h-1ZM49 49v2l1-1c0-1 0-2-1-1ZM43 50h1v-1l-1 1ZM32 52v1s0 1 0 0l1-1h-1ZM35 56v2c0 2 0 3 1 2v-5l-1 1ZM46 66v2l1-2h-1Z"/></svg>