<svg xmlns="http://www.w3.org/2000/svg" viewBox="0 0 60 80">
  <path d="M14 0h-3L5 2 2 6 1 7l-1 3 3 1h3l8 1 5 1 1 3 1 2 1 8-1 20q0 5-2 5l-6 1v1l5 5 3 3 4 4 10 12 3 3h1l2-2a159 159 0 0 1 9-11v-1l9-15h-4l-2-1V37l-1-23v-2l-1-3V8l-3-3-2-2h-1l-1-1h-3l-3-1h-7L14 0Zm8 2 2 3 1 2 1 1v2l2 6v3l1 1v-5l-1-2v-3h-1V8l-1-2-1-1-1-2V2c2 0 3 2 5 5l1 1V7l-1-2-1-1-1-2h1l2 1 1 3 1 1 1 2 1 1-1-4h-1l-1-2c-1-1-1-2 1-2l2 3 1 1v1l1 1V6l-1-2-1-1 1-1 2 2 1 1V4l-1-1c1-1 2 0 3 2l1 1 1 4 1 1 1 2v-3l-3-5-1-2c1 0 2 0 3 2l1 2c2 1 1 0 0-2V4l2 2 1 2 2 2-2-3 1-1 1 2 1 1v2l1 4 1 5v11l-1 19v4h6v2h-1v1l-5 7-6 8-6 6-1-1-7-8-1-1a83 83 0 0 0-13-12l4-1 5-1V39l1-15-1-3-1-7-1-3v-1l-1-1-1-1-1-2V5l-2-2c-2-2-1-2 1-2l2 1Zm-6 0c1 1 3 2 4 5l1 1 1 1v1l1 1v3l1 2v3l1 2v10l-2 20v-8l-1-23-3-12-1-1-2-3h-1l-1-1h-3L9 4 5 6 4 8l-2 2V7l5-4h1V2h8Zm-6 3L8 7h1l1-1h1l-1 2-1 1c-1 2-2 2-3 1L5 9V8l3-2 1-1h1Zm3 0v2l1-1 1-1v2l-1 2 1-1c1-1 1-2 2-1l-1 1v1l1-1v1l1 1v1h-3l-6-1 1-1 1-1 1-2 1-1Zm43 47h1v1h-2l-3-1h4Zm-33 1v1h-5l-2 1v-1l-1-1h8Z" style="fill:#2f6457"/>
</svg>
