<svg xmlns="http://www.w3.org/2000/svg" viewBox="0 0 80 80"><path d="m55 2-4 4-3 3a284 284 0 0 1-16 15l-2 4v2c0 1 1 2 3 1l4 1v13l-1 5-1 3-1 1v3l-1 1-1 1v2l-1 1-1 1v1l-1 2-3-3-1-2v-5l-2-1-1-1h-4a83 83 0 0 0-11 0c-5 1-6 1-7 3v5a24 24 0 0 0 2 9v1c0 1 0 0 0 0v1a42 42 0 0 0 6 6h1c1 0 0 0 0 0h1l1 1h8l3-1h7l2-1a51 51 0 0 0 8-1h2l3-1h4l2-1h2l1-1h2l2-1 1-1 5-5a30 30 0 0 0 3-6v-2l1-3 1-1v-4l1-3v-3l1-3V31l1-1h6l1-2a33 33 0 0 0 2-3l-1-2A210 210 0 0 0 65 8l-8-8-2 2Zm3 0v4l1-1a230 230 0 0 0 18 18v1h-4l-4 1-1 7a94 94 0 0 1-2 21v2l-1 2v2l-1 1v1l-1 1v2h-1v1l-1 1v1l-1 1-2 2v-1l1-2 1-2v-2l-1 2-1 1-1 2-1 2v1l-4 2v-1l2-3 1-2h-1l-1 2-1 1a6 6 0 0 1-1 2l-2 2h-1l2-3 1-2h-2l-3 5-3 1v-2l1-1 1-1v-1a22 22 0 0 0 3-4v-1l-1 1h-1v1l-1 1v1a128 128 0 0 1-5 6h-2l2-2 1-2-3 3c-1 2-2 2-3 2h-1v-1l1-1-2 1-3 2h-2l1-1c2-2 5-4 5-6l-2 1a27 27 0 0 1-6 6h-1l-1 1h-3l1-1 1-1h1l1-1h1c1 0 0 0 0 0l1-1h1l1-1a48 48 0 0 0 7-9l1-1 1-2 1-2v-1h1v-2l1-1v-1l1-4v-3l1-2V27c-1-3-1-3-4-3h-4A288 288 0 0 1 58 2ZM40 26l-2 4h-6l1-3 1-1h6Zm37 0c0 1-1 2-4 2l-2 1-1-2 4-1h3Zm-35 2a237 237 0 0 1-2 24l-1 1v2l-1 1v2l-1 1c-1 1 0 0 0 0v1l-1 2-1 1v1l-5 5a30 30 0 0 1-10 7s-1 0-1 1H9l-1-1-4-5-1-1v-1l-1-3a354 354 0 0 0 0-9c1 1 2 1 2 5v5l2 4 3 3h1l5 1h3l1-1h2v-1h2l2-2 4-4a14 14 0 0 0 3-3l3-6v-1l1-1v-2l1-1a44 44 0 0 0 2-10v-9l1-4 2-2ZM19 55l1 1a102 102 0 0 1-12 1H5l6-1 4-1h4Zm4 3 1 5h-1v2l1 1v1l1 2h-1l-2-1-1-2v-1h-1l2 4v2h-1l-2-2-2-3a86 86 0 0 1-3-3l1 2 1 1v1l1 1 2 2c1 2 1 2-1 2l-2-1-1-2v2l1 2h-1a68 68 0 0 0-4-4c-1 0-1 1 1 2 2 2 2 2 0 2h-2v-1H9l-2-2v-1l-1-1-1-5 1-3 1-1 2-1h14Zm4 9h-1l-1-1h1l1 1Z"/><path d="M55 12v1h1l-1-1ZM66 19v4l1-1v-1l-1-2ZM46 23l1 1v-1h-1ZM64 32v2l-1 2v1c1 1 1 0 1-1l1-1v-3h-1ZM46 35l-1 3 1-1 1-3-1 1ZM51 55l-1 1v1l-1 1 1 1 1-1v-3ZM58 57l-1 1v2l-1 1v2c0 1 0 1 0 0l1-1v-1h1v-5 1ZM42 62v1h-1v2l2-2v-2l-1 1ZM52 64v2l1-3c0-1-1-1-1 1ZM43 67l-1 1h1v-1ZM7 61v1h1v-1H7ZM10 63v1l1 1v-2h-1Z"/></svg>