<svg xmlns="http://www.w3.org/2000/svg" viewBox="0 0 161.9 175"><path d="m80 2-1 1-8-1C61 2 53 4 53 5h19l14 2c7 0 17 4 24 11 4 4 15 23 15 27l-3-1-3-4 2 4 5 9 5 7 2 4 3 4c4 5 3 3-1-4-3-5-4-8-4-18-1-8-1-12 1-12l2 3c3 7 9 34 11 47l2 14 6 8c7 9 7 12 5 23-2 7-6 11-13 11-5 0-7-1-11-5-5-6-11-10-12-8h-1c1-3 3-3 10 2 4 3 8 5 9 4l6 1h3c0-1-3-3-6-3-9-3-13-4-23-11q-4-3-2 0c2 2 2 4 1 10l-1 8v-7c0-6 0-8-2-10l-6-10a167 167 0 0 0-6-17c0-1-2-6-6-11-7-12-13-27-13-30v-2c-2 0-4 3-4 6l-1 2h-6c-3 1-4 2-4 4 1 3-1 5-3 3l-3-1 3 4c3 2 3 2 4-1 0-1 1-2 3-2s1-1 1-1l1-3c0-2 1-2 1 1s0 4 2 3l1-3c-2-4 2-1 7 6 5 8 6 12 3 9-1-1-3-1-7 1l-4 1c1-1-3-5-5-5-3 0-1 5 5 11l8 10c1 2 2 2 2 1l-3-7-3-5 4 1q4 0 1-1l-6-1c-2 0-2 0-1-2 2-3 2-3 4-1l6 4c3 3 3 3 0 5-1 1-2 2-1 3l2-2c3-4 6-2 9 4l5 11 2 8 4 8c2 3 3 9 3 12s1 4 3 4 4-2 3-7c-1-3 5 0 10 5 7 7 14 9 21 5 7-3 10-8 10-20 0-9 0-10-5-16-7-8-7-9-8-22l-2-13-5-18-6-18c-3-3-3-3-7-1l-4 1-2-6v1c1 4 0 3-3-2v-3l-11-12c-6-5-15-9-19-9l-4-2c-2-2-3-1-6 1Zm5 1-1 1-1-1 1-2 1 2Z"/><path d="M65 7c1 1-2 2-8 2l-2 2c0 2 0 2 3 1 3-2 4-1 2 1-2 3 0 10 2 7v-6c3-5 6-6 9-5 2 2 2 2-1 1l-3 1 4 1c4 0 4-2-1-5-5-2-6-2-5 0ZM52 14l2 3-3-8 1 5ZM83 13l8 8 14 15 12 17 6 9-4-9-5-10-10-12-9-10 2-1-3-1c-2 0-2-1-2-3v-1c-1 2-3 2-2 0l-1-2-6-1-4-1 4 2Z"/><path d="m70 16 2 1c2 0 3 1 2 4l-1 5c-1 2-2 1-1 0 1-2 0-3-1-4-2 0-3-2-3-4v-1l-2 1-2 1 3 3c2 1 3 2 3 4s0 3 1 3c4 1 6-2 5-5-1-2-1-3 1-1v7c1 0 1 1-1 2l-2 3 15 15 6 8 9 13 7 11 3 4c2 0-2-7-8-15l-9-14c-2-4-6-8-8-9-4-4-9-12-9-14l1-4c2-1 4 0 10 7a229 229 0 0 1 28 34c1-1-6-13-10-17l-6-8-12-13c-8-9-10-13-7-15 2-1-6-4-11-4-2 0-3 0-3 2Zm11 2-2 2c-1 0-2 0-2-2s1-1 2-1l2 1ZM97 15c0 1 6 5 7 4l-3-3-4-1ZM55 23c0 5-2 7-5 7-5 1-16 7-20 12-5 5-7 12-7 26 0 11 0 11-4 15-3 2-7 6-9 10-4 6-5 7-5 17 0 8 0 10-2 13-4 3-4 7 0 14 3 7 10 16 12 16l-3-6c-5-7-9-16-9-18 0-1 1-4 3-5 2-3 3-5 2-13 0-9 0-11 4-16l8-10 3-3v4c0 4 0 4-2 4-2-1-2-1-1 1 2 2 1 5-6 12-3 2-3 3-1 2 7-3 8-3 7 0-1 1 0 2 1 1 3-2 21-2 24 0 4 3 4 4-2 5-5 0-5 0-3-2 4-3 1-3-3-1-3 1-4 3-4 4 1 1-2 2-6 2-6 1-8 4-2 4l20-5c5-2 6-2 9 0l4 4c0 2-3 3-4 1h-4c-2 2-4 2-5 1-2-1-2-1-2 1 2 3-3 4-7 0-5-3-6-1-2 3q3 3 0 3c-2 0-4-1-5-3h-2l2 2 1 4c0 3 0 3 3 1l4-3 7-3c10-5 15-4 15 2 0 4-6 5-10 2l-2-1 1 2c1 1 0 2-1 3-3 2-4 2-6 0-4-3-5-1-2 2 3 4 0 4-4 1-2-2-4-2-4-1v2c0 1 0 1 0 0h3c2 2 2 4 1 6s-1 2-5-2l-4-2c-2 1 6 7 9 7 1 0 2-1 2-3l1-2 7-4c6-4 7-4 8-3 2 2 2 3 0 7-2 3-4 6-7 7-3 3-5 3-10 2l-9-2c-2-1-3-1-2 1 1 1 0 1-1 1l-2 2h9l8 1c4 0 4 0 0 5l-2 6 1-1 4-3c2-1 4-3 5-6 0-2 2-4 3-4l2-1 3-6c1-2 3-5 2-7 0-2 1-4 4-7l3-2 3 2c2 1 2 2 2 3-1 2-1 3-2 2l1 2c3 2 3 3 0 3-2-1-3-2-3-4l-2-3c-2 0-2 4 0 5l1 3 1 2 12-2c8-2 8-2 11 0 2 2 3 2 5 0 1-1 2-2 1-3s-1 0-3 2q-2 2-1-1t-8-2c-9 1-14-1-11-3 1-2 14-5 18-5s10 7 10 11 1 4 2-1c0-3-1-5-5-9-4-3-6-5-7-4 0 3-4 2-5 0 0-1-1-2-3-1-3 2-8-1-12-8-2-4-3-6-1-6l2 2 2 1c4-1-1-5-6-5s-6 0-6-2 6-6 9-5l-1-4c-4-5-5-6-4 0 0 3 0 4-2 3l-2-2-1-5c0-3 0-3 1-2 1 2 2 2 1-2-1-5 0-9 2-8l1 4v4c2 0 2-7 0-10l-2-1c-2 1-2 0-1-2 1-3 1-3-1-1-1 2-2 3-3 1-1-3-3 0-1 3s-1 5-6 3l-8 2-4 2 2-3c3-2 4-3 9-2l5-1-6-1c-6 0-14 5-14 9 0 2 4 3 5 1l7-2c3 0 6 0 6-2 1-1 2-1 3 1 1 1 0 2-2 2-3 1-3 4 1 3 2 0 3 0 3 4l-1 9c-2 5 0 7 6 10 4 1 9 8 9 11l-5-1c-3-1-5-3-6-6l-5-6-8-5c-2-3-5-3-10-3-11 0-11-1-11-21-1-15-1-16 2-18 2-2 2-2 0-2-2 1-2 1-2-4 2-12 6-17 22-23 12-5 12-5 10-7l-2-3 1 1c1 1 2 1 1-2 0-4-3-5-3-1Zm23 104-3 1c-2 1-3 0-1-1h4ZM63 24c0 1-1 2-2 1s-1 0 0 1l2 1 1 1 1 2c2 1 3-4 0-6-2-2-2-2-2 0Z"/><path d="m60 29 1 2-1-3v1ZM67 36v2l-4 2-1 1 1 1c1 1 1 1-1 2-3 1-3 1-1 1l5-1 1-2 1-2 4-1v-1c-1-3-2-3-5-2ZM106 46l1 3 1-1-1-2h-1ZM64 49c-4 1-4 1-1 1 2 1 4 0 5-1l5-2h4-4l-9 2ZM65 54l-1 2c2 0 4-3 3-3l-2 1ZM86 54l3 2c2 2 2 2 0 0l-3-2ZM33 58l1 2 2-1 1-1h1l-2-2-3 2ZM55 57c0 2 2 5 3 4s0-5-2-5l-1 1ZM39 65l-5 2c-6 7-7 12-3 15 2 2 2 1 1-1-2-4-1-7 2-7l2-2 3-1 7-2h7l2 2c2 2 2 1 0-3s-3-5-7-5l-9 2ZM80 68v5c0 4 0 5 2 4l4-1c1 1 1-1-1-4l-3-5-2 1ZM99 76c0 2 2 4 3 3l-1-2-2-1ZM29 90c0 2 3 3 6 3 2 0 1-1-2-2l-4-1ZM79 91l2 7 1 5 1 5c-1 2 0 4 4 8 6 6 8 5 3-1-3-3-4-6-3-8 1-4-4-14-7-17-2-2-2-1-1 1ZM93 93l2 1 1-2h-1l-2 1ZM74 96l4 4-2-4-4-3c-1 0 0 2 2 3ZM111 94l2 2 2-2-2-1-2 1ZM41 96v2l2-2c1-2 1-2-2 0ZM113 100h3c3-1 3-1-1-1l-2 1ZM75 106l3 3c2 0 3 0 2-1 0-2-5-3-5-1ZM23 108c-1 3 1 7 2 5v-3c-1-3-2-3-2-2ZM15 110c-3 3-1 6 8 13 2 2 2 2 0-1 0-2-3-4-5-5-2-2-3-3-2-5 1-3 0-3-1-2ZM75 116c0 2 1 3 2 3 2 0 2 0 1-3l-2-2-1 2ZM93 116l2 2v-2l-2-1v1ZM18 124c0 2 4 7 5 7 1-1 1 0 1 2-1 2-1 2 1 2 2-1 2-2 2-3l-1-3h-2l-4-3-2-2ZM50 125l4 2c4 0 4 0 2-2l-2-1c-1 2-1 2-3 0-2-1-2-1-1 1ZM106 129l2 1v-1l-1-2-1 2ZM16 135l3 5 4 2c0-2-6-8-7-7ZM48 137l3 1 2-1-3-1-2 1ZM112 138v10c1 1 2 0 2-5 0-6 0-7-2-5ZM118 143c2 2 4 4 3 5l1 3 1 2v2c2 0 2-9 0-12-1-2-4-3-5-3q-3 0 0 3ZM41 142l4 5c3 0 2-3-1-4l-3-1ZM64 144c0 2 1 2 2 2l-1-3c-2-1-2-1-1 1ZM59 145l1 2 1-1c-1-3-2-3-2-1ZM82 144c0 2 6 7 7 6l-2-3c-3-3-5-4-5-3Z"/><path d="M102 148c-5 6-12 9-15 7-2-2-2-2-2 0s0 2-2 1l-4-1-4-1c-1-2-5-3-5-1l2 3c2 1 2 2-2 1-3 0-8-2-10-4l-5-3c-1 1 3 4 10 8 11 5 27 2 38-8 4-4 6-3 3 2-1 1 1 5 5 12 7 10 10 13 10 10l-2-2-4-6-5-9-2-4 1-5c1-5-1-5-7 0Z"/><path d="M74 148c3 4 4 5 4 3l-4-4-3-2 3 3ZM64 150l3 1h1l-3-1h-1Z"/></svg>