<svg xmlns="http://www.w3.org/2000/svg" viewBox="0 0 175.7 175"><path d="M59 0c-1 1 0 3 1 4V3l1-1h1l1-1h-1l-3-1ZM56 1v1l1 3 1 4 1 1V8l-2-6-1-1ZM39 4v1l1-1h-1ZM44 4v2l1-1c0-2 0-2-1-1ZM42 5l-1 1h1l1-1h-1ZM60 6l1 3c0 1 0 1 0 0l-1-3ZM52 8h1-1ZM37 8v1-1ZM54 9l1 1V8l-1 1ZM35 11l-1 2-1 2v8h1v-3h2c2 0 2 0 1 1v1l1-1v-1h1l2-2h-3l-2 1h-2v-2l2-7-1 1Z"/><path d="m38 10-1 3 1 4h1c1 0 1 0 0 0v-3l-1-4ZM51 11l3 3v-1l-1-1-1-2-1 1ZM40 12l2 6v-3l-1-3v-1l-1-1v2ZM45 10l1 1 1 1v-1l-2-1ZM48 11v2l1 2-1 4v3l-2 1v1l2-1s0-1 0 0c2 0 2-6 1-11v-2l-1 1ZM32 11l-1 1-1 1-1 3-2 3-1 9h-1v4l-1 1v2h-1 2l2-1v-1h-1v-2l1-3 1-2v-4l3-7v-1l1-2v-1c-1 0 0 0 0 0Z"/><path d="M44 13v5h-1l1 2 1 2h1v-8 3l1 1c1-1 0-3-1-5-2-2-2-2-2 0ZM30 18v9l-1 1v1l1 3-1 3-1 2v6l1-3v4c0 1 0 2 2 2h2-2v-2l-1-5v-2l-1-1 1-1 1-1 1-8-1-6v-2h-1ZM51 20l-1 3c0 1 0 2 1 1l1-6-1 2Z"/><path d="M34 25v2l-1 2-1 8 1 5 1 2c-1 1 0 2 1 2 0-1 0-1 0 0h1c1 0 1 0 0 0l-2-3-1-2v-5c0-4 1-6 2-5v-3l1-1 1-1s1 0 0 0h-3v-1ZM28 30v-1 1ZM28 32h1v-1l-1 1Z"/><path d="M36 32v3l-1-1v2l2 7v1l1 1-1-14-1 1ZM114 33v1c0 1 0 1 0 0h5l5 5 1 1-1-2v-2c-1-1-3-3-5-3h-5ZM39 35l2 7v2l1 1v-3l-1-2-1-2v-3l-1-2v2Z"/><path d="M114 36h2l1 1 3 1 2 1-4-3h-1l-2-1-1 1ZM24 37l-1 1 2-1s1 0 0 0l1 1v-1h-2ZM130 38c0 1-4 1 33 1h7l-2-1h-13a107 107 0 0 1-16 0h-9ZM130 40l1 1h1l1 1h2l11 1a201 201 0 0 1 22 0c0-1-5-2-9-1l-3-1h-10a52 52 0 0 1-15-1h-1ZM13 42l3 1-2-1c-1-2-2-1-1 0ZM24 42v1h-1 2c1-2 0-2-1-1ZM11 43l1 1 5 6-1-2-1-2-1-1-1-1-2-1q-1-1 0 0ZM18 44l1 1-1-1ZM45 46v3c1 0 2 0 1-1v-3c-1-1-1-1-1 1ZM16 45v1h1l-1-1ZM43 46l-1 1h1v-2 1Z"/><path d="M11 47v3h1l1 1v2l1 2 4-1 2-1 1-1h-1l-1 1h-2l-3 1v-2h2l1-1h1l1-1v-1l-1 1-2 1-2-1-1-1-1-2c-1-2-1-2-1 0ZM22 54h-1c-2 1-2 3-1 2h1l1-1 1-2-1 1ZM29 54h1l-1-1v1Z"/><path d="m24 58-2 7h-1l-1 2-1 1-1-3-1-2v-1c1 0 2-1 2-3v-2l-1 2-2 2v2l1 1v3l1 1 1 1 1 1 1-2 1-3 3-5c3-7 2-8-1-2ZM28 57l-2 5v3l-2 2v-1l-1-1-1 2v2l1-1h1l3-3 1-2-1 1v-1l1-1v-2l1-5-1 2ZM16 56v1l1-1h-1ZM30 61h1l-1-1v1ZM41 62v6l1-2v-5c-1-1-1-1-1 1ZM36 62l1 1v-1h-1Z"/><path d="m19 63 1 1v-2l-1 1ZM39 63v1-1c0-1 0 0 0 0ZM30 64l-1 1v2l-1 1-1 2c0 1 0 1 0 0h2l1-2 1-1v-3h-1c0-1-1 0 0 0ZM35 65l-1 1 1-1 1-2-1 2ZM33 64l-1 2-1 3v2c0 1 0 1 0 0l1-2c1-1 2-2 1-4l1-1c0 1 0 1 0 0h-1ZM38 64l-1 3 1-1v-2ZM45 67l-1 1h2v-2l-1 1ZM50 68v1h-1 1l1 1 2 1 1 1-1-1-1-1-1-1-1-1ZM42 68l3 5 4 4h3l-2-1-3-3-4-3v-1l-1-1ZM22 71v3h1v1l1 1 1-1h-1l-1-3c1-2 0-3-1-1ZM26 72s0 1 0 0v-1 1ZM49 73l2 1h2l2 1-1-1-2-1-2-1c-2-1-3-1-1 1ZM33 72l-1 2v2h1v-4s-1 0 0 0ZM42 76l-2 1h-1 1l3-1 1-1v-1l-2 2ZM31 76l1 1v-1h-1ZM36 76h1-1ZM59 76l1 1 3 6 1 1v3l1 4 3 1c2 0 2 0 3-2s2-2 2-1l2 1c2 1 3 2 2 3 0 1-1 1-3-1-1-2-2-2-1 0l1 3 1 1 3 2c3 3 3 2 0-1l-3-3 4 3 3 3-1-2-1-2-1-1h-1c-1-1-1-1 1-2l2 1 1 1v2l1-1 1-1-1-1v-1h-1l-1-1-3-2h-1l-2-2h-4v1h-1c-2 2-4 1-4-1l-1-4v-1l-2-2v-2l-1-1h-1v-1l-1-1h-1ZM25 76l1 1 1-1h-2ZM28 77l1 2 1 1v-1c0-2-1-4-2-2ZM53 77h1l1 1h1c0-1 0-2-1-1h-2Z"/><path d="M58 78v2h1l2 4v6l-1 9v12l-1 8v2l-1 3-2 3-1 3a19 19 0 0 0-1 4l-2 5v3l-1 3-1 2c-1 0-1 0 0 0v14l1 1v2l1 5h1v1-6l-2-7v-5l1-4 4-17 2-2 2-6v-2l1-3V98l1-5v-5c1-3 1-2-3-9l-1-1ZM123 92l-1 2-2 5-1 1-1 1v1l-1 2c-1-1-3 1-3 2v3l1 2v1l1 1 1 1v1h1l1 2v-1s-1 0 0 0l-2-5-3-4 2-1c3-1 3-2 2-3l3-3 2-5 1-2h-1ZM69 93l3 4 1 1 3 3 1 1 1 1 1 1 2 2 1 1v-1l-1-1-1-1-1-2-2-1-3-3-1-2-1-1-1-2h-2ZM126 93c-1 0-2 2-1 3v1h1v-3l1-1h-1ZM66 94l3 4 1 2 2 3h1l1 1 1 1h1l2 2c2 2 3 2 1 0l-1-1-1-1-2-1-3-2-1-3h1v-1l-3-2-2-1-1-1ZM64 96l1 2 1 1 1 3 2 3 1 1 1 1h2s0-1 0 0h2l-1-1-5-4-5-6ZM88 96ZM87 98l3 2h2-1l-2-2h-2Z"/><path d="m124 100-3 5-2 5 1 3 1 1c0 1 0 0 0 0v-7l1-3 2-2 1-4-1 2ZM126 100c-1 3 0 4 1 1v-1l-1-1v1ZM138 100l3 4h1v1l1 2v3c0 3 1 3 1 0l1-2 1 1v4l-1 6 1 6 2 4 2 5v-2l-1-2v-2c-2-2-2-5-2-8l1-9-1-1v-1l-1-2-2-1v-1l-2-2-1-1-1-1-2-1ZM130 100v2l-1 1v1c1 2 0 8-1 9l-1 2v4l1 2v4h1v2l3 1v-1h-1l-1-1v-2l-2-7 1-2c1-1 2-4 2-10l-1-5Z"/><path d="M136 101v4l1 1 1 3v1a130 130 0 0 0 9 25l3 1h1s-1 0 0 0l-1-1-3-2-1-4a256 256 0 0 1-10-28ZM132 103v2a406 406 0 0 1 0-2ZM63 104l4 5 6 7h2l1 1-2-2-1-3 1-1-1-1h-1l-3-2-4-3-2-1ZM140 106l1 2v-2h-1ZM84 108l1 1-1-1-1-1 1 1ZM156 109l1 1 1 1-1-2h-1ZM148 111l2 3v-1l-1-1v-1h-1ZM154 112l1 2 3 7h1c0-1 0 0 0 0v-1l-3-5-1-3h-1ZM94 112l3 2v-1h-1l-2-1ZM136 113v2-2c0-1-1-2-1 0ZM160 112v3c0 1 1 1 1-1l1-1v-1h-2c1-1 0 0 0 0ZM165 113l-1 1-1 1c-1 0-1 0 0 0v2h3l1-1-1-1-1 1c0 1 0 0 0 0v-1a149 149 0 0 0 0-2ZM64 113l2 3-1-2-1-1ZM90 114h-1v1h2c3-1 2-2-1-1ZM136 116v4-4ZM96 117l-4 4v1h-1v2l-3 8-1 6-1 4-1 4-1 5v2c-1 1 1 2 1 1l1-2a32 32 0 0 1 7-17l2-3 7-7 6-1 4-1-8 1h-2l-2 1-5 5v1h-1v1l-2 2-2 3-1 2-1 1v-5l1-1v-2l1-3v-2l1-1v-1l2-3 1-1c-1 0 0 0 0 0v-1l2-1c0 1 0 1 0 0l2-1h2l-2-2-2 1ZM68 117l1 1 7 1-2-1-3-1-2-1-1 1ZM167 117l-1 1h5l-1-1h-3ZM160 118v1l1 8v12l2 1a74 74 0 0 0 6 1h2l-1-1-9-2c0 1 0 0 0 0v-2l1-4 1-3v-9c0-1 0-2-2-2h-1ZM71 119l1 1h1l-2-1ZM100 120v1-2 1ZM89 120l-1 2h1v-1c1 1 2-1 2-1h-2ZM171 120v1l2-1h-2ZM101 121v1-1s0-1 0 0Z"/><path d="M169 121v1h7l-3-1h-4ZM66 122v1l6 1h8-3l-3-1-8-1ZM170 124h-2l-1 1c-2 0-3 2-3 3v1c1-2 4-3 6-3h2l3-2h1-6ZM71 125l-1 1h-1l1 1 1-1h1l-1-1c-1 0 0 0 0 0ZM81 125h1-1ZM83 125v1l2 1v-1h-1l-1-1ZM109 125v2l1-1h4c4 0 11 2 11 3l1-1-2-1h-1l-11-2h-3ZM86 126v1-1ZM87 126v1-1ZM71 128c0 1 0 2 0 0v-1 1ZM70 129v1-2 1ZM68 131v4h-1v1l-1 2 1 1-1 1v4h-1v3c0 1 0 2 1 1v-3l1-2v-3l1-3 1-2v-4l-1-1v1ZM136 132l4 1 3 1h3-1l-2-1h-3l-2-1-1-1-1 1ZM96 137l1 3 2-3h-2c-1-2-1-1-1 0ZM102 137l-1 1v1l-1 11a215 215 0 0 1 0 15q0 6 1 4v-17a109 109 0 0 1 1-15c1-1 1-1 0 0ZM96 141l-1 2-1-1c0-1 0-1 0 0l1 1v8l1-3 1-2v-3h-1v1l1-3h-1v-1 1ZM88 148l-1 5-1 4v1l3-11v-2l-1 3ZM28 148h-2l-3 1h-1l-7 4-2 2-7 9H5l-1 3-4 7c0 2 1 0 2-2a41 41 0 0 1 6-10l10-10 4-2 7-2h-1ZM35 149h-4v1a151 151 0 0 1 16-1H35ZM91 149v4l1-2-1-2c-1 0-1 0 0 0ZM35 151c-4 1 1 1 7 1 3 0 3 0 2-1h-9Z"/><path d="m23 152-6 3h2l2-1v-1h2l3-1h5-8ZM93 153h1v-1l-1 1ZM92 155v2-1l1-1c0-2 0-1-1 0ZM84 157l-1 2v7a28 28 0 0 0-1 3l-1 2v4c1 1 1-2 2-8 2-5 2-11 1-11v1ZM16 157c0 2 0 2 1 1v-1h-1ZM63 160l-1 2v1l1-2v-1ZM96 159v5l1-3c0-2 0-3-1-2ZM16 160l-1 1c0-1-1 0 0 0l-1 1-1 1v1l-2 3v1c0 1 0 0 0 0l1-1 1-1v-2h1c0 1 0 1 0 0l1-2h2l-1-2c0-1 0-1 0 0ZM22 162l-1 2 1-1v-1c0-1 0-1 0 0ZM92 162h1c0 1 0 0 0 0h-1ZM62 165v1h1l-1-1c-1 0-1 0 0 0ZM16 165v1l-1-1v10l2-4-1-1v-3l1-4-1 2ZM86 165l-1 2v2l-1 2c1 1 2 0 1-1l1-2v-2l1-2v-1l-1 2ZM91 164v2c-1 0-1 0 0 0l1-1-1-1ZM20 165l-1 3v7l1-3 1-5c1-3 1-3-1-2ZM96 165v7c0 3 0 4 1 2v-3a75 75 0 0 1-1-6Z"/></svg>