<svg xmlns="http://www.w3.org/2000/svg" viewBox="0 0 196.4 175"><path d="M92 1 77 4c-13 1-24 5-24 8s-12 9-18 9l-6 2-2 1c-5 3-9 8-10 10l-7 9c-1 3-7 13-8 20v2l-1 7-1 14c2 9 11 19 20 20l7-1c1-4 11 3 14 10 4 8 13 14 20 14 11 0 18-1 20-2 2-2 11 6 12 13 1 2 4 6 7 7 5 3 21 4 21 2 0-1 6-2 14-2l13 1c-6 10-12 27-9 27 1 0 3-4 4-9l6-16 3-6-8 1c-5 1-11 1-15-1-6-1-7-1-9 1-2 3-4 4-11 2-10-1-13-3-13-9l-1-4-5-5c-3-6-9-9-10-5l-17 3c-3 0-6-1-8-3l-6-3c-2 0-4-2-4-3l-1-5v-3c3-2 2-5 0-4-4 2-6-2-4-5l8-10c5-6 8-7 9-6 3 2 9 2 8 0l-4-1c-1 1-2 0-2-1l1-3c1-1-3-6-9-12-5-6-11-13-11-15-3-14-3-16 1-17 5-1 7 1 4 4s-3 11 0 13v-1l3-10 5-8-5-1c-4-1-8 0-13 7-3 3-3 3-6 0-1-2-3-3-4-2-3 2 3 6 7 6 2 0 4 3 5 7 1 5 6 11 12 18l9 10-4 2c-5 2-10 0-12-6l-4-4c-2 0-2 1-1 4l4 4c2 2-6 8-10 8S18 74 19 68c0-1 0-2-2-2l-1 2c0 3 5 14 8 18s1 5-7 3c-6-1-9-7-3-6 3 1 2-1-2-7-7-10-8-11-3-2 3 7 3 7 0 9s-3 3 0 4c1 1 3 3 2 5s2 2 11 3c12 1 19 4 17 6l-23 1c-3 0-9-8-9-11l-3-6c-3-3-3-4-1-7 1-2 2-5 1-7-2-5 13-34 17-35 2-1 4-2 4-4 1-2 3-4 6-5l13-4c9-5 11-5 11 0 0 2 1 3 2 3l2-2-2-4c-4-2-2-6 3-8 7-4 26-6 29-3l2 3c0 2-14 11-17 11-2 0-2 1-2 2 1 2 11-3 19-10 3-2 3-4 2-5-2 0-2-1 0-4s4-3 10-2l20 3c4 0 17 5 24 8a110 110 0 0 1 30 32c2 0 2 1 0 3s-2 3 0 3l2-2c0-3 6 4 7 9 1 3 0 6-2 9-4 5-3 11 0 8l1-2c-1-1 0-3 1-5 2-3 3-3 5-2 2 2 2 10 0 20l-2 10-4 8c-2 4-4 5-7 4-4-1-4 0-3 3 3 6 0 12-10 22-9 8-10 10-8 12h1c-1-1 4-6 10-11 7-6 11-11 12-15 1-3 2-5 3-4 2 0 3-1 2-4-1-4-1-4 1-4 1 1 3 3 3 5l2 4v-4l-1-7 6-32c0-3-1-8-3-11-3-3-4-8-4-9l-1-4c-1 0-7-6-13-14l-15-18c-6-6-29-16-38-17l-19-2-11 1ZM47 86v3l-6 4c-3 2-5 3-7 1h-6l-3-1 5-2 8-4c6-4 8-4 9-1Z"/><path d="m114 12-2 4c2 0 9-5 7-6l-5 2ZM82 13c0 2 1 2 2 2l1-3-1-2-2 3ZM122 16c-5 2-6 3-3 3l8-3c5-5 4-5-5 0ZM66 16l-1 1 3-1c2-2 1-2-2 0Z"/><path d="m98 18-4 3c-4 0-12 10-12 14l2 9v6c-2 1-2 7 0 10 1 1 1 4-1 6-1 2-3 3-5 1-4-2-7 0-7 3 0 6-8 2-10-4-1-5-4-8-4-4 0 3 7 16 9 16l2 4c0 2 2 3 3 3s1-1 0-4c-3-6 0-10 7-10 3 0 4 1 3 4l1 3c2-1 3-2 3-4v-6c0-3 12-3 14 0h3c3-3 24-4 29-2 3 2 3 2 1-2s-5-4-16-1c-5 1-7-2-8-10-1-7-1-9 3-13 3-4 5-5 6-3l4 2c2 0 5 1 5 3l5 7c2 3 3 3 5 0s4-3 9 0l5 2c-2-2 9-10 13-10 2 0 3-1 3-2 0-3-8-1-14 4-3 2-6 3-8 2l-5-1c-2 0-5-1-6-3-2-2-3-2-3 0s-1 2-3-1l-6-3c-2 0-2 0 0-3 3-3 16-3 23 1q5 3 5 0c1-4-2-5-18-5l-8-1c0-4 9-7 16-5h6l-2-4c0-2-1-3-2-2l-5 2c-6 0-17 5-16 7 0 5-1 7-4 7-2 0-6 2-9 7-2 3-5 7-6 6l-8 2c-3 2-4 3-3 4l5-1c3-4 10-3 10 1l1 5c3 5-2 7-11 5-8-2-8-2-9-8l1-5v-9c-3-11-2-13 6-17 6-3 12-8 9-8l-4 2Z"/><path d="M106 19c-1 1 0 2 2 1 3-1 3-3 1-3l-3 2ZM63 24c0 1 0 2 2 3 1 1 2 0 1-2-1-3-2-3-3-1ZM48 26l2 2 1-2-2-1-1 1ZM112 27l-11 2c-5 1-7 2-9 6q-3 6 1 4c2-1 3-3 2-4s2-2 13-4l9-3c2-3 0-3-5-1ZM153 28l2 5c3 1 3-3 0-7-1-2-2-2-2 2ZM59 33c0 2 1 5 3 7l4 6c0 2 1 3 3 3 5 0 5-1-2-8-3-3-5-6-4-9 0-2-1-3-2-3l-2 4ZM72 31c-1 5-1 6 1 2l1-4-2 2ZM34 32l1 2 2-2-2-2-1 2ZM118 44l2 5c3 2 3 0 0-5q-2-4-2 0ZM164 45l4 5 4 2-3-4-4-5c-1-1-1 0-1 2ZM51 48l3 3 3 6c0 4 3-3 3-8 0-3 0-3-2-1-1 2-2 2-2 0-1-2-5-3-5 0ZM26 49c1 4 5 10 6 8v-2l-2-4c0-2-1-3-2-3l-2 1ZM73 51c-2 4-3 9-1 7 1-1 3 0 4 2 2 3 2 2 1-4q-1-9-4-5ZM155 49c0 3 9 8 13 8 3 0 5 1 5 2l2 1 1-2c-1-2-4-3-6-3-3 0-7-2-8-4-4-3-7-4-7-2ZM114 52c0 1 1 2 3 2l6 3c5 3 8 2 4-1-6-4-13-6-13-4ZM15 54c1 2 0 3-3 4l-4 3c0 2 4 1 7-1 1-3 2-2 8 3 4 4 6 8 6 12l1 5c3 0 2-12-2-15l-3-6-3-2c-2 0-3-1-4-3l-3-3v3Z"/><path d="m141 52 3 6 2 8c0 3-2 4-6 4l-8 2c-1 1-8 2-14 1s-13 1-15 2c-3 1-4 1-6-1-4-4-6-2-3 2 2 2 2 3-1 3l-8 4c-5 3-5 3-7-2l-3-5c-3-2-3-1 1 6 2 5 2 6 0 7-1 1-4 2-5 1-4-1-5 2-2 4 2 1 12-4 17-8l8-5 12-3c6-3 9-3 13-1 5 2 7 2 12-1 15-6 23-5 16 2-2 3-6 15-5 16l5-9c5-11 8-12 13-7 3 4 16 8 19 7 2-2 2-5-1-4h-6c-2-1-2-1 0-5l4-6c3-3 2-7-1-5l-4 7c-2 7-7 9-9 4-1-2-3-3-5-3q-4 0 0-4l4-7c-1-4-1-3-3 1-4 9-8 8-9-1-1-4-3-8-5-9l-3-1ZM64 58c0 6 2 11 4 7v-4l-3-5c0-3-1-2-1 2Z"/><path d="m150 55 2 4c1 2 1 2 1-1l-1-4-2 1ZM137 60l2 3c1 1 2 0 2-1l-2-2h-2ZM38 64l1 4c1 2 2 1 2-2 0-4-1-5-3-2ZM165 65c-1 5-1 6 1 2l1-4-2 2ZM185 80l-1 3c0 1 1 1 2-1 1-1 2-2 1-3l-2 1ZM111 83c1 9 0 10-9 9l-12-2c-2-1-3-1-2 2s0 2-3 2c-2 0-3 1-3 2 3 2-2 6-9 8-7 1-8 1-11-2-2-1-3-5-4-8 0-5 0-6-2-2-1 3-1 5 2 9 5 7 12 8 21 3 6-3 9-1 7 5-4 6-8 7-18 4-11-3-10-1-16-11-3-7-4-8-4-4 0 3 10 16 13 16l6 2c8 3 19 0 21-5 0-2 2-3 10-3l14-2c3-1 4-1 3 1-1 4-15 11-21 10l-6 2c-1 2 0 2 5 1 4 0 8 0 11 2l5 2-4 4-5 3h-2l4 2c2 0 4-1 5-4 2-4 4-5 6-2 2 2 14 7 16 6 1 0-7-5-14-7q-4-2 0-3h5c1 1 1 0 1-1v-3c1 0 2 0 1-1l-3 1c-2 2-13 2-15 0-1-1 7-5 11-5l4-2c1-1 0-1-1-1h-1l10-2c7 1 10 0 14-3 3-3 4-3 3-1s0 4 1 4c2 1 3 2 2 3s1 2 2 3c2 0 3 0 3-2 0-3 0-2 1 1 2 5 4 5 7 0 2-3 2-3 0-3-1 0-1-1 1-2 2-2 1-2-3-1-6 1-12-1-11-3l5-1c4 1 4 0 4-5l2-11c1-4 0-6-1-6l-2 4c0 6-4 15-7 16s-17-4-19-7c0-2-2-2-4-1l-7 1c-3-1-4-2-4-8 0-4-1-7-2-7l-1 3Zm4 14 7 2 4 1 5 1c3 1 6 1 7 3h-4l-8 1c-2 2-4 1-8 0-4-2-6-2-12-1-7 2-15 1-20-3-2-2-2-2 1-4 3-3 22-3 28 0Z"/><path d="m132 82-7 2c-4 0-4 0-2 3 3 2 4 2 9-2 6-5 5-7 0-3ZM168 90c-3 6-3 9 1 5l2-6c-1-2-2-1-3 1ZM176 97c-9 9-13 15-9 15 2 0 3-1 2-4 0-1 2-3 5-4 2-2 4-4 3-6l2-2 5 2c2 2 2 2 1-1-1-1 0-4 1-5v-3c-1 0-6 3-10 8ZM64 96c0 1 1 2 3 2l2-1-2-1h-3ZM161 103l2 2c2 0 3-1 2-2l-3-1-1 1Z"/><path d="M180 105v1l2-4s-2 1-2 3ZM141 112h3c1-1 0-1-2-1s-3 0-1 1ZM49 114c-2 1 3 5 5 4l7 2 5 2c0-2-16-10-17-8ZM128 118c4 2 7 2 4 0l-5-2c-2 0-2 1 1 2ZM138 118l4 3q3 3 1 0l-4-3h-1ZM162 118l4 2 3-1-7-1ZM185 122v4c1 2 3-1 2-4 0-3-1-3-2 0ZM127 122l4 3c3 2 3 2 1-1s-5-4-5-2ZM134 122l2 3h4v-2h-4l-2-1ZM160 123v2c2 0 2-1 2-2v-2l-2 2ZM193 127l2 10 1 5v-5l-1-10-2-5v5ZM144 127l5 1c6 0 5-2-2-2-2 0-4 0-3 1ZM129 128l5 4c3 2 4 2 3 0l-3-3-4-1h-1ZM139 132l2 3c1 1 1 0 1-2-2-3-3-4-3-1ZM158 132l-1 2c-2 1-2 1 0 1 3 1 4-2 2-4-2-1-2-1-1 1ZM107 135c0 1 1 2 3 1l2-2-2-2c-1 0-3 1-3 3ZM145 137c0 3 1 3 3 2 3-3 2-5-1-6-2-1-2 0-2 4ZM188 138c0 2 0 3 1 2v-4c-1-1-2 1-1 2ZM188 150c0 4 0 6 1 4v-8c-1-2-1-1-1 4Z"/></svg>