<svg id="Lag_1" xmlns="http://www.w3.org/2000/svg" viewBox="0 0 211.1 175">
  <defs>
    <style>
      .cls-1{fill:#ff6445}
    </style>
  </defs>
  <path class="cls-1" d="M5 1C3 2 4 5 6 5l1-1 1-2c0-2-2-3-3-1ZM1 5l1 2c1 1 1 0 1-1-1-2-2-3-2-1ZM11 7c-2 1-5 7-4 7h1l2-3c2-2 2-6 1-4ZM0 11l1 2v1l1-2-1-2H0v1ZM3 14v1l2-1H3ZM6 26l-4 1c-2 2-2 2-1 6l4 15 4 12 1 5 2 3 5 8 15 21 4 5-2 3-4 7-4 7-2 9c-4 11-4 13-1 14l4 5c1 3 3 5 3 3l-4-9c-2-2-3-2-2-7l3-11 1-4 4-5c2-3 5-8 5-11 1-2 1-2-5-8l-4-5-1-1v-1h8l1 1c0 1 1 1 11-1l4-1 1-1c1 1 4 0 7-2l6-1c0 2 3 4 4 4v-1l-1-2-1-4c-2-2-2-2-8 1l-14 5c-6 2-7 2-8 1l-6-2c-6 0-7-1-7-9 0-7 0-8-2-9s-1-3 3-5l2-3c0-3-4-12-7-16l-6-10c-4-7-5-8-8-7Zm5 7 4 7 3 4 4 4c4 6 4 12 0 13-2 2-3 6-1 7l1 5c0 4 0 5-1 3l-1-2-3-5-4-5-1-4a163 163 0 0 1-9-29c-1-1 2-4 4-3 1 0 3 2 4 5ZM107 40c-1 1-1 2 2 3h1l-1-2c0-2-1-3-2-1ZM60 43l12 5c4 0 3-1 0-2l-4-1h4l3-1-8-1h-7Z"/>
  <path class="cls-1" d="M30 45c-6 1-7 3-3 4 3 0 4 2 2 2-1 0-2 1-2 3s1 2 3-2l4-5 2-2h-6ZM108 46l1 2 1 1c2 0 1-3 0-4-3-1-4 0-2 1ZM71 49l4 7c1 0 0-6-2-7h-2ZM104 49l3 1c2 0 2 0 0-1h-3ZM112 53l-1 1c-2 0-2 3-1 4s5 0 5-1l-2-1h-3l2-1 1-2v-1l-1 1ZM31 54l-1 2h1l3-1c2 0 2 0 1-1h-4ZM104 58l1 1 1-2c0-2-1-2-2 1ZM71 57l1 3 1-1c0-2-1-3-2-2ZM31 58l-2 2 1 1 3-2 1-1h-3ZM78 59l2 3c2 1 2 1 0-1l-2-2ZM106 62c-1 1 1 2 3 2l2-1c1-2-4-3-5-1ZM26 65c-3 0-3 2 0 2l2-1v-2l-2 1ZM69 68l-2 6-1 1v2l6-11c-1-1-1 0-3 2ZM84 66c-2 1-4 3-4 5l-2 4c-3 3-8 10-7 11h1l9-13c2-4 6-6 14-4 4 1 3 0-1-2s-7-2-10-1ZM104 67l2 2-1-2-1-2v2ZM28 71c-2 0-2 2-1 2l2-2v-1l-1 1ZM149 89l-1 8v2l-2-1 2 2a46 46 0 0 0 18 9h2l-6-3-6-3-2-1-2-1c-2-1-2-2-1-9v-3h-1ZM173 111l5 1 6 1h4l4 1 7 1c5 1 8 2 9 7 1 4 1 5-2 5-1-1-5 0-9 1-6 2-10 2-17 2h-11c-2 0-3 3-1 3l1-1 12-1a80 80 0 0 0 22-2c6-1 8-2 8-6l-3-6c-2-2-4-3-7-3l-7-1c-2-1-4-2-5-1l-5-1c-5-1-11-2-11 0ZM132 117l-9 8-3 2v9l2 9 2 10 2 4 1 4 1 2 2 2 1 1 1 4 1 3 1-6v-5c-3 0-5 0-5-2l-1-4-2-4-1-7c-2-3-3-7-3-12v-7l5-3 7-7 1-2 3 2 6 3c3 1 4 2 3 3 0 2 0 2 2 2 2-1 3 0 4 1s3 2 4 1 2 1 2 2c1 2 2 2 3 1h1l2 2c2 0 1-3-2-4l-14-7-2-2-6-3c-5-3-6-3-9 0ZM28 155l-1 5c0 2-1 2-4 2-3-1-3-1-3 1l-1 7 1 5 2-7c1-2 1-4 3-4l3-4 1-3c2-1 2-5 1-5s-2 1-2 3ZM78 41c1-2 4-3 7-3l5-2c4-3 13-6 14-5v2l-17 6c-6 2-8 6-7 14 1 4-1 3-2-2-2-5-2-8 0-10Z"/>
</svg>
