<svg xmlns="http://www.w3.org/2000/svg" viewBox="0 0 179.8 175"><path d="m128 1-2 1 1 1h6l-1-2h-1c0 2-1 2-2 0h-1ZM129 1h1l-1-1v1ZM141 1l1 2V1l-1-1v1ZM151 2l1 1V1l-1 1ZM155 3h1l-1-1v1ZM121 4l-2 1v1l2-1 1-1 1-1 1-1-3 2ZM136 3h2-2ZM12 4l2 2v4c-1 1-1 1-2-1l-1-2H8l1 1h1l1 3h3l2 1c0 2 5 4 8 4 4 0 7 2 7 3l5 5c1 1 2 1 0-1-1-1-1-1 0 0v-1c-4-5-7-6-13-7-4 0-6-1-7-4 0-3-4-9-4-8Zm23 17c1 2 0 2-2 0l-1-2 3 2ZM145 4l2 2-1-2-2-1 1 1ZM153 4v1l1-1h-1ZM126 4v1c1 0 0 1 0 0h4V4h-4ZM139 4l4 2-1-1-3-1ZM135 5l1 1 1-1h-2ZM98 7v4l1 2v-1l-1-5c-1-2-1-2 0 0ZM139 7h2-1l-1-1v1ZM91 7v1-2 1ZM117 8c-4 4-4 5 0 2l4-2h3l-2-1h-2c-1-1-2-1-3 1Zm2 0-2 1 2-1c1 0 1 0 0 0ZM126 7h5-5ZM139 8c0 1 0 1 0 0V7v1ZM143 8h1V7h-1ZM164 8v1-2 1ZM44 10l-1 1 2-3-1 2Z"/><path d="M129 9h-4c-4 0-6 1-6 2h-1l-3 2-2 1v2l-1 2v4l1 2v5-1l1-3 1-2 3-1 3-2 2-1c-1 0-7 2-9 4-1 0-2-1-1-3v-1l1-3c1-2 3-4 5-4l2-1c0-1 10-2 12-1l4-1-2-1v1l-6-1v1ZM107 10l-1 1h1v-1ZM39 11l-2 2-1 2-1 1h1l5-5h1-3ZM49 10v1l-1 1s-1 0 0 0l-5 6 2-3 2-3c-1-1-1 0-2 1l-1 2-2 1q-1 1 0 0v3l-1 2h1l4-4 2-3 1-1 1-2s-1 0 0 0v-1h-1ZM94 11l1 5a351 351 0 0 0 4 14l-1-8-3-8-1-4v1ZM108 11v2-1l1-1v-1l-1 1ZM159 13l-2 2h-2c-1 0-1 1 1 1l4-3 2-2-3 2ZM53 12l-1 1 2-1h-1ZM110 12v1l1-1-1-1v1ZM111 13l-1 2 1-1 2-3-2 2Z"/><path d="m124 12 1 1h3l3-1c-1 0-1 0 0 0h2c1-1-1-1-5-1l-4 1ZM41 14h-1l-1 1-1 2 2-1 3-4-2 2ZM55 13v1l1-1h-1ZM59 12l-2 4-6 5c0 2 1 1 4-3l4-3v-3ZM97 13v3l1 2v-5h-1ZM106 15c0 3 1 6 3 6l-1-1-2-5v-3 3ZM119 13c-3 1-3 2-2 2h1l2-1 2-1h-3ZM92 15c1 2 1 3 1 0l-1-2v2ZM62 14l-2 1c0-1-1-1 0 0v2l2-2v-1ZM50 15l-1 2c-1-1-3 1-3 2l-1 1-1 1h2l1-1 3-3 2-3-2 1ZM99 17l1 6v2h1v-2l-1-2v-5q-1-2-1 1Z"/><path d="M107 14v1l1-1h-1ZM159 15q0 2 1 0l1-1-2 1ZM33 15v3l1-2q0-2-1-1ZM64 16l-2 1h-1c0 2-2 4-3 4l1-1h-1l-2 1c-2 1-3 1-1 1h1l1-1v1l-2 1h2l7-7c2-2 2-2 0 0ZM121 15h2-2ZM132 15v1l1-1v-1l-1 1ZM140 15h2-2ZM53 16l-3 2c-3 2-3 3-1 2 2 0 6-5 5-5l-1 1ZM147 16h5-1l-4-1c-2 0-2 0 0 1ZM107 17l1 2v-1c0-3-1-3-1-1ZM120 17c-5 0-7 1-6 2v2s-1 0 0 0l2-1v-1l-1-1h1l9-2h-5ZM127 16h1-1c-1 0-1 0 0 0ZM138 16h1-1c-1 0-1 0 0 0ZM39 18l-1 2 2-2v-1l-1 1ZM110 17l1 1c0 1 0 0 0 0l-1-1ZM146 17h2l-1-1-1 1ZM155 17h1c2 0 2-1 1-1l-2 1ZM35 18l1 1-1-1c1-1 0-1 0 0ZM128 17l1 1h1l-2-1ZM152 18h1l-1-1v1ZM126 18v1l1-1h1-2ZM56 20l-2 1 2-1 2-2h-1l-1 1ZM142 19c-3 0-9 3-9 4l-2 1c-1 0 0-1 0 0v4c1 0 1 1-1 3l-2 1v2l1 2 1-2c-1-1 0-1 0 0 1 1 1 0 1-1l1-4 1-2v2c-1 3 0 3 2 1l1-2-2-1-1-1h-1v-1c-1 1-1 1 0 0 2-2 11-6 16-6l13 4h1l-5-2c-4-2-10-3-15-2Zm-10 8h-1l1-1v1ZM61 22l-2 2h2v-2l1 2c-1 1-1 1 0 0l1-1v-1l2-2v-1l-4 3ZM67 20v2c1 0 2 0 1-2h-1ZM110 21v2l-2 2 2-1 1-1v-2h-1ZM65 22h1v-1l-1 1ZM82 23l-1 2 2-4-1 2Z"/><path d="m153 22 1 1h1l-2-1ZM45 23l-2 1h2l2-1h-2ZM49 23l3 1 2-1h-5ZM67 24l-3 1-1 1h-1v1c1 0 2 1 2 3v2l1 2 1 6c2 4 2 4 1 8v4l1 1v1-1l1-2h1c1 3 0 5-1 8-1 1-2 3-3 2v3l-2 1c-1 4 0 2 3-3 2-2 3-5 4-4l-3 5-4 7v1l-7-1-1 1 4 1 4 1c2 1 2 0 2-3l2-5 1-1 2-3V50l-1-4-1-3-1-2-1-2-1-5-2-7v-1l1 1h1v-1h1l1 1-2 1v1l2-1 1-1 1-1h-2v-2h1c1-2 0-1-2 0Zm3 23-1-1v-2l1 3ZM84 23c0 2 0 2 1 1v-1h-1ZM125 23h2-2ZM39 24h2l-1-1c-1 0-2 0-1 1ZM110 25c-2 2-2 4-1 4l1-1h1v-4l-1 1Zm1 1-1 1v-1h1ZM120 24v1l1-1h-1ZM122 25l-1 3-1 3-3 2-2 1 2-1c3 0 7-4 7-7l-1 2-2 2v-1l2-5-1 1ZM127 25v1l1-2-1 1ZM156 25l-2 1h4l-3 1v1h4l1 1v2h3l-5 2-5 3c-2 3-3 3-2 0 1-2 2-5 1-6l2-1h4-3l-6-1h-1c-1 0-9 3-12 6l-2 3-2 2c0-1 0-1 0 0l-2 1c-1-1-1 0 0 0l1 2c-1 0-1 0 0 0l1-1 1-2 2-2 2-1c2 0 2 0 1-1l1-2 3-1 5-2h3c1 1 2 1 1 2l-1-1h-1l-4 1c-1-1-3 1-3 2l1 2c1 1 4 0 4-2 0-1 1-2 2-1l-1 1-1 1h1c1-2 3-1 3 0l-1 1-1 1c-1 0-1 0 0 0v2l-3 1c-1 0-2 0-1-1l-1-1v2c0 2-1 2-2 1l-2-2-1-1c-1-1-2-2-2 0l4 3 2 1-4 1-5-1-2 1h1c2 0 3 1 2 2s-1 1 0 0 2-1 1 1l-1 2 1-1 1-3 3-1 6-2 5-2 1 2 2 2-1-2-1-2 1-1 2-1h1c-2 0-1-1 1-2l4-1 1-1c3-1 3-3 0-4-2-1-3-2-1-2 0-1 0-2-2-2h-3Zm4 1-1 1v-1h1Zm-15 9c-1 0-2-1-1-2h1v2ZM38 25h2l-1-1-1 1ZM42 25h8-8ZM148 25c-2 0-3 1-1 1l3-1h1l2 1 1-1h-6ZM52 25h1-1c-1 0-1 0 0 0ZM128 26l-2 3 2-1 2-1-2 1c-1 2-1 2-2 1h-2v1c2 1 1 10-1 11l-1 1-1 3v1c1-1 1 0 1 1v1l1-1 1-1 3-5h1v-1l-1-1h1l2-2c2-2 1-2-1 0l-2 1v1l-2 3-1 3c-2 0-2-1 0-3l2-8v-2l2-2h2v-3c0-2-1-2-2-1Zm-2 4v2l-1-1c0-2 1-2 1-1ZM143 26h-3 5-2ZM91 28v3l1-2c0-3-1-4-1-1ZM95 27l1 1v-2l-1 1ZM38 29h-8l4 2c3 2 8 3 11 1l7-1 4-1h-4l-5-1h-3c-1 1-1 1 0 0l-1-1-5 1Zm7 2-1 1c-1 1-1 1-2-1 0-2 0-2 1-1l2 1Zm-3 0c1 2-5 2-7 0-1-1 0-1 3-1l4 1ZM111 29l-2 1v1h2l1-1-1-1ZM9 30v4l4 3v-1c-3-2-4-4-2-5v-1H9ZM113 30l-1 2v1l-1 1h1l1-1v-3c0-1 0-1 0 0ZM115 30v1-2 1ZM24 31c-1 1-2 1-1 2l4-3-3 1Z"/><path d="m28 32-2 2-1 1c-1-1-4 2-4 4l1-1h1v1l-1 2-1 1 3 2 5 1 1 1-1-2h-2l-2-1h1v-1l3-2 4-1-1 3c0 3 1 5 5 8l5 1 5-5 1-2h1v1l1 1 1 1v4l1 2 1-1-1-2 1-2h1l-1-1c1-1 0-1-1-1l-1-1 1-1h-2l-3-1c-1-1-2-2 0-2l5-1 2-2-3-2-4-2v-1h-2l-5 1-5-1c-5-3-4-3-7-1Zm14 3c6 0 9 1 10 3 0 1-5 3-7 2h-4v-2 1l-1 1-1-1-2-1h-2l-3 1c-9 0-8 0-8-2l1-1 3-2 1-2c2-1 2-1 4 1 3 1 3 2 9 2Zm-3 5 1 1c-3 0-4 2-3 4s2 2 5 0c2-1 2-2 1-2l-1-1v2h-1v-2h2l1-1 1 1v5c-1 2-5 3-6 2h-1l-3-2c-1-2-2-2-1-4 0-3 2-4 5-3Zm-15 0 1 2-1-1h-1v1-2h1Z"/><path d="M45 36v1l1 1 2-1 1 1-2-2h-2ZM38 36v1c0 1 0 0 0 0h1v-1h-1ZM42 36v1c1 1 2 0 2-1h-2ZM42 39h2c1-1 1-1-1-1l-1 1ZM92 30l1 2h1l-1-2h-1ZM12 33c0 1 1 2 2 1l-1-3-1 2ZM49 32v1h1l1 1 3 1 2 1 1 1-1-2c-1-2-1-2-3-1l-1-1 5-1c0 1 0 0 0 0h-8ZM58 32l1 1h1-1v-1h-1ZM110 33l-1 1-2 6-3 8v6l-1 3v1q0 2 0 0h2v2h1l1 2c4 3 5 8 3 11v12l2 6v2h1v1l-3-1-2-2-3-2v-1l-2-4-1-1-1-2c0-2-1-3-2-3l-2-1-1-3 1-3 1-1c-1-2 3-2 6 0l1 3c-1 2 0 4 1 3 1-2 0-5-1-7l-1-1-1-1h-4l-1-1c0-2 1-3 2-2v-2l-1-15V33l-1 16a101 101 0 0 1-1 20l-1 1c0-1-1-1-1 1v5h-1l1 1c1 0 3 4 2 5v1l1 6 1 4v-6l-1-4h1l2 7 1 1v2l1-1v-2 2l2 2 10 7 1 1 6 7 4 7c3 3 4 5 2 5l-2 1-3-1h-1l6 2 1-1c2 0 5 3 5 4l1 1c1-1 2 2 2 3h2v1c-1 0 4 7 7 9l1 3 8 6 3 3 14 7 8 3-2-1-1-2h3l-2-1h-2l-1 1-1-1c-1 1-1 1 0 0l-1-1-1 1-1-1-4-2h3-3c-2 1-19-11-18-13l-1-1-7-9-10-11-4-5c-2-3-3-4-2-5l1 1 1 2a54 54 0 0 0 10 11l-5-6a43 43 0 0 1-7-9l-2-3-2-5-2-3-2-4v2l1 2-2-4h-1v-1l-1-3-1-1 2 2 1 1-3-4h-1l-1-5V71l1-4-3-4c-4-6-4-7-4-13 0-4 0-5 3-10 3-7 4-9 2-7Zm-9 49c0 3 4 9 5 10l7 4 5 4 3 4 1 2 1 1 1 4-2-3a28 28 0 0 0-13-13v-1l-2-1-3-2c-2-2-4-6-3-7h-1v-1l-2-3-1-2c1-1 3 2 4 3ZM115 32h2-2ZM123 33h1v-1l-1 1ZM20 35l-2 1-1 1-2 1-2 1-1 1 1 1 9-7-2 1ZM120 34h2l-1-1-1 1ZM132 34v1l1-1h-1Z"/><path d="m112 36-4 6 2-2 3-5 1-1-2 2ZM87 37v1-3 2ZM121 36h1v-1l-1 1ZM158 39c-3 3-3 3-1 2l4-5-3 3ZM4 38c1-1 2 0 3 1l1 1-1-2H4ZM100 40l1 5c1 1 1 1 1-2-1-5-2-7-2-3ZM60 39l1 1v-1l-1-1v1ZM93 39v1-1c0-1 0 0 0 0ZM9 41h1v-1l-1 1ZM149 43c0 1 0 1 0 0v-1 1ZM109 43h1v-1h-1ZM130 43v1l1-1-1-1v1ZM145 43l1 1c0-2 0-2-1-1ZM54 44h-1 2v-1l-1 1ZM107 44l-1 9 1-2v-7ZM127 44v1l1 1 1 1v-1l-1-1v-2l-1 1ZM139 46l-1 2 1-1c2-2 1-3 0-2ZM143 45v1l1-1-1-1v1ZM118 47l-1 1 3-2-2 1ZM149 46c-2 1-3 3-5 3l-1 1 2-1 5-3h-1ZM124 47v1l1-1h-1ZM55 47l1 1h1l-2-1ZM102 50v1-3 2ZM164 48l1-1h-1v1ZM29 48v1l1-1-1-1v1ZM95 50l-1 5 1 3V48v2ZM118 49l-2 1c0-1 0 0 0 0h2l1-2-1 1ZM127 49v1-1c1-1 0-1 0 0ZM132 49h1l-1-1v1ZM31 50c0 1 3 3 4 2 0 0 1 0 0 0l2 2c2 2 3 2 2 0-1-1-1-1 0 0l3 1h1l1 1h3l-2-1-4-1-3-1-1-1-1-1h-3v-1h-2Zm6 3s0 1 0 0l-1-1 1 1ZM53 50c0 1 2 3 3 2l-2-1-1-1ZM114 50c-2 2-3 4-2 5l1 4v3-3l1-4 1-1h-1c-1 1-1 2-2 1l2-3v-2ZM161 51h1v-1l-1 1ZM29 51l2 1v-1h-2ZM90 53v7-6l1-3-1 2ZM162 53l-2 2 2-1 1-3-1 2ZM23 53l2 1v-1h-3 1ZM159 55c-1 1-1 1 0 0l1-2-1 2ZM27 54l3 3c2 4 5 6 8 5h3-3c-4-1-5-1-6-3l-5-5c-1 0-1 0 0 0ZM58 55l4 1 1-1h-5ZM66 56v1c1 1 1 0 1-1 0-2 0-2-1 0ZM73 55v3l-3 6-2 4-1 4v5l1 7-1 6v1l6-7 1-2 1-3 1-3v-4c-1-3 0-5 1-8 2-3 2-4 1-6-1-1-4-4-5-3Zm4 4-1 4-1 8-2 8-2 6c-1 3-2 2-2-2v-6c-1-4-1-9 1-11v-1l2-1 1-2 1-1v-2l1-2 2 2ZM106 55l5 9 1 1v-4l-1-5v6l-3-4-2-3ZM137 55v1l1-1v-1l-1 1ZM140 55h2-2ZM162 55l1 1v-2l-1 1ZM52 56h2l-1-1-1 1Z"/><path d="m85 56-3 1c-2 1-3 1-2 4l-1 2v2l-2 11-1 6-1 2-13 14-1 2c0 2-5 9-7 11l-2 4-1 1c-2-1-3 0-3 1h1l1-1v1l-1 2-1 1v1l5-6c5-7 7-9 9-14l1-2 1-2h1l4-5 1-1 2-1 1-2 2-2c2-2 4-7 4-12l2-14c1-1 1-1 0 0h-1l1-1c1-1 1 0 1 2l-1 7-1 4 2-7c1-4 1-6 3-8l1-2-1 1ZM40 56l1 1v-1h-1ZM48 56l1 1 1-1h-2ZM139 56h2-2ZM143 56v1l1 1 2 1 1 1 2 1-1-1-2-2v-1l-1 1c1 1 1 1 0 0l-1-2h-1ZM159 56h1c1 0 2 0 0 0h-1ZM36 58l1 1-1-1-1-2 1 2ZM163 57l-2 1c-1 0-2 0-1 1l3-1 1-1-2-1 1 1ZM100 58l1 1v-2l-1 1ZM136 58h-1v1h1v-2 1ZM156 58l-2 2 2-2c2-2 2-2 0 0ZM158 59l1 1v-1h-1ZM132 59v5l1-5h-1ZM164 59v1l1-1h-1ZM41 64l-4 4c0 1 0 0 0 0l-1 1c-2 2-5 3-10 3h-5l5 1c7 0 8-1 14-7s6-7 1-2ZM152 61h1-1ZM90 63l1 1-1 4h1v-6l-1 1ZM89 63l-1 4v2l1-3v-3ZM113 64v2-3 1ZM133 64c0 1 0 1 0 0l1-1-1 1ZM150 63h2-2ZM52 64v2l1 2 2 3-1-3-2-4ZM92 68v5l1-6-1 1Z"/><path d="m77 67-1 1h1v-1ZM144 68h1l-1-1ZM112 70v6c-1 5-1 5 1 0 1-3 6-8 8-8h1c-1-1-3 0-5 1l-2 1s-1-1 0 0l-1 2c-1 1-1 1-1-2v-3l-1 3ZM123 69h1l-1-1v1ZM127 69h-1 3-2Z"/><path d="m120 69-4 4-1 2c-2 2-3 11-2 13l1-1c-1-3 0-10 1-11l2-3 2-3 2-1h-1ZM128 70v1l1-1h-1ZM99 71v6-2l1-3v-1h-1ZM125 70h1-1c-1 0-1 0 0 0ZM56 73l4 1h2l-3-1-3-1v1Z"/><path d="M62 74c2 1 2 4 0 13v4l-1 2v2s0 1 0 0l-2 3-1 4-1 1-6 9c-2 2-1 3 0 1l8-11 4-7 3-3-1-8-1-10-2-1v1ZM100 74l1 1v-2l-1 1ZM51 75l1 1v-1l-1-1v1ZM102 76c-2 1-2 1-1 2s3 0 3-1v-1s1 0 0 0h-2Zm1 2h-1c-1 0-1 0 0 0h1ZM84 79v2l1-3-1 1ZM95 79v1-2 1ZM102 81l1 1v-1h-1ZM25 82h-1 4-3ZM83 82v1l1-1h-1ZM30 84h1v-1l-1 1ZM86 84v6l1-6h-1ZM25 85l1 1v-1h-1ZM94 89c1 6 1 7 1 2l-1-5v3ZM34 88l1 2v-1c0-2-1-2-1-1ZM42 89c1 0 1 0 0 0v-1 1ZM126 89l1 1v-1h-1ZM87 94v1l1-1v-1l-1 1ZM41 95h1l-1-1-1 1ZM143 114v1l1-1h-1ZM28 117v1l1-1h-1ZM31 119h1l1-1h-1l-1 1ZM46 119v1l-3 6-6 11a163 163 0 0 1-20 26l-1 1-3 2-2 1h2l2-1-6 3-8 5-1 1h1l2-1h1l3-2 4-2 8-6c-1-1 0-1 1-1l6-4 1-2 1-1 1-1 1-1 1-2 5-7 2-2 1-1 1-3 2-4v-1l1-1c1-1 1-2 2-1v-2c2 0 2-1 2-5v-2h-2l1-2 1-2Zm0 6-1 1-2 4-2 2s-1 0 0 0c0 1-2 7-4 9l-2 3-1 1c0-1 0 0 0 0l-3 4-3 5-1 1h-1c1 1-1 2-2 2l4-5 10-15 5-10c2-3 3-4 3-2Zm-23 35-2 2c-1-1 2-4 3-4l-1 2Zm-6 5h-1l1-1v1ZM142 131v2l1 1 1 1c0 2 2 4 3 4l1 1-2-3-2-2-2-4q-1-1 0 0ZM150 141l2 4 4 3 2 1h2v1l1 1h1v1h2l3 1-3-1a84 84 0 0 1-14-11ZM170 155l1 1h1l-2-1Z"/><path d="M1 172v1l3-2-3 1Z"/></svg>